<svg
                      width="18"
                      height="12"
                      viewBox="0 0 18 12"
                      fill="none"
                      xmlns="http://www.w3.org/2000/svg"
                    >
                      <path
                        d="M0.600006 11C0.600006 11.5523 1.04772 12 1.60001 12H16.4C16.9523 12 17.4 11.5523 17.4 11V10.6C17.4 10.0477 16.9523 9.6 16.4 9.6H1.60001C1.04772 9.6 0.600006 10.0477 0.600006 10.6V11ZM1.60001 0C1.04772 0 0.600006 0.447715 0.600006 1V1.4C0.600006 1.95229 1.04772 2.4 1.60001 2.4H16.4C16.9523 2.4 17.4 1.95228 17.4 1.4V0.999999C17.4 0.447715 16.9523 0 16.4 0H1.60001ZM0.600006 6.2C0.600006 6.75229 1.04772 7.2 1.60001 7.2H16.4C16.9523 7.2 17.4 6.75228 17.4 6.2V5.8C17.4 5.24771 16.9523 4.8 16.4 4.8H1.60001C1.04772 4.8 0.600006 5.24772 0.600006 5.8V6.2Z"
                        fill="#8A92A6"
                      />
                    </svg>