<svg width="20" height="16" viewBox="0 0 20 16" fill="none" xmlns="http://www.w3.org/2000/svg">
<path d="M12.8333 0C12.6351 0.355072 12.4584 0.721769 12.3042 1.0981C10.7896 0.858563 9.24678 0.858563 7.73217 1.0981C7.57802 0.721769 7.40134 0.355072 7.20308 0C5.77634 0.243779 4.38936 0.680359 3.08023 1.29775C0.739222 4.67619 -0.322443 8.77775 0.0854137 12.8677C1.61101 14.0146 3.32326 14.8893 5.14665 15.4532C5.56184 14.9048 5.93239 14.3239 6.25473 13.7162C5.65983 13.4969 5.08804 13.2194 4.54768 12.8877C4.69589 12.7891 4.83608 12.6789 4.96696 12.5582C6.54269 13.3172 8.2692 13.7114 10.0182 13.7114C11.7672 13.7114 13.4937 13.3172 15.0695 12.5582C15.2092 12.678 15.349 12.7878 15.4887 12.8877C14.9454 13.2167 14.3742 13.4973 13.7817 13.7262C14.0907 14.3477 14.4513 14.9421 14.8598 15.5031C16.6809 14.9411 18.3902 14.0662 19.9111 12.9176C20.3287 8.82691 19.2662 4.722 16.9163 1.34767C15.6218 0.717494 14.2486 0.264213 12.8333 0ZM6.70395 10.5318C6.2044 10.4959 5.73816 10.2679 5.40312 9.89563C5.06808 9.52336 4.89029 9.03577 4.90706 8.53521C4.88775 8.034 5.06467 7.54501 5.40022 7.17218C5.73576 6.79936 6.20347 6.57209 6.70395 6.53867C7.20442 6.57209 7.67213 6.79936 8.00768 7.17218C8.34322 7.54501 8.52014 8.034 8.50083 8.53521C8.52014 9.03643 8.34322 9.52541 8.00768 9.89824C7.67213 10.2711 7.20442 10.4983 6.70395 10.5318ZM13.3325 10.5318C12.8329 10.4959 12.3667 10.2679 12.0316 9.89563C11.6966 9.52336 11.5188 9.03577 11.5356 8.53521C11.5163 8.034 11.6932 7.54501 12.0287 7.17218C12.3643 6.79936 12.832 6.57209 13.3325 6.53867C13.8339 6.56959 14.3031 6.79613 14.6391 7.16953C14.9752 7.54292 15.1512 8.03333 15.1294 8.53521C15.1512 9.03709 14.9752 9.5275 14.6391 9.9009C14.3031 10.2743 13.8339 10.5008 13.3325 10.5318Z" fill="#28CCAB"/>
</svg>
