<svg width="20" height="16" viewBox="0 0 20 16" fill="none" xmlns="http://www.w3.org/2000/svg">
<path d="M20 1.90054C19.2645 2.21297 18.4641 2.43782 17.6397 2.52539C18.4956 2.02465 19.1366 1.23356 19.4424 0.30054C18.6392 0.771047 17.7593 1.10097 16.8417 1.27569C16.4582 0.871963 15.9944 0.550339 15.4792 0.330854C14.9639 0.111369 14.4083 -0.00127236 13.8469 -5.12117e-05C11.5755 -5.12117e-05 9.74883 1.81297 9.74883 4.03782C9.74883 4.35024 9.78729 4.66267 9.84978 4.96326C6.44874 4.78811 3.41546 3.18811 1.39887 0.73841C1.03143 1.35643 0.838874 2.06013 0.841245 2.77628C0.841245 4.17746 1.56472 5.41296 2.66795 6.13959C2.0178 6.11438 1.38287 5.9384 0.814806 5.62598V5.67568C0.814806 7.63781 2.22329 9.26385 4.10047 9.63781C3.74801 9.72797 3.38543 9.77409 3.02127 9.77509C2.75448 9.77509 2.5021 9.74906 2.24733 9.71355C2.76649 11.3136 4.27833 12.4757 6.0786 12.5135C4.67011 13.5999 2.9059 14.239 0.990266 14.239C0.646557 14.239 0.329287 14.2272 0 14.1893C1.81709 15.3372 3.97308 15.9999 6.29492 15.9999C13.8325 15.9999 17.957 9.85083 17.957 4.51356C17.957 4.33841 17.957 4.16326 17.945 3.98811C18.7429 3.41296 19.4424 2.70054 20 1.90054Z" fill="#28CCAB"/>
</svg>
