<svg width="50" height="50" viewBox="0 0 50 50" fill="none" xmlns="http://www.w3.org/2000/svg">
<path fill-rule="evenodd" clip-rule="evenodd" d="M31.2946 15.0015C31.2946 15.558 31.4821 16.0238 31.8597 16.3965L39.1683 23.582H16.487C15.8994 23.582 15.4143 23.7683 15.0368 24.1385C14.6592 24.5112 14.4692 24.9868 14.4692 25.5653C14.4692 26.1022 14.6592 26.5656 15.0368 26.9579C15.4144 27.3501 15.8995 27.5462 16.487 27.5462H39.2957L31.8597 34.7957C31.4821 35.2076 31.2946 35.6832 31.2946 36.2201C31.2946 36.757 31.4821 37.2326 31.8597 37.6445C32.0697 37.8112 32.3022 37.9436 32.5523 38.0465C32.8048 38.1519 33.0573 38.2034 33.3099 38.2034C33.5624 38.2034 33.8125 38.1519 34.065 38.0465C34.3175 37.9436 34.5476 37.8112 34.7576 37.6445L46.6667 25.627L34.7576 13.6071C34.3375 13.1952 33.8549 12.9893 33.3099 12.9893C32.7623 12.9893 32.2797 13.1952 31.8597 13.6071C31.4821 13.9797 31.2946 14.445 31.2946 15.0015Z" fill="#28CCAB"/>
<path d="M15.0097 1.49772C15.0097 1.08343 15.1497 0.73776 15.4322 0.460728C15.7423 0.154273 16.1021 0 16.5097 0C16.9147 0 17.2748 0.154454 17.5848 0.460903L26.4413 9.39679L17.5848 18.3352C17.4298 18.4578 17.2573 18.5558 17.0698 18.6343C16.8822 18.7103 16.6947 18.7495 16.5097 18.7495C16.3221 18.7495 16.1346 18.7103 15.9471 18.6343C15.7595 18.5558 15.587 18.4578 15.432 18.3352C15.1494 18.0263 15.0094 17.6733 15.0094 17.2737C15.0094 16.8765 15.1494 16.5235 15.432 16.2146L20.9603 10.826H4.00024C3.56267 10.826 3.20261 10.6789 2.92257 10.3871C2.64002 10.0954 2.5 9.74976 2.5 9.35015C2.5 8.92111 2.64002 8.56809 2.92257 8.29106C3.20261 8.01648 3.56268 7.87674 4.00024 7.87674H20.8656L15.4322 2.53227C15.1497 2.2577 15.0097 1.91205 15.0097 1.49772Z" fill="#80FFE5"/>
<path d="M15.0097 32.7482C15.0097 32.3339 15.1497 31.9883 15.4322 31.7112C15.7423 31.4048 16.1021 31.2505 16.5097 31.2505C16.9147 31.2505 17.2748 31.405 17.5848 31.7114L26.4413 40.6498L17.5848 49.5857C17.4298 49.7083 17.2573 49.8088 17.0698 49.8848C16.8822 49.9632 16.6947 50 16.5097 50C16.3221 50 16.1346 49.9632 15.9471 49.8848C15.7595 49.8088 15.587 49.7083 15.432 49.5857C15.1494 49.2792 15.0094 48.9262 15.0094 48.5266C15.0094 48.127 15.1494 47.774 15.432 47.4675L20.9603 42.0765H4.00024C3.56267 42.0765 3.20261 41.9318 2.92257 41.6401C2.64002 41.3484 2.5 41.0027 2.5 40.6031C2.5 40.1741 2.64002 39.821 2.92257 39.544C3.20261 39.267 3.56268 39.1297 4.00024 39.1297H20.8656L15.4322 33.7852C15.1497 33.5082 15.0097 33.1625 15.0097 32.7482Z" fill="#80FFE5"/>
</svg>
