<svg width="24" height="80" viewBox="0 0 24 80" fill="none" xmlns="http://www.w3.org/2000/svg">
<path d="M23.5001 0.5L23.5001 72.3157L12.0001 79.4125L0.500123 72.3157L0.500126 0.499999L23.5001 0.5Z" fill="#2A3046" stroke="#FDBF16"/>
<path d="M7.96 58.8319C7.96 58.1119 8.084 57.4799 8.332 56.9359C8.58 56.3919 8.948 55.9279 9.436 55.5439L10.504 56.4679C10.088 56.7959 9.784 57.1559 9.592 57.5479C9.392 57.9319 9.292 58.3799 9.292 58.8919C9.292 59.2279 9.336 59.5079 9.424 59.7319C9.512 59.9479 9.628 60.1079 9.772 60.2119C9.916 60.3079 10.076 60.3559 10.252 60.3559C10.468 60.3559 10.652 60.2719 10.804 60.1039C10.948 59.9359 11.068 59.6479 11.164 59.2399L11.5 57.7639C11.676 56.9799 11.94 56.4199 12.292 56.0839C12.636 55.7399 13.084 55.5679 13.636 55.5679C14.156 55.5679 14.604 55.7039 14.98 55.9759C15.348 56.2479 15.632 56.6279 15.832 57.1159C16.024 57.6039 16.12 58.1639 16.12 58.7959C16.12 59.3479 16.056 59.8559 15.928 60.3199C15.792 60.7759 15.608 61.1839 15.376 61.5439C15.144 61.9039 14.876 62.2039 14.572 62.4439L13.456 61.5079C13.712 61.3239 13.94 61.0959 14.14 60.8239C14.34 60.5519 14.5 60.2439 14.62 59.8999C14.732 59.5479 14.788 59.1799 14.788 58.7959C14.788 58.4679 14.752 58.1919 14.68 57.9679C14.6 57.7359 14.492 57.5639 14.356 57.4519C14.212 57.3319 14.04 57.2719 13.84 57.2719C13.632 57.2719 13.456 57.3439 13.312 57.4879C13.16 57.6239 13.044 57.8799 12.964 58.2559L12.604 59.8639C12.492 60.3279 12.348 60.7279 12.172 61.0639C11.988 61.3919 11.756 61.6439 11.476 61.8199C11.188 61.9879 10.848 62.0719 10.456 62.0719C9.984 62.0719 9.56 61.9439 9.184 61.6879C8.808 61.4319 8.512 61.0639 8.296 60.5839C8.072 60.0959 7.96 59.5119 7.96 58.8319ZM8.08 46.7599L9.412 46.7599L9.412 49.4119L16 49.4119L16 51.0679L9.412 51.0679L9.412 53.7319L8.08 53.7319L8.08 46.7599ZM16 38.3502L16 40.0662L14.068 40.7262L14.068 43.7622L16 44.4222L16 46.1142L8.08 43.2222L8.08 41.2422L16 38.3502ZM12.844 43.3902L12.844 41.0982L9.388 42.2502L12.844 43.3902ZM8.08 29.1474L12.196 32.7714L12.064 32.9034L14.308 34.8834L12.772 35.1354L8.08 31.0674L8.08 29.1474ZM8.08 34.3194L16 34.3194L16 35.9754L8.08 35.9754L8.08 34.3194ZM10.816 32.3154L16 29.0514L16 30.9474L11.74 33.5874L10.816 32.3154ZM16 26.6309L8.08 26.6309L8.08 20.6909L9.412 20.6909L9.412 24.9749L11.38 24.9749L11.38 21.6029L12.652 21.6029L12.652 24.9749L14.668 24.9749L14.668 20.5229L16 20.5229L16 26.6309ZM8.08 14.7771C8.08 13.5371 8.424 12.5771 9.112 11.8971C9.792 11.2171 10.768 10.8771 12.04 10.8771C13.304 10.8771 14.28 11.2171 14.968 11.8971C15.656 12.5771 16 13.5371 16 14.7771L16 17.8371L8.08 17.8371L8.08 14.7771ZM14.68 14.8611C14.68 14.1091 14.456 13.5451 14.008 13.1691C13.552 12.7851 12.896 12.5931 12.04 12.5931C11.184 12.5931 10.532 12.7851 10.084 13.1691C9.628 13.5451 9.4 14.1091 9.4 14.8611L9.4 16.1811L14.68 16.1811L14.68 14.8611Z" fill="#FDBF16"/>
</svg>
