<svg width="24" height="21" viewBox="0 0 24 21" fill="none" xmlns="http://www.w3.org/2000/svg">
<path d="M21.75 0H2.25C1.00781 0 0 1.00781 0 2.25V18.75C0 19.9922 1.00781 21 2.25 21H21.75C22.9922 21 24 19.9922 24 18.75V2.25C24 1.00781 22.9922 0 21.75 0ZM21.75 18.4688C21.75 18.6234 21.6234 18.75 21.4688 18.75H2.53125C2.37656 18.75 2.25 18.6234 2.25 18.4688V2.53125C2.25 2.37656 2.37656 2.25 2.53125 2.25H21.4688C21.6234 2.25 21.75 2.37656 21.75 2.53125V18.4688ZM16.7109 7.62188L13.8328 10.5L16.7109 13.3781C16.9266 13.5937 16.9266 13.9453 16.7109 14.1656L15.6656 15.2109C15.45 15.4266 15.0984 15.4266 14.8781 15.2109L12 12.3328L9.12188 15.2109C8.90625 15.4266 8.55469 15.4266 8.33438 15.2109L7.28906 14.1656C7.07344 13.95 7.07344 13.5984 7.28906 13.3781L10.1672 10.5L7.28906 7.62188C7.07344 7.40625 7.07344 7.05469 7.28906 6.83438L8.33438 5.78906C8.55 5.57344 8.90156 5.57344 9.12188 5.78906L12 8.66719L14.8781 5.78906C15.0937 5.57344 15.4453 5.57344 15.6656 5.78906L16.7109 6.83438C16.9312 7.05 16.9312 7.40156 16.7109 7.62188V7.62188Z" fill="#718096"/>
</svg>
