<svg width="411" height="262" viewBox="0 0 411 262" fill="none" xmlns="http://www.w3.org/2000/svg">
<g clip-path="url(#clip0_1281_15444)">
<path fill-rule="evenodd" clip-rule="evenodd" d="M398.999 153.357C422.469 120.254 383.851 52.3287 332.321 53.5146C285.914 54.5827 286.569 106.974 252.308 101.033C225.888 96.4525 196.917 29.074 184.03 19.8774C103.164 -37.8269 6.65547 41.5331 0.000562072 112.245C-6.94283 186.023 21.0544 258.86 121.677 258.86C175.85 258.86 252.653 236.878 329.121 241.988C383.948 245.652 379.219 181.255 398.999 153.357Z" fill="url(#paint0_radial_1281_15444)"/>
<mask id="mask0_1281_15444" style="mask-type:alpha" maskUnits="userSpaceOnUse" x="-1" y="0" width="408" height="259">
<path d="M398.999 153.357C422.469 120.254 383.851 52.3287 332.321 53.5146C285.914 54.5827 286.569 106.974 252.308 101.033C225.888 96.4525 196.917 29.074 184.03 19.8774C103.164 -37.8269 6.65547 41.5331 0.000562072 112.245C-6.94283 186.023 21.0544 258.86 121.677 258.86C175.85 258.86 252.653 236.878 329.121 241.988C383.948 245.652 379.219 181.255 398.999 153.357Z" fill="white"/>
</mask>
<g mask="url(#mask0_1281_15444)">
<path fill-rule="evenodd" clip-rule="evenodd" d="M415.846 116.589L259.647 140.122L67.114 44.6035L-19.3842 116.589V239.447H415.846V116.589Z" fill="#75726F"/>
<path fill-rule="evenodd" clip-rule="evenodd" d="M347.808 227.928C327.535 227.233 256.632 149.453 210.669 150.939C131.575 153.497 104.853 76.5602 104.853 76.5602L108.812 65.3477L137.853 79.5248C137.853 79.5248 383.294 229.144 347.808 227.928Z" fill="#515151"/>
<path fill-rule="evenodd" clip-rule="evenodd" d="M200.794 146.415C182.223 145.787 170.35 140.177 172.34 137.579C174.33 134.982 185.598 138.054 201.188 141.905C208.105 143.615 215.232 144.316 222.349 143.988C228.613 143.721 241.759 152.233 240.671 153.653C239.677 154.95 226.902 146.295 221.986 146.574C217.069 146.853 210.08 146.728 200.794 146.415Z" fill="#3A3836"/>
</g>
<mask id="mask1_1281_15444" style="mask-type:alpha" maskUnits="userSpaceOnUse" x="-1" y="0" width="408" height="259">
<path d="M398.999 153.357C422.469 120.254 383.851 52.3287 332.321 53.5146C285.914 54.5827 286.569 106.974 252.308 101.033C225.888 96.4525 196.917 29.074 184.03 19.8774C103.164 -37.8269 6.65547 41.5331 0.000562191 112.245C-6.94283 186.023 21.0544 258.86 121.677 258.86C175.85 258.86 252.653 236.878 329.121 241.988C383.948 245.652 379.219 181.255 398.999 153.357Z" fill="url(#paint1_linear_1281_15444)"/>
</mask>
<g mask="url(#mask1_1281_15444)">
<path fill-rule="evenodd" clip-rule="evenodd" d="M413.614 257.805L-9.87532 257.2V22.8721L71.4226 27.7027L57.3692 90.5351L94.9131 156.087L99.8478 167.083L108.859 172.335L140.265 208.924L148.579 209.833L155.82 208.223L159.038 209.431L201.419 209.363L219.835 208.355L230.319 210.208L239.378 208.216L270.442 207.994L277.416 216.375L285.263 214.299L290.331 209.738L299.76 210.463L307.779 208.341L323.412 209.679L372.558 209.697L413.614 218.248L413.614 257.805Z" fill="#2D3748"/>
<path fill-rule="evenodd" clip-rule="evenodd" d="M70.3149 148.814L59.2118 147.869L63.0998 132.349L70.3149 148.814Z" fill="#1D2232"/>
<path fill-rule="evenodd" clip-rule="evenodd" d="M259.801 201.512L257.311 205.962L253.181 205.047L249.945 208.128L265.964 208.034L265.148 202.158L259.801 201.512Z" fill="#A0AEC0"/>
<path fill-rule="evenodd" clip-rule="evenodd" d="M267.509 205.92L264.948 206.088L263.465 203.922L260.9 205.085L259.657 208.135H269.117L267.509 205.92Z" fill="#718096"/>
<path fill-rule="evenodd" clip-rule="evenodd" d="M251.665 205.795L249.188 205.201L248.769 207.053L246.43 208.134H252.852L251.665 205.795Z" fill="#A0AEC0"/>
<path fill-rule="evenodd" clip-rule="evenodd" d="M301.946 206.428L304.736 209.181L300.041 210.453L291.139 209.8L293.068 207.261L293.267 205.806L294.974 205.613L296.879 204.881L299.397 205.373L301.946 206.428Z" fill="#2A3046"/>
<path fill-rule="evenodd" clip-rule="evenodd" d="M292.232 207.547L293.725 208.784L296.278 205.549L300.075 210.424L298.742 210.499L290.624 209.761L292.232 207.547Z" fill="#A0AEC0"/>
</g>
<g filter="url(#filter0_dd_1281_15444)">
<path fill-rule="evenodd" clip-rule="evenodd" d="M111.734 167.067C113.01 185.9 105.461 199.974 87.5248 203.275C72.6343 206.015 55.0849 202.267 48.2638 184.685C41.5498 167.381 50.2093 146.394 68.4233 140.52C86.6373 134.647 110.325 146.275 111.734 167.067Z" fill="#FFB300"/>
</g>
<path d="M80.7034 203.629C97.5551 203.629 111.216 189.955 111.216 173.087C111.216 156.22 97.5551 142.546 80.7034 142.546C63.8516 142.546 50.1906 156.22 50.1906 173.087C50.1906 189.955 63.8516 203.629 80.7034 203.629Z" fill="#F57C00"/>
<path d="M80.7255 205.045C64.0517 205.061 50.172 192.234 48.8604 175.597C47.5489 158.959 59.2472 144.112 75.7173 141.511C92.1873 138.911 107.884 149.431 111.754 165.665C115.623 181.899 106.363 198.38 90.4939 203.502C87.3373 204.52 84.0418 205.041 80.7255 205.045ZM80.6836 143.956C68.0837 143.964 56.9196 152.086 53.0238 164.08C49.128 176.073 53.3854 189.214 63.5718 196.637C73.7582 204.06 87.5598 204.079 97.7662 196.683C107.973 189.288 112.266 176.159 108.402 164.155C104.513 152.12 93.3201 143.964 80.6836 143.956Z" fill="#F7931E"/>
<path d="M80.7038 199.478C95.2646 199.478 107.068 187.663 107.068 173.089C107.068 158.514 95.2646 146.699 80.7038 146.699C66.1429 146.699 54.3391 158.514 54.3391 173.089C54.3391 187.663 66.1429 199.478 80.7038 199.478Z" fill="#FDBF16"/>
<g clip-path="url(#clip1_1281_15444)">
<path d="M80.5089 201.385C97.08 201.385 110.514 187.952 110.514 171.381C110.514 154.81 97.08 141.376 80.5089 141.376C63.9377 141.376 50.5042 154.81 50.5042 171.381C50.5042 187.952 63.9377 201.385 80.5089 201.385Z" fill="white"/>
<path d="M80.5088 142.959C64.8081 142.959 52.0873 155.68 52.0873 171.381C52.0873 187.081 64.8081 199.793 80.4995 199.793C96.191 199.793 108.912 187.072 108.912 171.381C108.912 155.689 96.2003 142.959 80.5088 142.959ZM81.17 146.926C81.2724 146.87 81.4587 146.842 81.5425 146.898C82.0826 147.28 82.6041 147.69 83.1163 148.072C82.2502 148.565 81.3749 149.021 80.5461 149.552C79.829 150.008 79.1678 150.558 78.5066 151.079C78.3018 151.247 78.1528 151.294 77.92 151.126C77.4637 150.8 76.9794 150.502 76.4672 150.157C77.9852 148.891 79.5124 147.811 81.17 146.926ZM60.5243 175.953C60.8503 176.502 61.1762 177.033 61.5208 177.62C61.3252 177.769 61.1576 177.899 60.9341 178.067C60.5988 177.48 60.2822 176.912 59.947 176.325C60.1612 176.186 60.3288 176.083 60.5243 175.953ZM59.4348 173.299C59.202 173.411 58.9412 173.541 58.6432 173.69C58.3173 172.824 58.0007 171.977 57.6747 171.092C57.982 170.934 58.2614 170.794 58.5874 170.626C58.876 171.539 59.1554 172.396 59.4348 173.299ZM56.7435 162.888C57.0974 162.618 57.3861 162.264 57.7213 161.938C57.8517 163.465 57.9914 164.974 58.1124 166.482C58.1217 166.566 58.0472 166.687 57.9727 166.734C57.6189 166.994 57.2464 167.246 56.818 167.544C56.669 166.678 56.5293 165.877 56.3989 165.076C56.3524 164.787 56.3617 164.48 56.2872 164.21C56.1196 163.633 56.2965 163.241 56.7435 162.888ZM102.142 159.87C102.384 160.587 102.579 161.314 102.793 162.049C101.499 161.863 100.27 161.658 99.0312 161.509C98.1559 161.407 97.2712 161.36 96.3865 161.314C96.1444 161.304 96.014 161.23 95.9023 160.988C95.6229 160.373 95.297 159.787 94.971 159.153C96.0606 159.153 97.1222 159.097 98.1838 159.172C99.3758 159.246 100.549 159.433 101.732 159.6C101.881 159.619 102.095 159.749 102.142 159.87ZM100.689 154.749C99.8787 154.749 99.0592 154.711 98.249 154.758C92.9689 155.047 87.8284 155.885 83.0977 158.446C76.9887 161.742 72.8074 166.678 70.5631 173.243C69.8088 175.441 69.455 177.713 69.5481 180.041C69.5853 181.019 69.576 181 70.5445 180.823C70.9915 180.74 71.2709 180.507 71.4571 180.125C71.5968 179.836 71.7272 179.529 71.8389 179.231C73.0496 176.148 74.8655 173.485 77.3985 171.343C80.0432 169.108 83.0697 167.544 86.4036 166.603C89.4488 165.737 92.5591 165.281 95.716 165.439C97.4668 165.532 99.2082 165.905 100.95 166.156C102.924 166.445 104.637 167.358 106.304 168.363C106.425 168.438 106.556 168.605 106.565 168.745C107.087 174.705 105.839 180.265 102.617 185.331C99.3572 190.452 94.8407 194.019 89.1228 196.058C85.8448 197.232 82.4458 197.707 78.9723 197.483C71.5782 196.999 65.4227 193.954 60.5616 188.348C59.6024 187.24 58.7829 186.02 57.9075 184.846C57.9448 184.809 57.9727 184.781 58.01 184.744C58.5874 185.042 59.174 185.331 59.7421 185.638C61.8467 186.802 64.1189 187.146 66.475 186.951C68.3188 186.793 70.023 186.15 71.6248 185.228C71.6248 184.166 71.6154 183.096 71.6154 182.034C70.1348 182.872 68.5517 183.422 66.8661 183.673C64.1376 184.083 61.5208 183.841 59.1647 182.239C57.4419 181.065 56.1103 179.52 55.0766 177.732C54.8717 177.378 54.8438 176.903 54.7599 176.484C54.3595 174.454 54.1733 172.405 54.2664 170.338C54.2757 170.179 54.2943 170.012 54.3036 169.909C54.8624 171.381 55.328 172.926 56.0358 174.351C57.4233 177.191 59.3882 179.585 61.9678 181.447C62.8897 182.108 63.942 182.5 65.0502 182.658C65.73 182.76 66.3074 182.36 66.8009 181.932C66.1863 181.233 65.5717 180.6 65.0316 179.901C63.6719 178.16 62.8431 176.139 62.182 174.063C61.4276 171.66 61.0645 169.173 61.0552 166.65C61.0458 164.527 61.1017 162.403 61.2507 160.28C61.4556 157.431 62.0609 154.655 63.1225 151.992C63.2436 151.685 63.4391 151.377 63.6906 151.173C67.1082 148.304 71.0101 146.451 75.3684 145.566C75.4801 145.548 75.6012 145.539 75.7222 145.529C74.7631 146.237 73.7852 146.88 72.8726 147.615C69.008 150.735 66.326 154.665 64.836 159.414C63.9327 162.273 63.6161 165.197 63.7558 168.177C63.8954 171.241 64.3238 174.277 65.2364 177.219C65.6741 178.654 66.3074 180.013 67.192 181.242C67.5739 181.773 67.5925 181.783 68.2071 181.559C68.2257 181.55 68.235 181.55 68.2537 181.55C68.9614 181.289 68.9055 181.289 68.831 180.525C68.7379 179.445 68.6913 178.356 68.71 177.275C68.7472 174.789 68.9893 172.33 69.6133 169.918C70.5631 166.231 72.1742 162.878 74.8003 160.094C77.3147 157.421 80.3319 155.456 83.7402 154.069C86.4129 152.979 89.1601 152.169 91.9911 151.675C93.5835 151.396 95.2132 151.294 96.8335 151.154C97.057 151.135 97.355 151.256 97.5319 151.405C98.7053 152.374 99.7576 153.454 100.717 154.637C100.698 154.665 100.698 154.711 100.689 154.749ZM90.7152 161.602C89.2625 161.91 87.8284 162.208 86.4036 162.534C86.1522 162.59 85.9752 162.59 85.7983 162.375C85.5003 162.022 85.165 161.705 84.7925 161.314C85.7238 160.988 86.6457 160.643 87.577 160.336C88.1171 160.159 88.6758 160.038 89.2253 159.88C89.4674 159.814 89.6443 159.87 89.7747 160.085C90.0913 160.615 90.4266 161.137 90.7152 161.602ZM82.511 163.819C81.4587 164.527 80.4064 165.225 79.3168 165.951C79.0747 165.793 78.7674 165.598 78.4042 165.355C78.7301 165.076 79.0095 164.797 79.3261 164.564C79.9687 164.08 80.6299 163.623 81.2724 163.148C81.4959 162.981 81.6636 162.981 81.8591 163.204C82.064 163.446 82.3061 163.633 82.511 163.819ZM77.3612 167.935C76.849 168.559 76.3648 169.146 75.8433 169.779C75.5453 169.602 75.2845 169.453 74.9586 169.267C75.4708 168.615 75.955 167.981 76.4672 167.32C76.7932 167.544 77.0818 167.739 77.3612 167.935ZM74.4837 171.818C74.1391 172.349 73.8132 172.871 73.4779 173.392C73.2358 173.308 73.0216 173.234 72.7516 173.131C73.0589 172.526 73.3569 171.93 73.6828 171.306C73.9622 171.483 74.2043 171.641 74.4837 171.818ZM72.2859 175.515C72.0531 176.018 71.8389 176.484 71.5968 176.987C71.4758 176.968 71.3268 176.949 71.1312 176.912C71.3175 176.353 71.5037 175.823 71.6899 175.254C71.9321 175.357 72.109 175.431 72.2859 175.515ZM62.1261 179.557C62.303 179.445 62.4427 179.352 62.601 179.25C62.927 179.51 63.2622 179.78 63.6347 180.069C63.5229 180.199 63.4112 180.33 63.2715 180.497C62.8897 180.19 62.5265 179.883 62.1261 179.557ZM73.8691 155.168C73.0682 156.276 72.2953 157.365 71.4944 158.446C71.4292 158.529 71.2616 158.585 71.1591 158.576C70.6563 158.492 70.1627 158.38 69.5388 158.259C70.3955 157.039 71.1964 155.875 72.0252 154.721C72.0904 154.627 72.3325 154.581 72.4536 154.627C72.9285 154.786 73.4034 154.981 73.8691 155.168ZM66.3074 171.204C66.3074 170.365 66.3074 169.555 66.3074 168.717C66.6985 168.717 67.0151 168.717 67.341 168.717C67.2759 169.518 67.22 170.31 67.1548 171.129C66.8754 171.157 66.5867 171.185 66.3074 171.204ZM67.0989 174.118C67.0989 174.696 67.0989 175.264 67.0989 175.869C66.9965 175.906 66.8475 175.972 66.6333 176.055C66.5495 175.431 66.4657 174.826 66.3726 174.165C66.6519 174.146 66.8475 174.137 67.0989 174.118ZM66.7823 165.393C67.1362 164.219 67.4714 163.074 67.816 161.938C68.3654 161.994 68.831 162.04 69.3153 162.096C68.9335 163.139 68.5796 164.154 68.1978 165.16C68.1605 165.262 68.0209 165.383 67.9184 165.393C67.5645 165.411 67.2107 165.393 66.7823 165.393Z" fill="#434750"/>
<path d="M97.5226 151.387C97.3363 151.238 97.0476 151.117 96.8241 151.135C95.2038 151.284 93.5741 151.378 91.9817 151.657C89.1507 152.16 86.4035 152.961 83.7308 154.05C80.3225 155.447 77.3146 157.412 74.7909 160.075C72.1648 162.86 70.5538 166.212 69.6039 169.9C68.98 172.312 68.7378 174.78 68.7006 177.257C68.682 178.337 68.7285 179.427 68.8216 180.507C68.8868 181.28 68.952 181.27 68.2443 181.531C68.2256 181.541 68.2163 181.541 68.1977 181.541C67.5924 181.764 67.5645 181.755 67.1827 181.224C66.298 179.995 65.674 178.635 65.227 177.201C64.3237 174.258 63.8861 171.222 63.7464 168.159C63.6067 165.188 63.9326 162.254 64.8266 159.396C66.3166 154.656 68.9986 150.716 72.8632 147.597C73.7759 146.861 74.7537 146.218 75.7222 145.511C75.5918 145.52 75.48 145.529 75.3683 145.548C71.0008 146.433 67.0988 148.286 63.6812 151.145C63.4391 151.35 63.2342 151.666 63.1131 151.964C62.0515 154.628 61.4369 157.403 61.2413 160.252C61.0923 162.366 61.0365 164.499 61.0458 166.622C61.0551 169.136 61.4183 171.623 62.1726 174.035C62.8244 176.121 63.6626 178.132 65.0222 179.874C65.5623 180.563 66.1769 181.196 66.7915 181.904C66.2887 182.341 65.7206 182.733 65.0408 182.63C63.9326 182.472 62.8803 182.081 61.9584 181.419C59.3788 179.557 57.4139 177.164 56.0264 174.323C55.3279 172.889 54.8623 171.343 54.2943 169.881C54.2849 169.984 54.2663 170.142 54.257 170.31C54.1732 172.377 54.3594 174.426 54.7506 176.456C54.8344 176.875 54.8623 177.35 55.0672 177.704C56.1102 179.492 57.4325 181.038 59.1553 182.211C61.5114 183.813 64.1282 184.046 66.8567 183.645C68.533 183.394 70.1254 182.844 71.6061 182.006C71.6154 181.606 71.8389 181.373 72.1834 181.187C73.3289 180.6 74.4557 179.995 75.5825 179.38C75.7315 179.296 75.8805 179.11 75.927 178.952C76.2809 177.75 76.6255 176.549 76.9514 175.338C77.1749 174.51 77.7709 173.97 78.3669 173.429C79.9221 172.014 81.7752 171.157 83.7681 170.543C84.3734 170.356 84.8763 170.617 85.165 170.98C85.2953 171.148 85.3792 171.353 85.435 171.558C86.0776 173.746 86.5898 175.972 86.7667 178.235C86.9064 180.013 86.7295 181.829 86.6829 183.617C86.6643 184.157 86.5805 184.697 86.5246 185.238C86.4035 186.43 85.6771 187.277 84.8763 188.059C83.8053 189.112 82.5109 189.857 81.1699 190.518C79.2236 191.477 77.2494 192.362 75.0982 192.743C74.2042 192.902 73.2916 192.958 72.379 193.032C71.9227 193.069 71.6433 192.734 71.6433 192.231C71.6433 190.089 71.6433 187.948 71.6433 185.806C71.6433 185.601 71.634 185.405 71.6247 185.2C70.023 186.122 68.3188 186.765 66.4749 186.923C64.1189 187.119 61.8466 186.783 59.742 185.61C59.174 185.293 58.5873 185.014 58.0099 184.716C57.9727 184.753 57.9447 184.781 57.9075 184.819C58.7922 185.992 59.6117 187.212 60.5615 188.32C65.4226 193.917 71.5874 196.962 78.9722 197.455C82.4364 197.688 85.8355 197.204 89.1227 196.031C94.8406 193.991 99.3571 190.425 102.616 185.303C105.839 180.237 107.086 174.677 106.565 168.717C106.556 168.578 106.425 168.41 106.304 168.336C104.628 167.33 102.914 166.408 100.95 166.128C99.2081 165.877 97.4667 165.505 95.716 165.411C92.559 165.253 89.4394 165.709 86.4035 166.575C83.0697 167.516 80.0431 169.081 77.3984 171.315C74.8654 173.457 73.0495 176.121 71.8389 179.203C71.7178 179.501 71.5968 179.799 71.4571 180.097C71.2708 180.479 70.9914 180.721 70.5444 180.796C69.5853 180.972 69.5853 180.991 69.548 180.013C69.4642 177.685 69.8181 175.413 70.5631 173.215C72.8074 166.65 76.9886 161.714 83.0976 158.418C87.8283 155.866 92.9688 155.028 98.2489 154.73C99.0591 154.683 99.8786 154.721 100.689 154.721C100.698 154.674 100.698 154.628 100.707 154.59C99.7482 153.445 98.6959 152.355 97.5226 151.387ZM64.063 189.838C63.5508 189.819 63.0945 189.354 63.1038 188.841C63.1131 188.311 63.5601 187.892 64.1002 187.901C64.6497 187.91 65.0594 188.339 65.0501 188.879C65.0408 189.41 64.5845 189.857 64.063 189.838ZM69.7622 192.054C69.4176 192.734 68.6726 193.125 68.0022 192.995C67.2851 192.846 66.6798 192.185 66.6146 191.44C66.5587 190.853 66.6705 190.304 66.9778 189.791C67.192 189.437 67.4248 189.093 67.6483 188.73C67.8625 188.385 68.058 188.041 68.3095 187.631C68.8216 188.543 69.3245 189.391 69.7808 190.266C70.0788 190.853 70.0695 191.468 69.7622 192.054ZM74.1018 196.021C73.4592 195.993 72.975 195.463 73.0122 194.82C73.0402 194.187 73.5803 193.703 74.2229 193.731C74.8654 193.758 75.3403 194.289 75.3124 194.932C75.2845 195.565 74.7537 196.04 74.1018 196.021ZM80.8999 196.021C79.9221 196.021 79.1864 195.267 79.1957 194.271C79.205 193.321 79.9686 192.557 80.9185 192.566C81.8684 192.576 82.6692 193.395 82.6413 194.336C82.6227 195.286 81.8497 196.031 80.8999 196.021ZM87.7352 194.522C86.329 194.522 85.1929 193.377 85.2022 191.98C85.2022 190.574 86.3476 189.437 87.7445 189.447C89.1414 189.456 90.2961 190.602 90.2961 191.989C90.2868 193.367 89.1227 194.522 87.7352 194.522ZM95.1013 190.015C92.7173 190.406 90.6686 189.056 89.756 186.811C88.9738 184.893 89.2159 182.965 90.1099 181.149C90.6314 180.088 91.3298 179.101 91.9444 178.086C92.7546 176.754 93.5741 175.422 94.4122 174.072C94.7568 174.696 95.12 175.357 95.5018 176.009C96.4051 177.546 97.327 179.063 98.221 180.609C98.7891 181.587 99.2267 182.63 99.3851 183.766C99.7389 186.476 98.1372 189.521 95.1013 190.015ZM101.601 181.196C100.642 181.196 99.8879 180.442 99.8786 179.492C99.8693 178.514 100.624 177.75 101.601 177.75C102.579 177.75 103.343 178.523 103.334 179.501C103.324 180.442 102.551 181.196 101.601 181.196ZM89.4673 170.086C90.6314 169.388 91.7954 168.68 92.9781 167.991C93.1643 167.879 93.4065 167.805 93.6207 167.805C96.4423 167.833 99.264 167.889 102.086 167.926C102.291 167.926 102.486 167.935 102.598 168.065C102.654 168.121 102.691 168.205 102.71 168.317C102.84 168.596 102.989 168.866 103.138 169.136C103.24 169.313 103.334 169.5 103.436 169.677C103.985 170.664 104.535 171.66 104.758 172.796C104.954 173.755 104.693 174.649 104.004 175.357C103.287 176.093 102.263 176.102 101.518 175.385C100.689 174.584 100.568 173.569 100.763 172.507C100.856 172.014 101.089 171.548 101.257 171.064C99.0219 171.101 96.7962 171.129 94.5612 171.185C94.347 171.194 94.1142 171.297 93.9373 171.418C92.4193 172.517 90.9107 173.625 89.3928 174.733C88.9179 173.485 88.4523 172.247 87.9587 170.962C88.4429 170.701 88.9551 170.394 89.4673 170.086ZM85.9472 170.943C86.2638 170.822 86.5805 170.701 86.8971 170.58C87.223 170.459 87.4651 170.589 87.5769 170.878C88.1077 172.321 88.6664 173.765 89.1134 175.236C89.3649 176.065 89.1321 176.828 88.3033 177.313C87.9121 177.546 87.5303 177.806 87.1206 178.067C87.0275 177.341 86.9902 176.661 86.8412 176.009C86.4966 174.51 86.1148 173.01 85.7237 171.52C85.6306 171.222 85.6492 171.045 85.9472 170.943Z" fill="#FDFCFC"/>
<path d="M71.6528 192.249C71.6528 192.762 71.9321 193.088 72.3885 193.05C73.3011 192.976 74.2137 192.929 75.1077 192.762C77.2589 192.371 79.2331 191.486 81.1794 190.536C82.5204 189.875 83.8055 189.139 84.8857 188.077C85.6866 187.286 86.413 186.439 86.534 185.256C86.5899 184.716 86.6737 184.176 86.6924 183.635C86.7482 181.838 86.9159 180.032 86.7762 178.253C86.5992 175.99 86.0871 173.764 85.4445 171.576C85.3886 171.371 85.3048 171.157 85.1744 170.998C84.8857 170.635 84.3829 170.375 83.7776 170.561C81.7847 171.185 79.9315 172.032 78.3764 173.448C77.7804 173.988 77.1844 174.537 76.9609 175.357C76.6349 176.567 76.2904 177.769 75.9365 178.97C75.8899 179.138 75.7409 179.314 75.5919 179.398C74.4651 180.013 73.329 180.618 72.1929 181.205C71.8483 181.382 71.6248 181.615 71.6155 182.024C71.6155 183.086 71.6248 184.157 71.6248 185.219C71.6341 185.423 71.6435 185.619 71.6435 185.824C71.6528 187.975 71.6528 190.108 71.6528 192.249ZM75.5919 184.408C77.6872 183.272 79.7732 182.127 81.8685 180.991C82.1479 180.832 82.4459 180.693 82.8277 180.497C82.9115 180.926 83.0139 181.289 83.0605 181.652C83.2095 182.937 83.2095 184.213 82.7625 185.461C82.4366 186.383 81.9244 187.1 80.9745 187.528C79.3821 188.245 77.8269 189.055 76.2624 189.828C75.5547 190.182 75.2846 190.024 75.2939 189.242C75.2939 187.817 75.3033 186.383 75.2939 184.958C75.2846 184.706 75.3498 184.539 75.5919 184.408Z" fill="#EE2F60"/>
<path d="M94.9618 159.163C95.2878 159.787 95.6137 160.383 95.8931 160.997C96.0048 161.23 96.1259 161.305 96.3773 161.323C97.262 161.37 98.1467 161.416 99.0221 161.519C100.261 161.668 101.49 161.873 102.784 162.059C102.57 161.323 102.375 160.587 102.132 159.88C102.086 159.749 101.872 159.628 101.723 159.61C100.54 159.451 99.3573 159.265 98.1746 159.181C97.1223 159.107 96.0514 159.163 94.9618 159.163Z" fill="#FDFCFC"/>
<path d="M78.4972 151.089C79.1677 150.558 79.8289 150.018 80.5367 149.561C81.3655 149.031 82.2408 148.574 83.1069 148.081C82.5947 147.69 82.0732 147.289 81.5331 146.907C81.4493 146.852 81.263 146.879 81.1606 146.935C79.503 147.82 77.9757 148.9 76.4485 150.185C76.9607 150.521 77.4449 150.819 77.9012 151.154C78.1434 151.303 78.2924 151.256 78.4972 151.089Z" fill="#FDFCFC"/>
<path d="M89.2158 159.898C88.6664 160.056 88.1077 160.168 87.5675 160.354C86.6363 160.662 85.7144 160.997 84.7831 161.332C85.1556 161.723 85.4909 162.04 85.7889 162.394C85.9751 162.608 86.1427 162.608 86.3942 162.552C87.819 162.226 89.2531 161.928 90.7058 161.621C90.4171 161.155 90.0912 160.634 89.7653 160.112C89.6349 159.879 89.458 159.824 89.2158 159.898Z" fill="#FDFCFC"/>
<path d="M72.0253 154.72C71.1965 155.866 70.3956 157.03 69.5389 158.259C70.1628 158.389 70.6564 158.492 71.1593 158.576C71.2617 158.594 71.4386 158.529 71.4945 158.445C72.2861 157.365 73.0683 156.276 73.8692 155.167C73.4036 154.981 72.9286 154.786 72.4537 154.627C72.3233 154.59 72.0905 154.637 72.0253 154.72Z" fill="#FDFCFC"/>
<path d="M56.399 165.067C56.5294 165.868 56.6691 166.669 56.8181 167.535C57.2557 167.237 57.6189 166.985 57.9728 166.725C58.0473 166.669 58.1125 166.557 58.1125 166.473C57.9914 164.965 57.861 163.465 57.7214 161.929C57.3954 162.264 57.0974 162.609 56.7436 162.888C56.2872 163.242 56.1103 163.633 56.2779 164.201C56.3617 164.48 56.3524 164.778 56.399 165.067Z" fill="#FDFCFC"/>
<path d="M67.9184 165.384C68.0208 165.374 68.1605 165.253 68.1977 165.151C68.5702 164.145 68.9334 163.139 69.3152 162.087C68.831 162.04 68.3654 161.985 67.8159 161.929C67.4807 163.065 67.1361 164.21 66.7822 165.384C67.2106 165.393 67.5645 165.412 67.9184 165.384Z" fill="#FDFCFC"/>
<path d="M81.2723 163.158C80.6298 163.633 79.9686 164.089 79.326 164.573C79.0094 164.806 78.73 165.085 78.4041 165.365C78.7673 165.597 79.0746 165.793 79.3167 165.961C80.4063 165.234 81.4586 164.536 82.5109 163.828C82.306 163.642 82.0546 163.446 81.859 163.223C81.6635 162.99 81.4958 162.99 81.2723 163.158Z" fill="#FDFCFC"/>
<path d="M58.6524 173.69C58.9504 173.541 59.2112 173.42 59.444 173.299C59.1553 172.395 58.8852 171.529 58.5965 170.626C58.2706 170.794 57.9912 170.933 57.6839 171.092C58.0099 171.976 58.3265 172.824 58.6524 173.69Z" fill="#FDFCFC"/>
<path d="M74.968 169.267C75.294 169.453 75.5547 169.611 75.8527 169.779C76.3742 169.146 76.8584 168.559 77.3706 167.935C77.0819 167.739 76.8026 167.544 76.4766 167.32C75.9644 167.981 75.4802 168.605 74.968 169.267Z" fill="#FDFCFC"/>
<path d="M67.3503 168.717C67.0244 168.717 66.7077 168.717 66.3166 168.717C66.3166 169.555 66.3166 170.365 66.3166 171.203C66.596 171.175 66.8754 171.157 67.1734 171.129C67.2292 170.319 67.2851 169.527 67.3503 168.717Z" fill="#FDFCFC"/>
<path d="M73.478 173.392C73.8133 172.861 74.1392 172.349 74.4838 171.818C74.2044 171.641 73.9623 171.492 73.6829 171.315C73.3663 171.939 73.059 172.535 72.7517 173.141C73.0311 173.224 73.2452 173.308 73.478 173.392Z" fill="#FDFCFC"/>
<path d="M61.5209 177.62C61.1763 177.043 60.8504 176.503 60.5245 175.953C60.3289 176.084 60.1613 176.186 59.9471 176.326C60.2823 176.912 60.599 177.48 60.9342 178.067C61.167 177.899 61.3347 177.769 61.5209 177.62Z" fill="#FDFCFC"/>
<path d="M67.099 175.869C67.099 175.264 67.099 174.696 67.099 174.118C66.8476 174.137 66.652 174.146 66.3727 174.165C66.4658 174.826 66.5496 175.431 66.6334 176.055C66.8476 175.971 67.0059 175.906 67.099 175.869Z" fill="#FDFCFC"/>
<path d="M71.5967 176.986C71.8295 176.483 72.053 176.008 72.2858 175.515C72.1089 175.44 71.932 175.356 71.6992 175.254C71.5036 175.822 71.3267 176.353 71.1404 176.912C71.3267 176.949 71.4757 176.967 71.5967 176.986Z" fill="#FDFCFC"/>
<path d="M62.601 179.249C62.4426 179.351 62.303 179.445 62.126 179.556C62.5265 179.882 62.8803 180.19 63.2621 180.506C63.4111 180.339 63.5136 180.208 63.6253 180.078C63.2621 179.771 62.9269 179.51 62.601 179.249Z" fill="#FDFCFC"/>
<path d="M98.2118 180.61C97.3271 179.064 96.3959 177.546 95.4926 176.009C95.1108 175.357 94.7569 174.696 94.403 174.072C93.5742 175.423 92.7547 176.754 91.9352 178.086C91.3113 179.101 90.6222 180.079 90.1007 181.15C89.2067 182.966 88.9646 184.893 89.7468 186.812C90.6594 189.056 92.7082 190.406 95.0922 190.015C98.128 189.522 99.7298 186.476 99.3666 183.766C99.2269 182.64 98.7799 181.597 98.2118 180.61Z" fill="#FDBF16"/>
<path d="M93.9468 171.437C94.1237 171.306 94.3565 171.204 94.5707 171.204C96.8057 171.148 99.0313 171.12 101.266 171.083C101.639 171.073 102.002 171.045 102.374 171.055C102.756 171.064 102.896 170.896 102.868 170.524C102.812 169.788 102.766 169.053 102.719 168.317C102.7 168.205 102.663 168.121 102.607 168.065C102.486 167.944 102.3 167.926 102.095 167.926C99.2735 167.889 96.4518 167.833 93.6302 167.805C93.416 167.805 93.1738 167.879 92.9876 167.991C91.8142 168.68 90.6502 169.388 89.4768 170.086C88.9646 170.394 88.4525 170.701 87.9775 170.98C88.4618 172.265 88.9367 173.495 89.4116 174.752C90.9109 173.644 92.4195 172.535 93.9468 171.437Z" fill="#EE2F60"/>
<path d="M87.7445 189.438C86.3476 189.428 85.2022 190.564 85.2022 191.971C85.2022 193.367 86.3383 194.513 87.7351 194.513C89.1227 194.513 90.2867 193.358 90.2961 191.98C90.2961 190.592 89.1413 189.447 87.7445 189.438Z" fill="#FDBF16"/>
<path d="M102.859 170.523C102.887 170.896 102.747 171.064 102.365 171.054C102.002 171.045 101.629 171.073 101.257 171.082C101.089 171.557 100.856 172.032 100.763 172.526C100.568 173.587 100.679 174.602 101.518 175.403C102.263 176.12 103.287 176.111 104.004 175.375C104.702 174.658 104.954 173.773 104.758 172.814C104.535 171.678 103.985 170.691 103.436 169.695C103.334 169.518 103.231 169.331 103.138 169.154C102.989 168.884 102.849 168.614 102.71 168.335C102.765 169.052 102.803 169.788 102.859 170.523Z" fill="#FDBF16"/>
<path d="M86.8319 176C86.9809 176.652 87.0182 177.331 87.1113 178.058C87.5211 177.788 87.9029 177.527 88.294 177.303C89.1135 176.819 89.3556 176.056 89.1042 175.227C88.6572 173.755 88.0985 172.312 87.5676 170.869C87.4652 170.58 87.2138 170.449 86.8878 170.571C86.5712 170.692 86.2546 170.813 85.9379 170.934C85.6399 171.045 85.6306 171.213 85.7051 171.511C86.1149 173.01 86.4967 174.5 86.8319 176Z" fill="#EE2F60"/>
<path d="M68.3096 187.64C68.0582 188.049 67.8626 188.403 67.6484 188.739C67.4249 189.092 67.1921 189.437 66.9779 189.8C66.6706 190.303 66.5589 190.862 66.6147 191.448C66.6892 192.193 67.2852 192.855 68.0023 193.004C68.6728 193.143 69.4178 192.752 69.7623 192.063C70.0603 191.467 70.079 190.852 69.781 190.275C69.3246 189.4 68.8218 188.552 68.3096 187.64Z" fill="#FDBF16"/>
<path d="M80.928 192.566C79.9781 192.557 79.2145 193.311 79.2052 194.271C79.1959 195.267 79.9223 196.021 80.9094 196.021C81.8592 196.021 82.6322 195.276 82.6601 194.336C82.6694 193.395 81.8779 192.576 80.928 192.566Z" fill="#FDBF16"/>
<path d="M101.601 177.75C100.624 177.75 99.8692 178.514 99.8785 179.491C99.8878 180.441 100.642 181.196 101.601 181.196C102.551 181.196 103.324 180.441 103.333 179.501C103.343 178.523 102.579 177.75 101.601 177.75Z" fill="#FDBF16"/>
<path d="M74.2228 193.731C73.5803 193.703 73.0495 194.178 73.0122 194.82C72.975 195.463 73.4592 195.994 74.1018 196.022C74.7536 196.049 75.2844 195.575 75.3124 194.941C75.3403 194.289 74.8654 193.759 74.2228 193.731Z" fill="#FDBF16"/>
<path d="M64.1005 187.901C63.5603 187.891 63.1134 188.31 63.104 188.841C63.0947 189.353 63.5417 189.828 64.0632 189.837C64.5847 189.856 65.041 189.409 65.0503 188.878C65.0597 188.329 64.6499 187.91 64.1005 187.901Z" fill="#FDBF16"/>
<path d="M75.2939 189.241C75.2939 190.014 75.5547 190.173 76.2624 189.828C77.8269 189.055 79.3821 188.245 80.9745 187.528C81.9244 187.1 82.4366 186.392 82.7625 185.461C83.2002 184.213 83.2002 182.937 83.0605 181.652C83.0139 181.279 82.9208 180.916 82.8277 180.497C82.4366 180.693 82.1479 180.832 81.8685 180.991C79.7732 182.127 77.6872 183.272 75.5919 184.408C75.3498 184.539 75.2939 184.706 75.2939 184.958C75.2939 186.383 75.2939 187.817 75.2939 189.241ZM76.16 184.427C78.0132 183.43 79.8663 182.443 81.7102 181.447C82.0082 181.289 82.2876 181.084 82.6135 180.879C82.6321 180.944 82.6601 181.009 82.6787 181.074C83.0139 182.453 82.0641 184.25 80.751 184.725C79.1679 185.293 77.5196 185.544 75.8434 185.647C75.7689 185.647 75.6944 185.638 75.6292 185.628C75.4802 184.79 75.4709 184.79 76.16 184.427Z" fill="#FDFCFC"/>
<path d="M75.8432 185.647C77.5194 185.544 79.1677 185.293 80.7508 184.725C82.0639 184.25 83.0137 182.453 82.6785 181.074C82.6599 181.009 82.6412 180.953 82.6133 180.879C82.2874 181.084 82.008 181.279 81.71 181.447C79.8568 182.443 78.0036 183.431 76.1598 184.427C75.4707 184.799 75.4707 184.799 75.629 185.638C75.7035 185.638 75.778 185.647 75.8432 185.647Z" fill="#EE2F60"/>
</g>
<g clip-path="url(#clip2_1281_15444)">
<rect x="31.9916" y="97.7207" width="17" height="15" transform="rotate(30.5475 31.9916 97.7207)" fill="#1D2232"/>
</g>
<path fill-rule="evenodd" clip-rule="evenodd" d="M276.413 214.594L271.116 215.319V208.809L276.413 214.594Z" fill="#2A3046"/>
<path fill-rule="evenodd" clip-rule="evenodd" d="M292.477 221.476C292.969 228.736 290.059 234.16 283.145 235.433C277.405 236.489 270.641 235.044 268.011 228.267C265.423 221.597 268.761 213.507 275.781 211.243C282.801 208.979 291.935 213.46 292.477 221.476Z" fill="#FFB300"/>
<path d="M280.517 235.568C287.012 235.568 292.278 230.298 292.278 223.796C292.278 217.294 287.012 212.023 280.517 212.023C274.021 212.023 268.755 217.294 268.755 223.796C268.755 230.298 274.021 235.568 280.517 235.568Z" fill="#F57C00"/>
<path d="M280.503 236.281C273.978 236.286 268.546 231.266 268.032 224.755C267.518 218.243 272.095 212.432 278.541 211.412C284.986 210.392 291.131 214.506 292.65 220.858C294.168 227.211 290.549 233.663 284.34 235.674C283.101 236.076 281.806 236.281 280.503 236.281ZM280.509 212.729C275.723 212.732 271.481 215.817 270.001 220.374C268.521 224.93 270.139 229.923 274.009 232.743C277.878 235.562 283.122 235.57 286.999 232.76C290.877 229.951 292.508 224.963 291.04 220.402C289.579 215.818 285.316 212.712 280.509 212.729H280.509Z" fill="#F7931E"/>
<path d="M280.517 233.967C286.129 233.967 290.679 229.413 290.679 223.795C290.679 218.177 286.129 213.623 280.517 213.623C274.904 213.623 270.354 218.177 270.354 223.795C270.354 229.413 274.904 233.967 280.517 233.967Z" fill="#FDBF16"/>
<path fill-rule="evenodd" clip-rule="evenodd" d="M283.276 230.591L284.262 229.488L284.435 229.295L285.178 229.962L286.065 228.97L285.322 228.303L285.939 227.614L286.682 228.281L287.545 227.316L286.745 226.6C288.297 224.367 287.347 222.821 286.356 221.933C284.429 220.205 283.189 220.981 282.491 221.596L282.463 221.572C283.111 220.514 282.751 219.198 281.649 218.211C280.272 216.977 278.791 217.138 277.493 218.31L276.693 217.594L275.834 218.559L276.605 219.25L275.989 219.939L275.218 219.248L274.331 220.24L275.102 220.931L274.929 221.124L273.943 222.226L272.957 223.329L274.581 224.784L275.568 223.682L281.653 229.137L280.667 230.239L282.292 231.695L283.276 230.591ZM277.538 221.476L278.081 220.87C278.796 220.069 279.567 220.264 280.033 220.683C280.694 221.276 280.839 222.001 280.173 222.745L279.631 223.352L277.538 221.476ZM281.09 224.66L281.731 223.943C282.323 223.281 283.128 223.158 284.064 223.997C284.697 224.565 285.004 225.386 284.216 226.268L283.625 226.93L281.09 224.66Z" fill="#FFE082"/>
<path fill-rule="evenodd" clip-rule="evenodd" d="M272.806 239.872H296.311V211.235H288.655L284.039 215.311L284.882 218.345L272.485 224.146L262.878 233.99L272.806 239.872Z" fill="#53565C"/>
<path fill-rule="evenodd" clip-rule="evenodd" d="M271.674 220.618L269.202 222.307L268.604 225.296L267.518 224.994L269.488 230.53L259.219 222.687V212.395L271.116 209.11L271.674 220.618Z" fill="#54575D"/>
<path d="M33.1219 116.723C40.1679 116.723 45.8799 111.005 45.8799 103.953C45.8799 96.8999 40.1679 91.1826 33.1219 91.1826C26.0758 91.1826 20.3639 96.8999 20.3639 103.953C20.3639 111.005 26.0758 116.723 33.1219 116.723Z" fill="#F57C00"/>
<g filter="url(#filter1_dd_1281_15444)">
<path d="M33.1474 117.289C32.6367 117.289 32.1263 117.26 31.6189 117.202C26.265 116.593 21.8045 112.817 20.3173 107.633C18.83 102.449 20.6089 96.8788 24.8245 93.5196C29.3942 89.8799 35.7994 89.6434 40.6246 92.9362C45.4497 96.229 47.5699 102.283 45.8545 107.871C44.1391 113.459 38.9873 117.276 33.1474 117.289ZM25.5257 94.4019C21.6665 97.4769 20.0381 102.576 21.3998 107.321C22.7615 112.067 26.8451 115.524 31.7462 116.08C36.6474 116.637 41.4008 114.183 43.7897 109.863C46.1787 105.544 45.7327 100.209 42.6597 96.3473C38.4609 91.0816 30.7961 90.2113 25.5257 94.4019Z" fill="#F7931E"/>
</g>
<path d="M33.1215 114.985C39.2095 114.985 44.1448 110.045 44.1448 103.952C44.1448 97.8579 39.2095 92.918 33.1215 92.918C27.0335 92.918 22.0982 97.8579 22.0982 103.952C22.0982 110.045 27.0335 114.985 33.1215 114.985Z" fill="#FDBF16"/>
<g clip-path="url(#clip3_1281_15444)">
<path d="M33.502 116.004C40.4066 116.004 46.0039 110.407 46.0039 103.502C46.0039 96.5973 40.4066 91 33.502 91C26.5973 91 21 96.5973 21 103.502C21 110.407 26.5973 116.004 33.502 116.004Z" fill="white"/>
<path d="M33.5019 91.6602C26.96 91.6602 21.6596 96.9605 21.6596 103.502C21.6596 110.044 26.96 115.341 33.4981 115.341C40.0362 115.341 45.3365 110.041 45.3365 103.502C45.3365 96.9644 40.0401 91.6602 33.5019 91.6602ZM33.7774 93.3131C33.8201 93.2898 33.8977 93.2782 33.9326 93.3015C34.1577 93.4606 34.375 93.6313 34.5884 93.7904C34.2275 93.996 33.8628 94.1862 33.5175 94.4073C33.2187 94.5975 32.9432 94.8264 32.6677 95.0437C32.5823 95.1135 32.5203 95.1329 32.4233 95.0631C32.2331 94.9273 32.0314 94.8031 31.8179 94.6595C32.4504 94.1318 33.0868 93.6817 33.7774 93.3131ZM25.1751 105.408C25.3109 105.637 25.4467 105.858 25.5903 106.102C25.5088 106.164 25.4389 106.219 25.3458 106.288C25.2061 106.044 25.0742 105.807 24.9345 105.563C25.0238 105.505 25.0936 105.462 25.1751 105.408ZM24.7211 104.302C24.6241 104.348 24.5155 104.403 24.3913 104.465C24.2555 104.104 24.1236 103.751 23.9877 103.382C24.1158 103.316 24.2322 103.258 24.368 103.188C24.4883 103.568 24.6047 103.925 24.7211 104.302ZM23.5997 99.9637C23.7472 99.8512 23.8675 99.7038 24.0071 99.568C24.0615 100.204 24.1197 100.833 24.1701 101.461C24.174 101.496 24.143 101.547 24.1119 101.566C23.9645 101.675 23.8093 101.78 23.6308 101.904C23.5687 101.543 23.5105 101.209 23.4562 100.876C23.4368 100.755 23.4406 100.627 23.4096 100.515C23.3398 100.274 23.4135 100.111 23.5997 99.9637ZM42.5156 98.7066C42.6165 99.0053 42.698 99.308 42.7872 99.6145C42.2479 99.5369 41.7357 99.4516 41.2196 99.3895C40.8549 99.3468 40.4863 99.3274 40.1177 99.308C40.0168 99.3041 39.9624 99.2731 39.9159 99.1722C39.7995 98.9161 39.6637 98.6716 39.5279 98.4078C39.9818 98.4078 40.4242 98.3845 40.8665 98.4156C41.3632 98.4466 41.8521 98.5242 42.3449 98.594C42.407 98.6018 42.4962 98.6561 42.5156 98.7066ZM41.9103 96.5725C41.5727 96.5725 41.2313 96.5569 40.8937 96.5763C38.6936 96.6966 36.5518 97.0458 34.5806 98.1129C32.0352 99.4865 30.293 101.543 29.3579 104.279C29.0436 105.194 28.8962 106.141 28.935 107.111C28.9505 107.518 28.9466 107.511 29.3502 107.437C29.5364 107.402 29.6528 107.305 29.7304 107.146C29.7886 107.026 29.8429 106.898 29.8895 106.773C30.3939 105.489 31.1506 104.379 32.206 103.487C33.3079 102.556 34.569 101.904 35.9581 101.512C37.2269 101.151 38.5229 100.961 39.8383 101.027C40.5678 101.066 41.2933 101.221 42.0189 101.326C42.8415 101.446 43.5555 101.826 44.25 102.245C44.3005 102.276 44.3548 102.346 44.3587 102.404C44.576 104.888 44.056 107.204 42.7135 109.315C41.3554 111.449 39.4735 112.935 37.0911 113.785C35.7253 114.274 34.309 114.472 32.8617 114.379C29.7809 114.177 27.2161 112.908 25.1906 110.572C24.7909 110.11 24.4495 109.602 24.0847 109.113C24.1003 109.098 24.1119 109.086 24.1274 109.071C24.368 109.195 24.6125 109.315 24.8491 109.443C25.7261 109.928 26.6728 110.072 27.6545 109.99C28.4228 109.924 29.1329 109.656 29.8003 109.272C29.8003 108.83 29.7964 108.384 29.7964 107.941C29.1794 108.291 28.5198 108.52 27.8175 108.624C26.6806 108.795 25.5903 108.694 24.6086 108.027C23.8907 107.538 23.3359 106.894 22.9052 106.149C22.8198 106.001 22.8082 105.803 22.7732 105.629C22.6064 104.783 22.5288 103.929 22.5676 103.068C22.5715 103.002 22.5792 102.932 22.5831 102.889C22.8159 103.502 23.0099 104.147 23.3048 104.74C23.883 105.924 24.7017 106.921 25.7765 107.697C26.1606 107.972 26.5991 108.135 27.0608 108.201C27.3441 108.244 27.5847 108.077 27.7903 107.899C27.5342 107.608 27.2781 107.344 27.0531 107.053C26.4866 106.327 26.1412 105.485 25.8658 104.62C25.5515 103.619 25.4001 102.583 25.3963 101.531C25.3924 100.647 25.4157 99.762 25.4777 98.8773C25.5631 97.69 25.8153 96.5337 26.2577 95.4239C26.3081 95.2959 26.3896 95.1678 26.4943 95.0825C27.9184 93.8874 29.5442 93.1152 31.3601 92.7466C31.4066 92.7388 31.4571 92.735 31.5075 92.7311C31.1079 93.026 30.7005 93.2937 30.3202 93.6002C28.7099 94.9001 27.5924 96.5375 26.9716 98.5164C26.5952 99.7077 26.4633 100.926 26.5215 102.168C26.5797 103.444 26.7582 104.709 27.1385 105.935C27.3208 106.533 27.5847 107.099 27.9533 107.612C28.1124 107.833 28.1201 107.837 28.3762 107.744C28.384 107.74 28.3879 107.74 28.3956 107.74C28.6905 107.631 28.6672 107.631 28.6362 107.313C28.5974 106.863 28.578 106.409 28.5858 105.959C28.6013 104.923 28.7022 103.898 28.9621 102.893C29.3579 101.357 30.0292 99.9599 31.1234 98.7997C32.171 97.6861 33.4282 96.8674 34.8484 96.2892C35.962 95.8352 37.1066 95.4977 38.2862 95.292C38.9497 95.1756 39.6288 95.1329 40.3039 95.0747C40.397 95.067 40.5212 95.1174 40.5949 95.1795C41.0838 95.583 41.5223 96.0331 41.9219 96.5259C41.9142 96.5375 41.9142 96.5569 41.9103 96.5725ZM37.7546 99.4283C37.1493 99.5563 36.5518 99.6805 35.9581 99.8163C35.8533 99.8396 35.7796 99.8396 35.7059 99.7503C35.5817 99.6029 35.442 99.471 35.2868 99.308C35.6748 99.1722 36.059 99.0286 36.447 98.9006C36.6721 98.8268 36.9049 98.7764 37.1338 98.7104C37.2347 98.6833 37.3084 98.7066 37.3627 98.7958C37.4947 99.017 37.6343 99.2343 37.7546 99.4283ZM34.3362 100.352C33.8977 100.647 33.4593 100.938 33.0053 101.24C32.9044 101.174 32.7764 101.093 32.625 100.992C32.7608 100.876 32.8772 100.759 33.0092 100.662C33.2769 100.46 33.5524 100.27 33.8201 100.072C33.9132 100.003 33.9831 100.003 34.0646 100.096C34.1499 100.197 34.2508 100.274 34.3362 100.352ZM32.1904 102.067C31.977 102.327 31.7753 102.571 31.558 102.835C31.4338 102.761 31.3252 102.699 31.1894 102.622C31.4028 102.35 31.6045 102.086 31.8179 101.811C31.9538 101.904 32.074 101.985 32.1904 102.067ZM30.9915 103.685C30.8479 103.906 30.7121 104.123 30.5724 104.341C30.4715 104.306 30.3823 104.275 30.2698 104.232C30.3978 103.98 30.522 103.731 30.6578 103.471C30.7742 103.545 30.8751 103.611 30.9915 103.685ZM30.0757 105.225C29.9787 105.435 29.8895 105.629 29.7886 105.838C29.7382 105.831 29.6761 105.823 29.5946 105.807C29.6722 105.574 29.7498 105.353 29.8274 105.117C29.9283 105.159 30.002 105.19 30.0757 105.225ZM25.8425 106.909C25.9162 106.863 25.9744 106.824 26.0404 106.781C26.1762 106.89 26.3159 107.002 26.4711 107.123C26.4245 107.177 26.3779 107.231 26.3197 107.301C26.1606 107.173 26.0093 107.045 25.8425 106.909ZM30.7354 96.7471C30.4017 97.2088 30.0796 97.6628 29.7459 98.1129C29.7188 98.1478 29.6489 98.1711 29.6062 98.1672C29.3967 98.1323 29.1911 98.0857 28.9311 98.0353C29.2881 97.527 29.6218 97.042 29.9671 96.5608C29.9943 96.522 30.0951 96.5026 30.1456 96.522C30.3435 96.588 30.5414 96.6695 30.7354 96.7471ZM27.5847 103.429C27.5847 103.08 27.5847 102.742 27.5847 102.393C27.7476 102.393 27.8796 102.393 28.0154 102.393C27.9882 102.726 27.9649 103.056 27.9378 103.398C27.8214 103.409 27.7011 103.421 27.5847 103.429ZM27.9145 104.643C27.9145 104.884 27.9145 105.121 27.9145 105.373C27.8718 105.388 27.8097 105.415 27.7205 105.45C27.6856 105.19 27.6506 104.938 27.6118 104.663C27.7282 104.655 27.8097 104.651 27.9145 104.643ZM27.7826 101.008C27.93 100.519 28.0697 100.041 28.2133 99.568C28.4422 99.5912 28.6362 99.6106 28.838 99.6339C28.6789 100.069 28.5314 100.491 28.3723 100.911C28.3568 100.953 28.2986 101.004 28.2559 101.008C28.1085 101.015 27.9611 101.008 27.7826 101.008Z" fill="#434750"/>
<path d="M40.591 95.172C40.5134 95.1099 40.3931 95.0595 40.3 95.0673C39.6248 95.1293 38.9458 95.1681 38.2823 95.2846C37.1027 95.4941 35.9581 95.8278 34.8445 96.2818C33.4243 96.8638 32.171 97.6825 31.1195 98.7922C30.0253 99.9524 29.354 101.349 28.9582 102.886C28.6982 103.891 28.5974 104.919 28.5818 105.951C28.5741 106.401 28.5935 106.855 28.6323 107.305C28.6594 107.627 28.6866 107.624 28.3917 107.732C28.384 107.736 28.3801 107.736 28.3723 107.736C28.1201 107.829 28.1085 107.825 27.9494 107.604C27.5808 107.092 27.3208 106.525 27.1345 105.928C26.7582 104.702 26.5758 103.437 26.5176 102.16C26.4594 100.922 26.5952 99.7002 26.9677 98.509C27.5885 96.534 28.706 94.8927 30.3163 93.5928C30.6965 93.2863 31.104 93.0185 31.5075 92.7236C31.4532 92.7275 31.4066 92.7314 31.3601 92.7392C29.5402 93.1078 27.9145 93.8799 26.4904 95.0711C26.3895 95.1565 26.3042 95.2884 26.2537 95.4126C25.8114 96.5223 25.5553 97.6786 25.4738 98.866C25.4117 99.7468 25.3885 100.635 25.3923 101.52C25.3962 102.568 25.5475 103.604 25.8618 104.609C26.1334 105.478 26.4827 106.316 27.0492 107.042C27.2742 107.329 27.5303 107.592 27.7864 107.887C27.5769 108.07 27.3402 108.233 27.0569 108.19C26.5952 108.124 26.1567 107.961 25.7726 107.686C24.6978 106.91 23.8791 105.912 23.3009 104.729C23.0099 104.131 22.8159 103.487 22.5792 102.878C22.5753 102.921 22.5676 102.987 22.5637 103.057C22.5288 103.918 22.6064 104.772 22.7693 105.617C22.8043 105.792 22.8159 105.99 22.9013 106.137C23.3358 106.882 23.8868 107.527 24.6047 108.015C25.5863 108.683 26.6767 108.78 27.8136 108.613C28.512 108.508 29.1755 108.279 29.7925 107.93C29.7963 107.763 29.8895 107.666 30.033 107.589C30.5103 107.344 30.9798 107.092 31.4493 106.836C31.5114 106.801 31.5735 106.723 31.5929 106.657C31.7403 106.157 31.8839 105.656 32.0197 105.152C32.1128 104.807 32.3611 104.581 32.6095 104.356C33.2575 103.767 34.0296 103.41 34.86 103.154C35.1122 103.076 35.3217 103.185 35.442 103.336C35.4963 103.406 35.5312 103.491 35.5545 103.576C35.8223 104.488 36.0357 105.416 36.1094 106.359C36.1676 107.1 36.0939 107.856 36.0745 108.601C36.0667 108.826 36.0318 109.051 36.0085 109.276C35.9581 109.773 35.6554 110.126 35.3217 110.452C34.8755 110.891 34.3361 111.201 33.7774 111.477C32.9664 111.876 32.1438 112.245 31.2475 112.404C30.875 112.47 30.4948 112.493 30.1145 112.524C29.9244 112.54 29.808 112.4 29.808 112.19C29.808 111.298 29.808 110.406 29.808 109.513C29.808 109.428 29.8041 109.346 29.8002 109.261C29.1328 109.645 28.4228 109.913 27.6545 109.979C26.6728 110.06 25.726 109.921 24.8491 109.432C24.6124 109.3 24.368 109.183 24.1274 109.059C24.1119 109.075 24.1002 109.086 24.0847 109.102C24.4533 109.591 24.7948 110.099 25.1906 110.561C27.216 112.893 29.7847 114.162 32.8617 114.367C34.3051 114.464 35.7214 114.263 37.0911 113.774C39.4735 112.924 41.3554 111.438 42.7135 109.304C44.056 107.193 44.5759 104.876 44.3587 102.393C44.3548 102.335 44.3005 102.265 44.25 102.234C43.5516 101.815 42.8376 101.431 42.0189 101.314C41.2933 101.21 40.5677 101.054 39.8382 101.016C38.5229 100.95 37.223 101.14 35.9581 101.501C34.569 101.893 33.3079 102.544 32.2059 103.476C31.1505 104.368 30.3939 105.478 29.8895 106.762C29.839 106.886 29.7886 107.01 29.7304 107.135C29.6528 107.294 29.5364 107.395 29.3501 107.426C28.9505 107.499 28.9505 107.507 28.9349 107.1C28.9 106.13 29.0475 105.183 29.3579 104.267C30.293 101.532 32.0352 99.4751 34.5806 98.1016C36.5517 97.0384 38.6936 96.6892 40.8937 96.565C41.2312 96.5456 41.5727 96.5611 41.9103 96.5611C41.9141 96.5417 41.9141 96.5223 41.918 96.5068C41.5184 96.0295 41.0799 95.5756 40.591 95.172ZM26.6495 111.193C26.4361 111.186 26.246 110.992 26.2499 110.778C26.2537 110.557 26.44 110.382 26.665 110.386C26.894 110.39 27.0647 110.569 27.0608 110.794C27.0569 111.015 26.8668 111.201 26.6495 111.193ZM29.0242 112.117C28.8806 112.4 28.5702 112.563 28.2908 112.509C27.9921 112.447 27.7398 112.171 27.7127 111.861C27.6894 111.616 27.736 111.387 27.864 111.174C27.9533 111.026 28.0503 110.883 28.1434 110.732C28.2326 110.588 28.3141 110.444 28.4189 110.274C28.6323 110.654 28.8418 111.007 29.0319 111.372C29.1561 111.616 29.1522 111.872 29.0242 112.117ZM30.8323 113.77C30.5646 113.758 30.3628 113.537 30.3784 113.269C30.39 113.005 30.6151 112.804 30.8828 112.815C31.1505 112.827 31.3484 113.048 31.3368 113.316C31.3251 113.58 31.104 113.777 30.8323 113.77ZM33.6649 113.77C33.2575 113.77 32.9509 113.455 32.9548 113.04C32.9587 112.644 33.2769 112.326 33.6726 112.33C34.0684 112.334 34.4021 112.676 34.3905 113.067C34.3827 113.463 34.0607 113.774 33.6649 113.77ZM36.5129 113.145C35.927 113.145 35.4536 112.668 35.4575 112.086C35.4575 111.5 35.9348 111.026 36.5168 111.03C37.0988 111.034 37.58 111.511 37.58 112.09C37.5761 112.664 37.0911 113.145 36.5129 113.145ZM39.5822 111.267C38.5888 111.43 37.7352 110.867 37.3549 109.932C37.029 109.133 37.1299 108.33 37.5024 107.573C37.7197 107.131 38.0107 106.719 38.2668 106.297C38.6043 105.742 38.9458 105.187 39.295 104.624C39.4386 104.884 39.5899 105.16 39.749 105.431C40.1254 106.071 40.5095 106.704 40.882 107.348C41.1187 107.755 41.3011 108.19 41.367 108.663C41.5145 109.793 40.8471 111.061 39.5822 111.267ZM42.2905 107.592C41.8909 107.592 41.5766 107.278 41.5727 106.882C41.5688 106.475 41.8831 106.157 42.2905 106.157C42.6979 106.157 43.0161 106.479 43.0122 106.886C43.0084 107.278 42.6863 107.592 42.2905 107.592ZM37.2346 102.963C37.7197 102.672 38.2047 102.378 38.6975 102.09C38.7751 102.044 38.876 102.013 38.9652 102.013C40.1409 102.024 41.3166 102.048 42.4923 102.063C42.5777 102.063 42.6591 102.067 42.7057 102.121C42.729 102.145 42.7445 102.18 42.7523 102.226C42.8066 102.343 42.8687 102.455 42.9307 102.568C42.9734 102.641 43.0122 102.719 43.0549 102.793C43.2838 103.204 43.5128 103.619 43.6059 104.093C43.6874 104.492 43.5787 104.865 43.2916 105.16C42.9928 105.466 42.566 105.47 42.2556 105.171C41.9103 104.838 41.8598 104.415 41.9413 103.972C41.9801 103.767 42.0771 103.573 42.147 103.371C41.2157 103.386 40.2883 103.398 39.3571 103.421C39.2679 103.425 39.1709 103.468 39.0971 103.518C38.4647 103.976 37.8361 104.438 37.2036 104.9C37.0057 104.38 36.8117 103.864 36.6061 103.328C36.8078 103.22 37.0212 103.091 37.2346 102.963ZM35.7679 103.32C35.8999 103.27 36.0318 103.22 36.1637 103.169C36.2995 103.119 36.4004 103.173 36.447 103.293C36.6681 103.895 36.9009 104.496 37.0872 105.109C37.192 105.455 37.095 105.773 36.7496 105.974C36.5867 106.071 36.4276 106.18 36.2568 106.289C36.218 105.986 36.2025 105.703 36.1404 105.431C35.9969 104.807 35.8378 104.182 35.6748 103.561C35.636 103.437 35.6438 103.363 35.7679 103.32Z" fill="#FDFCFC"/>
<path d="M29.8119 112.198C29.8119 112.412 29.9283 112.548 30.1185 112.532C30.4987 112.501 30.879 112.482 31.2515 112.412C32.1478 112.249 32.9704 111.88 33.7813 111.484C34.3401 111.209 34.8756 110.902 35.3257 110.46C35.6594 110.13 35.962 109.777 36.0125 109.284C36.0357 109.059 36.0707 108.834 36.0784 108.609C36.1017 107.86 36.1715 107.108 36.1133 106.367C36.0396 105.424 35.8262 104.496 35.5585 103.584C35.5352 103.499 35.5003 103.41 35.4459 103.344C35.3257 103.193 35.1161 103.084 34.8639 103.161C34.0336 103.421 33.2614 103.775 32.6134 104.364C32.3651 104.589 32.1168 104.818 32.0236 105.16C31.8878 105.664 31.7443 106.165 31.5968 106.665C31.5774 106.735 31.5153 106.809 31.4532 106.844C30.9837 107.1 30.5104 107.352 30.037 107.597C29.8934 107.67 29.8003 107.767 29.7964 107.938C29.7964 108.38 29.8003 108.827 29.8003 109.269C29.8042 109.354 29.808 109.436 29.808 109.521C29.8119 110.417 29.8119 111.306 29.8119 112.198ZM31.4532 108.931C32.3263 108.458 33.1954 107.981 34.0685 107.507C34.1849 107.441 34.3091 107.383 34.4681 107.302C34.5031 107.48 34.5457 107.631 34.5651 107.783C34.6272 108.318 34.6272 108.85 34.441 109.37C34.3052 109.754 34.0918 110.053 33.696 110.231C33.0325 110.53 32.3845 110.868 31.7326 111.19C31.4377 111.337 31.3252 111.271 31.3291 110.945C31.3291 110.351 31.333 109.754 31.3291 109.16C31.3252 109.055 31.3524 108.986 31.4532 108.931Z" fill="#EE2F60"/>
<path d="M39.524 98.4117C39.6599 98.6717 39.7957 98.92 39.9121 99.1761C39.9586 99.2731 40.0091 99.3041 40.1138 99.3119C40.4825 99.3313 40.8511 99.3507 41.2158 99.3934C41.7319 99.4555 42.2441 99.5408 42.7834 99.6184C42.6942 99.3119 42.6127 99.0054 42.5118 98.7105C42.4924 98.6562 42.4032 98.6057 42.3411 98.598C41.8483 98.532 41.3555 98.4544 40.8627 98.4195C40.4243 98.3884 39.978 98.4117 39.524 98.4117Z" fill="#FDFCFC"/>
<path d="M32.6638 95.0479C32.9432 94.8267 33.2187 94.6016 33.5135 94.4115C33.8589 94.1903 34.2236 94.0002 34.5845 93.7946C34.3711 93.6316 34.1538 93.4647 33.9287 93.3057C33.8938 93.2824 33.8162 93.294 33.7735 93.3173C33.0828 93.6859 32.4465 94.136 31.8102 94.6715C32.0236 94.8112 32.2253 94.9353 32.4155 95.075C32.5163 95.1371 32.5784 95.1177 32.6638 95.0479Z" fill="#FDFCFC"/>
<path d="M37.1299 98.718C36.9009 98.7839 36.6681 98.8305 36.4431 98.9081C36.0551 99.0361 35.6709 99.1758 35.2829 99.3155C35.4381 99.4785 35.5778 99.6104 35.702 99.7578C35.7796 99.8471 35.8494 99.8471 35.9542 99.8238C36.5479 99.688 37.1454 99.5638 37.7507 99.4358C37.6304 99.2418 37.4946 99.0245 37.3588 98.8072C37.3045 98.7102 37.2308 98.6869 37.1299 98.718Z" fill="#FDFCFC"/>
<path d="M29.9671 96.5608C29.6218 97.0381 29.2881 97.5231 28.9311 98.0353C29.1911 98.0896 29.3968 98.1323 29.6063 98.1672C29.649 98.175 29.7227 98.1478 29.746 98.1129C30.0758 97.6628 30.4017 97.2088 30.7354 96.7471C30.5414 96.6695 30.3435 96.588 30.1456 96.522C30.0913 96.5065 29.9943 96.5259 29.9671 96.5608Z" fill="#FDFCFC"/>
<path d="M23.4562 100.871C23.5105 101.205 23.5687 101.538 23.6308 101.899C23.8132 101.775 23.9645 101.67 24.1119 101.562C24.143 101.538 24.1701 101.492 24.1701 101.457C24.1197 100.828 24.0654 100.204 24.0072 99.5635C23.8714 99.7032 23.7472 99.8467 23.5997 99.9631C23.4096 100.111 23.3359 100.274 23.4057 100.51C23.4407 100.627 23.4368 100.751 23.4562 100.871Z" fill="#FDFCFC"/>
<path d="M28.2559 101.003C28.2986 100.999 28.3568 100.949 28.3723 100.906C28.5275 100.487 28.6789 100.068 28.8379 99.6294C28.6362 99.61 28.4422 99.5868 28.2132 99.5635C28.0735 100.037 27.93 100.514 27.7825 101.003C27.961 101.007 28.1085 101.015 28.2559 101.003Z" fill="#FDFCFC"/>
<path d="M33.8201 100.077C33.5523 100.275 33.2769 100.465 33.0091 100.667C32.8772 100.764 32.7608 100.88 32.625 100.996C32.7763 101.093 32.9044 101.175 33.0052 101.245C33.4592 100.942 33.8977 100.651 34.3361 100.356C34.2508 100.279 34.146 100.197 34.0645 100.104C33.983 100.007 33.9132 100.007 33.8201 100.077Z" fill="#FDFCFC"/>
<path d="M24.3951 104.465C24.5193 104.403 24.6279 104.353 24.7249 104.302C24.6046 103.926 24.4921 103.565 24.3718 103.188C24.236 103.258 24.1196 103.317 23.9916 103.382C24.1274 103.751 24.2593 104.104 24.3951 104.465Z" fill="#FDFCFC"/>
<path d="M31.1933 102.622C31.3291 102.699 31.4377 102.765 31.5619 102.835C31.7792 102.571 31.9809 102.327 32.1944 102.067C32.0741 101.985 31.9577 101.904 31.8219 101.811C31.6084 102.086 31.4067 102.346 31.1933 102.622Z" fill="#FDFCFC"/>
<path d="M28.0192 102.393C27.8834 102.393 27.7515 102.393 27.5885 102.393C27.5885 102.742 27.5885 103.079 27.5885 103.429C27.7049 103.417 27.8213 103.409 27.9455 103.398C27.9688 103.06 27.9921 102.73 28.0192 102.393Z" fill="#FDFCFC"/>
<path d="M30.5725 104.341C30.7121 104.12 30.848 103.906 30.9915 103.685C30.8751 103.611 30.7742 103.549 30.6578 103.476C30.5259 103.736 30.3979 103.984 30.2698 104.236C30.3862 104.271 30.4755 104.306 30.5725 104.341Z" fill="#FDFCFC"/>
<path d="M25.5903 106.102C25.4468 105.861 25.3109 105.636 25.1751 105.407C25.0937 105.462 25.0238 105.504 24.9346 105.562C25.0743 105.807 25.2062 106.044 25.3459 106.288C25.4429 106.218 25.5127 106.164 25.5903 106.102Z" fill="#FDFCFC"/>
<path d="M27.9145 105.373C27.9145 105.121 27.9145 104.884 27.9145 104.644C27.8098 104.651 27.7283 104.655 27.6119 104.663C27.6507 104.938 27.6856 105.191 27.7205 105.451C27.8098 105.416 27.8757 105.389 27.9145 105.373Z" fill="#FDFCFC"/>
<path d="M29.7886 105.839C29.8856 105.629 29.9787 105.431 30.0757 105.226C30.002 105.195 29.9283 105.16 29.8313 105.117C29.7498 105.354 29.6761 105.575 29.5984 105.808C29.6761 105.823 29.7381 105.831 29.7886 105.839Z" fill="#FDFCFC"/>
<path d="M26.0403 106.781C25.9744 106.824 25.9162 106.863 25.8425 106.909C26.0093 107.045 26.1567 107.173 26.3158 107.305C26.3779 107.235 26.4206 107.181 26.4672 107.127C26.3158 106.999 26.1762 106.89 26.0403 106.781Z" fill="#FDFCFC"/>
<path d="M40.8782 107.348C40.5096 106.704 40.1216 106.071 39.7452 105.431C39.5861 105.159 39.4386 104.884 39.2912 104.624C38.9459 105.187 38.6044 105.742 38.2629 106.296C38.003 106.719 37.7158 107.127 37.4985 107.573C37.126 108.33 37.0252 109.133 37.3511 109.932C37.7314 110.867 38.585 111.43 39.5783 111.267C40.8433 111.061 41.5107 109.792 41.3593 108.663C41.3011 108.194 41.1149 107.759 40.8782 107.348Z" fill="#FDBF16"/>
<path d="M39.1011 103.526C39.1748 103.472 39.2718 103.429 39.3611 103.429C40.2923 103.406 41.2197 103.394 42.1509 103.379C42.3061 103.375 42.4574 103.363 42.6126 103.367C42.7717 103.371 42.8299 103.301 42.8183 103.146C42.795 102.839 42.7756 102.533 42.7562 102.226C42.7485 102.18 42.7329 102.145 42.7097 102.121C42.6592 102.071 42.5816 102.063 42.4962 102.063C41.3205 102.048 40.1449 102.024 38.9692 102.013C38.8799 102.013 38.779 102.044 38.7014 102.09C38.2125 102.377 37.7275 102.672 37.2386 102.963C37.0252 103.091 36.8118 103.219 36.6139 103.336C36.8157 103.871 37.0136 104.383 37.2115 104.907C37.8362 104.446 38.4647 103.984 39.1011 103.526Z" fill="#EE2F60"/>
<path d="M36.5168 111.026C35.9348 111.023 35.4575 111.496 35.4575 112.082C35.4575 112.664 35.9309 113.141 36.5129 113.141C37.0911 113.141 37.5761 112.66 37.58 112.086C37.58 111.508 37.0988 111.03 36.5168 111.026Z" fill="#FDBF16"/>
<path d="M42.8143 103.145C42.826 103.3 42.7678 103.37 42.6087 103.366C42.4574 103.363 42.3022 103.374 42.147 103.378C42.0771 103.576 41.9801 103.774 41.9413 103.979C41.8598 104.422 41.9064 104.845 42.2556 105.178C42.566 105.477 42.9928 105.473 43.2916 105.167C43.5826 104.868 43.6874 104.499 43.6059 104.1C43.5128 103.626 43.2838 103.215 43.0549 102.8C43.0122 102.726 42.9696 102.649 42.9308 102.575C42.8687 102.462 42.8105 102.35 42.7523 102.233C42.7755 102.532 42.7911 102.839 42.8143 103.145Z" fill="#FDBF16"/>
<path d="M36.1366 105.426C36.1987 105.698 36.2142 105.981 36.253 106.284C36.4237 106.171 36.5828 106.063 36.7458 105.97C37.0872 105.768 37.1881 105.45 37.0834 105.104C36.8971 104.491 36.6643 103.89 36.4431 103.288C36.4004 103.168 36.2957 103.114 36.1599 103.164C36.0279 103.215 35.896 103.265 35.7641 103.316C35.6399 103.362 35.636 103.432 35.6671 103.556C35.8378 104.181 35.9969 104.802 36.1366 105.426Z" fill="#EE2F60"/>
<path d="M28.4189 110.277C28.3142 110.448 28.2327 110.596 28.1434 110.735C28.0503 110.883 27.9533 111.026 27.8641 111.178C27.736 111.387 27.6895 111.62 27.7127 111.864C27.7438 112.175 27.9921 112.45 28.2909 112.512C28.5703 112.571 28.8807 112.408 29.0242 112.12C29.1484 111.872 29.1562 111.616 29.032 111.375C28.8419 111.011 28.6323 110.658 28.4189 110.277Z" fill="#FDBF16"/>
<path d="M33.6766 112.33C33.2808 112.326 32.9627 112.641 32.9588 113.04C32.9549 113.455 33.2575 113.77 33.6688 113.77C34.0646 113.77 34.3867 113.459 34.3983 113.067C34.4022 112.675 34.0724 112.334 33.6766 112.33Z" fill="#FDBF16"/>
<path d="M42.2905 106.156C41.8831 106.156 41.5688 106.474 41.5727 106.882C41.5765 107.278 41.8908 107.592 42.2905 107.592C42.6863 107.592 43.0083 107.278 43.0122 106.886C43.0161 106.478 42.6979 106.156 42.2905 106.156Z" fill="#FDBF16"/>
<path d="M30.8828 112.815C30.615 112.803 30.3939 113.001 30.3784 113.269C30.3628 113.537 30.5646 113.758 30.8323 113.769C31.1039 113.781 31.3251 113.583 31.3368 113.319C31.3484 113.048 31.1505 112.827 30.8828 112.815Z" fill="#FDBF16"/>
<path d="M26.6651 110.386C26.4401 110.382 26.2538 110.557 26.25 110.778C26.2461 110.991 26.4323 111.189 26.6496 111.193C26.8669 111.201 27.057 111.014 27.0609 110.793C27.0648 110.564 26.8941 110.39 26.6651 110.386Z" fill="#FDBF16"/>
<path d="M31.3291 110.944C31.3291 111.266 31.4377 111.332 31.7326 111.189C32.3845 110.867 33.0325 110.529 33.696 110.23C34.0918 110.052 34.3052 109.757 34.441 109.369C34.6234 108.849 34.6234 108.317 34.5652 107.782C34.5458 107.627 34.5069 107.475 34.4681 107.301C34.3052 107.382 34.1849 107.44 34.0685 107.506C33.1954 107.98 32.3263 108.457 31.4533 108.93C31.3524 108.985 31.3291 109.055 31.3291 109.159C31.3291 109.753 31.3291 110.351 31.3291 110.944ZM31.6899 108.938C32.4621 108.523 33.2343 108.112 34.0025 107.697C34.1267 107.631 34.2431 107.545 34.3789 107.46C34.3867 107.487 34.3983 107.514 34.4061 107.541C34.5458 108.116 34.15 108.864 33.6029 109.062C32.9432 109.299 32.2564 109.404 31.558 109.447C31.527 109.447 31.4959 109.443 31.4688 109.439C31.4067 109.09 31.4028 109.09 31.6899 108.938Z" fill="#FDFCFC"/>
<path d="M31.5579 109.447C32.2563 109.404 32.9431 109.299 33.6028 109.062C34.1499 108.865 34.5457 108.116 34.406 107.541C34.3982 107.514 34.3904 107.491 34.3788 107.46C34.243 107.545 34.1266 107.627 34.0024 107.697C33.2303 108.112 32.4581 108.523 31.6898 108.938C31.4027 109.094 31.4027 109.094 31.4687 109.443C31.4997 109.443 31.5307 109.447 31.5579 109.447Z" fill="#EE2F60"/>
</g>
<path fill-rule="evenodd" clip-rule="evenodd" d="M172.11 202.667H178.963L181.577 170.061L185.445 156L192.442 202.669C192.442 202.669 199.291 202.833 199.309 202.669C200.491 192.015 196.494 168.492 196.494 168.492C197.402 155.671 201.5 154.5 198.819 135.662C196.137 116.823 172.269 135.662 172.269 135.662L170.063 159V168.027L172.11 202.667Z" fill="#2D3748"/>
<path fill-rule="evenodd" clip-rule="evenodd" d="M190.296 204.844C190.985 204.334 190.955 193.873 190.955 193.873H200.066C201.415 195.028 199.478 209.37 199.478 209.37H181.113C180.605 206.862 188.237 206.366 190.296 204.844Z" fill="#1D2232"/>
<path fill-rule="evenodd" clip-rule="evenodd" d="M170.083 204.844C170.772 204.334 170.742 193.873 170.742 193.873H179.853C181.202 195.028 179.265 209.37 179.265 209.37H160.9C160.391 206.862 168.024 206.366 170.083 204.844Z" fill="#1D2232"/>
<path fill-rule="evenodd" clip-rule="evenodd" d="M172.824 85.1398C172.824 83.9111 173.543 82.9003 174.468 82.7592C173.992 82.4464 173.955 81.4344 174.404 80.4034C174.826 79.4349 175.536 78.7735 176.089 78.788C176.069 78.667 176.059 78.5447 176.058 78.4222C176.014 77.2767 176.904 76.3113 178.048 76.2632C178.317 76.2632 178.582 76.3217 178.826 76.4349C178.654 75.7864 179.326 74.993 180.379 74.6287C181.279 74.3163 182.175 74.4186 182.598 74.8343C182.829 74.2755 183.599 73.8639 184.515 73.8639C185.121 73.8415 185.712 74.0509 186.169 74.4495C186.555 74.0655 187.08 73.8543 187.624 73.8639C188.315 73.8401 188.964 74.1912 189.323 74.7821C189.893 74.6556 190.487 74.6859 191.041 74.8698C192.191 75.2253 192.958 76.0385 192.819 76.7263C193.097 76.5808 193.405 76.5044 193.719 76.5035C194.955 76.5035 195.957 77.686 195.957 79.1423C195.963 79.7709 195.765 80.3843 195.393 80.8905C195.535 80.8454 195.684 80.8222 195.833 80.8218C197.001 80.8218 197.947 82.2179 197.947 83.9405C197.947 85.155 197.476 86.2051 196.788 86.7201C197.318 87.0508 197.698 87.9357 197.698 88.9786C197.698 90.3034 197.086 91.3775 196.33 91.3775C196.22 91.3763 196.111 91.3528 196.01 91.3085C196.3 91.6198 196.46 92.0311 196.455 92.457C196.504 93.2645 195.893 93.9604 195.087 94.0163C195.004 94.0159 194.922 94.007 194.841 93.9896C194.92 94.1468 194.962 94.32 194.963 94.4958C194.963 95.2793 194.151 95.9152 193.141 95.9335C191.12 98.062 188.32 99.2753 185.386 99.294C179.278 99.294 174.304 94.0121 174.079 87.4044C173.26 86.9536 172.773 86.0733 172.824 85.1398Z" fill="#1D2232"/>
<path fill-rule="evenodd" clip-rule="evenodd" d="M190.555 106.376C187.377 108.575 180.864 109.365 179 107.501C177.136 105.636 181 103 181.18 94.2887C181.359 85.5773 188.903 94.2887 188.903 94.2887C188.903 94.2887 189.5 101.001 190.555 106.376Z" fill="#FFDFAE"/>
<path fill-rule="evenodd" clip-rule="evenodd" d="M170.5 97C167.519 93.7502 165.202 92.3835 159.768 90.9463L154.125 77.9269L151.276 77.2178C150.746 78.4038 152.038 91.6995 154.196 93.9559C154.878 97.5402 165.252 105.174 169 106C170.092 103.63 172.5 101.787 170.5 97Z" fill="#FFDFAE"/>
<path fill-rule="evenodd" clip-rule="evenodd" d="M188.915 95.855C188.915 95.855 184.107 92.2246 181.149 91.5227C181.149 91.5227 181.879 94.6624 181.152 97.3349C182.071 99.3532 183.922 100.719 185.776 100.961C187.276 101.156 188.915 95.855 188.915 95.855Z" fill="#F4CA92"/>
<path fill-rule="evenodd" clip-rule="evenodd" d="M189.5 99.5C190 105.5 189.5 106.996 184.5 106.996C179.5 106.996 179.5 103 180.5 100C176.977 98.5143 169.967 96.4443 169.967 96.4443C169.72 97.0333 166.18 107.814 166.18 107.814C169.034 110.945 171.178 112.037 171.178 112.037L171.651 143.119L199.707 142.924C199.707 142.924 197.486 111.223 197.486 110.835C197.486 110.446 200.499 108.988 202.868 106.996C201.517 103.748 199.7 100.054 199.201 96.6175C195.363 98.1162 195.233 97.4454 189.5 99.5Z" fill="#28CCAB"/>
<path fill-rule="evenodd" clip-rule="evenodd" d="M210.444 70L207.459 70.8674L207.266 92.6501C206.69 92.7737 202 93 199 97C199.499 100.436 200.149 101.753 201.5 105C204.5 104.5 211.18 98.8402 212.492 96.1186C215.684 89.5 210.444 70 210.444 70Z" fill="#FFDFAE"/>
<path fill-rule="evenodd" clip-rule="evenodd" d="M193.681 86.8696C193.552 88.5747 191.884 89.1301 191.578 90.6459C190.759 94.7102 187.216 98.8019 183.902 98.8019C181.094 98.8019 176.999 93.4709 176.999 87.4555C176.984 86.0163 177.081 84.5781 177.289 83.154C177.69 80.6697 183.495 87.4605 188.782 81.8415C190.018 80.5278 189.849 86.1842 191.45 86.1842C191.52 86.1857 193.928 83.6358 193.681 86.8696Z" fill="#FFDFAE"/>
<path fill-rule="evenodd" clip-rule="evenodd" d="M141 77.7088L142.035 82.3304L239.044 64.5334L238.243 60.4355L141 77.7088Z" fill="url(#paint2_linear_1281_15444)"/>
<path fill-rule="evenodd" clip-rule="evenodd" d="M223.509 38C223.509 38 230.241 57.5154 231.552 64.3429C232.782 70.7442 233.767 90.7578 233.767 90.7578C233.767 90.7578 238.049 76.8107 235.492 63.6639C232.886 50.2611 223.509 38 223.509 38Z" fill="#37474F"/>
<path fill-rule="evenodd" clip-rule="evenodd" d="M223.509 38C223.509 38 231.127 57.52 232.438 64.3474C233.668 70.7484 233.767 90.7578 233.767 90.7578C233.767 90.7578 238.934 76.8153 236.378 63.6685C233.772 50.2653 223.509 38 223.509 38Z" fill="#BFBFBF"/>
<path fill-rule="evenodd" clip-rule="evenodd" d="M230.497 66.1981L229.68 61.996C229.601 61.591 229.686 61.1712 229.916 60.829C230.146 60.4867 230.503 60.2501 230.908 60.1713L235.106 59.3535C235.511 59.2743 235.93 59.3595 236.272 59.5903C236.614 59.8211 236.851 60.1785 236.929 60.5838L237.746 64.7859C237.825 65.191 237.74 65.6108 237.509 65.9528C237.278 66.2949 236.921 66.5312 236.517 66.6097L232.319 67.4275C231.476 67.5916 230.661 67.0412 230.497 66.1981Z" fill="#37474F"/>
<path fill-rule="evenodd" clip-rule="evenodd" d="M212.202 68.21C211.905 66.5835 211.461 65.5399 208.767 66.2017C207.086 66.6141 205.744 67.7115 206.041 69.3376C206.339 70.9637 207.985 71.6712 209.687 71.3592C211.39 71.0472 212.499 69.8361 212.202 68.21Z" fill="#FFDFAE"/>
<path fill-rule="evenodd" clip-rule="evenodd" d="M153.959 75.5812C151.724 75.276 150.282 76.3467 150.055 78.0163C149.827 79.6859 150.758 80.7307 152.993 81.0358C155.228 81.341 156.908 80.6746 157.136 79.005C157.363 77.3354 156.193 75.8863 153.959 75.5812Z" fill="#FFDFAE"/>
<path fill-rule="evenodd" clip-rule="evenodd" d="M197.368 82.1935C201.166 79.7374 194.8 76.9837 186.94 79.2316C179.036 81.492 170.85 78.9489 170.568 80.0791C169.564 84.0969 173.926 84.3425 182.079 84.9399C190.231 85.5372 193.885 84.444 197.368 82.1935Z" fill="#80FFE5"/>
<path fill-rule="evenodd" clip-rule="evenodd" d="M198.604 81.1386C200.224 79.3954 193.397 70.5047 185.245 69.9074C177.093 69.3101 172.562 75.6672 172.26 79.7967C171.958 83.9262 178.812 83.3266 186.943 84.1509C192.045 84.6677 195.881 84.0681 198.604 81.1386Z" fill="#13B497"/>
<path fill-rule="evenodd" clip-rule="evenodd" d="M175.9 83.0856C177.977 83.6795 184.039 83.911 184.039 83.911C184.039 83.911 184.523 75.6558 189.07 70.8073C189.085 70.7912 188.028 70.1634 184.588 69.8842C182.562 69.7198 180.14 70.4182 179.877 70.6444C177.465 72.7126 175.829 83.0646 175.9 83.0856Z" fill="url(#paint3_linear_1281_15444)"/>
<path d="M183.093 80.8003C183.191 79.4585 182.116 78.2862 180.691 78.1818C179.266 78.0774 178.032 79.0804 177.934 80.4222C177.835 81.7639 178.911 82.9362 180.336 83.0406C181.761 83.145 182.995 82.142 183.093 80.8003Z" fill="#13A389"/>
<path d="M181.702 80.8106C181.793 79.5584 180.979 78.4782 179.883 78.3979C178.787 78.3175 177.824 79.2676 177.732 80.5198C177.641 81.772 178.455 82.8522 179.551 82.9325C180.647 83.0129 181.61 82.0629 181.702 80.8106Z" fill="white"/>
<path fill-rule="evenodd" clip-rule="evenodd" d="M186.701 77.401C186.053 78.2657 185.305 79.2804 184.046 83.9016C184.032 83.9542 183.924 79.4253 185.361 76.1842C186.009 74.7233 188.937 70.7441 188.992 70.7628C189.791 71.0614 190.563 71.426 191.302 71.8529C191.302 71.8529 188.901 74.4689 186.701 77.401Z" fill="#28CCAB"/>
<path fill-rule="evenodd" clip-rule="evenodd" d="M95.2953 156.984L179.674 82.9689C179.674 82.9689 181.714 82.7492 181.714 80.7016C181.714 77.946 179.297 78.4396 179.297 78.4396L59.7 93.4616L95.2953 156.984Z" fill="url(#paint4_linear_1281_15444)"/>
<path fill-rule="evenodd" clip-rule="evenodd" d="M333.236 91.3905C337.778 96.0304 340.866 102.341 346.561 100.804C350.164 99.8315 352.628 91.984 350.868 88.44C348.682 84.0432 348.68 81.2289 346.714 80.0883C342.206 77.4732 335.894 83.1567 335.894 83.1567C329.731 83.696 329.211 87.2786 333.236 91.3905Z" fill="#2D3748"/>
<path fill-rule="evenodd" clip-rule="evenodd" d="M345.914 109.14L354.367 105.256L347.947 95.5557L343.839 100.252L345.914 109.14Z" fill="#C69050"/>
<path fill-rule="evenodd" clip-rule="evenodd" d="M348.404 95.642C348.404 95.642 343.287 93.8489 340.246 93.8818C340.246 93.8818 341.712 96.7522 341.65 99.5215C343.03 101.259 345.156 102.137 347.014 101.923C348.516 101.75 348.404 95.642 348.404 95.642Z" fill="#A8763B"/>
<path fill-rule="evenodd" clip-rule="evenodd" d="M347.972 93.8903C350.124 99.1298 343.472 102.32 341.453 102.892C338.947 103.602 334.357 96.5681 332.045 91.7649C331.616 90.9101 331.386 89.969 331.372 89.0124C336.219 89.3702 342.102 85.5413 342.18 85.9472C342.81 89.2074 343.876 87.0286 345.699 89.2581C346.282 89.9699 348.329 87.2864 349.115 90.5199C349.554 92.3234 347.519 92.7868 347.972 93.8903Z" fill="#C69050"/>
<path d="M346.902 88.2203L340.953 90.6074L341.163 91.132L347.112 88.7449L346.902 88.2203Z" fill="#718096"/>
<path d="M341.388 94.7814C342.531 94.0732 342.704 92.2815 341.775 90.7794C340.846 89.2773 339.167 88.6337 338.024 89.3418C336.881 90.05 336.708 91.8417 337.637 93.3438C338.566 94.8459 340.245 95.4895 341.388 94.7814Z" fill="url(#paint5_linear_1281_15444)"/>
<path d="M335.929 96.4386C337.072 95.7304 337.245 93.9387 336.316 92.4366C335.387 90.9345 333.708 90.2909 332.565 90.9991C331.422 91.7072 331.249 93.4989 332.178 95.001C333.107 96.5031 334.786 97.1467 335.929 96.4386Z" fill="url(#paint6_linear_1281_15444)"/>
<path fill-rule="evenodd" clip-rule="evenodd" d="M336.738 202.993H343.591C343.591 202.993 346.162 167.49 346.205 167.386C348.819 160.985 359.648 141.474 359.648 141.474L342.584 136.165L335.692 166.352L336.738 202.993Z" fill="#2D3748"/>
<path fill-rule="evenodd" clip-rule="evenodd" d="M357.531 203.223C357.531 203.223 364.38 203.387 364.399 203.223C365.58 192.569 361.583 169.046 361.583 169.046L367.488 143.088L350.655 141.473L351.807 169.631L357.531 203.223Z" fill="#2D3748"/>
<path fill-rule="evenodd" clip-rule="evenodd" d="M326.77 139.016L324.941 136.499L337.277 118.706C337.35 114.879 339.165 110.293 339.165 110.293L346.242 110.566C346.242 110.566 345.005 116.675 344.377 119.63C343.497 123.772 326.77 139.016 326.77 139.016Z" fill="#A8763B"/>
<path fill-rule="evenodd" clip-rule="evenodd" d="M345.96 103.171L342.189 104.312C340.741 104.741 339.499 107.049 339.116 108.512L337.366 115.196L346.924 115.899L345.96 103.171Z" fill="#E2E8F0"/>
<path fill-rule="evenodd" clip-rule="evenodd" d="M374.582 127.007L371.474 127.068L366.596 109.917C366.009 109.971 362.95 108.905 361.675 108.816C361.129 105.386 362.041 104.786 362.365 101.283C365.434 102.57 367.463 102.172 369.526 104.378C372.413 107.469 374.582 127.007 374.582 127.007Z" fill="#A8763B"/>
<path fill-rule="evenodd" clip-rule="evenodd" d="M368.976 139.272L360.042 110.924C360.472 110.476 363.503 110.026 365.721 110.008C365.805 107.334 367.27 102.62 366.754 102.322C363.556 100.469 354.821 100.166 354.821 100.166L343.567 103.904L342.432 112.877L340.711 144.693L367.166 144.465C369.946 143.551 369.825 142.11 368.976 139.272Z" fill="#EDF1F5"/>
<path fill-rule="evenodd" clip-rule="evenodd" d="M354.924 205.172C355.613 204.663 355.583 194.201 355.583 194.201H364.694C366.044 195.356 364.107 209.698 364.107 209.698H345.741C345.234 207.188 352.865 206.693 354.924 205.172Z" fill="#1D2232"/>
<path fill-rule="evenodd" clip-rule="evenodd" d="M334.711 205.172C335.401 204.663 335.37 194.201 335.37 194.201H344.481C345.831 195.356 343.894 209.698 343.894 209.698H325.528C325.02 207.188 332.652 206.693 334.711 205.172Z" fill="#1D2232"/>
<path fill-rule="evenodd" clip-rule="evenodd" d="M328.754 139.951C328.388 137.945 327.776 135.731 324.974 136.452C323.227 136.901 322.327 138.214 321.947 140.212C321.577 142.165 323.388 141.92 324.335 142.285C326.016 142.932 329.121 141.957 328.754 139.951Z" fill="#A8763B"/>
<path fill-rule="evenodd" clip-rule="evenodd" d="M390.087 123.386L388.802 119.361L306.343 143.841L307.378 147.42L390.087 123.386Z" fill="url(#paint7_linear_1281_15444)"/>
<path fill-rule="evenodd" clip-rule="evenodd" d="M285.234 152.791C285.234 152.791 288.066 157.299 292.99 157.129C298.531 156.891 304.023 155.995 309.352 154.459L309.899 153.602L305.479 139.899C305.479 139.899 296.218 142.03 289.294 145.926C285.501 148.058 285.234 152.791 285.234 152.791Z" fill="#37474F"/>
<path fill-rule="evenodd" clip-rule="evenodd" d="M285.311 152.201C285.311 152.201 287.972 156.616 292.897 156.446C301.649 156.145 309.912 153.6 309.912 153.6L305.387 139.216C305.387 139.216 296.127 141.346 289.203 145.243C285.408 147.376 285.311 152.201 285.311 152.201Z" fill="#BFBFBF"/>
<path fill-rule="evenodd" clip-rule="evenodd" d="M311.875 142.085L306.784 143.66L304.512 146.368L307.93 147.624L313.022 146.05C313.518 145.898 312.371 141.932 311.875 142.085Z" fill="#37474F"/>
<path fill-rule="evenodd" clip-rule="evenodd" d="M304.51 146.369L307.929 147.625L313.021 146.051C313.488 145.838 312.844 144.042 312.844 144.042L304.51 146.369Z" fill="#37474F"/>
<path fill-rule="evenodd" clip-rule="evenodd" d="M292.61 148.913C292.533 148.434 291.898 149.74 291.448 149.069C291.173 148.658 291.946 147.686 291.906 147.638C291.66 147.338 290.6 147.585 289.715 147.861C289.263 147.955 288.832 148.132 288.444 148.384C287.771 149.025 287.632 148.47 287.419 148.804C286.927 149.577 288.027 151.507 289.353 151.422C290.863 151.326 292.771 149.95 292.61 148.913Z" fill="#8B7561"/>
<path fill-rule="evenodd" clip-rule="evenodd" d="M293.121 149.732C293.173 148.435 293.079 149.347 291.982 147.725C291.369 146.819 291.731 149.877 289.942 147.931C289.378 147.317 288.964 149.914 289.362 151.395C289.416 151.596 293.092 150.472 293.121 149.732Z" fill="#725E4F"/>
<path fill-rule="evenodd" clip-rule="evenodd" d="M347.475 83.3626C349.84 80.0974 344.677 78.4915 340.531 82.6084C335.226 87.875 326.196 88.1184 326.403 89.0991C327.137 92.5847 331.09 91.2226 338.537 88.7848C345.984 86.347 345.307 86.355 347.475 83.3626Z" fill="#39E1BF"/>
<path fill-rule="evenodd" clip-rule="evenodd" d="M348.508 83.1946C350.426 82.0579 342.719 73.5131 335.272 75.951C327.826 78.3888 326.386 84.953 327.786 88.2761C329.185 91.5993 335 88.6919 342.519 86.438C347.237 85.0236 346.519 84.3728 348.508 83.1946Z" fill="#28CCAB"/>
<path fill-rule="evenodd" clip-rule="evenodd" d="M332.329 89.5393C334.404 89.262 339.855 87.2839 339.855 87.2839C339.855 87.2839 336.953 80.6849 339.014 75.289C339.02 75.2711 337.832 75.1585 334.68 76.1663C332.823 76.7598 330.965 78.1666 330.823 78.4359C329.527 80.9054 332.258 89.5489 332.329 89.5393Z" fill="#00B098"/>
<path d="M335.644 88.0555C337.016 87.9007 338.024 86.8424 337.895 85.6917C337.765 84.5411 336.547 83.7338 335.174 83.8886C333.802 84.0434 332.794 85.1017 332.923 86.2524C333.053 87.4031 334.271 88.2103 335.644 88.0555Z" fill="#28CCAB"/>
<path d="M336.36 87.4993C336.966 86.6746 336.727 85.4669 335.825 84.8018C334.923 84.1367 333.7 84.266 333.093 85.0907C332.486 85.9154 332.725 87.1232 333.627 87.7883C334.529 88.4534 335.753 88.324 336.36 87.4993Z" fill="white"/>
<path fill-rule="evenodd" clip-rule="evenodd" d="M339.581 81.2662C339.357 82.1706 339.106 83.2268 339.858 87.2736C339.866 87.3197 337.943 83.8314 337.906 80.7959C337.889 79.4273 338.873 75.2859 338.928 75.281C340.032 75.1845 341.459 75.9397 341.459 75.9397C340.662 77.6502 340.033 79.4341 339.581 81.2662Z" fill="#089A86"/>
<path fill-rule="evenodd" clip-rule="evenodd" d="M270.041 207.988L335.617 88.1045C335.617 88.1045 337.332 87.2069 336.506 85.6125C335.394 83.4665 333.457 84.7119 333.457 84.7119L204.81 208.668L270.041 207.988Z" fill="url(#paint8_linear_1281_15444)"/>
<path fill-rule="evenodd" clip-rule="evenodd" d="M345.269 95.4175C345.161 95.4201 345.054 95.3938 344.96 95.3412C343.474 94.4734 345.705 89.7786 345.964 89.2461L346.218 89.3697C345.546 90.7513 344.035 94.4734 345.102 95.097C345.582 95.3774 347.129 94.2289 347.99 93.4378L348.181 93.646C347.964 93.8451 346.222 95.4175 345.269 95.4175Z" fill="#A0AEC0"/>
<path fill-rule="evenodd" clip-rule="evenodd" d="M335.959 98.9045C336.714 100.1 339.488 104.379 343 102.654C345.258 101.545 345.406 100.576 345.603 97.6744C345.833 94.2692 345.285 94.5084 343.786 94.8166C342.041 95.1752 339.06 96.2489 337.035 96.9195C334.525 97.7514 335.204 97.7098 335.959 98.9045Z" fill="#A0AEC0"/>
<path fill-rule="evenodd" clip-rule="evenodd" d="M326.551 137.878C325.496 139.167 325.722 137.582 324.205 139.552C323.596 140.385 322.628 140.879 321.596 140.885C321.316 140.511 322.073 138.878 322.867 138.097C324.101 136.884 327.59 136.612 326.551 137.878Z" fill="#C69050"/>
<path fill-rule="evenodd" clip-rule="evenodd" d="M371.3 128.988C373.282 129.468 375.55 129.808 376.031 126.953C376.331 125.172 375.497 123.815 373.829 122.656C372.196 121.523 371.684 123.279 370.966 123.997C369.691 125.272 369.32 128.508 371.3 128.988Z" fill="#A8763B"/>
<path fill-rule="evenodd" clip-rule="evenodd" d="M57.0379 160.661L50.8426 163.336L47.8226 170.061L45.717 168.777L46.5935 182.851L29.6268 158.972L35.6982 134.736L62.6521 133.267L57.0379 160.661Z" fill="#2D3748"/>
<path fill-rule="evenodd" clip-rule="evenodd" d="M78.8531 197.872L83.3571 202.896L90.6933 203.623L90.1452 206.027L103.211 200.725L85.9598 224.399L61.0509 226.343L51.0942 201.252L78.8531 197.872Z" fill="#2D3748"/>
<path d="M0.5 100L19.5 85.5L29 93.5H23.5V97.5H18.5L22.5 100L18.5 102L16 110L23.5 111.5L22.5 117.5L33 115.5V117.5H41L37 122L-0.5 154L0.5 140.5V123V100Z" fill="url(#paint9_linear_1281_15444)"/>
</g>
<defs>
<filter id="filter0_dd_1281_15444" x="41" y="133" width="79.8719" height="79.084" filterUnits="userSpaceOnUse" color-interpolation-filters="sRGB">
<feFlood flood-opacity="0" result="BackgroundImageFix"/>
<feColorMatrix in="SourceAlpha" type="matrix" values="0 0 0 0 0 0 0 0 0 0 0 0 0 0 0 0 0 0 127 0" result="hardAlpha"/>
<feOffset dx="-3" dy="2"/>
<feGaussianBlur stdDeviation="1"/>
<feComposite in2="hardAlpha" operator="out"/>
<feColorMatrix type="matrix" values="0 0 0 0 0 0 0 0 0 0 0 0 0 0 0 0 0 0 0.95 0"/>
<feBlend mode="normal" in2="BackgroundImageFix" result="effect1_dropShadow_1281_15444"/>
<feColorMatrix in="SourceAlpha" type="matrix" values="0 0 0 0 0 0 0 0 0 0 0 0 0 0 0 0 0 0 127 0" result="hardAlpha"/>
<feOffset dx="2" dy="1"/>
<feGaussianBlur stdDeviation="3.5"/>
<feComposite in2="hardAlpha" operator="out"/>
<feColorMatrix type="matrix" values="0 0 0 0 0.992157 0 0 0 0 0.74902 0 0 0 0 0.0862745 0 0 0 1 0"/>
<feBlend mode="normal" in2="effect1_dropShadow_1281_15444" result="effect2_dropShadow_1281_15444"/>
<feBlend mode="normal" in="SourceGraphic" in2="effect2_dropShadow_1281_15444" result="shape"/>
</filter>
<filter id="filter1_dd_1281_15444" x="15.7991" y="85.6191" width="36.6441" height="36.6689" filterUnits="userSpaceOnUse" color-interpolation-filters="sRGB">
<feFlood flood-opacity="0" result="BackgroundImageFix"/>
<feColorMatrix in="SourceAlpha" type="matrix" values="0 0 0 0 0 0 0 0 0 0 0 0 0 0 0 0 0 0 127 0" result="hardAlpha"/>
<feOffset dx="-2" dy="1"/>
<feGaussianBlur stdDeviation="1"/>
<feComposite in2="hardAlpha" operator="out"/>
<feColorMatrix type="matrix" values="0 0 0 0 0 0 0 0 0 0 0 0 0 0 0 0 0 0 0.95 0"/>
<feBlend mode="normal" in2="BackgroundImageFix" result="effect1_dropShadow_1281_15444"/>
<feColorMatrix in="SourceAlpha" type="matrix" values="0 0 0 0 0 0 0 0 0 0 0 0 0 0 0 0 0 0 127 0" result="hardAlpha"/>
<feOffset dx="1"/>
<feGaussianBlur stdDeviation="2.5"/>
<feComposite in2="hardAlpha" operator="out"/>
<feColorMatrix type="matrix" values="0 0 0 0 0.992157 0 0 0 0 0.74902 0 0 0 0 0.0862745 0 0 0 1 0"/>
<feBlend mode="normal" in2="effect1_dropShadow_1281_15444" result="effect2_dropShadow_1281_15444"/>
<feBlend mode="normal" in="SourceGraphic" in2="effect2_dropShadow_1281_15444" result="shape"/>
</filter>
<radialGradient id="paint0_radial_1281_15444" cx="0" cy="0" r="1" gradientUnits="userSpaceOnUse" gradientTransform="translate(202.514 129.43) rotate(90) scale(129.43 203.514)">
<stop offset="0.114583" stop-color="#FDBF16" stop-opacity="0.9"/>
<stop offset="0.833333" stop-color="#F2F5F8" stop-opacity="0"/>
</radialGradient>
<linearGradient id="paint1_linear_1281_15444" x1="285.001" y1="72.499" x2="109.001" y2="264.499" gradientUnits="userSpaceOnUse">
<stop stop-color="#C4C4C4" stop-opacity="0"/>
<stop offset="0.838542" stop-color="#161616"/>
</linearGradient>
<linearGradient id="paint2_linear_1281_15444" x1="142.503" y1="82.3304" x2="227.876" y2="38.6219" gradientUnits="userSpaceOnUse">
<stop offset="0.03125" stop-color="#00B098"/>
<stop offset="0.78125" stop-color="#521A4C"/>
<stop offset="1" stop-color="#521A4C"/>
</linearGradient>
<linearGradient id="paint3_linear_1281_15444" x1="176.925" y1="78.3489" x2="189.071" y2="78.3639" gradientUnits="userSpaceOnUse">
<stop stop-color="#80FFE5"/>
<stop offset="1" stop-color="#00B49C" stop-opacity="0"/>
</linearGradient>
<linearGradient id="paint4_linear_1281_15444" x1="181.714" y1="117.695" x2="59.7" y2="117.695" gradientUnits="userSpaceOnUse">
<stop stop-color="#F6D242" stop-opacity="0.602"/>
<stop offset="0.348958" stop-color="#F8DF7A" stop-opacity="0.39"/>
<stop offset="0.567708" stop-color="#FBEBAC" stop-opacity="0.102"/>
<stop offset="0.765625" stop-color="#FDF5D7" stop-opacity="0.047"/>
<stop offset="1" stop-color="white" stop-opacity="0"/>
</linearGradient>
<linearGradient id="paint5_linear_1281_15444" x1="339.382" y1="96.0242" x2="343.656" y2="92.8376" gradientUnits="userSpaceOnUse">
<stop offset="0.03125" stop-color="#00B098"/>
<stop offset="0.78125" stop-color="#521A4C"/>
<stop offset="1" stop-color="#521A4C"/>
</linearGradient>
<linearGradient id="paint6_linear_1281_15444" x1="333.923" y1="97.6815" x2="338.197" y2="94.4949" gradientUnits="userSpaceOnUse">
<stop offset="0.03125" stop-color="#00B098"/>
<stop offset="0.78125" stop-color="#521A4C"/>
<stop offset="1" stop-color="#521A4C"/>
</linearGradient>
<linearGradient id="paint7_linear_1281_15444" x1="307.627" y1="147.42" x2="390.063" y2="119.29" gradientUnits="userSpaceOnUse">
<stop offset="0.03125" stop-color="#00B098"/>
<stop offset="0.78125" stop-color="#521A4C"/>
<stop offset="1" stop-color="#521A4C"/>
</linearGradient>
<linearGradient id="paint8_linear_1281_15444" x1="343.723" y1="149.245" x2="172.885" y2="149.245" gradientUnits="userSpaceOnUse">
<stop stop-color="#F6D242" stop-opacity="0.502"/>
<stop offset="0.246" stop-color="#F8DF7A" stop-opacity="0.29"/>
<stop offset="0.483" stop-color="#FBEBAC" stop-opacity="0.102"/>
<stop offset="0.712" stop-color="#FDF5D7" stop-opacity="0.047"/>
<stop offset="1" stop-color="white" stop-opacity="0"/>
</linearGradient>
<linearGradient id="paint9_linear_1281_15444" x1="18" y1="118" x2="27" y2="84" gradientUnits="userSpaceOnUse">
<stop offset="0.609225" stop-color="#2D3748"/>
<stop offset="1" stop-color="#2D3748" stop-opacity="0"/>
</linearGradient>
<clipPath id="clip0_1281_15444">
<rect width="411" height="262" fill="white"/>
</clipPath>
<clipPath id="clip1_1281_15444">
<rect width="60" height="60" fill="white" transform="translate(50.5042 141.376)"/>
</clipPath>
<clipPath id="clip2_1281_15444">
<rect width="100" height="100" fill="white" transform="translate(-2 98)"/>
</clipPath>
<clipPath id="clip3_1281_15444">
<rect width="25" height="25" fill="white" transform="translate(21 91)"/>
</clipPath>
</defs>
</svg>
