<?xml version="1.0" standalone="no"?>
<!DOCTYPE svg PUBLIC "-//W3C//DTD SVG 20010904//EN"
 "http://www.w3.org/TR/2001/REC-SVG-20010904/DTD/svg10.dtd">
<svg version="1.0" xmlns="http://www.w3.org/2000/svg"
 width="3000.000000pt" height="3000.000000pt" viewBox="0 0 3000.000000 3000.000000"
 preserveAspectRatio="xMidYMid meet">

<g transform="translate(0.000000,3000.000000) scale(0.100000,-0.100000)"
fill="#000000" stroke="none">
<path d="M15460 24065 l-45 -13 73 -1 c58 -1 72 2 72 14 0 18 -37 18 -100 0z"/>
<path d="M15497 23613 c-4 -3 -7 -16 -7 -28 0 -16 7 -24 28 -28 44 -9 72 -42
72 -85 0 -61 -127 -918 -140 -941 -13 -25 -48 -41 -91 -41 -25 0 -29 -4 -29
-28 l0 -28 298 -44 c343 -51 443 -55 534 -20 122 45 191 156 192 305 1 135
-56 222 -184 278 l-52 23 45 18 c66 25 142 96 164 154 25 66 23 174 -5 228
-22 43 -74 94 -120 118 -54 28 -142 46 -412 86 -309 45 -284 42 -293 33z m483
-149 c77 -33 110 -88 110 -184 0 -123 -44 -209 -117 -229 -46 -13 -183 5 -183
24 0 17 49 364 56 394 5 22 8 23 52 16 26 -4 63 -13 82 -21z m-76 -524 c81
-13 114 -28 149 -70 33 -39 41 -81 35 -184 -12 -179 -96 -258 -258 -242 -76 8
-106 25 -114 63 -4 15 7 122 24 237 16 114 30 210 30 213 0 2 15 1 33 -2 17
-3 63 -10 101 -15z"/>
<path d="M14375 23583 l-30 -4 -144 -512 c-80 -282 -153 -535 -163 -564 -11
-29 -32 -63 -49 -77 -19 -16 -29 -34 -29 -52 l0 -27 63 6 c34 4 108 9 165 13
84 6 102 10 102 23 0 25 -12 35 -60 51 -36 12 -47 22 -58 52 -13 34 -12 47 7
133 13 52 28 101 36 108 14 15 324 42 336 30 19 -20 71 -173 72 -211 0 -52
-28 -87 -79 -96 -27 -6 -34 -12 -34 -31 0 -13 3 -26 8 -28 7 -5 481 29 487 35
8 8 -9 58 -20 58 -38 0 -91 98 -316 590 -165 359 -238 510 -249 508 -8 0 -28
-3 -45 -5z m49 -531 c41 -100 72 -183 68 -186 -4 -2 -61 -7 -126 -11 l-119 -7
6 23 c4 13 25 102 48 196 24 95 44 171 46 170 1 -2 36 -85 77 -185z"/>
<path d="M13300 23468 c-36 -11 -95 -28 -132 -39 l-67 -19 11 -30 c9 -28 13
-30 62 -30 86 0 83 11 96 -345 7 -171 10 -325 8 -343 -3 -29 -25 3 -222 318
-290 463 -281 463 -255 10 10 -179 20 -351 22 -382 2 -32 0 -58 -3 -58 -7 0
-320 501 -332 532 -11 28 8 67 46 89 32 19 34 22 24 50 -8 23 -14 28 -31 23
-12 -2 -110 -31 -217 -62 -192 -56 -196 -58 -190 -81 4 -17 15 -27 36 -33 16
-4 39 -18 51 -30 16 -18 379 -584 586 -915 l26 -41 53 15 c29 8 57 19 61 22 4
4 -1 155 -13 335 -11 181 -20 333 -20 339 0 23 30 -24 195 -298 93 -154 169
-281 170 -282 1 -2 27 5 58 14 46 13 57 20 57 37 0 12 -5 188 -10 391 -5 204
-10 451 -10 549 -1 164 0 181 18 206 21 28 20 81 -2 79 -6 0 -40 -10 -76 -21z"/>
<path d="M16973 23372 c-4 -19 -1 -29 12 -36 49 -29 69 -54 69 -87 -1 -19 -45
-178 -100 -354 -99 -320 -99 -320 -99 -425 0 -95 3 -111 28 -162 37 -75 99
-136 184 -181 136 -71 281 -94 394 -61 41 12 65 28 100 65 77 81 110 159 219
519 61 201 109 343 121 355 14 15 31 19 73 18 50 -1 55 0 61 24 3 14 5 26 3
27 -2 1 -74 24 -162 50 -128 39 -160 45 -167 34 -12 -18 -11 -48 1 -48 6 0 22
-11 35 -25 45 -44 36 -100 -65 -432 -92 -298 -118 -365 -165 -421 -75 -89
-237 -97 -343 -16 -71 55 -102 150 -82 261 14 81 164 583 192 641 24 50 69 82
116 82 25 0 35 6 41 23 5 12 6 25 2 29 -3 3 -108 38 -234 76 l-227 69 -7 -25z"/>
<path d="M18533 22838 c-7 -17 -6 -29 5 -45 29 -46 9 -95 -208 -503 -114 -217
-218 -406 -229 -419 -17 -18 -29 -22 -57 -19 -30 4 -38 0 -47 -19 -6 -13 -8
-25 -6 -27 7 -6 229 -126 234 -126 2 0 9 9 16 21 9 17 7 25 -12 45 -42 44 -33
70 115 349 76 143 142 264 146 269 10 11 7 22 139 -516 99 -405 109 -441 132
-453 l24 -13 245 461 c135 254 257 475 273 491 23 24 33 27 62 22 27 -5 36 -3
44 13 6 11 11 22 11 25 0 7 -225 126 -238 126 -22 0 -23 -39 -1 -69 16 -22 20
-38 16 -60 -8 -41 -299 -583 -308 -573 -3 4 -46 180 -94 392 -48 212 -98 433
-111 491 l-25 105 -55 27 c-30 15 -56 27 -58 27 -1 0 -7 -10 -13 -22z"/>
<path d="M11270 22745 c-36 -8 -111 -37 -166 -65 -220 -110 -324 -260 -324
-463 0 -108 21 -192 75 -303 80 -165 185 -278 318 -344 145 -71 277 -63 463
29 214 107 334 276 334 473 0 181 -142 461 -292 575 -133 102 -253 130 -408
98z m77 -166 c192 -92 394 -427 397 -659 1 -97 -22 -158 -77 -205 -74 -64
-158 -69 -263 -18 -69 34 -171 126 -229 207 -62 87 -131 236 -156 336 -50 196
14 343 161 370 53 10 98 1 167 -31z"/>
<path d="M14885 21929 c-396 -11 -671 -32 -945 -74 -244 -37 -239 -36 -510
-96 -331 -73 -674 -181 -1015 -319 -207 -84 -944 -453 -1108 -555 -27 -17 -87
-58 -135 -92 -48 -35 -116 -79 -152 -99 -36 -21 -76 -47 -90 -59 -14 -12 -53
-41 -87 -64 -93 -62 -357 -275 -447 -361 -43 -41 -91 -94 -107 -117 -16 -23
-91 -93 -166 -156 -173 -143 -269 -244 -357 -375 -38 -57 -107 -142 -154 -190
-161 -167 -437 -530 -569 -749 -84 -141 -292 -558 -328 -659 -30 -85 -132
-333 -197 -479 -86 -192 -147 -381 -223 -695 -42 -173 -91 -367 -110 -430 -47
-163 -60 -225 -97 -490 l-33 -235 2 -412 c2 -523 13 -717 68 -1193 48 -412
126 -746 278 -1190 228 -663 228 -665 337 -880 91 -182 159 -301 285 -500 50
-80 117 -192 149 -250 59 -109 94 -159 233 -329 86 -106 102 -128 185 -256 38
-57 128 -156 318 -349 358 -363 589 -571 885 -797 61 -46 137 -105 170 -132
147 -118 494 -337 720 -453 126 -66 249 -127 272 -136 23 -10 66 -31 95 -47
173 -97 1043 -407 1318 -470 401 -92 858 -150 1349 -172 425 -18 961 14 1381
85 113 19 238 37 279 41 40 3 85 11 100 17 14 5 60 16 101 24 121 23 651 174
715 204 22 10 99 42 170 71 72 29 198 83 280 122 83 38 227 104 321 147 323
148 464 226 599 330 44 34 152 105 240 157 307 183 505 341 798 637 565 571
771 824 1241 1526 102 153 359 626 444 820 66 149 138 363 173 510 12 52 39
154 61 225 193 639 275 1187 311 2075 6 145 -11 503 -29 610 -9 52 -20 142
-24 200 -12 146 -93 616 -135 788 -20 79 -52 189 -72 245 -19 56 -48 146 -63
200 -66 228 -209 567 -397 942 -223 444 -252 495 -484 848 -315 479 -537 741
-952 1120 -120 110 -265 243 -320 296 -98 93 -188 166 -253 207 -83 51 -190
129 -252 182 -69 59 -293 203 -531 341 -160 93 -230 128 -311 156 -36 13 -141
60 -233 104 -212 103 -340 155 -564 232 -284 96 -662 209 -738 220 -38 6 -158
28 -265 50 -418 84 -871 142 -1064 137 -34 0 -196 -5 -361 -9z m495 -139 c338
-21 567 -55 940 -142 399 -92 972 -270 1380 -427 255 -99 587 -276 987 -524
225 -141 328 -215 464 -334 63 -56 193 -170 289 -254 532 -467 894 -885 1282
-1479 127 -194 376 -650 460 -842 41 -94 140 -348 182 -468 13 -36 44 -111 70
-166 80 -176 192 -599 240 -914 67 -431 87 -648 101 -1070 16 -527 6 -777 -51
-1165 -102 -696 -324 -1405 -636 -2029 -166 -331 -448 -788 -569 -921 -107
-118 -153 -176 -219 -275 -132 -199 -228 -313 -485 -577 -302 -311 -668 -617
-1026 -855 -149 -100 -251 -157 -618 -351 -534 -281 -703 -355 -1089 -481
-356 -115 -544 -157 -1025 -225 -642 -92 -788 -104 -1207 -98 -506 8 -896 54
-1375 163 -201 46 -842 256 -1145 375 -163 64 -547 253 -632 312 -37 26 -150
97 -250 158 -241 147 -327 208 -602 422 -471 368 -566 450 -795 691 -387 407
-719 855 -966 1301 -49 88 -154 293 -233 455 -197 403 -281 615 -332 840 -15
69 -57 214 -93 322 -213 643 -297 1614 -211 2448 20 200 51 411 74 500 10 41
39 179 65 305 57 286 108 464 191 671 35 89 64 171 64 182 0 30 47 155 90 242
21 42 61 131 90 199 66 159 194 414 259 516 28 43 51 87 51 97 0 33 333 518
601 873 133 177 330 395 549 609 188 182 199 191 992 788 115 87 318 218 336
218 4 0 43 22 86 50 219 138 792 386 1216 526 416 138 664 200 1030 258 252
40 307 45 695 61 204 8 395 17 425 18 124 7 193 6 350 -3z"/>
<path d="M14895 21619 c-378 -11 -634 -30 -895 -69 -213 -31 -239 -36 -510
-96 -559 -124 -1066 -321 -1725 -671 -229 -122 -327 -179 -445 -263 -52 -37
-111 -75 -130 -85 -100 -51 -517 -382 -624 -496 -43 -46 -90 -97 -104 -113
-14 -15 -82 -75 -151 -133 -140 -116 -223 -204 -307 -330 -32 -47 -98 -128
-149 -181 -163 -174 -430 -525 -547 -722 -84 -142 -275 -531 -320 -650 -40
-107 -102 -258 -189 -455 -79 -182 -136 -364 -215 -690 -42 -170 -84 -335 -95
-366 -44 -134 -95 -443 -121 -741 -14 -161 3 -856 27 -1123 60 -664 129 -997
315 -1535 45 -129 104 -300 131 -379 70 -203 109 -293 203 -476 82 -158 126
-234 263 -450 38 -60 95 -157 126 -215 60 -109 106 -174 232 -325 41 -49 94
-121 117 -158 24 -38 65 -97 91 -130 65 -84 521 -542 682 -686 196 -175 258
-225 614 -499 31 -24 137 -98 236 -165 163 -110 295 -183 725 -404 176 -90
913 -361 1193 -439 256 -71 659 -137 1077 -174 506 -46 1166 -23 1640 59 96
16 218 34 271 40 53 6 115 18 139 26 23 8 52 15 65 15 24 0 343 88 545 150
136 42 354 130 580 235 80 37 237 110 350 161 241 111 380 189 510 285 52 39
165 113 251 165 295 177 460 311 762 618 483 490 711 762 1002 1194 58 86 128
190 156 229 58 85 259 444 353 631 117 233 187 423 245 661 16 65 43 162 60
217 108 353 193 770 240 1179 60 524 68 1213 16 1440 -7 33 -16 103 -19 155
-6 104 -70 490 -112 677 -43 194 -190 639 -291 883 -68 166 -311 666 -418 860
-117 214 -338 554 -511 785 -175 235 -391 469 -654 709 -85 77 -213 196 -285
264 -130 123 -203 184 -261 219 -64 38 -182 122 -254 183 -86 72 -116 92 -380
250 -244 147 -349 203 -425 228 -33 11 -135 56 -226 100 -276 133 -503 217
-964 357 -120 36 -253 71 -295 76 -41 6 -136 24 -210 40 -358 76 -883 144
-1050 137 -19 0 -170 -5 -335 -9z m450 -373 c148 -41 332 -159 407 -262 42
-58 110 -202 99 -209 -5 -2 -19 -32 -31 -66 -16 -41 -41 -81 -77 -120 -61 -65
-68 -102 -22 -107 18 -2 41 10 82 44 32 26 60 44 63 41 7 -6 -27 -41 -71 -74
-27 -19 -28 -22 -12 -28 12 -5 28 0 47 14 17 12 31 17 35 11 9 -14 42 -12 52
2 11 19 32 258 33 377 l0 103 38 -7 c63 -11 178 -73 238 -127 109 -100 159
-205 185 -391 7 -48 17 -91 23 -96 6 -5 46 -18 89 -30 43 -12 105 -32 137 -46
33 -14 78 -25 101 -25 40 0 46 5 173 134 158 161 203 187 331 194 87 5 147 -8
243 -50 l51 -23 -62 -91 c-54 -79 -133 -210 -176 -291 -17 -33 -4 -58 30 -58
14 0 34 -12 47 -27 42 -49 58 -29 21 24 -22 30 -20 44 5 35 8 -3 16 -16 18
-29 2 -19 10 -24 41 -26 l37 -3 -6 85 c-5 57 -3 100 6 130 11 40 19 49 67 76
97 55 203 74 403 75 199 0 261 -12 395 -75 236 -110 403 -335 444 -598 9 -60
8 -91 -5 -175 l-17 -102 -72 -42 c-39 -24 -94 -48 -122 -54 -50 -12 -50 -12
-39 -40 10 -28 13 -29 79 -29 51 0 68 -3 64 -12 -2 -8 -20 -13 -42 -13 -46 0
-59 -22 -18 -30 15 -3 41 -10 57 -15 37 -12 45 -6 109 90 27 41 77 112 110
157 l60 81 24 -28 c13 -16 36 -55 51 -87 22 -47 27 -72 27 -135 0 -75 -2 -81
-63 -200 -79 -156 -80 -168 -6 -248 32 -33 65 -65 75 -70 13 -7 38 1 101 33
94 48 202 85 275 93 91 11 211 -25 287 -87 l37 -32 -118 -62 c-143 -75 -320
-184 -352 -218 -27 -30 -25 -61 5 -65 12 -2 26 -14 32 -28 16 -35 36 -31 29 6
-9 41 6 38 21 -4 7 -18 21 -41 31 -50 35 -32 53 -16 90 73 21 50 50 101 72
123 35 37 37 38 110 38 224 0 555 -178 693 -374 108 -152 149 -279 149 -466 1
-192 -38 -309 -148 -447 l-50 -63 -102 0 -103 0 0 -29 c0 -23 7 -34 30 -48 37
-22 39 -37 3 -28 -44 11 -45 11 -50 -2 -2 -6 5 -14 16 -18 12 -3 21 -15 21
-26 0 -40 33 -31 217 60 101 51 188 90 191 86 4 -4 7 -53 7 -109 0 -94 -2
-106 -33 -168 -35 -72 -62 -98 -216 -208 -105 -75 -121 -102 -106 -181 22
-114 63 -145 215 -159 175 -17 323 -76 418 -168 39 -37 87 -118 87 -146 0 -16
-44 -22 -250 -31 -148 -6 -305 -28 -325 -45 -8 -7 -14 -26 -13 -44 1 -17 -4
-60 -11 -95 -7 -34 -9 -66 -6 -70 13 -12 33 31 40 84 4 38 11 55 21 55 17 0
18 -8 0 -62 -24 -75 -27 -99 -15 -114 6 -8 17 -14 24 -14 7 0 54 39 106 87 90
82 152 122 193 123 47 0 146 -62 233 -147 140 -138 232 -284 285 -453 19 -63
23 -96 23 -205 0 -158 -15 -219 -86 -364 -43 -87 -65 -118 -133 -187 -69 -70
-96 -89 -169 -123 l-86 -40 -62 25 c-73 30 -125 62 -159 99 -36 39 -58 49 -76
34 -23 -19 -17 -37 34 -107 66 -92 66 -92 45 -92 -12 0 -31 20 -52 55 -31 52
-61 72 -61 42 0 -8 23 -46 52 -85 l51 -72 229 0 228 0 0 -32 c-1 -50 -32 -110
-80 -150 -48 -41 -120 -73 -266 -117 -57 -17 -108 -39 -119 -50 -11 -14 -23
-54 -32 -116 -19 -131 -8 -154 97 -209 147 -77 280 -244 280 -353 0 -23 -4
-44 -9 -47 -5 -3 -42 6 -82 20 -77 26 -292 88 -344 98 l-30 6 -1 -75 c-1 -56
3 -75 12 -75 8 0 16 11 20 25 3 14 13 25 20 25 11 0 12 -4 4 -19 -5 -11 -15
-23 -20 -26 -12 -7 -14 -75 -2 -75 4 0 34 11 67 25 40 16 80 25 118 25 57 0
60 -1 103 -47 126 -135 222 -435 211 -658 -4 -95 -7 -106 -57 -215 -105 -231
-124 -263 -197 -330 -131 -119 -256 -177 -410 -187 l-92 -6 -56 54 c-31 30
-69 79 -85 112 -16 32 -32 57 -37 55 -4 -1 -18 -14 -30 -29 -22 -26 -22 -29
-8 -69 19 -54 19 -53 -6 -40 -11 7 -25 25 -31 41 -13 38 -32 37 -26 -1 3 -17
1 -33 -4 -36 -4 -3 -8 -13 -8 -23 0 -12 46 -41 165 -102 90 -46 165 -88 165
-94 0 -37 -187 -107 -292 -108 -62 -1 -76 3 -170 50 -57 28 -113 54 -125 58
-30 8 -87 -20 -109 -53 -10 -15 -24 -32 -32 -38 -23 -17 -17 -54 26 -154 72
-170 89 -320 46 -419 l-19 -43 -82 109 c-115 154 -249 302 -279 309 -20 5 -32
0 -57 -28 -18 -19 -42 -38 -55 -42 -12 -4 -22 -12 -22 -17 0 -15 52 -10 71 7
17 16 39 12 39 -6 0 -18 -81 -52 -107 -45 -34 8 -63 -3 -63 -24 0 -28 17 -37
105 -56 148 -32 180 -44 217 -77 29 -27 38 -44 47 -91 29 -156 -57 -464 -178
-640 -93 -135 -235 -242 -398 -298 -95 -32 -103 -33 -253 -33 -175 0 -210 8
-337 82 l-69 40 -13 75 c-7 40 -11 114 -10 163 l4 89 -30 0 c-22 0 -31 -5 -33
-20 -2 -11 -10 -27 -17 -35 -7 -8 -20 -38 -29 -66 -15 -45 -19 -51 -40 -47
-32 7 -56 -42 -56 -115 0 -103 -146 -420 -222 -483 -203 -166 -360 -225 -718
-264 -256 -29 -461 -95 -653 -209 -51 -30 -166 -109 -256 -174 -224 -162 -316
-219 -423 -259 -218 -82 -457 -106 -843 -84 l-110 6 36 23 c20 12 70 30 110
40 l74 19 0 64 c0 50 -5 71 -22 95 -47 66 -56 205 -13 219 62 20 92 123 49
166 -19 19 -21 29 -15 80 3 35 0 91 -8 136 -8 43 -17 134 -20 202 -5 118 -4
126 21 174 14 28 27 71 29 96 2 26 7 78 10 116 4 39 2 101 -4 139 -10 65 -10
72 15 130 l27 61 -3 281 c-2 323 6 384 64 451 l33 38 38 -14 c22 -8 63 -36 92
-62 61 -56 91 -67 138 -50 27 10 38 9 61 -2 15 -8 55 -23 88 -33 33 -11 84
-34 114 -51 30 -18 60 -33 65 -33 21 0 59 -71 63 -118 3 -36 -7 -83 -46 -210
-59 -189 -61 -193 -113 -250 -37 -40 -39 -47 -35 -90 2 -26 10 -62 18 -80 14
-33 14 -34 -33 -78 -33 -31 -55 -44 -76 -44 -32 0 -82 -34 -82 -55 0 -8 -13
-30 -30 -48 -16 -19 -30 -43 -30 -53 0 -11 33 -54 73 -97 55 -59 78 -77 99
-77 21 0 33 -9 53 -43 14 -24 25 -52 25 -63 0 -53 109 -162 224 -223 70 -37
75 -37 110 -10 32 25 33 51 2 92 -51 69 -106 214 -106 281 0 23 -8 62 -17 88
-16 45 -16 51 0 100 9 29 26 68 38 87 20 33 22 33 71 28 55 -7 135 7 163 27
18 13 29 56 44 171 4 33 19 87 33 120 14 33 51 119 82 192 31 73 56 143 56
156 0 13 18 59 40 102 36 70 45 82 83 97 52 21 143 23 163 4 7 -8 80 -30 162
-49 81 -20 213 -57 292 -82 209 -67 482 -135 543 -135 83 -1 179 -18 282 -50
155 -50 235 -50 280 0 22 25 67 26 156 4 59 -14 69 -14 102 0 20 8 37 22 37
30 0 9 4 16 9 16 19 0 69 -50 75 -75 4 -14 11 -25 16 -25 12 0 12 2 0 36 -13
33 13 135 40 159 10 9 55 25 99 34 78 17 83 17 121 0 54 -24 42 -7 -12 19 -56
26 -82 55 -73 81 3 11 48 52 99 91 70 53 105 88 142 143 78 116 383 418 612
606 l53 44 64 -7 c56 -6 69 -3 111 19 61 32 86 55 140 129 36 48 44 66 44 102
0 60 18 84 112 150 44 31 97 71 118 90 l37 34 34 -23 c18 -12 36 -33 39 -47 6
-30 104 -85 127 -71 9 5 32 2 57 -7 22 -8 68 -16 101 -19 67 -6 67 -6 150 96
52 63 75 124 75 198 0 59 -32 167 -58 197 -24 26 -83 54 -131 62 -22 3 -48 15
-57 25 -21 23 -108 27 -121 5 -5 -8 -36 -15 -90 -19 l-83 -5 -21 34 c-18 30
-19 38 -8 71 6 21 21 49 31 63 78 102 95 127 100 141 3 8 -3 58 -14 110 -17
84 -18 97 -5 119 13 22 13 42 1 165 -14 128 -13 153 2 287 15 126 16 164 6
271 -20 214 -38 263 -76 205 -8 -13 -46 -93 -85 -179 l-71 -156 -1 -179 c0
-99 -4 -199 -8 -224 -6 -29 -9 34 -10 183 -1 226 -1 229 25 285 15 31 44 97
65 147 22 49 57 119 79 155 43 70 47 86 28 92 -9 3 -4 23 15 67 15 34 27 68
27 74 0 7 20 51 45 99 41 79 45 95 45 157 0 37 -7 88 -15 111 -8 23 -12 52 -9
65 3 14 -1 34 -12 50 -23 36 -9 45 73 45 53 0 63 -3 68 -20 3 -11 14 -24 24
-29 25 -14 137 -25 158 -16 10 4 37 9 61 11 54 6 203 59 237 86 35 27 33 73
-11 238 -40 153 -58 196 -87 212 -24 12 -123 4 -190 -16 -26 -8 -51 -10 -58
-5 -25 16 -84 9 -129 -13 -35 -18 -45 -29 -45 -48 0 -20 -8 -27 -38 -37 -20
-7 -49 -19 -64 -27 -38 -19 -113 -31 -113 -18 0 6 5 23 11 39 7 16 11 75 10
135 0 62 3 109 9 113 20 12 9 70 -36 193 -42 116 -46 135 -49 237 -3 94 -7
120 -32 180 -16 39 -47 121 -68 183 -21 61 -41 112 -45 112 -13 0 -20 -29 -41
-160 -11 -69 -23 -198 -26 -287 -6 -156 -5 -165 21 -248 15 -48 25 -89 22 -92
-19 -19 -96 207 -96 284 0 28 9 89 20 135 10 46 26 135 35 198 23 164 33 216
61 297 l24 73 -30 41 c-17 23 -39 48 -50 56 -19 13 -18 15 15 94 31 72 35 93
41 203 6 100 4 128 -8 152 -9 16 -21 40 -27 54 -34 73 -54 102 -76 112 -22 10
-24 17 -27 102 -3 85 -2 93 20 114 30 29 82 30 82 2 0 -29 43 -37 78 -14 15
10 50 39 77 65 28 26 80 72 116 103 l66 55 7 106 c7 103 6 109 -19 161 -15 30
-48 78 -74 106 -47 51 -49 52 -114 56 -92 6 -139 -18 -211 -108 -36 -44 -61
-67 -70 -64 -43 16 -119 -66 -109 -117 4 -22 -2 -34 -31 -63 -19 -20 -37 -36
-39 -36 -3 0 -36 48 -160 235 -84 125 -123 162 -207 190 -89 30 -171 78 -199
116 -32 43 -128 112 -221 159 -108 54 -143 82 -205 164 -27 36 -52 66 -56 66
-3 0 -17 17 -31 38 -21 31 -26 53 -31 136 -3 54 -9 102 -14 105 -9 6 -37 57
-60 106 -42 91 -48 98 -114 132 -36 19 -86 37 -110 40 -33 5 -58 18 -104 57
-33 28 -73 61 -89 74 -26 20 -28 25 -17 46 7 13 32 34 55 46 22 13 55 33 71
45 17 12 41 25 55 28 38 9 102 80 104 114 0 15 11 42 22 58 60 85 83 163 64
219 -17 51 -93 151 -137 180 -26 17 -63 29 -115 36 -94 13 -111 6 -186 -77
-29 -32 -68 -74 -86 -93 -44 -46 -76 -111 -75 -152 1 -33 -61 -222 -78 -239
-13 -13 -163 44 -260 98 -71 40 -81 48 -72 65 6 12 6 25 -1 38 -10 18 -17 20
-59 14 -34 -4 -65 -1 -101 11 -42 14 -72 16 -168 11 -64 -4 -122 -3 -128 1 -7
4 -28 40 -49 78 -20 39 -38 71 -39 72 -1 1 -36 -9 -77 -24 -40 -14 -102 -28
-136 -31 -71 -5 -82 -18 -25 -27 102 -18 244 -64 257 -85 8 -13 9 -14 -74 15
-40 13 -119 34 -175 46 -66 14 -117 31 -147 50 -25 16 -72 38 -104 49 -32 11
-129 56 -216 100 -154 78 -189 91 -189 70 0 -24 -31 -19 -87 14 -33 19 -100
47 -149 61 -49 14 -99 32 -111 40 -28 19 -59 19 -113 0 -23 -8 -52 -15 -64
-15 -11 0 -34 -7 -51 -16 -27 -14 -33 -14 -75 2 -25 9 -56 27 -70 38 -24 20
-25 24 -15 61 9 31 20 44 47 57 28 13 39 28 56 73 27 71 28 101 2 117 -15 10
-20 24 -20 58 -1 74 -18 188 -34 218 -16 31 -118 85 -229 123 -52 18 -67 19
-106 9 -25 -6 -65 -22 -88 -36 -59 -34 -67 -66 -60 -236 4 -86 3 -139 -3 -143
-6 -3 -10 -35 -10 -69 0 -55 4 -68 30 -101 19 -24 30 -49 30 -70 0 -28 -5 -34
-37 -47 -217 -89 -294 -125 -331 -153 -27 -21 -94 -51 -190 -84 -133 -46 -166
-53 -347 -75 -111 -14 -264 -39 -342 -55 -78 -16 -188 -33 -245 -37 -110 -7
-188 -32 -188 -59 0 -10 -10 -15 -30 -15 -34 0 -79 -20 -100 -44 -7 -9 -45
-41 -85 -71 -40 -30 -98 -80 -130 -111 -54 -52 -61 -56 -96 -51 -22 3 -53 17
-71 32 -41 34 -57 113 -31 152 30 45 -7 193 -47 193 -13 0 -27 23 -51 86 -38
97 -80 146 -144 168 -22 7 -56 19 -75 26 -78 28 -91 25 -191 -35 -52 -31 -100
-62 -108 -70 -19 -19 -17 -149 3 -219 9 -29 34 -81 57 -115 37 -56 40 -65 29
-86 -11 -20 -9 -30 19 -78 31 -54 31 -55 16 -98 -10 -28 -33 -59 -63 -85 l-47
-42 0 -85 c0 -85 0 -86 -36 -124 -20 -21 -48 -63 -63 -93 -31 -65 -77 -105
-232 -202 -127 -79 -377 -208 -449 -232 -28 -9 -74 -34 -102 -55 -29 -21 -101
-64 -160 -95 -59 -32 -124 -66 -145 -78 -59 -33 -268 -262 -282 -308 l-11 -39
-40 22 c-48 27 -84 91 -66 119 21 34 12 62 -36 110 -26 26 -53 48 -61 48 -7 0
-21 7 -29 16 -58 58 -235 164 -274 164 -28 0 -149 -48 -192 -76 -39 -26 -54
-52 -81 -143 -22 -75 -20 -98 15 -153 27 -42 136 -141 198 -180 12 -7 21 -21
21 -30 0 -19 30 -51 75 -79 46 -29 53 -22 9 9 -21 16 -45 36 -53 46 -27 32 -1
28 50 -9 l53 -38 -33 41 c-18 23 -61 67 -97 98 -57 50 -64 61 -64 93 0 20 7
47 16 59 14 21 14 22 -5 22 -28 0 -43 -33 -36 -78 l7 -37 -21 33 c-11 17 -26
52 -32 75 -10 41 -8 48 26 113 20 38 38 70 40 72 1 2 36 11 78 21 56 13 80 15
94 7 26 -14 105 -79 168 -136 l50 -45 5 52 c3 28 8 55 12 58 10 10 88 -75 88
-95 0 -10 -6 -23 -14 -29 -11 -10 -17 -8 -25 6 -8 14 -10 15 -11 2 0 -25 79
-139 106 -151 26 -12 30 -23 14 -33 -6 -4 -7 -11 -4 -17 4 -6 10 -6 17 1 23
23 53 12 75 -27 19 -34 21 -51 19 -196 l-2 -158 -39 6 c-90 15 -235 110 -236
156 0 32 -48 65 -119 84 -65 17 -65 -3 1 -22 24 -7 55 -23 68 -37 23 -24 23
-25 7 -76 -10 -28 -17 -62 -17 -75 0 -14 -13 -59 -29 -102 -42 -109 -42 -110
-50 -239 l-7 -118 -57 -99 c-38 -67 -73 -150 -108 -254 -28 -85 -70 -191 -92
-235 -40 -80 -94 -142 -331 -379 l-79 -79 21 -28 20 -28 -37 -59 c-36 -56 -92
-114 -111 -114 -5 0 -14 -19 -20 -42 -6 -24 -18 -68 -27 -99 -16 -60 -11 -84
16 -76 13 3 16 -4 16 -39 0 -45 -10 -48 -25 -8 -11 27 -34 38 -110 52 -48 9
-53 8 -58 -10 -5 -19 -10 -20 -69 -14 -58 6 -70 4 -145 -29 -45 -19 -89 -35
-99 -35 -9 0 -29 -14 -44 -32 -26 -31 -27 -35 -23 -133 5 -135 22 -169 105
-213 54 -28 78 -34 180 -44 71 -6 124 -16 134 -24 8 -8 26 -14 40 -14 32 0 88
35 97 61 7 18 12 13 34 -37 38 -85 43 -121 23 -144 -28 -31 -65 -168 -65 -242
0 -62 -2 -68 -20 -68 -31 0 -33 -19 -9 -131 18 -89 20 -123 15 -231 -4 -83 -3
-128 3 -128 12 0 22 34 59 215 31 148 61 259 68 252 2 -2 -3 -53 -11 -113 -16
-114 -60 -285 -96 -376 -51 -127 -87 -250 -94 -319 -3 -41 -10 -87 -15 -104
-5 -16 -11 -52 -13 -80 -2 -27 -11 -67 -20 -87 -22 -50 -21 -73 6 -133 13 -27
34 -81 47 -120 12 -38 27 -75 32 -81 5 -7 49 -27 98 -45 l90 -34 0 -37 0 -37
-87 3 c-98 4 -160 -9 -177 -36 -6 -10 -15 -18 -21 -18 -27 0 -217 -86 -228
-104 -8 -12 -26 -51 -41 -89 -30 -76 -29 -112 9 -187 43 -85 123 -140 202
-140 21 0 79 11 129 25 57 15 105 22 126 19 27 -5 41 -1 64 18 16 14 49 36 73
49 42 23 44 23 55 5 114 -190 149 -235 265 -344 93 -88 131 -132 168 -194 35
-59 90 -125 198 -237 176 -183 185 -193 233 -308 55 -128 81 -175 102 -180 17
-4 18 -13 13 -71 l-5 -67 57 -85 c75 -112 91 -129 142 -142 29 -7 43 -16 43
-27 0 -9 6 -23 13 -30 10 -10 7 -16 -13 -31 -14 -11 -36 -20 -48 -20 -13 0
-35 -8 -48 -19 -18 -14 -34 -17 -67 -14 -39 5 -48 1 -80 -27 -24 -21 -37 -41
-37 -57 0 -24 -34 -62 -56 -63 -15 0 -89 -81 -108 -118 -47 -92 24 -224 157
-290 84 -42 145 -26 234 61 41 40 55 49 65 39 19 -19 25 -16 84 39 57 55 67
84 37 114 -16 16 -15 20 12 69 38 69 43 73 58 52 10 -14 30 -19 89 -21 73 -3
132 -22 140 -45 2 -6 10 -12 18 -13 8 -2 45 -25 83 -52 79 -59 122 -76 155
-64 38 14 126 10 220 -10 131 -28 353 -55 394 -47 92 17 167 101 266 299 39
78 92 169 117 202 34 45 45 68 45 96 0 40 -30 75 -74 87 -19 5 -36 23 -53 54
l-26 47 18 47 c10 26 25 53 34 61 37 34 187 124 240 143 68 26 131 62 175 101
19 16 70 41 116 57 91 30 117 54 123 110 5 43 45 84 132 135 78 45 203 156
435 382 131 128 220 205 276 238 7 4 -9 -39 -34 -95 -52 -117 -64 -187 -38
-236 28 -53 56 -65 134 -57 118 12 161 39 198 123 13 28 26 52 29 52 4 0 4 -4
1 -8 -3 -5 -7 -73 -10 -153 -9 -221 -23 -269 -173 -566 l-127 -252 16 -33 c9
-18 59 -85 112 -148 54 -63 113 -146 133 -185 19 -38 55 -93 78 -121 68 -79
80 -136 76 -373 -1 -141 2 -223 14 -301 17 -108 16 -151 -5 -290 -9 -55 -9
-104 -1 -185 20 -202 21 -269 9 -455 -6 -102 -11 -203 -11 -224 1 -47 27 -85
76 -109 43 -22 52 -43 38 -94 -14 -48 -16 -51 -75 -93 -61 -44 -90 -70 -103
-95 -11 -18 -14 -17 -65 17 -29 20 -105 85 -169 145 -128 122 -195 171 -315
231 -166 83 -311 125 -764 217 -476 97 -708 164 -895 258 -245 122 -430 312
-491 502 -30 92 -36 230 -15 308 16 55 4 81 -33 71 -19 -4 -26 4 -50 55 -26
52 -33 60 -64 66 -38 7 -62 -10 -62 -44 -2 -95 -23 -222 -45 -267 -24 -48 -28
-52 -85 -67 -76 -21 -247 -22 -361 -2 -184 32 -348 109 -466 219 -176 164
-261 374 -251 615 4 94 9 116 44 200 21 51 43 95 49 96 5 2 40 12 78 24 39 12
94 21 132 21 36 0 65 2 65 4 0 1 -5 18 -11 35 -9 26 -16 32 -33 27 -32 -9
-140 14 -127 27 7 7 28 6 67 -2 39 -9 59 -10 67 -2 12 12 -29 31 -69 31 -17 0
-27 8 -34 25 -6 15 -17 25 -29 25 -10 0 -66 -42 -122 -94 -220 -199 -274 -245
-281 -238 -5 5 -13 33 -18 64 -8 43 -7 72 4 126 19 92 50 150 141 266 72 93
88 127 64 142 -6 3 -30 37 -54 73 -65 101 -61 99 -163 65 -76 -25 -102 -29
-202 -29 -93 0 -127 4 -180 23 -60 20 -163 86 -164 105 -1 4 58 27 129 51 160
54 337 131 361 157 16 18 16 21 1 52 -9 17 -18 40 -21 50 -9 29 -26 19 -27
-15 0 -28 -2 -30 -9 -13 -5 11 -9 35 -9 53 -1 23 -6 32 -17 32 -14 0 -16 -9
-11 -62 3 -40 3 -52 -3 -33 -4 17 -8 46 -9 66 -2 71 -46 74 -81 6 -43 -83 -81
-135 -119 -161 -59 -41 -132 -30 -273 41 -273 137 -450 335 -520 580 -30 107
-30 294 0 404 36 134 94 234 184 320 l80 76 42 -8 c22 -5 54 -8 70 -9 28 0 28
1 23 40 -3 22 -1 56 3 77 5 21 7 39 6 41 -2 2 -30 -6 -62 -17 -33 -11 -113
-35 -179 -55 -66 -19 -128 -38 -136 -41 -25 -9 -29 17 -13 84 19 82 56 154
111 212 55 59 96 85 177 115 82 29 98 53 104 152 l4 79 -33 25 c-19 14 -78 42
-131 61 -108 40 -174 80 -213 132 -32 41 -65 125 -65 164 l0 28 95 -18 c52
-10 159 -25 237 -33 169 -17 195 -11 190 42 -1 20 9 55 28 92 16 33 30 63 30
68 0 5 -12 14 -26 21 -27 12 -68 -4 -186 -73 -26 -15 -69 -31 -97 -35 -48 -8
-53 -6 -102 29 -112 80 -256 323 -304 514 -47 185 -31 361 49 531 54 113 121
202 205 272 83 69 156 106 260 133 l81 21 59 -40 c32 -22 83 -68 114 -102 39
-44 60 -60 71 -56 22 9 31 36 19 56 -7 11 -7 21 1 33 15 25 -1 34 -23 14 -12
-11 -21 -14 -25 -7 -4 6 12 31 34 55 40 43 47 72 15 59 -10 -3 -15 1 -15 15 0
25 -9 28 -143 52 -208 38 -287 54 -287 61 0 23 93 89 206 145 114 57 145 68
240 84 60 11 126 20 146 20 24 0 45 8 61 23 26 23 87 172 87 211 0 14 -44 71
-120 156 -172 193 -199 237 -200 323 0 48 29 177 40 177 4 0 49 -31 100 -68
126 -94 307 -202 340 -202 14 0 31 5 38 12 9 9 12 7 12 -11 0 -14 5 -21 13
-19 8 3 13 33 15 91 2 77 5 87 21 87 16 0 18 -7 13 -69 -6 -83 1 -109 23 -91
18 15 21 162 5 205 l-10 27 -148 -7 c-189 -9 -215 -1 -255 81 -57 117 -80 335
-54 509 32 205 95 335 226 466 101 100 189 156 318 199 147 49 263 50 425 4
28 -8 99 -158 105 -223 3 -31 10 -64 15 -73 10 -21 41 -24 56 -5 13 16 32 108
32 154 0 28 3 33 13 24 10 -8 12 -23 6 -58 -12 -75 -11 -115 4 -111 6 3 16 31
20 64 10 68 11 71 31 55 10 -8 13 -23 10 -41 -8 -38 13 -49 26 -13 6 15 15 36
20 46 6 10 7 24 3 32 -11 18 -96 91 -198 169 -113 86 -240 188 -243 196 -5 12
135 71 197 82 118 22 273 -27 393 -125 62 -51 95 -67 136 -67 38 1 101 31 146
70 44 39 43 27 3 235 -46 236 -45 330 5 433 11 23 36 53 55 66 l35 24 105
-209 c59 -117 121 -227 142 -251 38 -42 38 -42 64 -25 23 15 29 15 61 2 19 -8
40 -15 46 -15 19 0 10 31 -12 39 -66 25 -100 42 -96 47 3 3 32 -6 64 -19 33
-13 64 -22 71 -20 27 9 -3 33 -83 63 -65 26 -89 40 -100 61 -14 27 -13 27 90
-22 57 -27 110 -47 119 -43 18 7 30 32 21 46 -4 6 -59 35 -123 65 -68 32 -131
69 -153 91 -36 34 -38 39 -38 100 0 77 41 207 102 325 166 319 422 487 742
487 198 0 346 -52 474 -166 l62 -56 0 -84 c0 -65 -6 -98 -25 -150 -35 -94 -22
-124 43 -97 17 7 32 19 32 27 0 26 52 136 62 130 5 -3 -3 -26 -17 -51 -14 -25
-25 -52 -25 -59 0 -27 20 -13 41 29 12 23 33 51 47 63 l25 20 -56 125 c-72
163 -157 366 -157 379 0 26 167 66 234 56 77 -12 179 -71 260 -149 84 -83 123
-144 146 -231 18 -71 28 -76 115 -51 82 24 95 49 95 187 0 132 12 192 57 286
54 115 167 214 279 246 20 6 20 3 16 -78 -5 -88 11 -332 29 -446 11 -67 31
-102 58 -98 9 1 40 -4 69 -11 53 -13 108 -8 97 9 -3 5 -33 14 -66 21 -52 10
-82 30 -68 44 2 2 39 -6 81 -17 138 -37 142 -10 18 127 -116 127 -131 167 -95
249 61 138 292 337 480 414 125 50 190 62 325 58 73 -2 150 -10 185 -20z
m-217 -147 c34 -11 62 -22 62 -22 0 -1 -51 -2 -113 -2 -102 0 -116 -2 -152
-25 l-40 -24 16 24 c16 25 107 69 145 70 11 0 48 -9 82 -21z m82 -87 c21 -16
26 -30 31 -83 4 -44 18 -87 43 -139 20 -41 37 -86 37 -100 1 -14 3 -18 5 -10
5 17 53 42 65 34 30 -18 -25 -153 -62 -154 -3 0 -4 12 -1 28 2 15 3 25 0 22
-2 -3 -26 -34 -53 -69 -38 -51 -43 -60 -22 -46 l27 17 -14 -38 c-7 -22 -17
-57 -21 -79 -7 -37 -8 -38 -18 -17 -12 26 -45 29 -89 6 -26 -13 -37 -14 -74
-4 -24 7 -55 10 -69 6 -14 -4 -25 -2 -25 3 0 5 37 11 83 13 59 2 90 9 110 22
39 26 27 30 -36 12 -125 -36 -188 -8 -203 90 -4 27 -11 58 -16 69 -8 18 -8 18
-4 -2 2 -15 -1 -23 -9 -23 -18 0 -25 24 -24 83 0 38 3 47 9 32 7 -17 9 -16 10
10 1 17 1 75 0 130 -2 89 1 103 20 128 60 76 232 109 300 59z m-1481 -167 c64
-33 77 -132 25 -186 -54 -56 -146 -43 -178 26 -20 42 -20 68 0 111 28 59 94
80 153 49z m3065 -110 c53 -35 59 -119 11 -181 -42 -55 -123 -59 -170 -8 -44
47 -37 120 16 174 25 24 39 30 75 30 25 0 55 -7 68 -15z m-924 -108 c0 -7 -15
-21 -32 -31 l-33 -19 29 32 c33 35 36 36 36 18z m-1519 -74 c13 -16 12 -17 -3
-4 -10 7 -18 15 -18 17 0 8 8 3 21 -13z m44 -73 c42 -19 38 -24 -13 -14 -17 3
-33 12 -36 20 -7 18 0 17 49 -6z m535 -94 c6 -18 37 -75 70 -126 64 -100 79
-142 59 -166 -11 -13 -16 -11 -43 15 -44 41 -121 88 -178 106 -62 21 -110 68
-106 104 3 22 16 31 88 63 47 21 88 38 92 38 3 0 11 -15 18 -34z m860 -52 c79
-36 156 -68 172 -71 16 -3 31 -10 34 -14 3 -5 -12 -35 -32 -67 -43 -66 -41
-66 -149 -17 l-50 23 28 11 c38 15 34 19 -15 14 -32 -4 -65 3 -128 27 -63 23
-95 30 -122 26 -44 -7 -90 11 -86 33 3 12 19 17 73 18 39 2 86 6 105 10 27 6
14 9 -62 13 -77 4 -96 8 -89 18 12 20 80 41 132 42 37 0 77 -14 189 -66z
m-472 42 c15 -7 46 -17 69 -21 44 -7 61 -19 43 -30 -15 -9 -12 -51 5 -65 8 -7
15 -16 15 -21 0 -10 -139 -81 -238 -123 -130 -55 -165 -67 -155 -54 6 7 34 42
62 78 29 36 66 90 83 120 48 83 78 130 84 130 3 0 17 -6 32 -14z m-2953 -56
c3 -5 -10 -6 -28 -3 -26 4 -53 -5 -128 -42 -52 -26 -102 -57 -111 -68 -17 -22
-25 -13 -10 11 9 13 100 71 170 108 35 19 48 21 72 12 17 -5 32 -14 35 -18z
m5942 -57 c23 -12 50 -39 68 -68 26 -43 30 -58 30 -124 0 -84 -18 -131 -81
-207 -35 -44 -35 -63 2 -40 24 17 34 12 34 -17 0 -24 -71 -97 -94 -97 -15 0
-15 2 0 31 21 42 2 28 -37 -26 -19 -26 -53 -56 -88 -74 -31 -18 -63 -37 -72
-43 -34 -23 -197 59 -225 114 -19 36 -8 104 34 212 17 42 26 73 21 70 -24 -15
4 73 35 111 17 20 17 20 6 -3 -6 -13 -9 -28 -6 -35 2 -7 5 -4 5 5 1 10 33 51
72 92 116 123 198 150 296 99z m-5189 -8 c-3 -3 -9 2 -12 12 -6 14 -5 15 5 6
7 -7 10 -15 7 -18z m2018 2 c22 -12 22 -12 -10 -59 l-32 -47 -23 46 c-12 25
-21 46 -19 47 2 0 12 6 23 13 25 15 35 15 61 0z m-2668 -65 c35 -40 92 -144
111 -204 7 -21 17 -38 23 -38 6 0 7 7 4 16 -6 16 19 74 33 74 21 0 47 -104 37
-145 -4 -17 -11 -23 -23 -18 -13 5 -15 2 -9 -18 4 -13 10 -50 13 -81 7 -70 4
-74 -103 -145 -99 -64 -136 -69 -212 -24 -37 21 -53 26 -61 18 -8 -8 -11 -8
-11 0 0 6 5 13 11 15 6 2 -1 23 -16 51 -28 49 -51 63 -40 25 3 -13 -8 -2 -24
24 -17 27 -31 54 -30 60 0 7 5 2 12 -12 l11 -25 4 31 c2 18 -7 57 -21 91 -16
40 -21 66 -16 80 10 28 54 57 71 47 10 -6 9 -3 -1 9 -30 37 -81 8 -81 -45 0
-49 -27 -17 -35 42 -15 108 44 176 179 208 98 23 128 17 174 -36z m658 -49
c-30 -57 -32 -50 -9 24 12 39 19 50 25 39 6 -10 0 -32 -16 -63z m2917 -162
c120 -49 507 -284 507 -307 0 -3 -22 11 -49 30 -27 20 -75 45 -106 56 -31 11
-86 42 -123 70 -37 28 -128 82 -202 120 -74 38 -132 69 -128 70 3 0 49 -17
101 -39z m-2745 -48 c6 -27 13 -72 17 -100 5 -51 5 -53 -18 -53 -21 0 -24 6
-35 83 -16 110 -15 117 7 117 15 0 21 -11 29 -47z m3996 21 c32 -11 64 -15 97
-11 37 5 49 3 49 -7 0 -25 -25 -34 -90 -30 -78 3 -123 -6 -75 -16 30 -6 30 -7
-15 -19 -39 -11 -52 -11 -100 4 -64 20 -146 60 -155 76 -5 7 6 9 36 5 24 -4
67 -2 94 3 76 13 107 12 159 -5z m-4060 -55 c10 -52 7 -63 -23 -80 -16 -10
-42 -42 -61 -78 -24 -45 -45 -69 -81 -92 -27 -17 -58 -46 -70 -65 -14 -23 -28
-34 -45 -34 -35 0 -30 26 10 64 19 17 48 58 65 90 l30 59 -27 -25 c-16 -14
-41 -25 -60 -27 -19 -1 -47 -8 -64 -17 -16 -8 -32 -14 -34 -12 -7 8 168 161
233 204 80 55 118 58 127 13z m1781 -357 c-4 -139 -9 -251 -11 -249 -2 2 -6
141 -8 308 -4 285 -4 301 11 249 12 -46 14 -96 8 -308z m-700 272 c-45 -36
-83 -44 -210 -44 -86 0 -136 -4 -160 -14 -35 -15 -62 -19 -105 -17 -19 1 -11
8 35 27 52 23 81 27 220 34 88 5 174 13 190 18 44 15 53 13 30 -4z m191 -38
c33 -33 34 -36 34 -114 0 -44 -7 -116 -15 -161 -12 -62 -13 -98 -6 -156 12
-99 1 -177 -49 -335 -51 -164 -70 -240 -70 -281 -1 -64 -30 -174 -68 -254 -46
-96 -43 -110 31 -143 115 -51 126 -78 127 -317 0 -93 9 -231 20 -330 24 -206
25 -379 1 -540 l-17 -120 -23 45 c-13 25 -45 77 -71 115 -26 39 -62 99 -80
135 -18 36 -54 94 -80 130 -74 100 -250 399 -250 424 0 4 11 11 25 16 14 5 30
21 37 34 9 22 6 33 -23 82 -19 31 -77 104 -129 163 -126 140 -256 340 -290
444 -11 34 -20 42 -85 72 -102 46 -104 51 -112 277 -5 155 -3 192 11 241 14
48 22 60 49 72 124 54 176 80 217 109 68 49 91 59 220 101 212 69 290 114 426
246 95 92 117 98 170 45z m-1212 -26 c22 -3 42 -11 44 -19 4 -11 -5 -13 -49
-8 -30 4 -66 7 -81 7 -35 0 -35 14 -1 46 l26 24 11 -22 c8 -16 23 -24 50 -28z
m4412 -21 l51 -10 -33 -82 c-23 -58 -36 -110 -42 -177 -6 -57 -15 -96 -22 -98
-7 -3 -35 -23 -64 -46 l-51 -42 0 150 c0 83 -3 168 -7 188 -7 37 -6 38 35 49
60 16 61 17 31 56 l-27 36 39 -7 c21 -4 62 -11 90 -17z m-1905 -33 c35 -13
145 -40 243 -61 161 -33 202 -37 395 -43 l216 -7 150 -72 c83 -40 173 -77 200
-83 72 -17 105 -31 105 -45 0 -18 -68 -119 -137 -205 -112 -139 -328 -364
-366 -382 -37 -18 -59 -49 -71 -103 -10 -43 -39 -83 -185 -259 -75 -90 -131
-166 -131 -178 0 -11 16 -35 35 -54 38 -36 42 -50 21 -79 -7 -11 -77 -131
-154 -266 -77 -136 -159 -276 -181 -313 -23 -37 -69 -122 -102 -189 -51 -101
-131 -228 -172 -272 -12 -13 -2 487 12 575 6 36 15 130 21 210 6 80 21 199 33
265 l23 120 45 5 c42 5 44 7 53 46 7 33 3 55 -23 130 -21 58 -45 172 -71 329
-22 132 -53 318 -70 413 -34 195 -38 313 -14 405 14 55 49 137 58 137 2 0 32
-11 67 -24z m2034 -6 c32 -33 32 -32 -13 -50 -29 -11 -34 -11 -46 6 -12 16
-12 23 0 46 18 35 24 35 59 -2z m-5124 -110 c-6 -46 -11 -102 -11 -124 l-1
-41 -30 35 c-16 19 -49 59 -72 89 l-41 53 29 22 c17 11 46 35 65 53 34 31 36
31 54 14 17 -17 17 -26 7 -101z m-456 61 c-3 -11 -22 -43 -41 -70 -19 -28 -34
-53 -34 -57 0 -3 27 19 61 50 63 59 99 69 48 14 -16 -18 -29 -37 -29 -43 0 -6
3 -6 8 1 11 16 55 44 70 44 17 0 -119 -136 -172 -172 -46 -31 -56 -25 -56 35
0 45 18 83 55 115 14 13 33 40 42 60 8 20 20 43 26 50 14 18 31 -1 22 -27z
m725 33 c0 -3 -18 -28 -41 -55 -41 -50 -46 -74 -18 -92 26 -16 66 0 88 36 11
19 32 39 46 45 23 11 21 4 -31 -101 -33 -64 -86 -200 -125 -317 l-69 -205 7
180 c4 99 7 246 5 326 l-2 146 52 21 c53 21 88 27 88 16z m4800 -80 c0 -5 -13
-20 -30 -32 -33 -25 -38 -17 -19 36 9 27 13 30 30 19 10 -6 19 -17 19 -23z
m216 -4 l48 -21 -30 -19 c-61 -41 -111 -16 -88 44 8 20 13 20 70 -4z m-5536
-99 c0 -33 3 -67 7 -77 11 -30 -14 -7 -58 52 -48 65 -46 84 11 84 l40 0 0 -59z
m5666 6 c33 -24 68 -54 79 -67 l20 -23 -20 7 c-90 35 -94 34 -75 -24 7 -22 11
-42 9 -44 -9 -7 -203 -58 -291 -76 -51 -11 -138 -22 -193 -26 l-100 -6 40 36
c22 19 96 65 163 101 68 37 161 88 205 115 45 27 87 49 93 50 7 0 38 -20 70
-43z m-195 23 c11 0 18 -4 14 -9 -5 -9 -92 -61 -101 -61 -3 0 -2 12 2 28 7 32
33 55 52 47 8 -3 23 -5 33 -5z m-5291 -75 c14 -19 14 -19 -2 -6 -10 7 -18 18
-18 24 0 6 1 8 3 6 1 -2 9 -13 17 -24z m-299 -62 c34 -43 117 -134 184 -203
104 -107 152 -165 189 -228 4 -7 -30 14 -76 47 -45 32 -128 84 -184 114 -55
30 -131 76 -169 101 -37 26 -81 50 -96 53 -26 5 -29 10 -29 41 0 31 9 45 57
94 32 32 58 58 60 58 1 0 30 -35 64 -77z m183 21 c11 -4 16 -19 16 -42 0 -32
-2 -34 -14 -22 -15 15 -33 70 -23 70 3 0 12 -3 21 -6z m-1303 -17 c76 -59 35
-187 -61 -187 -97 0 -133 110 -59 179 26 24 94 28 120 8z m7569 -2 c-7 -8 -17
-15 -23 -15 -6 0 -2 7 9 15 25 19 30 19 14 0z m-395 -27 c47 -25 91 -77 124
-148 17 -36 31 -70 31 -76 0 -6 -18 -19 -40 -29 -36 -16 -42 -17 -58 -3 -9 8
-29 18 -45 22 -30 7 -47 23 -80 76 -15 23 -42 44 -80 62 -32 16 -57 34 -57 43
0 25 51 17 99 -15 24 -17 54 -30 67 -30 l23 0 -26 45 c-14 25 -33 50 -44 56
-10 5 -19 13 -19 18 0 12 69 -2 105 -21z m358 -34 c-4 -10 -13 -14 -27 -10
-11 3 -30 6 -41 6 -35 1 6 20 42 20 25 0 31 -3 26 -16z m-6083 -44 c-11 -22
-24 -40 -28 -40 -5 0 -19 12 -33 26 l-24 27 24 -13 c21 -11 27 -9 50 14 14 14
27 26 28 26 2 0 -6 -18 -17 -40z m6690 -115 c13 -14 22 -37 23 -59 3 -93 -136
-128 -179 -44 -48 93 84 179 156 103z m-6632 -31 c2 -11 -4 -26 -12 -33 -12
-10 -17 -8 -26 9 -6 12 -9 28 -6 37 8 21 40 12 44 -13z m4747 -26 c-4 -13 -24
-52 -45 -88 -22 -36 -55 -103 -75 -149 -41 -96 -116 -227 -158 -274 -35 -40
98 230 203 411 70 120 88 144 75 100z m-4687 -122 c5 -25 -7 -66 -18 -66 -18
0 -31 49 -19 71 12 23 32 20 37 -5z m5621 -234 c7 -13 17 -67 22 -120 16 -167
27 -254 43 -335 23 -115 18 -126 -10 -22 -13 50 -35 167 -48 261 -17 122 -34
200 -60 276 -48 139 -46 180 3 58 20 -52 43 -105 50 -118z m-3404 24 c-20 -94
-83 -269 -121 -333 -50 -85 -159 -112 -319 -78 -39 8 -103 15 -142 15 -66 0
-73 2 -73 20 0 30 25 36 170 38 74 1 170 6 213 11 94 11 118 29 164 124 32 66
102 293 104 336 1 21 3 18 11 -13 8 -30 7 -58 -7 -120z m-4255 36 c0 -21 -2
-24 -10 -12 -13 20 -13 53 0 45 6 -3 10 -18 10 -33z m56 -17 c4 -8 3 -36 -1
-62 -9 -58 -25 -39 -25 30 0 45 14 63 26 32z m1209 -60 c-38 -18 -121 -50
-183 -71 -62 -20 -129 -47 -147 -60 -58 -39 -71 -44 -152 -55 -43 -6 -104 -22
-136 -35 -81 -34 -93 -25 -21 16 45 25 76 35 131 40 57 6 93 17 165 53 51 25
122 52 158 61 36 9 83 29 105 43 41 27 82 41 125 41 17 0 4 -10 -45 -33z m230
16 c107 -48 235 -279 235 -423 0 -34 12 -76 39 -141 22 -50 44 -119 50 -152 7
-36 35 -108 70 -180 53 -106 61 -132 76 -230 20 -136 32 -185 48 -187 7 0 18
-2 25 -2 17 -1 197 -456 287 -721 59 -175 95 -321 95 -382 0 -22 -14 -11 -111
81 -103 98 -216 189 -464 375 -55 41 -120 96 -145 121 -73 75 -170 209 -170
236 0 45 -27 89 -85 139 -32 27 -85 83 -117 125 -77 98 -97 110 -179 110 -75
0 -117 21 -276 140 -132 100 -153 132 -194 295 l-22 89 24 15 c13 9 69 59 124
111 55 52 154 141 220 196 140 118 195 175 226 236 41 81 78 125 121 147 52
26 71 26 123 2z m5958 -33 c14 -18 39 -62 57 -98 38 -76 127 -210 139 -210 5
0 18 -53 31 -117 12 -65 27 -134 32 -153 12 -42 45 -80 68 -80 19 0 120 -68
169 -114 41 -39 185 -206 180 -210 -21 -16 -157 -90 -299 -163 -97 -50 -217
-116 -268 -147 -50 -31 -116 -68 -147 -82 -53 -25 -410 -104 -466 -104 -15 0
-37 -8 -50 -18 l-22 -19 15 -94 c9 -54 12 -99 7 -105 -25 -30 -182 -131 -314
-202 -82 -43 -226 -130 -320 -191 -93 -62 -213 -137 -267 -167 -91 -52 -258
-129 -258 -119 0 3 49 83 108 177 184 292 310 504 378 636 77 149 76 146 211
285 l105 108 33 -15 c18 -9 48 -16 67 -16 33 0 33 1 120 178 126 254 283 547
325 606 20 28 58 95 85 150 49 97 151 259 189 297 29 29 64 24 92 -13z m-3074
-126 c34 -109 54 -137 109 -151 268 -69 483 -99 516 -72 7 6 19 33 26 59 l13
47 13 -49 c12 -47 17 -90 15 -128 -1 -14 -6 -15 -33 -7 -18 5 -73 9 -123 9
-49 0 -119 7 -155 16 -36 8 -104 21 -152 28 -47 8 -111 25 -141 39 -53 24 -55
27 -75 88 -11 35 -26 91 -32 124 -6 33 -14 68 -16 78 -3 9 -3 17 0 17 3 0 19
-44 35 -98z m-4995 50 c3 -5 -17 -9 -44 -10 -74 -1 -121 -31 -176 -109 -65
-93 -65 -93 -47 -32 8 30 23 62 32 73 44 50 216 108 235 78z m8599 -90 c22
-40 60 -86 119 -140 102 -95 134 -116 248 -166 47 -21 117 -56 155 -79 39 -22
78 -40 89 -39 21 1 66 -25 66 -39 0 -5 -8 -5 -17 1 -10 5 -43 18 -73 29 -94
32 -262 107 -325 144 -33 19 -91 63 -130 97 -38 34 -79 66 -91 71 -20 10 -67
105 -80 164 -9 40 0 30 39 -43z m-7758 -85 c17 -34 31 -64 32 -67 2 -3 -17
-18 -42 -34 -32 -20 -53 -26 -70 -22 -22 6 -31 -3 -79 -68 -53 -71 -104 -121
-114 -112 -2 3 3 25 11 50 9 26 12 46 7 46 -5 0 -12 -9 -15 -21 -7 -21 -50
-47 -61 -36 -16 16 14 67 84 141 43 44 88 95 102 111 34 41 79 75 99 74 10 0
28 -25 46 -62z m8520 34 c-3 -6 -11 -8 -17 -5 -6 4 -5 9 3 15 16 10 23 4 14
-10z m-37 -37 c6 -12 7 -26 2 -34 -7 -11 -11 -8 -19 14 -6 15 -8 32 -5 38 7
11 8 10 22 -18z m-2385 -174 c-10 -61 -17 -158 -17 -269 l-1 -173 106 -102
c99 -95 203 -166 243 -166 17 0 20 -9 10 -34 -14 -37 -84 -8 -190 80 -38 31
-92 71 -119 89 -28 17 -64 47 -79 66 -29 34 -29 34 -23 139 8 138 69 481 83
467 2 -1 -4 -45 -13 -97z m-729 55 c-28 -68 -20 -90 47 -140 85 -62 104 -61
287 19 274 120 311 129 159 37 -225 -136 -345 -173 -423 -133 -41 22 -154 118
-154 132 0 9 88 120 95 120 2 0 -3 -16 -11 -35z m-5425 -118 c22 -70 32 -127
41 -237 24 -305 62 -474 131 -572 46 -67 40 -78 -9 -14 -70 94 -196 376 -228
512 -9 38 -32 111 -50 163 -34 93 -34 95 -15 115 10 12 26 37 36 56 20 39 44
70 56 70 4 0 21 -42 38 -93z m8609 -60 c92 -131 158 -252 142 -262 -5 -3 -25
1 -44 9 -25 10 -34 19 -30 30 7 18 -25 106 -38 106 -6 0 -7 -8 -3 -17 4 -10 9
-35 12 -57 l6 -38 -32 17 c-56 29 -111 93 -111 131 0 25 -7 38 -30 54 -38 27
-37 36 1 83 l30 37 37 -30 c20 -17 47 -45 60 -63z m662 63 c54 -28 150 -172
150 -225 0 -34 -8 -46 -77 -113 -72 -71 -113 -118 -113 -133 0 -3 12 -4 28 -1
l27 5 -25 -27 c-34 -37 -86 -68 -107 -64 -15 3 -13 8 12 32 l30 29 -30 -9
c-16 -5 -78 -9 -137 -8 -112 0 -134 -9 -49 -20 l50 -7 -43 -39 c-24 -22 -49
-40 -57 -40 -8 0 -39 15 -70 34 -31 19 -65 37 -77 40 -11 4 -25 20 -32 36 -20
48 3 122 58 184 25 28 42 42 38 31 -17 -41 -19 -58 -8 -51 7 4 12 14 12 22 0
25 40 97 73 132 33 35 25 45 -11 12 -11 -11 -23 -16 -26 -12 -8 13 22 51 54
67 27 14 29 14 23 -2 -8 -20 57 28 92 67 35 40 107 80 142 80 19 0 51 -9 73
-20z m-6281 -105 c67 -80 111 -150 111 -177 0 -29 -52 -39 -141 -26 -109 15
-170 3 -321 -68 -84 -40 -138 -59 -173 -62 -47 -4 -54 -1 -82 27 -31 30 -65
92 -78 141 -6 22 -4 22 13 -6 35 -54 66 -60 194 -34 232 45 351 72 411 93 55
19 62 25 65 51 3 19 -6 42 -26 70 -65 92 -54 89 27 -9z m-742 -277 l5 -116
-63 -34 c-35 -18 -104 -51 -153 -73 -79 -35 -95 -47 -134 -97 -24 -32 -47 -58
-52 -58 -4 0 -11 19 -15 42 -7 42 -6 43 44 90 76 70 135 108 231 149 73 31 88
41 104 73 16 32 17 45 7 99 -5 34 -12 85 -15 112 l-5 50 21 -60 c14 -42 22
-95 25 -177z m6387 66 l98 -39 -55 -50 c-31 -27 -95 -75 -144 -105 -110 -68
-277 -222 -344 -317 -28 -39 -57 -74 -63 -76 -13 -5 63 192 109 283 33 66 160
239 181 247 9 3 33 0 54 -7 57 -19 68 -4 28 39 -69 74 -70 75 -13 69 28 -3 94
-23 149 -44z m-9019 -259 c47 -48 77 -68 137 -94 84 -34 411 -202 405 -207 -2
-2 -27 6 -56 17 -30 11 -152 49 -273 84 -230 67 -304 100 -377 166 l-45 40 12
58 c7 31 12 67 12 78 0 12 5 34 10 48 10 26 11 25 62 -51 29 -43 79 -106 113
-139z m9110 110 l0 -55 -47 0 c-53 0 -52 0 -37 32 8 17 73 78 83 78 1 0 1 -25
1 -55z m-4566 -140 c11 -88 27 -250 36 -359 9 -110 25 -259 36 -332 10 -73 19
-170 18 -216 -1 -46 3 -101 9 -123 6 -22 14 -67 18 -101 l6 -60 -36 -28 c-20
-15 -36 -36 -36 -46 0 -10 20 -38 45 -61 25 -23 45 -48 45 -55 0 -20 -55 -61
-107 -79 -26 -10 -69 -26 -95 -36 -72 -29 -79 -26 -117 45 -39 74 -40 81 -13
206 30 141 40 220 62 485 33 410 93 935 106 923 1 -2 12 -75 23 -163z m4472
36 c-9 -16 -88 -37 -99 -26 -2 2 13 21 33 43 36 41 36 41 56 21 15 -15 17 -24
10 -38z m-8745 35 c8 -21 -14 -56 -31 -50 -17 7 -29 39 -20 54 9 15 45 12 51
-4z m8973 -85 c53 -29 53 -29 30 -42 -13 -7 -47 -18 -75 -25 -45 -10 -54 -9
-74 6 l-23 17 29 51 c25 45 30 49 44 37 9 -8 40 -28 69 -44z m-8872 -55 c-8
-20 -36 -21 -43 -1 -4 8 0 22 7 31 11 13 14 13 27 0 8 -8 12 -22 9 -30z m8715
9 c0 -8 1 -20 2 -26 1 -7 -20 -17 -46 -24 l-47 -12 27 38 c27 39 61 51 64 24z
m-9588 -14 c9 -14 -6 -101 -15 -95 -12 7 -11 104 0 104 6 0 12 -4 15 -9z
m9883 -108 c0 -85 -4 -126 -15 -148 l-15 -29 -16 34 c-20 42 -56 63 -84 48
-13 -7 -17 -16 -13 -31 13 -45 19 -117 9 -117 -5 0 -46 11 -90 24 -117 35
-405 75 -558 77 l-70 1 39 18 c23 11 77 21 130 25 129 10 451 63 506 84 59 22
135 75 156 107 9 13 17 24 19 24 1 0 2 -53 2 -117z m-9987 97 c0 -13 -20 -13
-40 0 -12 8 -9 10 13 10 15 0 27 -4 27 -10z m50 -21 c0 -17 -4 -28 -10 -24 -5
3 -10 17 -10 31 0 13 5 24 10 24 6 0 10 -14 10 -31z m3664 -187 c143 -122 242
-253 374 -497 38 -72 99 -174 136 -229 36 -54 95 -160 132 -235 126 -259 116
-232 102 -284 -12 -45 -11 -48 15 -75 15 -15 27 -34 27 -41 0 -8 -16 -35 -37
-62 -34 -45 -38 -47 -57 -33 -41 28 -116 4 -116 -39 0 -28 -59 -104 -93 -120
-40 -19 -98 -12 -197 24 l-56 20 -31 97 c-65 206 -115 336 -144 379 -62 90
-120 245 -139 373 -6 40 -24 124 -40 185 -40 150 -67 300 -90 490 -11 88 -23
178 -26 199 l-7 39 79 -58 c43 -32 119 -92 168 -133z m5647 113 c0 -5 -9 -11
-21 -13 -20 -3 -27 8 -13 22 10 9 34 3 34 -9z m-2876 -124 c-30 -67 -84 -197
-121 -289 -109 -279 -148 -345 -357 -621 -35 -46 -105 -149 -156 -229 l-91
-146 1 140 c0 190 7 222 56 281 22 26 57 74 77 106 21 32 77 111 125 175 48
64 104 147 125 183 20 37 68 102 107 145 39 44 100 124 137 179 78 119 143
207 149 202 2 -2 -21 -59 -52 -126z m3562 72 c14 -22 18 -46 17 -123 -2 -98 0
-97 11 3 9 82 25 60 26 -36 l1 -82 13 50 13 50 1 -88 c1 -66 -4 -101 -20 -145
-11 -31 -30 -83 -41 -114 -12 -32 -25 -58 -30 -58 -5 0 -34 12 -63 27 -54 26
-55 27 -49 62 4 25 -1 53 -16 91 -17 41 -24 82 -27 159 -2 58 -9 113 -14 123
-8 15 -6 18 10 18 26 0 48 -34 57 -87 7 -44 28 -83 39 -72 3 4 1 18 -6 32 -10
22 -7 33 21 82 25 43 31 65 28 95 -4 47 5 51 29 13z m-833 -12 c6 -10 -22 -37
-29 -29 -8 7 5 38 15 38 5 0 11 -4 14 -9z m-1075 -106 c-13 -12 -192 -74 -244
-84 -33 -7 -70 -14 -82 -16 -40 -9 -37 -40 11 -139 67 -138 283 -420 331 -432
15 -4 52 8 107 35 92 43 188 83 188 77 0 -2 -33 -23 -72 -47 -40 -23 -115 -71
-167 -105 -52 -35 -98 -61 -103 -58 -5 3 -48 65 -95 137 -47 73 -107 159 -133
192 -109 140 -139 206 -140 316 l0 46 78 17 c70 15 294 61 316 65 5 0 7 -1 5
-4z m2189 -81 c24 -7 31 -24 9 -24 -15 0 -57 29 -42 30 6 0 20 -3 33 -6z
m-8021 -136 c-20 -46 -302 -346 -332 -354 -19 -5 -49 8 -122 49 -54 31 -124
68 -156 83 -40 18 -75 46 -112 87 -30 34 -52 63 -50 65 2 3 25 -14 50 -36 51
-45 109 -76 240 -127 136 -53 182 -47 261 37 58 60 204 247 218 277 11 25 11
25 14 -11 2 -20 -3 -51 -11 -70z m-1499 10 c54 -31 96 -68 165 -142 118 -129
151 -175 243 -349 87 -163 133 -229 216 -309 70 -67 87 -74 128 -53 30 16 33
15 83 -16 28 -17 94 -66 147 -108 52 -43 124 -97 160 -121 36 -24 85 -60 110
-80 25 -21 99 -73 165 -116 66 -43 146 -102 178 -133 61 -58 172 -189 166
-195 -2 -2 -38 3 -79 11 -279 53 -346 67 -434 89 -54 14 -170 40 -257 59 -87
18 -169 41 -183 51 -30 19 -56 96 -59 172 -2 44 -4 47 -27 45 -14 -1 -79 -2
-146 -3 -67 0 -157 -7 -202 -15 -75 -13 -86 -13 -149 6 -87 24 -134 24 -235
-2 -48 -12 -98 -19 -122 -17 -57 7 -194 72 -236 113 -19 19 -47 38 -62 44 -16
6 -28 18 -28 28 0 46 56 219 104 323 90 193 116 257 116 287 0 15 5 45 10 65
8 28 7 59 -4 123 -8 47 -12 93 -9 103 9 24 60 98 102 150 40 48 36 48 139 -10z
m-1148 16 c44 -18 70 -55 70 -100 0 -35 -59 -94 -94 -94 -60 0 -116 55 -116
113 0 39 51 93 92 96 4 1 26 -6 48 -15z m10300 -229 c27 -14 62 -25 78 -25 28
0 92 -53 80 -66 -7 -6 -163 58 -215 89 -36 21 -39 27 -21 45 9 9 14 9 21 -3 4
-8 30 -26 57 -40z m-9509 -2 c-11 -21 -31 -63 -45 -93 -14 -30 -70 -107 -124
-170 -107 -124 -172 -189 -154 -155 5 11 20 29 33 40 42 38 139 167 190 253
48 81 105 162 115 162 2 0 -5 -17 -15 -37z m9213 -19 c9 -3 16 -17 16 -29 0
-13 5 -36 11 -52 6 -15 12 -71 14 -123 2 -79 -3 -120 -32 -245 -31 -132 -35
-161 -30 -242 4 -61 1 -112 -8 -150 -21 -87 -18 -142 15 -270 39 -148 38 -173
-1 -218 -18 -20 -41 -41 -53 -47 -29 -16 -307 -27 -394 -16 -41 5 -115 24
-166 43 -126 48 -228 72 -347 85 -126 13 -295 13 -318 1 -9 -5 -34 -48 -55
-94 l-37 -84 -127 -23 c-218 -39 -594 -52 -769 -27 l-83 12 228 141 c125 78
267 162 316 188 49 25 153 91 232 146 166 117 268 167 416 205 l106 28 36 -22
c20 -13 44 -33 55 -47 10 -13 23 -24 28 -24 27 0 164 147 326 349 263 331 292
364 355 414 105 82 211 122 266 101z m-7939 -170 c56 -113 57 -138 8 -198 -21
-24 -63 -75 -94 -113 -72 -87 -106 -123 -116 -123 -5 0 -47 39 -93 87 -87 90
-86 91 11 10 31 -26 61 -47 67 -47 6 0 25 19 43 43 18 23 55 66 81 96 71 78
81 103 75 178 -3 43 -16 87 -41 140 -32 69 -33 74 -11 48 14 -16 45 -71 70
-121z m8089 35 c-14 -52 -47 -160 -75 -241 -40 -116 -52 -167 -58 -245 l-8
-98 -1 95 c-1 102 7 140 73 335 75 221 87 256 91 252 2 -2 -8 -46 -22 -98z
m913 29 c30 -25 45 -76 33 -114 -14 -43 -44 -64 -91 -64 -46 0 -85 30 -98 76
-12 44 -2 74 36 104 31 24 90 24 120 -2z m-2242 -29 c-4 -5 -49 -72 -101 -147
-55 -81 -94 -147 -94 -161 0 -50 183 -195 306 -242 86 -33 168 -96 152 -116
-15 -18 -20 -17 -76 21 -35 23 -72 37 -117 45 -36 6 -77 16 -91 21 -32 13
-284 264 -284 284 0 8 15 25 33 37 63 44 153 127 212 198 56 66 75 85 60 60z
m-9035 -309 c0 -5 -4 -10 -9 -10 -6 0 -13 5 -16 10 -3 6 1 10 9 10 9 0 16 -4
16 -10z m45 -20 c-10 -11 -20 -18 -23 -15 -7 6 18 35 31 35 5 0 2 -9 -8 -20z
m55 -20 c-20 -28 -40 -39 -40 -23 0 6 50 52 58 53 2 0 -6 -13 -18 -30z m8130
-76 c-47 -47 -166 -148 -265 -224 -99 -76 -252 -198 -340 -271 -256 -212 -515
-399 -700 -506 -86 -50 -108 -57 -150 -49 -29 6 -33 11 -39 47 -5 31 -20 55
-59 96 l-52 55 -17 116 -17 117 27 23 c56 47 314 165 547 248 290 105 384 145
506 216 138 81 184 103 315 148 164 57 210 69 274 69 l55 1 -85 -86z m-4951
-129 c58 -24 126 -49 151 -56 113 -32 331 -190 528 -383 81 -79 162 -150 179
-160 18 -9 40 -30 48 -46 l15 -29 -32 18 c-41 23 -80 32 -94 23 -6 -4 -21 -27
-34 -51 -17 -34 -21 -55 -17 -90 8 -71 -4 -91 -56 -91 -40 0 -51 6 -108 58
-35 32 -136 119 -224 194 -202 171 -310 283 -460 478 -66 85 -148 188 -183
228 l-64 73 123 -61 c67 -34 169 -81 228 -105z m-2925 28 c26 -23 36 -41 36
-61 0 -54 -28 -121 -69 -168 -23 -26 -41 -51 -41 -55 0 -5 -7 -9 -15 -9 -9 0
-19 -10 -24 -23 -9 -23 -38 -53 -45 -46 -2 2 2 22 9 44 8 21 12 41 10 43 -8 9
-25 -10 -25 -29 0 -22 -41 -99 -52 -99 -11 0 -10 10 8 69 8 29 13 55 10 58 -5
6 -32 -55 -43 -96 -7 -25 -7 -25 -14 9 -5 25 -1 51 17 98 31 82 30 100 -1 40
-28 -54 -74 -89 -60 -47 4 13 13 49 20 80 11 48 22 65 76 121 35 35 75 81 89
101 25 36 25 36 51 19 14 -9 43 -31 63 -49z m127 -40 c-5 -10 -25 -34 -45 -52
l-36 -35 0 30 c0 33 14 59 27 51 4 -3 19 1 33 9 32 17 32 17 21 -3z m10699
-157 c0 -2 -7 -9 -15 -16 -12 -10 -15 -10 -15 4 0 9 7 16 15 16 8 0 15 -2 15
-4z m-74 -38 c-4 -18 -16 -42 -27 -53 l-20 -20 7 30 c12 51 23 75 35 75 8 0 9
-11 5 -32z m-10668 -76 c71 -101 185 -216 255 -256 26 -15 84 -42 130 -60 79
-31 233 -126 204 -126 -30 0 -119 32 -237 86 -71 32 -159 63 -210 75 -125 27
-138 33 -210 103 -36 34 -82 74 -102 89 l-37 27 27 29 c15 16 44 49 65 75 21
25 42 46 45 46 4 0 35 -40 70 -88z m-431 -27 c16 -11 22 -22 18 -35 -5 -15 3
-23 41 -39 26 -12 59 -21 75 -21 33 0 33 5 15 -121 -14 -98 -37 -159 -60 -159
-7 0 -23 -11 -35 -24 -13 -13 -38 -27 -57 -30 -19 -4 -34 -12 -34 -18 0 -6 13
-8 35 -4 62 12 38 -22 -27 -38 -21 -5 -32 -1 -45 13 -13 16 -25 19 -59 14 -34
-4 -54 0 -106 25 -34 17 -77 33 -94 37 -61 12 -93 77 -94 188 0 76 3 81 99
150 63 45 135 57 232 38 72 -15 92 -7 25 10 -25 6 -46 15 -46 19 0 24 77 21
117 -5z m2064 -4 c-6 -10 -21 -25 -35 -34 -15 -10 -50 -68 -90 -149 -93 -188
-94 -189 -202 -204 -124 -18 -150 -16 -84 5 30 9 68 26 83 36 39 25 98 115
136 205 51 124 85 155 169 159 29 1 32 -1 23 -18z m3255 -73 l61 1 5 -75 c3
-45 11 -81 19 -89 10 -10 42 -15 107 -16 107 -2 143 13 135 54 -4 18 3 30 23
46 24 19 29 20 44 6 36 -32 128 -12 210 45 24 17 28 17 88 -2 65 -20 72 -27
47 -48 -21 -18 -20 -24 33 -129 68 -136 101 -154 173 -94 l30 26 23 -22 c12
-11 32 -21 43 -21 16 0 25 -10 33 -35 12 -36 51 -75 116 -115 l39 -25 -40 -3
c-22 -2 -45 -8 -52 -14 -17 -14 -16 -73 3 -166 22 -109 48 -131 113 -97 28 14
29 14 35 -17 3 -17 6 -42 6 -56 0 -13 8 -39 19 -56 10 -17 24 -53 30 -80 24
-97 93 -196 137 -196 34 0 103 48 110 77 4 13 3 38 0 57 -5 28 1 44 43 108 27
41 55 77 62 80 25 8 492 0 564 -11 39 -5 147 -15 240 -21 94 -6 233 -17 310
-24 77 -7 199 -11 270 -8 83 3 154 0 198 -8 37 -8 66 -15 64 -16 -2 -2 -67
-19 -144 -39 -77 -19 -203 -57 -279 -84 -77 -27 -173 -56 -214 -64 -41 -9
-190 -42 -330 -73 -307 -67 -404 -74 -532 -35 -49 15 -78 29 -78 38 0 14 -50
40 -99 49 -23 5 -37 -3 -83 -45 l-56 -52 -109 32 c-123 36 -162 54 -251 115
-36 25 -69 41 -78 37 -25 -9 -93 -123 -99 -167 -4 -23 -5 -57 -3 -76 l3 -35
75 -7 c112 -12 225 -52 248 -88 19 -32 17 -373 -3 -467 -10 -43 -20 -83 -24
-90 -4 -8 -30 9 -74 50 -52 48 -82 88 -133 177 -68 119 -93 150 -125 150 -21
0 -153 -115 -181 -157 -28 -44 -23 -69 20 -97 20 -13 54 -41 74 -63 l37 -38
-13 -45 c-8 -25 -30 -80 -50 -124 -20 -43 -41 -96 -47 -117 l-12 -39 -37 34
c-42 37 -95 52 -154 40 -27 -5 -55 -24 -102 -70 -35 -35 -64 -59 -64 -54 0 5
9 17 19 27 45 41 61 166 25 180 -11 4 -13 25 -8 102 6 90 5 99 -19 147 -21 41
-34 55 -67 68 -95 38 -276 39 -346 3 -25 -13 -39 -35 -69 -103 -36 -85 -62
-207 -51 -247 4 -17 3 -18 -13 -3 -28 26 -54 19 -137 -36 -44 -29 -98 -63
-121 -75 l-42 -22 -15 24 c-32 48 -89 41 -186 -26 -61 -42 -128 -109 -344
-346 -153 -169 -190 -200 -309 -260 -122 -61 -352 -209 -436 -282 -56 -47
-124 -91 -142 -91 -18 0 -9 19 47 101 60 88 85 138 128 261 35 98 101 176 294
351 78 71 148 138 156 148 7 11 35 43 62 71 44 46 49 49 59 32 89 -159 234
-43 239 191 1 75 3 84 34 122 17 22 32 52 32 65 0 14 -20 50 -45 82 -46 59
-57 104 -32 123 6 6 32 13 57 17 68 10 148 52 166 88 19 38 14 53 -53 138 -42
55 -51 61 -75 56 -16 -3 -28 -1 -28 5 0 20 -105 121 -161 156 -64 39 -62 32
-38 156 18 93 9 172 -22 206 -11 11 -19 27 -19 34 0 8 29 40 65 71 49 44 67
67 76 99 16 55 43 84 84 91 24 5 48 23 83 61 35 40 51 52 59 44 19 -19 60 -1
97 44 70 83 116 152 116 174 0 14 22 47 54 82 56 61 86 108 86 136 0 11 10 15
39 15 28 0 54 10 97 40 48 33 64 39 89 34 17 -4 58 -6 91 -6z m-5068 -10 c7
-7 12 -26 12 -44 0 -28 -3 -32 -37 -37 -20 -4 -38 -5 -39 -4 -1 1 0 23 3 50 5
40 9 47 27 47 12 0 27 -5 34 -12z m101 -80 c23 -23 40 -42 38 -43 -1 -1 -24 1
-52 4 -31 4 -50 11 -49 19 1 6 2 23 3 37 2 35 14 31 60 -17z m10517 -6 c18
-11 27 -211 11 -246 l-13 -30 -23 38 c-13 21 -26 58 -29 82 -2 24 -8 44 -12
44 -14 0 -30 -61 -30 -111 0 -59 -7 -79 -29 -79 -14 0 -16 13 -13 97 1 54 5
112 8 130 9 56 88 102 130 75z m-11359 -89 c-2 -16 -4 -3 -4 27 0 30 2 43 4
28 2 -16 2 -40 0 -55z m732 -39 c14 9 14 -7 -1 -39 -10 -21 -18 -25 -56 -25
-38 0 -43 2 -37 18 4 9 11 32 17 49 l9 33 29 -21 c15 -12 33 -18 39 -15z m67
-21 c28 -18 18 -33 -22 -33 -17 0 -20 5 -16 25 5 30 6 30 38 8z m-767 -33 l23
-35 -26 28 c-14 15 -26 33 -26 39 0 13 0 14 29 -32z m11997 -18 c22 -31 82
-232 91 -303 7 -48 -2 -85 -22 -93 -13 -4 -14 -2 -5 14 16 30 12 56 -21 133
-22 51 -33 98 -39 162 -8 76 -13 93 -32 109 -13 10 -16 17 -8 14 8 -2 25 -19
36 -36z m-2611 -29 c-4 -32 -11 -74 -17 -93 -12 -43 -31 -241 -32 -332 -1
-100 6 -105 136 -90 137 16 157 14 75 -8 -90 -24 -231 -45 -251 -37 -30 12
-18 339 17 473 12 48 61 144 73 144 3 0 2 -26 -1 -57z m1911 -74 c6 -18 -33
-52 -131 -114 -33 -21 -80 -54 -105 -75 -25 -20 -60 -45 -79 -55 -41 -21 -131
-30 -184 -18 l-39 8 89 66 c107 81 228 189 277 247 l36 44 0 -45 c0 -63 7 -77
41 -77 36 0 49 23 49 92 l1 53 20 -55 c11 -30 22 -62 25 -71z m409 97 c-16
-13 -28 -26 -25 -29 3 -3 28 -1 55 3 78 14 191 12 202 -2 6 -7 13 -45 16 -85
3 -42 17 -99 32 -138 15 -36 24 -72 21 -80 -2 -7 -43 -32 -89 -55 -65 -32
-100 -43 -151 -47 -71 -6 -88 -20 -31 -25 20 -2 34 -7 33 -13 -3 -12 -79 -8
-114 5 -31 12 -32 34 -1 25 21 -6 21 -5 3 9 -25 20 -95 30 -169 23 -58 -5 -65
-3 -129 35 -104 62 -111 89 -43 169 25 29 45 56 45 60 0 4 11 9 25 11 l25 5
-26 -34 c-32 -42 -35 -92 -9 -147 18 -38 67 -77 95 -75 8 0 3 5 -11 10 -66 24
-93 159 -44 218 14 16 34 33 44 36 28 9 179 98 154 90 -35 -10 -36 13 -1 35
20 12 50 20 78 20 l45 0 -30 -24z m-10740 -16 c44 -5 123 -9 175 -10 107 0
170 -8 170 -21 0 -5 -13 -9 -29 -9 -16 0 -65 -7 -108 -16 -43 -8 -137 -19
-208 -23 -139 -9 -166 -18 -282 -91 -68 -43 -78 -40 -96 28 -8 31 -21 71 -28
89 -7 18 -10 35 -6 39 3 4 50 13 104 20 98 13 158 12 308 -6z m995 -168 c124
-51 195 -86 216 -107 l31 -30 6 -140 c4 -90 15 -182 31 -259 14 -66 23 -123
20 -127 -8 -14 -34 2 -34 20 0 9 -9 44 -20 77 -10 32 -28 126 -40 208 -23 161
-34 199 -71 232 -29 26 -195 122 -304 176 -119 59 -44 37 165 -50z m9351 16
c-12 -18 -31 -49 -42 -69 -20 -35 -22 -36 -60 -25 -21 5 -39 13 -39 16 0 8
140 110 152 110 5 0 0 -15 -11 -32z m-182 -125 c-13 -16 -25 -30 -26 -32 -1
-1 -7 0 -13 4 -7 4 1 16 21 31 43 31 48 30 18 -3z m-10514 -165 c13 -31 -39
-98 -76 -98 -5 0 -9 34 -9 75 0 64 5 84 33 141 l32 66 6 -84 c4 -45 10 -91 14
-100z m10609 172 c35 -13 33 -42 -5 -74 -35 -30 -39 -31 -61 -13 -29 23 -29
46 0 72 30 28 31 29 66 15z m-8209 -75 c277 -20 496 -50 545 -75 21 -11 59
-24 86 -31 27 -7 148 -49 269 -94 121 -45 264 -97 319 -115 58 -20 100 -40
103 -50 2 -8 11 -30 20 -48 15 -31 15 -35 -7 -85 -14 -28 -25 -54 -27 -56 -1
-2 -25 -10 -52 -17 -42 -10 -60 -10 -113 2 -35 9 -115 26 -179 39 -116 23
-476 124 -684 192 -157 51 -246 91 -360 160 -55 33 -136 79 -180 103 -162 88
-170 106 -41 97 45 -3 180 -13 301 -22z m8395 -84 c0 -12 -83 -61 -102 -61
-27 0 -69 24 -100 57 l-27 28 47 36 47 35 68 -44 c37 -25 67 -48 67 -51z
m-543 38 c66 -16 154 -33 195 -39 92 -13 164 -46 147 -66 -9 -11 -9 -21 0 -40
6 -14 11 -45 11 -69 0 -50 -5 -50 -70 -10 -44 27 -320 176 -420 227 l-75 38
45 -6 c25 -4 100 -19 167 -35z m288 1 c-4 -6 -1 -17 5 -25 10 -12 9 -15 -6
-14 -11 1 -30 4 -44 8 l-24 7 24 17 c27 19 55 23 45 7z m-1155 -50 c-97 -36
-390 -141 -520 -186 -78 -27 -87 -48 -73 -162 15 -117 59 -248 137 -404 61
-121 63 -126 42 -132 -64 -17 -69 -11 -134 176 -17 47 -47 126 -68 175 -48
115 -63 171 -70 269 l-7 81 49 16 c27 9 90 23 141 32 101 17 204 47 423 124
169 59 234 68 80 11z m1415 -62 c-9 -43 -21 -179 -17 -201 2 -9 8 -17 13 -17
5 0 9 35 9 78 1 77 20 178 32 166 4 -3 4 -43 1 -89 -6 -87 1 -140 17 -130 21
13 8 -36 -30 -111 -22 -43 -44 -91 -49 -106 -10 -27 -13 -28 -77 -28 -64 0
-66 1 -51 18 21 23 22 82 2 108 -10 14 -14 48 -15 128 0 60 -5 124 -12 143
-15 41 -4 53 23 26 15 -14 23 -40 28 -79 6 -56 31 -90 31 -42 0 13 11 41 25
63 13 22 32 55 41 73 10 17 22 32 27 32 6 0 6 -14 2 -32z m-10147 12 c116 -19
346 -105 394 -147 10 -9 24 -13 31 -10 32 12 427 -148 521 -211 26 -18 52 -32
58 -32 5 0 36 27 69 60 l58 60 91 -36 c50 -19 139 -46 198 -59 155 -36 211
-52 365 -102 121 -39 145 -50 200 -96 l62 -52 -50 -7 c-27 -3 -82 -7 -122 -7
-84 -1 -277 -25 -364 -46 -47 -10 -106 -12 -253 -8 l-192 6 4 29 c10 68 -40
74 -153 18 -44 -22 -90 -40 -101 -40 -31 0 -155 -42 -259 -87 -49 -22 -112
-46 -140 -53 -85 -22 -150 -55 -246 -125 -94 -67 -220 -134 -297 -156 -51 -15
-86 -3 -104 36 -9 20 -7 37 7 86 21 67 23 55 -40 196 -36 81 -36 86 -41 239
-5 144 -4 158 15 190 18 30 21 52 21 162 0 70 4 133 8 139 4 7 28 24 52 37 51
28 108 32 208 16z m10059 -57 c-21 -36 -21 -37 -28 -12 -12 43 -10 49 21 49
l29 0 -22 -37z m-10948 -8 c-12 -19 -25 -35 -30 -35 -14 0 -11 9 12 41 29 41
43 36 18 -6z m-84 -25 c-3 -5 -11 -10 -16 -10 -6 0 -7 5 -4 10 3 6 11 10 16
10 6 0 7 -4 4 -10z m11189 -58 c4 -29 3 -41 -4 -37 -5 3 -10 25 -10 47 0 51 5
47 14 -10z m-249 -282 c-3 -5 -15 -10 -25 -10 -10 0 -22 5 -25 10 -4 6 7 10
25 10 18 0 29 -4 25 -10z m-64 -19 c25 -23 62 -31 140 -31 67 0 68 -3 39 -68
l-19 -43 -33 14 c-143 61 -188 83 -188 92 0 12 28 55 36 55 3 0 14 -8 25 -19z
m-362 -6 c96 -17 151 -33 151 -44 0 -4 -7 -30 -15 -57 -8 -27 -15 -66 -15 -86
0 -26 -14 -59 -52 -120 -28 -46 -61 -105 -74 -133 -52 -116 -55 -286 -10 -578
12 -82 19 -150 15 -153 -10 -6 -193 24 -258 42 -80 23 -170 71 -337 180 -190
124 -216 146 -354 299 -63 70 -128 133 -143 142 -38 19 -58 6 -132 -86 -37
-46 -64 -70 -83 -74 -70 -14 -282 31 -537 113 -88 28 -193 55 -234 60 l-74 8
-78 78 c-44 43 -79 81 -79 85 0 3 48 9 108 13 59 4 157 14 217 22 241 32 326
36 457 19 68 -9 131 -18 141 -21 9 -3 28 -27 41 -53 14 -26 32 -53 40 -61 22
-18 108 -8 216 25 47 15 98 29 114 32 16 3 85 34 152 69 68 34 156 72 196 84
40 12 114 45 163 75 199 118 240 135 313 135 37 0 105 -7 151 -15z m909 -42
c13 -21 13 -23 -5 -23 -13 0 -31 16 -48 42 l-27 41 32 -19 c18 -10 39 -29 48
-41z m77 -13 c19 -8 19 -9 -2 -9 -12 -1 -25 4 -28 9 -7 12 2 12 30 0z m-11710
-14 c102 -43 75 -186 -37 -186 -32 0 -47 7 -74 34 -40 40 -44 80 -13 120 36
45 70 54 124 32z m811 -58 c-7 -25 -34 -74 -58 -109 -25 -35 -54 -92 -65 -125
-19 -56 -113 -213 -113 -188 0 24 24 81 47 111 13 18 40 74 61 125 34 84 128
245 138 235 2 -2 -2 -24 -10 -49z m10158 -18 c-10 -24 -52 -90 -93 -149 -95
-132 -119 -170 -142 -229 -12 -32 -18 -40 -19 -24 0 12 6 37 14 55 17 41 247
399 253 394 2 -3 -4 -24 -13 -47z m-8749 -40 c3 -5 -8 -51 -26 -102 -31 -90
-31 -97 -26 -215 6 -139 10 -130 -88 -183 -33 -18 -87 -50 -120 -70 -33 -20
-82 -49 -110 -64 l-50 -27 49 45 c27 25 85 64 129 88 44 24 93 55 109 70 27
26 28 29 28 130 0 111 23 226 61 299 19 39 33 48 44 29z m2362 -72 c42 -46 39
-65 -14 -117 -44 -42 -112 -91 -180 -129 -22 -11 -23 -10 -23 19 0 43 16 67
55 83 27 12 36 23 46 58 7 24 16 47 21 53 4 5 8 19 8 32 0 19 5 23 33 23 22 0
41 -8 54 -22z m2948 -189 c50 -18 169 -73 265 -122 96 -49 236 -114 310 -145
74 -30 173 -74 220 -97 97 -49 418 -261 380 -251 -14 4 -148 31 -299 62 -210
42 -292 63 -350 89 -45 21 -127 45 -201 60 -196 39 -499 123 -545 150 -23 13
-50 36 -60 51 -16 26 -16 28 3 73 12 25 24 56 27 69 4 12 30 40 58 62 60 46
62 46 192 -1z m-3425 -28 c0 -11 -4 -22 -9 -26 -5 -3 -12 -19 -16 -35 -6 -29
-8 -30 -67 -30 -33 0 -111 -11 -172 -25 -205 -45 -367 -67 -526 -71 -107 -3
-149 -1 -135 6 36 18 514 130 554 130 22 0 76 9 121 19 45 11 113 23 151 27
38 4 72 11 75 15 9 16 24 9 24 -10z m5528 -78 c21 -18 20 -20 -118 -178 -150
-172 -210 -261 -210 -311 0 -22 16 -51 55 -104 86 -113 85 -122 -5 -35 -45 44
-88 92 -96 107 -20 39 -17 88 9 129 29 47 328 409 338 409 4 0 16 -8 27 -17z
m-3667 -27 c78 -14 139 -39 139 -57 0 -6 -6 -6 -19 0 -39 21 -206 53 -248 47
-24 -3 -70 -19 -103 -36 -55 -28 -60 -29 -50 -10 32 60 139 81 281 56z m5918
-30 c37 -37 33 -101 -8 -138 -40 -36 -80 -36 -120 -2 -26 21 -31 33 -31 68 0
95 93 137 159 72z m-11450 -83 c3 -2 -3 -17 -12 -32 -29 -50 -22 -77 35 -134
71 -71 98 -113 98 -153 0 -19 -3 -34 -7 -34 -4 0 -32 24 -62 53 -29 28 -50 45
-45 37 18 -33 95 -129 107 -134 6 -3 -1 -2 -18 1 -42 8 -98 37 -125 66 -12 13
-40 64 -61 113 -43 99 -51 172 -23 212 14 20 21 22 62 16 26 -4 49 -8 51 -11z
m-249 -13 c0 -5 -9 -10 -21 -10 -11 0 -17 5 -14 10 3 6 13 10 21 10 8 0 14 -4
14 -10z m360 -1 c0 -6 -5 -20 -12 -32 -6 -12 -14 -49 -17 -82 l-6 -60 -32 51
c-36 55 -39 70 -21 109 9 20 18 25 50 25 21 0 38 -5 38 -11z m5204 -19 c46
-35 106 -40 177 -14 52 18 129 11 94 -9 -35 -20 -198 -36 -227 -23 -26 12 -24
-20 2 -34 14 -7 31 -6 62 5 24 8 58 15 77 15 19 0 49 5 67 12 17 6 39 8 48 5
15 -6 15 -10 -4 -48 -25 -48 -21 -80 16 -124 l25 -30 28 33 c34 39 44 30 35
-29 -5 -29 -18 -53 -41 -76 -20 -20 -33 -44 -33 -59 0 -55 -132 -156 -222
-170 -31 -5 -44 0 -92 35 -61 45 -87 87 -111 178 -29 108 3 313 48 313 10 0
20 -7 23 -15 4 -8 13 -15 20 -15 12 0 12 4 -2 25 -9 14 -23 25 -30 25 -8 0
-14 7 -14 15 0 21 10 19 54 -15z m-3689 -321 c112 -22 187 -53 225 -92 14 -14
50 -67 80 -118 30 -50 84 -123 118 -160 62 -67 63 -69 40 -78 -45 -17 -93 33
-189 194 -104 175 -177 225 -330 225 -36 0 -104 6 -150 14 -46 8 -108 17 -137
21 -31 4 -50 11 -46 17 10 15 272 0 389 -23z m-1290 -79 c16 -10 47 -42 69
-70 21 -28 50 -59 64 -70 33 -27 15 -25 -60 5 -80 31 -173 55 -215 55 -31 0
-33 2 -33 38 0 20 -4 54 -9 74 -5 20 -7 39 -4 41 6 6 151 -50 188 -73z m3105
63 c0 -5 -16 -19 -34 -33 -19 -14 -56 -52 -83 -84 -26 -33 -76 -92 -111 -130
-34 -39 -75 -91 -90 -114 -15 -24 -48 -72 -74 -105 -26 -34 -62 -82 -80 -105
l-33 -44 -6 54 c-8 68 -17 88 -38 88 -18 0 -100 -81 -176 -175 -27 -33 -90
-103 -140 -156 -147 -156 -155 -167 -176 -244 -7 -27 -34 -82 -60 -120 -43
-65 -58 -78 -196 -167 -108 -71 -175 -106 -248 -133 -55 -20 -112 -41 -128
-47 -36 -13 -71 -4 -84 24 -6 13 -44 59 -83 103 -106 117 -148 172 -181 237
-44 88 -85 127 -169 166 -105 47 -192 91 -211 105 -26 20 -79 99 -79 119 0 10
7 21 15 24 8 4 22 20 31 38 21 44 87 93 147 111 29 9 93 19 142 22 55 3 96 11
106 20 13 11 26 12 65 3 49 -11 139 -7 219 10 22 5 108 16 190 25 190 20 263
39 278 73 9 20 8 26 -7 37 -16 12 -14 15 24 25 23 6 94 35 158 64 132 61 234
95 372 125 53 11 142 38 198 61 167 66 397 129 475 129 37 1 67 -2 67 -6z
m-2420 -14 c-51 -35 -208 -105 -321 -144 -73 -25 -134 -44 -135 -42 -6 6 101
52 256 113 80 31 156 62 170 70 29 16 52 18 30 3z m4870 -4 c35 -18 45 -36 54
-95 8 -49 52 -142 99 -207 26 -38 29 -46 19 -68 -14 -29 -44 -44 -80 -37 -18
4 -30 19 -48 59 -15 34 -33 57 -47 62 -16 6 -32 28 -47 65 -16 40 -39 72 -82
111 -46 42 -56 57 -43 61 9 4 32 -5 53 -20 40 -27 52 -31 52 -18 0 5 -12 14
-26 21 -40 18 -22 24 20 7 43 -18 48 -8 9 16 -20 12 -23 18 -11 18 9 0 31 -12
48 -26 43 -37 48 -24 7 20 -45 47 -34 61 23 31z m553 -16 c12 -6 67 -55 122
-109 55 -53 139 -125 187 -158 151 -108 388 -330 578 -541 l85 -95 -108 57
c-197 104 -271 159 -427 318 -80 82 -197 190 -260 241 -283 227 -336 268 -349
268 -9 0 -32 -17 -53 -37 -32 -31 -42 -36 -56 -26 -18 11 -19 50 -2 67 23 23
244 35 283 15z m4397 -4 c34 -17 56 -50 40 -60 -5 -3 -10 -2 -10 3 0 20 -61
34 -126 30 l-66 -4 26 23 c32 27 92 31 136 8z m-5770 -34 c0 -5 10 -13 23 -19
20 -10 20 -11 2 -10 -38 2 -56 -2 -51 -11 3 -5 14 -7 24 -4 21 5 72 -32 72
-53 0 -12 -6 -11 -31 6 -16 12 -33 19 -37 15 -4 -4 -1 -10 5 -12 7 -3 23 -12
34 -22 27 -21 18 -46 -11 -31 -28 15 -66 12 -81 -6 -7 -9 -16 -42 -20 -75 -4
-36 -17 -75 -33 -101 -73 -117 -105 -146 -149 -132 -17 5 -19 12 -13 55 4 26
20 80 37 119 17 40 33 95 36 123 8 68 63 154 102 159 54 6 91 6 91 -1z m5774
-17 c11 -4 16 -19 16 -49 0 -24 7 -79 15 -124 16 -81 16 -81 -8 -116 -18 -26
-26 -32 -35 -23 -9 9 -12 4 -12 -24 0 -44 -28 -74 -37 -40 -3 12 -10 22 -15
22 -6 0 -7 -11 -4 -26 4 -15 4 -40 1 -56 l-7 -29 -29 41 c-16 22 -32 55 -35
73 -11 65 -15 77 -24 77 -6 0 -10 -17 -10 -37 0 -41 -18 -84 -36 -90 -21 -7
-16 158 7 234 21 69 70 158 92 167 18 7 103 7 121 0z m-5699 -24 c3 -6 -1 -7
-9 -4 -18 7 -21 14 -7 14 6 0 13 -4 16 -10z m-5188 -36 c-10 -10 -87 -22 -87
-13 0 4 8 10 18 12 27 7 76 8 69 1z m152 -10 c39 -17 91 -81 122 -147 24 -54
27 -192 4 -201 -8 -3 -15 -11 -15 -18 -1 -16 -85 -68 -110 -68 -30 0 -49 -11
-44 -25 6 -15 -30 -30 -47 -19 -8 4 -7 9 2 16 9 6 -4 7 -36 2 -27 -5 -93 -9
-146 -9 -87 0 -99 2 -136 27 -29 19 -46 40 -59 73 -16 43 -16 50 -1 98 9 29
33 78 53 110 31 50 46 63 108 94 39 20 98 42 131 50 59 14 126 30 134 32 2 0
20 -6 40 -15z m5522 -153 c-11 -57 -26 -112 -33 -121 -91 -124 -114 -158 -138
-202 -21 -38 -31 -48 -35 -37 -18 47 68 272 164 428 28 46 52 89 53 95 1 6 3
-5 5 -24 2 -19 -5 -82 -16 -139z m-60 90 c-27 -53 -93 -121 -118 -121 -8 0
-18 16 -51 81 -2 4 28 19 65 33 37 14 82 35 98 46 17 11 31 20 33 20 1 0 -11
-26 -27 -59z m-5321 30 c-1 -3 -6 -16 -13 -28 -12 -22 -12 -22 -33 10 l-21 33
33 -4 c19 -2 34 -7 34 -11z m88 -26 c-6 -6 -58 8 -58 16 0 4 14 3 31 -3 16 -6
29 -12 27 -13z m4993 -77 c-18 -16 -34 -28 -36 -26 -2 2 -1 24 2 50 l6 48 30
-22 30 -21 -32 -29z m-4821 47 c0 -17 -51 -135 -92 -212 -28 -52 -54 -118 -62
-155 l-13 -63 -36 36 c-48 48 -54 76 -26 130 32 65 146 225 176 249 23 18 53
27 53 15z m8449 -30 c128 -33 365 -114 358 -122 -2 -1 -106 18 -231 43 -162
33 -238 44 -264 39 -50 -9 -107 -70 -159 -170 -47 -92 -70 -162 -80 -256 -8
-63 -9 -66 -30 -58 -35 13 -31 91 12 238 43 151 60 184 132 260 71 74 73 75
262 26z m-3704 -207 c3 -102 10 -201 15 -219 12 -41 13 -69 2 -69 -30 0 -161
309 -134 318 42 14 102 101 102 148 0 10 2 15 5 13 2 -3 7 -88 10 -191z m2206
156 c179 -34 319 -82 474 -161 85 -43 205 -91 345 -139 l215 -73 5 -50 c3 -28
12 -57 20 -65 8 -8 62 -24 120 -36 58 -12 171 -44 252 -71 l147 -50 123 7
c150 8 179 3 445 -83 195 -62 203 -66 255 -115 29 -28 48 -53 42 -55 -13 -4
-238 36 -344 61 -36 9 -103 19 -150 22 l-86 7 -43 -57 c-53 -72 -84 -134 -152
-309 -45 -117 -56 -138 -77 -144 -52 -13 -74 8 -220 202 -173 229 -266 377
-375 592 -77 152 -83 162 -114 168 -39 7 -94 -15 -168 -69 -27 -20 -56 -36
-63 -36 -23 0 -66 27 -203 125 -98 71 -187 123 -334 197 -110 55 -213 113
-230 129 -16 16 -26 29 -22 29 4 0 66 -12 138 -26z m-7106 -14 c-10 -11 -23
-20 -28 -20 -6 0 -2 9 8 20 10 11 23 20 28 20 6 0 2 -9 -8 -20z m4954 -75
c-27 -97 -29 -100 -23 -20 4 46 11 74 22 82 8 7 17 12 18 10 1 -1 -6 -34 -17
-72z m153 39 l28 6 -26 -53 -27 -52 -21 60 c-15 40 -18 62 -11 67 5 4 14 -2
19 -13 8 -16 16 -19 38 -15z m-5152 -13 c0 -3 -10 -17 -21 -31 -15 -18 -19
-20 -15 -7 3 10 6 27 6 38 0 12 5 16 15 13 8 -4 15 -9 15 -13z m6140 -335 c52
-39 149 -104 215 -143 139 -83 184 -123 369 -330 75 -83 177 -190 228 -237
l91 -85 -32 -102 c-26 -82 -30 -103 -19 -110 7 -5 16 -9 20 -9 4 0 28 -13 53
-29 27 -17 66 -31 97 -35 78 -10 105 -20 308 -116 102 -48 202 -95 223 -105
28 -13 55 -44 114 -129 42 -61 89 -126 104 -145 16 -19 27 -36 26 -37 -2 -2
-45 8 -97 22 -66 17 -143 27 -253 34 -184 11 -229 18 -437 65 -85 19 -184 38
-220 41 -92 8 -180 39 -235 82 -46 36 -50 37 -134 37 -85 0 -86 0 -89 -26 -2
-14 4 -31 12 -39 21 -17 20 -30 -2 -30 -55 0 -391 331 -490 482 -76 116 -105
178 -156 325 -24 70 -54 154 -66 186 -12 32 -20 60 -18 62 2 2 39 -5 83 -15
153 -37 177 -24 221 114 22 72 24 85 13 131 -13 58 -45 117 -104 195 -37 48
-105 169 -105 186 0 3 42 -33 93 -81 50 -48 135 -120 187 -159z m4220 197 l0
-48 -27 27 -27 27 25 20 c13 11 25 20 27 21 1 0 2 -21 2 -47z m-7763 -70 c-4
-61 -2 -119 5 -155 15 -73 4 -112 -64 -214 -65 -98 -85 -142 -104 -224 -18
-76 -33 -108 -34 -70 0 79 44 193 120 311 l40 61 -3 158 -2 159 -35 -22 c-33
-20 -33 -20 -20 -1 91 125 105 124 97 -3z m7772 -3 c5 0 13 19 18 43 l10 42
31 -68 c18 -38 32 -70 32 -72 0 -2 -17 -7 -37 -11 -21 -4 -83 -23 -138 -42
-86 -30 -117 -35 -228 -41 -70 -3 -127 -3 -127 0 0 3 18 11 40 18 48 14 165
93 244 164 l59 53 44 -43 c25 -24 48 -43 52 -43z m411 -55 c11 -13 8 -13 -16
-5 -16 5 -38 11 -49 13 -11 3 -4 5 16 6 21 1 42 -5 49 -14z m-14 -25 c12 -5
24 -20 27 -38 5 -24 16 -33 64 -54 39 -17 69 -24 90 -21 28 4 34 1 49 -28 29
-55 25 -151 -9 -221 -16 -32 -41 -67 -57 -78 -28 -20 -31 -20 -61 -5 -29 15
-36 15 -94 0 -59 -16 -68 -16 -135 -1 -60 13 -83 25 -137 68 -66 54 -68 58
-78 149 -6 51 -3 62 36 136 40 80 53 92 114 107 26 6 163 -4 191 -14z m-296
-15 c0 -3 -13 -27 -30 -53 -16 -27 -30 -54 -30 -61 0 -17 -8 -14 -50 22 -56
45 -52 62 18 80 61 16 92 20 92 12z m-5437 -32 c14 -5 17 -18 17 -93 0 -49 7
-124 15 -167 8 -43 31 -220 50 -393 20 -173 38 -330 41 -347 7 -39 -7 -43 -33
-9 -12 14 -26 64 -37 124 -18 107 -33 139 -60 129 -21 -8 -22 -113 -2 -180 16
-53 12 -57 -56 -57 l-41 0 7 48 c7 54 32 383 41 547 3 61 13 143 21 183 14 71
10 140 -13 216 -4 15 -2 18 13 11 11 -4 27 -10 37 -12z m3007 2 c10 -12 6 -19
-21 -42 -18 -16 -64 -45 -103 -66 -150 -82 -320 -231 -332 -292 -5 -30 0 -46
33 -103 69 -116 94 -162 89 -162 -3 0 -51 61 -107 135 -121 161 -123 142 21
285 109 109 235 202 318 236 67 28 85 29 102 9z m1855 -45 c11 -10 81 -60 155
-111 74 -51 157 -107 183 -125 53 -37 119 -59 150 -50 15 4 12 -3 -14 -30 -41
-42 -137 -110 -145 -102 -3 3 0 25 7 47 7 23 10 44 7 47 -3 3 -31 -4 -62 -14
l-57 -19 -33 41 c-18 23 -73 99 -121 170 -49 72 -103 146 -120 165 l-30 36 30
-19 c17 -10 39 -27 50 -36z m404 18 c7 -18 4 -27 -12 -40 -20 -15 -24 -15 -60
4 -21 10 -37 21 -34 24 2 2 24 11 48 18 24 8 45 14 47 15 1 1 7 -9 11 -21z
m109 -172 c18 -98 19 -96 -37 -96 -28 0 -53 4 -56 10 -3 5 -8 31 -12 57 l-5
48 43 22 c24 12 47 22 50 22 3 1 11 -28 17 -63z m-124 37 c-4 -10 -6 -40 -5
-67 2 -43 0 -48 -15 -42 -26 10 -142 100 -137 106 2 3 30 8 61 11 103 11 105
11 96 -8z m-10237 -150 c-3 -10 -5 -2 -5 17 0 19 2 27 5 18 2 -10 2 -26 0 -35z
m755 -106 c7 -45 21 -83 40 -110 15 -23 37 -72 48 -108 11 -36 33 -83 48 -105
47 -65 46 -72 -3 -19 -26 29 -50 67 -56 90 -6 22 -26 69 -44 105 -28 57 -76
238 -74 280 1 28 30 -65 41 -133z m9858 -18 c0 -19 -22 -18 -64 3 -62 30 -58
39 9 20 30 -8 55 -19 55 -23z m-7548 -150 c106 -115 152 -152 208 -166 33 -9
42 -26 16 -31 -36 -8 -125 48 -219 136 -62 59 -109 94 -132 101 -42 11 -81 3
-348 -75 -188 -55 -254 -81 -289 -112 -22 -19 -23 -9 -2 23 9 14 30 29 48 34
83 26 148 52 221 88 145 72 262 111 342 112 l51 1 104 -111z m4366 13 c37 -38
114 -117 172 -177 105 -109 105 -109 45 -68 -33 22 -100 77 -150 122 -49 45
-100 87 -112 93 -68 33 -298 -204 -354 -364 -15 -42 -16 -43 -43 -23 -45 34
22 182 138 303 82 86 201 182 224 182 7 0 43 -31 80 -68z m2674 42 c9 -9 -18
-101 -41 -136 -11 -18 -52 -61 -90 -95 l-70 -63 -118 1 c-65 0 -143 6 -173 12
l-55 12 0 77 c1 43 4 80 7 83 3 3 24 -4 47 -15 38 -21 43 -21 88 -7 27 9 65
18 85 22 29 4 43 15 65 48 35 51 76 59 81 16 2 -20 -7 -36 -37 -65 -23 -21
-41 -46 -41 -56 0 -22 16 -24 24 -3 4 13 9 13 25 3 18 -11 18 -13 3 -25 -16
-12 -16 -12 0 -13 10 0 22 9 28 20 6 10 30 33 55 50 48 33 75 74 75 115 0 18
5 25 18 25 10 0 21 -3 24 -6z m-61 -201 c-15 -28 -71 -78 -71 -64 0 11 67 81
77 81 2 0 -1 -8 -6 -17z m-5631 -155 c-26 -79 -60 -169 -74 -201 -14 -32 -26
-70 -26 -86 0 -19 26 -68 79 -147 44 -66 102 -162 129 -214 l50 -95 53 0 c52
0 55 1 72 37 10 21 24 91 33 170 17 143 53 318 90 438 l24 75 -5 -110 c-3 -71
-17 -170 -40 -280 -19 -93 -35 -192 -35 -220 0 -59 -27 -141 -49 -151 -9 -3
-45 -8 -81 -9 -54 -3 -69 0 -87 18 -13 11 -23 25 -23 31 0 46 -122 234 -225
348 -30 34 -55 69 -55 78 0 10 40 100 89 201 49 101 95 201 102 222 7 20 16
37 20 37 4 0 -14 -64 -41 -142z m5010 69 c8 -2 -30 -2 -86 1 l-101 5 -30 -34
c-109 -123 -133 -148 -133 -142 0 11 66 187 79 211 10 19 13 18 133 -9 68 -16
130 -30 138 -32z m-9290 8 c94 -49 68 -195 -35 -195 -52 0 -105 53 -105 105 0
46 13 71 48 89 35 19 56 20 92 1z m10125 -26 c17 -32 15 -49 -2 -27 -13 16
-26 58 -19 58 3 0 13 -14 21 -31z m70 -59 c3 -5 1 -10 -4 -10 -6 0 -11 5 -11
10 0 6 2 10 4 10 3 0 8 -4 11 -10z m-4406 -90 c22 -36 36 -66 31 -68 -8 -3
-101 -124 -208 -270 -13 -18 -58 -58 -99 -89 -41 -30 -79 -65 -85 -79 -25 -55
-79 -37 -148 47 -62 78 -131 201 -118 214 6 7 17 0 31 -20 12 -16 49 -64 82
-105 50 -63 66 -76 93 -78 29 -3 40 4 80 45 26 26 75 82 109 123 34 41 90 106
125 143 56 61 63 73 63 110 0 23 -4 58 -9 77 -10 44 0 35 53 -50z m-3885 -48
c-96 -93 -298 -257 -364 -295 -38 -23 -38 -1 0 24 14 10 122 96 240 192 118
97 217 176 220 176 3 0 -40 -44 -96 -97z m486 -67 c0 -19 -5 -55 -12 -80 -11
-40 -10 -47 6 -63 17 -16 18 -16 12 4 -8 26 33 156 47 151 27 -9 32 -37 14
-86 -22 -62 -22 -101 -1 -101 12 0 15 6 11 21 -6 24 59 123 74 113 14 -8 11
-22 -16 -91 l-26 -63 32 -58 c25 -44 31 -64 25 -85 -9 -38 -45 -53 -93 -39
-34 10 -41 19 -73 89 -22 49 -51 94 -81 124 -42 42 -46 51 -52 109 -4 35 -4
66 -1 69 15 15 44 -44 44 -90 0 -64 16 -71 23 -11 11 95 67 167 67 87z m-1552
-31 c17 -3 22 -11 22 -34 0 -49 15 -73 78 -123 47 -37 64 -57 76 -94 23 -66
21 -68 -30 -28 -26 19 -52 35 -57 35 -19 0 65 -78 101 -96 50 -24 21 -36 -42
-17 -69 20 -130 66 -188 141 l-48 63 0 84 0 85 33 -6 c17 -3 42 -7 55 -10z
m-351 -65 c-8 -5 -22 -6 -31 -3 -27 11 -17 21 15 16 24 -4 28 -7 16 -13z m-77
-23 c0 -2 -7 -7 -16 -10 -8 -3 -12 -2 -9 4 6 10 25 14 25 6z m9511 -59 c72
-48 55 -152 -30 -178 -109 -32 -175 122 -78 181 42 26 67 25 108 -3z m-7545
-119 c9 -17 10 -29 4 -33 -6 -3 -10 -14 -10 -24 0 -9 -11 -33 -25 -51 -14 -19
-31 -52 -37 -73 -14 -48 -66 -91 -124 -106 -62 -16 -93 -13 -144 11 -25 11
-60 23 -78 27 l-34 6 66 52 c36 29 96 90 133 134 37 45 90 97 118 115 l49 34
34 -33 c19 -17 40 -44 48 -59z m-1164 50 c35 -11 101 -23 148 -27 74 -6 82 -8
60 -18 -36 -16 -152 -50 -245 -72 -83 -20 -105 -16 -105 18 0 9 -5 22 -11 28
-5 5 -17 32 -24 58 l-15 47 65 -7 c35 -3 92 -16 127 -27z m5263 -31 c11 -6 36
-23 55 -38 19 -16 60 -35 90 -42 l55 -15 -2 -43 c-1 -24 -9 -62 -16 -84 -14
-39 -16 -40 -56 -37 -35 3 -109 -12 -166 -34 -13 -5 -15 3 -14 55 2 61 1 63
-42 107 l-43 44 57 0 c31 0 57 4 57 10 0 13 -37 35 -83 50 -20 6 -42 21 -48
31 -10 20 -8 20 63 13 40 -3 82 -11 93 -17z m1983 -45 l143 -7 23 -55 c17 -42
26 -55 41 -53 98 9 90 13 93 -37 4 -48 -13 -120 -28 -120 -4 0 -46 23 -92 52
-46 28 -155 86 -243 129 -88 42 -168 84 -179 91 -16 13 -12 14 40 11 33 -3
123 -7 202 -11z m-7069 -57 c-6 -19 -7 -40 -3 -46 4 -7 6 -61 5 -121 -1 -60 3
-127 9 -150 16 -57 4 -63 -61 -33 -30 13 -70 25 -90 25 -20 0 -38 2 -41 6 -8
7 26 93 78 198 24 50 44 96 44 103 0 17 36 53 54 53 12 0 12 -7 5 -35z m7886
8 c-20 -14 -35 -17 -35 -7 0 12 35 32 44 27 5 -4 1 -12 -9 -20z m-1055 -90 c6
-43 25 -129 42 -192 28 -101 34 -115 61 -130 123 -68 141 -99 50 -87 -26 3
-81 9 -121 12 -68 6 -72 7 -66 28 3 11 13 31 20 44 20 30 13 38 -46 53 l-50
13 0 51 c0 49 15 107 62 247 26 79 33 73 48 -39z m-7044 55 c-3 -13 -6 -26 -6
-29 0 -4 -13 -9 -29 -11 -26 -4 -29 -2 -28 21 1 16 10 28 22 33 39 12 48 9 41
-14z m-92 -31 c0 -9 -1 -33 -2 -52 l-2 -36 -45 37 c-24 21 -42 41 -39 46 6 9
65 27 79 24 6 -2 10 -10 9 -19z m7769 -64 c-15 -12 -31 -22 -35 -23 -14 0 -38
45 -38 71 0 39 19 40 63 5 l38 -30 -28 -23z m-383 22 c47 -24 49 -27 43 -58
-7 -40 -7 -40 -32 -32 -20 6 -41 36 -61 90 -12 31 -11 31 50 0z m-7204 -23
c-12 -24 -20 -28 -41 -25 -39 8 -32 38 13 49 20 6 38 9 40 8 2 -1 -3 -15 -12
-32z m-210 -28 c36 -36 44 -48 33 -55 -11 -7 -11 -9 -1 -9 7 0 11 -4 7 -9 -3
-6 3 -14 12 -20 17 -10 17 -10 -2 -11 l-20 -1 20 -9 c18 -8 18 -9 -5 -10 -18
-2 -20 -4 -7 -7 9 -2 17 -9 17 -14 0 -16 -23 -10 -48 14 l-25 22 7 -35 c16
-91 18 -118 6 -139 -10 -19 -9 -25 7 -36 17 -13 15 -17 -27 -59 -24 -25 -48
-46 -52 -46 -15 0 -8 18 18 50 47 55 17 44 -52 -19 -37 -34 -79 -64 -93 -68
-14 -3 -35 -12 -46 -19 -34 -22 -96 -19 -140 5 l-40 23 30 -27 c28 -27 28 -27
5 -20 -14 4 -25 8 -25 9 0 0 -6 12 -13 25 -10 16 -10 21 -1 16 6 -4 10 -4 7 1
-2 5 -10 24 -17 42 -9 21 -18 31 -27 28 -18 -7 -34 25 -33 61 2 23 2 24 6 6 8
-44 22 -22 16 25 l-5 48 95 88 c129 119 216 168 258 145 10 -5 26 -23 34 -39
9 -17 20 -30 25 -30 6 0 -1 22 -14 49 l-25 48 22 11 c35 17 43 14 93 -34z
m7544 -21 c52 -29 62 -43 33 -43 -10 0 -37 -9 -60 -20 -40 -17 -43 -18 -43 -2
0 25 12 92 16 92 2 0 26 -12 54 -27z m-7825 -1 c-6 -5 -28 -19 -50 -31 l-40
-23 33 31 c18 17 40 31 49 31 10 0 13 -3 8 -8z m7546 -26 c47 -35 70 -83 44
-93 -7 -2 -19 -18 -25 -34 -15 -36 -25 -31 -39 23 -6 24 -17 64 -25 91 -8 26
-12 47 -8 47 4 0 28 -16 53 -34z m-7091 19 c0 -10 -54 -115 -60 -115 -3 0 -16
24 -29 53 -14 28 -27 55 -29 60 -2 4 24 7 57 7 34 0 61 -2 61 -5z m7270 -51
c0 -6 -5 -25 -11 -43 -9 -24 -16 -30 -30 -26 -10 3 -28 8 -39 11 -28 8 -27 57
2 76 17 11 28 12 50 4 15 -6 28 -15 28 -22z m212 -38 c30 -38 29 -40 -22 -51
-87 -18 -105 -37 -130 -134 l-11 -44 -33 32 c-17 17 -38 31 -45 31 -14 0 -10
19 20 90 21 49 38 64 109 91 65 26 81 23 112 -15z m-254 -54 c10 -7 10 -14 -3
-38 -8 -16 -15 -34 -15 -41 0 -22 -16 -22 -58 -2 -38 19 -40 23 -31 46 5 14
12 30 15 34 7 11 75 11 92 1z m-6869 -314 c28 -83 26 -95 -4 -30 -22 48 -32
92 -21 92 2 0 14 -28 25 -62z m-9 -105 c0 -7 -4 -13 -9 -13 -10 0 -21 36 -20
65 0 16 4 13 14 -10 8 -16 14 -36 15 -42z m6556 -159 c-4 -15 -10 -39 -13 -55
-4 -23 -9 -27 -19 -19 -10 9 -10 19 4 56 18 47 38 61 28 18z m27 -131 c5 -26
4 -26 -9 -8 -15 21 -19 49 -5 41 5 -3 11 -18 14 -33z"/>
<path d="M16042 20777 c-7 -8 -9 -22 -6 -32 6 -15 16 -17 71 -12 72 5 92 17
68 37 -25 20 -118 25 -133 7z"/>
<path d="M14055 20757 c-53 -16 -65 -24 -65 -47 0 -24 16 -28 78 -20 67 8 88
33 56 64 -18 18 -15 18 -69 3z"/>
<path d="M16025 20624 c-26 -27 -1 -44 65 -44 31 0 78 -6 103 -14 40 -12 48
-12 58 0 16 20 -13 51 -60 64 -57 16 -147 13 -166 -6z"/>
<path d="M14008 20604 c-39 -17 -51 -33 -38 -54 7 -11 18 -10 62 3 29 9 67 18
83 19 22 2 31 9 33 26 3 20 0 22 -50 21 -29 0 -70 -7 -90 -15z"/>
<path d="M13242 20540 c-35 -16 -43 -24 -40 -42 2 -17 11 -24 30 -26 58 -7
134 55 97 79 -21 13 -40 11 -87 -11z"/>
<path d="M17257 20513 c-9 -8 12 -33 28 -33 7 0 24 -9 38 -20 40 -31 75 -23
61 14 -13 33 -106 61 -127 39z"/>
<path d="M14027 20472 c-49 -15 -88 -31 -88 -37 2 -12 178 -7 204 6 21 12 22
45 1 53 -20 8 -13 9 -117 -22z"/>
<path d="M16022 20472 c-8 -5 -12 -18 -10 -28 2 -14 18 -21 63 -30 33 -6 95
-23 138 -37 43 -15 82 -25 88 -22 20 13 8 46 -23 65 -64 40 -226 72 -256 52z"/>
<path d="M13345 20419 c-85 -36 -120 -63 -111 -85 9 -23 65 -13 146 28 65 33
86 62 58 79 -17 12 -13 12 -93 -22z"/>
<path d="M17107 20375 c-8 -19 -3 -21 110 -50 117 -30 123 -30 123 -6 0 26
-18 38 -85 56 -76 19 -141 20 -148 0z"/>
<path d="M13375 20267 c-58 -31 -80 -49 -80 -62 0 -11 7 -21 15 -23 19 -3 225
100 225 113 0 6 -18 11 -40 13 -31 2 -58 -7 -120 -41z"/>
<path d="M16940 20231 c0 -21 5 -23 166 -75 117 -38 139 -42 149 -26 20 32
-56 75 -185 105 -92 21 -130 20 -130 -4z"/>
<path d="M13196 20074 c-3 -9 -3 -20 0 -25 8 -13 34 9 34 27 0 19 -26 18 -34
-2z"/>
<path d="M17312 20038 c6 -16 36 -34 44 -26 3 4 4 14 1 23 -7 17 -51 21 -45 3z"/>
<path d="M11475 19614 c-28 -31 -32 -56 -10 -74 13 -11 21 -7 52 25 29 29 34
41 26 54 -16 26 -41 24 -68 -5z"/>
<path d="M11505 19454 c-38 -38 -44 -76 -14 -82 21 -4 107 56 115 80 16 51
-51 53 -101 2z"/>
<path d="M18963 19383 c-7 -18 29 -53 53 -53 20 0 28 25 14 49 -13 25 -58 28
-67 4z"/>
<path d="M11602 19308 c-57 -33 -92 -71 -92 -100 0 -44 29 -32 153 62 31 25
35 45 9 59 -13 7 -31 2 -70 -21z"/>
<path d="M11835 19310 c-8 -13 23 -33 41 -26 8 3 13 10 10 15 -8 12 -45 21
-51 11z"/>
<path d="M18886 19304 c-12 -12 -13 -20 -5 -35 12 -24 87 -79 106 -79 23 0 14
38 -18 75 -44 49 -64 59 -83 39z"/>
<path d="M18667 19204 c-13 -13 -7 -24 14 -24 11 0 19 5 17 12 -5 14 -22 21
-31 12z"/>
<path d="M18786 19177 c-29 -21 -12 -49 55 -95 70 -49 89 -52 89 -17 0 28 -86
125 -111 125 -8 0 -23 -6 -33 -13z"/>
<path d="M10702 19098 c-17 -17 -15 -57 3 -65 22 -8 57 26 53 51 -3 24 -37 33
-56 14z"/>
<path d="M10870 19014 c-43 -39 -51 -68 -21 -83 15 -9 27 -2 70 39 59 57 65
80 21 80 -20 0 -43 -12 -70 -36z"/>
<path d="M11048 18883 c-29 -25 -56 -52 -61 -59 -10 -17 1 -42 24 -49 26 -9
52 8 91 57 18 24 42 50 52 59 25 20 13 39 -24 39 -21 0 -45 -14 -82 -47z"/>
<path d="M19510 18822 c0 -23 40 -62 63 -62 25 0 21 33 -6 58 -28 27 -57 29
-57 4z"/>
<path d="M19337 18813 c-17 -17 -3 -44 48 -92 57 -54 78 -60 83 -23 5 31 -14
59 -60 92 -41 30 -59 36 -71 23z"/>
<path d="M19180 18755 c-10 -12 -8 -21 9 -49 29 -47 97 -106 121 -106 54 0 22
71 -58 133 -56 42 -55 42 -72 22z"/>
<path d="M10087 18472 c-19 -20 -23 -52 -7 -52 5 0 14 8 19 19 10 17 43 35 86
44 11 3 -3 5 -31 6 -38 1 -55 -4 -67 -17z"/>
<path d="M10172 18435 c-31 -14 -51 -40 -38 -52 3 -3 12 -1 19 5 8 7 17 9 21
5 4 -4 9 3 13 15 3 12 12 22 19 22 8 0 14 5 14 10 0 13 -8 12 -48 -5z"/>
<path d="M10170 18322 c-35 -5 -50 -22 -19 -22 24 0 58 16 49 22 -3 2 -16 2
-30 0z"/>
<path d="M10046 18278 c-9 -12 -16 -32 -15 -43 0 -11 3 -14 6 -7 2 6 11 12 18
12 7 0 15 14 17 30 5 36 -5 39 -26 8z"/>
<path d="M10167 18283 c-12 -11 -8 -23 7 -23 7 0 19 7 26 15 10 12 9 15 -7 15
-11 0 -23 -3 -26 -7z"/>
<path d="M10231 18229 c-35 -35 -49 -74 -34 -98 11 -17 31 -13 24 4 -15 44 13
92 57 97 34 4 42 28 9 28 -15 0 -38 -13 -56 -31z"/>
<path d="M10104 18239 c-3 -6 0 -18 9 -26 13 -13 14 -12 10 11 -6 29 -9 31
-19 15z"/>
<path d="M10135 18240 c-3 -5 -3 -15 1 -21 6 -11 23 6 24 24 0 10 -18 9 -25
-3z"/>
<path d="M10387 18143 c-9 -17 -33 -45 -54 -62 -27 -23 -33 -31 -20 -31 10 0
27 5 38 10 22 12 62 86 56 103 -2 7 -11 -2 -20 -20z"/>
<path d="M10510 18111 c-5 -11 -10 -30 -10 -43 0 -33 -10 -42 -57 -56 -23 -7
-45 -17 -48 -23 -4 -5 12 -32 36 -60 53 -64 80 -64 93 -1 8 39 11 42 41 42 46
0 60 20 45 65 -14 42 -56 95 -76 95 -7 0 -18 -9 -24 -19z"/>
<path d="M10200 18000 c-12 -8 -11 -10 8 -10 12 0 22 5 22 10 0 13 -11 13 -30
0z"/>
<path d="M9612 17498 c-18 -18 -15 -75 5 -82 23 -9 31 2 35 49 3 42 -15 58
-40 33z"/>
<path d="M9720 17432 c-43 -44 -63 -129 -35 -152 21 -17 45 4 45 39 0 14 12
44 25 66 29 47 31 61 9 69 -10 4 -26 -5 -44 -22z"/>
<path d="M9834 17320 c-36 -54 -46 -147 -19 -174 32 -31 45 -16 70 84 25 98
24 124 -2 128 -16 2 -29 -7 -49 -38z"/>
<path d="M20487 17113 c-12 -12 -7 -50 8 -63 21 -17 45 -5 45 23 0 35 -33 60
-53 40z"/>
<path d="M20372 17068 c-14 -14 -16 -44 -3 -52 5 -3 14 -26 20 -51 12 -48 26
-56 47 -27 43 56 -17 177 -64 130z"/>
<path d="M20234 17002 c-21 -13 -21 -37 -2 -75 10 -21 21 -55 22 -75 5 -51 30
-54 46 -6 28 85 -16 190 -66 156z"/>
<path d="M9611 16683 c-40 -48 -73 -136 -69 -182 2 -29 8 -37 26 -39 35 -5 49
13 54 72 2 30 17 78 32 110 15 30 25 60 21 66 -12 19 -34 10 -64 -27z"/>
<path d="M9417 16655 c-20 -20 -39 -79 -35 -107 2 -15 11 -24 27 -26 29 -5 38
8 46 70 4 26 11 51 16 54 5 3 7 10 4 15 -9 14 -42 11 -58 -6z"/>
<path d="M9238 16599 c-37 -21 -12 -85 29 -77 14 2 18 13 18 43 0 43 -15 53
-47 34z"/>
<path d="M20401 16341 c-12 -8 -11 -22 3 -92 20 -97 34 -120 60 -93 21 21 15
84 -14 152 -20 44 -26 48 -49 33z"/>
<path d="M20545 16311 c-8 -14 25 -143 41 -160 11 -12 16 -12 28 -1 20 16 20
51 1 97 -25 58 -55 87 -70 64z"/>
<path d="M20716 16252 c-3 -5 0 -25 6 -46 9 -29 16 -36 32 -34 28 4 35 57 10
75 -20 15 -40 17 -48 5z"/>
<path d="M20321 15976 c-15 -17 -11 -68 5 -73 13 -4 26 67 14 80 -4 4 -12 1
-19 -7z"/>
<path d="M8924 14736 c-3 -8 -4 -31 -2 -52 2 -31 7 -39 23 -39 16 0 21 8 25
41 3 23 4 46 2 53 -5 16 -42 14 -48 -3z"/>
<path d="M9066 14704 c-22 -21 -22 -112 0 -121 22 -8 35 9 44 59 12 65 -10 96
-44 62z"/>
<path d="M9190 14641 c-11 -22 -13 -64 -4 -98 4 -15 14 -23 29 -23 25 0 35 17
35 60 0 67 -37 104 -60 61z"/>
<path d="M20450 14421 c0 -24 27 -48 40 -35 6 6 4 18 -6 32 -19 27 -34 28 -34
3z"/>
<path d="M20511 14296 c-10 -12 -9 -26 3 -68 8 -29 18 -74 21 -100 5 -39 10
-48 25 -48 13 0 22 9 26 26 9 35 -2 158 -16 183 -12 24 -42 27 -59 7z"/>
<path d="M20847 14298 c-21 -11 -22 -41 -2 -58 23 -19 45 -4 45 29 0 32 -17
44 -43 29z"/>
<path d="M20676 14288 c-14 -8 -16 -18 -10 -56 11 -81 53 -94 68 -22 11 56
-20 99 -58 78z"/>
<path d="M9181 14113 c-21 -14 -23 -22 -19 -81 3 -48 9 -68 23 -78 33 -24 46
0 44 83 -2 83 -14 101 -48 76z"/>
<path d="M9027 13998 c-10 -55 5 -113 29 -116 39 -6 47 20 25 85 -23 67 -46
81 -54 31z"/>
<path d="M8920 13891 c-14 -28 18 -66 48 -57 28 9 28 40 0 60 -29 21 -35 20
-48 -3z"/>
<path d="M20487 13673 c-13 -22 -18 -115 -7 -128 32 -38 86 58 62 110 -11 24
-45 34 -55 18z"/>
<path d="M20620 13574 c-6 -15 -11 -47 -13 -73 -2 -40 1 -46 20 -49 43 -6 67
66 41 123 -15 32 -36 32 -48 -1z"/>
<path d="M20753 13492 c-6 -4 -11 -24 -11 -44 0 -33 3 -38 23 -38 31 0 42 33
21 65 -18 28 -17 27 -33 17z"/>
<path d="M9922 12258 c-7 -7 -12 -19 -12 -27 0 -30 40 -81 75 -98 31 -15 37
-15 50 -2 13 12 9 22 -27 77 -41 61 -62 74 -86 50z"/>
<path d="M9777 12193 c-18 -17 -4 -53 33 -87 71 -64 93 -39 39 46 -28 44 -55
59 -72 41z"/>
<path d="M9627 12153 c-15 -14 -6 -42 19 -62 48 -38 76 5 31 47 -24 23 -39 27
-50 15z"/>
<path d="M19782 11792 c-56 -50 -61 -62 -37 -82 22 -19 75 8 111 55 22 29 25
41 17 53 -17 29 -36 23 -91 -26z"/>
<path d="M10247 11793 c-19 -18 -4 -54 35 -88 49 -41 82 -53 103 -35 26 21 17
37 -46 84 -59 45 -79 53 -92 39z"/>
<path d="M19952 11724 c-27 -19 -55 -71 -48 -90 8 -21 31 -17 65 12 45 37 54
59 35 78 -19 20 -24 20 -52 0z"/>
<path d="M20082 11688 c-17 -17 -15 -45 3 -52 34 -13 66 24 44 50 -14 17 -31
18 -47 2z"/>
<path d="M10136 11654 c-11 -29 -6 -45 22 -71 50 -47 69 -56 91 -43 30 16 26
45 -11 74 -18 14 -41 32 -50 41 -23 19 -44 19 -52 -1z"/>
<path d="M10464 11639 c-7 -12 12 -29 33 -29 19 0 27 21 12 31 -19 12 -36 11
-45 -2z"/>
<path d="M10072 11518 c-34 -34 6 -90 48 -68 26 14 25 34 -2 60 -25 23 -30 24
-46 8z"/>
<path d="M19408 11492 c-33 -13 -128 -103 -128 -121 0 -33 25 -44 57 -27 45
23 115 103 111 128 -3 24 -15 30 -40 20z"/>
<path d="M19433 11334 c-45 -37 -55 -67 -27 -78 22 -9 60 17 84 57 38 61 5 73
-57 21z"/>
<path d="M19486 11189 c-14 -17 -26 -37 -26 -45 0 -25 38 -15 59 15 42 59 13
85 -33 30z"/>
<path d="M18810 10890 c0 -5 11 -10 24 -10 32 0 86 -46 86 -72 0 -20 -1 -21
-20 -3 -11 10 -23 15 -27 11 -4 -3 20 -35 54 -69 33 -34 73 -83 88 -110 l27
-48 -60 -77 c-65 -84 -137 -138 -171 -127 -11 3 -54 28 -96 56 -61 40 -80 47
-91 38 -17 -14 -38 1 -60 42 -23 46 -16 53 21 20 59 -51 62 -35 5 27 -30 31
-55 59 -57 61 -2 2 -3 -22 -3 -53 0 -64 -3 -61 128 -176 72 -63 114 -87 175
-100 23 -4 61 -15 83 -24 81 -30 152 15 207 132 29 61 29 66 17 120 -28 130
-40 152 -115 209 -38 29 -72 63 -75 75 -11 46 -140 117 -140 78z m306 -425
c-10 -48 -64 -134 -99 -155 -18 -11 -48 -19 -67 -19 l-35 1 32 8 c78 18 115
72 148 215 l7 30 10 -25 c5 -14 7 -38 4 -55z"/>
<path d="M18657 10784 c-16 -19 -40 -40 -53 -46 -28 -13 -32 -28 -8 -28 19 0
104 81 104 99 0 20 -14 12 -43 -25z"/>
<path d="M18600 10795 c-20 -24 -6 -28 15 -5 10 11 13 20 8 20 -6 0 -16 -7
-23 -15z"/>
<path d="M18880 10722 c0 -13 -6 -22 -15 -22 -8 0 -15 -6 -15 -14 0 -8 -6 -16
-12 -19 -7 -2 -10 -8 -5 -12 10 -11 61 28 65 50 2 9 -1 22 -7 28 -8 8 -11 5
-11 -11z"/>
<path d="M18700 10710 c0 -5 7 -10 15 -10 8 0 15 5 15 10 0 6 -7 10 -15 10 -8
0 -15 -4 -15 -10z"/>
<path d="M18923 10695 c0 -28 -28 -65 -50 -65 -7 0 -13 -7 -13 -15 0 -21 20
-18 52 8 26 21 33 40 30 80 -3 27 -19 20 -19 -8z"/>
<path d="M18666 10671 c-4 -7 -5 -15 -2 -18 9 -9 19 4 14 18 -4 11 -6 11 -12
0z"/>
<path d="M11564 10624 c8 -33 23 -51 33 -41 10 11 -10 60 -26 65 -11 4 -12 -2
-7 -24z"/>
<path d="M12405 10636 c-69 -20 -157 -60 -218 -100 -168 -108 -222 -253 -162
-431 45 -136 107 -221 209 -289 108 -72 148 -78 626 -96 476 -19 623 -57 881
-227 114 -76 205 -149 310 -249 60 -57 69 -62 95 -55 24 7 29 13 28 39 -2 35
-34 84 -155 238 -153 193 -329 345 -476 410 -173 77 -325 85 -678 34 -313 -45
-384 -48 -465 -21 -103 35 -163 80 -196 147 -35 72 -41 143 -19 219 20 72 89
143 185 194 53 29 75 35 125 35 100 -1 170 -53 170 -128 0 -55 -42 -136 -81
-156 -36 -18 -191 -27 -207 -11 -20 20 -65 13 -82 -13 -37 -56 28 -91 170 -90
106 0 178 24 243 80 115 98 142 263 61 374 -63 87 -235 132 -364 96z"/>
<path d="M18751 10573 c0 -7 -8 -10 -16 -7 -10 4 -15 0 -15 -14 0 -11 -8 -22
-17 -25 -17 -4 -17 -4 0 -12 24 -10 61 25 54 51 -3 11 -5 14 -6 7z"/>
<path d="M18775 10528 c-6 -13 -24 -27 -42 -33 -38 -11 -42 -21 -12 -30 16 -6
30 1 57 28 19 19 31 40 28 46 -11 17 -20 13 -31 -11z"/>
<path d="M17213 10505 c-127 -35 -253 -129 -298 -220 -24 -47 -27 -178 -7
-236 16 -46 66 -97 117 -120 57 -26 154 -25 189 2 14 11 26 24 26 29 0 21 -34
40 -73 40 -129 0 -187 69 -140 167 25 53 108 139 159 164 42 20 50 21 102 9
136 -29 212 -115 212 -239 0 -97 -35 -159 -114 -206 -66 -39 -145 -54 -349
-65 -333 -19 -444 -39 -608 -109 -199 -86 -373 -226 -552 -446 -99 -121 -116
-150 -100 -166 14 -14 50 9 281 182 313 234 387 262 806 314 411 50 497 83
659 249 132 136 162 195 162 321 0 84 -2 95 -34 153 -39 71 -99 129 -169 163
-60 29 -192 36 -269 14z"/>
<path d="M17964 10374 c-11 -26 -12 -40 -5 -47 16 -16 31 3 38 46 8 49 -13 49
-33 1z"/>
<path d="M15082 20868 c-21 -21 -14 -23 53 -23 36 0 65 3 65 7 0 25 -96 38
-118 16z"/>
<path d="M14917 20852 c-25 -27 -21 -31 20 -22 24 6 42 5 50 -2 15 -12 29 14
18 32 -10 17 -70 12 -88 -8z"/>
<path d="M15090 20791 c0 -12 36 -20 60 -14 11 3 17 9 14 14 -7 12 -74 12 -74
0z"/>
<path d="M14920 20780 c-8 -5 -13 -10 -10 -11 46 -9 80 -4 80 12 0 12 -51 11
-70 -1z"/>
<path d="M15012 20772 c-1 -13 -12 -41 -24 -62 -18 -31 -20 -42 -10 -52 9 -9
12 -8 12 5 0 10 7 28 16 42 9 14 14 37 11 57 -2 20 -4 24 -5 10z"/>
<path d="M15092 20680 c7 -10 14 -18 15 -16 6 6 -9 36 -18 36 -5 0 -4 -9 3
-20z"/>
<path d="M15010 20660 c0 -5 5 -10 11 -10 5 0 7 5 4 10 -3 6 -8 10 -11 10 -2
0 -4 -4 -4 -10z"/>
<path d="M15155 20558 c0 -41 2 -46 12 -31 17 22 17 69 1 76 -9 3 -13 -10 -13
-45z"/>
<path d="M14951 20558 c-1 -16 4 -28 9 -28 12 0 12 8 0 35 -8 18 -9 17 -9 -7z"/>
<path d="M15001 20569 c-37 -15 -17 -22 22 -8 26 9 42 9 67 0 35 -12 46 -9 35
8 -8 13 -91 13 -124 0z"/>
<path d="M18030 20111 c14 -4 25 -11 25 -16 1 -23 17 -36 30 -25 10 8 16 7 24
-7 9 -15 10 -15 11 -2 0 27 -43 59 -81 58 -30 -1 -31 -2 -9 -8z"/>
<path d="M18024 19985 c-25 -18 -15 -25 14 -9 13 6 20 14 14 18 -5 3 -18 -1
-28 -9z"/>
<path d="M18195 19987 c11 -7 20 -19 20 -27 0 -8 10 -16 23 -18 12 -2 22 -10
22 -20 0 -12 3 -13 11 -5 24 24 -38 84 -84 83 -7 -1 -3 -6 8 -13z"/>
<path d="M18136 19971 c-13 -14 -15 -24 -8 -38 5 -10 7 -24 5 -30 -3 -7 0 -13
5 -13 16 0 20 23 9 47 -7 16 -6 27 3 38 18 22 6 19 -14 -4z"/>
<path d="M18036 19961 c-4 -5 -2 -12 3 -15 5 -4 12 -2 15 3 4 5 2 12 -3 15 -5
4 -12 2 -15 -3z"/>
<path d="M18090 19910 c0 -5 7 -10 15 -10 8 0 15 5 15 10 0 6 -7 10 -15 10 -8
0 -15 -4 -15 -10z"/>
<path d="M17950 19900 c0 -5 12 -10 26 -10 14 0 23 4 19 10 -3 6 -15 10 -26
10 -10 0 -19 -4 -19 -10z"/>
<path d="M18046 19859 c12 -13 27 -34 33 -47 7 -12 16 -20 22 -17 14 9 -6 40
-43 66 l-33 23 21 -25z"/>
<path d="M18000 19825 c7 -8 16 -12 21 -9 13 8 1 24 -18 24 -13 0 -13 -3 -3
-15z"/>
<path d="M17874 19773 c19 -81 49 -104 131 -102 27 1 26 2 -14 15 -53 16 -79
38 -98 82 -16 39 -28 42 -19 5z"/>
<path d="M12348 20123 c-9 -10 -19 -28 -23 -41 -6 -22 -6 -22 32 4 23 15 47
24 60 21 13 -2 23 -1 23 4 0 11 -9 15 -46 23 -22 5 -34 2 -46 -11z"/>
<path d="M12392 20043 c-7 -2 -16 -12 -21 -21 -15 -28 45 -22 64 6 15 21 15
22 -7 21 -13 0 -29 -3 -36 -6z"/>
<path d="M12212 19940 c-24 -23 -32 -51 -9 -31 8 6 17 8 21 4 3 -4 15 3 26 14
33 36 -1 47 -38 13z"/>
<path d="M12301 19914 c-23 -29 -28 -69 -9 -80 8 -5 9 -2 5 10 -4 10 2 35 12
57 22 46 20 49 -8 13z"/>
<path d="M12390 19920 c0 -5 5 -10 10 -10 6 0 10 -7 10 -16 0 -8 5 -12 10 -9
16 10 12 23 -10 35 -14 7 -20 7 -20 0z"/>
<path d="M12360 19892 c0 -14 11 -21 26 -15 21 8 17 23 -6 23 -11 0 -20 -4
-20 -8z"/>
<path d="M12314 19866 c-8 -22 -2 -27 16 -16 12 7 12 12 3 21 -10 10 -14 9
-19 -5z"/>
<path d="M12423 19816 c-42 -11 -103 -59 -90 -72 3 -3 16 6 29 20 17 20 35 28
67 31 47 4 60 11 45 24 -5 4 -28 3 -51 -3z"/>
<path d="M12480 19658 c-34 -18 -63 -19 -120 -3 -24 7 -24 6 5 -19 17 -14 41
-25 55 -26 27 0 100 44 100 60 0 6 -1 9 -2 9 -2 -1 -19 -10 -38 -21z"/>
<path d="M19980 18144 c0 -3 13 -9 28 -15 15 -5 36 -23 46 -39 16 -28 46 -41
46 -20 0 19 -74 80 -97 80 -12 0 -23 -2 -23 -6z"/>
<path d="M19970 18090 c0 -5 5 -10 10 -10 6 0 10 -7 8 -16 -2 -9 7 -20 20 -25
29 -11 30 13 2 41 -22 22 -40 26 -40 10z"/>
<path d="M20135 17989 c-4 -6 9 -25 29 -44 20 -18 36 -40 36 -49 0 -9 5 -16
10 -16 21 0 9 43 -22 80 -35 42 -43 46 -53 29z"/>
<path d="M19900 17970 c-8 -5 -12 -11 -10 -14 8 -7 60 6 60 15 0 12 -31 11
-50 -1z"/>
<path d="M20001 17922 c-16 -15 -33 -26 -40 -24 -6 2 -11 -6 -11 -17 0 -24 10
-27 29 -8 11 10 13 8 8 -12 -4 -18 -3 -21 6 -12 6 6 12 22 12 36 1 13 10 34
20 45 27 30 7 24 -24 -8z"/>
<path d="M20090 17941 c0 -6 4 -11 10 -11 5 0 9 -10 7 -22 -1 -15 4 -23 16
-26 14 -3 18 1 15 18 -3 24 -48 62 -48 41z"/>
<path d="M19905 17930 c3 -5 13 -10 21 -10 8 0 12 5 9 10 -3 6 -13 10 -21 10
-8 0 -12 -4 -9 -10z"/>
<path d="M19830 17910 c0 -7 18 -32 40 -57 22 -25 40 -52 40 -59 0 -16 16 -19
25 -4 3 5 -15 35 -41 67 -49 60 -64 73 -64 53z"/>
<path d="M19740 17844 c-18 -47 -12 -81 21 -108 17 -14 36 -26 42 -26 7 0 4 5
-5 10 -22 13 -52 93 -46 125 7 32 0 32 -12 -1z"/>
<path d="M9060 15721 c-13 -26 -13 -98 1 -106 18 -12 23 4 10 28 -10 20 -10
30 3 60 15 38 5 52 -14 18z"/>
<path d="M9132 15710 c-23 -30 -26 -47 -16 -74 9 -24 37 -21 29 3 -3 11 -1 22
5 26 8 5 8 11 -1 21 -9 11 -9 18 1 29 7 9 11 18 8 20 -2 3 -14 -9 -26 -25z"/>
<path d="M9452 15623 c-7 -42 -19 -87 -27 -100 -16 -23 -10 -29 12 -15 20 13
43 79 43 124 0 77 -16 72 -28 -9z"/>
<path d="M9313 15674 c-3 -9 -6 -42 -7 -75 -1 -45 3 -62 18 -76 18 -17 19 -17
11 2 -18 42 -17 112 0 139 16 24 16 26 1 26 -9 0 -19 -7 -23 -16z"/>
<path d="M9197 15648 c-14 -11 -14 -16 -2 -32 7 -10 18 -15 24 -11 17 10 13
28 -4 21 -20 -7 -19 4 3 20 9 7 12 14 6 14 -5 0 -18 -6 -27 -12z"/>
<path d="M9206 15572 c-3 -6 -1 -14 5 -17 15 -10 25 3 12 16 -7 7 -13 7 -17 1z"/>
<path d="M9065 15530 c-7 -23 22 -81 45 -88 12 -4 11 -1 -2 15 -10 11 -18 36
-18 56 0 40 -15 50 -25 17z"/>
<path d="M9170 15545 c0 -10 61 -35 72 -29 6 4 -3 12 -22 20 -33 14 -50 17
-50 9z"/>
<path d="M9120 15521 c0 -19 30 -81 40 -81 7 0 4 51 -5 78 -9 27 -35 29 -35 3z"/>
<path d="M14650 15365 c-203 -43 -388 -175 -502 -356 -163 -258 -120 -560 112
-790 105 -104 252 -177 267 -132 2 6 -29 37 -69 69 -205 161 -268 260 -268
423 1 287 315 655 608 712 169 32 372 -35 510 -170 96 -93 128 -195 138 -441
5 -115 3 -159 -10 -214 -23 -96 -70 -179 -143 -252 -92 -92 -83 -125 19 -72
64 34 161 130 202 201 69 118 101 278 84 415 -41 330 -261 543 -627 607 -102
18 -234 18 -321 0z"/>
<path d="M14829 15066 c-3 -3 -39 -7 -80 -10 -175 -9 -284 -130 -297 -327 -14
-226 146 -405 375 -417 191 -10 348 94 403 267 24 76 25 127 5 205 -42 160
-170 267 -339 283 -34 3 -63 3 -67 -1z"/>
<path d="M20685 15394 c4 -11 11 -39 14 -64 l7 -45 13 38 c15 44 11 61 -20 78
-20 10 -21 9 -14 -7z"/>
<path d="M20644 15376 c4 -10 1 -25 -5 -32 -9 -11 -8 -15 4 -20 10 -3 13 -12
9 -22 -5 -15 -4 -15 11 -3 23 18 21 44 -4 72 -17 19 -20 20 -15 5z"/>
<path d="M20424 15318 c12 -38 28 -150 28 -195 0 -24 4 -43 8 -43 11 0 37 33
44 56 4 12 16 24 26 27 11 3 20 11 20 18 0 10 -3 10 -12 1 -16 -16 -28 -15
-28 2 0 8 -8 17 -17 20 -12 5 -14 9 -5 18 7 7 12 22 12 34 0 12 6 25 13 27 6
3 4 6 -7 6 -10 1 -29 12 -42 26 -29 32 -49 33 -40 3z"/>
<path d="M20385 15221 c-7 -24 2 -61 15 -61 5 0 6 17 3 38 -7 46 -9 49 -18 23z"/>
<path d="M20565 15220 c-4 -7 3 -8 22 -4 38 9 42 14 10 14 -14 0 -29 -5 -32
-10z"/>
<path d="M20707 15183 c4 -16 8 -45 8 -65 0 -46 8 -48 25 -7 12 27 11 36 -5
65 -22 41 -38 45 -28 7z"/>
<path d="M20663 15179 c3 -9 1 -21 -5 -27 -8 -8 -6 -16 7 -28 14 -15 18 -15
26 -3 14 22 11 34 -13 55 -17 16 -20 16 -15 3z"/>
<path d="M14677 13563 c-14 -14 -6 -23 12 -14 13 7 32 5 70 -10 50 -19 51 -19
42 0 -14 24 -106 43 -124 24z"/>
<path d="M14923 13556 c-42 -11 -71 -31 -62 -41 3 -3 25 4 48 16 24 11 56 21
72 21 15 1 26 5 23 10 -6 10 -27 9 -81 -6z"/>
<path d="M14680 13522 c0 -12 46 -32 75 -32 14 0 25 5 25 10 0 6 -14 10 -31
10 -17 0 -39 5 -50 10 -10 6 -19 7 -19 2z"/>
<path d="M14962 13513 c-36 -3 -52 -8 -49 -16 6 -17 76 -12 95 7 9 9 14 15 12
14 -3 -1 -29 -3 -58 -5z"/>
<path d="M14870 13390 c-13 -8 -12 -10 3 -10 9 0 17 5 17 10 0 12 -1 12 -20 0z"/>
<path d="M14795 13380 c3 -5 10 -10 16 -10 5 0 9 5 9 10 0 6 -7 10 -16 10 -8
0 -12 -4 -9 -10z"/>
<path d="M14755 13330 c-6 -10 56 -30 91 -30 35 0 84 12 84 21 0 4 -24 5 -54
2 -30 -3 -68 -1 -85 5 -17 6 -33 7 -36 2z"/>
<path d="M14830 13270 c0 -5 5 -10 10 -10 6 0 10 5 10 10 0 6 -4 10 -10 10 -5
0 -10 -4 -10 -10z"/>
<path d="M9572 13167 c32 -27 56 -123 39 -156 -17 -31 -12 -38 9 -12 47 56 2
191 -63 191 -7 0 0 -10 15 -23z"/>
<path d="M9182 13118 c-11 -42 -1 -88 20 -102 25 -15 34 1 14 23 -13 15 -17
32 -14 65 4 53 -8 61 -20 14z"/>
<path d="M9247 13105 c-7 -42 -3 -55 18 -55 11 0 13 8 8 33 -10 54 -20 62 -26
22z"/>
<path d="M9435 13129 c-23 -37 33 -159 73 -159 14 0 13 3 -4 18 -31 24 -44 55
-44 101 0 40 -13 61 -25 40z"/>
<path d="M9315 13069 c-11 -16 -2 -17 25 -2 24 12 24 13 3 13 -12 0 -25 -5
-28 -11z"/>
<path d="M9347 13046 c-4 -10 -5 -21 -2 -24 9 -9 17 6 13 25 -3 17 -4 17 -11
-1z"/>
<path d="M9350 12992 c0 -14 11 -21 26 -15 8 3 11 9 8 14 -7 11 -34 12 -34 1z"/>
<path d="M9309 12960 c25 -22 76 -27 87 -9 4 7 0 9 -13 5 -11 -4 -37 1 -59 9
l-39 16 24 -21z"/>
<path d="M9245 12920 c-18 -29 32 -110 68 -110 l21 0 -22 16 c-25 18 -51 64
-45 81 5 15 -14 26 -22 13z"/>
<path d="M9310 12907 c0 -10 12 -29 27 -43 39 -36 43 -9 4 29 -25 25 -31 28
-31 14z"/>
<path d="M20273 12660 c-54 -33 -67 -61 -53 -119 6 -27 18 -58 26 -68 13 -16
13 -15 4 10 -24 67 2 157 49 172 12 3 21 11 21 16 0 14 -11 11 -47 -11z"/>
<path d="M20583 12625 c4 -8 2 -17 -2 -19 -13 -8 -10 -57 3 -53 20 7 36 49 25
69 -12 21 -34 24 -26 3z"/>
<path d="M20346 12547 c-23 -73 -24 -76 -12 -79 11 -3 44 86 45 120 2 41 -14
23 -33 -41z"/>
<path d="M20645 12579 c-4 -13 -14 -32 -23 -42 -19 -21 -8 -35 16 -21 24 15
39 61 25 75 -8 8 -13 5 -18 -12z"/>
<path d="M20420 12546 c0 -9 5 -16 10 -16 6 0 10 4 10 9 0 6 -4 13 -10 16 -5
3 -10 -1 -10 -9z"/>
<path d="M20395 12489 c-4 -6 -5 -13 -2 -16 7 -7 27 6 27 18 0 12 -17 12 -25
-2z"/>
<path d="M20590 12412 c0 -17 -3 -37 -6 -46 -4 -11 -1 -16 10 -16 28 0 36 78
9 88 -9 2 -13 -7 -13 -26z"/>
<path d="M20516 12410 c-11 -12 -15 -23 -10 -32 5 -7 9 -16 9 -20 0 -17 21 -9
31 11 11 22 8 62 -5 60 -3 0 -14 -9 -25 -19z"/>
<path d="M14765 12241 c-6 -10 21 -41 36 -41 5 0 12 7 16 16 9 25 -38 47 -52
25z"/>
<path d="M14764 12135 c-9 -22 4 -35 36 -35 36 0 49 19 25 37 -25 17 -54 17
-61 -2z"/>
<path d="M14773 12043 c-16 -6 -17 -49 -3 -58 6 -4 22 1 36 9 20 14 22 20 14
36 -11 20 -23 23 -47 13z"/>
<path d="M10818 10984 c-18 -17 -5 -51 34 -91 40 -41 68 -54 68 -33 0 6 -7 10
-15 10 -22 0 -69 57 -75 92 -3 16 -8 26 -12 22z"/>
<path d="M10862 10939 c2 -7 10 -15 17 -17 8 -3 12 1 9 9 -2 7 -10 15 -17 17
-8 3 -12 -1 -9 -9z"/>
<path d="M10626 10873 c9 -38 31 -60 45 -46 8 8 5 19 -12 42 -28 38 -41 40
-33 4z"/>
<path d="M10732 10888 c-14 -14 -16 -38 -3 -38 5 0 11 11 13 25 6 29 6 29 -10
13z"/>
<path d="M10590 10854 c0 -43 28 -82 50 -69 8 5 6 11 -5 19 -9 6 -22 29 -30
51 l-14 40 -1 -41z"/>
<path d="M10760 10876 c0 -9 5 -16 10 -16 6 0 10 4 10 9 0 6 -4 13 -10 16 -5
3 -10 -1 -10 -9z"/>
<path d="M10796 10842 c-3 -6 -1 -14 5 -17 15 -10 25 3 12 16 -7 7 -13 7 -17
1z"/>
<path d="M10780 10810 l-45 -6 38 -8 c30 -7 42 -5 55 8 9 9 12 15 7 14 -6 0
-30 -4 -55 -8z"/>
<path d="M10734 10735 c-7 -18 20 -51 46 -57 25 -5 21 9 -10 42 -25 27 -31 29
-36 15z"/>
<path d="M10690 10705 c0 -24 38 -55 68 -55 l27 1 -32 14 c-17 7 -34 23 -38
34 -7 24 -25 28 -25 6z"/>
<path d="M19930 21873 c-60 -10 -153 -47 -207 -82 -171 -112 -320 -340 -347
-529 -31 -220 200 -497 454 -544 l60 -12 0 -38 c0 -22 7 -53 16 -70 14 -26 19
-29 47 -24 17 3 31 7 32 9 31 44 198 253 223 280 20 20 46 37 57 37 12 0 30 9
40 20 23 25 32 15 -140 149 l-130 102 -18 -22 c-17 -21 -16 -22 18 -60 38 -42
50 -76 40 -109 -4 -11 -33 -54 -65 -95 -66 -82 -90 -93 -177 -80 -100 15 -210
101 -232 181 -43 154 59 376 258 567 177 168 386 212 495 103 82 -82 85 -187
11 -338 l-28 -57 29 -25 c16 -14 31 -25 34 -25 6 0 233 293 237 306 2 5 -11
19 -28 32 l-30 23 -34 -39 -33 -38 -7 30 c-15 67 -28 96 -65 147 -64 90 -173
163 -287 193 -53 14 -164 18 -223 8z"/>
<path d="M9734 21812 l-32 -27 169 -525 c93 -289 172 -546 175 -571 4 -28 2
-55 -5 -67 -9 -17 -8 -27 4 -46 l16 -25 129 101 c129 100 129 100 112 123 -16
21 -19 22 -44 9 -15 -8 -40 -14 -55 -14 -53 1 -80 37 -122 163 l-29 85 129
101 c71 56 134 101 141 101 18 0 148 -92 174 -123 32 -38 32 -87 -1 -126 -23
-26 -24 -33 -13 -51 7 -11 19 -18 26 -15 7 2 95 69 196 147 180 141 183 143
168 166 -11 17 -21 22 -41 18 -14 -3 -48 2 -76 12 -27 10 -258 147 -512 305
-255 158 -466 287 -470 287 -5 0 -22 -13 -39 -28z m327 -419 c87 -60 158 -111
156 -115 -3 -9 -180 -148 -188 -148 -3 0 -33 75 -67 168 -33 92 -63 175 -67
185 -4 9 -4 17 0 17 3 0 78 -48 166 -107z"/>
<path d="M8885 20884 c-51 -8 -128 -35 -175 -61 -92 -52 -158 -113 -332 -307
-178 -200 -178 -200 -159 -220 19 -18 22 -19 38 -4 29 27 70 39 97 29 21 -9
685 -595 713 -631 18 -22 16 -82 -3 -109 -15 -21 -15 -24 3 -43 24 -23 8 -38
239 222 183 205 230 279 260 407 51 218 -89 485 -330 632 -108 65 -251 99
-351 85z m-20 -199 c222 -47 453 -250 515 -454 39 -123 20 -234 -52 -315 -67
-77 -8 -118 -611 423 l-218 195 58 59 c65 66 95 85 156 97 61 12 75 11 152 -5z"/>
<path d="M20910 20543 c-492 -197 -518 -206 -588 -208 -120 -4 -120 -10 6
-152 105 -120 107 -122 126 -103 18 18 18 20 2 55 -21 43 -14 84 18 114 23 22
176 91 201 91 17 0 231 -239 227 -253 -7 -24 -87 -150 -112 -177 -34 -37 -75
-39 -130 -7 -37 21 -40 21 -56 5 -16 -15 -7 -27 133 -185 182 -203 174 -197
198 -179 15 11 18 25 17 62 -3 61 -6 56 293 619 129 243 235 446 235 451 0 5
-12 24 -27 41 l-28 31 -515 -205z m145 -180 c-54 -92 -99 -169 -100 -170 -1
-2 -38 39 -83 89 -45 51 -78 96 -74 100 11 11 346 157 351 153 2 -2 -41 -80
-94 -172z"/>
<path d="M7005 10637 c15 -21 30 -35 33 -32 3 3 -9 20 -27 38 l-34 32 28 -38z"/>
</g>
</svg>
