<svg width="24" height="19" viewBox="0 0 24 19" fill="none" xmlns="http://www.w3.org/2000/svg">
<path d="M15.4 0C15.1621 0.426087 14.9501 0.866123 14.7651 1.31772C12.9476 1.03028 11.0961 1.03028 9.2786 1.31772C9.09363 0.866123 8.88161 0.426087 8.6437 0C6.93161 0.292534 5.26723 0.81643 3.69627 1.5573C0.887066 5.61142 -0.386931 10.5333 0.102496 15.4412C1.93321 16.8175 3.98791 17.8671 6.17597 18.5439C6.67421 17.8857 7.11886 17.1887 7.50567 16.4595C6.7918 16.1963 6.10565 15.8632 5.45722 15.4652C5.63507 15.3469 5.8033 15.2147 5.96035 15.0699C7.85122 15.9807 9.92304 16.4537 12.0218 16.4537C14.1206 16.4537 16.1925 15.9807 18.0833 15.0699C18.2511 15.2136 18.4188 15.3454 18.5865 15.4652C17.9345 15.8601 17.249 16.1968 16.538 16.4715C16.9088 17.2172 17.3416 17.9305 17.8318 18.6038C20.0171 17.9294 22.0683 16.8795 23.8933 15.5011C24.3945 10.5923 23.1194 5.6664 20.2995 1.6172C18.7462 0.860993 17.0983 0.317055 15.4 0ZM8.04474 12.6381C7.44528 12.5951 6.8858 12.3215 6.48375 11.8748C6.0817 11.428 5.86834 10.8429 5.88847 10.2423C5.8653 9.6408 6.07761 9.05401 6.48026 8.60662C6.88291 8.15923 7.44417 7.8865 8.04474 7.84641C8.6453 7.8865 9.20656 8.15923 9.60921 8.60662C10.0119 9.05401 10.2242 9.6408 10.201 10.2423C10.2242 10.8437 10.0119 11.4305 9.60921 11.8779C9.20656 12.3253 8.6453 12.598 8.04474 12.6381ZM15.999 12.6381C15.3995 12.5951 14.84 12.3215 14.438 11.8748C14.0359 11.428 13.8226 10.8429 13.8427 10.2423C13.8195 9.6408 14.0318 9.05401 14.4345 8.60662C14.8371 8.15923 15.3984 7.8865 15.999 7.84641C16.6006 7.88351 17.1637 8.15535 17.567 8.60343C17.9702 9.05151 18.1815 9.64 18.1552 10.2423C18.1815 10.8445 17.9702 11.433 17.567 11.8811C17.1637 12.3292 16.6006 12.601 15.999 12.6381Z" fill="#13B497"/>
</svg>
