<svg width="36" height="36" viewBox="0 0 36 36" fill="none" xmlns="http://www.w3.org/2000/svg">
<g clip-path="url(#clip0_473_11779)">
<path d="M18 0C14.4399 0 10.9598 1.05568 7.99974 3.03355C5.03966 5.01141 2.73255 7.82263 1.37018 11.1117C0.00779915 14.4008 -0.348661 18.02 0.345873 21.5116C1.04041 25.0033 2.75474 28.2106 5.27209 30.7279C7.78943 33.2453 10.9967 34.9596 14.4884 35.6541C17.98 36.3487 21.5992 35.9922 24.8883 34.6298C28.1774 33.2674 30.9886 30.9603 32.9665 28.0003C34.9443 25.0402 36 21.5601 36 18C36 15.6362 35.5344 13.2956 34.6298 11.1117C33.7253 8.92783 32.3994 6.94353 30.7279 5.27208C29.0565 3.60062 27.0722 2.27475 24.8883 1.37017C22.7044 0.465584 20.3638 0 18 0ZM18 32.4C15.152 32.4 12.3679 31.5554 9.99979 29.9732C7.63173 28.3909 5.78604 26.1419 4.69614 23.5106C3.60624 20.8794 3.32107 17.984 3.8767 15.1907C4.43233 12.3974 5.80379 9.83154 7.81767 7.81766C9.83154 5.80378 12.3974 4.43232 15.1907 3.87669C17.984 3.32106 20.8794 3.60623 23.5106 4.69613C26.1419 5.78604 28.3909 7.63172 29.9732 9.99979C31.5555 12.3679 32.4 15.1519 32.4 18C32.4 21.8191 30.8829 25.4818 28.1823 28.1823C25.4818 30.8829 21.8191 32.4 18 32.4Z" fill="#28CCAB"/>
<path d="M18 16.25C14.25 16.25 14.25 15.1475 14.25 14.5C14.25 13.8525 15.5625 12.75 18 12.75C20.4375 12.75 20.6062 13.87 20.625 14.5H24.375C24.3497 13.3078 23.8902 12.1592 23.0724 11.2432C22.2545 10.3271 21.1268 9.69825 19.875 9.46V7.5H16.125V9.4075C12.375 9.985 10.5 12.2425 10.5 14.5C10.5 16.46 11.475 19.75 18 19.75C21.75 19.75 21.75 20.94 21.75 21.5C21.75 22.06 20.5875 23.25 18 23.25C14.55 23.25 14.25 21.745 14.25 21.5H10.5C10.5 23.11 11.7375 25.9625 16.125 26.61V28.5H19.875V26.61C23.625 26.015 25.5 23.7575 25.5 21.5C25.5 19.54 24.525 16.25 18 16.25Z" fill="#28CCAB"/>
</g>
<defs>
<clipPath id="clip0_473_11779">
<rect width="36" height="36" fill="white"/>
</clipPath>
</defs>
</svg>
