<svg width="24" height="80" viewBox="0 0 24 80" fill="none" xmlns="http://www.w3.org/2000/svg">
<path d="M11.7487 72.592L0.5 79.131L0.500004 0.499999L23.5 0.5L23.5 79.131L12.2513 72.592L12 72.446L11.7487 72.592Z" fill="#2A3046" stroke="#FF6691"/>
<path d="M16 64.4133L8.08 64.4133L8.08 58.4733L9.412 58.4733L9.412 62.7573L11.38 62.7573L11.38 59.3853L12.652 59.3853L12.652 62.7573L14.668 62.7573L14.668 58.3053L16 58.3053L16 64.4133ZM16 48.1436L16 49.8596L14.068 50.5196L14.068 53.5556L16 54.2156L16 55.9076L8.08 53.0156L8.08 51.0356L16 48.1436ZM12.844 53.1836L12.844 50.8916L9.388 52.0436L12.844 53.1836ZM8.08 41.6768C8.08 40.7808 8.296 40.0768 8.728 39.5648C9.16 39.0528 9.74 38.7968 10.468 38.7968C11.244 38.7968 11.84 39.0528 12.256 39.5648C12.664 40.0768 12.868 40.7768 12.868 41.6648L12.964 41.8328L12.964 43.5368L16 43.5368L16 45.1688L8.08 45.1688L8.08 41.6768ZM11.704 41.8688C11.704 41.4048 11.612 41.0608 11.428 40.8368C11.236 40.6048 10.944 40.4888 10.552 40.4888C10.16 40.4888 9.872 40.6048 9.688 40.8368C9.496 41.0608 9.4 41.4048 9.4 41.8688L9.4 43.5368L11.704 43.5368L11.704 41.8688ZM12.052 40.8968L16 38.3288L16 40.1888L12.532 42.3128L12.052 40.8968ZM8.08 28.4085L16 28.4085L16 30.3045L11.344 33.0765L10.048 33.7605L10.048 33.7725L11.416 33.7245L16 33.7245L16 35.2125L8.08 35.2125L8.08 33.3285L12.724 30.5565L14.032 29.8725L14.032 29.8485L12.664 29.8965L8.08 29.8965L8.08 28.4085ZM16 24.5414L8.08 24.5414L8.08 18.6014L9.412 18.6014L9.412 22.8854L11.38 22.8854L11.38 19.5134L12.652 19.5134L12.652 22.8854L14.668 22.8854L14.668 18.4334L16 18.4334L16 24.5414ZM8.08 12.0877C8.08 10.8477 8.424 9.88769 9.112 9.20769C9.792 8.52769 10.768 8.18769 12.04 8.18769C13.304 8.18769 14.28 8.52769 14.968 9.20769C15.656 9.88769 16 10.8477 16 12.0877L16 15.1477L8.08 15.1477L8.08 12.0877ZM14.68 12.1717C14.68 11.4197 14.456 10.8557 14.008 10.4797C13.552 10.0957 12.896 9.90369 12.04 9.90369C11.184 9.90369 10.532 10.0957 10.084 10.4797C9.628 10.8557 9.4 11.4197 9.4 12.1717L9.4 13.4917L14.68 13.4917L14.68 12.1717Z" fill="#FF6691"/>
</svg>
