<svg width="50" height="50" viewBox="0 0 50 50" fill="none" xmlns="http://www.w3.org/2000/svg">
<path d="M42.4375 17.1716C42.9277 16.781 43.1211 16.1247 42.9258 15.531C40.7891 9.064 32.9158 4 24.9998 4C17.0838 4 9.21079 9.0645 7.07579 15.5295C6.87852 16.1233 7.07383 16.7795 7.56407 17.1701C8.05235 17.5627 8.73397 17.6076 9.27307 17.2853C12.8356 15.1486 16.2671 13.6857 21.2126 13.1935L20.57 41.465C20.5114 43.9553 22.5094 46.0002 24.9997 46.0002C27.4899 46.0002 29.488 43.9553 29.4313 41.467L28.7887 13.1955C33.7321 13.6857 37.1657 15.1486 40.7282 17.2873C41.2634 17.6076 41.947 17.5646 42.4372 17.1721L42.4375 17.1716ZM23.5685 41.5331L24.215 13.0231C24.4826 13.0172 25.5197 13.0172 25.7853 13.0231L26.4318 41.5331C26.4767 43.455 23.5236 43.4589 23.5685 41.5331ZM25.0002 10.0001C19.8087 10.0001 15.9727 10.8322 12.6017 12.2208C15.59 9.12705 20.3402 7.0003 25.0002 7.0003C29.6602 7.0003 34.4102 9.12725 37.3987 12.2208C34.0276 10.8322 30.1917 10.0001 25.0002 10.0001Z" fill="#28CCAB"/>
<path d="M8.5 32.5C10.4531 32.5 12.1015 31.2422 12.7226 29.5H17.5C18.3281 29.5 19 28.8281 19 28C19 27.1719 18.3281 26.5 17.5 26.5H12.7226C12.1015 24.7578 10.4531 23.5 8.5 23.5C6.0176 23.5 4 25.5176 4 28C4 30.4824 6.0176 32.5 8.5 32.5ZM8.5 26.5C9.32615 26.5 10 27.1719 10 28C10 28.8281 9.32615 29.5 8.5 29.5C7.67385 29.5 7 28.8281 7 28C7 27.1719 7.67385 26.5 8.5 26.5Z" fill="#80FFE5"/>
<path d="M17.5 35.5C18.3281 35.5 19 34.8281 19 34C19 33.1719 18.3281 32.5 17.5 32.5H14.5C14.0274 32.5 13.5821 32.7227 13.3008 33.0996L11.3321 35.7226C8.30081 34.7754 5.50006 37.0938 5.50006 40C5.50006 42.4824 7.51766 44.5 10.0001 44.5C13.6016 44.5 15.7206 40.4707 13.7423 37.508L15.2501 35.5002L17.5 35.5ZM10 41.5C9.17386 41.5 8.50001 40.8281 8.50001 40C8.50001 39.1719 9.17386 38.5 10 38.5C10.8262 38.5 11.5 39.1719 11.5 40C11.5 40.8281 10.8262 41.5 10 41.5Z" fill="#80FFE5"/>
<path d="M32.5 38.5H37.2774C37.8985 40.2422 39.5469 41.5 41.5 41.5C43.9824 41.5 46 39.4824 46 37C46 34.5176 43.9824 32.5 41.5 32.5C39.5469 32.5 37.8985 33.7578 37.2774 35.5H32.5C31.6719 35.5 31 36.1719 31 37C31 37.8281 31.6719 38.5 32.5 38.5ZM41.5 35.5C42.3262 35.5 43 36.1719 43 37C43 37.8281 42.3262 38.5 41.5 38.5C40.6739 38.5 40 37.8281 40 37C40 36.1719 40.6739 35.5 41.5 35.5Z" fill="#80FFE5"/>
<path d="M32.5 29.5C31.6719 29.5 31 30.1719 31 31C31 31.8281 31.6719 32.5 32.5 32.5H35.5C35.9727 32.5 36.418 32.2773 36.6992 31.9004L38.668 29.2774C41.6992 30.2246 44.5 27.9063 44.5 25C44.5 22.5176 42.4824 20.5 40 20.5C36.3984 20.5 34.2795 24.5293 36.2578 27.492L34.75 29.4998L32.5 29.5ZM40 23.5C40.8262 23.5 41.5 24.1739 41.5 25C41.5 25.8262 40.8262 26.5 40 26.5C39.1739 26.5 38.5 25.8262 38.5 25C38.5 24.1739 39.1739 23.5 40 23.5Z" fill="#80FFE5"/>
</svg>
