<svg width="50" height="50" viewBox="0 0 50 50" fill="none" xmlns="http://www.w3.org/2000/svg">
<path d="M9.375 23.4368H6.25C5.3867 23.4368 4.6875 22.7376 4.6875 21.8743V13.2803C4.6875 10.6924 6.7871 8.59276 9.375 8.59276H16.547L15.297 9.82716C15.0021 10.1201 14.8341 10.5205 14.8341 10.9366C14.8341 11.3526 15.0021 11.753 15.297 12.046C15.59 12.3409 15.9904 12.5089 16.4064 12.5089C16.8225 12.5089 17.2228 12.3409 17.5158 12.046L21.4221 8.13971C21.717 7.84674 21.8849 7.44636 21.8849 7.03031C21.8849 6.61426 21.717 6.21391 21.4221 5.92091L17.5158 2.01466C16.9025 1.40136 15.9104 1.40136 15.2971 2.01466C14.6838 2.62796 14.6838 3.62011 15.2971 4.23341L16.5471 5.46781H9.37505C7.3028 5.46781 5.31645 6.29006 3.85155 7.75686C2.38475 9.22171 1.5625 11.208 1.5625 13.2804V21.8744C1.5625 24.4623 3.6621 26.5619 6.25 26.5619H9.375C10.2383 26.5619 10.9375 25.8627 10.9375 24.9994C10.9375 24.1361 10.2383 23.4369 9.375 23.4369V23.4368Z" fill="#80FFE5"/>
<path d="M43.75 23.4366H40.625C39.7617 23.4366 39.0625 24.1358 39.0625 24.9991C39.0625 25.8624 39.7617 26.5616 40.625 26.5616H43.75C44.1641 26.5616 44.5625 26.7257 44.8555 27.0187C45.1484 27.3116 45.3125 27.7101 45.3125 28.1241V36.7181C45.3125 39.306 43.2129 41.4056 40.625 41.4056H33.453L34.703 40.1712C35.3163 39.5579 35.3163 38.5658 34.703 37.9525C34.0897 37.3392 33.0976 37.3392 32.4843 37.9525L28.578 41.8587C28.2831 42.1517 28.1151 42.5521 28.1151 42.9681C28.1151 43.3842 28.2831 43.7845 28.578 44.0775L32.4843 47.9838C32.7772 48.2787 33.1776 48.4467 33.5937 48.4467C34.0097 48.4467 34.4101 48.2787 34.7031 47.9838C34.998 47.6908 35.1659 47.2904 35.1659 46.8744C35.1659 46.4583 34.998 46.058 34.7031 45.765L33.4531 44.5306H40.6251C42.6973 44.5306 44.6837 43.7083 46.1486 42.2415C47.6154 40.7767 48.4376 38.7904 48.4376 36.718V28.124C48.4376 25.5361 46.338 23.4365 43.7501 23.4365L43.75 23.4366Z" fill="#80FFE5"/>
<path d="M28.125 25C28.125 26.7265 26.7266 28.125 25 28.125C23.2735 28.125 21.875 26.7265 21.875 25C21.875 23.2734 23.2735 21.875 25 21.875C26.7266 21.875 28.125 23.2734 28.125 25Z" fill="#28CCAB"/>
<path d="M37.5 24.9991C37.5 21.6847 36.1836 18.5051 33.8379 16.1611C31.4941 13.8154 28.3144 12.499 24.9999 12.499C21.6854 12.499 18.5059 13.8154 16.1619 16.1611C13.8162 18.5049 12.4998 21.6846 12.4998 24.9991C12.4998 28.3136 13.8162 31.4931 16.1619 33.8371C18.5056 36.1828 21.6854 37.4992 24.9999 37.4992C28.3144 37.4992 31.4939 36.1828 33.8379 33.8371C36.1836 31.4934 37.5 28.3136 37.5 24.9991ZM25 31.2491C22.4726 31.2491 20.1933 29.7257 19.2265 27.3917C18.2577 25.0558 18.7929 22.3662 20.58 20.5792C22.3671 18.7921 25.0565 18.257 27.3925 19.2257C29.7265 20.1925 31.2499 22.4718 31.2499 24.9992C31.2499 26.6574 30.5917 28.2473 29.4198 29.4191C28.2479 30.591 26.6581 31.2492 24.9999 31.2492L25 31.2491Z" fill="#28CCAB"/>
</svg>
