<?xml version="1.0" encoding="utf-8"?>
<!-- Generator: Adobe Illustrator 19.0.0, SVG Export Plug-In . SVG Version: 6.00 Build 0)  -->
<svg version="1.1" id="Layer_1" xmlns="http://www.w3.org/2000/svg" xmlns:xlink="http://www.w3.org/1999/xlink" x="0px" y="0px"
	 viewBox="0 0 100 100" style="enable-background:new 0 0 100 100;" xml:space="preserve">
<style type="text/css">
	.st0{fill:#FFFFFF;}
	.st1{fill:#6ABD45;}
	.st2{fill:#129C49;}
	.st3{fill:#FAEC83;}
	.st4{fill:#F8951D;}
</style>
<path id="XMLID_50_" class="st0" d="M50,24.4c1.8,0,3.3,1.6,3.3,3.5c0,0.8,0.5,1.4,1.2,1.4c0.7,0,1.2-0.6,1.2-1.4
	c0-2.7-1.7-5.2-4.1-6l-0.4-0.1v-0.7c0-0.8-0.5-1.4-1.2-1.4c-0.7,0-1.2,0.6-1.2,1.4v0.7L48.4,22c-2.4,0.8-4.1,3.2-4.1,6
	c0,3.5,2.6,6.3,5.7,6.3c1.8,0,3.3,1.6,3.3,3.5c0,1.9-1.5,3.5-3.3,3.5c-1.8,0-3.3-1.6-3.3-3.5c0-0.8-0.5-1.4-1.2-1.4
	c-0.7,0-1.2,0.6-1.2,1.4c0,2.7,1.7,5.2,4.1,6l0.4,0.1v1c0,0.8,0.5,1.4,1.2,1.4c0.7,0,1.2-0.6,1.2-1.4v-1l0.4-0.1
	c2.4-0.8,4.1-3.2,4.1-6c0-3.5-2.6-6.3-5.7-6.3c-1.8,0-3.3-1.6-3.3-3.5S48.2,24.4,50,24.4z"/>
<path id="XMLID_113_" class="st0" d="M85.2,48.8L66.6,38.6l0.1-0.5c0.4-1.7,0.6-3.5,0.6-5.2c0-11-7.8-20-17.3-20s-17.3,9-17.3,20
	c0,1.7,0.2,3.5,0.6,5.2l0.1,0.5L14.8,48.8c-0.4,0.2-0.7,0.7-0.7,1.2v3.5c0,0.8,0.5,1.4,1.2,1.4s1.2-0.6,1.2-1.4v-2.6l17.7-9.8
	l0.3,0.6c2.7,6.2,7.8,10.3,13.7,11l0.5,0.1v8.2c0,0.8,0.5,1.4,1.2,1.4c0.7,0,1.2-0.6,1.2-1.4v-8.2l0.5-0.1c5.9-0.7,11.1-4.8,13.7-11
	l0.3-0.6l17.7,9.8v2.6c0,0.8,0.5,1.4,1.2,1.4s1.2-0.6,1.2-1.4v-3.5C85.8,49.5,85.6,49.1,85.2,48.8z M50,50.1
	c-8.2,0-14.9-7.7-14.9-17.2c0-9.5,6.7-17.2,14.9-17.2c8.2,0,14.9,7.7,14.9,17.2C64.9,42.3,58.2,50.1,50,50.1z"/>
<path id="XMLID_109_" class="st1" d="M50,25.1c1.5,0,2.8,1.3,2.8,2.8c0,1.1,0.8,2,1.8,2c1,0,1.8-0.9,1.8-2c0-3.1-1.9-5.8-4.5-6.6
	v-0.2c0-1.1-0.8-2-1.8-2c-1,0-1.8,0.9-1.8,2v0.2c-2.6,0.8-4.5,3.5-4.5,6.6c0,3.8,2.8,6.9,6.3,6.9c1.5,0,2.8,1.3,2.8,2.8
	c0,1.6-1.2,2.8-2.8,2.8c-1.5,0-2.8-1.3-2.8-2.8c0-1.1-0.8-2-1.8-2c-1,0-1.8,0.9-1.8,2c0,3.1,1.9,5.8,4.5,6.6v0.5c0,1.1,0.8,2,1.8,2
	c1,0,1.8-0.9,1.8-2v-0.5c2.6-0.8,4.5-3.5,4.5-6.6c0-3.8-2.8-6.9-6.3-6.9c-1.5,0-2.8-1.3-2.8-2.8C47.2,26.4,48.5,25.1,50,25.1z
	 M50,32.1c2.8,0,5.1,2.5,5.1,5.6c0,2.5-1.5,4.6-3.7,5.3l-0.8,0.3v1v0.5c0,0.4-0.3,0.7-0.6,0.7c-0.3,0-0.6-0.3-0.6-0.7v-0.5v-1
	L48.5,43c-2.2-0.7-3.7-2.9-3.7-5.3c0-0.4,0.3-0.7,0.6-0.7c0.3,0,0.6,0.3,0.6,0.7c0,2.3,1.8,4.2,3.9,4.2c2.2,0,3.9-1.9,3.9-4.2
	c0-2.3-1.8-4.2-3.9-4.2c-2.8,0-5.1-2.5-5.1-5.6c0-2.5,1.5-4.6,3.7-5.3l0.8-0.3v-1v-0.2c0-0.4,0.3-0.7,0.6-0.7c0.3,0,0.6,0.3,0.6,0.7
	v0.2v1l0.8,0.3c2.2,0.7,3.7,2.9,3.7,5.3c0,0.4-0.3,0.7-0.6,0.7c-0.3,0-0.6-0.3-0.6-0.7c0-2.3-1.8-4.2-3.9-4.2
	c-2.2,0-3.9,1.9-3.9,4.2C46.1,30.2,47.8,32.1,50,32.1z"/>
<path id="XMLID_106_" class="st1" d="M50,14.9c-8.5,0-15.5,8-15.5,17.9c0,9.9,7,17.9,15.5,17.9s15.5-8,15.5-17.9
	C65.5,23,58.5,14.9,50,14.9z M50,49.4c-7.9,0-14.3-7.4-14.3-16.6S42.1,16.3,50,16.3c7.9,0,14.3,7.4,14.3,16.6S57.9,49.4,50,49.4z"/>
<path id="XMLID_103_" class="st1" d="M85.4,48.2l-18.2-10c0.4-1.7,0.6-3.5,0.6-5.4c0-11.4-8-20.7-17.9-20.7
	c-9.9,0-17.9,9.3-17.9,20.7c0,1.9,0.2,3.7,0.6,5.4l-18.2,10c-0.6,0.3-1,1.1-1,1.8v3.5c0,1.1,0.8,2,1.8,2s1.8-0.9,1.8-2v-2.2L34,42
	c2.7,6.2,8,10.6,14.2,11.3v7.6c0,1.1,0.8,2,1.8,2c1,0,1.8-0.9,1.8-2v-7.6C58,52.7,63.3,48.2,66,42l16.9,9.3v2.2c0,1.1,0.8,2,1.8,2
	c1,0,1.8-0.9,1.8-2v-3.5C86.4,49.3,86,48.6,85.4,48.2z M85.3,53.6c0,0.4-0.3,0.7-0.6,0.7S84,54,84,53.6v-2.2v-0.8l-0.7-0.4
	l-16.9-9.3l-1-0.6l-0.5,1.2c-2.6,6-7.6,9.9-13.3,10.6l-1,0.1v1.2v7.6c0,0.4-0.3,0.7-0.6,0.7c-0.3,0-0.6-0.3-0.6-0.7v-7.6v-1.2
	l-1-0.1c-5.7-0.7-10.7-4.6-13.3-10.6l-0.5-1.2l-1,0.6l-16.9,9.3L16,50.5v0.8v2.2c0,0.4-0.3,0.7-0.6,0.7s-0.6-0.3-0.6-0.7v-3.5
	c0-0.3,0.1-0.5,0.3-0.6l18.2-10l0.9-0.5l-0.3-1.1c-0.4-1.7-0.6-3.4-0.6-5c0-10.7,7.5-19.3,16.7-19.3s16.7,8.7,16.7,19.3
	c0,1.6-0.2,3.3-0.6,5l-0.3,1.1l0.9,0.5l18.2,10c0.2,0.1,0.3,0.4,0.3,0.6V53.6z"/>
<path id="XMLID_100_" class="st2" d="M85.4,48.2l-18.2-10c0.4-1.7,0.6-3.5,0.6-5.4c0-11.4-8-20.7-17.9-20.7
	c-9.9,0-17.9,9.3-17.9,20.7c0,1.9,0.2,3.7,0.6,5.4l-18.2,10c-0.6,0.3-1,1.1-1,1.8v3.5c0,1.1,0.8,2,1.8,2s1.8-0.9,1.8-2v-2.2L34,42
	c2.7,6.2,8,10.6,14.2,11.3v7.6c0,1.1,0.8,2,1.8,2c1,0,1.8-0.9,1.8-2v-7.6C58,52.7,63.3,48.2,66,42l16.9,9.3v2.2c0,1.1,0.8,2,1.8,2
	c1,0,1.8-0.9,1.8-2v-3.5C86.4,49.3,86,48.6,85.4,48.2z M85.8,53.6c0,0.8-0.5,1.4-1.2,1.4c-0.7,0-1.2-0.6-1.2-1.4v-2.2v-0.4l-0.3-0.2
	l-16.9-9.3l-0.5-0.3l-0.3,0.6c-2.7,6.2-7.8,10.3-13.7,11l-0.5,0.1v0.6v7.6c0,0.8-0.5,1.4-1.2,1.4c-0.7,0-1.2-0.6-1.2-1.4v-7.6v-0.6
	l-0.5-0.1c-5.9-0.7-11.1-4.8-13.7-11l-0.3-0.6l-0.5,0.3l-16.9,9.3l-0.3,0.2v0.4v2.2c0,0.8-0.5,1.4-1.2,1.4s-1.2-0.6-1.2-1.4v-3.5
	c0-0.5,0.3-1,0.7-1.2l18.2-10l0.4-0.2L33.3,38c-0.4-1.7-0.6-3.5-0.6-5.2c0-11,7.8-20,17.3-20s17.3,9,17.3,20c0,1.7-0.2,3.5-0.6,5.2
	l-0.1,0.5l0.4,0.2l18.2,10c0.4,0.2,0.7,0.7,0.7,1.2V53.6z"/>
<path id="XMLID_97_" class="st2" d="M50,25.1c1.5,0,2.8,1.3,2.8,2.8c0,1.1,0.8,2,1.8,2c1,0,1.8-0.9,1.8-2c0-3.1-1.9-5.8-4.5-6.6
	v-0.2c0-1.1-0.8-2-1.8-2c-1,0-1.8,0.9-1.8,2v0.2c-2.6,0.8-4.5,3.5-4.5,6.6c0,3.8,2.8,6.9,6.3,6.9c1.5,0,2.8,1.3,2.8,2.8
	c0,1.6-1.2,2.8-2.8,2.8c-1.5,0-2.8-1.3-2.8-2.8c0-1.1-0.8-2-1.8-2c-1,0-1.8,0.9-1.8,2c0,3.1,1.9,5.8,4.5,6.6v0.5c0,1.1,0.8,2,1.8,2
	c1,0,1.8-0.9,1.8-2v-0.5c2.6-0.8,4.5-3.5,4.5-6.6c0-3.8-2.8-6.9-6.3-6.9c-1.5,0-2.8-1.3-2.8-2.8C47.2,26.4,48.5,25.1,50,25.1z
	 M46.7,27.9c0,1.9,1.5,3.5,3.3,3.5c3.2,0,5.7,2.8,5.7,6.3c0,2.7-1.7,5.2-4.1,6l-0.4,0.1v0.5v0.5c0,0.8-0.5,1.4-1.2,1.4
	c-0.7,0-1.2-0.6-1.2-1.4v-0.5v-0.5l-0.4-0.1c-2.4-0.8-4.1-3.2-4.1-6c0-0.8,0.5-1.4,1.2-1.4c0.7,0,1.2,0.6,1.2,1.4
	c0,1.9,1.5,3.5,3.3,3.5c1.8,0,3.3-1.6,3.3-3.5c0-1.9-1.5-3.5-3.3-3.5c-3.2,0-5.7-2.8-5.7-6.3c0-2.7,1.7-5.2,4.1-6l0.4-0.1v-0.5v-0.2
	c0-0.8,0.5-1.4,1.2-1.4c0.7,0,1.2,0.6,1.2,1.4v0.2v0.5l0.4,0.1c2.4,0.8,4.1,3.2,4.1,6c0,0.8-0.5,1.4-1.2,1.4c-0.7,0-1.2-0.6-1.2-1.4
	c0-1.9-1.5-3.5-3.3-3.5C48.2,24.4,46.7,26,46.7,27.9z"/>
<path id="XMLID_94_" class="st2" d="M50,15.6c-8.2,0-14.9,7.7-14.9,17.2c0,9.5,6.7,17.2,14.9,17.2c8.2,0,14.9-7.7,14.9-17.2
	C64.9,23.3,58.2,15.6,50,15.6z M50,49.4c-7.9,0-14.3-7.4-14.3-16.6S42.1,16.3,50,16.3c7.9,0,14.3,7.4,14.3,16.6S57.9,49.4,50,49.4z"
	/>
<g id="XMLID_32_">
	<path id="XMLID_91_" class="st0" d="M21.4,80.7l-0.9-0.5l0.8-0.7c2.4-2.1,3.7-5.4,3.7-8.8c0-6.2-4.3-11.2-9.7-11.2
		c-5.3,0-9.7,5-9.7,11.2c0,3.5,1.4,6.7,3.7,8.8l0.8,0.7l-0.9,0.5C4,83.4,0.6,89.5,0.6,96.2c0,0.8,0.5,1.4,1.2,1.4S3,97,3,96.2
		c0-7.9,5.6-14.3,12.4-14.3c6.8,0,12.4,6.4,12.4,14.3c0,0.8,0.5,1.4,1.2,1.4c0.7,0,1.2-0.6,1.2-1.4C30.1,89.5,26.7,83.4,21.4,80.7z
		 M15.4,79.2c-4,0-7.3-3.8-7.3-8.4c0-4.6,3.3-8.4,7.3-8.4c4,0,7.3,3.8,7.3,8.4C22.7,75.4,19.4,79.2,15.4,79.2z"/>
	<path id="XMLID_88_" class="st0" d="M90.7,80.7l-0.9-0.5l0.8-0.7c2.4-2.1,3.7-5.4,3.7-8.8c0-6.2-4.3-11.2-9.7-11.2s-9.7,5-9.7,11.2
		c0,3.5,1.4,6.7,3.7,8.8l0.8,0.7l-0.9,0.5c-5.3,2.8-8.7,8.9-8.7,15.6c0,0.8,0.5,1.4,1.2,1.4c0.7,0,1.2-0.6,1.2-1.4
		c0-7.9,5.6-14.3,12.4-14.3c6.8,0,12.4,6.4,12.4,14.3c0,0.8,0.5,1.4,1.2,1.4c0.7,0,1.2-0.6,1.2-1.4C99.4,89.5,96,83.4,90.7,80.7z
		 M84.6,79.2c-4,0-7.3-3.8-7.3-8.4c0-4.6,3.3-8.4,7.3-8.4s7.3,3.8,7.3,8.4C91.9,75.4,88.7,79.2,84.6,79.2z"/>
	<path id="XMLID_85_" class="st0" d="M56.1,80.7l-0.9-0.5l0.8-0.7c2.4-2.1,3.7-5.4,3.7-8.8c0-6.2-4.3-11.2-9.7-11.2s-9.7,5-9.7,11.2
		c0,3.5,1.4,6.7,3.7,8.8l0.8,0.7l-0.9,0.5c-5.3,2.8-8.7,8.9-8.7,15.6c0,0.8,0.5,1.4,1.2,1.4s1.2-0.6,1.2-1.4
		c0-7.9,5.6-14.3,12.4-14.3c6.8,0,12.4,6.4,12.4,14.3c0,0.8,0.5,1.4,1.2,1.4c0.7,0,1.2-0.6,1.2-1.4C64.8,89.5,61.4,83.4,56.1,80.7z
		 M50,79.2c-4,0-7.3-3.8-7.3-8.4c0-4.6,3.3-8.4,7.3-8.4c4,0,7.3,3.8,7.3,8.4C57.3,75.4,54,79.2,50,79.2z"/>
	<path id="XMLID_82_" class="st3" d="M23.2,70.7c0-5-3.5-9.1-7.9-9.1c-4.3,0-7.9,4.1-7.9,9.1c0,5,3.5,9.1,7.9,9.1
		C19.7,79.8,23.2,75.7,23.2,70.7z M15.4,78.5c-3.7,0-6.7-3.5-6.7-7.8s3-7.8,6.7-7.8s6.7,3.5,6.7,7.8S19.1,78.5,15.4,78.5z"/>
	<path id="XMLID_79_" class="st3" d="M21.7,80.1c2.4-2.2,4-5.5,4-9.3c0-6.5-4.6-11.8-10.3-11.8S5.1,64.2,5.1,70.7
		c0,3.8,1.6,7.2,4,9.3C3.7,82.8,0,89,0,96.2c0,1.1,0.8,2,1.8,2c1,0,1.8-0.9,1.8-2c0-7.5,5.3-13.6,11.8-13.6s11.8,6.1,11.8,13.6
		c0,1.1,0.8,2,1.8,2c1,0,1.8-0.9,1.8-2C30.7,89,27,82.8,21.7,80.1z M28.9,96.9c-0.3,0-0.6-0.3-0.6-0.7c0-8.3-5.8-15-13-15
		s-13,6.7-13,15c0,0.4-0.3,0.7-0.6,0.7c-0.3,0-0.6-0.3-0.6-0.7c0-6.4,3.3-12.3,8.4-14.9l1.7-0.9L9.8,79c-2.2-2-3.5-5-3.5-8.3
		c0-5.8,4.1-10.5,9.1-10.5c5,0,9.1,4.7,9.1,10.5c0,3.2-1.3,6.3-3.5,8.3l-1.5,1.4l1.7,0.9c5.1,2.7,8.4,8.5,8.4,14.9
		C29.6,96.6,29.3,96.9,28.9,96.9z"/>
	<path id="XMLID_76_" class="st3" d="M56.3,80.1c2.4-2.2,4-5.5,4-9.3c0-6.5-4.6-11.8-10.3-11.8s-10.3,5.3-10.3,11.8
		c0,3.8,1.6,7.2,4,9.3c-5.3,2.8-9.1,9-9.1,16.2c0,1.1,0.8,2,1.8,2c1,0,1.8-0.9,1.8-2c0-7.5,5.3-13.6,11.8-13.6s11.8,6.1,11.8,13.6
		c0,1.1,0.8,2,1.8,2c1,0,1.8-0.9,1.8-2C65.4,89,61.6,82.8,56.3,80.1z M63.6,96.9c-0.3,0-0.6-0.3-0.6-0.7c0-8.3-5.8-15-13-15
		c-7.2,0-13,6.7-13,15c0,0.4-0.3,0.7-0.6,0.7c-0.3,0-0.6-0.3-0.6-0.7c0-6.4,3.3-12.3,8.4-14.9l1.7-0.9L44.4,79c-2.2-2-3.5-5-3.5-8.3
		c0-5.8,4.1-10.5,9.1-10.5c5,0,9.1,4.7,9.1,10.5c0,3.2-1.3,6.3-3.5,8.3l-1.5,1.4l1.7,0.9c5.1,2.7,8.4,8.5,8.4,14.9
		C64.2,96.6,63.9,96.9,63.6,96.9z"/>
	<path id="XMLID_73_" class="st3" d="M90.9,80.1c2.4-2.2,4-5.5,4-9.3c0-6.5-4.6-11.8-10.3-11.8c-5.7,0-10.3,5.3-10.3,11.8
		c0,3.8,1.6,7.2,4,9.3c-5.3,2.8-9.1,9-9.1,16.2c0,1.1,0.8,2,1.8,2s1.8-0.9,1.8-2c0-7.5,5.3-13.6,11.8-13.6c6.5,0,11.8,6.1,11.8,13.6
		c0,1.1,0.8,2,1.8,2c1,0,1.8-0.9,1.8-2C100,89,96.3,82.8,90.9,80.1z M98.2,96.9c-0.3,0-0.6-0.3-0.6-0.7c0-8.3-5.8-15-13-15
		s-13,6.7-13,15c0,0.4-0.3,0.7-0.6,0.7c-0.3,0-0.6-0.3-0.6-0.7c0-6.4,3.3-12.3,8.4-14.9l1.7-0.9L79.1,79c-2.2-2-3.5-5-3.5-8.3
		c0-5.8,4.1-10.5,9.1-10.5s9.1,4.7,9.1,10.5c0,3.2-1.3,6.3-3.5,8.3l-1.5,1.4l1.7,0.9c5.1,2.7,8.4,8.5,8.4,14.9
		C98.8,96.6,98.6,96.9,98.2,96.9z"/>
	<path id="XMLID_70_" class="st3" d="M57.9,70.7c0-5-3.5-9.1-7.9-9.1c-4.3,0-7.9,4.1-7.9,9.1c0,5,3.5,9.1,7.9,9.1
		C54.3,79.8,57.9,75.7,57.9,70.7z M50,78.5c-3.7,0-6.7-3.5-6.7-7.8s3-7.8,6.7-7.8c3.7,0,6.7,3.5,6.7,7.8S53.7,78.5,50,78.5z"/>
	<path id="XMLID_67_" class="st3" d="M92.5,70.7c0-5-3.5-9.1-7.9-9.1c-4.3,0-7.9,4.1-7.9,9.1c0,5,3.5,9.1,7.9,9.1
		C89,79.8,92.5,75.7,92.5,70.7z M84.6,78.5c-3.7,0-6.7-3.5-6.7-7.8s3-7.8,6.7-7.8c3.7,0,6.7,3.5,6.7,7.8S88.3,78.5,84.6,78.5z"/>
	<path id="XMLID_64_" class="st4" d="M15.4,62.3c-4,0-7.3,3.8-7.3,8.4c0,4.6,3.3,8.4,7.3,8.4c4,0,7.3-3.8,7.3-8.4
		C22.7,66.1,19.4,62.3,15.4,62.3z M15.4,78.5c-3.7,0-6.7-3.5-6.7-7.8s3-7.8,6.7-7.8s6.7,3.5,6.7,7.8S19.1,78.5,15.4,78.5z"/>
	<path id="XMLID_61_" class="st4" d="M21.7,80.1c2.4-2.2,4-5.5,4-9.3c0-6.5-4.6-11.8-10.3-11.8S5.1,64.2,5.1,70.7
		c0,3.8,1.6,7.2,4,9.3C3.7,82.8,0,89,0,96.2c0,1.1,0.8,2,1.8,2c1,0,1.8-0.9,1.8-2c0-7.5,5.3-13.6,11.8-13.6s11.8,6.1,11.8,13.6
		c0,1.1,0.8,2,1.8,2c1,0,1.8-0.9,1.8-2C30.7,89,27,82.8,21.7,80.1z M30.1,96.2c0,0.8-0.5,1.4-1.2,1.4c-0.7,0-1.2-0.6-1.2-1.4
		c0-7.9-5.6-14.3-12.4-14.3S3,88.3,3,96.2c0,0.8-0.5,1.4-1.2,1.4c-0.7,0-1.2-0.6-1.2-1.4c0-6.7,3.4-12.8,8.7-15.6l0.9-0.5l-0.8-0.7
		c-2.4-2.1-3.7-5.4-3.7-8.8c0-6.2,4.3-11.2,9.7-11.2c5.3,0,9.7,5,9.7,11.2c0,3.5-1.4,6.7-3.7,8.8l-0.8,0.7l0.9,0.5
		C26.7,83.4,30.1,89.5,30.1,96.2z"/>
	<path id="XMLID_58_" class="st4" d="M50,62.3c-4,0-7.3,3.8-7.3,8.4c0,4.6,3.3,8.4,7.3,8.4s7.3-3.8,7.3-8.4
		C57.3,66.1,54,62.3,50,62.3z M50,78.5c-3.7,0-6.7-3.5-6.7-7.8s3-7.8,6.7-7.8c3.7,0,6.7,3.5,6.7,7.8S53.7,78.5,50,78.5z"/>
	<path id="XMLID_55_" class="st4" d="M90.9,80.1c2.4-2.2,4-5.5,4-9.3c0-6.5-4.6-11.8-10.3-11.8c-5.7,0-10.3,5.3-10.3,11.8
		c0,3.8,1.6,7.2,4,9.3c-5.3,2.8-9.1,9-9.1,16.2c0,1.1,0.8,2,1.8,2s1.8-0.9,1.8-2c0-7.5,5.3-13.6,11.8-13.6c6.5,0,11.8,6.1,11.8,13.6
		c0,1.1,0.8,2,1.8,2c1,0,1.8-0.9,1.8-2C100,89,96.3,82.8,90.9,80.1z M99.4,96.2c0,0.8-0.5,1.4-1.2,1.4c-0.7,0-1.2-0.6-1.2-1.4
		c0-7.9-5.6-14.3-12.4-14.3s-12.4,6.4-12.4,14.3c0,0.8-0.5,1.4-1.2,1.4c-0.7,0-1.2-0.6-1.2-1.4c0-6.7,3.4-12.8,8.7-15.6l0.9-0.5
		l-0.8-0.7c-2.4-2.1-3.7-5.4-3.7-8.8c0-6.2,4.3-11.2,9.7-11.2c5.3,0,9.7,5,9.7,11.2c0,3.5-1.4,6.7-3.7,8.8l-0.8,0.7l0.9,0.5
		C96,83.4,99.4,89.5,99.4,96.2z"/>
	<path id="XMLID_52_" class="st4" d="M84.6,62.3c-4,0-7.3,3.8-7.3,8.4c0,4.6,3.3,8.4,7.3,8.4c4,0,7.3-3.8,7.3-8.4
		C91.9,66.1,88.7,62.3,84.6,62.3z M84.6,78.5c-3.7,0-6.7-3.5-6.7-7.8s3-7.8,6.7-7.8c3.7,0,6.7,3.5,6.7,7.8S88.3,78.5,84.6,78.5z"/>
	<path id="XMLID_39_" class="st4" d="M56.3,80.1c2.4-2.2,4-5.5,4-9.3c0-6.5-4.6-11.8-10.3-11.8s-10.3,5.3-10.3,11.8
		c0,3.8,1.6,7.2,4,9.3c-5.3,2.8-9.1,9-9.1,16.2c0,1.1,0.8,2,1.8,2c1,0,1.8-0.9,1.8-2c0-7.5,5.3-13.6,11.8-13.6s11.8,6.1,11.8,13.6
		c0,1.1,0.8,2,1.8,2c1,0,1.8-0.9,1.8-2C65.4,89,61.6,82.8,56.3,80.1z M64.8,96.2c0,0.8-0.5,1.4-1.2,1.4c-0.7,0-1.2-0.6-1.2-1.4
		c0-7.9-5.6-14.3-12.4-14.3c-6.8,0-12.4,6.4-12.4,14.3c0,0.8-0.5,1.4-1.2,1.4c-0.7,0-1.2-0.6-1.2-1.4c0-6.7,3.4-12.8,8.7-15.6
		l0.9-0.5l-0.8-0.7c-2.4-2.1-3.7-5.4-3.7-8.8c0-6.2,4.3-11.2,9.7-11.2s9.7,5,9.7,11.2c0,3.5-1.4,6.7-3.7,8.8l-0.8,0.7l0.9,0.5
		C61.4,83.4,64.8,89.5,64.8,96.2z"/>
</g>
</svg>
