<svg width="22" height="24" viewBox="0 0 22 24" fill="none" xmlns="http://www.w3.org/2000/svg">
<path d="M0 1.24045C0.198063 0.903289 0.401785 0.571751 0.588531 0.228975C0.707369 0.00982258 0.871478 -0.0519896 1.1035 0.0322997C2.9087 0.700995 4.70825 1.36969 6.50779 2.044C6.62663 2.08896 6.73415 2.20696 6.80772 2.31935C7.22082 2.95433 7.62261 3.59493 8.01873 4.22991C8.04703 4.22991 8.06966 4.24115 8.08098 4.23553C8.56765 3.97704 8.56765 4.01076 8.83928 4.45468C8.96378 4.65135 9.07696 4.85927 9.21277 5.05032C9.36556 5.26948 9.37122 5.44929 9.10525 5.57292C9.30331 5.87074 9.72774 5.8595 9.90882 5.55606C10.2031 5.05594 10.4691 4.53897 10.7916 4.06133C10.9727 3.78598 11.2217 3.54435 11.482 3.34206C11.6291 3.22406 11.8612 3.16786 12.0592 3.16224C14.4303 3.10043 16.8014 3.06672 19.1669 2.98805C20.0949 2.95433 21.2607 3.92085 21.057 4.96603C21.0343 5.0728 21.0513 5.19081 21.0513 5.30319C21.0683 10.945 21.0909 16.5867 21.0909 22.2341C21.0909 23.077 20.4741 23.8918 19.4385 23.8974C15.4489 23.9199 11.465 23.9705 7.47547 24.0042C6.47384 24.0154 5.77779 23.3973 5.75515 22.4083C5.70988 20.627 5.70422 18.8401 5.6929 17.0587C5.67593 14.4233 5.65329 11.7878 5.65329 9.1524C5.65329 8.60171 5.8174 8.08474 6.21353 7.64643C6.16826 7.55653 6.11733 7.45538 6.06074 7.34299C5.80042 7.52281 5.64197 7.41604 5.51748 7.17441C5.39864 6.94964 5.2798 6.72487 5.13267 6.52258C4.94026 6.25847 5.00251 6.04494 5.31375 5.78645C5.40996 5.70216 5.54011 5.65159 5.67593 5.57292C5.41562 5.05594 5.16662 4.55021 4.90065 4.04447C4.86104 3.97142 4.75918 3.93209 4.67429 3.88713C3.25956 3.1791 1.8335 2.45983 0.413103 1.74056C0.265971 1.66751 0.135815 1.56075 0 1.46522C0 1.39217 0 1.31912 0 1.24045ZM10.4294 5.58978C11.1312 5.66283 11.1312 5.65721 11.4311 5.11214C11.5103 4.97165 11.5612 4.80869 11.6744 4.70193C11.8102 4.56707 11.997 4.39849 12.1611 4.39287C13.5249 4.34791 14.8887 4.33667 16.2468 4.32544C16.5015 4.32544 16.5807 4.45468 16.4845 4.68507C16.1563 5.46615 15.5168 5.87074 14.7246 5.93255C13.5645 6.02808 12.3988 6.0056 11.233 6.06742C10.7577 6.08989 10.237 6.08989 9.8296 6.28657C8.87889 6.74173 7.99044 7.32614 7.05671 7.82625C6.49082 8.12969 6.30973 8.58486 6.31539 9.1805C6.33802 11.8721 6.34934 14.5582 6.36066 17.2498C6.36632 18.8569 6.36066 20.464 6.37764 22.0711C6.3833 22.7398 6.76811 23.3861 7.64524 23.3411C8.78269 23.2849 9.92014 23.3018 11.0576 23.2905C13.8305 23.2624 16.6034 23.24 19.3762 23.2175C19.9591 23.2119 20.4232 22.7567 20.4232 22.1723C20.4118 19.3121 20.4005 16.4575 20.3892 13.5973C20.3779 10.7089 20.3779 7.82625 20.3666 4.93794C20.3666 4.00514 19.8346 3.4713 18.9009 3.48254C17.82 3.49378 16.7392 3.52188 15.6583 3.53874C14.6227 3.56121 13.5928 3.59493 12.5572 3.60055C12.0705 3.60055 11.6291 3.69608 11.3462 4.10628C11.0293 4.5783 10.7463 5.08404 10.4294 5.58978ZM0.797912 1.20673C2.22963 1.93162 3.63871 2.65089 5.05344 3.3533C5.28546 3.4713 5.43825 3.62302 5.54577 3.85342C5.76647 4.31982 6.00981 4.7806 6.25314 5.25824C6.6719 5.02223 7.06237 4.80869 7.46416 4.58392C7.08501 3.98266 6.72849 3.40387 6.355 2.83632C6.27578 2.7127 6.13996 2.60593 6.00415 2.54974C5.07042 2.19573 4.12538 1.85295 3.18599 1.50455C2.48994 1.24607 1.78823 0.987579 1.06954 0.723472C0.978998 0.886431 0.899773 1.02691 0.797912 1.20673ZM8.38091 4.6345C7.41888 5.17395 6.4795 5.69654 5.52879 6.22476C5.66461 6.45515 5.78911 6.65744 5.9136 6.87097C6.87563 6.30904 7.80935 5.76397 8.74874 5.21328C8.61858 5.00537 8.5054 4.83679 8.38091 4.6345ZM11.7423 5.55044C11.8102 5.55606 11.8442 5.5673 11.8781 5.5673C12.7496 5.54482 13.6211 5.52796 14.4982 5.49987C14.8717 5.48863 15.5734 5.11214 15.7545 4.86489C14.6171 4.86489 13.4457 4.86489 12.2743 4.87051C12.2064 4.87051 12.1102 4.92108 12.0762 4.97727C11.9574 5.15709 11.8612 5.34253 11.7423 5.55044ZM6.66058 7.40481C7.39625 6.95526 8.10928 6.52258 8.84494 6.07303C8.77137 5.98313 8.71478 5.91569 8.64688 5.83141C7.92819 6.24723 7.22082 6.66306 6.49648 7.08451C6.55872 7.19689 6.604 7.29242 6.66058 7.40481Z" fill="#454951"/>
<path d="M10.4293 5.59165C10.7406 5.08592 11.0235 4.58018 11.3517 4.10816C11.6347 3.69795 12.0761 3.60804 12.5627 3.60242C13.5983 3.59681 14.6283 3.56309 15.6638 3.54061C16.7447 3.51814 17.8256 3.49566 18.9064 3.48442C19.8402 3.4788 20.3721 4.00701 20.3721 4.94544C20.3778 7.83375 20.3834 10.7165 20.3947 13.6048C20.406 16.465 20.4174 19.3196 20.4287 22.1798C20.4287 22.7642 19.9646 23.2194 19.3818 23.225C16.6089 23.2475 13.836 23.2756 11.0631 23.298C9.92568 23.3093 8.78823 23.2868 7.65078 23.3486C6.77364 23.3936 6.38884 22.753 6.38318 22.0787C6.3662 20.4715 6.37186 18.8644 6.3662 17.2573C6.35488 14.5657 6.34356 11.8796 6.32093 9.188C6.31527 8.58674 6.49636 8.13719 7.06225 7.83375C7.99598 7.33364 8.88443 6.74923 9.83513 6.29407C10.2426 6.09739 10.7632 6.10301 11.2386 6.07491C12.4043 6.0131 13.57 6.03558 14.7301 5.94005C15.5224 5.87262 16.1675 5.47365 16.4901 4.69257C16.5863 4.46218 16.507 4.32731 16.2524 4.33293C14.8886 4.34979 13.5248 4.35541 12.1666 4.40036C11.9969 4.40598 11.8158 4.58018 11.68 4.70943C11.5724 4.81619 11.5158 4.97915 11.4366 5.11963C11.131 5.6647 11.131 5.66471 10.4293 5.59165ZM9.06552 19.5331C9.21831 19.432 9.32583 19.3758 9.41071 19.2971C9.9087 18.8419 10.3954 18.3755 10.899 17.926C10.9952 17.8417 11.1424 17.7799 11.2668 17.7743C12.7325 17.7518 14.1982 17.7349 15.6638 17.7293C15.794 17.7293 15.9525 17.8024 16.0487 17.8923C16.5749 18.3699 17.0842 18.87 17.6049 19.3589C17.8199 19.5612 18.0746 19.5837 18.233 19.4264C18.3971 19.2578 18.3632 19.0442 18.1255 18.8195C17.6898 18.398 17.2427 17.9822 16.807 17.5551C16.7334 17.4821 16.6655 17.3528 16.6655 17.2517C16.6372 15.7851 16.6315 14.3184 16.6032 12.8518C16.5976 12.6551 16.6485 12.5202 16.7956 12.391C17.3615 11.874 17.9218 11.3402 18.4763 10.8176C18.7253 10.5872 18.7367 10.3568 18.5273 10.1377C18.3292 9.93537 18.0746 9.94099 17.8369 10.1658C17.237 10.7333 16.6428 11.3065 16.0373 11.8628C15.9468 11.9471 15.7997 12.0201 15.6752 12.0201C14.2208 12.0482 12.7608 12.0651 11.3065 12.0707C11.165 12.0707 11.0009 11.9976 10.8934 11.9021C10.4689 11.52 10.0615 11.1154 9.64839 10.7221C9.43335 10.5142 9.21831 10.3006 8.99195 10.1039C8.83916 9.96908 8.62412 9.91289 8.48265 10.0702C8.38644 10.177 8.38644 10.3849 8.3921 10.5479C8.3921 10.6209 8.49396 10.6996 8.55621 10.767C9.05986 11.2447 9.54653 11.7392 10.0728 12.1887C10.3105 12.3966 10.3671 12.6158 10.3275 12.9024C10.3048 13.0766 10.2822 13.2508 10.2822 13.4306C10.2765 14.6443 10.2879 15.8581 10.2709 17.0719C10.2709 17.2067 10.1916 17.3753 10.0954 17.4708C9.66537 17.9035 9.20133 18.3025 8.77691 18.7352C8.68071 18.8307 8.62412 19.0611 8.66939 19.1735C8.72598 19.3083 8.91273 19.4039 9.06552 19.5331ZM19.1441 21.8651C19.0479 21.8707 18.997 21.8707 18.9404 21.8764C17.6615 21.8932 16.3825 21.9101 15.1036 21.9213C12.6589 21.9438 10.2143 21.9663 7.76962 21.9888C7.59419 21.9888 7.40179 21.9831 7.39613 22.2191C7.39047 22.4776 7.59419 22.4776 7.77528 22.472C8.1997 22.4664 8.61846 22.4495 9.04288 22.4439C12.4269 22.4102 15.811 22.3821 19.195 22.3484C19.5912 22.3428 19.6308 22.2978 19.6308 21.9101C19.6364 18.1395 19.6421 14.3634 19.6477 10.5928C19.6477 9.87356 19.6591 9.15429 19.6647 8.43502C19.6647 8.26644 19.6364 8.09786 19.427 8.09224C19.212 8.08662 19.1781 8.24396 19.1837 8.42378C19.1894 8.49121 19.1837 8.55302 19.1837 8.62045C19.1667 12.9417 19.1498 17.2685 19.1384 21.5898C19.1441 21.6685 19.1441 21.7527 19.1441 21.8651ZM10.6613 7.42916C10.667 7.19315 10.4689 7.08639 10.2765 7.18753C9.24095 7.74384 8.20536 8.30577 7.16977 8.8677C7.03396 8.94075 6.92644 9.07 7.04527 9.19924C7.11318 9.27229 7.31124 9.31725 7.39613 9.27229C8.43172 8.73284 9.45598 8.17091 10.4803 7.60898C10.5651 7.56403 10.6217 7.47412 10.6613 7.42916Z" fill="#00B098"/>
<path d="M0.797852 1.20787C0.894054 1.03367 0.978938 0.887569 1.06948 0.724609C1.78817 0.988716 2.48422 1.2472 3.18593 1.50569C4.12531 1.85409 5.0647 2.19686 6.00408 2.5565C6.1399 2.60707 6.27571 2.71946 6.35494 2.84308C6.72843 3.41063 7.08494 3.98942 7.46409 4.59068C7.06231 4.81545 6.67184 5.03461 6.25308 5.265C6.00974 4.78736 5.76641 4.32658 5.54571 3.86017C5.43819 3.62978 5.2854 3.47244 5.05338 3.36006C3.63864 2.64641 2.22957 1.92714 0.797852 1.20787Z" fill="#F1F3F5"/>
<path d="M8.38092 4.63477C8.51108 4.83706 8.6186 5.01126 8.74875 5.21917C7.80937 5.76986 6.87564 6.31493 5.91362 6.87686C5.78346 6.66333 5.66462 6.46104 5.52881 6.23064C6.47951 5.69119 7.41324 5.1686 8.38092 4.63477Z" fill="#F296B0"/>
<path d="M6.66069 7.40567C6.6041 7.29328 6.55317 7.19775 6.49658 7.09099C7.22093 6.66954 7.92829 6.25372 8.64698 5.83789C8.71489 5.91656 8.77147 5.98961 8.84504 6.07952C8.11504 6.52344 7.39635 6.95613 6.66069 7.40567Z" fill="#F1F3F5"/>
<path d="M9.0655 19.5325C8.91837 19.4033 8.72597 19.3078 8.66938 19.1673C8.62411 19.0493 8.6807 18.8245 8.7769 18.729C9.20132 18.2907 9.66535 17.8917 10.0954 17.4646C10.1916 17.3691 10.2709 17.2005 10.2709 17.0657C10.2822 15.8519 10.2765 14.6381 10.2822 13.4243C10.2822 13.2501 10.3048 13.0703 10.3275 12.8961C10.3671 12.6095 10.3105 12.3904 10.0728 12.1825C9.55217 11.7273 9.05985 11.2384 8.5562 10.7608C8.48829 10.699 8.39209 10.6147 8.39209 10.5416C8.39209 10.3787 8.39209 10.1708 8.48263 10.064C8.61845 9.90666 8.83349 9.96286 8.99194 10.0977C9.2183 10.2944 9.43334 10.5079 9.64838 10.7158C10.0615 11.1092 10.4689 11.5138 10.8933 11.8959C11.0009 11.9914 11.165 12.0645 11.3064 12.0645C12.7608 12.0589 14.2208 12.042 15.6752 12.0139C15.7997 12.0139 15.9468 11.9408 16.0373 11.8566C16.6428 11.3002 17.237 10.7271 17.8369 10.1595C18.0746 9.93476 18.3292 9.92914 18.5273 10.1314C18.7367 10.3506 18.7253 10.581 18.4763 10.8114C17.9161 11.3396 17.3615 11.8678 16.7956 12.3848C16.6542 12.514 16.5976 12.6545 16.6032 12.8456C16.6259 14.3122 16.6372 15.7788 16.6655 17.2455C16.6655 17.3466 16.7334 17.4759 16.8069 17.5489C17.237 17.976 17.6841 18.3918 18.1255 18.8133C18.3632 19.0436 18.3971 19.2572 18.233 19.4201C18.0802 19.5775 17.8256 19.555 17.6049 19.3527C17.0842 18.8638 16.5749 18.3637 16.0487 17.8861C15.9524 17.7962 15.794 17.7231 15.6638 17.7231C14.1982 17.7287 12.7325 17.74 11.2668 17.7681C11.1423 17.7681 10.9952 17.8355 10.899 17.9198C10.3954 18.3693 9.90869 18.8357 9.4107 19.2909C9.32016 19.3696 9.21264 19.4258 9.0655 19.5325ZM15.6469 16.7791C15.6469 15.6103 15.6469 14.4864 15.6469 13.3682C15.6469 12.9973 15.6073 12.9636 15.2394 12.9692C13.9888 12.986 12.7382 12.9973 11.4875 13.0141C11.4083 13.0141 11.3291 13.0254 11.2385 13.031C11.2385 14.2335 11.2385 15.4136 11.2385 16.588C11.2385 16.7847 11.3517 16.7903 11.4932 16.7903C12.0195 16.7847 12.5458 16.7734 13.072 16.7734C13.9322 16.7791 14.7924 16.7791 15.6469 16.7791Z" fill="#F296B0"/>
<path d="M19.1443 21.8648C19.1443 21.7524 19.1443 21.6681 19.1443 21.5895C19.1613 17.2682 19.1782 12.9414 19.1896 8.62015C19.1896 8.55272 19.1896 8.49091 19.1896 8.42348C19.1839 8.24928 19.2179 8.08632 19.4329 8.09194C19.6479 8.09756 19.6762 8.26614 19.6706 8.43472C19.6649 9.15398 19.6536 9.87325 19.6536 10.5925C19.6479 14.3631 19.6423 18.1392 19.6366 21.9098C19.6366 22.2975 19.5913 22.3481 19.2009 22.3481C15.8168 22.3818 12.4328 22.4099 9.04873 22.4436C8.62431 22.4492 8.20554 22.4661 7.78112 22.4717C7.59438 22.4773 7.39631 22.4717 7.40197 22.2188C7.40763 21.9828 7.60004 21.9884 7.77546 21.9884C10.2201 21.966 12.6648 21.9491 15.1095 21.921C16.3884 21.9098 17.6673 21.8873 18.9462 21.8761C18.9915 21.8704 19.0481 21.8704 19.1443 21.8648Z" fill="#F296B0"/>
<path d="M10.6615 7.42819C10.6219 7.47314 10.5653 7.56305 10.4804 7.60801C9.45617 8.16993 8.4319 8.72624 7.39631 9.27131C7.31142 9.31627 7.11336 9.27131 7.04545 9.19826C6.92661 9.0634 7.02848 8.93977 7.16995 8.86672C8.20554 8.3048 9.24113 7.74287 10.2767 7.18656C10.4691 7.08541 10.6672 7.19218 10.6615 7.42819Z" fill="#F296B0"/>
<path d="M15.6471 16.7794C14.7926 16.7794 13.9324 16.7794 13.0723 16.7794C12.546 16.7794 12.0197 16.7906 11.4934 16.7963C11.3519 16.7963 11.2388 16.7906 11.2388 16.594C11.2444 15.4195 11.2388 14.2395 11.2388 13.0369C11.3293 13.0313 11.4085 13.0201 11.4878 13.0201C12.7384 13.0032 13.989 12.9864 15.2396 12.9751C15.6075 12.9695 15.6471 13.0032 15.6471 13.3741C15.6471 14.4867 15.6471 15.6106 15.6471 16.7794Z" fill="#00B69E"/>
</svg>
