<svg width="48" height="48" viewBox="0 0 48 48" fill="none" xmlns="http://www.w3.org/2000/svg">
<circle cx="24" cy="24" r="24" fill="white"/>
<path d="M24.0072 2C11.8499 2 2 11.8483 2 24.0036C2 36.1589 11.8499 46 24 46C36.1501 46 46 36.1517 46 24.0036C46 11.8555 36.1573 2 24.0072 2ZM24.5192 5.07128C24.5985 5.02802 24.7427 5.00639 24.8076 5.04965C25.2258 5.34524 25.6296 5.66246 26.0262 5.95805C25.3556 6.34016 24.6778 6.69343 24.0361 7.10438C23.4808 7.45764 22.9689 7.88301 22.4569 8.28674C22.2983 8.41652 22.1829 8.45256 22.0026 8.32279C21.6493 8.07046 21.2743 7.83975 20.8777 7.573C22.0531 6.5925 23.2357 5.75619 24.5192 5.07128ZM8.53294 27.5435C8.78532 27.9689 9.03769 28.3798 9.30449 28.834C9.15306 28.9494 9.02327 29.0503 8.85021 29.1801C8.59063 28.7259 8.34546 28.2861 8.08587 27.8319C8.25172 27.7237 8.38151 27.6444 8.53294 27.5435ZM7.68928 25.4888C7.50901 25.5753 7.30711 25.6762 7.07637 25.7916C6.82399 25.1211 6.57883 24.465 6.32645 23.7801C6.5644 23.6575 6.78073 23.5494 7.0331 23.4196C7.25664 24.1262 7.47296 24.7894 7.68928 25.4888ZM5.60538 17.4285C5.87938 17.2194 6.10292 16.9454 6.3625 16.6931C6.46345 17.8755 6.57162 19.0434 6.66536 20.2114C6.67257 20.2763 6.61488 20.37 6.55719 20.406C6.28319 20.6079 5.99476 20.8026 5.66306 21.0333C5.54769 20.3628 5.43953 19.7428 5.33858 19.1227C5.30252 18.8992 5.30973 18.6613 5.25205 18.4522C5.12225 18.0052 5.25926 17.7024 5.60538 17.4285ZM40.7578 15.0926C40.9453 15.6477 41.0967 16.2101 41.2625 16.7796C40.2602 16.6354 39.3084 16.4768 38.3494 16.3615C37.6716 16.2822 36.9866 16.2461 36.3015 16.2101C36.1141 16.2029 36.0131 16.1452 35.9266 15.9577C35.7103 15.4819 35.4579 15.0277 35.2055 14.5374C36.0492 14.5374 36.8712 14.4942 37.6932 14.5519C38.6162 14.6095 39.5247 14.7537 40.4405 14.8835C40.5559 14.8979 40.7217 14.9989 40.7578 15.0926ZM39.6329 11.1273C39.0056 11.1273 38.371 11.0985 37.7437 11.1345C33.6552 11.358 29.6749 12.0069 26.0118 13.9895C21.2815 16.5417 18.0439 20.3628 16.3061 25.4455C15.7221 27.147 15.448 28.9061 15.5202 30.7085C15.549 31.4655 15.5418 31.4511 16.2917 31.3141C16.6378 31.2492 16.8541 31.069 16.9984 30.7734C17.1065 30.5499 17.2075 30.312 17.294 30.0813C18.2314 27.6949 19.6375 25.633 21.5988 23.9748C23.6467 22.2445 25.9902 21.0333 28.5716 20.3051C30.9295 19.6346 33.3379 19.2813 35.7824 19.4039C37.138 19.476 38.4864 19.7644 39.8348 19.959C41.3635 20.1825 42.6903 20.8891 43.981 21.6677C44.0747 21.7254 44.1757 21.8552 44.1829 21.9633C44.5867 26.5774 43.6204 30.8815 41.1255 34.8035C38.6018 38.7688 35.1046 41.5301 30.6772 43.109C28.139 44.0174 25.507 44.3851 22.8174 44.212C17.0921 43.8371 12.3258 41.4796 8.56178 37.1394C7.81908 36.2815 7.18453 35.337 6.50672 34.4286C6.53556 34.3998 6.55719 34.3782 6.58604 34.3493C7.0331 34.58 7.48738 34.8035 7.92724 35.0415C9.55687 35.9426 11.3163 36.2094 13.1406 36.058C14.5683 35.9354 15.8879 35.438 17.1282 34.7242C17.1282 33.9023 17.1209 33.0732 17.1209 32.2514C15.9744 32.9002 14.7486 33.3256 13.4435 33.5202C11.3307 33.8375 9.30449 33.65 7.48017 32.41C6.14618 31.5016 5.11504 30.3048 4.31465 28.9205C4.15601 28.6466 4.13438 28.2789 4.06949 27.9544C3.75942 26.3828 3.61521 24.7967 3.68732 23.1961C3.69453 23.0736 3.70895 22.9438 3.71616 22.8645C4.1488 24.0036 4.50934 25.2004 5.05736 26.3035C6.13176 28.5024 7.65323 30.3552 9.65061 31.7971C10.3645 32.309 11.1793 32.6118 12.0374 32.7344C12.5637 32.8137 13.0108 32.5037 13.393 32.172C12.9171 31.6313 12.4412 31.1411 12.0229 30.6004C10.9702 29.2522 10.3284 27.6877 9.81645 26.08C9.23238 24.2199 8.95116 22.2949 8.94395 20.3411C8.93674 18.6974 8.98001 17.0536 9.09538 15.4098C9.25401 13.2037 9.72271 11.0552 10.5447 8.99328C10.6385 8.75537 10.7899 8.51745 10.9846 8.35884C13.6309 6.13829 16.6522 4.70359 20.0269 4.01868C20.1134 4.00426 20.2071 3.99705 20.3009 3.98984C19.5582 4.53777 18.801 5.03523 18.0944 5.60478C15.1019 8.01999 13.0252 11.0624 11.8715 14.7393C11.1721 16.9526 10.9269 19.2164 11.0351 21.5235C11.1432 23.8955 11.4749 26.2458 12.1816 28.524C12.5205 29.6343 13.0108 30.6869 13.6958 31.6385C13.9915 32.0495 14.0059 32.0567 14.4818 31.8837C14.4962 31.8765 14.5034 31.8765 14.5179 31.8765C15.0659 31.6746 15.0226 31.6746 14.9649 31.0834C14.8928 30.2471 14.8568 29.4036 14.8712 28.5673C14.9 26.6423 15.0875 24.739 15.5706 22.8717C16.3061 20.0167 17.5536 17.4213 19.587 15.2656C21.5339 13.1965 23.8702 11.6752 26.5093 10.601C28.5788 9.7575 30.706 9.13026 32.8981 8.74816C34.1311 8.53187 35.393 8.45256 36.6477 8.34442C36.8207 8.33 37.0515 8.42373 37.1885 8.53908C38.097 9.28887 38.9118 10.1252 39.6545 11.0408C39.6401 11.0624 39.6401 11.0985 39.6329 11.1273ZM31.9102 16.4336C30.7853 16.6715 29.6749 16.9022 28.5716 17.1545C28.3769 17.1978 28.2399 17.1978 28.1029 17.032C27.8722 16.758 27.6126 16.5129 27.3242 16.2101C28.0452 15.9577 28.7591 15.691 29.4802 15.4531C29.8984 15.3161 30.331 15.2224 30.7565 15.0998C30.944 15.0493 31.081 15.0926 31.1819 15.2584C31.4271 15.6693 31.6867 16.0731 31.9102 16.4336ZM25.5575 18.1494C24.7427 18.6974 23.9279 19.2381 23.0842 19.8004C22.8968 19.6779 22.6588 19.5265 22.3776 19.339C22.63 19.1227 22.8463 18.9064 23.0914 18.7262C23.589 18.3513 24.1009 17.998 24.5985 17.6303C24.7715 17.5006 24.9013 17.5006 25.0528 17.6736C25.2114 17.8611 25.3989 18.0052 25.5575 18.1494ZM21.57 21.3361C21.1734 21.8191 20.7984 22.2733 20.3946 22.7636C20.1639 22.6266 19.962 22.5112 19.7096 22.367C20.1062 21.8624 20.4812 21.3721 20.8777 20.8602C21.1301 21.0333 21.3537 21.1847 21.57 21.3361ZM19.3419 24.3425C19.0751 24.7534 18.8227 25.1571 18.5631 25.5609C18.3756 25.496 18.2098 25.4383 18.0007 25.359C18.2386 24.8904 18.4694 24.429 18.7217 23.9459C18.9381 24.0829 19.1255 24.2055 19.3419 24.3425ZM17.6401 27.2047C17.4598 27.594 17.294 27.9544 17.1065 28.3438C17.0128 28.3293 16.8974 28.3149 16.746 28.2861C16.8902 27.8535 17.0344 27.4426 17.1786 27.0028C17.3661 27.0821 17.5031 27.1398 17.6401 27.2047ZM9.77319 30.3336C9.91019 30.2471 10.0184 30.175 10.1409 30.0957C10.3933 30.2976 10.6529 30.5066 10.9413 30.7301C10.8548 30.8311 10.7683 30.932 10.6601 31.0618C10.3645 30.8239 10.0833 30.5859 9.77319 30.3336ZM18.8659 11.4517C18.2458 12.3097 17.6473 13.1532 17.0272 13.9895C16.9767 14.0544 16.8469 14.0977 16.7676 14.0904C16.3782 14.0256 15.9961 13.939 15.5129 13.8453C16.1763 12.9009 16.7965 11.9997 17.4382 11.1057C17.4887 11.0336 17.6762 10.9975 17.7699 11.0336C18.1377 11.1562 18.5054 11.3076 18.8659 11.4517ZM13.0108 23.8666C13.0108 23.2178 13.0108 22.5905 13.0108 21.9417C13.3137 21.9417 13.5588 21.9417 13.8112 21.9417C13.7607 22.5617 13.7175 23.1745 13.667 23.8089C13.4507 23.8306 13.2271 23.8522 13.0108 23.8666ZM13.6237 26.1232C13.6237 26.5702 13.6237 27.01 13.6237 27.4786C13.5444 27.5075 13.429 27.5579 13.2632 27.6228C13.1983 27.1398 13.1334 26.6711 13.0613 26.1593C13.2776 26.1448 13.429 26.1376 13.6237 26.1232ZM13.3786 19.3679C13.6526 18.4594 13.9122 17.5727 14.179 16.6931C14.6044 16.7364 14.9649 16.7724 15.3399 16.8157C15.0442 17.6231 14.7702 18.409 14.4746 19.1876C14.4458 19.2669 14.3376 19.3606 14.2583 19.3679C13.9843 19.3823 13.7103 19.3679 13.3786 19.3679Z" fill="#434750"/>
<path d="M37.1815 8.5258C37.0373 8.41045 36.8137 8.31672 36.6407 8.33114C35.386 8.4465 34.1241 8.51859 32.8911 8.73488C30.699 9.1242 28.5718 9.74422 26.5024 10.5877C23.8632 11.6692 21.5342 13.1904 19.58 15.2523C17.5466 17.408 16.2992 20.0034 15.5637 22.8584C15.0805 24.7257 14.8931 26.6362 14.8642 28.554C14.8498 29.3903 14.8858 30.2338 14.958 31.0701C15.0084 31.6685 15.0589 31.6613 14.5109 31.8632C14.4965 31.8704 14.4893 31.8704 14.4748 31.8704C14.0061 32.0434 13.9845 32.0362 13.6889 31.6253C13.0038 30.6736 12.5207 29.621 12.1746 28.5107C11.4752 26.2325 11.1363 23.8822 11.0281 21.5102C10.9199 19.2104 11.1723 16.9394 11.8645 14.726C13.0183 11.0564 15.095 8.00671 18.0874 5.59151C18.7941 5.02195 19.5512 4.52449 20.3011 3.97656C20.2002 3.98377 20.1136 3.99098 20.0271 4.0054C16.6453 4.69031 13.624 6.12501 10.9776 8.33835C10.7901 8.49696 10.6315 8.74209 10.5378 8.97279C9.71574 11.0347 9.23983 13.1832 9.0884 15.3893C8.97303 17.0259 8.92977 18.6769 8.93698 20.3207C8.94419 22.2672 9.22541 24.1922 9.80948 26.0595C10.3142 27.6744 10.9632 29.2317 12.016 30.5799C12.4342 31.1134 12.9101 31.6036 13.386 32.1516C12.9966 32.4904 12.5568 32.7932 12.0304 32.7139C11.1723 32.5913 10.3575 32.2885 9.64363 31.7767C7.64625 30.3348 6.12478 28.4819 5.05038 26.283C4.50957 25.1727 4.14904 23.9759 3.70918 22.844C3.70197 22.9233 3.68755 23.0459 3.68034 23.1756C3.61544 24.7762 3.75966 26.3623 4.06251 27.934C4.1274 28.2584 4.14904 28.6261 4.30767 28.9C5.11528 30.2843 6.1392 31.4811 7.47319 32.3895C9.29751 33.6295 11.3237 33.8098 13.4365 33.4998C14.7344 33.3051 15.9675 32.8797 17.114 32.2309C17.1212 31.9209 17.2942 31.7406 17.561 31.5964C18.448 31.1422 19.3205 30.6736 20.193 30.1978C20.3083 30.1329 20.4237 29.9887 20.4598 29.8661C20.7338 28.9361 21.0006 28.0061 21.2529 27.0688C21.426 26.4272 21.8875 26.009 22.349 25.5909C23.5532 24.495 24.9881 23.8317 26.5312 23.3559C26.9999 23.2117 27.3893 23.4136 27.6128 23.6947C27.7138 23.8245 27.7787 23.9831 27.8219 24.1417C28.3195 25.836 28.7161 27.5591 28.8531 29.311C28.9612 30.688 28.8242 32.0939 28.7882 33.4781C28.7738 33.8963 28.7089 34.3144 28.6656 34.7326C28.5718 35.6554 28.0094 36.3115 27.3893 36.9171C26.5601 37.7318 25.5578 38.3085 24.5194 38.8204C23.0124 39.563 21.4837 40.2479 19.818 40.5435C19.1258 40.6661 18.4191 40.7093 17.7125 40.767C17.3591 40.7958 17.1428 40.5363 17.1428 40.147C17.1428 38.4888 17.1428 36.8306 17.1428 35.1724C17.1428 35.0138 17.1356 34.8624 17.1284 34.7038C15.8881 35.4175 14.5686 35.915 13.1408 36.0375C11.3165 36.1889 9.5571 35.9294 7.92747 35.021C7.48761 34.7758 7.03334 34.5596 6.58627 34.3289C6.55743 34.3577 6.5358 34.3793 6.50695 34.4082C7.19197 35.3166 7.82652 36.261 8.56202 37.119C12.326 41.4519 17.0995 43.8094 22.8177 44.1915C25.5001 44.3718 28.132 43.9969 30.6774 43.0885C35.1048 41.5096 38.602 38.7483 41.1258 34.7831C43.6207 30.861 44.5869 26.5569 44.1831 21.9428C44.1759 21.8347 44.075 21.7049 43.9812 21.6472C42.6833 20.8686 41.3565 20.1548 39.835 19.9385C38.4866 19.7439 37.1382 19.4555 35.7826 19.3834C33.3382 19.2609 30.9226 19.6141 28.5718 20.2846C25.9904 21.0128 23.6469 22.224 21.5991 23.9543C19.6377 25.6125 18.2316 27.6744 17.2942 30.0608C17.2005 30.2915 17.1068 30.5222 16.9986 30.7529C16.8544 31.0485 16.6381 31.2359 16.2919 31.2936C15.5492 31.4306 15.5492 31.445 15.5204 30.688C15.4555 28.8856 15.7295 27.1265 16.3064 25.425C18.0442 20.3423 21.2818 16.5212 26.012 13.969C29.6751 11.9936 33.6554 11.3447 37.7439 11.114C38.3713 11.078 39.0058 11.1068 39.6331 11.1068C39.6404 11.0708 39.6404 11.0347 39.6476 11.0059C38.9049 10.1191 38.09 9.2756 37.1815 8.5258ZM11.2733 38.2941C10.8767 38.2797 10.5233 37.9192 10.5306 37.5227C10.5378 37.1117 10.8839 36.7873 11.3021 36.7945C11.7275 36.8017 12.0448 37.1334 12.0376 37.5515C12.0304 37.9625 11.6771 38.3085 11.2733 38.2941ZM15.6862 40.01C15.4194 40.5363 14.8426 40.8391 14.3234 40.7382C13.7682 40.6228 13.2995 40.1109 13.249 39.5342C13.2057 39.08 13.2923 38.6546 13.5302 38.2581C13.6961 37.9841 13.8763 37.7174 14.0494 37.4362C14.2152 37.1694 14.3667 36.9027 14.5614 36.5854C14.958 37.292 15.3473 37.9481 15.7007 38.6258C15.9314 39.08 15.9242 39.5558 15.6862 40.01ZM19.0464 43.0813C18.5489 43.0596 18.1739 42.6487 18.2028 42.1512C18.2244 41.661 18.6426 41.2861 19.1402 41.3077C19.6377 41.3293 20.0055 41.7403 19.9838 42.2377C19.9622 42.728 19.5512 43.0957 19.0464 43.0813ZM24.3103 43.0813C23.5532 43.0813 22.9835 42.4973 22.9907 41.7259C22.9979 40.9905 23.5892 40.3993 24.3247 40.4065C25.0602 40.4137 25.6803 41.0482 25.6587 41.7763C25.6443 42.5117 25.0458 43.0885 24.3103 43.0813ZM29.603 41.9205C28.5142 41.9205 27.6345 41.0338 27.6417 39.9523C27.6417 38.8637 28.5286 37.9841 29.6102 37.9913C30.6918 37.9985 31.5859 38.8853 31.5859 39.9595C31.5787 41.0265 30.6774 41.9205 29.603 41.9205ZM35.3067 38.4311C33.4607 38.7339 31.8744 37.6885 31.1677 35.951C30.562 34.4658 30.7495 32.9735 31.4417 31.5676C31.8455 30.7457 32.3863 29.9815 32.8622 29.1956C33.4896 28.1647 34.1241 27.1337 34.7731 26.0883C35.0399 26.5714 35.3211 27.0832 35.6168 27.5879C36.3162 28.7775 37.0301 29.9526 37.7223 31.1494C38.1622 31.9064 38.5011 32.7139 38.6236 33.5935C38.8976 35.6915 37.6574 38.049 35.3067 38.4311ZM40.3398 31.6036C39.5971 31.6036 39.013 31.0197 39.0058 30.2843C38.9986 29.5273 39.5827 28.9361 40.3398 28.9361C41.0969 28.9361 41.6882 29.5345 41.681 30.2915C41.6738 31.0197 41.0753 31.6036 40.3398 31.6036ZM30.9442 23.0026C31.8455 22.4619 32.7469 21.914 33.6626 21.3805C33.8069 21.2939 33.9943 21.2363 34.1602 21.2363C36.345 21.2579 38.5299 21.3012 40.7148 21.33C40.8734 21.33 41.0248 21.3372 41.1113 21.4381C41.1546 21.4814 41.1835 21.5463 41.1979 21.6328C41.2988 21.8491 41.4142 22.0582 41.5296 22.2672C41.6089 22.4042 41.681 22.5484 41.7603 22.6854C42.1857 23.4496 42.6112 24.221 42.7842 25.1006C42.9357 25.8432 42.7338 26.5353 42.2002 27.0832C41.6449 27.6528 40.8518 27.66 40.2749 27.1049C39.6331 26.4848 39.5394 25.699 39.6908 24.8771C39.7629 24.495 39.9432 24.1345 40.073 23.7596C38.3424 23.7885 36.619 23.8101 34.8885 23.8533C34.7226 23.8606 34.5424 23.9399 34.4053 24.0336C33.23 24.8843 32.0619 25.7423 30.8865 26.6002C30.5188 25.6341 30.1582 24.6752 29.776 23.6803C30.151 23.4785 30.5476 23.2405 30.9442 23.0026ZM28.2185 23.6659C28.4637 23.5722 28.7089 23.4785 28.954 23.3847C29.2064 23.291 29.3939 23.3919 29.4804 23.6154C29.8914 24.7329 30.3241 25.8504 30.6702 26.9895C30.8649 27.6312 30.6846 28.2223 30.0428 28.5972C29.74 28.7775 29.4444 28.9794 29.1271 29.1812C29.055 28.6189 29.0261 28.0926 28.9108 27.5879C28.644 26.4272 28.3483 25.2664 28.0455 24.1129C27.9734 23.8822 27.9878 23.7452 28.2185 23.6659Z" fill="white"/>
<path d="M17.1499 40.1602C17.1499 40.5567 17.3663 40.8091 17.7196 40.7802C18.4262 40.7226 19.1329 40.6865 19.8251 40.5567C21.4908 40.2539 23.0195 39.569 24.5265 38.8337C25.5649 38.3218 26.56 37.7522 27.3964 36.9303C28.0165 36.3175 28.579 35.6614 28.6727 34.7458C28.716 34.3277 28.7809 33.9095 28.7953 33.4914C28.8386 32.0999 28.9684 30.7012 28.8602 29.3242C28.7232 27.5723 28.3266 25.8492 27.8291 24.155C27.7858 23.9963 27.7209 23.8305 27.6199 23.708C27.3964 23.4268 27.007 23.2249 26.5383 23.3691C24.9952 23.8522 23.5603 24.5082 22.3561 25.6041C21.8946 26.0222 21.4331 26.4476 21.2601 27.082C21.0077 28.0193 20.7409 28.9493 20.4669 29.8794C20.4308 30.0091 20.3155 30.1461 20.2001 30.211C19.3276 30.6868 18.4479 31.1555 17.5682 31.6097C17.3014 31.7466 17.1283 31.9269 17.1211 32.2441C17.1211 33.066 17.1283 33.8951 17.1283 34.717C17.1355 34.8756 17.1427 35.027 17.1427 35.1856C17.1499 36.851 17.1499 38.502 17.1499 40.1602ZM20.2001 34.0898C21.8225 33.2102 23.4377 32.3234 25.0601 31.4438C25.2765 31.3213 25.5072 31.2131 25.8028 31.0617C25.8677 31.3934 25.9471 31.6745 25.9831 31.9557C26.0985 32.9506 26.0985 33.9383 25.7524 34.9044C25.5 35.6182 25.1034 36.1733 24.3679 36.505C23.1349 37.0601 21.9307 37.6873 20.7193 38.2857C20.1712 38.5597 19.9621 38.4371 19.9693 37.8315C19.9693 36.7285 19.9766 35.6182 19.9693 34.5151C19.9621 34.3205 20.0126 34.1907 20.2001 34.0898Z" fill="#EE2F60"/>
<path d="M35.1982 14.5439C35.4506 15.027 35.703 15.4885 35.9193 15.9644C36.0059 16.1447 36.0996 16.2024 36.2943 16.2168C36.9793 16.2528 37.6643 16.2889 38.3421 16.3682C39.3012 16.4836 40.253 16.6422 41.2553 16.7864C41.0895 16.2168 40.938 15.6471 40.7505 15.0991C40.7145 14.9982 40.5486 14.9044 40.4333 14.89C39.5175 14.7674 38.6017 14.6232 37.686 14.5583C36.8711 14.5006 36.0419 14.5439 35.1982 14.5439Z" fill="#D3D3D3"/>
<path d="M22.4496 8.29442C22.9688 7.8834 23.4808 7.46518 24.0288 7.11185C24.6706 6.70084 25.3484 6.34751 26.019 5.96534C25.6224 5.66249 25.2186 5.35243 24.8003 5.05679C24.7355 5.01352 24.5912 5.03515 24.5119 5.07842C23.2284 5.76344 22.0458 6.59989 20.8633 7.59497C21.2599 7.85456 21.6348 8.08531 21.9882 8.34489C22.1756 8.46026 22.291 8.42421 22.4496 8.29442Z" fill="#D3D3D3"/>
<path d="M30.7487 15.1138C30.3233 15.2364 29.8906 15.3229 29.4724 15.4671C28.7513 15.7051 28.0375 15.9647 27.3164 16.2242C27.6048 16.5271 27.8644 16.7723 28.0952 17.0463C28.2394 17.2121 28.3692 17.2121 28.5639 17.1688C29.6671 16.9165 30.7776 16.6857 31.9024 16.4478C31.6789 16.0872 31.4265 15.6834 31.1742 15.2796C31.0732 15.0994 30.9362 15.0561 30.7487 15.1138Z" fill="#D3D3D3"/>
<path d="M17.438 11.1046C16.7962 11.9915 16.1761 12.8929 15.5127 13.8447C15.9958 13.9457 16.378 14.025 16.7674 14.0899C16.8467 14.1043 16.9837 14.0538 17.027 13.9889C17.6399 13.1525 18.2456 12.3088 18.8657 11.4507C18.5052 11.3065 18.1374 11.1551 17.7697 11.0325C17.6687 11.0037 17.4884 11.0397 17.438 11.1046Z" fill="#D3D3D3"/>
<path d="M5.33911 19.1156C5.44006 19.7357 5.54823 20.3558 5.6636 21.0264C6.0025 20.7957 6.28372 20.601 6.55773 20.3991C6.61541 20.3558 6.66589 20.2693 6.66589 20.2044C6.57215 19.0363 6.4712 17.8753 6.36304 16.6855C6.11066 16.9451 5.87992 17.2119 5.60591 17.4283C5.25259 17.7023 5.11558 18.0051 5.24538 18.445C5.31027 18.6613 5.30306 18.892 5.33911 19.1156Z" fill="#D3D3D3"/>
<path d="M14.2586 19.3607C14.3379 19.3535 14.4461 19.2598 14.4749 19.1805C14.7634 18.4017 15.0446 17.6229 15.3402 16.8081C14.9653 16.7721 14.6047 16.7288 14.1793 16.6855C13.9197 17.5653 13.6529 18.4522 13.3789 19.3607C13.7106 19.368 13.9846 19.3824 14.2586 19.3607Z" fill="#D3D3D3"/>
<path d="M24.5988 17.6367C24.1013 18.0045 23.5893 18.3578 23.0918 18.7328C22.8466 18.913 22.6303 19.1294 22.3779 19.3457C22.6591 19.5259 22.8971 19.6774 23.0846 19.8072C23.9282 19.2447 24.7431 18.7039 25.5579 18.1559C25.3992 18.0117 25.2045 17.8603 25.0531 17.6872C24.9017 17.5069 24.7719 17.5069 24.5988 17.6367Z" fill="#D3D3D3"/>
<path d="M7.0839 25.7903C7.31465 25.675 7.51655 25.5812 7.69682 25.4875C7.47328 24.788 7.26417 24.1174 7.04064 23.418C6.78826 23.5478 6.57194 23.6559 6.33398 23.7785C6.58636 24.4635 6.83153 25.1197 7.0839 25.7903Z" fill="#D3D3D3"/>
<path d="M19.7168 22.3674C19.9692 22.5116 20.1711 22.6342 20.4018 22.764C20.8056 22.2737 21.1806 21.8194 21.5772 21.3363C21.3536 21.1848 21.1373 21.0334 20.8849 20.8604C20.4883 21.3723 20.1134 21.8554 19.7168 22.3674Z" fill="#D3D3D3"/>
<path d="M13.818 21.9414C13.5656 21.9414 13.3204 21.9414 13.0176 21.9414C13.0176 22.5904 13.0176 23.2177 13.0176 23.8667C13.2339 23.845 13.4502 23.8306 13.681 23.809C13.7242 23.1817 13.7675 22.5687 13.818 21.9414Z" fill="#D3D3D3"/>
<path d="M18.5634 25.5611C18.823 25.1501 19.0754 24.7535 19.3422 24.3425C19.1259 24.2055 18.9384 24.0901 18.7221 23.9531C18.4769 24.4362 18.2389 24.8977 18.001 25.3664C18.2173 25.4313 18.3831 25.4962 18.5634 25.5611Z" fill="#D3D3D3"/>
<path d="M9.30455 28.8337C9.03776 28.3866 8.78538 27.9684 8.533 27.543C8.38158 27.6439 8.25178 27.7232 8.08594 27.8314C8.34552 28.2857 8.59069 28.7256 8.85028 29.1798C9.03055 29.05 9.16034 28.9491 9.30455 28.8337Z" fill="#D3D3D3"/>
<path d="M13.624 27.4787C13.624 27.01 13.624 26.5701 13.624 26.123C13.4293 26.1375 13.2778 26.1447 13.0615 26.1591C13.1336 26.6711 13.1985 27.1398 13.2634 27.6229C13.4293 27.558 13.5519 27.5075 13.624 27.4787Z" fill="#D3D3D3"/>
<path d="M17.1063 28.3441C17.2865 27.9547 17.4596 27.587 17.6398 27.2048C17.5028 27.1471 17.3658 27.0822 17.1856 27.0029C17.0341 27.4428 16.8971 27.8538 16.7529 28.2864C16.8971 28.3153 17.0125 28.3297 17.1063 28.3441Z" fill="#D3D3D3"/>
<path d="M10.1412 30.0957C10.0186 30.175 9.91044 30.2471 9.77344 30.3337C10.0835 30.586 10.3575 30.824 10.6532 31.0692C10.7685 30.9394 10.8478 30.8384 10.9344 30.7375C10.6532 30.4995 10.3936 30.2976 10.1412 30.0957Z" fill="#D3D3D3"/>
<path d="M37.7144 31.148C37.0294 29.9512 36.3083 28.7761 35.6089 27.5865C35.3132 27.0818 35.0392 26.57 34.7652 26.0869C34.1235 27.1323 33.4889 28.1633 32.8544 29.1942C32.3712 29.9801 31.8376 30.7371 31.4338 31.5662C30.7416 32.972 30.5541 34.4644 31.1598 35.9496C31.8665 37.6871 33.4529 38.7325 35.2988 38.4297C37.6495 38.0476 38.8898 35.6901 38.6086 33.5921C38.5004 32.7197 38.1543 31.9122 37.7144 31.148Z" fill="#FDBF16"/>
<path d="M34.4121 24.0466C34.5491 23.9456 34.7294 23.8663 34.8952 23.8663C36.6258 23.823 38.3492 23.8014 40.0797 23.7726C40.3682 23.7654 40.6494 23.7437 40.9378 23.7509C41.2335 23.7581 41.3416 23.6283 41.32 23.3399C41.2767 22.7703 41.2407 22.2006 41.2046 21.631C41.1902 21.5444 41.1614 21.4795 41.1181 21.4363C41.0244 21.3425 40.8801 21.3281 40.7215 21.3281C38.5367 21.2993 36.3518 21.256 34.167 21.2344C34.0011 21.2344 33.8136 21.2921 33.6694 21.3786C32.7609 21.9122 31.8595 22.4602 30.951 23.001C30.5544 23.239 30.1578 23.4769 29.79 23.6932C30.165 24.6883 30.5327 25.6401 30.9005 26.6136C32.0614 25.7555 33.2296 24.8974 34.4121 24.0466Z" fill="#EE2F60"/>
<path d="M29.6101 37.9825C28.5285 37.9753 27.6416 38.855 27.6416 39.9438C27.6416 41.0254 28.5213 41.9123 29.6029 41.9123C30.6773 41.9123 31.5787 41.0182 31.5859 39.951C31.5859 38.8766 30.6917 37.9897 29.6101 37.9825Z" fill="#FDBF16"/>
<path d="M41.3126 23.342C41.3342 23.6304 41.2261 23.7602 40.9304 23.753C40.6492 23.7458 40.3608 23.7674 40.0724 23.7746C39.9426 24.1424 39.7623 24.5101 39.6902 24.8923C39.5388 25.7143 39.6253 26.5003 40.2743 27.1204C40.8511 27.6757 41.6443 27.6684 42.1995 27.0988C42.7403 26.5436 42.935 25.8585 42.7836 25.1158C42.6105 24.2361 42.1851 23.4718 41.7597 22.7002C41.6804 22.5632 41.601 22.419 41.5289 22.282C41.4136 22.0729 41.3054 21.8638 41.1972 21.6475C41.2405 22.2027 41.2693 22.7723 41.3126 23.342Z" fill="#FDBF16"/>
<path d="M28.9037 27.5806C29.0191 28.0853 29.048 28.6117 29.1201 29.1742C29.4373 28.965 29.733 28.7631 30.0358 28.5901C30.6704 28.2151 30.8579 27.6238 30.6632 26.9821C30.3171 25.8428 29.8844 24.7251 29.4734 23.6075C29.3941 23.3839 29.1994 23.283 28.947 23.3767C28.7018 23.4705 28.4567 23.5642 28.2115 23.6579C27.9807 23.7445 27.9735 23.8743 28.0312 24.105C28.3485 25.2659 28.6441 26.4197 28.9037 27.5806Z" fill="#EE2F60"/>
<path d="M14.5614 36.5908C14.3667 36.9081 14.2152 37.1821 14.0494 37.4417C13.8763 37.7157 13.6961 37.9825 13.5302 38.2637C13.2923 38.6531 13.2057 39.0857 13.249 39.54C13.3067 40.1169 13.7682 40.6288 14.3234 40.7442C14.8426 40.8523 15.4194 40.5495 15.6862 40.0159C15.917 39.5544 15.9314 39.0785 15.7006 38.6314C15.3473 37.9536 14.9579 37.2975 14.5614 36.5908Z" fill="#FDBF16"/>
<path d="M24.3321 40.4053C23.5966 40.3981 23.0053 40.9822 22.9981 41.7249C22.9909 42.4965 23.5533 43.0805 24.3177 43.0805C25.0532 43.0805 25.6517 42.5037 25.6733 41.7754C25.6805 41.0471 25.0676 40.4126 24.3321 40.4053Z" fill="#FDBF16"/>
<path d="M40.3399 28.9346C39.5828 28.9346 38.9987 29.5259 39.0059 30.283C39.0131 31.0185 39.5972 31.6026 40.3399 31.6026C41.0754 31.6026 41.6739 31.0185 41.6811 30.2902C41.6883 29.5331 41.097 28.9346 40.3399 28.9346Z" fill="#FDBF16"/>
<path d="M19.1401 41.3066C18.6426 41.2849 18.2316 41.6527 18.2027 42.1502C18.1739 42.6478 18.5488 43.0588 19.0464 43.0804C19.5511 43.1021 19.9621 42.7343 19.9838 42.244C20.0054 41.7392 19.6377 41.3282 19.1401 41.3066Z" fill="#FDBF16"/>
<path d="M11.3019 36.7931C10.8837 36.7859 10.5376 37.1103 10.5304 37.5213C10.5232 37.9179 10.8693 38.2857 11.2731 38.2929C11.6769 38.3073 12.0302 37.9612 12.0374 37.5502C12.0446 37.1248 11.7274 36.8003 11.3019 36.7931Z" fill="#FDBF16"/>
<path d="M19.9697 37.8323C19.9697 38.4307 20.1716 38.5532 20.7196 38.2865C21.931 37.6881 23.1352 37.0609 24.3683 36.5057C25.1038 36.1741 25.5004 35.6262 25.7527 34.9052C26.0916 33.9391 26.0916 32.9514 25.9835 31.9565C25.9474 31.6681 25.8753 31.3869 25.8032 31.0625C25.5004 31.2139 25.2768 31.322 25.0605 31.4446C23.4381 32.3242 21.8229 33.2109 20.2005 34.0905C20.013 34.1915 19.9697 34.3212 19.9697 34.5159C19.9697 35.6189 19.9697 36.7292 19.9697 37.8323ZM20.6403 34.1049C22.0753 33.3335 23.5102 32.5693 24.9379 31.7979C25.1687 31.6753 25.385 31.5167 25.6374 31.3581C25.6518 31.4086 25.6734 31.459 25.6878 31.5095C25.9474 32.5765 25.2119 33.968 24.1952 34.3356C22.9694 34.7754 21.6931 34.9701 20.3952 35.0494C20.3375 35.0494 20.2798 35.0422 20.2293 35.035C20.1139 34.3861 20.1067 34.3861 20.6403 34.1049Z" fill="white"/>
<path d="M20.3945 35.0503C21.6925 34.971 22.9688 34.7763 24.1946 34.3365C25.2113 33.9687 25.9468 32.577 25.6872 31.5098C25.6728 31.4593 25.6584 31.4161 25.6368 31.3584C25.3844 31.517 25.1681 31.6685 24.9373 31.7983C23.5024 32.5698 22.0674 33.3342 20.6397 34.1057C20.1061 34.3941 20.1061 34.3941 20.2287 35.0431C20.2864 35.0431 20.344 35.0503 20.3945 35.0503Z" fill="#EE2F60"/>
</svg>
