<svg xmlns="http://www.w3.org/2000/svg" viewBox="0 0 41.23 36.67"><defs><style>.cls-1{fill:#fff;}.cls-2{fill:#28ccac;}.cls-3{fill:#fc9eb2;}</style></defs><title>Asset 1</title><g id="Layer_2" data-name="Layer 2"><g id="Layer_1-2" data-name="Layer 1"><path class="cls-1" d="M22.9.24H18.33a18.1,18.1,0,0,0,0,36.2H22.9a18.1,18.1,0,1,0,0-36.2ZM18.33,35.46A17.13,17.13,0,1,1,35.46,18.33,17.15,17.15,0,0,1,18.33,35.46Zm19.63-9a17.1,17.1,0,0,1-11.76,8.66l-1.85.36,1.7-.81a18.24,18.24,0,0,0,8.54-8.44l.06-.13h3.49Zm2-7.41A17,17,0,0,1,38.67,25l-.06.14H35.1l.12-.32A18,18,0,0,0,36.41,19v-.23H40Zm-1.34-7.41A17,17,0,0,1,40,17.6v.25h-3.6v-.23a18,18,0,0,0-1.19-5.79l-.12-.32h3.51Zm-.52-1.11H34.67l-.06-.13A18.24,18.24,0,0,0,26.06,2l-1.7-.81,1.85.36A17.1,17.1,0,0,1,38,10.19Z"/><path class="cls-2" d="M35.7,18.33A17.36,17.36,0,1,0,18.33,35.7,17.38,17.38,0,0,0,35.7,18.33ZM18.33,35.23A16.89,16.89,0,1,1,35.23,18.33,16.91,16.91,0,0,1,18.33,35.23Z"/><path class="cls-2" d="M22.9,0H18.33a18.33,18.33,0,0,0,0,36.67H22.9A18.33,18.33,0,0,0,22.9,0Zm0,36.2H18.33a17.86,17.86,0,0,1,0-35.73H22.9a17.86,17.86,0,0,1,0,35.73Z"/><path class="cls-2" d="M26.26,1.3,22.56.57,26,2.19a18,18,0,0,1,8.43,8.33l.13.26h4l-.38-.7A17.33,17.33,0,0,0,26.26,1.3Zm8.56,9a18.45,18.45,0,0,0-8.65-8.55,17,17,0,0,1,11.59,8.55Z"/><path class="cls-2" d="M34.81,25.89h-.29l-.13.26A18,18,0,0,1,26,34.48l-3.4,1.61,3.7-.73a17.33,17.33,0,0,0,11.92-8.78l.38-.7H34.81Zm-8.65,9a18.45,18.45,0,0,0,8.65-8.55h2.95A17,17,0,0,1,26.17,34.91Z"/><path class="cls-2" d="M36.65,18.58H36.2l0,.45A17.73,17.73,0,0,1,35,24.75l-.25.64h4l.12-.29a17.22,17.22,0,0,0,1.36-6l0-.49H36.65Zm1.8,6.34h-3a18.21,18.21,0,0,0,1.21-5.87h3.12A16.78,16.78,0,0,1,38.45,24.92Z"/><path class="cls-2" d="M35.44,11.28h-.69l.25.64a17.73,17.73,0,0,1,1.18,5.72l0,.45h4.07l0-.49a17.22,17.22,0,0,0-1.36-6l-.12-.29H35.44Zm4.33,6.34H36.65a18.21,18.21,0,0,0-1.21-5.87h3A16.78,16.78,0,0,1,39.77,17.61Z"/><path class="cls-2" d="M35.46,18.33A17.13,17.13,0,1,0,18.33,35.46,17.15,17.15,0,0,0,35.46,18.33ZM18.33,35.23A16.89,16.89,0,1,1,35.23,18.33,16.91,16.91,0,0,1,18.33,35.23Z"/><path class="cls-2" d="M36.65,18.82h-.23V19a18,18,0,0,1-1.19,5.79l-.12.32h3.51l.06-.14A17,17,0,0,0,40,19.06v-.25H36.65Zm1.8,6.1h-3a18.21,18.21,0,0,0,1.21-5.87h3.12A16.78,16.78,0,0,1,38.45,24.92Z"/><path class="cls-2" d="M35.1,11.51l.12.32a18,18,0,0,1,1.19,5.79v.23H40V17.6a17,17,0,0,0-1.34-5.95l-.06-.14H35.1Zm4.68,6.1H36.65a18.21,18.21,0,0,0-1.21-5.87h3A16.78,16.78,0,0,1,39.77,17.61Z"/><path class="cls-2" d="M22.9,0H18.33a18.33,18.33,0,0,0,0,36.67H22.9A18.33,18.33,0,0,0,22.9,0Zm0,36.43H18.33a18.1,18.1,0,0,1,0-36.2H22.9a18.1,18.1,0,0,1,0,36.2Z"/><path class="cls-2" d="M26.21,1.53l-1.85-.36,1.7.81a18.25,18.25,0,0,1,8.54,8.44l.06.13h3.49L38,10.19A17.1,17.1,0,0,0,26.21,1.53Zm8.6,8.78a18.45,18.45,0,0,0-8.65-8.55,17,17,0,0,1,11.59,8.55Z"/><path class="cls-2" d="M34.81,26.13h-.15l-.06.13a18.25,18.25,0,0,1-8.54,8.44l-1.7.81,1.85-.36A17.1,17.1,0,0,0,38,26.47l.19-.35H34.81Zm-8.65,8.78a18.45,18.45,0,0,0,8.65-8.55h2.95A17,17,0,0,1,26.17,34.91Z"/><path class="cls-3" d="M30.29,8.71,22.75,7.13a2.55,2.55,0,0,0-.59-.07H22a2.9,2.9,0,0,0-.8.16,3.18,3.18,0,0,0-.76.39,3.79,3.79,0,0,0-.34.27l0,0L20,8.06,18.22,9.79l-.11-.1A.22.22,0,0,0,18,9.63a.22.22,0,0,0-.17.09L8,21.77a.35.35,0,0,0,0,.42l.26.32L6.55,24.65a.35.35,0,0,0,0,.42l.23.29-1,1.21a.34.34,0,0,0-.07.21.34.34,0,0,0,.07.21l1.26,1.55a.21.21,0,0,0,.34,0l1-1.21.23.29a.21.21,0,0,0,.34,0l1.74-2.14.26.32a.21.21,0,0,0,.34,0l.64-.79,3.84,2.48a.88.88,0,0,0,.48.15.93.93,0,0,0,.72-.37l5-6.15a1.49,1.49,0,0,0,.21-1.42l-1.8-4.91,0-.13.74-.91a.33.33,0,0,0,.07-.21.35.35,0,0,0,0-.15L21,13.25,22.86,11l7.33-.36a.87.87,0,0,0,.75-.81,1.15,1.15,0,0,0-.13-.72A.78.78,0,0,0,30.29,8.71ZM7.23,27.91l-.92-1.13.81-1L8,26.91ZM8.78,27,7.06,24.86l1.56-1.93,1.73,2.13Zm11-12.55a.35.35,0,0,0,0,.42.69.69,0,0,1,.11.19L21.74,20a.79.79,0,0,1-.11.75l-5,6.15a.49.49,0,0,1-.38.2A.47.47,0,0,1,16,27l-3.78-2.45a.58.58,0,0,1-.13-.12.21.21,0,0,0-.34,0l-.62.76L8.53,22,18,10.35l2.59,3.2ZM30.17,10l-7.42.36a.22.22,0,0,0-.16.09l-1.91,2.35-2.12-2.62.92-.92.79-.8.09-.09,0,0a3.27,3.27,0,0,1,.3-.24,2.76,2.76,0,0,1,.66-.34,2.48,2.48,0,0,1,.7-.14h.1a2.32,2.32,0,0,1,.49.05L30.21,9.3a.38.38,0,0,1,.25.43A.34.34,0,0,1,30.17,10Z"/><path class="cls-3" d="M12.81,23.26a.31.31,0,0,0,.13.22l3.05,2a.21.21,0,0,0,.11,0,.22.22,0,0,0,.17-.09l4.2-5.18a.35.35,0,0,0,0-.33l-1.45-4a.26.26,0,0,0-.22-.18.22.22,0,0,0-.17.09L12.88,23A.34.34,0,0,0,12.81,23.26Zm4.47-4.84.19,1.2-1.63,2.1-1.08-.2Zm-2.94,3.63,1.6.29a.22.22,0,0,0,.18-.09l1.8-2.32a.35.35,0,0,0,.06-.26l-.27-1.74,1.09-1.34L20,20l-4,4.88-2.61-1.69Z"/><path class="cls-3" d="M9.61,23.84l-.74-.91-.25-.31-.25.31L7.06,24.56l-.25.31.25.31.11.13,1.26,1.55.11.13.25.31L9,27l1.32-1.62.25-.31-.25-.31Zm-.83,2.84-.11-.13h0L7.42,25h0l-.11-.13,1.32-1.62.74.91.74.91Z"/><path class="cls-3" d="M30.32,8.5,22.79,6.92a2.7,2.7,0,0,0-.63-.07H22a3,3,0,0,0-.85.17,3.34,3.34,0,0,0-.8.41,3.84,3.84,0,0,0-.37.29l0,0-.14.14L18.21,9.52A.37.37,0,0,0,18,9.41a.38.38,0,0,0-.3.15L7.89,21.61a.6.6,0,0,0,0,.73l.14.17-1.61,2a.6.6,0,0,0,0,.73l.11.13-.86,1.06a.6.6,0,0,0,0,.73L6.93,28.7a.36.36,0,0,0,.59,0l.86-1.06.11.13a.36.36,0,0,0,.59,0l1.61-2,.14.17a.37.37,0,0,0,.59,0l.55-.68,3.73,2.41a1,1,0,0,0,.56.17,1.1,1.1,0,0,0,.85-.44l5-6.15a1.75,1.75,0,0,0,.25-1.66l-1.8-4.9.66-.81a.58.58,0,0,0,.12-.36.59.59,0,0,0-.07-.26l1.68-2.07,7.26-.36a1.06,1.06,0,0,0,.91-1A1.4,1.4,0,0,0,30.94,9,1,1,0,0,0,30.32,8.5Zm-.14,1.93-7.26.36h-.14l-.1.12L21,13l-.19.24.14.29,0,0h0a.09.09,0,0,1,0,.06l-.66.81-.17.21.1.27,1.8,4.9A1.24,1.24,0,0,1,21.85,21l-5,6.15a.77.77,0,0,1-.6.31.73.73,0,0,1-.4-.12L12.13,24.9l-.23-.15-.18.23-.55.68a.06.06,0,0,1-.09,0l-.14-.17-.25-.31-.25.31-1.61,2a.06.06,0,0,1-.09,0l-.11-.13L8.38,27l-.25.31-.86,1.06a.06.06,0,0,1-.09,0L5.92,26.84a.09.09,0,0,1,0-.06.09.09,0,0,1,0-.06l.86-1.06L7,25.36l-.25-.31-.11-.13a.1.1,0,0,1,0-.12l1.61-2,.25-.31-.25-.31L8.14,22a.1.1,0,0,1,0-.12L17.92,9.87l0,0,0,0,.22.2.21-.21,1.63-1.64.13-.12h0l0,0h0a3.49,3.49,0,0,1,.33-.26,3,3,0,0,1,.73-.37A2.74,2.74,0,0,1,22,7.28h.11a2.45,2.45,0,0,1,.55.06h0l7.53,1.58a.61.61,0,0,1,.4.31.89.89,0,0,1,.1.56A.68.68,0,0,1,30.18,10.43Z"/><path class="cls-3" d="M7.37,25.78l-.25-.31-.25.31-.56.69-.25.31.25.31.67.83.25.31.25-.31L8,27.22l.25-.31L8,26.61Zm-.14,1.83-.67-.83.56-.69.67.83Z"/><path class="cls-3" d="M18.5,10.69l-.28-.34L18,10l-.25.31L8.53,21.67,8.28,22l.25.31,2.34,2.89.25.31.25-.31.5-.61a.06.06,0,0,1,0,0,.06.06,0,0,1,0,0,.77.77,0,0,0,.17.16l3.79,2.45a.62.62,0,0,0,.33.1.65.65,0,0,0,.51-.26l5-6.15a1,1,0,0,0,.15-1L20.11,15a.9.9,0,0,0-.15-.26.1.1,0,0,1,0-.12l.61-.75.25-.31-.25-.31Zm1.21,3.6a.6.6,0,0,0,0,.73.46.46,0,0,1,.08.13L21.58,20a.53.53,0,0,1-.07.51l-5,6.15a.33.33,0,0,1-.26.13.32.32,0,0,1-.17-.05L12.3,24.33l-.09-.08a.36.36,0,0,0-.59,0l-.5.61L8.78,22,18,10.65l.28.35,2.06,2.54Z"/><path class="cls-3" d="M30.24,9.09,22.7,7.51a2.46,2.46,0,0,0-.54-.06h-.1a2.64,2.64,0,0,0-.74.14,2.91,2.91,0,0,0-.7.36,3.36,3.36,0,0,0-.32.26l0,0-.1.1-.79.8-.77.77-.3.3.28.34,1.86,2.3.25.31.25-.31,1.78-2.19,0,0,7.42-.36a.53.53,0,0,0,.45-.49.7.7,0,0,0-.08-.44A.48.48,0,0,0,30.24,9.09Zm-.08.74-7.42.36a.39.39,0,0,0-.28.15l-1.78,2.19-1.86-2.3.77-.77.79-.8.11-.1,0,0a3,3,0,0,1,.28-.23A2.59,2.59,0,0,1,21.41,8a2.34,2.34,0,0,1,.66-.13h.09a2.22,2.22,0,0,1,.46.05l7.56,1.59a.16.16,0,0,1,.1.18A.14.14,0,0,1,30.16,9.83Z"/><path class="cls-3" d="M12.64,23.3a.52.52,0,0,0,.22.38l3.06,2a.36.36,0,0,0,.19.06.38.38,0,0,0,.3-.15l4.2-5.18a.61.61,0,0,0,.09-.58l-1.45-4a.44.44,0,0,0-.31-.29h-.08a.38.38,0,0,0-.3.15l-5.8,7.15A.59.59,0,0,0,12.64,23.3Zm.37-.14L18.81,16l0,0h0a.07.07,0,0,1,0,0l1.45,4a.1.1,0,0,1,0,.09l-4.2,5.18a.06.06,0,0,1,0,0h0l-3.06-2a.08.08,0,0,1,0-.06A.09.09,0,0,1,13,23.16Z"/><path class="cls-3" d="M15.73,21.92l.18,0,.13-.16,1.5-1.94.13-.16,0-.22-.11-.69-.13-.8-.47.58-2,2.51-.49.61.69.13Zm1.44-3.05.11.69-1.5,1.94-.64-.12Z"/><path class="cls-3" d="M15.87,24.95l.23.15.18-.23,3.78-4.66.17-.21-.1-.27L19,16.78l-.21-.57-.36.44-.84,1-.13.16,0,.23.26,1.63a.09.09,0,0,1,0,.07L16,22.1l0,0h0l-1.47-.27-.17,0-.13.15-.65.8-.34.42.42.27ZM14.4,22.29l1.47.27h.06a.38.38,0,0,0,.3-.16L18,20.08a.6.6,0,0,0,.11-.45L17.89,18l.84-1,1.08,2.95L16,24.56l-2.28-1.47Z"/><path class="cls-3" d="M7.24,25.93l-.12-.15L7,25.93l-.56.69-.12.15.12.15.67.83.12.15.12-.15.56-.69L8,26.91l-.12-.15Zm0,1.67-.67-.83.56-.69.67.83Z"/><path class="cls-3" d="M9.49,24l-.74-.91-.12-.15-.12.15L7.18,24.71l-.12.15.12.15.11.13L8.55,26.7l.11.13.12.15.12-.15,1.32-1.62.12-.15-.12-.15Zm-.7,2.68-.11-.13h0L7.42,25h0l-.11-.13,1.32-1.62.74.91.74.91Z"/><path class="cls-3" d="M30.21,9.3,22.66,7.72a2.33,2.33,0,0,0-.5-.06h-.09a2.5,2.5,0,0,0-.7.14,2.75,2.75,0,0,0-.66.34l-.3.24,0,0-.1.09-.79.8-.77.77-.15.15.14.17,1.86,2.3.12.15.12-.15,1.78-2.19a.22.22,0,0,1,.16-.09L30.17,10a.34.34,0,0,0,.29-.31.44.44,0,0,0-.05-.28A.3.3,0,0,0,30.21,9.3Zm0,.53-7.42.36a.39.39,0,0,0-.28.15l-1.78,2.19-1.86-2.3.77-.77.79-.8.11-.1,0,0a3,3,0,0,1,.28-.23A2.59,2.59,0,0,1,21.41,8a2.34,2.34,0,0,1,.66-.13h.09a2.22,2.22,0,0,1,.46.05l7.56,1.59a.16.16,0,0,1,.1.18A.14.14,0,0,1,30.16,9.83Z"/><path class="cls-3" d="M30.32,8.5,22.79,6.92a2.7,2.7,0,0,0-.63-.07H22a3,3,0,0,0-.85.17,3.34,3.34,0,0,0-.8.41,3.84,3.84,0,0,0-.37.29l0,0-.14.14L18.21,9.52A.37.37,0,0,0,18,9.41a.38.38,0,0,0-.3.15L7.89,21.61a.6.6,0,0,0,0,.73l.14.17-1.61,2a.6.6,0,0,0,0,.73l.11.13-.86,1.06a.6.6,0,0,0,0,.73L6.93,28.7a.36.36,0,0,0,.59,0l.86-1.06.11.13a.36.36,0,0,0,.59,0l1.61-2,.14.17a.37.37,0,0,0,.59,0l.55-.68,3.73,2.41a1,1,0,0,0,.56.17,1.1,1.1,0,0,0,.85-.44l5-6.15a1.75,1.75,0,0,0,.25-1.66l-1.8-4.9.66-.81a.58.58,0,0,0,.12-.36.59.59,0,0,0-.07-.26l1.68-2.07,7.26-.36a1.06,1.06,0,0,0,.91-1A1.4,1.4,0,0,0,30.94,9,1,1,0,0,0,30.32,8.5Zm.62,1.33a.87.87,0,0,1-.75.81L22.93,11h-.07l0,.06-1.68,2.07-.1.12.07.15a.35.35,0,0,1,0,.15.33.33,0,0,1-.07.21l-.66.81-.08.1,0,.14,1.8,4.9A1.5,1.5,0,0,1,22,21.12l-5,6.15a.93.93,0,0,1-.72.37.88.88,0,0,1-.48-.15l-3.73-2.41L11.94,25l-.09.11-.55.68a.21.21,0,0,1-.34,0l-.14-.17-.12-.15-.12.15L9,27.62a.21.21,0,0,1-.34,0l-.11-.13-.12-.15-.12.15L7.4,28.55a.21.21,0,0,1-.34,0L5.79,27a.33.33,0,0,1-.07-.21.34.34,0,0,1,.07-.21l.86-1.06.12-.15-.12-.15-.11-.13a.35.35,0,0,1,0-.42l1.61-2,.12-.15-.12-.15L8,22.19a.35.35,0,0,1,0-.42L17.8,9.71A.22.22,0,0,1,18,9.63a.21.21,0,0,1,.14.07l.11.1.11-.11L20,8.05l.13-.12,0,0h0a3.66,3.66,0,0,1,.35-.28,3.18,3.18,0,0,1,.76-.39A2.88,2.88,0,0,1,22,7.07h.12a2.58,2.58,0,0,1,.6.07l7.53,1.58a.79.79,0,0,1,.51.4A1.15,1.15,0,0,1,30.93,9.83Z"/><path class="cls-3" d="M18.37,10.84l-.28-.35L18,10.35l-.12.15L8.66,21.82,8.53,22l.12.15L11,25l.12.15.12-.15.5-.61a.21.21,0,0,1,.34,0,.58.58,0,0,0,.13.12L16,27a.47.47,0,0,0,.25.08.49.49,0,0,0,.38-.2l5-6.15a.79.79,0,0,0,.11-.75l-1.8-4.89a.68.68,0,0,0-.11-.2.35.35,0,0,1,0-.42l.61-.75.12-.15-.12-.15Zm1.34,3.44a.6.6,0,0,0,0,.73.46.46,0,0,1,.08.13L21.58,20a.53.53,0,0,1-.07.51l-5,6.15a.33.33,0,0,1-.26.13.32.32,0,0,1-.17-.05L12.3,24.33l-.09-.08a.36.36,0,0,0-.59,0l-.5.61L8.78,22,18,10.65l.28.35,2.06,2.54Z"/><path class="cls-3" d="M12.64,23.3a.52.52,0,0,0,.22.38l3.06,2a.36.36,0,0,0,.19.06.38.38,0,0,0,.3-.15l4.2-5.18a.61.61,0,0,0,.09-.58l-1.45-4a.44.44,0,0,0-.31-.29h-.08a.38.38,0,0,0-.3.15l-5.8,7.15A.59.59,0,0,0,12.64,23.3Zm.24-.29,5.8-7.15a.22.22,0,0,1,.17-.09h0a.26.26,0,0,1,.18.17l1.45,4a.35.35,0,0,1,0,.33l-4.2,5.18a.22.22,0,0,1-.17.09.21.21,0,0,1-.11,0l-3.06-2a.31.31,0,0,1-.13-.22A.35.35,0,0,1,12.88,23Z"/><path class="cls-3" d="M15.95,24.75l.11.07.09-.11,3.78-4.66L20,20,20,19.81l-1.08-2.95-.1-.29-.18.22-.84,1-.07.08,0,.11L18,19.66a.35.35,0,0,1-.06.26l-1.8,2.32a.22.22,0,0,1-.18.09h0l-1.47-.27-.09,0-.06.08-.65.8-.17.21.21.14ZM14.4,22.29l1.47.27h.06a.38.38,0,0,0,.3-.16L18,20.08a.6.6,0,0,0,.11-.45L17.89,18l.84-1,1.08,2.95L16,24.56l-2.28-1.47Z"/><path class="cls-3" d="M15.76,21.71l.09,0,.06-.08,1.5-1.94.06-.08,0-.11-.11-.69-.06-.4-.23.29-2,2.51-.25.3.35.06Zm1.42-2.84.11.69-1.5,1.94-.64-.12Z"/></g></g></svg>