<svg xmlns="http://www.w3.org/2000/svg" viewBox="0 0 38.98 21.72"><defs><style>.cls-1{fill:#dff6ff;}.cls-2{fill:#28ccac;}</style></defs><title>Asset 1</title><g id="Layer_2" data-name="Layer 2"><g id="Layer_1-2" data-name="Layer 1"><path class="cls-1" d="M6.72,5.7a.41.41,0,0,0-.33-.18.38.38,0,0,0-.26.11A19.1,19.1,0,0,0,.24,19.49a.39.39,0,0,0,.39.38H6.33a.39.39,0,0,0,.39-.38,12.77,12.77,0,0,1,3.14-8.37.39.39,0,0,0,0-.46ZM9,11a13.63,13.63,0,0,0-3,7.92v.22H1v-.24A18.41,18.41,0,0,1,6.12,6.73l.21-.22,2.76,4.31Z"/><path class="cls-1" d="M19.49,17.48a2,2,0,1,0,2,2A2,2,0,0,0,19.49,17.48Zm0,3.23a1.23,1.23,0,1,1,1.23-1.23A1.23,1.23,0,0,1,19.49,20.72Z"/><path class="cls-1" d="M25.28,8.1a.4.4,0,0,0,.18,0,.38.38,0,0,0,.16,0,.39.39,0,0,0,.21-.27L27.1,2.13a.38.38,0,0,0-.23-.44,19.37,19.37,0,0,0-14.76,0,.38.38,0,0,0-.23.44l1.27,5.71a.39.39,0,0,0,.21.26.38.38,0,0,0,.34,0,12.74,12.74,0,0,1,11.58,0ZM13.8,7.2,12.71,2.28l.19-.07a18.6,18.6,0,0,1,13.19,0l.19.07L25.19,7.2l-.26-.12a13.46,13.46,0,0,0-10.87,0Z"/><path class="cls-1" d="M32.56,5.52h0a.39.39,0,0,0-.28.18l-3.17,5a.39.39,0,0,0,0,.46,12.84,12.84,0,0,1,2,3.1l.1.23-7.91,3a.39.39,0,0,0-.23.5.39.39,0,0,0,.36.25l.13,0,7.92-3,.08.23a12.68,12.68,0,0,1,.69,4.1.39.39,0,0,0,.39.38h5.71a.39.39,0,0,0,.39-.38A19.1,19.1,0,0,0,32.85,5.63.4.4,0,0,0,32.56,5.52ZM38,18.86v.24H33v-.23a13.48,13.48,0,0,0-.73-3.77l-.07-.22,1.8-.67a.38.38,0,0,0-.14-.75l-.13,0-1.81.68-.09-.2A13.61,13.61,0,0,0,30,11l-.11-.13,2.76-4.31.21.22A18.41,18.41,0,0,1,38,18.86Z"/><path class="cls-2" d="M6.69,6.64l-.32-.5-.41.43A18.64,18.64,0,0,0,.78,18.85l0,.49H6.17l0-.45a13.39,13.39,0,0,1,3-7.78l.21-.26-.18-.29Zm-1,12.23H1.25a18.07,18.07,0,0,1,5-12l2.5,3.92A13.77,13.77,0,0,0,5.72,18.86Z"/><path class="cls-2" d="M6.92,5.57a.62.62,0,0,0-.45-.28H6.39A.61.61,0,0,0,6,5.46a19.33,19.33,0,0,0-6,14,.62.62,0,0,0,.62.62H6.33a.62.62,0,0,0,.62-.62A12.53,12.53,0,0,1,10,11.27a.62.62,0,0,0,.05-.74ZM9.68,11a13,13,0,0,0-3.2,8.53.15.15,0,0,1-.15.15H.62a.15.15,0,0,1-.15-.15A18.86,18.86,0,0,1,6.29,5.79a.14.14,0,0,1,.1,0h0a.15.15,0,0,1,.11.07l3.17,5A.15.15,0,0,1,9.68,11Z"/><path class="cls-2" d="M32.3,6.64l-2.5,3.92-.18.29.21.26a13.36,13.36,0,0,1,1.81,3l.18.4.41-.15,1.61-.6h.05a.15.15,0,0,1,.14.21.15.15,0,0,1-.08.08l-1.59.59-.43.16.15.43a13.24,13.24,0,0,1,.72,3.7l0,.45h5.41l0-.49A18.64,18.64,0,0,0,33,6.56l-.41-.43Zm5.43,12.23H33.26A13.7,13.7,0,0,0,32.52,15l1.59-.59a.62.62,0,1,0-.43-1.16l-1.61.6a13.81,13.81,0,0,0-1.88-3.07l2.5-3.92A18.07,18.07,0,0,1,37.73,18.86Z"/><path class="cls-2" d="M19.49,17.25a2.24,2.24,0,1,0,2.24,2.24A2.24,2.24,0,0,0,19.49,17.25Zm0,4a1.77,1.77,0,1,1,1.77-1.77A1.77,1.77,0,0,1,19.49,21.25Z"/><path class="cls-2" d="M32.59,5.28h-.07a.62.62,0,0,0-.45.28l-3.17,5a.62.62,0,0,0,.05.74,12.58,12.58,0,0,1,1.95,3l-7.68,2.87a.62.62,0,0,0,.22,1.2.61.61,0,0,0,.22,0l7.7-2.88a12.46,12.46,0,0,1,.68,4,.62.62,0,0,0,.62.62h5.71a.62.62,0,0,0,.62-.62,19.33,19.33,0,0,0-6-14A.62.62,0,0,0,32.59,5.28Zm5.77,14.35H32.66a.15.15,0,0,1-.15-.15,12.91,12.91,0,0,0-.7-4.17l-.16-.46-.45.17-7.7,2.88h-.05a.15.15,0,0,1-.14-.21.15.15,0,0,1,.08-.08l7.68-2.87.47-.18-.21-.46a13.06,13.06,0,0,0-2-3.16.15.15,0,0,1,0-.18l3.17-5a.15.15,0,0,1,.11-.07h0a.15.15,0,0,1,.1,0,18.86,18.86,0,0,1,5.82,13.69A.15.15,0,0,1,38.36,19.64Z"/><path class="cls-2" d="M25.17,8.31a.62.62,0,0,0,.89-.42l1.27-5.71A.62.62,0,0,0,27,1.48,19.61,19.61,0,0,0,12,1.48a.62.62,0,0,0-.37.71l1.27,5.71a.62.62,0,0,0,.61.49.61.61,0,0,0,.28-.07,12.51,12.51,0,0,1,11.37,0ZM13.59,7.9l-.06,0h-.06a.15.15,0,0,1-.08-.1L12.11,2.08a.15.15,0,0,1,.09-.17,19.14,19.14,0,0,1,14.58,0,.15.15,0,0,1,.09.17L25.6,7.79a.15.15,0,0,1-.08.1h-.06l-.07,0a13,13,0,0,0-11.8,0Z"/><path class="cls-2" d="M19.49,18A1.47,1.47,0,1,0,21,19.49,1.47,1.47,0,0,0,19.49,18Zm0,2.46a1,1,0,1,1,1-1A1,1,0,0,1,19.49,20.48Z"/><path class="cls-2" d="M24.83,7.3l.53.23L25.48,7l1-4.43.09-.4L26.17,2A18.83,18.83,0,0,0,12.81,2l-.38.15.09.4L13.5,7l.12.56.53-.23a13.22,13.22,0,0,1,10.68,0ZM14,6.87,13,2.43a18.36,18.36,0,0,1,13,0L25,6.87A13.69,13.69,0,0,0,14,6.87Z"/><path class="cls-2" d="M6.92,5.57a.62.62,0,0,0-.45-.28H6.39A.61.61,0,0,0,6,5.46a19.33,19.33,0,0,0-6,14,.62.62,0,0,0,.62.62H6.33a.62.62,0,0,0,.62-.62A12.53,12.53,0,0,1,10,11.27a.62.62,0,0,0,.05-.74Zm2.94,5.54a12.77,12.77,0,0,0-3.14,8.37.39.39,0,0,1-.39.39H.62a.39.39,0,0,1-.39-.39A19.1,19.1,0,0,1,6.13,5.63a.38.38,0,0,1,.26-.11h0a.38.38,0,0,1,.28.17l3.17,5A.39.39,0,0,1,9.85,11.11Z"/><path class="cls-2" d="M19.49,17.25a2.24,2.24,0,1,0,2.24,2.24A2.24,2.24,0,0,0,19.49,17.25Zm0,4.24a2,2,0,1,1,2-2A2,2,0,0,1,19.49,21.49Z"/><path class="cls-2" d="M32.5,6.76,30,10.68l-.09.14L30,11a13.6,13.6,0,0,1,1.85,3l.09.2.21-.08,1.61-.6.13,0a.38.38,0,0,1,.35.54.38.38,0,0,1-.22.2l-1.59.59-.21.08.07.22A13.47,13.47,0,0,1,33,18.87v.22H38v-.24a18.41,18.41,0,0,0-5.1-12.13l-.21-.22Zm5.24,12.1H33.26A13.7,13.7,0,0,0,32.52,15l1.59-.59a.62.62,0,1,0-.43-1.16l-1.61.6a13.81,13.81,0,0,0-1.88-3.07l2.5-3.92A18.07,18.07,0,0,1,37.73,18.86Z"/><path class="cls-2" d="M6.49,6.76l-.16-.25-.21.22A18.41,18.41,0,0,0,1,18.86v.24H5.95v-.22A13.63,13.63,0,0,1,9,11l.11-.13L9,10.68Zm-.77,12.1H1.25a18.07,18.07,0,0,1,5-12l2.5,3.92A13.77,13.77,0,0,0,5.72,18.86Z"/><path class="cls-2" d="M25.17,8.31a.62.62,0,0,0,.89-.42l1.27-5.71A.62.62,0,0,0,27,1.48,19.61,19.61,0,0,0,12,1.48a.62.62,0,0,0-.37.71l1.27,5.71a.62.62,0,0,0,.61.49.61.61,0,0,0,.28-.07,12.51,12.51,0,0,1,11.37,0ZM13.7,8.1a.38.38,0,0,1-.17,0,.38.38,0,0,1-.16,0,.39.39,0,0,1-.21-.27L11.88,2.13a.38.38,0,0,1,.23-.44,19.37,19.37,0,0,1,14.76,0,.38.38,0,0,1,.23.44L25.83,7.84a.39.39,0,0,1-.21.26.38.38,0,0,1-.16,0,.39.39,0,0,1-.18,0,12.74,12.74,0,0,0-11.58,0Z"/><path class="cls-2" d="M19.49,18.25a1.23,1.23,0,1,0,1.23,1.23A1.23,1.23,0,0,0,19.49,18.25Zm0,2.23a1,1,0,1,1,1-1A1,1,0,0,1,19.49,20.48Z"/><path class="cls-2" d="M32.59,5.28h-.07a.62.62,0,0,0-.45.28l-3.17,5a.62.62,0,0,0,.05.74,12.58,12.58,0,0,1,1.95,3l-7.68,2.87a.62.62,0,0,0,.22,1.2.61.61,0,0,0,.22,0l7.7-2.88a12.46,12.46,0,0,1,.68,4,.62.62,0,0,0,.62.62h5.71a.62.62,0,0,0,.62-.62,19.33,19.33,0,0,0-6-14A.62.62,0,0,0,32.59,5.28Zm5.77,14.59H32.66a.39.39,0,0,1-.39-.39,12.68,12.68,0,0,0-.69-4.1l-.08-.23-.23.08-7.7,2.88-.13,0a.39.39,0,0,1-.36-.25.38.38,0,0,1,.23-.5L31,14.53l.24-.09-.1-.23a12.82,12.82,0,0,0-2-3.1.39.39,0,0,1,0-.46l3.17-5a.39.39,0,0,1,.28-.18h0a.39.39,0,0,1,.27.11,19.1,19.1,0,0,1,5.89,13.86A.39.39,0,0,1,38.36,19.87Z"/><path class="cls-2" d="M24.92,7.08l.26.12.06-.28,1-4.43,0-.2-.19-.07a18.6,18.6,0,0,0-13.19,0l-.19.07,0,.2,1,4.43.06.28.26-.12a13.45,13.45,0,0,1,10.87,0ZM14,6.87,13,2.43a18.36,18.36,0,0,1,13,0L25,6.87A13.69,13.69,0,0,0,14,6.87Z"/></g></g></svg>