<svg width="20" height="20" viewBox="0 0 20 20" fill="none" xmlns="http://www.w3.org/2000/svg">
<path d="M16.1938 6.40362L17.1607 5.45727C17.3607 5.25927 17.4731 4.99073 17.4731 4.71071C17.4731 4.4307 17.3607 4.16215 17.1607 3.96415C16.9606 3.76615 16.6892 3.65491 16.4063 3.65491C16.1233 3.65491 15.852 3.76615 15.6519 3.96415L14.6957 4.92101C13.2066 3.78103 11.3773 3.16252 9.49472 3.16252C7.61213 3.16252 5.78281 3.78103 4.29378 4.92101L3.3269 3.95363C3.12542 3.75563 2.85271 3.64495 2.56877 3.64594C2.28483 3.64692 2.01291 3.75949 1.81284 3.95889C1.61277 4.15829 1.50093 4.42817 1.50192 4.70917C1.50292 4.99017 1.61667 5.25927 1.81815 5.45727L2.79565 6.41414C1.63011 7.88365 0.99768 9.69833 1.00003 11.5665C0.996558 12.9076 1.31715 14.2301 1.93505 15.4236C2.55296 16.6172 3.45028 17.6473 4.55217 18.428C5.65406 19.2086 6.92859 19.7172 8.26945 19.9114C9.61032 20.1055 10.9787 19.9796 12.2604 19.5441C13.542 19.1086 14.6999 18.3761 15.6375 17.4077C16.575 16.4394 17.265 15.2632 17.6499 13.9773C18.0348 12.6915 18.1035 11.3331 17.8502 10.0157C17.5969 8.69819 17.029 7.45975 16.1938 6.40362ZM9.50003 17.8755C8.23917 17.8755 7.00663 17.5054 5.95827 16.8122C4.9099 16.119 4.0928 15.1336 3.6103 13.9808C3.12779 12.828 3.00154 11.5595 3.24752 10.3357C3.4935 9.11183 4.10066 7.98768 4.99222 7.10535C5.88378 6.22302 7.0197 5.62215 8.25633 5.37872C9.49296 5.13528 10.7748 5.26022 11.9396 5.73773C13.1045 6.21525 14.1002 7.02388 14.8006 8.06139C15.5011 9.0989 15.875 10.3187 15.875 11.5665C15.875 13.2397 15.2034 14.8444 14.0078 16.0276C12.8123 17.2108 11.1908 17.8755 9.50003 17.8755ZM7.37503 2.103H11.625C11.9068 2.103 12.1771 1.99221 12.3763 1.79502C12.5756 1.59782 12.6875 1.33037 12.6875 1.0515C12.6875 0.772623 12.5756 0.505171 12.3763 0.307977C12.1771 0.110782 11.9068 0 11.625 0H7.37503C7.09324 0 6.82298 0.110782 6.62373 0.307977C6.42447 0.505171 6.31253 0.772623 6.31253 1.0515C6.31253 1.33037 6.42447 1.59782 6.62373 1.79502C6.82298 1.99221 7.09324 2.103 7.37503 2.103ZM10.5625 8.41198C10.5625 8.13311 10.4506 7.86566 10.2513 7.66846C10.0521 7.47127 9.78182 7.36049 9.50003 7.36049C9.21824 7.36049 8.94798 7.47127 8.74873 7.66846C8.54947 7.86566 8.43753 8.13311 8.43753 8.41198V10.3993C8.19695 10.6123 8.02737 10.8925 7.95124 11.2029C7.87511 11.5133 7.89602 11.8393 8.01119 12.1377C8.12636 12.4361 8.33038 12.6929 8.59623 12.874C8.86209 13.0552 9.17725 13.1522 9.50003 13.1522C9.8228 13.1522 10.138 13.0552 10.4038 12.874C10.6697 12.6929 10.8737 12.4361 10.9889 12.1377C11.104 11.8393 11.1249 11.5133 11.0488 11.2029C10.9727 10.8925 10.8031 10.6123 10.5625 10.3993V8.41198Z" fill="#4C5264"/>
</svg>
