<svg xmlns="http://www.w3.org/2000/svg" width="30" height="30" viewBox="0 0 44.08 49.58"><defs><style>.cls-1{fill:#fff;}.cls-2{fill:#e1e3e8;}.cls-3{fill:#959cae;}.cls-4{fill:#edeff2;}.cls-5{fill:#babfca;}.cls-6{fill:#8a92a6;}</style></defs><title>Asset 1</title><g id="Layer_2" data-name="Layer 2"><g id="Layer_1-2" data-name="Layer 1"><path class="cls-1" d="M38.59,13.17a.65.65,0,0,0,0-.18.47.47,0,0,0-.09-.14L26.12.52a.54.54,0,0,0-.19-.11l-.16,0H3.86A3.49,3.49,0,0,0,.37,3.86V45.72a3.5,3.5,0,0,0,3.49,3.49H35.1a3.5,3.5,0,0,0,3.49-3.49V42.94a.5.5,0,0,0-1,0v2.78a2.5,2.5,0,0,1-2.5,2.5H3.86a2.5,2.5,0,0,1-2.5-2.5V3.86a2.5,2.5,0,0,1,2.5-2.5H25.27v8.92a3.41,3.41,0,0,0,3.4,3.4H37.6V22a.5.5,0,0,0,1,0v-8.7l0-.07Zm-9.91-.47a2.41,2.41,0,0,1-2.41-2.41V2.07L36.9,12.7Z"/><path class="cls-2" d="M27.16,2.44,25.89,1.17v9.12a2.79,2.79,0,0,0,2.78,2.78H37.8L36.53,11.8Zm1.51,9.89a2,2,0,0,1-2-2V3L36,12.33Z"/><path class="cls-2" d="M38.91,12.92l0-.08a.86.86,0,0,0-.17-.25L26.38.25a.85.85,0,0,0-.25-.17L26,.06a.86.86,0,0,0-.22,0h-22A3.87,3.87,0,0,0,0,3.86V45.72a3.87,3.87,0,0,0,3.86,3.86H35.1A3.87,3.87,0,0,0,39,45.72V42.94a.87.87,0,1,0-1.74,0v2.78a2.13,2.13,0,0,1-2.13,2.13H3.86a2.13,2.13,0,0,1-2.12-2.13V3.86A2.13,2.13,0,0,1,3.86,1.74h21v8.55a3.78,3.78,0,0,0,3.78,3.78h8.55V22A.87.87,0,0,0,39,22V13.2s0,0,0-.06A.85.85,0,0,0,38.91,12.92Zm-.69,9A.12.12,0,0,1,38,22V13.32h-9.3a3,3,0,0,1-3-3V1H3.86A2.87,2.87,0,0,0,1,3.86V45.72a2.87,2.87,0,0,0,2.87,2.87H35.1A2.87,2.87,0,0,0,38,45.72V42.94a.12.12,0,1,1,.25,0v2.78a3.12,3.12,0,0,1-3.12,3.12H3.86A3.12,3.12,0,0,1,.74,45.72V3.86A3.12,3.12,0,0,1,3.86.74H25.81l0,0h0L38.2,13.12l0,.06h0s0,.06,0,.08Z"/><polygon class="cls-3" points="38.89 12.86 38.89 12.86 38.89 12.86 38.89 12.86"/><path class="cls-3" d="M26.9,2.7l-.64-.64v8.22a2.41,2.41,0,0,0,2.41,2.41H36.9l-.64-.64Zm1.77,9.62a2,2,0,0,1-2-2V3L36,12.33Z"/><path class="cls-3" d="M38.91,12.92l0-.06-.33.18a.49.49,0,0,1,0,.13.44.44,0,0,0,0,.07V22a.5.5,0,0,1-1,0V13.69H28.68a3.41,3.41,0,0,1-3.4-3.4V1.37H3.86a2.5,2.5,0,0,0-2.5,2.5V45.72a2.5,2.5,0,0,0,2.5,2.5H35.1a2.5,2.5,0,0,0,2.5-2.5V42.94a.5.5,0,1,1,1,0v2.78a3.5,3.5,0,0,1-3.49,3.49H3.86A3.5,3.5,0,0,1,.37,45.72V3.86A3.5,3.5,0,0,1,3.86.37H25.8l.12,0h0a.49.49,0,0,1,.15.09L38.45,12.85a.48.48,0,0,1,.09.14l.35-.13v0a.86.86,0,0,0-.17-.25L26.38.25a.85.85,0,0,0-.25-.17L26,.06a.86.86,0,0,0-.22,0h-22A3.87,3.87,0,0,0,0,3.86V45.72a3.87,3.87,0,0,0,3.86,3.86H35.1A3.87,3.87,0,0,0,39,45.72V42.94a.87.87,0,1,0-1.74,0v2.78a2.13,2.13,0,0,1-2.13,2.13H3.86a2.13,2.13,0,0,1-2.12-2.13V3.86A2.13,2.13,0,0,1,3.86,1.74h21v8.55a3.78,3.78,0,0,0,3.78,3.78h8.55V22A.87.87,0,0,0,39,22V13.2s0,0,0-.06A.85.85,0,0,0,38.91,12.92Z"/><path class="cls-4" d="M29.76,22.69A7.35,7.35,0,1,0,37.11,30,7.36,7.36,0,0,0,29.76,22.69Zm0,13.71A6.36,6.36,0,1,1,36.12,30,6.36,6.36,0,0,1,29.76,36.4Z"/><path class="cls-4" d="M42.08,37.09l-1.72-1.2.15-.29a12.11,12.11,0,1,0-5.19,5.2l.29-.15,1.2,1.72A3.78,3.78,0,0,0,39.58,44h.34a3.79,3.79,0,0,0,2.16-6.9Zm-.19,5.08a2.76,2.76,0,0,1-2,.82h-.26a2.79,2.79,0,0,1-2-1.19l-2.37-3.41a.5.5,0,0,0-.82.57l.61.88-.39.19a11.11,11.11,0,1,1,5.08-5.08l-.19.39-.88-.61a.49.49,0,0,0-.28-.09.5.5,0,0,0-.28.9l3.41,2.37a2.79,2.79,0,0,1,.38,4.27Z"/><path class="cls-5" d="M29.76,23.31A6.73,6.73,0,1,0,36.49,30,6.74,6.74,0,0,0,29.76,23.31Zm0,12.71a6,6,0,1,1,6-6A6,6,0,0,1,29.76,36Z"/><path class="cls-5" d="M41.72,37.59l-3.41-2.37a.12.12,0,0,1-.05-.08.12.12,0,0,1,0-.09.13.13,0,0,1,.1-.05l.07,0,.52.36.71.49.38-.78a11.51,11.51,0,1,0-5.25,5.25L35.6,40l-.49-.71-.36-.52a.13.13,0,0,1,0-.17l.07,0a.12.12,0,0,1,.1.05L37.32,42a3.15,3.15,0,0,0,2.31,1.34h.3a3.17,3.17,0,0,0,1.8-5.76Zm-.1,4.31a2.4,2.4,0,0,1-1.7.71H39.7a2.41,2.41,0,0,1-1.77-1l-2.37-3.41a.87.87,0,1,0-1.43,1l.36.52a10.73,10.73,0,1,1,4.91-4.91l-.52-.36a.87.87,0,1,0-1,1.43l3.41,2.37a2.42,2.42,0,0,1,.33,3.7Z"/><path class="cls-5" d="M29.76,22.32A7.72,7.72,0,1,0,37.49,30,7.73,7.73,0,0,0,29.76,22.32Zm0,14.7a7,7,0,1,1,7-7A7,7,0,0,1,29.76,37Z"/><path class="cls-5" d="M42.29,36.78l-1.45-1a12.49,12.49,0,1,0-5.35,5.35l1,1.45a4.15,4.15,0,0,0,3,1.77l.37,0a4.16,4.16,0,0,0,2.37-7.57Zm0,5.83a3.39,3.39,0,0,1-2.41,1h-.3a3.41,3.41,0,0,1-2.5-1.45l-1-1.45-.37-.54-.58.3a11.74,11.74,0,1,1,5-5l-.3.58.54.37,1.45,1a3.42,3.42,0,0,1,.46,5.22Z"/><path class="cls-6" d="M29.76,23.68A6.36,6.36,0,1,0,36.12,30,6.36,6.36,0,0,0,29.76,23.68Zm0,12.34a6,6,0,1,1,6-6A6,6,0,0,1,29.76,36Z"/><path class="cls-6" d="M41.51,37.9,38.1,35.53a.5.5,0,0,1-.12-.69.5.5,0,0,1,.41-.21.49.49,0,0,1,.28.09l.52.36.36.25.19-.39A11.13,11.13,0,1,0,34.66,40l.39-.19-.25-.36-.36-.52a.5.5,0,0,1,.12-.69.49.49,0,0,1,.28-.09.5.5,0,0,1,.41.21l2.37,3.41a2.78,2.78,0,0,0,2,1.19h.26a2.76,2.76,0,0,0,2-.82,2.79,2.79,0,0,0-.38-4.27Zm.12,4a2.4,2.4,0,0,1-1.7.71H39.7a2.41,2.41,0,0,1-1.77-1l-2.37-3.41a.87.87,0,1,0-1.43,1l.36.52a10.73,10.73,0,1,1,4.91-4.91l-.52-.36a.87.87,0,1,0-1,1.43l3.41,2.37a2.42,2.42,0,0,1,.33,3.7Z"/><path class="cls-6" d="M29.76,22.32A7.72,7.72,0,1,0,37.49,30,7.73,7.73,0,0,0,29.76,22.32Zm0,15.07A7.35,7.35,0,1,1,37.11,30,7.36,7.36,0,0,1,29.76,37.39Z"/><path class="cls-6" d="M42.29,36.78l-1.45-1a12.49,12.49,0,1,0-5.35,5.35l1,1.45a4.15,4.15,0,0,0,3,1.77l.37,0a4.16,4.16,0,0,0,2.37-7.57Zm.3,6.09A3.76,3.76,0,0,1,39.92,44h-.34a3.78,3.78,0,0,1-2.77-1.61l-1-1.45-.19-.27-.29.15a12.11,12.11,0,1,1,5.19-5.2l-.15.29.27.19,1.45,1a3.79,3.79,0,0,1,.51,5.79Z"/></g></g></svg>