<svg width="24" height="24" viewBox="0 0 24 24" fill="none" xmlns="http://www.w3.org/2000/svg">
<rect x="1" y="1" width="22" height="22" rx="3" stroke="#8A92A6" stroke-width="2"/>
<mask id="path-2-outside-1_324:225" maskUnits="userSpaceOnUse" x="5" y="6" width="15" height="18" fill="black">
<rect fill="white" x="5" y="6" width="15" height="18"/>
<path fill-rule="evenodd" clip-rule="evenodd" d="M9.75 10.75C9.75 9.23121 10.9812 8 12.5 8C14.0188 8 15.25 9.23122 15.25 10.75V14.5333L14.3333 15.4667H14.3334C14.0404 16.2497 14.122 16.8659 14.3686 17.4486C16.4477 17.9195 18 19.7785 18 22H16.1667H8.83337H7C7 19.7573 8.58198 17.8841 10.6909 17.4355C10.9171 16.8685 10.9744 16.2553 10.6667 15.4667H10.6667L9.75 14.5333V10.75Z"/>
</mask>
<path d="M15.25 14.5333L16.6769 15.9347L17.25 15.3512V14.5333H15.25ZM14.3333 15.4667L12.9064 14.0653L9.56576 17.4667H14.3333V15.4667ZM14.3334 15.4667L16.2065 16.1675L17.2171 13.4667H14.3334V15.4667ZM14.3686 17.4486L12.5268 18.2282L12.9266 19.1726L13.9268 19.3992L14.3686 17.4486ZM18 22V24H20V22H18ZM7 22H5V24H7V22ZM10.6909 17.4355L11.1071 19.3917L12.1526 19.1693L12.5486 18.1764L10.6909 17.4355ZM10.6667 15.4667L12.53 14.7398L12.0333 13.4667H10.6667V15.4667ZM10.6667 15.4667L9.23977 16.8681L9.82767 17.4667H10.6667V15.4667ZM9.75 14.5333H7.75V15.3512L8.3231 15.9347L9.75 14.5333ZM12.5 6C9.87665 6 7.75 8.12664 7.75 10.75H11.75C11.75 10.3358 12.0858 10 12.5 10V6ZM17.25 10.75C17.25 8.12665 15.1234 6 12.5 6V10C12.9142 10 13.25 10.3358 13.25 10.75H17.25ZM17.25 14.5333V10.75H13.25V14.5333H17.25ZM15.7602 16.8681L16.6769 15.9347L13.8231 13.1319L12.9064 14.0653L15.7602 16.8681ZM14.3333 17.4667H14.3334V13.4667H14.3333V17.4667ZM12.4602 14.7658C11.9647 16.0901 12.108 17.2388 12.5268 18.2282L16.2104 16.669C16.1564 16.5414 16.1481 16.4771 16.1466 16.4429C16.1453 16.4132 16.145 16.3319 16.2065 16.1675L12.4602 14.7658ZM20 22C20 18.8239 17.7809 16.1708 14.8104 15.498L13.9268 19.3992C15.1145 19.6682 16 20.7331 16 22H20ZM16.1667 24H18V20H16.1667V24ZM16.1667 20H8.83337V24H16.1667V20ZM7 24H8.83337V20H7V24ZM10.2747 15.4793C7.26139 16.1203 5 18.7938 5 22H9C9 20.7209 9.90259 19.648 11.1071 19.3917L10.2747 15.4793ZM12.5486 18.1764C12.9529 17.1629 13.0312 16.0246 12.53 14.7398L8.80346 16.1935C8.8759 16.3792 8.87959 16.4745 8.87915 16.5086C8.87872 16.5422 8.87333 16.594 8.83321 16.6946L12.5486 18.1764ZM10.6667 17.4667H10.6667V13.4667H10.6667V17.4667ZM8.3231 15.9347L9.23977 16.8681L12.0936 14.0653L11.1769 13.1319L8.3231 15.9347ZM7.75 10.75V14.5333H11.75V10.75H7.75Z" fill="#8A92A6" mask="url(#path-2-outside-1_324:225)"/>
<rect x="4" y="5" width="2" height="2" rx="1" fill="#8A92A6"/>
<rect x="7" y="3" width="1" height="1" rx="0.5" fill="#8A92A6"/>
<rect x="3" y="7" width="1" height="1" rx="0.5" fill="#8A92A6"/>
<rect x="5" y="8" width="1" height="1" rx="0.5" fill="#8A92A6"/>
<rect x="3" y="4" width="1" height="1" rx="0.5" fill="#8A92A6"/>
<rect x="7" y="6" width="1" height="1" rx="0.5" fill="#8A92A6"/>
<rect x="20.1211" y="14.4189" width="2" height="2" rx="1" transform="rotate(-107.695 20.1211 14.4189)" fill="#8A92A6"/>
<rect x="18.3037" y="13.2568" width="1" height="1" rx="0.5" transform="rotate(-107.695 18.3037 13.2568)" fill="#8A92A6"/>
<rect x="19.4727" y="15.6758" width="1" height="1" rx="0.5" transform="rotate(-107.695 19.4727 15.6758)" fill="#8A92A6"/>
<rect x="20.1621" y="11.2568" width="1" height="1" rx="0.5" transform="rotate(-107.695 20.1621 11.2568)" fill="#8A92A6"/>
</svg>
