<svg width="50" height="50" viewBox="0 0 50 50" fill="none" xmlns="http://www.w3.org/2000/svg">
<path fill-rule="evenodd" clip-rule="evenodd" d="M41.6667 17.4474C41.6667 16.1319 40.6012 15.0664 39.2857 15.0664H10.7143C9.39879 15.0664 8.33334 16.1319 8.33334 17.4474V46.0188C8.33334 47.3343 9.39879 48.3997 10.7143 48.3997H39.2857C40.6012 48.3997 41.6667 47.3343 41.6667 46.0188V17.4474ZM12.2619 18.995V45.3045H38.5714V18.995H12.2619Z" fill="#28CCAB"/>
<path fill-rule="evenodd" clip-rule="evenodd" d="M17.0833 15.0669C17.0833 11.1234 19.1667 6.66634 25 6.66634C30.8333 6.66634 32.9167 11.1234 32.9167 15.0669C32.9167 16.3824 33.2083 17.4478 34.5238 17.4478C35.8393 17.4478 36.9048 16.3824 36.9048 15.0669C36.9048 8.49544 31.5714 3.16211 25 3.16211C18.4286 3.16211 13.0952 8.49544 13.0952 15.0669C13.0952 16.3824 14.1607 17.4478 15.4762 17.4478C16.7917 17.4478 17.0833 16.3824 17.0833 15.0669Z" fill="#28CCAB"/>
<path fill-rule="evenodd" clip-rule="evenodd" d="M28.2143 26.9709H37.7381C39.0536 26.9709 40.119 25.9054 40.119 24.5899C40.119 23.2744 39.0536 22.209 37.7381 22.209H28.2143C26.8988 22.209 25.8333 23.2744 25.8333 24.5899C25.8333 25.9054 26.8988 26.9709 28.2143 26.9709Z" fill="#80FFE5"/>
<path fill-rule="evenodd" clip-rule="evenodd" d="M28.2143 34.1144H37.7381C39.0536 34.1144 40.119 33.049 40.119 31.7335C40.119 30.418 39.0536 29.3525 37.7381 29.3525H28.2143C26.8988 29.3525 25.8333 30.418 25.8333 31.7335C25.8333 33.049 26.8988 34.1144 28.2143 34.1144Z" fill="#80FFE5"/>
<path fill-rule="evenodd" clip-rule="evenodd" d="M28.2143 41.257H37.7381C39.0536 41.257 40.119 40.1916 40.119 38.8761C40.119 37.5606 39.0536 36.4951 37.7381 36.4951H28.2143C26.8988 36.4951 25.8333 37.5606 25.8333 38.8761C25.8333 40.1916 26.8988 41.257 28.2143 41.257Z" fill="#80FFE5"/>
</svg>
