<svg width="120" height="50" viewBox="0 0 120 50" fill="none" xmlns="http://www.w3.org/2000/svg">
<g clip-path="url(#clip0_343:353)">
<path d="M3.49707 30.3275L11.6212 40.0795L7.33346 48.8731L114.188 33.766C114.188 33.766 116.219 33.3714 115.994 30.8348C115.824 28.2982 113.173 28.4109 113.173 28.4109L3.49707 30.3275Z" fill="#F38CAE"/>
<path d="M113.286 28.4106C113.681 28.4106 115.881 28.5233 115.994 30.8345C116.163 33.3711 114.189 33.7657 114.189 33.7657L7.33383 48.8728L11.6216 40.0791L3.49744 30.3272L113.229 28.4106C113.229 28.4106 113.229 28.4106 113.286 28.4106ZM113.286 27.2832C113.229 27.2832 113.229 27.2832 113.173 27.2832L3.49744 29.1998C3.0461 29.1998 2.65118 29.4816 2.48192 29.8762C2.31267 30.2708 2.36909 30.7218 2.65118 31.06L10.2675 40.2483L6.31831 48.3655C6.14906 48.7601 6.14906 49.2111 6.43115 49.5493C6.65682 49.8311 6.99532 50.0002 7.33383 50.0002C7.39024 50.0002 7.44666 50.0002 7.50308 50.0002L114.358 34.8931H114.414C115.43 34.6676 117.348 33.5402 117.179 30.7781C116.953 28.3542 115.091 27.2832 113.286 27.2832Z" fill="#171C28"/>
<path d="M34.5272 47.238C34.1322 47.238 33.7937 47.1817 33.5116 47.1253C32.8346 46.9562 32.2705 46.7307 31.932 46.4489C31.537 46.1107 31.2549 45.7724 31.0857 45.3778C30.9164 44.9833 30.86 44.645 30.9164 44.2505C30.9164 43.9122 30.9729 43.6304 31.0857 43.3485C31.2549 42.7848 31.6499 42.1648 32.2705 41.6574C32.3833 41.5447 32.4961 41.4883 32.609 41.3756C32.3269 41.2629 32.0448 41.2065 31.7627 41.0937C31.2549 40.9246 30.7472 40.6992 30.2958 40.4737C29.8445 40.2482 29.3932 39.9663 28.9982 39.6281C28.6033 39.2899 28.2648 38.8953 28.0391 38.388C27.9263 38.1625 27.8135 37.7679 27.8135 37.3733C27.8135 37.0351 27.8135 36.6969 27.9263 36.3587C27.9827 36.0205 28.0956 35.6822 28.2648 35.2877C28.4341 34.9494 28.6033 34.6112 28.829 34.3294C29.6753 33.1456 30.6908 32.1309 31.8755 31.2854C33.0039 30.4962 34.2451 29.7634 35.4863 29.2561C36.7274 28.7488 38.025 28.3542 39.2662 28.0723C40.5074 27.8468 41.6358 27.6777 42.6513 27.6777C43.7232 27.6777 44.5695 27.7341 45.3029 27.9596C46.2056 28.2414 46.7698 28.6924 46.9954 29.3125C47.1647 29.9325 47.1083 30.6653 46.7133 31.3418C46.4312 31.9618 45.9799 32.5255 45.4157 33.1456C44.8516 33.7093 44.1745 34.273 43.4411 34.8367C42.7077 35.4004 41.8614 35.8514 41.0152 36.2459C40.1689 36.6405 39.3226 36.9787 38.42 37.1479C37.5173 37.3733 36.6146 37.4297 35.7683 37.317C34.7528 37.2042 34.0758 36.866 33.7373 36.3587C33.3424 35.7386 33.3988 35.1749 33.5116 34.8367C33.6809 34.2166 34.0758 33.9348 34.3579 33.7657C34.6964 33.5966 34.9785 33.5966 35.317 33.7093C35.5991 33.822 35.8248 34.1039 35.9376 34.4421C36.1068 34.4421 36.3325 34.3857 36.6146 34.273C37.1788 34.1039 37.8558 33.8784 38.5328 33.5966C39.2662 33.3147 39.9997 32.9765 40.6767 32.5819C41.4101 32.2437 42.0307 31.8491 42.6513 31.4545C43.159 31.1163 43.6104 30.8344 43.9489 30.4962C43.4411 30.4962 42.8769 30.4962 42.1435 30.609C41.2973 30.7217 40.2817 30.9472 39.2662 31.229C38.1943 31.5109 37.1224 31.8491 36.1068 32.3001C35.0913 32.6946 34.1322 33.202 33.2296 33.7093C32.3833 34.2166 31.7063 34.7803 31.2549 35.344C30.9729 35.6822 30.9729 35.795 30.9729 35.795C31.0293 35.9077 31.1985 36.0205 31.4242 36.1896C31.8191 36.415 32.3269 36.5842 32.9475 36.7533C33.6809 36.9224 34.3579 37.0915 35.0913 37.2042C35.8248 37.3733 36.5582 37.4861 37.2352 37.6552C37.8558 37.7679 38.3071 37.937 38.7585 38.1061C39.3226 37.937 39.8304 37.8243 40.3946 37.7116C41.0152 37.5988 41.5793 37.4861 42.0307 37.4861C42.5384 37.4297 42.9334 37.3733 43.2155 37.3733C43.7232 37.3733 44.0053 37.317 44.2874 37.5988C44.5131 37.7679 44.5695 38.0498 44.5695 38.3316L44.4566 38.9517C44.4002 39.2335 44.1746 39.5154 43.8925 39.6281C43.7232 39.6845 43.554 39.7409 43.2719 39.7409C43.0462 39.7409 42.7641 39.7972 42.482 39.8536C42.2564 39.8536 42.0307 39.91 41.805 39.9663C42.0871 40.3609 42.3692 40.981 42.2564 41.9393C42.0871 42.8976 41.6358 43.7995 40.9023 44.5323C40.2253 45.2087 39.3791 45.7161 38.5328 46.167C37.6301 46.5616 36.7839 46.8435 35.8812 47.0126C35.3734 47.238 34.9221 47.238 34.5272 47.238ZM33.5116 44.025C33.7937 44.1941 34.1322 44.2505 34.5836 44.2505C35.0913 44.3068 35.6555 44.1941 36.2761 44.0813C36.7839 43.9686 37.2352 43.7431 37.6301 43.4049C37.4044 43.2358 37.1788 43.1231 36.8403 42.9539C36.5582 42.8412 36.2761 42.6721 35.994 42.5594C35.8248 42.6157 35.6555 42.6721 35.4863 42.7848C35.1478 42.9539 34.8092 43.1231 34.5272 43.2922C34.1887 43.4613 33.9066 43.6868 33.6809 43.8559C33.5681 43.9686 33.5116 43.9686 33.5116 44.025ZM35.994 40.8119C36.1068 40.8119 36.2197 40.8119 36.3325 40.8683C36.7274 41.0374 37.1788 41.2065 37.5737 41.3756C38.025 41.6011 38.3635 41.7702 38.7021 41.9957C39.097 42.2775 39.3791 42.6721 39.4919 43.0667C39.5483 43.2358 39.5483 43.4613 39.4919 43.6868C39.6047 43.574 39.7176 43.5176 39.774 43.4049C40.2817 42.9539 40.5638 42.3902 40.6202 41.7702C40.6767 41.3192 40.5638 41.1501 40.5074 41.0937C40.2817 40.8119 39.9997 40.5864 39.6047 40.3609C39.4355 40.2482 39.2662 40.0791 39.2098 39.8536C39.1534 39.8536 39.0406 39.91 38.9841 39.91C38.7585 39.9663 38.5892 39.9663 38.3635 39.8536C37.9686 39.6845 37.4609 39.5154 36.8403 39.4026C36.1633 39.2335 35.4863 39.1208 34.7528 38.9517C34.0194 38.7826 33.286 38.6698 32.5525 38.4444C31.7627 38.2753 31.1421 38.0498 30.6344 37.7679C30.1266 37.4861 29.7881 37.1479 29.5624 36.7533C29.506 36.9787 29.506 37.1479 29.506 37.317C29.506 37.4861 29.5624 37.5988 29.5624 37.5988C29.6753 37.8807 29.8445 38.1061 30.0702 38.2753C30.3523 38.5007 30.6344 38.7262 30.9729 38.8953C31.3678 39.0644 31.7627 39.2335 32.214 39.4026C32.7218 39.5718 33.1731 39.6845 33.6809 39.8536L34.8092 40.1918C35.1478 40.3046 35.3734 40.53 35.4298 40.8683C35.5427 40.8119 35.6555 40.7555 35.7683 40.7555C35.8248 40.8119 35.9376 40.8119 35.994 40.8119ZM40.451 34.7803C40.2253 34.8931 39.9997 35.0058 39.7176 35.1185C39.8868 35.0622 40.0561 34.9494 40.2817 34.8931C40.3382 34.8367 40.3946 34.7803 40.451 34.7803Z" fill="#171C28"/>
<path d="M46.0929 42.6157C45.7544 42.6157 45.4723 42.5594 45.1902 42.503C44.6825 42.3339 44.2875 41.9957 44.0619 41.5447C43.8362 41.1501 43.7234 40.6428 43.7234 40.0791C43.7234 39.7409 43.8362 39.3463 44.0054 38.8953C44.1747 38.4444 44.3439 37.9934 44.5696 37.4861C44.7953 36.9788 45.021 36.4151 45.303 35.8514C45.303 35.795 45.3595 35.7386 45.3595 35.7386C45.303 35.7386 45.2466 35.7386 45.1902 35.7386C44.8517 35.795 43.8362 35.9077 43.3284 35.2313C43.1028 34.8931 43.0463 34.4421 43.2156 34.1039C43.3284 33.8784 43.4977 33.653 43.6669 33.5402C43.8362 33.4275 44.0054 33.3147 44.1747 33.2584C44.4568 33.1456 44.7389 33.202 44.9645 33.3147L45.021 33.3711C45.0774 33.3711 45.1338 33.3711 45.1902 33.3711C45.5851 33.3147 46.0929 33.202 46.6571 33.0329C46.8827 32.5256 47.1084 32.131 47.3341 31.7928C47.729 31.1163 47.8418 30.8345 48.2368 30.7217C48.7445 30.5526 49.1394 30.4962 49.4215 30.4962C49.9293 30.4962 50.3242 30.6654 50.6063 31.0599C50.832 31.3418 50.832 31.68 50.7755 31.9619C50.9448 31.9055 51.114 31.9055 51.3397 31.8491C52.186 31.68 52.7502 31.68 53.1451 32.0182C53.4836 32.3564 53.6528 32.751 53.6528 33.202C53.5964 33.4838 53.54 33.7093 53.4272 33.9348C53.4836 33.9348 53.5964 33.8784 53.6528 33.8784C54.1042 33.7657 54.5555 33.7093 54.9504 33.7093C55.2889 33.7093 55.6274 33.8221 55.8531 33.9912C55.9095 33.9348 55.9095 33.8784 55.966 33.8221C56.0788 33.5966 56.248 33.4275 56.4737 33.3711C56.8686 33.2584 57.1507 33.202 57.4328 33.1456C57.6585 33.0893 57.9406 33.0893 58.1662 33.0893C57.8277 32.8638 57.6585 32.5256 57.6021 32.3001C57.5456 31.9619 57.4892 31.3982 57.9406 30.8345C58.2226 30.4399 58.6176 30.158 59.0125 30.0453C59.0689 30.0453 59.1253 30.0453 59.1817 29.9889C59.7459 29.9325 60.028 30.3835 60.1408 30.609C60.1408 30.609 60.1408 30.609 60.3101 30.7217C60.3665 30.7781 60.4794 30.8345 60.8179 30.9472C60.9307 30.9472 61.0999 31.0036 61.4384 31.0036C61.6641 30.609 61.8898 30.2144 62.1155 29.8762C62.3975 29.4252 62.6796 28.9743 62.9617 28.5797C63.2438 28.1851 63.4695 27.8469 63.7516 27.565C64.0337 27.2268 64.2593 27.0577 64.485 26.8886C64.7107 26.7195 64.9928 26.6631 65.3313 26.6067C65.6133 26.5504 65.839 26.5504 66.0647 26.6067C66.2339 26.6631 66.4032 26.6631 66.516 26.7195C66.6289 26.7758 66.9674 26.8322 67.1366 27.1704C67.2495 27.3959 67.2495 27.6214 67.193 27.8469C67.193 27.9032 67.1366 27.9596 67.1366 28.016C66.8545 28.5233 66.6289 28.9743 66.3468 29.4816C66.6289 29.3688 66.8545 29.2561 67.0802 29.1997C67.7572 28.9743 68.3214 28.8052 68.7727 28.7488C69.1112 28.4106 69.4497 28.1851 69.9011 28.016C70.5781 27.7341 71.3115 27.7905 71.9321 28.2415C72.327 28.4669 72.4963 28.9179 72.3834 29.4252C72.327 29.7071 72.2142 29.9889 72.0449 30.2708C71.8757 30.5526 71.7064 30.7781 71.4808 31.0036C71.2551 31.2291 71.0294 31.4545 70.7473 31.5673C70.5217 31.7364 70.296 31.7927 70.0703 31.9055C70.1832 32.0182 70.2396 32.131 70.2396 32.2437C70.2396 32.3001 70.296 32.4128 70.296 32.4692C70.296 32.6947 70.2396 32.9201 70.1267 33.3711C70.0139 33.7093 69.9011 34.0475 69.7318 34.4421C69.5626 34.8367 69.3933 35.2313 69.2805 35.6259C69.4497 35.4004 69.6754 35.1186 69.8447 34.8367C69.8447 34.7803 69.9011 34.7803 69.9011 34.724C70.2396 34.1603 70.5217 33.653 70.9166 33.3147C71.1987 32.9201 71.65 32.5256 72.2142 32.0182C72.8348 31.5109 73.4554 31.1163 74.1888 30.8345C74.9222 30.4962 75.7121 30.3835 76.3891 30.4399C77.0097 30.4962 77.8559 30.7781 78.4201 31.9055C78.4201 31.9055 78.4201 31.9619 78.4765 31.9619C78.533 32.1873 78.5894 32.3564 78.6458 32.5819C78.7586 32.3564 78.8715 32.131 78.9843 31.9055C79.0971 31.7364 79.2664 31.5673 79.4356 31.5109C79.8306 31.3418 80.1691 31.2854 80.4511 31.2854C80.7897 31.2291 81.1282 31.2854 81.4102 31.3982C81.5795 31.4545 81.6923 31.5109 81.8052 31.6236C82.0308 31.3982 82.2565 31.1163 82.4822 30.8908C82.9899 30.4399 83.4977 30.0453 84.0619 29.7634C84.6825 29.4252 85.3031 29.3125 85.9236 29.4252C86.5442 29.4816 87.052 29.8198 87.2777 30.3835C87.3905 30.7781 87.4469 31.2291 87.3341 31.7928C87.2777 32.0746 87.2212 32.3001 87.1648 32.5819C87.3341 32.4128 87.5033 32.3001 87.7854 32.2437C87.8418 32.2437 87.8983 32.2437 88.0111 32.2437C88.0675 32.2437 88.0675 32.2437 88.1239 32.2437C88.1803 32.2437 88.1803 32.2437 88.2368 32.2437H88.4624C88.7445 32.2437 89.0266 32.4128 89.1394 32.6947C89.2523 32.9765 89.2523 33.2584 89.1394 33.4838C88.7445 34.1603 88.2932 34.8367 87.8983 35.4004C87.5033 35.9077 87.052 36.4151 86.6007 36.866C86.0365 37.3734 85.4723 37.7116 84.8517 37.8807C84.2875 38.0498 83.7798 38.0498 83.3284 37.9371C82.8207 37.8243 82.4258 37.5425 82.2001 37.0915C82.0308 36.8097 81.9744 36.4151 81.9744 36.0205C81.8052 36.3023 81.6359 36.5842 81.5231 36.7533L81.4667 36.8097L81.1846 37.1479C80.9025 37.4861 80.6768 37.7679 80.4511 37.9371C80.2255 38.1062 79.887 38.2753 79.5485 38.388C78.9843 38.5571 78.4765 38.5571 78.0252 38.3316C77.7431 38.1625 77.4046 37.8807 77.2353 37.2606H77.1789C77.0097 37.317 76.784 37.3734 76.6148 37.3734C76.107 37.8807 75.4864 38.2753 74.8658 38.6135C74.076 39.0645 73.1733 39.2899 72.2142 39.2336C71.1423 39.2336 70.3524 38.8953 69.9011 38.3316C69.5062 38.7262 69.0548 39.0645 68.6035 39.3463C67.9829 39.7409 67.2495 39.9664 66.516 40.0227C65.6133 40.0791 64.9928 39.8536 64.6542 39.3463C64.5414 39.4027 64.4286 39.5154 64.3722 39.5718C63.808 39.9664 63.3002 40.2482 62.7925 40.4173C61.8898 40.7555 61.1564 40.8119 60.5358 40.6992C59.9152 40.5301 59.4074 40.1918 59.1253 39.6845C58.7868 40.0227 58.3919 40.361 57.9406 40.6428C57.32 41.0938 56.643 41.3192 55.9095 41.432C55.4582 41.4884 55.0633 41.432 54.6684 41.2629C54.3298 41.0938 54.0478 40.8683 53.8785 40.5864C53.7093 40.7555 53.4836 40.9247 53.3143 41.0374C52.5809 41.5447 51.7911 41.8829 51.0012 41.9957C50.155 42.1084 49.5344 41.9393 49.0266 41.4884C48.8009 41.6575 48.5753 41.8266 48.3496 41.9393C47.7854 42.2212 47.2777 42.3903 46.7699 42.503C46.4878 42.6157 46.3186 42.6157 46.0929 42.6157ZM47.6726 34.3858C47.6726 34.5549 47.6726 34.724 47.6162 34.8931C47.3341 35.4004 47.1084 35.9641 46.8263 36.4714C46.5442 37.0351 46.3186 37.5425 46.1493 38.0498C45.9236 38.5571 45.7544 39.0081 45.6416 39.4027C45.4723 39.8536 45.4723 40.0227 45.4723 40.1355C45.4723 40.4173 45.5287 40.5864 45.5851 40.7555C45.6416 40.8683 45.698 40.9247 45.8108 40.9247C45.9801 40.981 46.2057 40.981 46.4878 40.9247C46.6571 40.9247 46.8263 40.8683 46.9956 40.8119C46.7135 40.5864 46.5442 40.1918 46.5442 39.6845C46.5442 39.1772 46.6571 38.6135 46.8263 37.8807C46.9956 37.2606 47.2212 36.5278 47.5033 35.795C47.7854 35.0622 48.0111 34.3858 48.2932 33.7093C48.3496 33.5402 48.5188 33.3711 48.6881 33.2584C48.6317 33.0893 48.6317 32.9201 48.6881 32.751C48.5188 33.0893 48.2932 33.5402 48.0675 33.9912C47.9547 34.2167 47.7854 34.3294 47.6726 34.3858ZM49.8164 39.6845C49.9293 39.7973 49.9857 39.9664 49.9857 40.1355C49.9857 40.3046 50.0421 40.361 50.0985 40.361C50.2114 40.4737 50.3806 40.4737 50.7191 40.4173C50.9448 40.361 51.1705 40.3046 51.3961 40.2482C51.1705 40.0791 51.0012 39.7973 50.9448 39.5718C50.832 39.2336 50.8884 38.7826 51.0576 38.3316C51.1705 37.9934 51.3961 37.5425 51.6218 37.1479C51.6782 37.0351 51.7346 36.9788 51.7911 36.866C51.2269 37.4297 50.7755 37.9371 50.4935 38.4444C50.3806 38.6135 50.2678 38.839 50.2114 39.0645C50.2114 39.1208 50.155 39.1772 50.155 39.2336L50.0421 39.4027C49.9857 39.459 49.8729 39.5718 49.8164 39.6845ZM55.0633 38.388C55.2325 38.6135 55.2889 38.9517 55.1761 39.2336C55.1197 39.3463 55.1197 39.4027 55.1197 39.5154C55.1197 39.6281 55.1761 39.6845 55.1761 39.7973C55.1761 39.7973 55.1761 39.8536 55.2889 39.8536C55.3454 39.8536 55.4582 39.91 55.571 39.8536C55.9095 39.7973 56.1916 39.7409 56.5301 39.5718C56.3045 39.3463 56.1916 39.0645 56.248 38.6699C56.248 38.388 56.3045 38.0498 56.4737 37.5988C56.5865 37.2606 56.6994 36.866 56.8686 36.4151C57.0379 36.0205 57.2071 35.6259 57.32 35.2313C57.3764 35.0622 57.4892 34.8931 57.5456 34.724C57.4892 34.724 57.4328 34.724 57.3764 34.7803C57.3764 34.8367 57.32 34.8931 57.32 34.9495C57.2071 35.1186 57.1507 35.2313 57.0943 35.4004C56.9815 35.6259 56.8686 35.8514 56.7558 36.0769C56.5865 36.3587 56.3045 36.5842 55.966 36.5842C55.9095 36.866 55.8531 37.0915 55.7403 37.3734C55.6274 37.7116 55.4582 37.9934 55.3454 38.2189C55.3454 38.2189 55.3454 38.2753 55.2889 38.2753C55.1761 38.3316 55.1197 38.3316 55.0633 38.388ZM60.1973 37.3734C60.3101 37.5425 60.3665 37.7116 60.3665 37.9371V38.1062C60.3665 38.5008 60.3665 38.7826 60.4793 39.0081C60.5358 39.1208 60.5922 39.1772 60.8179 39.2336C60.9307 39.2899 61.3256 39.2899 62.1155 39.0081C62.1719 39.0081 62.1719 39.0081 62.2283 38.9517C61.9462 38.839 61.777 38.6699 61.6641 38.5571C61.2692 38.1062 61.2128 37.3734 61.4384 36.4151C61.7205 35.2313 62.3975 33.5402 63.4131 31.2291C63.4695 31.1163 63.5823 30.9472 63.6952 30.8908C63.6952 30.7217 63.6951 30.609 63.808 30.4399C64.0337 30.0453 64.2593 29.5943 64.485 29.1434C64.4286 29.1997 64.3722 29.2561 64.3157 29.3688C64.0337 29.7071 63.808 30.158 63.5259 30.609C63.2438 31.0599 62.9617 31.5673 62.6796 32.0182C62.6232 32.131 62.5104 32.2437 62.3975 32.3564C62.3975 32.4692 62.3411 32.6383 62.2847 32.751C61.9462 33.3147 61.6641 33.9348 61.382 34.6112C61.0999 35.2313 60.8743 35.9077 60.705 36.4714L60.6486 36.6969C60.5922 36.8097 60.5922 36.9224 60.4793 36.9788C60.3665 37.1479 60.2537 37.2606 60.1973 37.3734ZM49.5908 34.8367C49.3651 35.344 49.1959 35.8514 48.9702 36.4151C48.6881 37.0915 48.5188 37.7679 48.3496 38.388C48.2932 38.6135 48.2368 38.7826 48.2368 38.9517C48.406 38.7826 48.5188 38.6135 48.6317 38.4444L48.6881 38.388C48.8009 38.1625 48.9138 37.9371 49.0266 37.7116C49.4215 36.9788 50.0985 36.246 50.8884 35.4568C51.114 35.2313 51.3397 35.0622 51.5654 34.8931C51.509 34.8367 51.4526 34.8367 51.3397 34.7803C51.2833 34.724 51.2833 34.724 51.2269 34.6676C50.8884 34.6112 50.2678 34.6676 49.5908 34.8367ZM65.8954 38.4444C65.9519 38.4444 66.1211 38.5008 66.3468 38.5008C66.6853 38.5008 66.9674 38.388 67.3059 38.2753C67.0802 38.0498 66.9674 37.7116 67.0238 37.317C67.0238 37.0351 67.1366 36.6405 67.2494 36.1896C67.3623 35.795 67.5315 35.4004 67.7008 34.9495C67.87 34.4985 68.0393 34.1039 68.2085 33.7093C68.3214 33.4838 68.3778 33.2584 68.4342 33.0893C68.3778 33.0893 68.3214 33.0893 68.265 33.1456C68.265 33.202 68.2085 33.2584 68.1521 33.3147C68.0393 33.4838 67.9829 33.5966 67.9265 33.7657C67.8136 33.9912 67.7572 34.1603 67.6444 34.4421C67.3623 34.8931 67.0802 35.4004 66.7981 35.9077C66.4596 36.4151 66.1211 36.9224 65.7826 37.3734C66.0083 37.5988 66.0647 37.8807 65.9518 38.1625C65.8954 38.2753 65.8954 38.388 65.8954 38.4444ZM54.1042 36.6969C53.9913 36.8097 53.8785 36.9224 53.7657 37.0351C53.54 37.317 53.3143 37.6552 53.0887 37.9934C53.0322 38.0498 53.0322 38.1062 52.9758 38.2189C53.2579 37.9371 53.54 37.5988 53.8221 37.2606C53.8785 37.2042 53.9349 37.0351 54.0478 36.8097C54.0478 36.7533 54.1042 36.7533 54.1042 36.6969ZM70.8038 36.3023C70.9166 36.4714 70.973 36.6406 70.973 36.8097C70.973 37.0351 71.0294 37.2606 71.1423 37.4297C71.1987 37.5425 71.5372 37.6552 72.1578 37.7116C72.4399 37.7116 72.7219 37.7116 72.9476 37.6552C72.4963 37.4861 72.1578 37.0915 72.0449 36.5842C71.9321 36.0205 71.9885 35.4004 72.2706 34.6676C72.327 34.4421 72.4963 34.1603 72.6655 33.8221V33.7657C72.4399 33.9912 72.327 34.1603 72.2142 34.273C72.2142 34.3294 72.1578 34.3294 72.1578 34.3858C71.9321 34.6676 71.65 35.0058 71.4243 35.4568L71.3679 35.5695C71.3679 35.6259 71.3115 35.6823 71.2551 35.7386C71.0858 35.9077 70.9166 36.1332 70.8038 36.3023ZM64.8235 32.3001C63.9208 34.3294 63.3566 35.8514 63.0746 36.8097C63.0181 37.0915 63.0181 37.2606 63.0181 37.3734C63.1874 37.317 63.3566 37.2606 63.5259 37.1479C63.8644 36.9224 64.1465 36.5842 64.485 36.1896C64.8235 35.795 65.1056 35.344 65.3877 34.8931C65.6698 34.4421 65.9519 33.9912 66.1775 33.5402C66.2904 33.3711 66.3468 33.202 66.4032 33.0329C66.516 32.8074 66.5724 32.6383 66.6853 32.4128C66.7417 32.2437 66.8545 32.131 66.9109 32.0182C67.0238 31.8491 67.1366 31.68 67.3059 31.6236C66.6853 31.7927 65.839 32.0182 64.8235 32.3001ZM78.8715 35.4568C78.9843 35.6823 78.9843 35.9077 78.9279 36.1332C78.7586 36.6406 78.7586 36.9224 78.7586 36.9788C78.815 36.9788 78.8715 36.9788 78.9279 36.9224H78.9843C79.1535 36.866 79.2664 36.8097 79.3228 36.8097C79.3792 36.7533 79.4921 36.6406 79.7177 36.3587L79.9434 36.0205C80.0562 35.795 80.2819 35.4568 80.5076 35.1186C80.1126 34.9495 79.9434 34.4421 80.1126 34.0475C80.2255 33.7093 80.3383 33.3711 80.4511 33.0893C80.4511 33.0329 80.4511 33.0329 80.5076 32.9765C80.4511 32.9765 80.3947 32.9765 80.3383 33.0329C80.0562 33.653 79.7741 34.2167 79.6049 34.6112L79.5485 34.7803C79.492 34.8367 79.4921 34.8931 79.4356 35.0058L79.3792 35.1186C79.3228 35.2313 79.21 35.344 79.0971 35.4004C78.9843 35.344 78.9279 35.4004 78.8715 35.4568ZM59.1253 33.3711C59.2382 33.5402 59.351 33.653 59.351 33.7657C59.351 33.8221 59.4074 33.9348 59.4074 33.9912C59.4074 34.2167 59.351 34.4421 59.2382 34.8931C59.1253 35.1749 59.0125 35.5132 58.8432 35.9077C58.7304 36.1896 58.6176 36.5278 58.5047 36.8097C58.674 36.5842 58.8432 36.3587 59.0125 36.1332C59.0125 36.0769 59.0125 36.0769 59.0689 36.0205C59.2382 35.344 59.5203 34.6676 59.8588 33.9348C59.9152 33.7657 60.028 33.5966 60.0844 33.4275C59.6895 33.4275 59.351 33.4275 59.1253 33.3711ZM83.5541 36.3023C83.5541 36.3023 83.5541 36.3023 83.6105 36.3023C83.6669 36.3023 83.8362 36.3587 84.2875 36.246C84.4568 36.1896 84.626 36.1332 84.7953 36.0205C84.7389 35.9641 84.6825 35.9077 84.6825 35.8514C84.4568 35.5132 84.5132 35.1186 84.626 34.7803C84.6825 34.4985 84.7953 34.1039 84.9645 33.7093C85.0774 33.3147 85.2466 32.9201 85.3595 32.4692C85.4723 32.0746 85.5851 31.68 85.6416 31.3418C85.698 31.1727 85.698 31.0599 85.6416 30.9472C85.4159 30.8908 85.1902 30.9472 84.9645 31.0599C85.021 31.1163 85.0774 31.1727 85.1338 31.2854C85.3595 31.68 85.1902 32.0746 85.1338 32.2437C85.0774 32.4128 84.9645 32.6383 84.8517 32.9201C84.7389 33.202 84.5696 33.4838 84.4004 33.8784C84.2311 34.2166 84.0619 34.6112 83.8926 34.9495C83.7234 35.344 83.6105 35.6823 83.5541 35.9641C83.4977 36.246 83.5541 36.3023 83.5541 36.3023ZM75.6557 32.9765C75.5428 32.9765 75.3736 33.0329 75.2607 33.0893C75.0351 33.2584 74.8094 33.4838 74.6401 33.7093C74.4145 33.9912 74.2452 34.273 74.1324 34.5549C73.9631 34.8931 73.8503 35.1186 73.8503 35.2313C73.681 35.6259 73.681 35.9077 73.681 36.0769C73.8503 36.0769 74.0196 36.0205 74.076 35.9641C74.1324 35.9641 74.1888 35.9077 74.1888 35.8514C74.1888 35.6823 74.1888 35.5132 74.1888 35.344C74.2452 34.9495 74.4145 34.4985 74.6966 34.1039C74.8658 33.8221 75.1479 33.5402 75.43 33.3711C75.5428 33.2584 75.6557 33.202 75.7685 33.1456C75.7685 33.0893 75.7685 33.0329 75.7685 33.0329C75.7685 33.0329 75.7121 33.0329 75.6557 33.0329C75.7121 32.9765 75.7121 32.9765 75.6557 32.9765ZM76.5019 34.724C76.3327 34.8367 76.2198 34.9495 76.1634 35.1186C76.0506 35.2877 75.9377 35.4568 75.9377 35.5695C75.9377 35.6823 75.9377 35.7386 75.9377 35.795V35.8514C75.9942 35.8514 76.0506 35.8514 76.107 35.8514C76.0506 35.6259 76.107 35.4004 76.2198 35.2313C76.3327 35.0622 76.3891 34.8931 76.5019 34.724ZM88.1239 32.1873C88.1803 32.1873 88.1803 32.1873 88.2368 32.2437C88.1803 32.1873 88.1803 32.1873 88.1239 32.1873ZM70.4652 29.4252C70.1832 29.538 69.9575 29.7634 69.7318 29.9889C69.6754 30.0453 69.619 30.1017 69.5626 30.158C69.619 30.158 69.7318 30.1017 69.7882 30.0453L69.8447 29.9889C69.9575 29.9325 70.0703 29.8198 70.1832 29.7071C70.3524 29.5943 70.4088 29.538 70.4652 29.4252Z" fill="#171C28"/>
<path d="M43.3285 38.3873C43.0464 38.3873 42.6515 38.4437 42.1437 38.5C41.6924 38.5564 41.1282 38.6128 40.564 38.7255C39.9434 38.8383 39.3793 39.0074 38.7587 39.1765C38.3073 39.0074 37.7431 38.7819 37.0661 38.6691C36.3891 38.5 35.6557 38.3873 34.9223 38.2182C34.1888 38.0491 33.4554 37.9363 32.7784 37.7672C32.1014 37.5981 31.4808 37.3726 31.0295 37.1472C30.5781 36.9217 30.296 36.5835 30.1832 36.2452C30.0704 35.907 30.1832 35.5124 30.6345 35.0051C31.1423 34.385 31.8757 33.765 32.8348 33.2013C33.7375 32.6376 34.753 32.1302 35.825 31.7357C36.8969 31.2847 37.9688 30.9465 39.0972 30.6646C40.2255 30.3828 41.1846 30.1573 42.0873 30.0446C42.99 29.9318 43.7234 29.8755 44.2876 29.9318C44.8518 29.9882 45.1903 30.1573 45.1903 30.4392C45.2467 30.6646 45.0774 30.9465 44.6825 31.3411C44.2876 31.6793 43.7798 32.0739 43.2156 32.4685C42.5951 32.8631 41.918 33.2576 41.1846 33.5959C40.4512 33.9905 39.7178 34.3287 38.9843 34.6105C38.2509 34.8924 37.5739 35.1742 36.9533 35.3433C36.3327 35.5124 35.8814 35.5688 35.5429 35.5688C35.2608 35.5124 35.0915 35.5124 35.0351 35.4561C34.9787 35.3997 34.9787 35.3433 35.0351 35.287C35.0915 35.2306 35.2044 35.1742 35.3736 35.0615C35.2608 34.7233 35.1479 34.6105 34.9223 34.7233C34.6966 34.836 34.5838 35.0051 34.4709 35.287C34.4145 35.5688 34.4709 35.8507 34.6402 36.1325C34.8094 36.4144 35.2608 36.6398 35.9942 36.6962C36.7276 36.7526 37.5175 36.6962 38.3073 36.5271C39.1536 36.358 39.9434 36.0761 40.7333 35.6815C41.5231 35.287 42.2565 34.836 42.99 34.3287C43.7234 33.8213 44.344 33.314 44.8518 32.7503C45.3595 32.1866 45.7544 31.6793 46.0365 31.172C46.3186 30.6646 46.375 30.1573 46.2622 29.7627C46.1494 29.4245 45.8109 29.1427 45.1338 28.9735C44.5133 28.8044 43.7234 28.6917 42.7079 28.7481C41.7488 28.7481 40.6769 28.9172 39.4357 29.1427C38.2509 29.3681 37.0097 29.7627 35.825 30.27C34.6402 30.7774 33.4554 31.3974 32.3835 32.1866C31.2551 32.9758 30.3525 33.9341 29.5626 35.0615C29.3934 35.3433 29.2241 35.5688 29.1113 35.907C28.8856 36.0761 28.7728 36.358 28.7164 36.6398C28.6599 36.9217 28.6035 37.2035 28.6035 37.4854C28.6035 37.7672 28.6599 37.9927 28.7728 38.1618C28.942 38.5 29.1677 38.8383 29.5062 39.1201C29.8447 39.402 30.1832 39.6274 30.5781 39.8529C30.9731 40.0784 31.4244 40.2475 31.9321 40.4166C32.4399 40.5857 32.8912 40.7548 33.399 40.8676L34.5274 41.2058C33.8503 41.4876 33.2862 41.8822 32.7784 42.2768C32.2707 42.7278 31.9886 43.1224 31.8193 43.6297C31.7629 43.8552 31.7065 44.0806 31.6501 44.3625C31.6501 44.588 31.6501 44.8698 31.7629 45.0953C31.8757 45.3208 32.045 45.6026 32.3271 45.7717C32.6092 45.9972 33.0605 46.1663 33.6247 46.2791C34.1324 46.3918 34.8094 46.3918 35.5993 46.2791C36.3891 46.1663 37.2354 45.8845 38.0252 45.4899C38.8151 45.0953 39.5485 44.6443 40.1691 44.0243C40.7897 43.4042 41.1846 42.7278 41.2975 41.9386C41.4103 41.3749 41.2975 40.9239 41.0154 40.5857C40.7333 40.2475 40.3384 39.9656 39.887 39.6838C40.3384 39.5147 40.7333 39.402 41.1846 39.3456C41.5795 39.2892 41.9745 39.1765 42.313 39.1765C42.6515 39.1201 42.9336 39.1201 43.1592 39.0637C43.3849 39.0637 43.4977 39.0074 43.6106 39.0074L43.7234 38.3873C43.7798 38.3873 43.6106 38.3873 43.3285 38.3873ZM38.3073 43.9115C37.7996 44.3625 37.179 44.7007 36.502 44.8698C35.825 45.0389 35.1479 45.0953 34.5274 45.0953C33.9068 45.0389 33.399 44.9262 33.0041 44.7007C32.6092 44.4752 32.4963 44.1934 32.5527 43.8552C32.6092 43.6861 32.7784 43.4606 33.0041 43.2351C33.2862 43.0096 33.5683 42.7841 33.9068 42.615C34.2453 42.3895 34.6402 42.2204 34.9787 42.0513C35.3172 41.8822 35.6557 41.7695 35.8814 41.6567C36.2763 41.8259 36.6712 41.995 37.0661 42.1641C37.4611 42.3332 37.7996 42.5023 38.0252 42.7278C38.2509 42.8969 38.4202 43.1224 38.4766 43.2915C38.6458 43.5169 38.5894 43.6861 38.3073 43.9115Z" fill="white"/>
<path d="M88.0676 33.0323C88.0111 33.0323 88.0111 33.0323 88.0111 33.0323H87.9547C87.8983 33.0323 87.8983 33.0323 87.8983 33.0323C87.5034 33.5396 87.2213 33.9906 86.9392 34.2725C86.6571 34.6107 86.4314 34.8925 86.1494 35.118C85.8673 35.3998 85.698 35.5126 85.5288 35.4562C85.4159 35.4562 85.4159 35.2871 85.5288 35.0053C85.5852 34.7234 85.698 34.3852 85.8673 33.9906C85.9801 33.596 86.1493 33.2014 86.2622 32.7505C86.4314 32.2995 86.4879 31.9049 86.5443 31.5103C86.6007 31.1157 86.6007 30.7775 86.4879 30.5521C86.375 30.2702 86.2058 30.1575 85.8673 30.1575C85.4159 30.1011 84.9646 30.1575 84.4568 30.3829C84.0055 30.6084 83.5541 30.9466 83.1028 31.3976C82.6515 31.7922 82.2565 32.2995 81.8616 32.8068C81.4667 33.3142 81.1282 33.8215 80.8461 34.2725C80.9589 33.9342 81.1282 33.596 81.1846 33.2578C81.2974 32.9196 81.3539 32.6941 81.3539 32.525C81.3539 32.2995 81.2974 32.1304 81.0718 32.074C80.9025 32.0177 80.6769 31.9613 80.5076 32.0177C80.2819 32.0177 79.9998 32.1304 79.6613 32.2431C79.2664 33.0323 78.9843 33.6524 78.7022 34.2161C78.7022 34.2725 78.6458 34.3288 78.6458 34.3852C78.533 34.4979 78.4202 34.6107 78.3637 34.7234C78.1945 34.8925 78.0252 35.0616 77.7996 35.2307C77.5739 35.3999 77.3482 35.5126 77.0661 35.6253C77.0097 35.6253 76.9533 35.6817 76.8969 35.6817C77.2918 35.0616 77.5739 34.4416 77.6867 33.8215C77.7996 33.2014 77.7996 32.6941 77.6303 32.2431C77.2918 31.6231 76.8405 31.2849 76.2763 31.2285C75.7121 31.1721 75.0915 31.2849 74.4709 31.5667C73.8503 31.8486 73.2862 32.1868 72.722 32.6377C72.1578 33.0887 71.7629 33.4833 71.5372 33.8215C71.1987 34.1597 70.9166 34.5543 70.6345 35.118C70.6345 35.1744 70.5781 35.2307 70.5781 35.2871C70.296 35.7381 69.9575 36.189 69.6754 36.5836C69.3934 36.9218 69.1677 37.2037 68.8292 37.4855C68.5471 37.7674 68.265 37.8801 68.0958 37.8801C67.9265 37.8801 67.8701 37.7674 67.8701 37.5419C67.8701 37.3164 67.9265 36.9782 68.0393 36.64C68.1522 36.2454 68.265 35.8508 68.4343 35.4562C68.6035 35.0053 68.7728 34.6107 68.942 34.2161C69.1113 33.8215 69.2241 33.4833 69.3369 33.1451C69.4498 32.8632 69.5062 32.6377 69.4498 32.5814C69.3934 32.4686 69.2805 32.3559 69.0549 32.3559C68.8292 32.3559 68.6599 32.3559 68.4343 32.4123C68.2086 32.4686 67.9265 32.525 67.588 32.6377C67.5316 32.7505 67.4187 32.9196 67.3623 33.0887C67.2495 33.2578 67.1931 33.4269 67.1367 33.596C67.0802 33.7651 66.9674 33.9906 66.8546 34.2161C66.6289 34.667 66.3468 35.118 66.0647 35.569C65.7826 36.0763 65.4441 36.5272 65.1056 36.9218C64.7671 37.3728 64.4286 37.711 64.0337 37.9929C63.6952 38.2747 63.3003 38.4438 62.9618 38.4438C62.2283 38.4438 62.0027 37.9365 62.2848 36.8091C62.5668 35.7381 63.1874 34.047 64.2029 31.7922C65.4441 31.3976 66.4032 31.1721 67.1931 30.9466C67.9265 30.7775 68.4343 30.7212 68.6599 30.7775C68.7728 31.0594 68.9984 31.1721 69.3369 31.1721C69.6754 31.1721 70.0139 31.0594 70.296 30.8903C70.4653 30.7775 70.6345 30.6648 70.8602 30.4393C71.0295 30.2702 71.1987 30.0447 71.3116 29.8756C71.4244 29.6501 71.4808 29.481 71.5372 29.3119C71.5936 29.1428 71.5372 29.0301 71.4244 28.9737C71.0295 28.6918 70.5781 28.6355 70.1832 28.861C69.7883 29.0301 69.3934 29.3119 69.1113 29.6501H69.0549C68.6035 29.6501 68.0393 29.8192 67.3623 30.0447C66.6289 30.3266 65.7262 30.6648 64.5979 31.0594C64.88 30.552 65.162 29.9884 65.4441 29.4247C65.7262 28.861 66.0083 28.2973 66.3468 27.6772C66.3468 27.6772 66.2904 27.6208 66.234 27.6208C66.1211 27.6208 66.0083 27.5645 65.8955 27.5645C65.7826 27.5645 65.6134 27.5645 65.4441 27.5645C65.2749 27.5645 65.1056 27.6208 64.9364 27.7336C64.8235 27.7899 64.5979 27.959 64.4286 28.2409C64.2029 28.4664 63.9773 28.8046 63.6952 29.1428C63.4131 29.5374 63.131 29.932 62.8489 30.3829C62.5668 30.8339 62.2848 31.3412 62.0027 31.8486C61.4385 31.9613 60.9872 31.9049 60.6486 31.8486C60.3101 31.7358 60.0845 31.6231 59.8588 31.5103C59.6895 31.3976 59.5203 31.2285 59.4639 31.1157C59.4075 31.003 59.351 30.9466 59.351 30.9466C59.1254 31.003 58.8997 31.1721 58.7304 31.454C58.5048 31.7358 58.4484 31.9613 58.5048 32.1868C58.5612 32.4123 58.8433 32.5814 59.2946 32.6941C59.746 32.8068 60.5358 32.7505 61.6077 32.525C61.2692 33.1451 60.9872 33.7651 60.6486 34.4416C60.3666 35.118 60.0845 35.7944 59.9152 36.4145C59.9152 36.4709 59.8588 36.5836 59.8588 36.64C59.5767 37.0909 59.2382 37.5419 58.9561 37.9365C58.674 38.2747 58.4484 38.5566 58.1099 38.8384C57.8278 39.1203 57.5457 39.233 57.3764 39.233C57.2072 39.233 57.1508 39.1203 57.1508 38.8948C57.1508 38.6693 57.2072 38.3874 57.32 38.0492C57.4328 37.711 57.5457 37.3164 57.7149 36.9218C57.8842 36.5272 57.997 36.1327 58.1663 35.7381C58.3355 35.3999 58.4484 35.0616 58.5612 34.7798C58.674 34.4979 58.674 34.3288 58.674 34.2161C58.6176 34.1033 58.5048 33.9906 58.2791 33.9906C58.0534 33.9906 57.8842 33.9906 57.6585 34.047C57.4328 34.1033 57.1508 34.1597 56.8123 34.2725C56.7558 34.3852 56.6994 34.5543 56.5866 34.7234C56.5302 34.8362 56.4173 35.0053 56.3045 35.2307C56.1917 35.4562 56.0788 35.6817 55.966 35.9072C55.966 35.9635 55.966 35.9635 55.9096 35.9072C55.9096 35.8508 55.9096 35.7944 55.9096 35.6817C55.9096 35.569 55.8532 35.4562 55.8532 35.2871C55.7967 35.1744 55.6839 35.0053 55.5711 34.8925C55.4582 34.7798 55.2326 34.667 54.9505 34.667C54.6684 34.667 54.3299 34.667 53.935 34.7798C53.54 34.8925 53.1451 35.0616 52.7502 35.2871C52.3553 35.5126 51.9039 35.7944 51.509 36.189C50.7756 36.8655 50.2114 37.5419 49.8165 38.2183C49.7037 38.4438 49.5908 38.6693 49.478 38.8948C49.4216 38.9511 49.4216 39.0075 49.3651 39.0639C49.1395 39.3457 48.9138 39.684 48.5753 39.9094C48.2932 40.1913 48.0111 40.3604 47.729 40.3604C47.4469 40.4168 47.2777 40.1913 47.2777 39.7967C47.2777 39.4021 47.3341 38.8948 47.5598 38.2747C47.729 37.6546 47.9547 36.9782 48.2368 36.2454C48.5189 35.5126 48.7446 34.8362 49.0266 34.2161C49.9293 34.047 50.7192 33.9342 51.2833 33.8779C51.8475 33.8215 52.0732 33.8779 51.9603 33.9906C51.9039 34.047 51.9039 34.1033 51.9603 34.1597C52.0168 34.2161 52.1296 34.2161 52.2424 34.1597C52.4117 33.9906 52.5809 33.8215 52.6938 33.596C52.8066 33.4269 52.8066 33.3142 52.863 33.1451C52.863 32.9759 52.8066 32.8068 52.6374 32.6941C52.5245 32.5814 52.186 32.5814 51.5654 32.6941C50.9448 32.8068 50.2678 32.976 49.478 33.2014L49.8165 32.4686C50.0422 32.0177 50.0986 31.6794 49.9857 31.5667C49.8729 31.3976 49.7036 31.3412 49.478 31.3412C49.2523 31.3412 48.9138 31.3976 48.4625 31.5667C48.4625 31.5667 48.3496 31.7922 48.124 32.1868C47.8983 32.5814 47.6162 33.1451 47.3341 33.7651C46.6007 33.9906 45.9237 34.1033 45.4159 34.2161C44.9082 34.3288 44.6261 34.2725 44.6825 34.1033C44.6825 34.047 44.6261 34.047 44.5697 34.1033C44.5132 34.1033 44.4004 34.1597 44.344 34.2161C44.2312 34.2725 44.1747 34.3852 44.1747 34.4416C44.1183 34.5543 44.1747 34.667 44.2312 34.7798C44.344 34.9489 44.6825 35.0053 45.2467 34.9489C45.8108 34.8925 46.375 34.7798 46.9956 34.6107C46.7135 35.118 46.4879 35.6817 46.2058 36.2454C45.9237 36.8091 45.698 37.3164 45.5288 37.8237C45.3031 38.3311 45.1338 38.782 45.021 39.233C44.9082 39.6276 44.7953 39.9658 44.7953 40.1913C44.7953 40.5859 44.8517 40.9805 45.021 41.2059C45.1903 41.4878 45.4159 41.6569 45.698 41.7696C45.9801 41.8824 46.375 41.8824 46.7699 41.826C47.1649 41.7696 47.6162 41.6005 48.0675 41.375C48.4625 41.1496 48.8574 40.8677 49.1959 40.4731C49.2523 40.4168 49.3087 40.3604 49.3087 40.304C49.3651 40.5859 49.478 40.8677 49.6472 41.0368C49.9293 41.3187 50.3807 41.4314 50.9448 41.375C51.6218 41.3187 52.2424 41.0368 52.863 40.5859C53.4836 40.1349 54.0478 39.6276 54.5556 39.0075C54.4427 39.233 54.4427 39.4585 54.4427 39.684C54.4427 39.9094 54.4991 40.1349 54.612 40.304C54.7248 40.4731 54.8941 40.6422 55.0633 40.755C55.289 40.8677 55.5147 40.8677 55.7967 40.8677C56.4173 40.8113 56.9815 40.5859 57.4893 40.2477C57.997 39.9094 58.4484 39.5148 58.8433 39.0639C59.1818 38.7257 59.4075 38.3311 59.6331 37.9929C59.6331 38.0492 59.6331 38.1056 59.6331 38.162C59.5767 38.7257 59.6895 39.1766 59.8588 39.5148C60.0281 39.8531 60.3666 40.0785 60.7615 40.1913C61.2128 40.304 61.777 40.1913 62.5668 39.9658C63.0182 39.7967 63.4695 39.5712 63.9209 39.233C64.3722 38.8948 64.8235 38.5002 65.2749 37.9929C65.162 38.3874 65.162 38.7257 65.3313 39.0639C65.5006 39.4021 65.8955 39.5148 66.5725 39.5148C67.1367 39.5148 67.7008 39.2894 68.2086 39.0075C68.7163 38.6693 69.1677 38.2747 69.5626 37.8801C69.7883 37.5983 70.0139 37.3164 70.2396 37.0346C70.2396 37.4292 70.3525 37.8237 70.5781 38.162C70.8602 38.5566 71.4244 38.7257 72.2707 38.782C73.0605 38.782 73.7939 38.6129 74.4709 38.2747C75.1479 37.8801 75.7685 37.4292 76.2763 36.9218C76.502 36.9218 76.7276 36.8655 76.9533 36.8091C77.3482 36.6964 77.7431 36.5272 78.0252 36.2454C78.1381 36.189 78.1945 36.1327 78.2509 36.0199C78.0816 36.5272 77.9688 36.9218 78.0252 37.2037C78.0817 37.4855 78.1945 37.711 78.4202 37.8237C78.6458 37.9365 78.9279 37.9365 79.2664 37.8237C79.5485 37.7674 79.7178 37.6546 79.887 37.5419C80.0563 37.4292 80.2255 37.2037 80.4512 36.9218L80.7333 36.5836C80.9025 36.3018 81.1846 35.8508 81.5231 35.3435C81.8616 34.7798 82.2565 34.2725 82.595 33.7651C82.99 33.2578 83.3285 32.8068 83.667 32.4123C84.0055 32.0177 84.2876 31.8486 84.4568 31.9049C84.5132 31.9049 84.5132 32.0177 84.4568 32.1304C84.4004 32.2995 84.2876 32.525 84.1747 32.7505C84.0619 33.0323 83.8927 33.3142 83.7234 33.7088C83.5541 34.047 83.3849 34.4416 83.2156 34.8362C82.99 35.2871 82.8771 35.6817 82.8207 36.0763C82.7643 36.4145 82.8207 36.6964 82.9336 36.9218C83.0464 37.1473 83.2721 37.2601 83.5542 37.3728C83.8362 37.4292 84.1747 37.4292 84.6825 37.3164C85.1338 37.2037 85.5852 36.9218 86.0365 36.5272C86.4879 36.0763 86.8828 35.6253 87.2213 35.1744C87.6162 34.6107 88.0111 33.9906 88.4061 33.3142L88.0676 33.0323ZM55.0633 36.3018C55.0069 36.5836 54.9505 36.8091 54.8376 37.0909C54.7248 37.3728 54.612 37.5983 54.4991 37.7674C54.1042 38.2747 53.7093 38.6693 53.3144 39.0639C52.9194 39.4021 52.5245 39.6276 52.2424 39.6276C51.9603 39.684 51.7911 39.5712 51.7347 39.4021C51.6783 39.233 51.7347 38.9511 51.8475 38.6129C51.9604 38.2747 52.1296 37.9365 52.3553 37.5983C52.5809 37.2037 52.8066 36.8655 53.0887 36.5272C53.3708 36.189 53.5965 35.9072 53.8785 35.7381C54.1606 35.5126 54.3863 35.3998 54.5556 35.3998C54.7812 35.3998 54.8941 35.5126 55.0069 35.6817C55.0633 35.7944 55.1197 36.0199 55.0633 36.3018ZM76.502 33.7088C76.3891 33.7651 76.2199 33.8779 75.9942 34.047C75.7685 34.2161 75.5993 34.3852 75.43 34.6107C75.2044 34.8925 75.0915 35.1744 75.0915 35.4562C75.0351 35.7381 75.0915 35.9635 75.2044 36.189C74.9787 36.4145 74.753 36.5836 74.5274 36.6964C74.3017 36.8091 74.0196 36.9218 73.6811 36.9218C73.2297 36.9218 73.0041 36.7527 72.8912 36.4145C72.7784 36.0199 72.8912 35.569 73.0605 35.0053C73.1169 34.8362 73.2297 34.5543 73.399 34.2161C73.5683 33.8779 73.7375 33.596 74.0196 33.2578C74.2453 32.9196 74.5273 32.6941 74.8659 32.4686C75.2044 32.2431 75.5429 32.1868 75.8814 32.1868C76.2199 32.2431 76.502 32.3559 76.6712 32.6377C76.7276 32.9196 76.7276 33.2578 76.502 33.7088Z" fill="white"/>
<path d="M1.12793 5.2416L4.85148 21.9834L18.843 21.307L18.9559 4.50879L1.12793 5.2416Z" fill="white"/>
<path d="M18.9563 4.50923L18.8435 21.2511L4.85193 21.9839L1.12838 5.24204L18.9563 4.50923ZM18.9563 3.38184C18.8999 3.38184 18.8999 3.38184 18.9563 3.38184L1.07196 4.11464C0.733455 4.11464 0.451367 4.28375 0.225697 4.5656C0.0564449 4.84745 -0.0563901 5.18567 2.74209e-05 5.46752L3.72358 22.2093C3.83642 22.7167 4.28776 23.1113 4.85193 23.1113H4.90835L18.8999 22.3785C19.5205 22.3221 19.9718 21.8711 19.9718 21.2511L20.0847 4.50923C20.0847 4.17101 19.9718 3.88916 19.7461 3.66368C19.5205 3.49458 19.2384 3.38184 18.9563 3.38184Z" fill="#171C28"/>
<path d="M20.2539 7.21474L23.5825 23.6747L37.0663 22.9419L37.4612 5.97461L20.2539 7.21474Z" fill="white"/>
<path d="M37.4617 5.97505L37.0668 22.9424L23.583 23.6752L20.3108 7.21519L37.4617 5.97505ZM37.4617 4.84766H37.4053L20.1979 6.08779C19.8594 6.08779 19.5773 6.2569 19.3517 6.53875C19.1824 6.8206 19.0696 7.10245 19.126 7.44067L22.3982 23.9006C22.5111 24.408 22.9624 24.8026 23.5266 24.8026H23.583L37.0668 24.0698C37.6309 24.0134 38.1387 23.5624 38.1387 22.9424L38.5336 5.97505C38.5336 5.63683 38.4208 5.35498 38.1951 5.12951C38.0259 4.9604 37.7438 4.84766 37.4617 4.84766Z" fill="#171C28"/>
<path d="M39.4922 4.62164L43.1029 21.3071L56.5867 20.687L57.0944 3.71973L39.4922 4.62164Z" fill="white"/>
<path d="M57.0947 3.72017L56.5869 20.6875L43.1032 21.3075L39.4924 4.62209L57.0947 3.72017ZM57.0947 2.59277H57.0383L39.436 3.49469C39.0975 3.49469 38.8154 3.6638 38.5898 3.94565C38.3641 4.2275 38.3077 4.56572 38.3641 4.84757L41.9748 21.4767C42.0877 21.984 42.539 22.3786 43.1032 22.3786H43.1596L56.6434 21.7585C57.264 21.7585 57.7153 21.2512 57.7153 20.6875L58.223 3.72017C58.223 3.38195 58.1102 3.1001 57.8845 2.87462C57.7153 2.70551 57.4332 2.59277 57.0947 2.59277Z" fill="#171C28"/>
<path d="M62.9053 6.08741L66.516 22.942L80.2819 22.3219L80.3947 5.58008L62.9053 6.08741Z" fill="white"/>
<path d="M80.395 5.58025L80.2821 22.3221L66.5163 22.9421L62.9055 6.08758L80.395 5.58025ZM80.395 4.39648C80.395 4.39648 80.3385 4.39648 80.395 4.39648L62.8491 4.90381C62.5106 4.90381 62.1721 5.07292 62.0029 5.35477C61.7772 5.63662 61.7208 5.97484 61.7772 6.31306L65.3879 23.1676C65.5007 23.675 65.9521 24.0695 66.5163 24.0695H66.5727L80.3385 23.4495C80.9591 23.4495 81.4105 22.9421 81.4105 22.3221L81.5233 5.58025C81.5233 5.2984 81.4105 4.96018 81.1848 4.7347C80.9591 4.50922 80.6771 4.39648 80.395 4.39648Z" fill="#171C28"/>
<path d="M70.5216 10.9365C70.4651 10.3164 70.6344 9.80908 70.9165 9.47086C71.1986 9.13265 71.6499 8.96354 72.2141 8.90717C72.7783 8.8508 73.286 9.01991 73.5681 9.35812C73.9066 9.69634 74.0759 10.1473 74.0759 10.7674L74.1887 12.5712L73.1168 12.6276L73.0039 10.8237C73.0039 10.4855 72.8911 10.26 72.7783 10.0909C72.6654 9.92182 72.4397 9.86545 72.2141 9.86545C71.932 9.86545 71.7627 9.97819 71.6499 10.1473C71.5371 10.3164 71.4806 10.5419 71.4806 10.8801L71.8756 18.2082C71.8756 18.5464 71.9884 18.7719 72.1012 18.941C72.2141 19.1101 72.4397 19.1665 72.7218 19.1665C73.0039 19.1665 73.1732 19.0537 73.286 18.8846C73.3988 18.7155 73.4553 18.49 73.3988 18.1518L73.2296 15.3897H72.7783V14.0932L74.8657 13.9804L74.9221 15.277L74.3015 15.3897L74.4144 18.0391C74.4708 18.6591 74.3015 19.1665 74.0194 19.5047C73.7373 19.8429 73.286 20.012 72.7218 20.0684C72.1577 20.1248 71.6499 19.9556 71.3678 19.6174C71.0293 19.2792 70.8601 18.8282 70.8036 18.2082L70.5216 10.9365Z" fill="#171C28"/>
<path d="M72.4397 8.90685C72.9475 8.90685 73.3424 9.07596 73.6809 9.35781C74.0194 9.69603 74.1887 10.147 74.1887 10.7671L74.3015 12.5709L73.2296 12.6273L73.1167 10.8234C73.1167 10.4852 73.0039 10.2597 72.8911 10.0906C72.7782 9.97787 72.609 9.86514 72.3269 9.86514H72.2705C71.9884 9.86514 71.8191 9.97787 71.7063 10.147C71.5935 10.3161 71.537 10.5416 71.537 10.8798L71.932 18.2079C71.932 18.5461 72.0448 18.7716 72.1576 18.9407C72.2705 19.0534 72.4397 19.1662 72.7218 19.1662H72.7782C73.0603 19.1662 73.2296 19.0534 73.3424 18.8843C73.4552 18.7152 73.5116 18.4897 73.4552 18.1515L73.286 15.3894H72.8346V14.0929L74.9221 13.9801L74.9785 15.2766L74.3579 15.3894L74.4707 18.0388C74.5272 18.6588 74.3579 19.1662 74.0758 19.5044C73.7937 19.8426 73.3424 20.0117 72.7782 20.0681C72.7218 20.0681 72.6654 20.0681 72.609 20.0681C72.1012 20.0681 71.7063 19.899 71.3678 19.6171C71.0293 19.2789 70.86 18.8279 70.8036 18.2079L70.4087 10.8798C70.3523 10.2597 70.5215 9.7524 70.8036 9.41418C71.0857 9.07596 71.537 8.90685 72.1012 8.85048C72.3269 8.90685 72.3833 8.90685 72.4397 8.90685ZM72.4397 8.625C72.3833 8.625 72.3269 8.625 72.2705 8.625C71.5935 8.68137 71.0857 8.90685 70.7472 9.30144C70.4087 9.69603 70.2394 10.2597 70.2958 10.9362L70.6908 18.2642C70.7472 18.9407 70.9164 19.5044 71.3114 19.8426C71.6499 20.1808 72.1576 20.3499 72.7218 20.3499C72.7782 20.3499 72.8346 20.3499 72.8911 20.3499C73.5681 20.2935 74.0758 20.0681 74.4143 19.6735C74.7528 19.2789 74.9221 18.7152 74.8657 18.0388L74.7528 15.6149L75.1478 15.5021C75.2606 15.4457 75.3734 15.333 75.3734 15.2203L75.317 13.9238C75.317 13.7547 75.2042 13.6419 75.0349 13.6419L72.9475 13.7547C72.7782 13.7547 72.6654 13.8674 72.6654 14.0365V15.333C72.6654 15.3894 72.7218 15.5021 72.7782 15.5585C72.8346 15.6149 72.8911 15.6149 72.9475 15.6149H73.1167L73.286 18.1515C73.286 18.4897 73.2296 18.6588 73.1731 18.7152C73.1731 18.7716 73.0603 18.8279 72.8346 18.8279H72.7782C72.609 18.8279 72.4961 18.7716 72.4397 18.7152C72.3833 18.6588 72.3269 18.4897 72.2705 18.1515L71.8755 10.8234C71.8755 10.4852 71.932 10.3161 71.9884 10.2597C71.9884 10.2034 72.1012 10.147 72.3269 10.0906H72.3833C72.609 10.0906 72.6654 10.147 72.7218 10.2034C72.7782 10.2597 72.8346 10.4288 72.8911 10.7671L73.0039 12.5709C73.0039 12.74 73.1167 12.8527 73.286 12.8527L74.3579 12.7964C74.4143 12.7964 74.5272 12.74 74.5272 12.6836C74.5836 12.6273 74.5836 12.5709 74.5836 12.4581L74.4707 10.7107C74.4143 10.0342 74.2451 9.47055 73.8501 9.13233C73.4552 8.79411 73.0039 8.625 72.4397 8.625Z" fill="#171C28"/>
<path d="M70.5225 10.9355C70.4661 10.3154 70.6354 9.80811 70.9174 9.46989C71.1995 9.13167 71.6509 8.96256 72.2151 8.90619C72.7792 8.84982 73.287 9.01893 73.5691 9.35715C73.9076 9.69537 74.0768 10.1463 74.0768 10.7664L74.1897 12.5702L73.1177 12.6266L73.0049 10.8228C73.0049 10.4845 72.8921 10.2591 72.7792 10.09C72.6664 9.92085 72.4407 9.86448 72.2151 9.86448C71.933 9.86448 71.7637 9.97722 71.6509 10.1463C71.538 10.3154 71.4816 10.5409 71.4816 10.8791L71.8765 18.2072C71.8765 18.5454 71.9894 18.7709 72.1022 18.94C72.2151 19.1091 72.4407 19.1655 72.7228 19.1655C73.0049 19.1655 73.1741 19.0528 73.287 18.8836C73.3998 18.7145 73.4562 18.4891 73.3998 18.1508L73.2306 15.3887H72.7792V14.0922L74.8667 13.9795L74.9231 15.276L74.3025 15.3887L74.4153 18.0381C74.4718 18.6582 74.3025 19.1655 74.0204 19.5037C73.7383 19.8419 73.287 20.011 72.7228 20.0674C72.1586 20.1238 71.6509 19.9547 71.3688 19.6164C71.0303 19.2782 70.861 18.8273 70.8046 18.2072L70.5225 10.9355Z" fill="#00B098"/>
<path d="M72.6659 20.1799C72.1018 20.1799 71.7068 20.0108 71.3683 19.7289C71.0298 19.3907 70.8606 18.8834 70.8042 18.2633L70.4092 10.9352C70.3528 10.3152 70.5221 9.80784 70.8042 9.41325C71.0863 9.07503 71.594 8.84955 72.1582 8.84955C72.7788 8.79318 73.2301 8.96229 73.5686 9.30051C73.9071 9.63873 74.0764 10.0897 74.1328 10.7661L74.2456 12.6263L73.0609 12.6827L72.948 10.8225C72.948 10.4843 72.8916 10.2588 72.7224 10.1461C72.6095 10.0333 72.4403 9.97695 72.2146 9.97695C71.9889 9.97695 71.8197 10.0897 71.7068 10.2024C71.594 10.3715 71.5376 10.597 71.594 10.8789L71.9889 18.2069C71.9889 18.5452 72.1018 18.7706 72.2146 18.8834C72.3274 18.9961 72.4967 19.0525 72.7788 19.0525C73.0044 19.0525 73.1737 18.9397 73.2865 18.827C73.3994 18.6579 73.4558 18.4324 73.3994 18.1506L73.2301 15.4448H72.7788V14.0356L75.0355 13.9228L75.0919 15.3884L74.4713 15.5012L74.5841 18.0942C74.6406 18.7143 74.4713 19.2216 74.1892 19.6162C73.9071 19.9544 73.3994 20.1799 72.8352 20.1799C72.7788 20.1799 72.7224 20.1799 72.6659 20.1799ZM70.6349 10.9352L71.0298 18.2633C71.0863 18.8834 71.2555 19.3343 71.5376 19.6162C71.8197 19.898 72.271 20.0671 72.8352 20.0108C73.3994 19.9544 73.8507 19.7853 74.1328 19.4471C74.4149 19.1089 74.5277 18.6579 74.5277 18.0378L74.4149 15.2757L75.0355 15.163L74.9791 13.9792L73.0044 14.0919V15.2757H73.4558L73.625 18.1506C73.625 18.4888 73.5686 18.7706 73.4558 18.9397C73.343 19.1089 73.1173 19.2216 72.8352 19.2216C72.5531 19.2216 72.3274 19.1652 72.1582 18.9961C71.9889 18.827 71.9325 18.6015 71.9325 18.2069L71.5376 10.8789C71.5376 10.5406 71.594 10.2588 71.7068 10.0897C71.8197 9.92058 72.0453 9.80784 72.3274 9.80784C72.6095 9.80784 72.8352 9.86421 72.948 10.0333C73.0609 10.2024 73.1737 10.4279 73.1737 10.8225L73.2865 12.57L74.1892 12.5136L74.0764 10.7661C74.02 10.1461 73.8507 9.6951 73.5686 9.41325C73.2865 9.1314 72.8352 8.96229 72.271 9.01866C71.7068 9.07503 71.2555 9.24414 70.9734 9.58236C70.6913 9.86421 70.5785 10.3152 70.6349 10.9352Z" fill="#00B098"/>
<path d="M82.3125 2.25435L85.9232 19.1089L99.2942 17.8688L99.8583 1.12695L82.3125 2.25435Z" fill="white"/>
<path d="M99.8588 1.1274L99.2946 17.8692L85.9237 19.1094L82.313 2.25479L99.8588 1.1274ZM99.8588 0H99.8024L82.313 1.1274C81.9745 1.1274 81.6924 1.29651 81.4667 1.57835C81.241 1.8602 81.1846 2.19842 81.2411 2.48027L84.8518 19.3348C84.9646 19.8422 85.4159 20.2368 85.9801 20.2368C86.0365 20.2368 86.0365 20.2368 86.093 20.2368L99.4639 18.9966C100.028 18.9402 100.479 18.4893 100.479 17.9256L100.987 1.18377C100.987 0.845547 100.874 0.563698 100.649 0.338219C100.423 0.11274 100.141 0 99.8588 0Z" fill="#171C28"/>
<path d="M101.382 4.62154L104.654 21.1943L118.646 20.236L118.871 3.49414L101.382 4.62154Z" fill="white"/>
<path d="M118.872 3.49458L118.646 20.2364L104.654 21.1383L101.382 4.56561L118.872 3.49458ZM118.872 2.36719H118.815L101.326 3.49458C100.987 3.49458 100.705 3.66369 100.479 3.94554C100.254 4.22739 100.197 4.50924 100.254 4.84746L103.526 21.4202C103.639 21.9275 104.09 22.3221 104.654 22.3221H104.711L118.702 21.4202C119.266 21.3638 119.774 20.9128 119.774 20.2928L120 3.55095C120 3.21273 119.887 2.93089 119.661 2.70541C119.436 2.47993 119.154 2.36719 118.872 2.36719Z" fill="#171C28"/>
<path d="M91.3969 13.81L91.2841 15.4447L90.2686 15.5574L90.7763 4.45258L92.2996 4.33984L94.6691 15.1628L93.6536 15.2756L93.2587 13.6972L91.3969 13.81ZM92.9766 12.6826L91.679 6.36916L91.3969 12.8517L92.9766 12.6826Z" fill="#171C28"/>
<path d="M92.2428 4.2838L94.6124 15.1068L93.5968 15.2195L93.2019 13.6412L91.3965 13.8103L91.2837 15.445L90.2682 15.5578L90.776 4.45291L92.2428 4.2838ZM91.3965 12.852L92.9762 12.7393L91.6786 6.42585L91.3965 12.852ZM92.2428 4.00195L90.7195 4.11469C90.5503 4.11469 90.4939 4.22743 90.4375 4.39654L89.9297 15.5014C89.9297 15.5578 89.9297 15.6705 90.0425 15.7269C90.0989 15.7832 90.1554 15.7832 90.2118 15.7832L91.2273 15.6705C91.3401 15.6705 91.453 15.5578 91.5094 15.3886L91.6222 14.0358L92.9762 13.923L93.3147 15.2759C93.3712 15.3886 93.484 15.5014 93.5968 15.5014L94.6124 15.3886C94.6688 15.3886 94.7816 15.3323 94.838 15.2759C94.8944 15.2195 94.8944 15.1068 94.8944 15.0504L92.5249 4.22743C92.5249 4.11469 92.4121 4.00195 92.2428 4.00195ZM91.7351 12.5138L91.9043 8.68064L92.6942 12.4574L91.7351 12.5138Z" fill="#171C28"/>
<path d="M109.563 14.0919L110.579 14.0355L110.748 16.1776C110.748 16.5158 110.861 16.7413 110.974 16.9104C111.086 17.0795 111.312 17.1359 111.594 17.0795C111.876 17.0795 112.045 16.9668 112.158 16.7977C112.271 16.6285 112.328 16.4031 112.271 16.0649L112.158 14.6556C112.158 14.3738 112.045 14.1483 111.933 13.8664C111.82 13.641 111.651 13.4155 111.481 13.3027L111.256 13.1336L110.974 12.9081L110.804 12.7954L110.127 12.2881C109.902 12.0626 109.676 11.7807 109.507 11.4989C109.337 11.2171 109.281 10.8225 109.225 10.4279L109.112 9.01863C109.055 8.39856 109.168 7.89123 109.45 7.55301C109.732 7.2148 110.184 6.98932 110.748 6.98932C111.312 6.93295 111.763 7.10206 112.102 7.38391C112.44 7.66575 112.61 8.17308 112.666 8.79315L112.835 10.9352L111.82 10.9916L111.651 8.84952C111.651 8.5113 111.538 8.28582 111.425 8.11671C111.312 7.9476 111.086 7.89123 110.861 7.9476C110.635 8.00397 110.409 8.06034 110.297 8.22945C110.184 8.39856 110.127 8.62404 110.184 8.96226L110.297 10.3715C110.297 10.6534 110.409 10.8788 110.522 11.1607C110.635 11.3862 110.804 11.6116 110.974 11.7244C111.199 11.8935 111.425 12.0626 111.594 12.2317L111.933 12.4572C112.102 12.5699 112.271 12.739 112.44 12.9645C112.61 13.1336 112.722 13.3591 112.835 13.5282C113.005 13.8664 113.061 14.261 113.117 14.6556L113.23 16.0649C113.287 16.6849 113.174 17.1922 112.892 17.5305C112.61 17.8687 112.158 18.0942 111.594 18.0942C111.03 18.1505 110.579 17.9814 110.24 17.6996C109.902 17.4177 109.732 16.9104 109.676 16.2903L109.563 14.0919Z" fill="#171C28"/>
<path d="M111.086 6.87658C111.594 6.87658 111.989 6.98931 112.271 7.27116C112.61 7.55301 112.779 8.06034 112.835 8.68041L113.005 10.8225L111.989 10.8788L111.82 8.73678C111.82 8.39856 111.707 8.17308 111.594 8.00397C111.481 7.89123 111.312 7.83486 111.086 7.83486H111.03C110.748 7.83486 110.579 7.9476 110.466 8.11671C110.353 8.28582 110.297 8.5113 110.353 8.84952L110.466 10.2588C110.466 10.5406 110.579 10.7661 110.691 11.0479C110.804 11.3298 110.974 11.4989 111.143 11.6116C111.369 11.7807 111.594 11.9499 111.763 12.119L112.102 12.3444C112.271 12.4572 112.44 12.6263 112.61 12.8518C112.779 13.0209 112.892 13.2464 113.005 13.4155C113.174 13.7537 113.23 14.1483 113.287 14.5429L113.4 15.9521C113.456 16.5722 113.343 17.0795 113.061 17.4177C112.779 17.7559 112.328 17.9814 111.763 17.9814C111.707 17.9814 111.651 17.9814 111.538 17.9814C111.03 17.9814 110.635 17.8687 110.353 17.5868C110.014 17.305 109.845 16.7977 109.789 16.1776L109.62 14.0355L110.635 13.9792L110.804 16.1212C110.804 16.4594 110.917 16.6849 111.03 16.854C111.143 16.9668 111.312 17.0231 111.538 17.0231C111.594 17.0231 111.594 17.0231 111.651 17.0231C111.933 17.0231 112.102 16.9104 112.215 16.7413C112.328 16.5722 112.384 16.3467 112.328 16.0085L112.215 14.5992C112.215 14.3174 112.102 14.0919 111.989 13.8101C111.876 13.5846 111.707 13.3591 111.538 13.2464L111.312 13.0773L111.03 12.8518L110.861 12.739L110.184 12.2317C109.958 12.0062 109.732 11.7244 109.563 11.4425C109.394 11.1043 109.337 10.7661 109.281 10.3715L109.168 8.96226C109.112 8.34219 109.225 7.83486 109.507 7.49664C109.789 7.15842 110.24 6.93295 110.804 6.93295C110.917 6.87658 110.974 6.87658 111.086 6.87658ZM111.086 6.59473C111.03 6.59473 110.917 6.59473 110.861 6.59473C110.184 6.6511 109.676 6.87658 109.337 7.27116C108.999 7.66575 108.886 8.22945 108.943 8.90589L109.055 10.3151C109.112 10.7661 109.168 11.1607 109.337 11.4989C109.507 11.8935 109.732 12.1753 110.014 12.4008L110.691 12.9645L110.861 13.0773L111.143 13.3027L111.369 13.4718C111.538 13.5846 111.651 13.7537 111.763 13.9792C111.876 14.2046 111.933 14.4301 111.933 14.6556L112.046 16.0648C112.046 16.4031 111.989 16.5722 111.989 16.6285C111.989 16.6849 111.876 16.7413 111.651 16.7977H111.594C111.369 16.7977 111.312 16.7413 111.312 16.6849C111.256 16.6285 111.199 16.4594 111.143 16.1212L110.974 13.9792C110.974 13.8101 110.861 13.6973 110.691 13.6973L109.676 13.7537C109.62 13.7537 109.507 13.8101 109.507 13.8664C109.45 13.9228 109.45 13.9792 109.45 14.0919L109.62 16.234C109.676 16.9104 109.902 17.4741 110.24 17.8123C110.579 18.1505 111.03 18.3196 111.594 18.3196C111.651 18.3196 111.763 18.3196 111.82 18.3196C112.497 18.2633 113.005 18.0378 113.343 17.6432C113.682 17.2486 113.794 16.6849 113.738 16.0085L113.625 14.5992C113.569 14.1483 113.512 13.7537 113.343 13.3591C113.23 13.1336 113.117 12.9081 112.892 12.6827C112.723 12.4572 112.497 12.2881 112.328 12.119L111.989 11.8935C111.763 11.7244 111.538 11.5553 111.369 11.3862C111.199 11.2734 111.086 11.1043 110.974 10.8788C110.861 10.6534 110.804 10.4279 110.804 10.2024L110.691 8.79315C110.691 8.45493 110.748 8.28582 110.748 8.22945C110.748 8.17308 110.861 8.11671 111.086 8.06034H111.143C111.369 8.06034 111.425 8.11671 111.425 8.17308C111.481 8.22945 111.538 8.34219 111.594 8.73678L111.763 10.8788C111.763 11.0479 111.876 11.1607 112.046 11.1607L113.061 11.1043C113.23 11.1043 113.343 10.9352 113.343 10.8225L113.174 8.68041C113.117 8.00397 112.892 7.44027 112.553 7.10205C112.102 6.76384 111.651 6.59473 111.086 6.59473Z" fill="#171C28"/>
<path d="M47.6729 6.93332L50.5501 6.87695L50.3245 7.83524H48.7448L48.8012 12.5139H49.9296L49.7039 13.4722H48.8012L48.8576 16.9108L50.7194 16.8544L50.4937 17.8127L47.8421 17.8691L47.6729 6.93332Z" fill="#171C28"/>
<path d="M50.55 6.87658L50.3243 7.83486H48.7446L48.8011 12.5136H49.9294L49.7037 13.4718H48.8011L48.8575 16.9104L50.7193 16.854L50.4936 17.8123L47.842 17.8687L47.6727 6.87658H50.55ZM50.55 6.59473L47.6727 6.6511C47.5035 6.6511 47.3906 6.76384 47.3906 6.93295L47.5599 17.9251C47.5599 17.9814 47.6163 18.0942 47.6727 18.1505C47.7291 18.2069 47.7855 18.2069 47.842 18.2069L50.4936 18.1505C50.6064 18.1505 50.7193 18.0378 50.7757 17.9251L51.0013 16.9668C51.0013 16.854 51.0013 16.7977 50.9449 16.7413C50.8885 16.6849 50.8321 16.6286 50.7193 16.6286H49.1396L49.0831 13.7537H49.7037C49.8166 13.7537 49.9294 13.641 49.9858 13.5282L50.2115 12.5699C50.2115 12.4572 50.2115 12.4008 50.1551 12.3444C50.0987 12.2881 50.0422 12.2317 49.9294 12.2317H49.0831L49.0267 8.11671H50.3243C50.4372 8.11671 50.55 8.00397 50.6064 7.89123L50.8321 6.93295C50.8321 6.82021 50.8321 6.76384 50.7757 6.70747C50.7193 6.59473 50.6628 6.59473 50.55 6.59473Z" fill="#171C28"/>
<path d="M28.548 15.1073L30.0713 15.0509L29.9585 9.18848H31.0304L31.3125 20.1806H30.2406L30.1277 16.0092L28.6045 16.0656L28.7173 20.237H27.6454L27.3633 9.24485H28.4352L28.548 15.1073Z" fill="#171C28"/>
<path d="M30.9736 9.1881L31.2557 20.1802H30.1838L30.071 16.0088L28.5477 16.0652L28.6605 20.2366H27.5886L27.3065 9.24447H28.3784L28.4913 15.1069L30.0145 15.0506L29.9017 9.1881H30.9736ZM30.9736 8.90625H29.9017C29.7325 8.90625 29.6196 9.01899 29.6196 9.1881L29.7325 14.7687H28.7734L28.6605 9.1881C28.6605 9.13173 28.6041 9.01899 28.5477 9.01899C28.4913 8.96262 28.4348 8.96262 28.3784 8.96262H27.3065C27.1372 8.96262 27.0244 9.07536 27.0244 9.24447L27.3065 20.2929C27.3065 20.3493 27.3629 20.4621 27.4193 20.4621C27.4758 20.5184 27.5322 20.5184 27.5886 20.5184H28.6605C28.8298 20.5184 28.9426 20.4057 28.9426 20.2366L28.8298 16.3471H29.7889L29.9017 20.2366C29.9017 20.2929 29.9581 20.4057 30.0145 20.4057C30.071 20.4621 30.1274 20.4621 30.1838 20.4621H31.2557C31.425 20.4621 31.5378 20.3493 31.5378 20.1802L31.2557 9.1881C31.2557 9.13173 31.1993 9.01899 31.1429 9.01899C31.1429 8.96262 31.0865 8.90625 30.9736 8.90625Z" fill="#171C28"/>
<path d="M8.06738 8.90572L8.40589 7.94743L11.9602 7.77832L11.7345 8.73661L10.5498 8.79298L11.0575 18.8268L10.042 18.8832L9.53424 8.84935L8.06738 8.90572Z" fill="#171C28"/>
<path d="M11.9602 7.72228L11.7345 8.68056L10.5498 8.73693L11.0575 18.7708L10.042 18.8271L9.53425 8.7933L8.12382 8.84967L8.46232 7.89139L11.9602 7.72228ZM11.9602 7.44043C11.9038 7.44043 11.9038 7.44043 11.9602 7.44043L8.4059 7.60954C8.29307 7.60954 8.18023 7.66591 8.18023 7.77865L7.84173 8.73693C7.78531 8.84967 7.84173 8.90604 7.89815 9.01878C7.95456 9.07515 8.01098 9.13152 8.12382 9.13152L9.25217 9.07515L9.75992 18.8271C9.75992 18.9962 9.87276 19.109 10.042 19.109L11.0575 19.0526C11.1139 19.0526 11.2268 18.9962 11.2268 18.9399C11.2832 18.8835 11.2832 18.8271 11.2832 18.7144L10.8319 9.01878L11.7345 8.96241C11.8474 8.96241 11.9602 8.84967 12.0166 8.73693L12.2423 7.77865C12.2423 7.66591 12.2423 7.60954 12.1859 7.55317C12.073 7.4968 12.0166 7.44043 11.9602 7.44043Z" fill="#171C28"/>
<path d="M91.3969 13.81L91.2841 15.4447L90.2686 15.5574L90.7763 4.45258L92.2996 4.33984L94.6691 15.1628L93.6536 15.2756L93.2587 13.6972L91.3969 13.81ZM92.9766 12.6826L91.679 6.36916L91.3969 12.8517L92.9766 12.6826Z" fill="#00B098"/>
<path d="M90.1553 15.5579V15.5015L90.663 4.34028L92.2991 4.22754V4.28391L94.6687 15.2196L93.4839 15.3324L93.089 13.754L91.3965 13.9231L91.2836 15.5579H90.1553ZM90.8323 4.50939L90.3245 15.4451L91.2272 15.3888L91.34 13.754L93.3147 13.5849L93.7096 15.1633L94.6123 15.1069L92.2991 4.39665L90.8323 4.50939ZM91.34 12.9085L91.6221 5.80589L93.089 12.7394L91.34 12.9085ZM91.735 6.98966L91.5093 12.7957L92.9197 12.683L91.735 6.98966Z" fill="#00B098"/>
<path d="M109.563 14.0919L110.579 14.0355L110.748 16.1776C110.748 16.5158 110.861 16.7413 110.974 16.9104C111.086 17.0795 111.312 17.1359 111.594 17.0795C111.876 17.0795 112.045 16.9668 112.158 16.7977C112.271 16.6285 112.328 16.4031 112.271 16.0649L112.158 14.6556C112.158 14.3738 112.045 14.1483 111.933 13.8664C111.82 13.641 111.651 13.4155 111.481 13.3027L111.256 13.1336L110.974 12.9081L110.804 12.7954L110.127 12.2881C109.902 12.0626 109.676 11.7807 109.507 11.4989C109.337 11.2171 109.281 10.8225 109.225 10.4279L109.112 9.01863C109.055 8.39856 109.168 7.89123 109.45 7.55301C109.732 7.2148 110.184 6.98932 110.748 6.98932C111.312 6.93295 111.763 7.10206 112.102 7.38391C112.44 7.66575 112.61 8.17308 112.666 8.79315L112.835 10.9352L111.82 10.9916L111.651 8.84952C111.651 8.5113 111.538 8.28582 111.425 8.11671C111.312 7.9476 111.086 7.89123 110.861 7.9476C110.635 8.00397 110.409 8.06034 110.297 8.22945C110.184 8.39856 110.127 8.62404 110.184 8.96226L110.297 10.3715C110.297 10.6534 110.409 10.8788 110.522 11.1607C110.635 11.3862 110.804 11.6116 110.974 11.7244C111.199 11.8935 111.425 12.0626 111.594 12.2317L111.933 12.4572C112.102 12.5699 112.271 12.739 112.44 12.9645C112.61 13.1336 112.722 13.3591 112.835 13.5282C113.005 13.8664 113.061 14.261 113.117 14.6556L113.23 16.0649C113.287 16.6849 113.174 17.1922 112.892 17.5305C112.61 17.8687 112.158 18.0942 111.594 18.0942C111.03 18.1505 110.579 17.9814 110.24 17.6996C109.902 17.4177 109.732 16.9104 109.676 16.2903L109.563 14.0919Z" fill="#00B098"/>
<path d="M111.424 18.0943C110.917 18.0943 110.522 17.9252 110.183 17.6434C109.845 17.3052 109.619 16.8542 109.619 16.1778L109.45 13.9793L110.635 13.923L110.804 16.1214C110.804 16.4596 110.917 16.6851 111.029 16.7978C111.142 16.9106 111.312 16.9669 111.537 16.9669C111.763 16.9669 111.932 16.8542 112.045 16.7415C112.158 16.5723 112.158 16.3469 112.158 16.065L112.045 14.6558C112.045 14.3739 111.932 14.1484 111.819 13.923C111.706 13.6975 111.537 13.5284 111.368 13.3593L110.747 12.8519L110.07 12.3446C109.788 12.1191 109.619 11.8373 109.45 11.4991C109.281 11.1608 109.224 10.7663 109.168 10.3717L109.055 8.96242C108.998 8.34235 109.111 7.83503 109.45 7.44044C109.732 7.10222 110.183 6.87674 110.804 6.82037C111.424 6.764 111.876 6.93311 112.214 7.21496C112.553 7.55318 112.722 8.00414 112.778 8.68057L112.948 10.879L111.763 10.9354L111.594 8.73694C111.594 8.39872 111.481 8.17325 111.368 8.06051C111.255 7.94777 111.086 7.8914 110.86 7.8914C110.635 7.8914 110.465 8.00414 110.352 8.11688C110.24 8.28599 110.24 8.51146 110.24 8.79331L110.352 10.2026C110.352 10.4844 110.465 10.7099 110.578 10.9354C110.691 11.1608 110.86 11.33 111.029 11.4991C111.255 11.6682 111.481 11.8373 111.65 12.0064L111.989 12.2319C112.158 12.401 112.383 12.5701 112.553 12.7392C112.722 12.9083 112.835 13.1338 112.948 13.3593C113.117 13.6975 113.23 14.0921 113.23 14.4867L113.343 15.8959C113.399 16.516 113.286 17.0233 112.948 17.4179C112.666 17.7561 112.214 17.9816 111.594 18.038C111.594 18.0943 111.481 18.0943 111.424 18.0943ZM109.619 14.1484L109.788 16.1778C109.845 16.7978 110.014 17.2488 110.352 17.5306C110.691 17.8125 111.086 17.9252 111.65 17.9252C112.214 17.8688 112.609 17.6997 112.891 17.3615C113.173 17.0233 113.286 16.5723 113.23 15.9523L113.117 14.543C113.061 14.1484 113.004 13.7539 112.835 13.4156C112.722 13.2465 112.609 13.021 112.44 12.8519C112.271 12.6828 112.101 12.5137 111.932 12.3446L111.594 12.1191C111.368 11.95 111.142 11.7809 110.917 11.6118C110.691 11.4427 110.522 11.2736 110.409 10.9917C110.296 10.7663 110.24 10.4844 110.183 10.2026L110.07 8.79331C110.07 8.45509 110.07 8.17325 110.24 8.00414C110.352 7.83503 110.578 7.72229 110.86 7.72229C111.142 7.72229 111.368 7.77866 111.481 7.94777C111.594 8.11688 111.706 8.34235 111.706 8.68057L111.876 10.7099H112.835L112.666 8.68057C112.609 8.06051 112.44 7.60955 112.158 7.3277C111.876 7.04585 111.424 6.93311 110.86 6.93311C110.296 6.98948 109.901 7.15859 109.619 7.49681C109.337 7.83503 109.224 8.28599 109.281 8.90605L109.393 10.3153C109.393 10.7099 109.506 11.0481 109.675 11.3863C109.845 11.7245 110.014 11.95 110.24 12.1755L111.537 13.2465C111.763 13.4156 111.932 13.5847 112.045 13.8666C112.158 14.0921 112.214 14.3739 112.271 14.6558L112.383 16.065C112.383 16.4032 112.383 16.6851 112.214 16.8542C112.101 17.0233 111.876 17.136 111.594 17.136C111.312 17.136 111.086 17.0797 110.917 16.9106C110.747 16.7415 110.691 16.516 110.691 16.1778L110.522 14.1484H109.619Z" fill="#00B098"/>
<path d="M47.6729 6.93332L50.5501 6.87695L50.3245 7.83524H48.7448L48.8012 12.5139H49.9296L49.7039 13.4722H48.8012L48.8576 16.9108L50.7194 16.8544L50.4937 17.8127L47.8421 17.8691L47.6729 6.93332Z" fill="#00B098"/>
<path d="M47.7855 17.9815V17.9252L47.6162 6.87668L50.6628 6.82031L50.3807 7.94771H48.801L48.8574 12.4573H50.0422L49.7601 13.5847H48.8574L48.9138 16.9105L50.7756 16.8541L50.4935 17.9815H47.7855ZM47.729 6.98942L47.9547 17.8124L50.4935 17.7561L50.7192 16.9105L48.9138 16.9669L48.8574 13.3592H49.7601L49.9857 12.5137H48.8574V12.4573L48.801 7.72223L50.3807 7.66586L50.6063 6.82031L47.729 6.98942Z" fill="#00B098"/>
<path d="M28.548 15.1073L30.0713 15.0509L29.9585 9.18848H31.0304L31.3125 20.1806H30.2406L30.1277 16.0092L28.6045 16.0656L28.7173 20.237H27.6454L27.3633 9.24485H28.4352L28.548 15.1073Z" fill="#00B098"/>
<path d="M27.5321 20.3499L27.25 9.18864L28.4348 9.13227L28.5476 14.9947L29.958 14.9384L29.8452 9.0759L31.03 9.01953L31.3121 20.1807L30.1273 20.2935L30.0145 16.1221L28.604 16.1785L28.7169 20.3499H27.5321ZM27.4193 9.35775L27.6449 20.1807H28.5476L28.4348 16.0094L30.1273 15.953L30.2401 20.1244H31.1428L30.8607 9.24501H29.958L30.0709 15.1075L28.3783 15.1638L28.2655 9.30138L27.4193 9.35775Z" fill="#00B098"/>
<path d="M8.06836 8.90669L8.40686 7.94841L11.9612 7.7793L11.7355 8.73758L10.5507 8.79395L11.0585 18.8278L10.043 18.8841L9.53521 8.85032L8.06836 8.90669Z" fill="#00B098"/>
<path d="M9.92969 18.8843L9.42193 8.85049L7.95508 8.90686L8.35 7.77946L12.0736 7.61035L11.8479 8.73775L10.6631 8.79412L11.1709 18.8279L9.92969 18.8843ZM9.53477 8.73775L10.0425 18.7716L10.9452 18.7152L10.4374 8.68138L11.6786 8.62501L11.8479 7.77946L8.40642 7.94857L8.12433 8.79412L9.53477 8.73775Z" fill="#00B098"/>
</g>
<defs>
<clipPath id="clip0_343:353">
<rect width="120" height="50" fill="white"/>
</clipPath>
</defs>
</svg>
