<svg xmlns="http://www.w3.org/2000/svg" width="30" height="30" viewBox="0 0 37.94 37.39"><defs><style>.cls-1{fill:#fff;}.cls-2{fill:#959cae;}</style></defs><title>Asset 3</title><g id="Layer_2" data-name="Layer 2"><g id="Layer_1-2" data-name="Layer 1"><path class="cls-1" d="M20.78,30.58H17.16a.44.44,0,0,0-.44.44,2.25,2.25,0,0,0,4.49,0A.44.44,0,0,0,20.78,30.58Zm-.71,1.26a1.36,1.36,0,0,1-2.18,0l-.28-.38h2.76Z"/><path class="cls-1" d="M17.45,26.35a.44.44,0,0,0,.44-.44,2.25,2.25,0,0,0-4.49,0,.44.44,0,1,0,.88,0,1.37,1.37,0,0,1,2.73,0A.44.44,0,0,0,17.45,26.35Z"/><path class="cls-1" d="M22.29,23.66A2.25,2.25,0,0,0,20,25.91a.44.44,0,1,0,.88,0,1.37,1.37,0,0,1,2.73,0,.44.44,0,1,0,.88,0A2.25,2.25,0,0,0,22.29,23.66Z"/><path class="cls-1" d="M29.23,24.3c.84-5.56,0-9.48-2.36-11.66a7.31,7.31,0,0,0-5.09-1.8,11.44,11.44,0,0,0-2.74.34,7.55,7.55,0,0,0-4.35,2.75l-.05.08-.09,0A7.32,7.32,0,0,0,9.9,16.67c-2,2.71-1.24,6.4-1.06,7.11l0,.06,0,.06a2.79,2.79,0,0,0-.13.8v.91a2.88,2.88,0,0,0,2.24,2.79l.19,0v.87a7.84,7.84,0,0,0,15.68,0v-.87l.19,0a2.88,2.88,0,0,0,2.24-2.79V24.7a1.19,1.19,0,0,0,0-.16l0-.15v0S29.23,24.3,29.23,24.3Zm-18.1,3.28-.33-.14a2,2,0,0,1-1.22-1.83V24.7a2,2,0,0,1,1.22-1.83l.33-.14Zm14.8,1.73a7,7,0,1,1-13.92,0V21.1h.83c1.62,0,4.63-.21,6.53-1.62l.1-.08.12,0A27.47,27.47,0,0,0,25.72,21l.21,0Zm2.43-3.7a2,2,0,0,1-1.22,1.83l-.33.14V22.73l.33.14a2,2,0,0,1,1.22,1.83Zm.22-3.27,0,.45-.35-.29a2.81,2.81,0,0,0-1.2-.6l-.19,0V20.63a.44.44,0,0,0-.43-.44,25.52,25.52,0,0,1-6.83-1.68.45.45,0,0,0-.16,0,.44.44,0,0,0-.29.11c-1.63,1.43-4.64,1.65-6.28,1.65-.72,0-1.2,0-1.24,0a.44.44,0,0,0-.44.44v1.24l-.19,0a2.82,2.82,0,0,0-1.1.52l-.34.26,0-.42A7.21,7.21,0,0,1,10.6,17.2c1.27-1.69,3.53-2.55,6.78-2.55h.07a.44.44,0,1,0,0-.88h-.07l-.58,0-.92,0,.58-.46A7.41,7.41,0,0,1,19.25,12a10.59,10.59,0,0,1,2.53-.32,6.46,6.46,0,0,1,4.5,1.57C28.15,15,28.95,18.12,28.58,22.34Z"/><path class="cls-1" d="M25.26,5.12a.44.44,0,1,0,.36-.8,16,16,0,0,0-3.25-1.08h-.09a.44.44,0,0,0-.09.87A15.12,15.12,0,0,1,25.26,5.12Z"/><path class="cls-1" d="M32.47,26.89a.44.44,0,0,0-.61.14,15.56,15.56,0,0,1-.95,1.34.44.44,0,1,0,.69.54,16.23,16.23,0,0,0,1-1.42A.44.44,0,0,0,32.47,26.89Z"/><path class="cls-1" d="M34.13,21.3a.44.44,0,0,0,.29.17h.06a.44.44,0,0,0,.43-.38A16.21,16.21,0,0,0,35.06,19c0-.43,0-.86-.05-1.29a.45.45,0,0,0-.47-.4h0a.44.44,0,0,0-.4.47c0,.4,0,.81,0,1.22A15.45,15.45,0,0,1,34,21,.44.44,0,0,0,34.13,21.3Z"/><path class="cls-1" d="M19,.24A18.73,18.73,0,0,0,6.38,32.84a.44.44,0,0,0,.62,0,.44.44,0,0,0,0-.62,17.85,17.85,0,1,1,24,0,.44.44,0,0,0,0,.62.43.43,0,0,0,.33.14.44.44,0,0,0,.3-.11A18.73,18.73,0,0,0,19,.24Z"/><path class="cls-1" d="M3.71,17.4a.46.46,0,0,0-.34-.16.43.43,0,0,0-.43.4c0,.44-.05.88-.05,1.32A16.07,16.07,0,0,0,3,21.06a.44.44,0,0,0,.43.38h.06a.44.44,0,0,0,.38-.49,15.24,15.24,0,0,1-.13-2c0-.42,0-.84.05-1.25A.44.44,0,0,0,3.71,17.4Z"/><path class="cls-1" d="M12.52,5.15a.45.45,0,0,0,.18,0,15.16,15.16,0,0,1,3.07-1,.43.43,0,0,0,.28-.19.44.44,0,0,0-.37-.68h-.09a16.1,16.1,0,0,0-3.25,1.07.44.44,0,0,0,.18.84Z"/><path class="cls-1" d="M6.33,28.91A.44.44,0,1,0,7,28.37,15.27,15.27,0,0,1,6.07,27a.44.44,0,0,0-.37-.21.44.44,0,0,0-.37.67A16,16,0,0,0,6.33,28.91Z"/><path class="cls-1" d="M33,11.17a16.2,16.2,0,0,0-2-2.8.44.44,0,0,0-.66.58,15.32,15.32,0,0,1,1.86,2.64.44.44,0,0,0,.39.23.44.44,0,0,0,.38-.65Z"/><path class="cls-1" d="M5.68,11.57A15.33,15.33,0,0,1,7.54,8.93a.44.44,0,0,0-.66-.58,16.18,16.18,0,0,0-2,2.79.44.44,0,0,0,.38.65A.44.44,0,0,0,5.68,11.57Z"/><path class="cls-1" d="M19,6.47A12.5,12.5,0,0,1,30.85,22.85a.44.44,0,0,0,.28.55l.14,0a.44.44,0,0,0,.42-.3,13.38,13.38,0,1,0-25.43,0,.44.44,0,0,0,.42.3l.14,0a.44.44,0,0,0,.28-.56A12.5,12.5,0,0,1,19,6.47Z"/><path class="cls-2" d="M20.78,30.34H17.17a.68.68,0,0,0-.68.68,2.48,2.48,0,1,0,5,0A.68.68,0,0,0,20.78,30.34ZM19,33a2,2,0,0,1-2-2,.2.2,0,0,1,.2-.2h3.61a.2.2,0,0,1,.2.2A2,2,0,0,1,19,33Z"/><path class="cls-2" d="M20.49,26.58a.68.68,0,0,0,.68-.68,1.13,1.13,0,0,1,2.26,0,.68.68,0,0,0,1.35,0,2.48,2.48,0,0,0-5,0A.68.68,0,0,0,20.49,26.58Zm1.81-2.68a2,2,0,0,1,2,2,.2.2,0,0,1-.41,0,1.6,1.6,0,0,0-3.21,0,.2.2,0,1,1-.41,0A2,2,0,0,1,22.29,23.9Z"/><path class="cls-2" d="M34.4,21.71h.09a.68.68,0,0,0,.67-.59A16.47,16.47,0,0,0,35.3,19q0-.66-.05-1.31a.68.68,0,0,0-.66-.62h-.06a.68.68,0,0,0-.62.73q0,.59,0,1.2a15.22,15.22,0,0,1-.13,2A.68.68,0,0,0,34.4,21.71Zm0-4a.2.2,0,0,1,0-.15.21.21,0,0,1,.15-.07h0a.21.21,0,0,1,.19.19c0,.42,0,.85,0,1.27a16,16,0,0,1-.14,2.09.21.21,0,0,1-.22.17h0a.2.2,0,0,1-.17-.23,15.67,15.67,0,0,0,.13-2C34.42,18.55,34.4,18.13,34.37,17.73Z"/><path class="cls-2" d="M3.43,17H3.37a.67.67,0,0,0-.67.62q-.05.66-.05,1.34a16.33,16.33,0,0,0,.14,2.12.68.68,0,0,0,.67.59h.09a.68.68,0,0,0,.58-.76A15.08,15.08,0,0,1,4,19c0-.41,0-.83,0-1.23A.68.68,0,0,0,3.43,17Zm0,4.2a.2.2,0,0,1-.2-.18A15.87,15.87,0,0,1,3.12,19c0-.44,0-.88.05-1.3a.19.19,0,0,1,.19-.19h0a.2.2,0,0,1,.19.22c0,.42-.05.84-.05,1.27a15.55,15.55,0,0,0,.13,2A.21.21,0,0,1,3.45,21.21Z"/><path class="cls-2" d="M9.35,24.7v.91a2.22,2.22,0,0,0,1.36,2l.66.28V22.37l-.66.28A2.22,2.22,0,0,0,9.35,24.7Zm1.55,2.53a1.75,1.75,0,0,1-1.07-1.61V24.7a1.75,1.75,0,0,1,1.07-1.61Z"/><path class="cls-2" d="M12.52,5.39a.68.68,0,0,0,.28-.06,14.9,14.9,0,0,1,3-1A.68.68,0,0,0,15.68,3h-.14a16.3,16.3,0,0,0-3.29,1.08.68.68,0,0,0,.28,1.29Zm-.19-.75a.2.2,0,0,1,.11-.11,15.83,15.83,0,0,1,3.2-1.05h0a.2.2,0,0,1,.17.31.2.2,0,0,1-.13.09,15.37,15.37,0,0,0-3.12,1l-.08,0a.2.2,0,0,1-.19-.27Z"/><path class="cls-2" d="M18.07,31.22h-.95l.57.76a1.6,1.6,0,0,0,2.56,0l.57-.76H18.07Zm.9.93a1.13,1.13,0,0,1-.9-.45h1.81A1.13,1.13,0,0,1,19,32.14Z"/><path class="cls-2" d="M17.45,26.58a.68.68,0,0,0,.68-.68,2.48,2.48,0,0,0-5,0,.68.68,0,0,0,1.35,0,1.13,1.13,0,0,1,2.26,0A.68.68,0,0,0,17.45,26.58ZM15.65,24.3a1.6,1.6,0,0,0-1.6,1.6.2.2,0,1,1-.41,0,2,2,0,0,1,4,0,.2.2,0,0,1-.41,0A1.6,1.6,0,0,0,15.65,24.3Z"/><path class="cls-2" d="M6.14,29.06a.68.68,0,0,0,1.06-.84,15,15,0,0,1-.93-1.32.68.68,0,1,0-1.15.72A16.35,16.35,0,0,0,6.14,29.06Zm-.55-2a.21.21,0,0,1,.11,0,.2.2,0,0,1,.17.09,15.49,15.49,0,0,0,1,1.36.2.2,0,0,1,0,.29.2.2,0,0,1-.12,0,.2.2,0,0,1-.16-.08,15.84,15.84,0,0,1-1-1.4A.2.2,0,0,1,5.59,27.09Z"/><path class="cls-2" d="M19,6.71A12.26,12.26,0,0,1,30.62,22.78a.68.68,0,0,0,.43.85.69.69,0,0,0,.21,0,.68.68,0,0,0,.64-.47A13.61,13.61,0,1,0,6,23.2a.68.68,0,0,0,.64.47.7.7,0,0,0,.21,0,.68.68,0,0,0,.43-.85A12.26,12.26,0,0,1,19,6.71ZM6.24,19a12.69,12.69,0,0,0,.63,4,.2.2,0,0,1-.12.26H6.68a.2.2,0,0,1-.19-.14,13.14,13.14,0,1,1,25,0,.2.2,0,0,1-.19.14H31.2a.2.2,0,0,1-.13-.26A12.73,12.73,0,1,0,6.24,19Z"/><path class="cls-2" d="M33.25,11.06a16.39,16.39,0,0,0-2-2.84.68.68,0,0,0-1,.89,15.1,15.1,0,0,1,1.83,2.6.68.68,0,1,0,1.18-.66Zm-.49.51-.1,0a.2.2,0,0,1-.18-.1A15.58,15.58,0,0,0,30.6,8.8a.2.2,0,0,1,0-.29.2.2,0,0,1,.13,0,.2.2,0,0,1,.15.07,15.92,15.92,0,0,1,1.94,2.75A.2.2,0,0,1,32.76,11.56Z"/><path class="cls-2" d="M25.17,5.34a.68.68,0,0,0,.56-1.23A16.21,16.21,0,0,0,22.43,3l-.15,0a.68.68,0,0,0-.14,1.34A14.89,14.89,0,0,1,25.17,5.34Zm-3.07-1.7a.21.21,0,0,1,.2-.16h0a15.73,15.73,0,0,1,3.2,1.06.2.2,0,0,1-.08.39l-.08,0a15.37,15.37,0,0,0-3.11-1A.2.2,0,0,1,22.09,3.63Z"/><path class="cls-2" d="M5.89,11.69a15.13,15.13,0,0,1,1.84-2.6.68.68,0,0,0-1-.89,16.47,16.47,0,0,0-2,2.83.68.68,0,0,0,.26.92.67.67,0,0,0,.33.09A.68.68,0,0,0,5.89,11.69Zm-.79-.28a.2.2,0,0,1,0-.15A16,16,0,0,1,7.06,8.51a.2.2,0,0,1,.15-.07.2.2,0,0,1,.13.05.2.2,0,0,1,0,.29,15.61,15.61,0,0,0-1.89,2.68.2.2,0,0,1-.18.1l-.1,0A.2.2,0,0,1,5.1,11.41Z"/><path class="cls-2" d="M32.24,26.58a.68.68,0,0,0-.57.32,15.29,15.29,0,0,1-.93,1.32.68.68,0,1,0,1.06.84,16.33,16.33,0,0,0,1-1.44.68.68,0,0,0-.57-1Zm.17.78a15.85,15.85,0,0,1-1,1.4.2.2,0,0,1-.16.08.2.2,0,0,1-.12,0,.2.2,0,0,1,0-.28,15.77,15.77,0,0,0,1-1.36.2.2,0,0,1,.17-.09.2.2,0,0,1,.11,0A.2.2,0,0,1,32.41,27.37Z"/><path class="cls-2" d="M19,0A19,19,0,0,0,6.22,33a.68.68,0,0,0,.91-1,17.62,17.62,0,1,1,23.68,0,.68.68,0,0,0,.91,1A19,19,0,0,0,19,0ZM31.4,32.67a.2.2,0,0,1-.29,0,.2.2,0,0,1,0-.29,18.09,18.09,0,1,0-24.32,0,.2.2,0,1,1-.27.3,18.5,18.5,0,1,1,24.86,0Z"/><path class="cls-2" d="M27.23,22.65l-.66-.28v5.57l.66-.28a2.22,2.22,0,0,0,1.36-2V24.7A2.22,2.22,0,0,0,27.23,22.65Zm.89,3A1.75,1.75,0,0,1,27,27.22V23.09a1.75,1.75,0,0,1,1.07,1.61Z"/><path class="cls-2" d="M26.44,13.11a6.69,6.69,0,0,0-4.66-1.63,10.85,10.85,0,0,0-2.58.33,7.66,7.66,0,0,0-2.88,1.37l-1.16.91L16.63,14h.2l.55,0h.08a.2.2,0,0,1,.2.2.2.2,0,0,1-.2.2h-.12c-3.28,0-5.61.9-6.92,2.65a7.44,7.44,0,0,0-1.18,5.23l.09.84.67-.51a2.59,2.59,0,0,1,1-.48l.37-.08V20.63a.2.2,0,0,1,.06-.15.22.22,0,0,1,.15-.05s.48,0,1.23,0c1.68,0,4.75-.22,6.44-1.71a.2.2,0,0,1,.13,0h.07a25.83,25.83,0,0,0,6.92,1.7.2.2,0,0,1,.2.2v1.43l.37.08a2.59,2.59,0,0,1,1.1.55l.7.58.08-.9C29.19,18.06,28.37,14.86,26.44,13.11Zm1.9,9.21a3.08,3.08,0,0,0-1.3-.65v-1a.68.68,0,0,0-.66-.68,25.56,25.56,0,0,1-6.75-1.67.68.68,0,0,0-.25,0,.67.67,0,0,0-.45.17C17.38,19.78,14.45,20,12.82,20c-.7,0-1.17,0-1.19,0h-.06a.68.68,0,0,0-.68.68v1a3.07,3.07,0,0,0-1.19.56,7,7,0,0,1,1.09-4.9c1.23-1.63,3.44-2.46,6.59-2.46h.08a.68.68,0,0,0,0-1.35h-.08l-.77,0a7.17,7.17,0,0,1,2.71-1.29A10.38,10.38,0,0,1,21.78,12a6.32,6.32,0,0,1,4.34,1.51C27.95,15.12,28.7,18.16,28.34,22.32Z"/><path class="cls-2" d="M27,12.46a7.64,7.64,0,0,0-5.25-1.86A11.71,11.71,0,0,0,19,11a7.79,7.79,0,0,0-4.49,2.84,7.54,7.54,0,0,0-4.79,2.73C7.63,19.29,8.39,23,8.61,23.84a3.06,3.06,0,0,0-.14.86v.91a3.1,3.1,0,0,0,2.43,3v.68a8.08,8.08,0,1,0,16.15,0v-.68a3.1,3.1,0,0,0,2.43-3V24.7c0-.1,0-.2,0-.3a.65.65,0,0,0,0-.07C30.32,18.7,29.5,14.7,27,12.46Zm2,11.76,0,.06,0,.08v.2a.94.94,0,0,1,0,.13v.91a2.64,2.64,0,0,1-2.06,2.56l-.37.08v1.06a7.6,7.6,0,1,1-15.2,0V28.26L11,28.17a2.64,2.64,0,0,1-2.06-2.56V24.7A2.57,2.57,0,0,1,9.06,24l0-.12,0-.12c-.17-.69-.95-4.29,1-6.91a7.09,7.09,0,0,1,4.5-2.55l.18,0,.11-.15a7.31,7.31,0,0,1,4.22-2.66,11.19,11.19,0,0,1,2.68-.34,7.08,7.08,0,0,1,4.93,1.74C29,14.93,29.82,18.77,29,24.22Z"/><path class="cls-2" d="M19.68,19.24l-.24-.09-.21.15c-1.84,1.37-4.79,1.57-6.39,1.57h-.58l-.49,0v8.46a7.2,7.2,0,1,0,14.39,0V20.83l-.43,0A27.27,27.27,0,0,1,19.68,19.24Zm6,3v7a6.72,6.72,0,1,1-13.45,0v-8h.59c1.73,0,4.74-.23,6.67-1.67a27.36,27.36,0,0,0,6.18,1.58Z"/><path class="cls-2" d="M12.52,5.39a.68.68,0,0,0,.28-.06,14.9,14.9,0,0,1,3-1A.68.68,0,0,0,15.68,3h-.14a16.3,16.3,0,0,0-3.29,1.08.68.68,0,0,0,.28,1.29Zm-.41-.83a.44.44,0,0,1,.23-.25,16.07,16.07,0,0,1,3.25-1.07h.09a.44.44,0,0,1,.43.35.44.44,0,0,1-.34.52,15.13,15.13,0,0,0-3.07,1,.44.44,0,0,1-.59-.56Z"/><path class="cls-2" d="M20.49,26.58a.68.68,0,0,0,.68-.68,1.13,1.13,0,0,1,2.26,0,.68.68,0,0,0,1.35,0,2.48,2.48,0,0,0-5,0A.68.68,0,0,0,20.49,26.58Zm1.81-2.92a2.25,2.25,0,0,1,2.25,2.24.44.44,0,0,1-.88,0,1.37,1.37,0,0,0-2.73,0,.44.44,0,1,1-.88,0A2.25,2.25,0,0,1,22.29,23.66Z"/><path class="cls-2" d="M34.4,21.71h.09a.68.68,0,0,0,.67-.59A16.47,16.47,0,0,0,35.3,19q0-.66-.05-1.31a.68.68,0,0,0-.66-.62h-.06a.68.68,0,0,0-.62.73q0,.59,0,1.2a15.22,15.22,0,0,1-.13,2A.68.68,0,0,0,34.4,21.71ZM34.18,19c0-.41,0-.82,0-1.22a.44.44,0,0,1,.1-.32.44.44,0,0,1,.31-.15h0a.44.44,0,0,1,.43.41c0,.43.05.86.05,1.29a16.23,16.23,0,0,1-.14,2.12.44.44,0,0,1-.44.38h-.06A.44.44,0,0,1,34,21,15.46,15.46,0,0,0,34.18,19Z"/><path class="cls-2" d="M17.45,26.58a.68.68,0,0,0,.68-.68,2.48,2.48,0,0,0-5,0,.68.68,0,0,0,1.35,0,1.13,1.13,0,0,1,2.26,0A.68.68,0,0,0,17.45,26.58Zm-1.81-2a1.37,1.37,0,0,0-1.37,1.37.44.44,0,0,1-.88,0,2.25,2.25,0,0,1,4.49,0,.44.44,0,0,1-.88,0A1.37,1.37,0,0,0,15.65,24.54Z"/><path class="cls-2" d="M18.07,31.45h-.47l.28.38a1.36,1.36,0,0,0,2.18,0l.29-.38H18.07Zm.9.69a1.13,1.13,0,0,1-.9-.45h1.81A1.13,1.13,0,0,1,19,32.14Z"/><path class="cls-2" d="M9.59,24.7v.91a2,2,0,0,0,1.22,1.83l.33.14V22.73l-.33.14A2,2,0,0,0,9.59,24.7Zm1.31,2.53a1.75,1.75,0,0,1-1.07-1.61V24.7a1.75,1.75,0,0,1,1.07-1.61Z"/><path class="cls-2" d="M3.43,17H3.37a.67.67,0,0,0-.67.62q-.05.66-.05,1.34a16.33,16.33,0,0,0,.14,2.12.68.68,0,0,0,.67.59h.09a.68.68,0,0,0,.58-.76A15.08,15.08,0,0,1,4,19c0-.41,0-.83,0-1.23A.68.68,0,0,0,3.43,17Zm.08,4.43H3.45A.44.44,0,0,1,3,21.06,16.09,16.09,0,0,1,2.88,19c0-.44,0-.89.05-1.32a.43.43,0,0,1,.43-.4h0a.44.44,0,0,1,.4.47c0,.41-.05.83-.05,1.25a15.32,15.32,0,0,0,.13,2A.44.44,0,0,1,3.51,21.44Z"/><path class="cls-2" d="M20.78,30.34H17.17a.68.68,0,0,0-.68.68,2.48,2.48,0,1,0,5,0A.68.68,0,0,0,20.78,30.34ZM19,33.26A2.25,2.25,0,0,1,16.73,31a.44.44,0,0,1,.44-.44h3.61a.44.44,0,0,1,.44.44A2.25,2.25,0,0,1,19,33.26Z"/><path class="cls-2" d="M19,6.71A12.26,12.26,0,0,1,30.62,22.78a.68.68,0,0,0,.43.85.69.69,0,0,0,.21,0,.68.68,0,0,0,.64-.47A13.61,13.61,0,1,0,6,23.2a.68.68,0,0,0,.64.47.7.7,0,0,0,.21,0,.68.68,0,0,0,.43-.85A12.26,12.26,0,0,1,19,6.71ZM6.47,19a12.46,12.46,0,0,0,.62,3.88.44.44,0,0,1-.28.55l-.14,0a.44.44,0,0,1-.42-.3,13.38,13.38,0,1,1,25.43,0,.44.44,0,0,1-.42.3l-.14,0a.44.44,0,0,1-.28-.56A12.5,12.5,0,1,0,6.47,19Z"/><path class="cls-2" d="M33.25,11.06a16.39,16.39,0,0,0-2-2.84.68.68,0,0,0-1,.89,15.1,15.1,0,0,1,1.83,2.6.68.68,0,1,0,1.18-.66Zm-.59.77a.44.44,0,0,1-.39-.23A15.34,15.34,0,0,0,30.42,9a.44.44,0,0,1,0-.62.43.43,0,0,1,.29-.11.44.44,0,0,1,.33.15,16.16,16.16,0,0,1,2,2.8.44.44,0,0,1-.38.65Z"/><path class="cls-2" d="M6.14,29.06a.68.68,0,0,0,1.06-.84,15,15,0,0,1-.93-1.32.68.68,0,1,0-1.15.72A16.35,16.35,0,0,0,6.14,29.06Zm-.68-2.17a.45.45,0,0,1,.23-.07.44.44,0,0,1,.37.21A15.26,15.26,0,0,0,7,28.37a.44.44,0,0,1-.07.62.43.43,0,0,1-.27.09.44.44,0,0,1-.35-.17,16.08,16.08,0,0,1-1-1.42A.44.44,0,0,1,5.47,26.89Z"/><path class="cls-2" d="M25.17,5.34a.68.68,0,0,0,.56-1.23A16.21,16.21,0,0,0,22.43,3l-.15,0a.68.68,0,0,0-.14,1.34A14.89,14.89,0,0,1,25.17,5.34ZM21.86,3.58a.44.44,0,0,1,.43-.35h.1a16,16,0,0,1,3.24,1.07.44.44,0,1,1-.36.8,15.14,15.14,0,0,0-3.07-1A.44.44,0,0,1,21.86,3.58Z"/><path class="cls-2" d="M5.89,11.69a15.13,15.13,0,0,1,1.84-2.6.68.68,0,0,0-1-.89,16.47,16.47,0,0,0-2,2.83.68.68,0,0,0,.26.92.67.67,0,0,0,.33.09A.68.68,0,0,0,5.89,11.69Zm-1-.21a.44.44,0,0,1,0-.33,16.22,16.22,0,0,1,2-2.79.44.44,0,1,1,.66.58,15.36,15.36,0,0,0-1.86,2.64.44.44,0,0,1-.38.23.44.44,0,0,1-.42-.32Z"/><path class="cls-2" d="M19.59,19.46l-.12,0-.1.08c-1.89,1.41-4.9,1.62-6.53,1.62H12v8.22a7,7,0,1,0,13.92,0V21l-.21,0A26.91,26.91,0,0,1,19.59,19.46Zm6.1,2.81v7a6.72,6.72,0,1,1-13.45,0v-8h.59c1.73,0,4.74-.23,6.67-1.67a27.36,27.36,0,0,0,6.18,1.58Z"/><path class="cls-2" d="M27.14,22.87l-.33-.14v4.85l.33-.14a2,2,0,0,0,1.22-1.83V24.7A2,2,0,0,0,27.14,22.87Zm1,2.75A1.75,1.75,0,0,1,27,27.22V23.09a1.75,1.75,0,0,1,1.07,1.61Z"/><path class="cls-2" d="M27,12.46a7.64,7.64,0,0,0-5.25-1.86A11.71,11.71,0,0,0,19,11a7.79,7.79,0,0,0-4.49,2.84,7.54,7.54,0,0,0-4.79,2.73C7.63,19.29,8.39,23,8.61,23.84a3.06,3.06,0,0,0-.14.86v.91a3.1,3.1,0,0,0,2.43,3v.68a8.08,8.08,0,1,0,16.15,0v-.68a3.1,3.1,0,0,0,2.43-3V24.7c0-.1,0-.2,0-.3a.65.65,0,0,0,0-.07C30.32,18.7,29.5,14.7,27,12.46Zm2.17,12v.11a1.2,1.2,0,0,1,0,.16v.91A2.88,2.88,0,0,1,27,28.4l-.19,0v.87a7.84,7.84,0,1,1-15.68,0v-.87l-.19,0a2.88,2.88,0,0,1-2.24-2.79V24.7a2.8,2.8,0,0,1,.13-.8l0-.06,0-.06c-.18-.71-1-4.4,1.06-7.11A7.32,7.32,0,0,1,14.54,14l.09,0,.05-.08A7.55,7.55,0,0,1,19,11.18a11.43,11.43,0,0,1,2.74-.34,7.31,7.31,0,0,1,5.09,1.8c2.4,2.18,3.2,6.11,2.36,11.64l0,.06v.08Z"/><path class="cls-2" d="M19,0A19,19,0,0,0,6.22,33a.68.68,0,0,0,.91-1,17.62,17.62,0,1,1,23.68,0,.68.68,0,0,0,.91,1A19,19,0,0,0,19,0ZM31.56,32.84a.44.44,0,1,1-.59-.65,17.85,17.85,0,1,0-24,0,.44.44,0,1,1-.59.65,18.73,18.73,0,1,1,25.18,0Z"/><path class="cls-2" d="M21.78,11.72a10.6,10.6,0,0,0-2.53.32,7.42,7.42,0,0,0-2.79,1.33l-.58.46.74,0h.2l.57,0h.08a.44.44,0,0,1,0,.88h-.08c-3.22,0-5.5.86-6.78,2.56a7.21,7.21,0,0,0-1.13,5.07l0,.42.34-.26a2.83,2.83,0,0,1,1.1-.52l.19,0V20.63a.44.44,0,0,1,.44-.44h0s.48,0,1.21,0c1.65,0,4.65-.21,6.28-1.65a.44.44,0,0,1,.45-.08,25.56,25.56,0,0,0,6.83,1.69.44.44,0,0,1,.43.44v1.24l.19,0a2.82,2.82,0,0,1,1.2.6l.35.29,0-.45c.37-4.23-.43-7.36-2.3-9.06A6.46,6.46,0,0,0,21.78,11.72Zm6.56,10.61a3.08,3.08,0,0,0-1.3-.65v-1a.68.68,0,0,0-.66-.68,25.56,25.56,0,0,1-6.75-1.67.68.68,0,0,0-.25,0,.67.67,0,0,0-.45.17C17.38,19.78,14.45,20,12.82,20c-.7,0-1.17,0-1.19,0h-.06a.68.68,0,0,0-.68.68v1a3.07,3.07,0,0,0-1.19.56,7,7,0,0,1,1.09-4.9c1.23-1.63,3.44-2.46,6.59-2.46h.08a.68.68,0,0,0,0-1.35h-.08l-.77,0a7.17,7.17,0,0,1,2.71-1.29A10.38,10.38,0,0,1,21.78,12a6.32,6.32,0,0,1,4.34,1.51C27.95,15.12,28.7,18.16,28.34,22.32Z"/><path class="cls-2" d="M32.24,26.58a.68.68,0,0,0-.57.32,15.29,15.29,0,0,1-.93,1.32.68.68,0,1,0,1.06.84,16.33,16.33,0,0,0,1-1.44.68.68,0,0,0-.57-1Zm.37.91a16.1,16.1,0,0,1-1,1.42.44.44,0,1,1-.69-.54A15.5,15.5,0,0,0,31.87,27a.44.44,0,0,1,.74.47Z"/></g></g></svg>