<svg xmlns="http://www.w3.org/2000/svg" width="30" height="30" viewBox="0 0 55 47"><defs><style>.cls-1{fill:#8a92a6;}</style></defs><title>Asset 1</title><g id="Layer_2" data-name="Layer 2"><g id="Layer_1-2" data-name="Layer 1"><path class="cls-1" d="M53.07,3.25,36.89.5A6.68,6.68,0,0,0,35.62.38h-.26a7.46,7.46,0,0,0-3.36,1,8.09,8.09,0,0,0-.73.47l-.08.06-.3.24-3.71,3L26.94,5a.51.51,0,0,0-.3-.12.52.52,0,0,0-.37.15L5.3,26a.52.52,0,0,0,0,.73l.56.56L2.14,31a.52.52,0,0,0,0,.73l.5.5L.53,34.33a.53.53,0,0,0-.15.37.52.52,0,0,0,.15.37l2.7,2.7a.52.52,0,0,0,.73,0l2.11-2.11.5.5a.52.52,0,0,0,.73,0L11,32.43l.56.56a.52.52,0,0,0,.73,0l1.37-1.37,8.24,4.32a2.22,2.22,0,0,0,1,.25,2.18,2.18,0,0,0,1.55-.65L35.24,24.84a2.21,2.21,0,0,0,.45-2.46l-3.87-8.54-.1-.23L33.31,12a.48.48,0,0,0,.06-.62l-.15-.25,3.91-3.91,15.71-.62a1.69,1.69,0,0,0,1.31-2.67A1.68,1.68,0,0,0,53.07,3.25ZM3.6,36.66l-2-2L3.37,33l2,2Zm3.34-1.61-3.7-3.7L6.6,28l3.7,3.7Zm23.7-21.83a.52.52,0,0,0,0,.73,1.16,1.16,0,0,1,.24.34l3.86,8.51a1.17,1.17,0,0,1-.24,1.3L23.79,34.82a1.16,1.16,0,0,1-.82.34,1.19,1.19,0,0,1-.54-.13l-8.11-4.26a1.2,1.2,0,0,1-.28-.21.52.52,0,0,0-.73,0L12,31.89,6.4,26.33,26.64,6.09l5.56,5.56ZM52.81,5.57,36.89,6.2a.52.52,0,0,0-.34.15l-4.09,4.09L27.9,5.88l2-1.6,1.7-1.38.2-.16.1-.08a7,7,0,0,1,.65-.42,6.53,6.53,0,0,1,1.41-.58,6.42,6.42,0,0,1,1.49-.24h.21a6.08,6.08,0,0,1,1.06.09L52.89,4.27a.65.65,0,0,1-.08,1.29Z"/><path class="cls-1" d="M15.59,28.57a.52.52,0,0,0,.27.38l6.55,3.44a.53.53,0,0,0,.24.06A.52.52,0,0,0,23,32.3l9-9a.52.52,0,0,0,.11-.58L29,15.83a.56.56,0,0,0-.47-.3.52.52,0,0,0-.37.15L15.73,28.12A.52.52,0,0,0,15.59,28.57Zm9.58-8.41.4,2.08-3.49,3.66-2.32-.34Zm-6.31,6.31,3.42.5a.52.52,0,0,0,.38-.16l3.86-4a.52.52,0,0,0,.13-.46l-.59-3,2.33-2.33L31,22.81l-8.49,8.49L17,28.36Z"/><path class="cls-1" d="M8.72,29.58,7.13,28l-.53-.53L6.07,28,3.24,30.82l-.53.53.53.53.23.23,2.7,2.71.23.23.53.53.53-.53,2.82-2.82.53-.53-.53-.53ZM6.94,34.52l-.23-.23h0L4,31.58H4l-.23-.23L6.6,28.53l1.58,1.58L9.77,31.7Z"/><path class="cls-1" d="M53.13,2.88,37,.13A7.07,7.07,0,0,0,35.62,0h-.27a7.84,7.84,0,0,0-3.53,1,8.19,8.19,0,0,0-.78.51l-.07,0-.31.24L27.17,4.65a.89.89,0,0,0-.52-.19.9.9,0,0,0-.63.26L5,25.7A.9.9,0,0,0,5,27l.3.3L1.88,30.72a.9.9,0,0,0,0,1.27l.23.23L.26,34.06a.9.9,0,0,0,0,1.27L3,38a.9.9,0,0,0,1.27,0l1.84-1.84.23.23a.9.9,0,0,0,1.27,0L11,33l.3.3a.9.9,0,0,0,1.27,0l1.18-1.18,8,4.19a2.57,2.57,0,0,0,3-.46L35.5,25.11A2.59,2.59,0,0,0,36,22.22L32.16,13.7l1.41-1.41a.9.9,0,0,0,.26-.63.88.88,0,0,0-.14-.45l3.6-3.6L52.86,7a2.07,2.07,0,0,0,.27-4.1Zm-.3,3.35-15.57.62H37l-.21.21-3.6,3.6-.42.42.3.5,0,.07h0a.14.14,0,0,1,0,.1l-1.41,1.41-.36.36.21.47,3.87,8.54a1.83,1.83,0,0,1-.37,2L24.26,35.28a1.81,1.81,0,0,1-1.29.54,1.84,1.84,0,0,1-.85-.21l-8-4.19-.49-.26-.39.39-1.18,1.18a.14.14,0,0,1-.2,0l-.3-.3L11,31.9l-.53.53L7,35.89a.14.14,0,0,1-.2,0l-.23-.23-.53-.53-.53.53L3.7,37.5a.14.14,0,0,1-.2,0L.8,34.79a.14.14,0,0,1,0-.1.14.14,0,0,1,0-.1l1.84-1.84.53-.53-.53-.53-.23-.23a.14.14,0,0,1,0-.2L5.87,27.8l.53-.53-.53-.53-.3-.3a.14.14,0,0,1,0-.2l21-21a.14.14,0,0,1,.1,0,.21.21,0,0,1,.08,0l.47.35.45-.37,3.5-2.85.27-.22h0l.06,0h0a7.44,7.44,0,0,1,.71-.46A7.08,7.08,0,0,1,35.39.76h.23A6.41,6.41,0,0,1,36.8.86h.05L53,3.62a1.31,1.31,0,0,1-.17,2.61Z"/><path class="cls-1" d="M3.91,33l-.53-.53L2.84,33,1.63,34.16l-.53.53.53.53,1.44,1.44.53.53.53-.53,1.21-1.21.53-.53-.53-.53ZM3.6,36.13,2.17,34.69l1.21-1.21,1.44,1.44Z"/><path class="cls-1" d="M27.78,6.69l-.6-.6-.53-.53-.53.53L6.4,25.8l-.53.53.53.53,5,5,.53.53.53-.53,1.07-1.06a.14.14,0,0,1,.1,0,.14.14,0,0,1,.1,0,1.58,1.58,0,0,0,.37.27l8.12,4.26a1.56,1.56,0,0,0,.71.17,1.53,1.53,0,0,0,1.09-.45L34.77,24.37a1.55,1.55,0,0,0,.31-1.72l-3.86-8.51a1.53,1.53,0,0,0-.32-.45.14.14,0,0,1,0-.2l1.3-1.3.53-.53-.53-.53ZM30.37,13a.9.9,0,0,0,0,1.27.79.79,0,0,1,.16.23L34.39,23a.79.79,0,0,1-.16.88L23.52,34.55a.78.78,0,0,1-.55.23.8.8,0,0,1-.37-.09l-8.11-4.26a.82.82,0,0,1-.19-.14.9.9,0,0,0-1.27,0L12,31.36l-5-5L26.64,6.63l.6.6,4.43,4.43Z"/><path class="cls-1" d="M53,3.9,36.78,1.15A6.46,6.46,0,0,0,35.62,1H35.4a6.8,6.8,0,0,0-3.08.87,7.16,7.16,0,0,0-.68.44l-.08.06-.22.17L29.64,4,28,5.32l-.65.53.59.59,4,4,.53.53.53-.53,3.82-3.82a.14.14,0,0,1,.09,0l15.92-.63a1,1,0,0,0,1-.85A1,1,0,0,0,53,3.9Zm-.16,1.29-15.92.63a.89.89,0,0,0-.6.26L32.46,9.9l-4-4,1.65-1.34,1.7-1.39L32,3l.05,0a6.4,6.4,0,0,1,.61-.39,6.05,6.05,0,0,1,2.73-.77h.18a5.82,5.82,0,0,1,1,.09L52.83,4.65a.27.27,0,0,1,0,.54Z"/><path class="cls-1" d="M15.21,28.63a.9.9,0,0,0,.47.66l6.55,3.44a.9.9,0,0,0,1.05-.16l9-9a.9.9,0,0,0,.18-1l-3.12-6.88a.9.9,0,0,0-.66-.51h-.16a.9.9,0,0,0-.63.26L15.47,27.86A.9.9,0,0,0,15.21,28.63Zm.79-.24L28.45,15.94a.14.14,0,0,1,.1,0h0a.14.14,0,0,1,.1.08l3.12,6.88a.14.14,0,0,1,0,.16l-9,9a.14.14,0,0,1-.1,0l-.07,0L16,28.62a.14.14,0,0,1-.08-.1A.14.14,0,0,1,16,28.39Z"/><path class="cls-1" d="M21.84,26.24l.39.06L22.5,26l3.22-3.37.27-.28L25.91,22l-.23-1.19-.27-1.39-1,1L20,24.76,19,25.82l1.48.22Zm3.09-5.31.23,1.19L22,25.49l-1.38-.2Z"/><path class="cls-1" d="M22.14,31.5l.49.26.39-.39,8.1-8.1.37-.37-.22-.48L29,17.28l-.45-1-.77.77-1.8,1.8-.28.28.08.39.55,2.84a.14.14,0,0,1,0,.13l-3.86,4a.14.14,0,0,1-.1,0h0l-3.16-.47-.38-.06-.27.27-1.39,1.39-.73.73.91.48ZM19,26.87l3.16.47h.13a.89.89,0,0,0,.65-.28l3.86-4a.9.9,0,0,0,.23-.79l-.55-2.84,1.8-1.8,2.32,5.13-8.1,8.1L17.6,28.26Z"/><path class="cls-1" d="M3.64,33.22,3.37,33l-.27.27L1.9,34.43l-.27.27L1.9,35,3.34,36.4l.27.27.27-.27,1.21-1.21.27-.27-.27-.27Zm0,2.91L2.17,34.69l1.21-1.21,1.44,1.44Z"/><path class="cls-1" d="M8.45,29.85,6.87,28.26,6.6,28l-.27.27L3.51,31.09l-.27.27.27.27.23.23,2.7,2.71.23.23.27.27.27-.27L10,32l.27-.27L10,31.43ZM6.94,34.52l-.23-.23h0L4,31.58H4l-.23-.23L6.6,28.53l1.58,1.58L9.77,31.7Z"/><path class="cls-1" d="M52.89,4.27,36.7,1.52a6.1,6.1,0,0,0-1.08-.1h-.2a6.42,6.42,0,0,0-2.91.82,6.83,6.83,0,0,0-.65.42l-.08.06-.21.16-1.7,1.39L28.22,5.62l-.33.26.3.3,4,4,.27.27.27-.27,3.82-3.82a.52.52,0,0,1,.35-.15l15.92-.63a.65.65,0,0,0,.51-1A.65.65,0,0,0,52.89,4.27Zm-.1.92-15.92.63a.89.89,0,0,0-.6.26L32.46,9.9l-4-4,1.65-1.34,1.7-1.39L32,3l.05,0a6.4,6.4,0,0,1,.61-.39,6.05,6.05,0,0,1,2.73-.77h.18a5.82,5.82,0,0,1,1,.09L52.83,4.65a.27.27,0,0,1,0,.54Z"/><path class="cls-1" d="M53.13,2.88,37,.13A7.07,7.07,0,0,0,35.62,0h-.27a7.84,7.84,0,0,0-3.53,1,8.19,8.19,0,0,0-.78.51l-.07,0-.31.24L27.17,4.65a.89.89,0,0,0-.52-.19.9.9,0,0,0-.63.26L5,25.7A.9.9,0,0,0,5,27l.3.3L1.88,30.72a.9.9,0,0,0,0,1.27l.23.23L.26,34.06a.9.9,0,0,0,0,1.27L3,38a.9.9,0,0,0,1.27,0l1.84-1.84.23.23a.9.9,0,0,0,1.27,0L11,33l.3.3a.9.9,0,0,0,1.27,0l1.18-1.18,8,4.19a2.57,2.57,0,0,0,3-.46L35.5,25.11A2.59,2.59,0,0,0,36,22.22L32.16,13.7l1.41-1.41a.9.9,0,0,0,.26-.63.88.88,0,0,0-.14-.45l3.6-3.6L52.86,7a2.07,2.07,0,0,0,.27-4.1ZM54.45,5.2a1.7,1.7,0,0,1-1.6,1.4l-15.57.62h-.15l-.1.1-3.6,3.6-.21.21.15.25a.48.48,0,0,1-.06.63L31.9,13.43l-.18.18.1.24,3.87,8.53a2.21,2.21,0,0,1-.45,2.47L24.53,35.55A2.18,2.18,0,0,1,23,36.2a2.22,2.22,0,0,1-1-.25l-8-4.19-.25-.13-.2.2L12.33,33a.52.52,0,0,1-.73,0l-.3-.3L11,32.43l-.27.27L7.31,36.15a.52.52,0,0,1-.73,0l-.23-.23-.27-.27-.27.27L4,37.77a.52.52,0,0,1-.73,0l-2.7-2.7a.52.52,0,0,1-.15-.37.52.52,0,0,1,.15-.37l1.84-1.84.27-.27L2.37,32l-.23-.23a.52.52,0,0,1,0-.73L5.6,27.53l.27-.27L5.6,27l-.3-.3a.52.52,0,0,1,0-.73l21-21a.48.48,0,0,1,.67,0l.24.17.23-.18L30.9,2.1l.27-.21.09-.06h0A7.82,7.82,0,0,1,32,1.34a7.46,7.46,0,0,1,3.37-1h.25A6.76,6.76,0,0,1,36.91.5L53.07,3.25a1.69,1.69,0,0,1,1.38,2Z"/><path class="cls-1" d="M27.51,7l-.6-.6-.27-.27-.27.27L6.67,26.06l-.27.27.27.27,5,5,.27.27.27-.27,1.07-1.06a.52.52,0,0,1,.74,0,1.2,1.2,0,0,0,.28.21L22.43,35a1.18,1.18,0,0,0,.54.13,1.15,1.15,0,0,0,.82-.34L34.5,24.11a1.17,1.17,0,0,0,.24-1.3l-3.86-8.51a1.16,1.16,0,0,0-.24-.34.52.52,0,0,1,0-.73l1.3-1.3.27-.27-.27-.27Zm2.86,6a.9.9,0,0,0,0,1.27.79.79,0,0,1,.16.23L34.39,23a.79.79,0,0,1-.16.88L23.52,34.55a.78.78,0,0,1-.55.23.8.8,0,0,1-.37-.09l-8.11-4.26a.82.82,0,0,1-.19-.14.9.9,0,0,0-1.27,0L12,31.36l-5-5L26.64,6.63l.6.6,4.43,4.43Z"/><path class="cls-1" d="M15.21,28.63a.9.9,0,0,0,.47.66l6.55,3.44a.9.9,0,0,0,1.05-.16l9-9a.9.9,0,0,0,.18-1l-3.12-6.88a.9.9,0,0,0-.66-.51h-.16a.9.9,0,0,0-.63.26L15.47,27.86A.9.9,0,0,0,15.21,28.63Zm.52-.5L28.18,15.68a.52.52,0,0,1,.37-.15h.09a.52.52,0,0,1,.38.3l3.12,6.88a.52.52,0,0,1-.11.58l-9,9a.52.52,0,0,1-.61.09L15.86,29a.52.52,0,0,1-.13-.83Z"/><path class="cls-1" d="M22.31,31.16l.25.13.2-.2,8.1-8.1.18-.18-.11-.24-2.32-5.13-.22-.5-.39.39-1.8,1.8-.14.14,0,.2.55,2.84a.52.52,0,0,1-.13.46l-3.86,4a.52.52,0,0,1-.38.16H22.2L19,26.5l-.19,0-.13.13L17.33,28l-.36.36.45.24ZM19,26.87l3.16.47h.13a.89.89,0,0,0,.65-.28l3.86-4a.9.9,0,0,0,.23-.79l-.55-2.84,1.8-1.8,2.32,5.13-8.1,8.1L17.6,28.26Z"/><path class="cls-1" d="M21.9,25.87l.19,0,.13-.14,3.22-3.37.13-.14,0-.19-.23-1.19-.14-.7-.5.5L20.3,25l-.53.53.74.11Zm3-4.94.23,1.19L22,25.49l-1.38-.2Z"/></g></g></svg>