<svg xmlns="http://www.w3.org/2000/svg" width="30" height="30" viewBox="0 0 43.22 53.15"><defs><style>.cls-1{fill:#8a92a6;}</style></defs><title>Asset 2</title><g id="Layer_2" data-name="Layer 2"><g id="Layer_1-2" data-name="Layer 1"><path class="cls-1" d="M26.67,21.87H13.85a.52.52,0,0,0-.52.52v3.39a.52.52,0,0,0,.52.52H26.67a.52.52,0,0,0,.52-.52V22.39A.52.52,0,0,0,26.67,21.87Zm-.52,3.39H14.37V22.91H26.15Z"/><path class="cls-1" d="M25.62,11.71A.52.52,0,0,0,26,11.5l.53-.72a.52.52,0,0,0-.42-.83.52.52,0,0,0-.42.21l-.53.72a.52.52,0,0,0,.42.83Z"/><path class="cls-1" d="M22.66,30.2h-4.8a.52.52,0,1,0,0,1h4.8a.52.52,0,1,0,0-1Z"/><path class="cls-1" d="M29.76,6.5h-19a.52.52,0,0,0-.52.52V17.77a.52.52,0,0,0,.52.52h19a.52.52,0,0,0,.52-.52V7A.52.52,0,0,0,29.76,6.5Zm-.52,10.75H21.3l2.08-2.77a.52.52,0,0,0-.83-.63L20,17.25H11.28V7.54h18Z"/><path class="cls-1" d="M20.26,11.71a.52.52,0,0,0,.52-.52V10a.52.52,0,0,0-1,0v1.21A.52.52,0,0,0,20.26,11.71Z"/><path class="cls-1" d="M39.43,12.29l-.32-.05V10.52A.52.52,0,0,0,38.7,10l-4.57-.93V4.67A4.29,4.29,0,0,0,29.83.38H10.68A4.29,4.29,0,0,0,6.39,4.67V41.55H5.29a2.2,2.2,0,0,0-2.2,2.2v8H.9a.52.52,0,1,0,0,1H39.62a.52.52,0,1,0,0-1H37.42v-8a2.2,2.2,0,0,0-2.2-2.2h-1.1v-19l.48.13a3,3,0,0,1,2.23,2.92V32a3,3,0,0,0,6,0V16.3A4.06,4.06,0,0,0,39.43,12.29Zm-32-7.62a3.26,3.26,0,0,1,3.25-3.25H29.83a3.26,3.26,0,0,1,3.25,3.25V41.55H7.43Zm29,47.06H4.13V48H36.38Zm-1.16-9.14a1.16,1.16,0,0,1,1.16,1.16V47H4.13V43.75a1.16,1.16,0,0,1,1.16-1.16Zm-1.1-32.44,4,.8v3.58l-4,.8ZM41.81,32a2,2,0,1,1-3.94,0V25.57a4.06,4.06,0,0,0-3.43-4l-.32-.05V16.39l4.57-.93a.52.52,0,0,0,.42-.51V13.25l.48.14a3.05,3.05,0,0,1,2.21,2.91Z"/><path class="cls-1" d="M14.48,11.5a.52.52,0,0,0,.83-.62l-.53-.72a.52.52,0,1,0-.84.62Z"/><path class="cls-1" d="M25.62,12.09a.89.89,0,0,0,.72-.37l.53-.72a.9.9,0,1,0-1.44-1.06l-.53.72a.9.9,0,0,0,.72,1.43Zm-.11-1,.53-.72a.14.14,0,0,1,.11-.06.14.14,0,0,1,.08,0,.14.14,0,0,1,0,.2l-.53.72a.14.14,0,0,1-.11.06.14.14,0,0,1-.08,0,.14.14,0,0,1,0-.2Z"/><path class="cls-1" d="M26.67,21.49H13.85a.9.9,0,0,0-.9.9v3.39a.9.9,0,0,0,.9.9H26.67a.9.9,0,0,0,.9-.9V22.39A.9.9,0,0,0,26.67,21.49Zm.14,4.29a.14.14,0,0,1-.14.14H13.85a.14.14,0,0,1-.14-.14V22.39a.14.14,0,0,1,.14-.14H26.67a.14.14,0,0,1,.14.14Z"/><path class="cls-1" d="M39.49,11.92V10.52a.9.9,0,0,0-.72-.88L34.5,8.78V4.67A4.67,4.67,0,0,0,29.83,0H10.68A4.67,4.67,0,0,0,6,4.67V41.17H5.29a2.58,2.58,0,0,0-2.57,2.57v7.61H.9a.9.9,0,1,0,0,1.79H39.62a.9.9,0,1,0,0-1.79H37.8V43.75a2.58,2.58,0,0,0-2.57-2.57H34.5V23a2.66,2.66,0,0,1,2,2.55V32a3.38,3.38,0,1,0,6.77,0V16.3A4.45,4.45,0,0,0,39.49,11.92Zm3,20a2.63,2.63,0,1,1-5.26,0V25.57a3.43,3.43,0,0,0-2.5-3.28l-1-.27v19.9h1.48A1.82,1.82,0,0,1,37,43.75v8.36h2.57a.14.14,0,0,1,0,.28H.9a.14.14,0,0,1,0-.28H3.47V43.75a1.82,1.82,0,0,1,1.82-1.82H6.77V4.67A3.92,3.92,0,0,1,10.68.75H29.83a3.92,3.92,0,0,1,3.91,3.91V9.4l.6.12,4.27.87a.14.14,0,0,1,.11.14v2l.63.1a3.68,3.68,0,0,1,3.1,3.64Z"/><path class="cls-1" d="M4.51,47.66H3.75v4.45h33V47.66H4.51ZM36,51.35H4.51V48.41H36Z"/><path class="cls-1" d="M22.66,29.82h-4.8a.9.9,0,0,0,0,1.79h4.8a.9.9,0,1,0,0-1.79Zm0,1h-4.8a.14.14,0,0,1,0-.28h4.8a.14.14,0,0,1,0,.28Z"/><path class="cls-1" d="M14.74,22.53H14v3.11H26.53V22.53H14.74Zm11,2.35h-11v-1.6h11Z"/><path class="cls-1" d="M39.7,13l-1-.27V15a.14.14,0,0,1-.11.14L34.35,16l-.6.12v5.74l.63.1a3.68,3.68,0,0,1,3.11,3.64V32a2.35,2.35,0,1,0,4.69,0V16.3A3.43,3.43,0,0,0,39.7,13ZM41.43,32a1.59,1.59,0,1,1-3.18,0V25.57a4.45,4.45,0,0,0-3.75-4.39V16.7l4.27-.87a.9.9,0,0,0,.72-.88V13.75a2.66,2.66,0,0,1,1.94,2.55Z"/><path class="cls-1" d="M6.91,42.21H5.29a1.54,1.54,0,0,0-1.54,1.54v3.63h33V43.75a1.54,1.54,0,0,0-1.54-1.54H6.91ZM36,43.75v2.87H4.51V43.75A.78.78,0,0,1,5.29,43H35.23A.78.78,0,0,1,36,43.75Z"/><path class="cls-1" d="M11.65,7.17H10.9V17.63h9.29l.23-.3,2.44-3.24A.14.14,0,0,1,23,14a.14.14,0,0,1,.08,0,.14.14,0,0,1,0,.2l-1.63,2.16-.91,1.21h9.07V7.17h-18Zm17.21,9.71H22.06l1.63-2.16a.9.9,0,0,0-1.43-1.08l-2.44,3.24H11.65v-9H28.86Z"/><path class="cls-1" d="M32.71,41.93h.75V4.67A3.63,3.63,0,0,0,29.83,1H10.68A3.63,3.63,0,0,0,7.05,4.67V41.93H32.71ZM7.81,4.67a2.88,2.88,0,0,1,2.87-2.87H29.83a2.88,2.88,0,0,1,2.87,2.87V41.17H7.81Z"/><path class="cls-1" d="M29.76,6.13h-19a.9.9,0,0,0-.9.9V17.77a.9.9,0,0,0,.9.9h19a.9.9,0,0,0,.9-.9V7A.9.9,0,0,0,29.76,6.13Zm.14,11.64a.14.14,0,0,1-.14.14h-19a.14.14,0,0,1-.14-.14V7a.14.14,0,0,1,.14-.14h19A.14.14,0,0,1,29.9,7Z"/><path class="cls-1" d="M37.85,15l.6-.12v-4.2l-.6-.12-3.2-.65-.9-.18V15.8l.9-.18ZM34.5,10.61l3.2.65v3l-3.2.65Z"/><path class="cls-1" d="M20.26,12.09a.9.9,0,0,0,.9-.9V10a.9.9,0,1,0-1.79,0v1.21A.9.9,0,0,0,20.26,12.09ZM20.12,10a.14.14,0,1,1,.28,0v1.21a.14.14,0,1,1-.28,0Z"/><path class="cls-1" d="M14.18,11.72a.9.9,0,0,0,1.44-1.06l-.53-.72A.9.9,0,1,0,13.65,11Zm.11-1.36a.14.14,0,0,1,.08,0,.14.14,0,0,1,.11.06l.53.72a.14.14,0,0,1,0,.1.14.14,0,0,1-.06.09.13.13,0,0,1-.08,0,.14.14,0,0,1-.11-.06l-.53-.72a.14.14,0,0,1,0-.1A.14.14,0,0,1,14.29,10.36Z"/><path class="cls-1" d="M22.66,29.82h-4.8a.9.9,0,0,0,0,1.79h4.8a.9.9,0,1,0,0-1.79Zm0,1.42h-4.8a.52.52,0,0,1,0-1h4.8a.52.52,0,0,1,0,1Z"/><path class="cls-1" d="M26.67,21.49H13.85a.9.9,0,0,0-.9.9v3.39a.9.9,0,0,0,.9.9H26.67a.9.9,0,0,0,.9-.9V22.39A.9.9,0,0,0,26.67,21.49Zm.52,4.29a.52.52,0,0,1-.52.52H13.85a.52.52,0,0,1-.52-.52V22.39a.52.52,0,0,1,.52-.52H26.67a.52.52,0,0,1,.52.52Z"/><path class="cls-1" d="M39.49,11.92V10.52a.9.9,0,0,0-.72-.88L34.5,8.78V4.67A4.67,4.67,0,0,0,29.83,0H10.68A4.67,4.67,0,0,0,6,4.67V41.17H5.29a2.58,2.58,0,0,0-2.57,2.57v7.61H.9a.9.9,0,1,0,0,1.79H39.62a.9.9,0,1,0,0-1.79H37.8V43.75a2.58,2.58,0,0,0-2.57-2.57H34.5V23a2.66,2.66,0,0,1,2,2.55V32a3.38,3.38,0,1,0,6.77,0V16.3A4.45,4.45,0,0,0,39.49,11.92Zm3.36,20a3,3,0,1,1-6,0V25.57a3,3,0,0,0-2.23-2.92l-.48-.13v19h1.1a2.2,2.2,0,0,1,2.2,2.2v8h2.19a.52.52,0,0,1,0,1H.9a.52.52,0,0,1,0-1h2.2v-8a2.2,2.2,0,0,1,2.2-2.2h1.1V4.67A4.29,4.29,0,0,1,10.68.38H29.83a4.29,4.29,0,0,1,4.29,4.29V9.09l.3.06L38.7,10a.52.52,0,0,1,.42.51v1.71l.32.05a4.06,4.06,0,0,1,3.42,4Z"/><path class="cls-1" d="M25.62,12.09a.89.89,0,0,0,.72-.37l.53-.72a.9.9,0,1,0-1.44-1.06l-.53.72a.9.9,0,0,0,.72,1.43Zm-.42-1.2.53-.72a.52.52,0,0,1,.42-.21.52.52,0,0,1,.42.83L26,11.5a.52.52,0,0,1-.84-.62Z"/><path class="cls-1" d="M4.51,48H4.13v3.69H36.38V48H4.51ZM36,51.35H4.51V48.41H36Z"/><path class="cls-1" d="M14.74,22.91h-.38v2.35H26.15V22.91H14.74Zm11,2h-11v-1.6h11Z"/><path class="cls-1" d="M29.76,6.13h-19a.9.9,0,0,0-.9.9V17.77a.9.9,0,0,0,.9.9h19a.9.9,0,0,0,.9-.9V7A.9.9,0,0,0,29.76,6.13Zm.52,11.64a.52.52,0,0,1-.52.52h-19a.52.52,0,0,1-.52-.52V7a.52.52,0,0,1,.52-.52h19a.52.52,0,0,1,.52.52Z"/><path class="cls-1" d="M11.65,7.54h-.38v9.71H20l.11-.15,2.44-3.24a.52.52,0,1,1,.83.62l-1.63,2.16-.45.6h7.94V7.54H11.65Zm17.21,9.33H22.06l1.63-2.16a.9.9,0,0,0-1.43-1.08l-2.44,3.24H11.65v-9H28.86Z"/><path class="cls-1" d="M6.91,42.59H5.29a1.16,1.16,0,0,0-1.16,1.16V47H36.38V43.75a1.16,1.16,0,0,0-1.16-1.16H6.91ZM36,43.75v2.87H4.51V43.75A.78.78,0,0,1,5.29,43H35.23A.78.78,0,0,1,36,43.75Z"/><path class="cls-1" d="M32.71,41.55h.38V4.67a3.25,3.25,0,0,0-3.25-3.25H10.68A3.25,3.25,0,0,0,7.43,4.67V41.55H32.71ZM7.81,4.67a2.88,2.88,0,0,1,2.87-2.87H29.83a2.88,2.88,0,0,1,2.87,2.87V41.17H7.81Z"/><path class="cls-1" d="M14.18,11.72a.9.9,0,0,0,1.44-1.06l-.53-.72A.9.9,0,1,0,13.65,11Zm-.11-1.67a.52.52,0,0,1,.73.11l.53.72a.52.52,0,1,1-.84.62L14,10.78a.52.52,0,0,1,.11-.73Z"/><path class="cls-1" d="M37.77,14.59l.3-.06V10.95l-.3-.06-3.2-.65-.45-.09v5.19l.45-.09Zm-3.27-4,3.2.65v3l-3.2.65Z"/><path class="cls-1" d="M20.26,12.09a.9.9,0,0,0,.9-.9V10a.9.9,0,1,0-1.79,0v1.21A.9.9,0,0,0,20.26,12.09ZM19.74,10a.52.52,0,1,1,1,0v1.21a.52.52,0,1,1-1,0Z"/><path class="cls-1" d="M39.59,13.39l-.48-.14V15a.52.52,0,0,1-.42.51l-4.27.87-.3.06v5.11l.32.05a4.06,4.06,0,0,1,3.43,4V32a2,2,0,1,0,3.94,0V16.3A3,3,0,0,0,39.59,13.39ZM41.43,32a1.59,1.59,0,1,1-3.18,0V25.57a4.45,4.45,0,0,0-3.75-4.39V16.7l4.27-.87a.9.9,0,0,0,.72-.88V13.75a2.66,2.66,0,0,1,1.94,2.55Z"/></g></g></svg>