<svg width="24" height="24" viewBox="0 0 24 24" fill="none" xmlns="http://www.w3.org/2000/svg">
<g clip-path="url(#clip0_423:511)">
<path d="M16.2499 24.0003C16.018 24.0003 15.7949 23.9103 15.6309 23.7495L11.875 20.0692L8.11905 23.7484V23.7495C7.86858 23.9938 7.49233 24.0677 7.16531 23.9349C6.83828 23.802 6.625 23.4902 6.625 23.1431V13.0632C6.625 12.5896 7.01655 12.2061 7.5 12.2061C7.98344 12.2061 8.37499 12.5896 8.37499 13.0632V21.0742L11.2559 18.2521V18.251C11.5983 17.9167 12.1517 17.9167 12.494 18.251L15.3749 21.0742V13.0632C15.3749 12.5896 15.7665 12.2061 16.2499 12.2061C16.7334 12.2061 17.1249 12.5896 17.1249 13.0632V23.1431C17.1249 23.4903 16.9117 23.802 16.5846 23.9349C16.4785 23.9788 16.3648 24.0003 16.2499 24.0003H16.2499Z" fill="#8A92A6"/>
<path d="M11.8751 15.4286C9.78602 15.4286 7.78343 14.6154 6.30672 13.169C4.83017 11.7226 4 9.76072 4 7.71429C4 5.66787 4.83014 3.7062 6.30672 2.25963C7.78327 0.813222 9.78599 0 11.8751 0C13.9641 0 15.9667 0.813195 17.4434 2.25963C18.92 3.70603 19.7501 5.66787 19.7501 7.71429C19.7479 9.75962 18.9178 11.7202 17.4412 13.1668C15.9647 14.6132 13.9631 15.4264 11.8751 15.4285L11.8751 15.4286ZM11.8751 1.71443C10.2508 1.71443 8.69231 2.34657 7.54375 3.47155C6.3952 4.59652 5.75002 6.12331 5.75002 7.71443C5.75002 9.30555 6.39534 10.8322 7.54375 11.9573C8.69217 13.0824 10.2508 13.7144 11.8751 13.7144C13.4993 13.7144 15.0578 13.0823 16.2064 11.9573C17.3549 10.8323 18.0001 9.30555 18.0001 7.71443C17.9979 6.12337 17.3515 4.59885 16.2042 3.47374C15.0557 2.34981 13.4993 1.71663 11.8751 1.71446L11.8751 1.71443Z" fill="#8A92A6"/>
<path d="M11.875 12.8574C10.4827 12.8563 9.1483 12.3142 8.1639 11.3499C7.17951 10.3856 6.62609 9.07851 6.625 7.71456C6.625 7.24098 7.01655 6.85742 7.5 6.85742C7.98344 6.85742 8.37499 7.24098 8.37499 7.71456C8.37499 8.62419 8.74359 9.49633 9.39985 10.1392C10.0561 10.782 10.9464 11.1431 11.875 11.1431C12.3584 11.1431 12.75 11.5267 12.75 12.0002C12.75 12.4738 12.3584 12.8574 11.875 12.8574L11.875 12.8574Z" fill="#8A92A6"/>
</g>
<defs>
<clipPath id="clip0_423:511">
<rect width="24" height="24" fill="white"/>
</clipPath>
</defs>
</svg>
