<svg fill="none" xmlns="http://www.w3.org/2000/svg" viewBox="0 0 190 176">
  <g clip-path="url(#a)">
    <path d="M27.103 67.238c.919-.594 1.814-1.228 2.762-1.773 1.456-.835 3.084-1.084 4.728-1.224.81-.07 1.628-.048 2.435-.145 2.912-.347 5.872-.342 8.734-1.017.83-.196 1.658-.09 2.472-.323.86-.247 1.767-.33 2.65-.506.866-.173 1.734-.34 2.586-.568 2.607-.697 5.206-1.42 7.808-2.136.137-.042.269-.101.392-.175 2.439-1.36 4.94-2.622 7.294-4.116 1.769-1.12 3.365-2.514 5.007-3.828 1.25-1 2.459-2.065 3.675-3.103.536-.457 1.173-.848 1.566-1.408 1.082-1.545 2.706-2.492 3.987-3.808a203.507 203.507 0 0 1 4.73-4.704c1.806-1.738 3.647-3.44 5.481-5.148 1.911-1.78 3.84-3.541 5.75-5.322 2.011-1.878 4-3.787 6.018-5.653 1.479-1.366 2.963-2.728 4.504-4.022a93.509 93.509 0 0 1 4.465-3.494c1.845-1.37 3.66-2.8 5.624-3.982 2.11-1.27 4.357-2.32 6.581-3.396 1.607-.777 3.329-.672 5.045-.387.539.09 1.078.215 1.62.238 1.605.067 2.81.886 3.833 2.017 2.726 3.032 3.788 6.573 3.302 10.626-.519 4.336-1.657 8.504-3.247 12.552-2.314 5.89-4.727 11.739-7.616 17.379a12672.78 12672.78 0 0 0-13.381 26.194 400.153 400.153 0 0 0-5.787 11.922c-1.127 2.43-2.204 4.904-3.025 7.447-.554 1.71-.692 3.569-.899 5.375-.409 3.555.111 7.033.98 10.485.645 2.563 1.151 5.162 1.765 7.735.503 2.114.979 4.228 1.024 6.413.024 1.147.057 2.294.075 3.44.028 1.931-.56 3.73-1.193 5.52-1.041 2.943-2.304 5.793-4.008 8.402-1.035 1.589-2.251 3.076-3.518 4.49-1.255 1.399-2.977 1.584-4.752 1.337-2.266-.317-4.366-1.178-6.453-2.06-3.232-1.366-6.183-3.242-9.17-5.068-2.041-1.249-4.22-2.285-6.379-3.327-4.934-2.38-9.818-4.854-14.126-8.302-1.311-1.051-2.623-2.102-3.551-3.538-.316-.488-.68-.99-.136-1.579.124-.133-.351-1.25-.544-1.327-2.093-.831-3.698-2.377-5.463-3.695-.496-.376-1.126-.569-1.666-.9-1.947-1.21-3.942-2.356-5.8-3.69-4.056-2.902-7.76-6.233-11.325-9.712a168.764 168.764 0 0 1-6.114-6.327c-1.061-1.156-1.966-2.456-2.94-3.691-.729-.931-1.497-1.834-2.196-2.788-1.16-1.58-2.344-3.152-3.394-4.806-.714-1.126-1.268-2.364-1.802-3.593-.727-1.674-.596-3.342.43-4.853.619-.915 1.395-1.722 2.09-2.586.685-.85 1.324-1.742 2.037-2.566 1.888-2.197 3.845-4.329 6.076-6.187.311-.259.68-.448 1.021-.669l-.062-.07Z" fill="#FE8924"/>
    <path d="M19.674 86.734c-.333-.775-.822-1.662-1.1-2.616-.343-1.149-.037-2.313.695-3.195a183.024 183.024 0 0 1 6.102-6.991c1.755-1.91 3.704-3.616 5.961-4.934.747-.436 1.437-.89 2.415-.6.458.136 1.033-.161 1.555-.197.736-.054 1.482-.004 2.217-.09 1.048-.12 2.087-.33 3.133-.485 1.865-.276 3.734-.538 5.6-.808 1.832-.266 3.67-.498 5.494-.805 3.483-.588 6.91-1.44 10.203-2.71 1.669-.645 3.284-1.434 4.897-2.207a145.725 145.725 0 0 0 5.178-2.61c.6-.32 1.15-.765 1.667-1.205a208.472 208.472 0 0 0 3.863-3.35 278.376 278.376 0 0 0 3.684-3.314 486.823 486.823 0 0 0 4.874-4.513c1.408-1.324 2.837-2.631 4.176-4.023 1.487-1.547 2.86-3.205 4.329-4.766.805-.855 1.732-1.594 2.569-2.42.773-.769 1.483-1.602 2.247-2.379 1.052-1.06 2.129-2.098 3.185-3.154 1.103-1.102 2.176-2.236 3.29-3.32a230.156 230.156 0 0 1 4.402-4.165 119.553 119.553 0 0 1 3.5-3.121 32.814 32.814 0 0 1 2.258-1.738c1.638-1.167 3.247-2.384 4.957-3.433 1.268-.777 2.678-1.315 4.021-1.966.746-.356 1.458-.794 2.228-1.077 1.609-.592 3.249-.785 4.898-.092.486.205.992.363 1.486.55.772.29 1.009 1.12 1.581 1.598 1.334 1.122 1.575 2.675 1.635 4.26.11 2.818-.422 5.559-1.214 8.246-.568 1.925-1.161 3.849-1.856 5.735-.843 2.299-1.785 4.561-2.72 6.822-.783 1.905-1.56 3.816-2.434 5.682-1.249 2.668-2.562 5.305-3.889 7.935-.848 1.688-1.757 3.346-2.67 4.994-.9 1.62-1.841 3.216-2.774 4.819-1.183 2.047-2.423 4.063-3.533 6.148-.76 1.427-1.323 2.96-2.007 4.428-1.102 2.358-2.009 4.808-3.425 7.025-1.449 2.256-2.62 4.667-3.622 7.162-.644 1.601-1.431 3.144-2.082 4.743-.415 1.028-.803 2.083-1.022 3.165-.403 2.006-.64 4.043-.999 6.059-.457 2.557.283 5.018.581 7.509.237 1.978.62 3.94 1.019 5.893.511 2.509 1.132 4.995 1.646 7.503.348 1.712.61 3.439.89 5.162.046.29-.02.597-.016.896.006.472.09.955.029 1.415-.111.902-.181 1.834-.474 2.683-.672 1.946-1.345 3.908-2.243 5.754-1.106 2.271-2.057 4.659-3.846 6.538-.365.381-.718.777-1.114 1.122-.709.62-1.517.808-2.464.599-2.519-.556-4.876-1.523-7.155-2.704-3.512-1.818-7.047-3.591-10.527-5.473-2.364-1.277-4.635-2.725-6.97-4.054-1.304-.742-2.66-1.39-3.982-2.098-3.208-1.725-6.435-3.411-9.098-5.956-.452-.431-.856-.916-.584-1.635.032-.085-.048-.25-.126-.333-.535-.57-1.12-1.061-1.865-1.358-.784-.311-1.405-.805-1.603-1.698a.582.582 0 0 0-.294-.316c-2.272-1.134-4.317-2.616-6.317-4.157-1.841-1.421-3.706-2.82-5.453-4.351-1.747-1.532-3.366-3.204-5.028-4.83a142.44 142.44 0 0 1-3.05-3.071c-2.413-2.513-4.839-5.013-7.207-7.568-1.553-1.676-3.001-3.45-4.524-5.155-.446-.494-1.02-.87-1.475-1.356-.551-.609-1.055-1.27-1.703-2.048Z" fill="#FCC138"/>
    <path d="M66.272 125.881c-1.878-.594-3.491-1.541-4.785-2.983-1.294-1.443-2.133-3.063-2.012-5.098l-.174.004c-.105.104-.218.2-.315.31-.657.743-1.291 1.501-1.968 2.222-.26.278-.258.47-.046.767a12.096 12.096 0 0 1 2.31 7.158c.003 3.796-1.804 6.56-5.062 8.417-2.249 1.283-4.726 1.967-7.174 2.725-2.364.733-4.727 1.468-7.089 2.203-.82.257-1.629.557-2.456.788-.108.029-.427-.219-.434-.352a8.454 8.454 0 0 1 .034-1.478c.536-5.529 1.078-11.056 1.626-16.583.208-2.055.735-4.005 2.17-5.592 1.574-1.742 3.628-2.454 5.887-2.682 2.313-.23 4.476.167 6.368 1.621a.994.994 0 0 0 .2.083c.47-1.091.936-2.177 1.381-3.214-4.506-.42-7.948-2.305-9.798-6.691-.282.309-.566.611-.84.923-.374.412-.862.405-1.234-.008a41278.48 41278.48 0 0 0-16.666-18.472 2030.235 2030.235 0 0 0-5.457-6.008c-.654-.717-.707-1.072-.062-1.769 2.785-3.007 5.527-6.067 8.945-8.394.829-.565 1.702-1.118 2.633-1.468.904-.34 1.915-.39 2.87-.609 5.02-1.153 10.15-1.36 15.252-1.856 3.513-.341 7.03-.773 10.496-1.427 1.591-.301 3.111-1.142 4.58-1.9a48.378 48.378 0 0 0 8.19-5.281 241.13 241.13 0 0 0 7.939-6.694c3.952-3.47 7.811-7.06 11.808-10.485 1.482-1.27 2.566-2.808 3.723-4.315 5.051-6.582 10.58-12.713 17.006-17.992 2.988-2.454 6.134-4.671 9.769-6.093 1.351-.528 2.734-1.052 4.209-.936.934.075 1.876.325 2.775.62.722.236 1.06.907 1.244 1.62.462 1.795.245 3.59-.059 5.374-1.174 6.882-3.671 13.272-7.154 19.3-1.483 2.543-2.809 5.186-4.337 7.713-1.576 2.616-3.327 5.13-4.966 7.71-.372.586-.558 1.287-.853 1.924-1.646 3.56-3.298 7.118-4.955 10.672-2.046 4.368-4.084 8.743-6.177 13.087-1.918 3.975-3.265 8.138-4.157 12.444-.335 1.617-.66 3.313-.523 4.934.265 3.148.808 6.276 1.33 9.394.66 3.922 1.425 7.829 2.131 11.745.279 1.547.479 3.108.795 4.647.331 1.61.113 3.054-.673 4.533-1.908 3.59-3.683 7.251-5.509 10.884-.119.237-.213.485-.333.722-.186.374-.632.452-1.005.263a388.911 388.911 0 0 0-4.563-2.261c-6.227-3.047-12.461-6.079-18.682-9.144-1.555-.767-3.05-1.645-4.578-2.461a5.066 5.066 0 0 0-.79-.298c-1.305-.427-1.553-1.055-.785-2.263Zm-15.544-23.785a.777.777 0 0 1 .022-.08c.147.031.323.026.45.098 1.184.67 2.414 1.272 3.52 2.051a9.48 9.48 0 0 1 2.93 3.296c.279.525.561 1.047.91 1.698 2.751-4.121 6.407-7.318 10.084-10.697-2.702-1.511-5.287-2.962-7.877-4.401-.259-.144-.566-.326-.829-.304-.889.084-1.81.134-2.641.412-1.767.593-3.135 1.82-4.372 3.162-1.084 1.177-2.08 2.432-3.104 3.664-.812.975-1.6 1.972-2.41 2.95-.636.765-1.122 1.589-1.12 2.623.01.167.034.334.069.497.248-.751.688-1.086 1.426-.903.607.156 1.252.34 1.77.677 1.332.868 2.681 1.737 3.873 2.778.978.854 1.784 1.94 1.267 3.427.847-.076.948-.12 1.392-.697.656-.854 1.317-1.706 1.948-2.58a.845.845 0 0 0 .11-.613 3.263 3.263 0 0 0-.374-.872c-1.241-2.138-2.906-3.864-5.054-5.102-.657-.379-1.327-.725-1.99-1.084Zm38.926-51.92-.096-.074c-.155.139-.317.272-.464.418-4.601 4.548-9.303 8.988-14.456 12.91-3.365 2.561-6.872 4.877-11.034 6.076-2.83.816-5.669 1.525-8.578 1.891-6.949.873-13.927 1.408-20.927 1.724a1.731 1.731 0 0 0-.76.18 76.059 76.059 0 0 0-2.99 1.782c-.343.222-.629.534-.912.771l19.817 23.454c.124-.15.181-.216.238-.28 1.609-1.987 3.36-3.827 5.547-5.192 1.324-.825 2.664-1.626 4.3-1.64a.384.384 0 0 0 .27-.127c.37-.493.741-.986 1.08-1.504 1.392-2.109 2.726-4.26 4.172-6.33 1.235-1.767 2.59-3.447 3.906-5.157.141-.184.37-.3.557-.447l.14.12c-.038.18-.095.355-.167.523-.369.686-.727 1.378-1.138 2.037-2.277 3.652-4.881 7.068-7.532 10.45-.25.32-.427.696-.604.991.87.324 1.67.567 2.411.911.98.455 1.935.958 2.863 1.51 4.853 2.899 9.216 6.433 13.266 10.365.093.092.2.171.324.275 1.013-1.532 1.965-3.042 2.987-4.499a125.373 125.373 0 0 1 3.14-4.27c1.075-1.402 2.188-2.751 3.285-4.125l.169.106c-.14.353-.256.717-.423 1.056a46.943 46.943 0 0 1-4.432 7.227c-1.14 1.549-2.392 3.016-3.567 4.542-.193.267-.31.582-.337.912-.103 1.282-.028 2.59-.254 3.847-.635 3.538-2.292 6.626-4.425 9.482-.195.26-.377.529-.597.836l25.284 11.937c.543-1.081 1.013-2.131 1.584-3.121.571-.991.918-1.971.334-3.073a.404.404 0 0 1-.023-.103c-.697-3.305-1.411-6.608-2.086-9.918-.916-4.49-1.836-8.979-2.24-13.557a45.15 45.15 0 0 1-.022-8c.305-3.412 1.34-6.672 2.678-9.793 1.776-4.14 3.723-8.21 5.709-12.255 1.354-2.759 2.902-5.42 4.353-8.13.187-.347.362-.698.542-1.047l-.141-.088c-.172.22-.353.432-.512.661-2.005 2.87-3.934 5.795-6.029 8.596-2.018 2.698-4.192 5.28-6.326 7.887-.827 1.013-1.716 1.975-2.593 2.943-.227.252-.514.448-.773.67l-.136-.103c.21-.389.378-.809.625-1.174a413.605 413.605 0 0 1 3.667-5.321c2.662-3.788 5.334-7.57 8.014-11.344.881-1.239 1.88-2.395 2.721-3.658 3.909-5.873 7.796-11.76 11.659-17.665.909-1.387 1.872-2.777 2.532-4.285 1.183-2.703 2.163-5.494 3.202-8.259.077-.205.008-.527-.107-.73a14.941 14.941 0 0 0-3.358-4.008c-2.015-1.722-4.148-3.268-6.752-3.99-.378-.105-.649-.064-.957.207a100.472 100.472 0 0 0-9.402 9.547c-5.133 5.912-10.323 11.774-15.15 17.946-.976 1.249-2.14 2.349-3.113 3.595-4.569 5.83-9.101 11.689-13.648 17.536-.111.143-.246.268-.371.403l-.123-.07c.033-.16.08-.318.14-.47.244-.49.46-1.002.764-1.453 1.82-2.696 3.616-5.41 5.503-8.06 2.431-3.41 4.928-6.774 7.423-10.14.75-.987 1.57-1.912 2.349-2.864ZM21.76 82.898c.282.281.506.523.751.745 1.31 1.186 2.69 2.305 3.926 3.564 2.672 2.723 5.33 5.466 7.885 8.299 2.224 2.462 4.317 5.045 6.423 7.612.85 1.035 1.577 2.173 2.363 3.263.19.265.365.479.704.135.802-.819 1.578-1.653 2.194-2.631a37.74 37.74 0 0 1 1.837-2.66c.269-.357.251-.57-.03-.9-3.14-3.69-6.27-7.386-9.392-11.09-2.647-3.13-5.298-6.258-7.932-9.4-.666-.793-1.257-1.65-1.918-2.448-.187-.224-.495-.331-.782-.046-.412.412-.835.814-1.257 1.214-.923.871-1.842 1.748-2.778 2.604-.634.58-1.294 1.13-1.994 1.74Zm47.88 16.375c-.162.393-.266.655-.377.916a89.432 89.432 0 0 1-5.128 10.17c-.716 1.223-1.327 2.504-2.053 3.718-.495.827-1.102 1.589-1.661 2.378-.25.352-.34.719-.105 1.207.622-.635 1.357-.694 2.13-.501 1.204.299 2.25.924 3.273 1.601 1.53 1.015 2.635 2.445 3.726 3.876.66.865.277 1.742-.791 1.972-.126.028-.248.074-.37.112 1 .076 1.92.191 2.593-.916 1.764-2.874 3.695-5.645 5.474-8.51 1.33-2.142 2.158-4.486 2.303-7.037.037-.638-.08-1.161-.649-1.553a8.024 8.024 0 0 1-1.16-.994c-.732-.74-1.386-1.556-2.145-2.263-.995-.925-2.053-1.785-3.104-2.649-.62-.517-1.272-.992-1.957-1.527Zm29.288 35.176c-.47-.228-.878-.429-1.288-.624-7.966-3.762-15.931-7.526-23.897-11.291-.36-.165-.568-.139-.791.199-.583.859-1.152 1.74-1.816 2.533-.685.823-1.687.953-2.704.981-.248.008-.492.153-.735.232.14.237.234.316.341.37 1.866.93 3.735 1.865 5.612 2.779 3.101 1.51 6.222 2.975 9.31 4.515 4.16 2.082 8.292 4.22 12.434 6.343.343.177.471.109.632-.224.678-1.4 1.389-2.785 2.086-4.175.26-.528.525-1.061.813-1.636l.003-.002Zm-43.26-12.583c-.793.439-.975.735-.82 1.164a9.591 9.591 0 0 1 .52 4.49c-.167 1.341-.794 2.468-2.135 2.921-1.13.383-2.323.584-3.494.855-1.928.443-3.865.853-5.613 1.848-.121.069-.28.071-.491.121a2.38 2.38 0 0 1 .107-.331c.837-1.563.944-3.234.739-4.954-.119-1.001-.248-2.005-.286-3.01-.054-1.429.122-2.811 1.337-3.8.977-.797 2.142-1.105 3.364-1.087 1.103.017 2.204.181 3.386.286.127-.335.3-.781.44-1.234a.41.41 0 0 0-.107-.361c-.604-.457-1.19-.927-1.993-1.042a16.064 16.064 0 0 0-4.44-.041c-2.529.338-4.259 1.672-5.082 4.121-.777 2.318-1.046 4.713-1.102 7.148a343.366 343.366 0 0 1-.318 8.371c-.038.783-.194 1.563-.306 2.418.182-.053.309-.086.432-.128 2.053-.707 4.108-1.404 6.154-2.128 2.148-.756 4.323-1.449 6.41-2.348 3.164-1.363 4.59-3.98 4.78-7.339.089-1.577-.23-3.093-.818-4.551-.177-.475-.432-.924-.663-1.389Zm60.278-98.325c4.718 1.41 8.334 4.007 10.86 8.094.055-.055.105-.084.12-.127 1.194-3.288 2.405-6.579 3.102-10.015.223-1.098.128-2.29.01-3.423-.119-1.134-.818-1.554-1.945-1.36-.228.039-.452.083-.671.135-2.473.599-4.696 1.733-6.764 3.188-1.581 1.118-3.104 2.31-4.712 3.508Zm-61.85 99.678c-.603.601-1.106 1.111-1.622 1.606a1.994 1.994 0 0 1-.54.4c-.384.171-.7-.075-.657-.487.023-.227.05-.456.094-.681.202-1.016.408-2.036.617-3.044-1.136-.365-3.628-.313-4.818.103-1.417.49-2.128 1.402-2.195 2.919-.029.778.035 1.552.069 2.328.06 1.408.177 2.817.17 4.225-.002.533-.28 1.068-.451 1.65.126-.04.208-.058.284-.089.86-.36 1.698-.805 2.589-1.065 1.436-.423 2.908-.73 4.368-1.066 1.445-.333 2.258-1.146 2.481-2.617.205-1.367-.11-2.693-.387-4.18l-.001-.002Zm.716-2.052c1.1-.255 6.74-7.521 7.08-8.913-.556-.296-1.146-.525-1.618-.889-.472-.365-.836-.882-1.266-1.354-.268.323-.53.651-.802.969-.814.952-1.657 1.865-2.092 3.093-.434 1.227-.991 2.378-1.481 3.575-.218.538-.388 1.094-.582 1.643l.13.083 5.462-6.806c-.063.339-.19.664-.372.958-1.372 2.202-2.762 4.393-4.124 6.602-.169.278-.207.637-.335 1.039Zm12.392-20.29-.087-.071a4.02 4.02 0 0 0-.312.252c-1.055 1.04-2.106 2.084-3.165 3.123-.697.683-1.467 1.291-2.066 2.043-.724.909-1.307 1.93-1.934 2.912-.061.101-.085.334-.019.411.703.812 1.51 1.496 2.606 1.71.114.022.306-.014.36-.093.807-1.179 1.718-2.308 2.367-3.575 1.218-2.393 2.279-4.865 3.401-7.304.141-.308.262-.626.391-.938l-.183-.104-6.326 9.723-.174-.113 5.141-7.976Zm1.269 21.394c-1.163-1.729-2.756-2.894-4.524-3.812-.708-.367-1.512-.59-2.299-.748-.661-.133-.961.273-.781.927.08.289.209.562.382.807 1.516 2.088 3.609 3.396 5.959 4.327a3.6 3.6 0 0 0 1.242.209c.537.012.705-.26.506-.754-.136-.347-.333-.664-.486-.956ZM47.43 108.545c1.054 1.499 2.278 2.494 3.625 3.302.757.452 1.645.699 2.494.972.332.107.825.028.796-.434-.03-.497-.131-1.148-.46-1.44a68.674 68.674 0 0 0-4.402-3.545c-.507-.378-1.164-.587-1.781-.774-.641-.193-.918.103-.737.757.13.469.362.912.464 1.161v.001Zm20.063 16.101c-2.234-.815-4.147-2.13-5.911-3.695 1.484 2.027 3.483 3.221 5.91 3.694v.001Zm-14.682-1.893c.795-.714 2.152-2.851 2.518-3.965-1.3 1.01-2.413 2.764-2.519 3.964v.001Zm14.4-22.059-.009.049.05.007.001-.063-.042.007Z" fill="#41454D"/>
    <path d="M89.654 50.175c-.776.952-1.598 1.878-2.33 2.866-2.495 3.367-4.992 6.73-7.423 10.141-1.887 2.65-3.685 5.362-5.503 8.06-.305.45-.514.965-.764 1.453a2.81 2.81 0 0 0-.14.47l.123.07c.123-.134.258-.26.371-.403 4.545-5.85 9.08-11.706 13.648-17.536.976-1.248 2.14-2.348 3.113-3.595 4.827-6.173 10.017-12.035 15.15-17.947a100.448 100.448 0 0 1 9.402-9.546c.308-.271.579-.312.956-.207 2.608.73 4.738 2.272 6.752 3.99a14.914 14.914 0 0 1 3.356 4.005c.115.203.184.526.107.731-1.039 2.764-2.018 5.556-3.202 8.26-.661 1.508-1.623 2.896-2.532 4.284a3193.233 3193.233 0 0 1-11.659 17.664c-.84 1.264-1.839 2.42-2.721 3.658a2182.432 2182.432 0 0 0-8.014 11.344 411.602 411.602 0 0 0-3.667 5.322c-.247.365-.42.778-.624 1.174l.135.102c.26-.221.546-.418.773-.67.876-.97 1.765-1.932 2.594-2.942 2.13-2.612 4.307-5.19 6.325-7.887 2.095-2.801 4.025-5.727 6.029-8.596.159-.23.34-.442.512-.662l.142.088c-.18.35-.356.7-.543 1.047-1.458 2.708-3.005 5.371-4.353 8.131-1.986 4.045-3.934 8.113-5.709 12.254-1.338 3.121-2.372 6.381-2.677 9.794a45.16 45.16 0 0 0 .02 7.999c.405 4.578 1.325 9.067 2.24 13.558.677 3.31 1.39 6.612 2.087 9.918a.397.397 0 0 0 .023.102c.586 1.102.24 2.077-.333 3.073-.574.996-1.042 2.041-1.585 3.122L74.44 120.922c.216-.306.398-.574.597-.837 2.13-2.854 3.79-5.944 4.425-9.481.225-1.257.15-2.566.254-3.848.027-.329.143-.644.337-.912 1.178-1.521 2.426-2.992 3.567-4.541a46.979 46.979 0 0 0 4.432-7.227c.162-.337.282-.703.422-1.056l-.168-.106c-1.097 1.373-2.215 2.73-3.285 4.125a117.158 117.158 0 0 0-3.14 4.27c-1.012 1.448-1.975 2.967-2.987 4.499-.125-.105-.231-.184-.325-.275-4.056-3.928-8.412-7.466-13.266-10.366a31.804 31.804 0 0 0-2.862-1.51c-.745-.348-1.54-.587-2.41-.91.176-.296.353-.672.603-.99 2.65-3.384 5.255-6.8 7.532-10.451.411-.66.77-1.352 1.138-2.037a2.92 2.92 0 0 0 .167-.523l-.14-.12c-.188.147-.414.266-.558.447-1.315 1.708-2.67 3.39-3.905 5.156-1.442 2.072-2.78 4.222-4.173 6.33-.34.516-.71 1.01-1.08 1.504a.385.385 0 0 1-.269.127c-1.636.011-2.978.813-4.3 1.64-2.188 1.366-3.938 3.205-5.548 5.192-.054.068-.11.134-.237.28L29.444 75.849c.28-.24.566-.553.912-.77a76.989 76.989 0 0 1 2.99-1.783 1.73 1.73 0 0 1 .76-.18c6.999-.321 13.978-.85 20.927-1.724 2.91-.363 5.752-1.076 8.578-1.89 4.158-1.197 7.669-3.515 11.034-6.077 5.152-3.922 9.855-8.362 14.456-12.91.147-.145.308-.279.463-.417l.09.078Zm24.102.306c-.219-.28-.516-.7-.855-1.084-2.467-2.794-5.522-4.785-8.844-6.386-.897-.432-1.873-.726-2.833-1.011-.205-.06-.599.118-.741.31-2.87 3.834-5.713 7.688-8.563 11.536-5.13 6.93-10.264 13.86-15.401 20.79a7270.72 7270.72 0 0 1-11.958 16.075c-.21.283-.207.499.137.681.436.234.854.503 1.285.747 2.965 1.677 5.8 3.544 8.241 5.939.891.873 1.66 1.876 2.448 2.848.485.595.854.644 1.312.072.132-.164.263-.331.388-.504A86821.26 86821.26 0 0 1 93.38 80.082c2.917-3.948 5.9-7.848 8.821-11.793 3.879-5.24 7.743-10.493 11.589-15.758.681-.93.668-.938-.034-2.05Zm8.012-19.386c-.439-.603-.864-1.207-1.317-1.794a1.002 1.002 0 0 0-.457-.316c-1.911-.645-3.915-.752-5.897-.964a2.39 2.39 0 0 0-1.301.285c-.743.402-1.441.901-2.129 1.39-.295.22-.56.478-.787.768a.487.487 0 0 0-.023.458c.436.563 1.893 1.182 2.692.73a14.327 14.327 0 0 1 2.088-.904c1.588-.582 3.948-.04 4.712 1.286.964 1.67 2.238 3.364 1.197 5.5a.36.36 0 0 0-.028.152c.012.233-.049.51.064.686.46.799 1.172 1.347 1.975 1.761.101.053.411-.087.477-.215a7.37 7.37 0 0 0 .566-1.368c.312-1.101.669-2.198.289-3.374-.485-1.478-1.277-2.788-2.121-4.081Z" fill="#F5F5F5"/>
    <path d="M21.76 82.898c.7-.61 1.36-1.159 1.993-1.739.935-.857 1.855-1.732 2.778-2.603.423-.4.846-.8 1.257-1.214.287-.286.595-.179.782.046.661.798 1.252 1.654 1.918 2.448 2.634 3.142 5.285 6.27 7.932 9.4 3.127 3.7 6.258 7.396 9.391 11.089.28.326.3.544.031.901a36.915 36.915 0 0 0-1.837 2.66c-.613.982-1.392 1.812-2.194 2.631-.338.345-.514.13-.704-.136-.785-1.09-1.513-2.228-2.363-3.263-2.104-2.564-4.2-5.148-6.423-7.611-2.554-2.834-5.213-5.576-7.885-8.3-1.236-1.259-2.616-2.377-3.926-3.563-.244-.223-.468-.465-.75-.746Z" fill="#FC9EB2"/>
    <path d="M69.64 99.273c.688.532 1.34 1.008 1.958 1.519 1.047.867 2.105 1.727 3.103 2.65.76.706 1.417 1.52 2.145 2.263.355.367.743.7 1.161.994.57.391.685.915.649 1.553-.147 2.552-.973 4.894-2.303 7.037-1.78 2.865-3.71 5.635-5.474 8.509-.678 1.104-1.596.989-2.593.917.123-.037.245-.083.37-.112 1.068-.23 1.45-1.108.79-1.972-1.09-1.432-2.195-2.861-3.726-3.876-1.022-.678-2.07-1.302-3.273-1.601-.772-.193-1.508-.134-2.13.5-.232-.482-.143-.85.106-1.207.558-.789 1.166-1.55 1.66-2.377.73-1.218 1.336-2.498 2.054-3.718a89.512 89.512 0 0 0 5.127-10.171c.107-.25.21-.512.376-.908Zm1.642 20.9c.014-.136.036-.171.023-.198a1.845 1.845 0 0 0-.123-.233 12.37 12.37 0 0 0-3.922-4.097c-1.265-.817-2.613-1.404-4.113-1.607-.27-.036-.544-.028-.818-.044l-.044.191c3.846.69 6.797 2.732 8.993 5.991l.004-.003Zm-20.554-18.077c.662.359 1.332.706 1.984 1.082 2.148 1.238 3.812 2.964 5.054 5.101.166.272.292.566.373.873a.845.845 0 0 1-.11.613c-.63.874-1.29 1.72-1.948 2.58-.444.577-.544.621-1.392.697.517-1.487-.288-2.573-1.267-3.427-1.191-1.041-2.54-1.91-3.872-2.778-.519-.338-1.16-.523-1.77-.677-.736-.185-1.179.152-1.427.903a3.338 3.338 0 0 1-.068-.497c.002-1.031.487-1.854 1.12-2.623.812-.976 1.6-1.972 2.41-2.95 1.023-1.232 2.02-2.487 3.104-3.664 1.236-1.341 2.605-2.57 4.371-3.162.83-.282 1.756-.331 2.642-.412.267-.025.575.157.828.303 2.591 1.44 5.175 2.89 7.877 4.402-3.678 3.376-7.334 6.573-10.084 10.697-.348-.651-.631-1.173-.91-1.698a9.492 9.492 0 0 0-2.93-3.297c-1.106-.778-2.336-1.38-3.519-2.05-.127-.072-.297-.069-.451-.098l-.217-.053c-.005.028-.018.081-.016.082.073.025.148.036.218.053Zm-.493-.212.09-.002-.09-.001-.08.009.08-.006Z" fill="#28CCAC"/>
    <path d="M98.925 134.451c-.288.575-.55 1.106-.82 1.641-.697 1.39-1.408 2.774-2.086 4.175-.163.334-.29.401-.633.224-4.137-2.125-8.272-4.261-12.433-6.343-3.084-1.543-6.209-3.005-9.31-4.516-1.877-.913-3.742-1.85-5.612-2.779-.108-.056-.2-.132-.341-.369.246-.081.487-.225.735-.232 1.019-.026 2.016-.164 2.704-.981.665-.794 1.232-1.674 1.816-2.533.226-.335.436-.367.791-.199 7.963 3.769 15.928 7.533 23.896 11.291.415.193.822.392 1.293.621Z" fill="#FC9EB2"/>
    <g filter="url(#b)">
      <path d="M55.669 121.866c.228.467.483.916.674 1.391.586 1.459.91 2.972.817 4.55-.189 3.359-1.61 5.978-4.78 7.34-2.085.899-4.264 1.587-6.41 2.347-2.044.725-4.1 1.421-6.153 2.129-.123.042-.25.074-.432.127.113-.854.27-1.633.306-2.417.131-2.789.253-5.58.318-8.371.053-2.44.322-4.829 1.102-7.149.821-2.447 2.554-3.782 5.082-4.12a15.987 15.987 0 0 1 4.44.041c.802.114 1.39.584 1.994 1.042a.413.413 0 0 1 .107.361c-.14.452-.316.894-.44 1.234-1.183-.106-2.284-.27-3.387-.287-1.222-.018-2.387.291-3.364 1.087-1.215.99-1.391 2.372-1.337 3.8.038 1.006.163 2.013.286 3.011.203 1.722.098 3.391-.739 4.953-.043.108-.08.219-.107.332.21-.05.37-.052.49-.122 1.748-.995 3.686-1.405 5.614-1.847 1.168-.269 2.36-.47 3.494-.855 1.342-.453 1.969-1.58 2.135-2.922a9.588 9.588 0 0 0-.52-4.489c-.164-.433.019-.729.81-1.166Z" fill="#FF8722"/>
      <path d="M55.471 122.583c.15.293.29.565.408.86v.001c.566 1.406.87 2.845.782 4.334v.001c-.09 1.618-.477 3.026-1.197 4.183-.717 1.152-1.783 2.082-3.281 2.726-1.534.661-3.111 1.204-4.71 1.754-.554.191-1.11.383-1.67.581-1.46.517-2.924 1.02-4.391 1.523l-1.417.487c.085-.56.17-1.125.195-1.677.132-2.79.254-5.585.319-8.382v-.001c.053-2.412.318-4.746 1.076-7v-.001c.385-1.146.973-2.006 1.74-2.619.767-.615 1.741-1.005 2.934-1.165a15.563 15.563 0 0 1 4.3.04v.001h.004c.614.088 1.078.428 1.659.868-.083.257-.176.507-.263.74l-.676-.071c-.794-.085-1.588-.17-2.369-.182-1.313-.019-2.6.314-3.687 1.2-1.406 1.145-1.576 2.74-1.52 4.206.038 1.017.163 2.032.284 3.014l.005.036v.001c.196 1.666.087 3.22-.684 4.658l-.012.024-.01.025c-.053.13-.096.263-.13.4l-.194.794.796-.189c.058-.014.1-.021.153-.03l.103-.018c.09-.017.23-.047.366-.125 1.59-.905 3.348-1.308 5.193-1.73l.285-.065c.3-.069.607-.134.92-.201.865-.185 1.766-.377 2.622-.667 1.583-.535 2.29-1.874 2.47-3.334v-.001a10.09 10.09 0 0 0-.546-4.723l-.002-.004a.244.244 0 0 1-.022-.092v-.005a.104.104 0 0 1 .015-.026.725.725 0 0 1 .152-.149Z" stroke="#F77200"/>
    </g>
    <path d="M115.946 23.541c1.607-1.2 3.132-2.393 4.71-3.504 2.064-1.452 4.29-2.589 6.764-3.188.219-.052.448-.1.67-.136 1.127-.193 1.828.219 1.946 1.36.117 1.142.212 2.324-.01 3.424-.697 3.436-1.908 6.727-3.102 10.015-.016.043-.066.072-.121.128-2.522-4.09-6.138-6.687-10.857-8.099Z" fill="#FC9EB2"/>
    <g filter="url(#c)">
      <path d="M54.098 123.221c.276 1.487.592 2.813.387 4.18-.22 1.47-1.032 2.283-2.48 2.617-1.462.337-2.932.647-4.37 1.066-.89.26-1.727.705-2.588 1.065-.076.031-.158.049-.284.089.167-.582.446-1.115.45-1.65.007-1.408-.11-2.817-.17-4.225-.033-.776-.1-1.554-.068-2.328.062-1.514.778-2.429 2.195-2.919 1.192-.413 3.682-.468 4.818-.103-.206 1.013-.415 2.028-.617 3.044a7.55 7.55 0 0 0-.094.681c-.045.409.273.658.657.487a2 2 0 0 0 .54-.4c.517-.494 1.02-1.003 1.624-1.604Z" fill="#FDC137"/>
    </g>
    <g filter="url(#d)">
      <path d="M52.81 122.752c.108-1.201 1.22-2.954 2.519-3.965-.366 1.114-1.724 3.251-2.519 3.965Z" fill="#FC9EB2"/>
      <path d="M52.81 122.752c.108-1.201 1.22-2.954 2.519-3.965-.366 1.114-1.724 3.251-2.519 3.965Z" stroke="#FF6691"/>
    </g>
    <g filter="url(#e)">
      <path d="M54.812 121.167c.128-.402.17-.763.34-1.041 1.36-2.208 2.751-4.399 4.123-6.602.183-.293.309-.618.372-.958l-5.462 6.806-.13-.083c.192-.548.362-1.105.582-1.642.488-1.201 1.052-2.361 1.482-3.576.43-1.214 1.278-2.14 2.091-3.092.272-.318.535-.646.802-.97.432.472.792.986 1.266 1.354.474.368 1.063.593 1.618.89-.345 1.393-5.988 8.661-7.084 8.914Z" fill="#FC9EB2"/>
      <path d="M54.812 121.167c.128-.402.17-.763.34-1.041 1.36-2.208 2.751-4.399 4.123-6.602.183-.293.309-.618.372-.958l-5.462 6.806-.13-.083c.192-.548.362-1.105.582-1.642.488-1.201 1.052-2.361 1.482-3.576.43-1.214 1.278-2.14 2.091-3.092.272-.318.535-.646.802-.97.432.472.792.986 1.266 1.354.474.368 1.063.593 1.618.89-.345 1.393-5.988 8.661-7.084 8.914Z" stroke="#FF6691"/>
    </g>
    <path d="m67.204 100.877-5.143 7.977.175.113c2.109-3.24 4.217-6.481 6.325-9.723l.184.104c-.13.313-.25.63-.392.938-1.122 2.439-2.183 4.911-3.4 7.304-.645 1.264-1.554 2.396-2.367 3.575-.054.08-.247.116-.36.093-1.097-.214-1.901-.894-2.606-1.71-.07-.081-.047-.307.018-.41.629-.984 1.21-2.004 1.934-2.913.6-.752 1.374-1.363 2.066-2.043 1.057-1.037 2.108-2.081 3.166-3.122a3.6 3.6 0 0 1 .311-.252l.09.069Z" fill="#F5F5F5"/>
    <g filter="url(#f)">
      <path d="M68.472 122.271c.153.292.35.609.488.95.196.498.032.766-.505.755a3.625 3.625 0 0 1-1.242-.21c-2.355-.927-4.447-2.235-5.959-4.327a2.583 2.583 0 0 1-.383-.807c-.182-.652.12-1.06.782-.927.787.159 1.59.382 2.298.749 1.769.92 3.359 2.087 4.521 3.817Z" fill="#FDC137"/>
    </g>
    <g filter="url(#g)">
      <path d="M47.43 108.544c-.103-.249-.335-.692-.466-1.162-.18-.653.097-.949.737-.757.618.187 1.27.399 1.781.774a68.13 68.13 0 0 1 4.403 3.545c.33.293.428.943.46 1.44.028.462-.464.541-.796.435-.85-.274-1.739-.522-2.494-.973-1.348-.808-2.572-1.803-3.626-3.302Z" fill="#FDC137"/>
    </g>
    <path d="M67.492 124.645c-2.427-.473-4.426-1.667-5.91-3.695 1.763 1.564 3.677 2.88 5.91 3.695Z" fill="#28CCAC"/>
    <path d="m67.21 100.693.043-.007-.002.064-.05-.007.009-.05Z" fill="#F5F5F5"/>
    <path d="M113.756 50.481c.702 1.112.715 1.12.034 2.05a10928.6 10928.6 0 0 1-11.588 15.758c-2.92 3.945-5.903 7.846-8.82 11.794a4877.187 4877.187 0 0 0-15.008 20.411 19.23 19.23 0 0 1-.389.505c-.458.572-.827.523-1.311-.073-.789-.971-1.557-1.974-2.448-2.848-2.441-2.395-5.277-4.261-8.241-5.939-.431-.244-.85-.513-1.286-.746-.343-.183-.346-.4-.136-.681 3.986-5.358 7.972-10.716 11.957-16.076 5.14-6.926 10.272-13.856 15.4-20.79 2.85-3.848 5.693-7.702 8.563-11.537.142-.19.536-.37.741-.31.96.286 1.934.578 2.833 1.012 3.322 1.6 6.377 3.592 8.844 6.386.339.384.636.804.855 1.084ZM87.503 86.518c.175-.23.349-.462.523-.693.1-.098.193-.201.281-.309a3697.28 3697.28 0 0 0 3.665-5.088c.572-.798 1.13-1.604 1.695-2.406l.515-.713c.244-.297.509-.582.73-.893.87-1.196 1.73-2.385 2.59-3.584.172-.228.34-.453.517-.683l1.71-2.245c-.884-.537-1.733-.978-2.498-1.533-1.854-1.346-3.67-2.743-5.5-4.12l-.663-.52L87.831 61a1.57 1.57 0 0 0-.183.172c-1.62 2.187-3.246 4.367-4.856 6.557-.71.966-1.396 1.948-2.094 2.925l-.53.7c-.105.119-.22.23-.313.357-1.69 2.283-3.38 4.566-5.068 6.85-.246.33-.48.67-.742 1.035.42.195.77.325 1.088.51 1.75 1.028 3.49 2.072 5.24 3.106l.601.435.912.716c1.537 1.203 3.016 2.465 4.222 4.134.49-.698.943-1.338 1.395-1.98Zm16.745-42.263c-.801-.434-1.618-.845-2.4-1.312-.434-.259-.642-.105-.899.246-1.899 2.588-3.815 5.163-5.72 7.749-.108.146-.198.305-.249.384 1.38.82 2.737 1.544 4.004 2.4 1.709 1.157 3.349 2.414 5.019 3.628l.748.619 2.266 2.269c.519-.701 1.068-1.45 1.621-2.187l3.222-4.383.578-.81c.077-.072.151-.147.22-.226.674-.843.657-.94.003-1.775a19.124 19.124 0 0 0-4.048-3.855c-1.135-.802-2.34-1.505-3.514-2.251l-.851-.496ZM99.67 54.958l-.788-.59c-1.277-.854-2.547-1.717-3.84-2.546-.117-.075-.467.008-.558.13-1.658 2.223-3.294 4.462-4.934 6.698l-.53.77c-.263.328-.515.669-.792.985-.217.251-.161.414.092.597.688.494 1.36 1.011 2.043 1.513 2.86 2.104 5.72 4.205 8.58 6.304 1.423 1.04 1.155.76 1.835-.229.204-.258.401-.526.601-.788l4.615-6.201c.218-.294.424-.596.706-.995-1.457-1.23-2.865-2.452-4.314-3.63-.875-.71-1.809-1.346-2.717-2.017ZM71.242 83.463l-.55.663-5.153 6.914c4.722 2.12 8.776 4.981 11.973 8.987a.725.725 0 0 0 .139-.111 4575.62 4575.62 0 0 0 4.149-5.62c.606-.824 1.188-1.655 1.778-2.487a.123.123 0 0 1 .029-.064l1.782-2.291c.516-.668.506-.677-.108-1.302-2.205-2.237-4.659-4.16-7.28-5.875-1.181-.774-2.401-1.486-3.597-2.24-.374-.235-.615-.169-.867.2-.447.656-.949 1.27-1.416 1.917-.309.426-.594.87-.883 1.304l.004.005Zm50.526-52.368c.844 1.294 1.636 2.603 2.116 4.087.381 1.176.023 2.273-.288 3.374a7.442 7.442 0 0 1-.567 1.37c-.065.127-.376.266-.477.214-.804-.417-1.516-.965-1.974-1.762-.107-.184-.048-.455-.064-.685a.332.332 0 0 1 .028-.152c1.038-2.14-.234-3.83-1.197-5.5-.764-1.327-3.125-1.868-4.712-1.286-.719.246-1.417.548-2.088.905-.802.448-2.258-.168-2.692-.731a.477.477 0 0 1 .023-.458c.227-.29.491-.548.786-.768.694-.493 1.385-.988 2.129-1.39a2.392 2.392 0 0 1 1.301-.286c1.982.213 3.986.32 5.898.965.179.06.337.17.457.316.457.58.884 1.188 1.321 1.787Zm-50.49 89.081c-2.199-3.263-5.147-5.301-8.996-5.989l.043-.191c.273.013.548.008.818.045 1.5.202 2.849.79 4.113 1.607a12.367 12.367 0 0 1 3.922 4.096c.047.075.088.153.123.233.013.027-.005.067-.023.199Zm-20.55-18.08a2.929 2.929 0 0 1-.211-.051l.016-.082.216.053-.021.08Zm-.492-.215.09.001-.09.002v-.003Z" fill="#41454D"/>
    <path d="m50.236 101.884-.08.006.081-.009v.003Z" fill="#41454D"/>
    <path d="M80.69 70.657c.698-.975 1.388-1.96 2.095-2.924 1.613-2.19 3.237-4.371 4.856-6.557.057-.062.118-.12.183-.171l3.237 2.729c-.374.514-.759 1.02-1.117 1.544-.173.256-.334.265-.561.088a25.431 25.431 0 0 0-1.061-.793c-.224-.15-.304-.292-.282-.596.018-.235-.178-.607-.383-.71-.476-.238-.867.119-1.123.458-.136.18-.052.54-.028.818.006.069.154.132.245.183.513.302 1.053.556 1.531.9.938.668.923.687.251 1.636-.218.31-.377.64-.88.623-.389-.014-.822.658-.784 1.068.047.518.543 1.068.98 1.083.557.02.95-.473 1-1.141.02-.356.129-.701.316-1.005.828-1.23 1.703-2.427 2.56-3.638 1.832 1.378 3.647 2.775 5.501 4.12.765.556 1.614.997 2.498 1.534l-1.71 2.245c-1.366-1.004-2.736-2.002-4.09-3.022a.875.875 0 0 1-.303-.54c-.071-.546-.368-.89-.86-.903-.493-.012-.91.297-.968.73-.06.459.245.825.76 1.003.33.113.641.273.926.474 1.347.968 2.68 1.958 4.018 2.94-.865 1.192-1.721 2.394-2.59 3.585-.227.311-.486.596-.73.893-.457-.483-1.106-.779-1.258-1.554-.072-.363-.513-.455-.893-.347-.414.118-.715.42-.67.838.03.284.279.75.473.774.768.091 1.222.674 1.833 1-.565.801-1.122 1.61-1.695 2.406a1244.816 1244.816 0 0 1-3.665 5.088 3.9 3.9 0 0 1-.281.308c-.877-.716-1.744-1.442-2.633-2.144-.285-.225-.32-.4-.083-.685a56.535 56.535 0 0 0 1.499-1.918c.177-.241.334-.386.687-.357.545.044 1.055-.503 1.07-1.037.013-.475-.537-1.145-.97-1.182-.476-.041-1.072.43-1.048.986.028.72-.492 1.04-.804 1.546a3.309 3.309 0 0 1-.357-.237c-.932-.838-1.858-1.685-2.796-2.517-.237-.21-.383-.398-.338-.758.064-.463-.29-.787-.813-.867-.523-.08-.92.117-1.028.514-.128.463.094 1.052.54 1.13.76.136 1.13.755 1.66 1.169.088.07.122.331.06.425-.298.455-.636.882-1 1.371-1.294-.986-2.56-1.943-3.811-2.919-.09-.069-.113-.281-.103-.422.058-.693-.305-1.075-.992-1.037-.646.038-1.157.668-1.071 1.333.08.61.499.857 1.204.75a.768.768 0 0 1 .474.12c.25.165.493.344.725.535l3.016 2.318-.737 1.26c-1.747-1.037-3.493-2.077-5.24-3.107-.317-.185-.666-.316-1.089-.51.262-.366.499-.701.742-1.035a5245.13 5245.13 0 0 1 5.068-6.85c.094-.126.209-.238.314-.355.784.73 1.578 1.45 2.343 2.198.177.182.298.41.353.658.124.562.519.862 1.032.599.344-.18.58-.568.864-.862.022.352.063.702.122 1.05.35 1.608 2.077 2.924 3.506 2.736 1.528-.202 3.338-2.211 3.238-3.663-.026-.363-.035-.722-.05-1.083.792-.02 1.093-.282 1.09-.958a.828.828 0 0 0-.938-.848c-.282.027-.546.264-.82.403-.985-1.114-2.415-1.526-3.719-1.022-1.427.551-2.196 1.635-2.396 3.139-.18-.435-.395-.972-.945-.793-.715.232-.966-.22-1.353-.63.29-.368.558-.712.835-1.056.276-.343.502-.725 1.07-.73.4-.004.708-.584.649-1.015-.048-.356-.594-.821-.992-.828-.44-.007-.655.297-.693.663-.11 1.055-1.026 1.541-1.514 2.395l-1.159-1.04Zm11.002 9.318c.397-.257.517-.732.307-1.05a.695.695 0 0 0-.968-.22c-.329.212-.446.72-.211 1.022.235.303.56.409.872.248Zm-4.013 2.676c-.303.233-.343.569-.182.922.14.305.625.4.93.214.339-.205.472-.664.281-.962-.191-.297-.68-.389-1.029-.174Zm7.03-7.316.212-.13c0-.253.076-.525-.01-.738-.121-.301-.425-.368-.71-.193s-.361.478-.148.721c.154.171.436.229.658.338l-.003.002ZM83.577 91.811c-.591.83-1.175 1.665-1.778 2.486-1.378 1.877-2.761 3.75-4.149 5.62a.707.707 0 0 1-.138.111c-3.2-4.008-7.25-6.866-11.974-8.986l5.154-6.916 3.322 2.355c-1.228.97-1.578 2.579-3.074 3.169-.414.163-.446.606-.288 1.014.157.408.437.664.882.625.444-.04.652-.377.641-.78-.018-.644.467-.934.79-1.396.934.777 1.822 1.502 2.69 2.25.231.213.433.456.601.722.29.428.824.607 1.24.376.418-.232.678-.922.492-1.34-.187-.417-.743-.632-1.228-.402-.282.133-.43.07-.643-.115a76.59 76.59 0 0 0-2.245-1.859c-.296-.236-.333-.427-.083-.736.722-.892 1.401-1.82 2.13-2.706a1.44 1.44 0 0 1 .712-.422c.495-.132.897-.614.848-1.126a.889.889 0 0 0-.945-.809c-.652.029-.995.378-1.003.992-.006.186-.008.402-.103.542-.286.419-.616.807-.95 1.233l-3.24-2.255c.29-.44.568-.882.876-1.31.467-.647.968-1.26 1.416-1.917.251-.37.493-.435.867-.2 1.195.746 2.418 1.463 3.598 2.239 2.624 1.712 5.079 3.636 7.279 5.876.614.624.624.633.108 1.3a406.43 406.43 0 0 1-1.782 2.292c-.09-.195-.143-.436-.288-.584-.446-.453-.944-.855-1.391-1.307-.588-.592-1.353-1.007-1.682-1.864-.174-.454-.848-.579-1.24-.352a1.179 1.179 0 0 0-.482 1.477c.197.429.74.71 1.15.485.41-.225.642-.1.892.206.128.147.274.276.436.385.252.174.236.325.061.563-1.121 1.522-2.221 3.06-3.342 4.582a1.22 1.22 0 0 1-.496.368c-.517.217-.758.56-.644.992a.932.932 0 0 0 1.021.659c.43-.06.742-.48.77-.948.01-.267.088-.527.228-.754a201.4 201.4 0 0 1 2.758-3.826c.637-.865.446-.91 1.27-.128.302.289.593.48.956.119Zm-9.305 3.324c.351-.227.521-1.016.292-1.34-.242-.343-.873-.485-1.184-.268-.348.244-.432.897-.16 1.297.245.37.734.514 1.049.307l.003.004Zm-2.586-7.61c.227-.175.463-.457.268-.875-.163-.337-.781-.426-1.137-.203-.385.241-.524.718-.307 1.05.217.332.667.358 1.173.023l.003.005Zm-2.918 3.093c.274-.22.401-.527.215-.898-.165-.328-.709-.459-1.026-.267-.3.181-.37.619-.156.995.168.295.605.388.964.166l.003.004Zm32.01-22.028c-.681.99-.413 1.27-1.835.23a2192.476 2192.476 0 0 1-8.58-6.304c-.683-.502-1.358-1.022-2.044-1.514-.253-.183-.31-.344-.092-.596.277-.317.529-.657.791-.986.53.417 1.066.816 1.577 1.25a.99.99 0 0 1 .306.505c.098.471.351.74.832.717.454-.02.7-.327.761-.745.067-.451-.124-.779-.567-.963a5.694 5.694 0 0 1-.958-.503c-.484-.32-.947-.682-1.415-1.029 1.64-2.235 3.276-4.475 4.934-6.698.091-.122.44-.205.558-.13 1.294.829 2.563 1.693 3.84 2.547-.897 1.108-1.81 2.203-2.684 3.33-.529.68-.99 1.411-1.497 2.106a.888.888 0 0 1-.382.33c-.46.155-.537.539-.573.922-.036.422.423.922.801.91.503-.015.558-.398.593-.785.009-.103-.014-.234.039-.307.51-.71 1.037-1.405 1.578-2.132.983.704 1.906 1.354 2.812 2.027.115.086.172.287.203.445.13.64.726 1.005 1.312.758a1.025 1.025 0 0 0 .651-1.054c-.027-.528-.421-.741-.884-.844-.22-.048-.491-.002-.659-.116-.934-.629-1.847-1.292-2.827-1.992l2.304-3.01c.908.67 1.843 1.307 2.718 2.019 1.447 1.175 2.857 2.399 4.313 3.63-.282.398-.49.696-.706.994a4678.84 4678.84 0 0 1-4.615 6.202c-.215-.156-.434-.304-.642-.472a.414.414 0 0 1-.158-.245c-.017-.242.94-1.423 1.203-1.517.467-.164.723-.576.605-.97-.117-.396-.592-.63-1.033-.514-.588.153-.817.468-.717.97.028.144.076.33.014.438-.212.402-.466.781-.746 1.234-.327-.237-.63-.471-.947-.684-.279-.182-.446-.36-.44-.752.008-.512-.429-.791-.878-.835a1.155 1.155 0 0 0-.86.323c-.284.31-.183.751.073 1.078a2.1 2.1 0 0 0 .566.453c.281.174.604.286.874.474.828.592 1.65 1.203 2.481 1.806Zm-.805-10.468c.208.27.518.357.875.142.319-.192.384-.68.152-1.033-.22-.34-.537-.395-.862-.202-.312.173-.4.736-.165 1.093Zm-4.872-2.59c.35-.24.494-.841.245-1.036a1.026 1.026 0 0 0-.789-.163c-.316.077-.429.706-.216.971.212.266.504.39.76.228Zm-1.694 3.161c.02-.482.14-.84.012-1.038-.105-.163-.505-.136-.774-.193-.04.291-.172.617-.087.863.06.154.44.199.853.365l-.004.003ZM104 57.347c-1.67-1.214-3.31-2.471-5.02-3.627-1.266-.857-2.623-1.581-4.003-2.4.05-.08.14-.24.248-.385 1.909-2.582 3.824-5.157 5.721-7.75.257-.35.465-.504.898-.245.782.467 1.599.878 2.401 1.313-.416.634-.819 1.275-1.258 1.896a.913.913 0 0 1-.488.324c-.541.14-.837.52-.782 1.075.051.532.47.994.919 1.016.406.02.796-.418.923-.935.095-.42.246-.823.447-1.202.323-.589.72-1.13 1.085-1.692 1.174.746 2.38 1.45 3.515 2.251a19.175 19.175 0 0 1 4.048 3.856c.658.84.673.936-.004 1.774a2.968 2.968 0 0 1-.219.226c-.677-.563-1.357-1.12-2.024-1.695a.975.975 0 0 1-.261-.435c-.18-.576-.622-.886-1.13-.77-.507.117-.817.715-.659 1.313.167.629.585.895 1.164.794a.77.77 0 0 1 .549.116c.61.477 1.193.989 1.786 1.488l-3.222 4.383c-.55.746-1.102 1.49-1.621 2.187l-2.266-2.27c.592-.745 1.19-1.484 1.773-2.239.244-.315.204-.601-.134-.863-.626-.482-1.228-.99-1.857-1.504.402-.601.763-1.165 1.155-1.709a.897.897 0 0 1 .432-.26c.56-.193.872-.69.748-1.224-.106-.457-.541-.802-.955-.761-.538.054-.948.565-.957 1.143a1.37 1.37 0 0 1-.163.636c-.242.409-.538.788-.789 1.192-.176.283-.324.295-.581.078-.891-.752-1.807-1.474-2.696-2.228a.786.786 0 0 1-.213-.484c-.074-.637-.332-.828-1.26-.876-.566-.029-.916.245-1.007.788-.115.689.41 1.202 1.196 1.208.227.003.507.038.673.172 1.694 1.357 3.368 2.74 5.052 4.11.236.193.281.357.07.613-.424.527-.83 1.074-1.234 1.602Zm-1.71-12.425c.352-.227.5-.703.317-1.007-.183-.305-.963-.408-1.305-.17-.286.204-.359.701-.149 1 .236.34.774.418 1.137.177Zm-.736 9.484c.307-.199.422-.716.233-1.037-.173-.294-.69-.4-.986-.204a.828.828 0 0 0-.226 1.044.703.703 0 0 0 .979.197Zm5.054-6.812c.321-.207.442-.685.243-.966-.2-.281-.784-.38-1.107-.147-.322.233-.408.526-.204.87a.776.776 0 0 0 1.067.241l.001.002Zm2.663 8.538c.446-.288.568-.835.321-1.168-.225-.303-.525-.42-.872-.213-.296.175-.407.848-.188 1.15.219.3.499.372.739.231Zm-1.502 1.826-.128-.215c-.263-.016-.561-.126-.772-.034-.322.141-.401.483-.211.805.173.294.484.437.748.2.196-.177.251-.501.368-.76l-.005.004Z" fill="#28CCAC"/>
    <path d="m80.371 83.21.737-1.26-3.016-2.318a8.536 8.536 0 0 0-.725-.535.768.768 0 0 0-.474-.12c-.705.107-1.124-.14-1.204-.75-.085-.665.425-1.299 1.072-1.333.686-.038 1.045.347.992 1.037-.01.14.011.35.102.423 1.252.975 2.515 1.934 3.811 2.918.365-.489.703-.916 1-1.37.065-.097.023-.358-.06-.426-.531-.416-.9-1.033-1.659-1.168-.446-.079-.666-.663-.54-1.13.107-.398.489-.589 1.028-.514.538.074.879.397.813.866-.05.363.1.548.338.758.937.832 1.863 1.679 2.795 2.517.114.087.234.166.358.237.307-.502.832-.826.803-1.546-.024-.557.573-1.027 1.048-.986.434.037.983.707.97 1.182-.014.535-.525 1.081-1.07 1.037-.35-.027-.507.12-.687.357a56.639 56.639 0 0 1-1.498 1.918c-.24.281-.207.463.083.686.888.701 1.755 1.427 2.632 2.143l-.522.694c-1.053-.86-2.089-1.742-3.166-2.57-.42-.324-.417-.594-.123-.961.317-.395.624-.796.953-1.218-.456-.415-.884-.781-1.283-1.175-.285-.28-.455-.26-.697.08-.716 1.005-1.472 1.98-2.213 2.968l-.598-.441Zm-9.133.248 3.24 2.257c.335-.426.667-.81.95-1.233.095-.14.102-.358.104-.541.005-.613.348-.962 1.002-.993a.887.887 0 0 1 .953.803c.049.512-.356.99-.848 1.126a1.44 1.44 0 0 0-.713.423c-.728.886-1.407 1.813-2.129 2.705-.25.309-.213.5.083.737.758.606 1.51 1.224 2.245 1.859.213.185.361.247.643.114.484-.23 1.04-.016 1.228.403.187.42-.066 1.107-.492 1.339-.425.232-.95.053-1.24-.375a3.608 3.608 0 0 0-.601-.723c-.864-.75-1.756-1.473-2.69-2.25-.323.462-.81.75-.79 1.397.009.404-.196.74-.642.78-.445.04-.727-.227-.882-.626-.154-.399-.125-.85.289-1.014 1.497-.588 1.846-2.2 3.074-3.168l-3.33-2.357c.182-.22.364-.44.546-.663ZM104 57.347c.405-.528.81-1.075 1.235-1.59.213-.257.166-.42-.069-.612-1.684-1.371-3.358-2.754-5.053-4.112-.166-.133-.445-.169-.672-.171-.786-.006-1.312-.52-1.197-1.208.09-.543.44-.816 1.008-.788.927.047 1.186.239 1.259.876a.8.8 0 0 0 .213.484c.89.754 1.805 1.476 2.696 2.228.255.215.405.206.582-.078.246-.401.549-.781.788-1.192a1.37 1.37 0 0 0 .163-.636c.007-.577.419-1.089.958-1.144.413-.04.848.305.955.762.125.535-.188 1.031-.749 1.224a.893.893 0 0 0-.431.26c-.391.543-.754 1.107-1.156 1.71.632.511 1.235 1.02 1.857 1.503.339.262.378.548.135.863-.581.755-1.184 1.495-1.773 2.24l-.749-.619Z" fill="#FDC137"/>
    <path d="M80.975 83.642c.742-.986 1.497-1.963 2.213-2.968.241-.34.411-.359.697-.08.401.392.826.76 1.283 1.175-.328.422-.637.823-.953 1.218-.295.368-.297.638.123.96 1.074.825 2.116 1.709 3.165 2.571l-1.395 1.975c-1.206-1.67-2.688-2.93-4.221-4.134l-.912-.717Z" fill="#28CCAC"/>
    <path d="M99.669 54.959c-.755.994-1.516 1.981-2.305 3.009.983.698 1.893 1.363 2.827 1.992.169.114.44.068.659.116.463.101.857.316.885.844a1.03 1.03 0 0 1-.652 1.054c-.583.25-1.184-.12-1.311-.758-.032-.158-.088-.359-.204-.445-.906-.673-1.828-1.323-2.812-2.027-.54.73-1.065 1.425-1.578 2.132-.052.073-.03.204-.039.307-.034.387-.09.77-.592.786-.378.011-.837-.49-.802-.911.034-.382.114-.767.573-.921a.888.888 0 0 0 .385-.33c.504-.7.966-1.43 1.497-2.107.874-1.126 1.787-2.221 2.684-3.33l.785.589ZM83.577 91.811c-.363.361-.646.174-.955-.108-.824-.782-.633-.737-1.27.128a200.952 200.952 0 0 0-2.758 3.825c-.14.228-.219.487-.228.754-.03.466-.34.889-.77.949a.931.931 0 0 1-1.022-.659c-.114-.433.13-.776.645-.992.194-.078.365-.205.496-.368 1.12-1.522 2.22-3.06 3.342-4.582.174-.24.19-.39-.061-.563a2.171 2.171 0 0 1-.436-.385c-.253-.304-.481-.431-.892-.206-.41.225-.953-.056-1.15-.486A1.18 1.18 0 0 1 79 87.642c.396-.23 1.07-.105 1.24.352.328.857 1.094 1.272 1.682 1.864.447.452.945.854 1.39 1.307.145.148.193.382.288.584a.133.133 0 0 0-.023.062Zm8.147-27.557c-.86 1.212-1.73 2.408-2.56 3.638a2.151 2.151 0 0 0-.317 1.005c-.051.666-.44 1.162-1 1.141-.437-.015-.933-.565-.98-1.083-.035-.407.395-1.082.785-1.068.503.017.662-.314.88-.623.672-.948.686-.968-.251-1.637-.476-.344-1.02-.6-1.53-.899-.09-.052-.239-.116-.246-.183-.023-.276-.108-.638.028-.818.256-.34.647-.695 1.123-.458.205.103.4.476.382.71-.022.304.061.444.282.596.363.252.716.52 1.062.793.227.177.388.168.561-.087.358-.525.743-1.031 1.117-1.545l.664.518Zm-6.964 9.685c-.284.294-.52.682-.864.861-.512.265-.907-.034-1.032-.598a1.372 1.372 0 0 0-.352-.659c-.766-.748-1.56-1.468-2.344-2.197l.52-.693 1.162 1.05c.49-.854 1.408-1.342 1.514-2.394.038-.366.252-.67.693-.663.398.007.939.475.992.828.058.43-.247 1.014-.65 1.016-.567.004-.787.382-1.07.73-.282.347-.542.686-.835 1.055.39.408.639.862 1.354.63.55-.178.765.358.945.793l-.033.241Zm16.018-5.349c-.83-.602-1.651-1.21-2.494-1.805-.27-.189-.593-.3-.874-.474a2.1 2.1 0 0 1-.566-.454c-.258-.329-.354-.763-.074-1.077a1.154 1.154 0 0 1 .86-.323c.45.043.883.316.88.834-.002.39.16.57.439.753.32.21.624.445.948.683.279-.452.533-.832.745-1.233.055-.11.014-.295-.014-.438-.098-.5.131-.815.717-.97.443-.115.917.121 1.033.513.117.391-.138.806-.605.97-.263.095-1.22 1.276-1.203 1.518a.414.414 0 0 0 .158.244c.206.166.426.314.642.472-.191.261-.392.525-.592.788Zm-3.281 4.242c-1.338-.983-2.667-1.974-4.018-2.94a3.636 3.636 0 0 0-.926-.474c-.512-.175-.82-.545-.76-1.004.058-.433.466-.74.968-.73.501.012.79.357.86.904a.88.88 0 0 0 .304.54c1.355 1.022 2.723 2.017 4.09 3.022-.174.227-.348.456-.518.682Zm14.358-19.176c-.595-.502-1.177-1.012-1.786-1.487a.771.771 0 0 0-.55-.116c-.578.1-.993-.168-1.163-.795-.158-.596.142-1.189.659-1.312s.952.192 1.13.77a.975.975 0 0 0 .261.435c.665.575 1.347 1.131 2.023 1.694l-.574.811Zm-6.763-8.92c-.366.562-.76 1.107-1.085 1.692a4.828 4.828 0 0 0-.447 1.201c-.127.518-.52.958-.923.936-.449-.022-.868-.484-.92-1.016-.054-.556.246-.937.783-1.075a.907.907 0 0 0 .487-.324c.437-.62.842-1.262 1.259-1.896l.846.482ZM89.549 58.65c.474.343.93.707 1.415 1.029.302.198.623.366.957.503.44.187.635.512.568.963-.06.418-.305.728-.761.745-.478.021-.734-.246-.832-.717a.984.984 0 0 0-.306-.506c-.51-.43-1.05-.84-1.577-1.25.18-.254.359-.51.536-.767Zm4.113 19.37c-.612-.325-1.065-.907-1.834-1-.194-.023-.443-.489-.473-.773-.044-.417.256-.72.67-.838.38-.108.822-.016.893.347.153.775.802 1.07 1.258 1.554l-.514.71Z" fill="#FDC137"/>
    <path d="m84.76 73.939.038-.238c.2-1.504.969-2.588 2.396-3.14 1.305-.503 2.734-.091 3.72 1.023l.662 1.395c.015.36.025.722.05 1.083.101 1.453-1.71 3.46-3.238 3.662-1.43.189-3.155-1.125-3.506-2.736a9.966 9.966 0 0 1-.122-1.049Zm4.57 2.318c1.466-.97 1.837-2.5 1.05-3.828-.699-1.175-2.471-1.44-3.54-.698-1.174.813-1.586 2.49-.815 3.596.752 1.078 2.135 1.95 3.305.93Z" fill="#FF8722"/>
    <path d="m91.576 72.979-.662-1.395c.27-.143.535-.38.82-.403a.829.829 0 0 1 .937.848c-.003.669-.301.933-1.095.95Zm.116 6.996c-.312.161-.63.067-.872-.247s-.117-.81.212-1.023a.693.693 0 0 1 .967.222c.21.316.093.797-.307 1.048Zm-4.013 2.676c.349-.215.841-.118 1.03.174.187.293.057.757-.282.962-.305.185-.791.09-.93-.214-.164-.351-.12-.69.182-.922Zm7.032-7.318c-.222-.11-.504-.167-.654-.337-.212-.242-.137-.544.148-.72.286-.178.59-.108.71.192.086.213.012.49.01.738l-.214.127ZM74.269 95.13c-.317.206-.804.064-1.052-.31-.263-.406-.186-1.055.16-1.297.31-.218.942-.075 1.184.267.23.324.057 1.111-.292 1.34Zm-2.586-7.61c-.506.335-.963.297-1.176-.027-.213-.324-.078-.81.307-1.05.36-.226.974-.134 1.137.203.2.415-.041.7-.268.874Zm-2.918 3.094c-.361.223-.797.135-.969-.174-.213-.374-.146-.813.155-.995.318-.191.862-.06 1.027.267.189.374.061.682-.213.902Zm31.208-32.492c-.231-.357-.146-.918.162-1.097.328-.188.644-.133.862.202.231.357.166.842-.151 1.032-.355.22-.665.132-.873-.137Zm-4.873-2.59c-.258.167-.543.04-.76-.227-.216-.268-.096-.89.217-.972a1.025 1.025 0 0 1 .79.163c.253.192.104.796-.246 1.036Zm-1.689 3.158c-.414-.166-.794-.21-.849-.368-.085-.248.047-.571.087-.863.27.057.67.03.775.193.128.198.008.556-.013 1.038Zm8.879-13.768c-.366.243-.905.165-1.135-.173-.21-.3-.136-.797.149-1 .34-.242 1.118-.144 1.305.17.188.312.026.775-.319 1.003Zm-.736 9.484a.703.703 0 0 1-.978-.197.829.829 0 0 1 .225-1.044c.298-.193.813-.09.986.204.19.32.073.837-.233 1.037Zm5.053-6.814a.773.773 0 0 1-1.064-.245c-.204-.344-.11-.647.205-.87.314-.224.899-.139 1.106.147.207.285.074.762-.247.968Zm2.664 8.54c-.245.144-.526.062-.739-.232-.213-.294-.108-.974.188-1.149.347-.204.647-.09.872.213.251.33.125.88-.321 1.168Zm-1.497 1.823c-.117.258-.172.582-.364.755-.263.238-.572.093-.747-.199-.19-.321-.111-.663.211-.805.211-.092.515.014.772.034l.128.215Z" fill="#FDC137"/>
    <path d="M89.33 76.257c-1.17 1.02-2.553.148-3.305-.93-.77-1.106-.358-2.783.815-3.596 1.07-.742 2.841-.477 3.54.698.787 1.328.416 2.859-1.05 3.828Z" fill="#41454D"/>
  </g>
  <defs>
    <filter id="b" x="34.385" y="113.558" width="27.791" height="33.192" filterUnits="userSpaceOnUse" color-interpolation-filters="sRGB">
      <feFlood flood-opacity="0" result="BackgroundImageFix"/>
      <feColorMatrix in="SourceAlpha" values="0 0 0 0 0 0 0 0 0 0 0 0 0 0 0 0 0 0 127 0" result="hardAlpha"/>
      <feOffset dy="-2"/>
      <feGaussianBlur stdDeviation="1"/>
      <feComposite in2="hardAlpha" operator="out"/>
      <feColorMatrix values="0 0 0 0 0 0 0 0 0 0 0 0 0 0 0 0 0 0 0.95 0"/>
      <feBlend in2="BackgroundImageFix" result="effect1_dropShadow_1601_25166"/>
      <feColorMatrix in="SourceAlpha" values="0 0 0 0 0 0 0 0 0 0 0 0 0 0 0 0 0 0 127 0" result="hardAlpha"/>
      <feOffset dy="2"/>
      <feGaussianBlur stdDeviation="2.5"/>
      <feComposite in2="hardAlpha" operator="out"/>
      <feColorMatrix values="0 0 0 0 1 0 0 0 0 0.766 0 0 0 0 0.55 0 0 0 1 0"/>
      <feBlend in2="effect1_dropShadow_1601_25166" result="effect2_dropShadow_1601_25166"/>
      <feBlend in="SourceGraphic" in2="effect2_dropShadow_1601_25166" result="shape"/>
    </filter>
    <filter id="c" x="39.763" y="116.77" width="19.788" height="22.468" filterUnits="userSpaceOnUse" color-interpolation-filters="sRGB">
      <feFlood flood-opacity="0" result="BackgroundImageFix"/>
      <feColorMatrix in="SourceAlpha" values="0 0 0 0 0 0 0 0 0 0 0 0 0 0 0 0 0 0 127 0" result="hardAlpha"/>
      <feOffset dy="-2"/>
      <feGaussianBlur stdDeviation="1"/>
      <feComposite in2="hardAlpha" operator="out"/>
      <feColorMatrix values="0 0 0 0 0 0 0 0 0 0 0 0 0 0 0 0 0 0 0.95 0"/>
      <feBlend in2="BackgroundImageFix" result="effect1_dropShadow_1601_25166"/>
      <feColorMatrix in="SourceAlpha" values="0 0 0 0 0 0 0 0 0 0 0 0 0 0 0 0 0 0 127 0" result="hardAlpha"/>
      <feOffset dy="2"/>
      <feGaussianBlur stdDeviation="2.5"/>
      <feComposite in2="hardAlpha" operator="out"/>
      <feColorMatrix values="0 0 0 0 1 0 0 0 0 1 0 0 0 0 1 0 0 0 1 0"/>
      <feBlend in2="effect1_dropShadow_1601_25166" result="effect2_dropShadow_1601_25166"/>
      <feBlend in="SourceGraphic" in2="effect2_dropShadow_1601_25166" result="shape"/>
    </filter>
    <filter id="d" x="48.198" y="115.386" width="10.117" height="13.588" filterUnits="userSpaceOnUse" color-interpolation-filters="sRGB">
      <feFlood flood-opacity="0" result="BackgroundImageFix"/>
      <feColorMatrix in="SourceAlpha" values="0 0 0 0 0 0 0 0 0 0 0 0 0 0 0 0 0 0 127 0" result="hardAlpha"/>
      <feOffset dy="-1"/>
      <feGaussianBlur stdDeviation=".5"/>
      <feComposite in2="hardAlpha" operator="out"/>
      <feColorMatrix values="0 0 0 0 0 0 0 0 0 0 0 0 0 0 0 0 0 0 0.95 0"/>
      <feBlend in2="BackgroundImageFix" result="effect1_dropShadow_1601_25166"/>
      <feColorMatrix in="SourceAlpha" values="0 0 0 0 0 0 0 0 0 0 0 0 0 0 0 0 0 0 127 0" result="hardAlpha"/>
      <feOffset dx="-1" dy="2"/>
      <feGaussianBlur stdDeviation="1.5"/>
      <feComposite in2="hardAlpha" operator="out"/>
      <feColorMatrix values="0 0 0 0 1 0 0 0 0 0.670833 0 0 0 0 0.755279 0 0 0 1 0"/>
      <feBlend in2="effect1_dropShadow_1601_25166" result="effect2_dropShadow_1601_25166"/>
      <feBlend in="SourceGraphic" in2="effect2_dropShadow_1601_25166" result="shape"/>
    </filter>
    <filter id="e" x="49.452" y="107.248" width="15.023" height="19.603" filterUnits="userSpaceOnUse" color-interpolation-filters="sRGB">
      <feFlood flood-opacity="0" result="BackgroundImageFix"/>
      <feColorMatrix in="SourceAlpha" values="0 0 0 0 0 0 0 0 0 0 0 0 0 0 0 0 0 0 127 0" result="hardAlpha"/>
      <feOffset dy="-1"/>
      <feGaussianBlur stdDeviation=".5"/>
      <feComposite in2="hardAlpha" operator="out"/>
      <feColorMatrix values="0 0 0 0 0 0 0 0 0 0 0 0 0 0 0 0 0 0 0.95 0"/>
      <feBlend in2="BackgroundImageFix" result="effect1_dropShadow_1601_25166"/>
      <feColorMatrix in="SourceAlpha" values="0 0 0 0 0 0 0 0 0 0 0 0 0 0 0 0 0 0 127 0" result="hardAlpha"/>
      <feOffset dx="-1" dy="2"/>
      <feGaussianBlur stdDeviation="1.5"/>
      <feComposite in2="hardAlpha" operator="out"/>
      <feColorMatrix values="0 0 0 0 1 0 0 0 0 0.670833 0 0 0 0 0.755279 0 0 0 1 0"/>
      <feBlend in2="effect1_dropShadow_1601_25166" result="effect2_dropShadow_1601_25166"/>
      <feBlend in="SourceGraphic" in2="effect2_dropShadow_1601_25166" result="shape"/>
    </filter>
    <filter id="f" x="58.819" y="113.68" width="12.221" height="14.296" filterUnits="userSpaceOnUse" color-interpolation-filters="sRGB">
      <feFlood flood-opacity="0" result="BackgroundImageFix"/>
      <feColorMatrix in="SourceAlpha" values="0 0 0 0 0 0 0 0 0 0 0 0 0 0 0 0 0 0 127 0" result="hardAlpha"/>
      <feOffset dy="-2"/>
      <feGaussianBlur stdDeviation="1"/>
      <feComposite in2="hardAlpha" operator="out"/>
      <feColorMatrix values="0 0 0 0 0 0 0 0 0 0 0 0 0 0 0 0 0 0 0.45 0"/>
      <feBlend in2="BackgroundImageFix" result="effect1_dropShadow_1601_25166"/>
      <feColorMatrix in="SourceAlpha" values="0 0 0 0 0 0 0 0 0 0 0 0 0 0 0 0 0 0 127 0" result="hardAlpha"/>
      <feOffset dy="2"/>
      <feGaussianBlur stdDeviation="1"/>
      <feComposite in2="hardAlpha" operator="out"/>
      <feColorMatrix values="0 0 0 0 1 0 0 0 0 0.897114 0 0 0 0 0.616667 0 0 0 1 0"/>
      <feBlend in2="effect1_dropShadow_1601_25166" result="effect2_dropShadow_1601_25166"/>
      <feBlend in="SourceGraphic" in2="effect2_dropShadow_1601_25166" result="shape"/>
    </filter>
    <filter id="g" x="44.91" y="102.567" width="11.436" height="14.293" filterUnits="userSpaceOnUse" color-interpolation-filters="sRGB">
      <feFlood flood-opacity="0" result="BackgroundImageFix"/>
      <feColorMatrix in="SourceAlpha" values="0 0 0 0 0 0 0 0 0 0 0 0 0 0 0 0 0 0 127 0" result="hardAlpha"/>
      <feOffset dy="-2"/>
      <feGaussianBlur stdDeviation="1"/>
      <feComposite in2="hardAlpha" operator="out"/>
      <feColorMatrix values="0 0 0 0 0 0 0 0 0 0 0 0 0 0 0 0 0 0 0.45 0"/>
      <feBlend in2="BackgroundImageFix" result="effect1_dropShadow_1601_25166"/>
      <feColorMatrix in="SourceAlpha" values="0 0 0 0 0 0 0 0 0 0 0 0 0 0 0 0 0 0 127 0" result="hardAlpha"/>
      <feOffset dy="2"/>
      <feGaussianBlur stdDeviation="1"/>
      <feComposite in2="hardAlpha" operator="out"/>
      <feColorMatrix values="0 0 0 0 1 0 0 0 0 0.897114 0 0 0 0 0.616667 0 0 0 1 0"/>
      <feBlend in2="effect1_dropShadow_1601_25166" result="effect2_dropShadow_1601_25166"/>
      <feBlend in="SourceGraphic" in2="effect2_dropShadow_1601_25166" result="shape"/>
    </filter>
    <clipPath id="a">
      <path fill="#fff" transform="rotate(57.118 65.539 120.41)" d="M0 0h107.644v156.083H0z"/>
    </clipPath>
  </defs>
</svg>
