<?xml version="1.0" encoding="utf-8"?>
<!-- Generator: Adobe Illustrator 19.0.0, SVG Export Plug-In . SVG Version: 6.00 Build 0)  -->
<svg version="1.1" id="Layer_1" xmlns="http://www.w3.org/2000/svg" xmlns:xlink="http://www.w3.org/1999/xlink" x="0px" y="0px"
	 viewBox="-255 347 100 100" style="enable-background:new -255 347 100 100;" xml:space="preserve">
<style type="text/css">
	.st0{fill:#8a92a6;}
	.st1{fill:#8a92a6;}
	.st2{fill:#8a92a6;}
	.st3{fill:#8a92a6;}
	.st4{fill:#8a92a6;}
	.st5{fill:#8A92A6;}
</style>
<g>
	<path class="st0" d="M-156.5,373.1l-47.8-24.9l-0.2-0.1c-0.1,0-0.2-0.1-0.4-0.1c-0.1,0-0.2,0-0.6,0.1l-47.9,24.9
		c-0.3,0.1-0.5,0.4-0.5,0.7c0,0.5-4.2,50.5,48.4,72.3l0.2,0.1c0.2,0.1,0.3,0.1,0.4,0.1c0.1,0,0.3,0,0.4-0.1l0.2-0.1
		c52.5-21.8,48.4-71.8,48.4-72.3C-156.1,373.5-156.3,373.2-156.5,373.1z M-202.5,443.2l-1.4,0.6v-23.2c0-0.5-0.5-0.9-1.1-0.9
		c-0.6,0-1.1,0.4-1.1,0.9v23.2l-1.4-0.6c-45.2-20.5-44.6-63.5-44.4-68.4l0-0.4l45.8-23.8v23c0,0.5,0.5,0.9,1.1,0.9
		c0.6,0,1.1-0.4,1.1-0.9v-23l45.8,23.8l0,0.4C-157.8,382.7-158.3,423.1-202.5,443.2z"/>
	<path class="st1" d="M-156.1,372.4l-47.9-24.9c-0.1,0-0.1,0-0.2-0.1c-0.1,0-0.1,0-0.2-0.1c-0.2-0.1-0.5-0.1-0.7-0.1
		c-0.2,0-0.5,0-0.7,0.1c-0.1,0-0.1,0-0.2,0.1c-0.1,0-0.1,0-0.2,0.1l-47.9,24.9c-0.5,0.3-0.9,0.8-1,1.3c0,0.5-4.3,51.1,49,73.1
		c0,0,0,0,0,0c0.3,0.1,0.5,0.2,0.8,0.2c0.3,0,0.6-0.1,0.8-0.2c0,0,0,0,0,0c53.3-22.1,49.1-72.6,49-73.1
		C-155.1,373.2-155.5,372.7-156.1,372.4z M-204.7,445.3L-204.7,445.3l-0.4,0.1l-0.3-0.1c-51.7-21.6-47.8-71-47.7-71.5l47.8-24.8
		l0.1,0l0.1,0c0,0,0,0,0,0l0,0c0,0,0.1,0,0.1,0l47.8,24.9C-156.9,374.3-153,423.7-204.7,445.3z"/>
	<path class="st1" d="M-157.2,373.9l-0.9-0.5l-43.9-22.8l-2.9-1.5v2.9v21.6c0,0.1-0.1,0.1-0.1,0.1s-0.1,0-0.1-0.1V352v-2.9l-2.9,1.5
		l-43.9,22.8l-0.9,0.5l0,0.9c-0.3,8,0.2,48.8,44.9,69.1l2.8,1.3v-2.7v-21.8c0-0.1,0.1-0.1,0.1-0.1s0.1,0,0.1,0.1v21.8v2.7l2.8-1.3
		c44.7-20.3,45.3-61.1,44.9-69.1L-157.2,373.9z M-203,442.5v-21.8c0-0.9-0.9-1.7-2-1.7s-2,0.8-2,1.7v21.8
		c-44.1-20-44.2-61.2-43.9-67.7L-207,352v21.6c0,0.9,0.9,1.7,2,1.7s2-0.8,2-1.7V352l43.9,22.8C-158.8,381.2-158.9,422.5-203,442.5z"
		/>
	<path class="st2" d="M-156.1,372.4l-47.9-24.9c-0.1,0-0.1,0-0.2-0.1c-0.1,0-0.1,0-0.2-0.1c-0.2-0.1-0.5-0.1-0.7-0.1
		c-0.2,0-0.5,0-0.7,0.1c-0.1,0-0.1,0-0.2,0.1c-0.1,0-0.1,0-0.2,0.1l-47.9,24.9c-0.5,0.3-0.9,0.8-1,1.3c0,0.5-4.3,51.1,49,73.1
		c0,0,0,0,0,0c0.3,0.1,0.5,0.2,0.8,0.2c0.3,0,0.6-0.1,0.8-0.2c0,0,0,0,0,0c53.3-22.1,49.1-72.6,49-73.1
		C-155.1,373.2-155.5,372.7-156.1,372.4z M-204.4,446L-204.4,446l-0.2,0.1c-0.2,0.1-0.3,0.1-0.4,0.1c-0.1,0-0.3,0-0.4-0.1l-0.2-0.1
		l0,0c-52.5-21.9-48.4-71.8-48.4-72.3c0-0.3,0.2-0.5,0.5-0.7l47.8-24.8l0.2-0.1l0,0c0.1,0,0.2-0.1,0.4-0.1c0.1,0,0.2,0,0.5,0.1
		c0,0,0.1,0,0.1,0c0,0,0,0,0,0l47.9,24.9c0.3,0.1,0.5,0.4,0.5,0.7C-156,374.3-151.9,424.2-204.4,446z"/>
	<path class="st2" d="M-158.1,374.4l-0.4-0.2l-43.9-22.8l-1.5-0.8v1.4v21.6c0,0.5-0.5,0.9-1.1,0.9c-0.6,0-1.1-0.4-1.1-0.9V352v-1.4
		l-1.5,0.8l-43.9,22.8l-0.4,0.2l0,0.4c-0.2,4.8-0.7,47.9,44.4,68.4l1.4,0.6v-1.3v-21.8c0-0.5,0.5-0.9,1.1-0.9c0.6,0,1.1,0.4,1.1,0.9
		v21.8v1.3l1.4-0.6c44.2-20.1,44.8-60.5,44.4-68.4L-158.1,374.4z M-203,442.5v-21.8c0-0.9-0.9-1.7-2-1.7s-2,0.8-2,1.7v21.8
		c-44.1-20-44.2-61.2-43.9-67.7L-207,352v21.6c0,0.9,0.9,1.7,2,1.7s2-0.8,2-1.7V352l43.9,22.8C-158.8,381.2-158.9,422.5-203,442.5z"
		/>
</g>
<g>
	<path class="st3" d="M-205,392.8c-1.1,0-2.2-0.4-3-1.2c-0.7-0.8-1-1.7-0.8-2.7c0.3-1.3,1.5-2.3,3-2.6c0.3,0,0.5-0.1,0.8-0.1
		c1.1,0,2.2,0.4,2.9,1.1c1,1,2.4,1.5,3.9,1.5c2,0,3.8-1,4.6-2.5c0.8-1.5,0.6-3.3-0.7-4.6c-1.3-1.3-3-2.4-4.9-3.1l-0.6-0.2v-2.5
		c0-1.9-1.8-3.4-4-3.4h-2.6c-2.2,0-4,1.5-4,3.4v2.5l-0.6,0.2c-4.3,1.7-7.4,5.1-8.1,9c-0.6,3.4,0.6,6.9,3.2,9.5
		c2.7,2.6,6.5,4.2,10.6,4.2c1.7,0,3.2,0.8,3.7,2c0.7,1.5,0,2.6-0.4,3.1c-0.7,0.9-1.9,1.4-3.2,1.4c-1.1,0-2.2-0.4-2.9-1.1
		c-1-1-2.4-1.5-3.9-1.5c-2,0-3.8,1-4.6,2.5c-0.8,1.5-0.6,3.3,0.7,4.6c1.4,1.3,3,2.4,4.9,3.1l0.6,0.2v2.5c0,1.9,1.8,3.4,4,3.4h2.6
		c2.2,0,4-1.5,4-3.4v-2.5l0.6-0.2c4.8-1.9,8.1-6,8.2-10.4c0.1-3.2-1.3-6.3-4-8.6C-197.6,394.1-201.2,392.8-205,392.8z M-208.2,376.1
		c0-0.9,0.8-1.6,1.9-1.6h2.6c1,0,1.9,0.7,1.9,1.6v0.9l-0.2,0.9l-1.1-0.1c-0.5-0.1-1-0.1-1.6-0.1l-0.4,0l-0.1,0c-0.6,0-1.2,0-1.9,0.1
		l-1.1,0.1V376.1z M-201.8,418.2c0,0.9-0.8,1.6-1.9,1.6h-2.6c-1,0-1.9-0.7-1.9-1.6v-0.9l0.2-0.9l1.1,0.1c0.6,0.1,1.2,0.1,1.8,0.1
		c0.3,0,0.5,0,0.8,0c0.4,0,0.8-0.1,1.2-0.1l1.1-0.1V418.2z M-201.9,414.4c-0.2,0-0.3,0.1-0.5,0.1c-0.6,0.1-1.2,0.2-1.8,0.2
		c-0.3,0-0.6,0-1,0c0,0-0.3,0-0.3,0c-0.3,0-0.7,0-1.2-0.1l-0.2,0c-0.7-0.1-1.3-0.2-2-0.4c-2-0.6-3.8-1.6-5.2-3
		c-1.1-1.1-0.6-2.3-0.4-2.7c0.4-0.7,1.3-1.5,2.7-1.5c0.9,0,1.7,0.3,2.3,0.9c1.1,1.1,2.8,1.8,4.5,1.8c2,0,3.8-0.8,4.9-2.2
		c1.1-1.4,1.4-3.1,0.6-4.8c-0.8-1.9-3.1-3.1-5.7-3.2c-3.4,0-6.7-1.3-9-3.5c-2.3-2.3-3.2-5.1-2.7-8.1c0.6-3.6,3.7-6.8,7.9-8l0.1,0
		c0.7-0.2,1.4-0.3,2-0.4c0.5-0.1,1-0.1,1.6-0.1c0.2,0,0.3,0,0.5,0c0,0,0.7,0,0.9,0c0.4,0,0.8,0.1,1.4,0.2c0.4,0.1,0.8,0.2,1.2,0.3
		h0.2l0.1,0.1c2,0.6,3.7,1.6,5.1,3c0.9,0.9,0.8,2,0.4,2.7c-0.4,0.7-1.3,1.5-2.7,1.5c-0.9,0-1.7-0.3-2.3-0.9
		c-1.2-1.1-2.8-1.8-4.5-1.8c-0.4,0-0.8,0-1.3,0.1c-2.3,0.4-4.2,2-4.6,4c-0.3,1.5,0.1,3,1.3,4.2c1.1,1.2,2.8,1.8,4.6,1.8
		c3.2,0,6.3,1.1,8.6,3.1c2.3,2,3.5,4.6,3.4,7.3C-193.2,409.3-196.8,413.1-201.9,414.4z"/>
	<path class="st4" d="M-205,392c-0.9,0-1.7-0.3-2.2-0.9c-0.6-0.6-0.8-1.3-0.6-2c0.2-0.9,1.1-1.7,2.2-1.9c0.2,0,0.4-0.1,0.6-0.1
		c0.8,0,1.6,0.3,2.2,0.9c1.2,1.2,2.9,1.8,4.6,1.8c2.4,0,4.5-1.1,5.5-3c1-1.8,0.7-3.9-0.9-5.5c-1.5-1.4-3.2-2.5-5.2-3.3v-2
		c0-2.3-2.2-4.2-4.9-4.2h-2.6c-2.7,0-4.9,1.9-4.9,4.2v2c-4.5,1.7-7.8,5.3-8.6,9.6c-0.7,3.7,0.6,7.4,3.4,10.2
		c2.8,2.8,6.9,4.4,11.3,4.5c1.3,0,2.4,0.6,2.8,1.5c0.5,1.1,0,2-0.3,2.4c-0.5,0.7-1.5,1-2.4,1c-0.8,0-1.6-0.3-2.2-0.8
		c-1.2-1.2-2.9-1.8-4.6-1.8c-2.4,0-4.5,1.1-5.5,3c-1,1.8-0.7,3.9,0.9,5.5c1.5,1.5,3.2,2.6,5.2,3.3v1.9c0,2.3,2.2,4.2,4.9,4.2h2.6
		c2.7,0,4.9-1.9,4.9-4.2v-2c5-2,8.6-6.2,8.8-11.2c0.1-3.5-1.4-6.7-4.2-9.2C-197.1,393.4-200.9,392-205,392z M-199.6,414.8l-1.1,0.4
		v1v2c0,1.4-1.4,2.6-3,2.6h-2.6c-1.7,0-3-1.2-3-2.6v-1.9v-1l-1.1-0.4c-1.7-0.7-3.3-1.7-4.5-2.9c-1.1-1.1-1.3-2.5-0.6-3.7
		c0.7-1.3,2.1-2,3.8-2c1.2,0,2.4,0.5,3.2,1.3c0.9,0.9,2.2,1.4,3.6,1.4c1.6,0,3.1-0.6,4-1.7c0.9-1.1,1.1-2.5,0.5-3.9
		c-0.7-1.5-2.5-2.5-4.6-2.5c-3.8,0-7.4-1.4-9.9-3.9c-2.5-2.4-3.5-5.7-3-8.9c0.6-3.6,3.5-6.8,7.5-8.3l1.1-0.4v-1v-2
		c0-1.4,1.4-2.6,3-2.6h2.6c1.7,0,3,1.2,3,2.6v2v1l1.1,0.4c1.8,0.7,3.3,1.7,4.5,2.9c1.1,1.1,1.3,2.5,0.6,3.7c-0.7,1.3-2.1,2-3.8,2
		c-1.2,0-2.4-0.5-3.2-1.3c-0.9-0.9-2.2-1.4-3.6-1.4c-0.3,0-0.7,0-1,0.1c-1.9,0.3-3.4,1.6-3.7,3.2c-0.3,1.2,0.1,2.4,1,3.4
		c0.9,0.9,2.3,1.5,3.7,1.5c3.6,0,6.9,1.2,9.4,3.4c2.5,2.2,3.8,5,3.7,8C-192,409.2-195.1,413-199.6,414.8z"/>
	<path class="st4" d="M-206.9,378.6L-206.9,378.6c0.7-0.1,1.2-0.1,1.8-0.1l0.1,0c0.1,0,0.2,0,0.3,0c0.5,0,1,0,1.5,0.1
		c0.1,0,0.2,0,0.2,0l2.1,0.3V377v-0.9c0-1.3-1.3-2.4-2.8-2.4h-2.6c-1.6,0-2.8,1.1-2.8,2.4v0.9v1.9L-206.9,378.6L-206.9,378.6z
		 M-207.2,377v-0.9c0-0.4,0.4-0.8,0.9-0.8h2.6c0.5,0,0.9,0.3,0.9,0.8v0.9c-0.1,0-0.1,0-0.2,0c-0.6-0.1-1.1-0.1-1.7-0.1
		c-0.1,0-0.3,0-0.4,0c0,0-0.1,0-0.1,0c-0.6,0-1.3,0-1.9,0.1C-207.1,377-207.2,377-207.2,377z"/>
	<path class="st4" d="M-204.2,415.8c-0.3,0-0.5,0-0.8,0c-0.5,0-1.1,0-1.7-0.1l-0.1,0l-0.1,0l-2.2-0.3v1.9v0.9c0,1.3,1.3,2.4,2.8,2.4
		h2.6c1.6,0,2.8-1.1,2.8-2.4v-0.9v-1.9l-2.2,0.3C-203.5,415.7-203.9,415.7-204.2,415.8z M-202.8,418.2c0,0.4-0.4,0.8-0.9,0.8h-2.6
		c-0.5,0-0.9-0.3-0.9-0.8v-0.9c0.1,0,0.2,0,0.2,0c0.6,0.1,1.3,0.1,2,0.1c0.3,0,0.6,0,0.9,0c0.5,0,0.9-0.1,1.3-0.1V418.2z"/>
	<path class="st4" d="M-205,393.8c-1.5,0-2.9-0.6-3.9-1.5c-1-1-1.4-2.3-1.1-3.5c0.4-1.7,1.9-3,3.9-3.4c0.4-0.1,0.7-0.1,1.1-0.1
		c1.5,0,2.8,0.5,3.8,1.5c0.8,0.8,1.9,1.2,3,1.2c1.8,0,3.1-1,3.6-1.9c0.5-0.9,0.6-2.3-0.6-3.5c-1.5-1.5-3.4-2.6-5.7-3.2l-0.1,0
		c-0.4-0.1-0.9-0.2-1.4-0.3l-0.2,0c-0.4-0.1-0.9-0.1-1.3-0.2c-0.2,0-0.4,0-0.6,0l-0.2,0l-0.2,0c-0.2,0-0.3,0-0.6,0c0,0,0,0-0.1,0
		c-0.5,0-1.1,0-1.6,0.1c-0.6,0.1-1.3,0.2-2,0.4l0,0l-0.3,0.1c-4.5,1.3-7.8,4.7-8.5,8.6c-0.6,3.2,0.5,6.3,2.9,8.7
		c2.4,2.4,6,3.8,9.7,3.8c2.2,0,4.1,1.1,4.8,2.6c0.6,1.4,0.4,2.9-0.5,4c-0.9,1.2-2.5,1.8-4.1,1.8c-1.5,0-2.8-0.5-3.8-1.5
		c-0.8-0.8-1.9-1.2-3-1.2c-1.8,0-3.1,1-3.6,1.9c-0.5,0.9-0.6,2.3,0.6,3.5c1.5,1.5,3.4,2.6,5.6,3.3c0.8,0.2,1.5,0.4,2.2,0.5
		c0.1,0,0.2,0,0.4,0c0.4,0,0.8,0.1,1.1,0.1l0.1,0l0.1,0l0,0l0-1.6l0.2,1.6c0.3,0,0.7,0,1,0c0.6,0,1.3-0.1,1.9-0.3
		c0.2,0,0.3-0.1,0.5-0.1l0.1,0c5.3-1.3,9.2-5.5,9.3-10.1c0.1-3-1.2-5.8-3.6-7.9C-198.2,395-201.5,393.8-205,393.8z M-202,413.6
		c-0.2,0-0.4,0.1-0.6,0.1c-0.5,0.1-1.1,0.2-1.6,0.2c-0.3,0-0.6,0-0.9,0c0,0-0.1,0-0.1,0c0,0,0,0,0,0c-0.1,0-0.1,0-0.2,0
		c0,0,0,0-0.1,0c-0.3,0-0.6,0-1-0.1c-0.1,0-0.2,0-0.4,0c-0.6-0.1-1.2-0.2-1.8-0.4c-1.8-0.5-3.5-1.5-4.8-2.8
		c-0.8-0.8-0.4-1.6-0.3-1.8c0.1-0.2,0.6-1,1.8-1c0.6,0,1.1,0.2,1.6,0.6c1.3,1.3,3.2,2,5.2,2c2.3,0,4.4-0.9,5.7-2.5
		c1.3-1.6,1.6-3.6,0.8-5.5c-1-2.2-3.6-3.7-6.6-3.7c-3.2,0-6.2-1.2-8.3-3.3c-2.1-2.1-3-4.7-2.5-7.5c0.6-3.4,3.5-6.2,7.3-7.3
		c0,0,0,0,0,0c0,0,0,0,0,0c0,0,0,0,0,0c0.7-0.2,1.3-0.3,1.9-0.4c0.5-0.1,0.9-0.1,1.4-0.1c0,0,0.1,0,0.1,0c0.2,0,0.4,0,0.6,0
		c0.2,0,0.4,0,0.6,0c0.4,0,0.7,0.1,1.1,0.1c0.1,0,0.1,0,0.2,0c0.4,0.1,0.8,0.2,1.3,0.3c0,0,0,0,0,0c1.8,0.5,3.5,1.5,4.8,2.8
		c0.8,0.8,0.4,1.6,0.3,1.8c-0.1,0.2-0.6,1-1.8,1c-0.6,0-1.2-0.2-1.6-0.6c-1.3-1.3-3.2-2-5.2-2c-0.5,0-1,0-1.4,0.1
		c-2.7,0.5-4.9,2.3-5.4,4.6c-0.4,1.7,0.2,3.5,1.5,4.8c1.3,1.3,3.3,2.1,5.3,2.1c3,0,5.8,1,7.9,2.8c2.1,1.8,3.2,4.2,3.1,6.7
		C-194.2,409-197.6,412.5-202,413.6z"/>
	<path class="st5" d="M-207,377.8L-207,377.8c0.6-0.1,1.3-0.1,1.9-0.1l0.2,0l0,0c0.1,0,0.2,0,0.3,0c0.6,0,1.1,0,1.6,0.1
		c0.1,0,0.1,0,0.2,0c0,0,0,0,0,0l1.1,0.1V377v-0.9c0-0.9-0.8-1.6-1.9-1.6h-2.6c-1,0-1.9,0.7-1.9,1.6v0.9l0,0.9l1.1-0.1L-207,377.8z
		 M-207.2,376.1c0-0.4,0.4-0.8,0.9-0.8h2.6c0.5,0,0.9,0.3,0.9,0.8v0.9c-0.1,0-0.1,0-0.2,0c-0.6-0.1-1.1-0.1-1.7-0.1
		c-0.1,0-0.3,0-0.4,0c0,0-0.1,0-0.1,0c-0.6,0-1.3,0-1.9,0.1c0,0-0.1,0-0.1,0V376.1z"/>
	<path class="st5" d="M-204.2,416.6c-0.3,0-0.5,0-0.8,0c-0.6,0-1.1,0-1.8-0.1l-0.2,0l0,0l-1.1-0.1v0.9v0.9c0,0.9,0.8,1.6,1.9,1.6
		h2.6c1,0,1.9-0.7,1.9-1.6v-0.9v-0.9l-1.1,0.1C-203.4,416.5-203.8,416.5-204.2,416.6z M-202.8,418.2c0,0.4-0.4,0.8-0.9,0.8h-2.6
		c-0.5,0-0.9-0.3-0.9-0.8v-0.9c0.1,0,0.2,0,0.2,0c0.6,0.1,1.3,0.1,2,0.1c0.3,0,0.6,0,0.9,0c0.5,0,0.9-0.1,1.3-0.1V418.2z"/>
	<path class="st5" d="M-205,394.6c-1.8,0-3.5-0.7-4.6-1.8c-1.1-1.2-1.6-2.7-1.3-4.2c0.4-2,2.3-3.6,4.7-4c0.4-0.1,0.8-0.1,1.3-0.1
		c1.7,0,3.3,0.6,4.5,1.8c0.6,0.6,1.4,0.9,2.3,0.9c1.4,0,2.3-0.8,2.7-1.5c0.4-0.7,0.5-1.8-0.4-2.7c-1.4-1.4-3.2-2.4-5.2-3l-0.1,0
		c-0.4-0.1-0.9-0.2-1.3-0.3l-0.2,0c-0.4-0.1-0.8-0.1-1.2-0.2c-0.2,0-0.3,0-0.5,0l-0.2,0l-0.2,0c-0.1,0-0.3,0-0.5,0c0,0,0,0,0,0
		c-0.5,0-1,0-1.5,0.1c-0.6,0.1-1.2,0.2-1.9,0.4l0,0l-0.2,0c-4.1,1.2-7.2,4.3-7.9,8c-0.5,3,0.4,5.8,2.7,8.1c2.2,2.2,5.5,3.5,9,3.5
		c2.6,0,4.8,1.3,5.7,3.2c0.7,1.6,0.5,3.4-0.6,4.8c-1.1,1.4-3,2.2-4.9,2.2c-1.7,0-3.4-0.6-4.5-1.8c-0.6-0.6-1.4-0.9-2.3-0.9
		c-1.4,0-2.3,0.8-2.7,1.5c-0.2,0.3-0.7,1.5,0.4,2.7c1.4,1.4,3.2,2.4,5.2,3c0.7,0.2,1.4,0.3,2,0.4c0.1,0,0.2,0,0.3,0l0.1,0
		c0.3,0,0.7,0.1,1,0.1l0-0.8c-0.3,0-0.6,0-1-0.1c-0.1,0-0.2,0-0.4,0c-0.6-0.1-1.2-0.2-1.8-0.4c-1.8-0.5-3.5-1.5-4.8-2.8
		c-0.8-0.8-0.4-1.6-0.3-1.8c0.1-0.2,0.6-1,1.8-1c0.6,0,1.1,0.2,1.6,0.6c1.3,1.3,3.2,2,5.2,2c2.3,0,4.4-0.9,5.7-2.5
		c1.3-1.6,1.6-3.6,0.8-5.5c-1-2.2-3.6-3.7-6.6-3.7c-3.2,0-6.2-1.2-8.3-3.3c-2.1-2.1-3-4.7-2.5-7.5c0.6-3.4,3.5-6.2,7.3-7.3
		c0,0,0,0,0,0c0,0,0,0,0,0c0,0,0,0,0,0c0.7-0.2,1.3-0.3,1.9-0.4c0.5-0.1,0.9-0.1,1.4-0.1c0,0,0.1,0,0.1,0c0.2,0,0.4,0,0.6,0
		c0.2,0,0.4,0,0.6,0c0.4,0,0.7,0.1,1.1,0.1c0.1,0,0.1,0,0.2,0c0.4,0.1,0.8,0.2,1.3,0.3c0,0,0,0,0,0c1.8,0.5,3.5,1.5,4.8,2.8
		c0.8,0.8,0.4,1.6,0.3,1.8c-0.1,0.2-0.6,1-1.8,1c-0.6,0-1.2-0.2-1.6-0.6c-1.3-1.3-3.2-2-5.2-2c-0.5,0-1,0-1.4,0.1
		c-2.7,0.5-4.9,2.3-5.4,4.6c-0.4,1.7,0.2,3.5,1.5,4.8c1.3,1.3,3.3,2.1,5.3,2.1c3,0,5.8,1,7.9,2.8c2.1,1.8,3.2,4.2,3.1,6.7
		c-0.1,4-3.5,7.5-8,8.6c-0.2,0-0.4,0.1-0.6,0.1c-0.5,0.1-1.1,0.2-1.6,0.2c-0.3,0-0.6,0-0.9,0c0,0-0.1,0-0.1,0c0,0,0,0,0,0
		c-0.1,0-0.1,0-0.2,0c0,0,0,0-0.1,0l0.2,0.8l0-0.8l0.2,0.8c0.3,0,0.6,0,0.9,0c0.6,0,1.2-0.1,1.8-0.2c0.2,0,0.3-0.1,0.5-0.1l0.1,0
		c5-1.2,8.5-5.1,8.7-9.4c0.1-2.7-1.1-5.3-3.4-7.3C-198.7,395.7-201.8,394.6-205,394.6z"/>
	<path class="st5" d="M-205,392c-0.9,0-1.7-0.3-2.2-0.9c-0.6-0.6-0.8-1.3-0.6-2c0.2-0.9,1.1-1.7,2.2-1.9c0.2,0,0.4-0.1,0.6-0.1
		c0.8,0,1.6,0.3,2.2,0.9c1.2,1.2,2.9,1.8,4.6,1.8c2.4,0,4.5-1.1,5.5-3c1-1.8,0.7-3.9-0.9-5.5c-1.5-1.4-3.2-2.5-5.2-3.3v-2
		c0-2.3-2.2-4.2-4.9-4.2h-2.6c-2.7,0-4.9,1.9-4.9,4.2v2c-4.5,1.7-7.8,5.3-8.6,9.6c-0.7,3.7,0.6,7.4,3.4,10.2
		c2.8,2.8,6.9,4.4,11.3,4.5c1.3,0,2.4,0.6,2.8,1.5c0.5,1.1,0,2-0.3,2.4c-0.5,0.7-1.5,1-2.4,1c-0.8,0-1.6-0.3-2.2-0.8
		c-1.2-1.2-2.9-1.8-4.6-1.8c-2.4,0-4.5,1.1-5.5,3c-1,1.8-0.7,3.9,0.9,5.5c1.5,1.5,3.2,2.6,5.2,3.3v1.9c0,2.3,2.2,4.2,4.9,4.2h2.6
		c2.7,0,4.9-1.9,4.9-4.2v-2c5-2,8.6-6.2,8.8-11.2c0.1-3.5-1.4-6.7-4.2-9.2C-197.1,393.4-200.9,392-205,392z M-199.2,415.5l-0.6,0.2
		v0.5v2c0,1.9-1.8,3.4-4,3.4h-2.6c-2.2,0-4-1.5-4-3.4v-1.9v-0.5l-0.6-0.2c-1.9-0.7-3.5-1.8-4.9-3.1c-1.3-1.3-1.6-3.1-0.7-4.6
		c0.8-1.5,2.6-2.5,4.6-2.5c1.5,0,2.9,0.6,3.9,1.5c0.7,0.7,1.8,1.1,2.9,1.1c1.3,0,2.5-0.5,3.2-1.4c0.7-0.9,0.9-2,0.4-3.1
		c-0.5-1.2-2-2-3.7-2c-4.1,0-7.9-1.6-10.6-4.2c-2.6-2.6-3.8-6.1-3.2-9.5c0.7-3.9,3.7-7.3,8.1-9l0.6-0.2V378v-2c0-1.9,1.8-3.4,4-3.4
		h2.6c2.2,0,4,1.5,4,3.4v2v0.5l0.6,0.2c1.9,0.7,3.6,1.8,4.9,3.1c1.3,1.3,1.6,3.1,0.7,4.6c-0.8,1.5-2.6,2.5-4.6,2.5
		c-1.5,0-2.9-0.6-3.9-1.5c-0.7-0.7-1.8-1.1-2.9-1.1c-0.3,0-0.5,0-0.8,0.1c-1.5,0.3-2.7,1.3-3,2.6c-0.2,1,0.1,1.9,0.8,2.7
		c0.7,0.8,1.8,1.2,3,1.2c3.8,0,7.4,1.3,10.1,3.6c2.7,2.3,4.1,5.4,4,8.6C-191.1,409.5-194.3,413.6-199.2,415.5z"/>
</g>
</svg>
