<?xml version="1.0" encoding="utf-8"?>
<!-- Generator: Adobe Illustrator 19.0.0, SVG Export Plug-In . SVG Version: 6.00 Build 0)  -->
<svg version="1.1" id="Layer_1" xmlns="http://www.w3.org/2000/svg" xmlns:xlink="http://www.w3.org/1999/xlink" x="0px" y="0px"
	 viewBox="-255 347 100 100" style="enable-background:new -255 347 100 100;" xml:space="preserve">
<style type="text/css">
	.st0{fill:#8a92a6;}
	.st1{fill:#8a92a6;}
	.st2{fill:#8a92a6;}
	.st3{fill:#8a92a6;}
	.st4{fill:#8a92a6;}
</style>
<path class="st0" d="M-242.3,425.5c-0.5-0.4-1.1-0.4-1.5,0.1l-1.7,2.1c-0.3,0.4-0.2,1.1,0.2,1.4c0.5,0.4,1.1,0.4,1.5-0.1l1.7-2.1
	C-241.7,426.5-241.8,425.9-242.3,425.5z"/>
<path class="st0" d="M-166.7,400.9c0.3,0.5,0.9,0.8,1.4,0.6l7.3-3.7c0.5-0.2,0.6-0.9,0.4-1.4c-0.3-0.5-0.9-0.8-1.4-0.6l-7.3,3.7
	C-166.8,399.7-167,400.3-166.7,400.9z"/>
<path class="st0" d="M-168,417.7c-0.2-0.5-0.9-0.6-1.4-0.3c-0.5,0.3-0.8,0.9-0.5,1.4l2.6,5c0.2,0.5,0.9,0.6,1.4,0.3
	c0.5-0.3,0.8-0.9,0.5-1.4L-168,417.7z"/>
<path class="st0" d="M-244.1,418.3c-0.4-0.4-1.1-0.5-1.5-0.1l-3.7,3.4c-0.4,0.4-0.4,1,0,1.5c0.4,0.4,1.1,0.5,1.5,0.1l3.7-3.4
	C-243.6,419.4-243.6,418.8-244.1,418.3z"/>
<path class="st0" d="M-64.2,397.1c-0.6,0-1.1,0.4-1.1,1v3.5c0,0.5,0.5,1,1.1,1c0.6,0,1.1-0.4,1.1-1v-3.5
	C-63.1,397.6-63.6,397.1-64.2,397.1z"/>
<path class="st0" d="M-247,407.8C-247,407.8-247,407.8-247,407.8l0.1,0l0,0l7.6,1.2c0.2,0,0.3,0,0.4-0.2c0.1-0.1,0-0.3-0.1-0.4
	l-5.1-5.8c0,0-0.1-0.1-0.1-0.1c-0.1,0-0.1,0-0.1-0.1c0,0,0,0,0,0l-0.1,0l0,0l-7.6-1.2c-0.2,0-0.3,0-0.4,0.2c-0.1,0.1,0,0.3,0.1,0.4
	l5.1,5.8c0,0,0.1,0.1,0.1,0.1C-247.1,407.8-247,407.8-247,407.8z M-240.3,408.1l-6-1l2-3.6L-240.3,408.1z M-251,402.2l6,1l-2,3.6
	L-251,402.2z"/>
<path class="st0" d="M-72.3,371.3c-0.6,0-1.1,0.4-1.1,1v2.1c0,0.5,0.5,1,1.1,1c0.6,0,1.1-0.4,1.1-1v-2.1
	C-71.2,371.7-71.7,371.3-72.3,371.3z"/>
<path class="st1" d="M-246.9,408.2l7.7,1.2c0.3,0.1,0.6-0.1,0.8-0.3c0.1-0.2,0.1-0.6-0.1-0.8l-5.1-5.8c0,0,0,0,0,0
	c-0.1-0.1-0.2-0.2-0.3-0.2c-0.1-0.1-0.2-0.1-0.3-0.1c0,0,0,0,0,0l-7.7-1.2c-0.3-0.1-0.6,0.1-0.8,0.3c-0.1,0.2-0.1,0.6,0.1,0.8
	l5.1,5.8c0,0,0,0,0,0c0.1,0.1,0.2,0.2,0.3,0.2C-247.2,408.1-247.1,408.2-246.9,408.2C-246.9,408.2-246.9,408.2-246.9,408.2z
	 M-247,407.4l-5.1-5.8c0,0,0,0,0,0s0,0,0,0l7.5,1.2l0.1,0l0.1,0l0,0l5.1,5.8c0,0,0,0,0,0c0,0,0,0,0,0l-7.5-1.2l-0.1,0L-247,407.4
	L-247,407.4z"/>
<path class="st1" d="M-245,403.8l0.5-0.9l-1.2-0.2l-4.5-0.7l-1.8-0.3l1.2,1.4l3,3.4l0.8,0.9l0.5-0.9L-245,403.8z M-250.2,402.7
	l4.5,0.7l-1.5,2.7L-250.2,402.7z"/>
<path class="st1" d="M-164.5,422.2l-2.6-5c-0.5-0.9-1.7-1.2-2.7-0.7c-1,0.5-1.5,1.7-1,2.6l2.6,5c0.5,0.9,1.7,1.2,2.7,0.7
	C-164.5,424.3-164,423.1-164.5,422.2z M-169,418.3c0,0,0-0.1,0.1-0.1c0.1,0,0.1,0,0.1,0l2.6,5c0,0,0,0.1-0.1,0.1c-0.1,0-0.1,0-0.1,0
	L-169,418.3z"/>
<path class="st1" d="M-167.5,401.2c0.5,1,1.7,1.5,2.6,1l7.3-3.7c0.9-0.5,1.2-1.7,0.7-2.7c-0.5-1-1.7-1.5-2.6-1l-7.3,3.7
	C-167.7,399-168,400.2-167.5,401.2z M-158.5,396.7c0.1,0,0.1,0,0.1,0.1c0,0.1,0,0.1,0,0.1l-7.3,3.7c-0.1,0-0.1,0-0.1-0.1
	c0-0.1,0-0.1,0-0.1L-158.5,396.7z"/>
<path class="st1" d="M-243.4,417.7c-0.8-0.8-2-1-2.8-0.3l-3.7,3.4c-0.7,0.7-0.7,1.9,0.1,2.8c0.8,0.8,2,1,2.8,0.3l3.7-3.4
	C-242.6,419.8-242.6,418.6-243.4,417.7z M-248.4,422.5c0,0-0.1,0-0.2,0c0,0,0-0.1,0-0.2l3.7-3.4c0,0,0.1,0,0.2,0c0,0,0,0.1,0,0.2
	L-248.4,422.5z"/>
<path class="st1" d="M-64.2,396.3c-1.2,0-2.1,0.8-2.1,1.8v3.5c0,1,0.9,1.8,2.1,1.8c1.2,0,2.1-0.8,2.1-1.8v-3.5
	C-62.1,397.1-63.1,396.3-64.2,396.3z M-64.1,401.6c0,0.1-0.1,0.1-0.1,0.1c-0.1,0-0.1,0-0.1-0.1v-3.5c0-0.1,0.1-0.1,0.1-0.1
	c0.1,0,0.1,0,0.1,0.1V401.6z"/>
<path class="st1" d="M-241.8,424.8c-0.9-0.7-2.1-0.7-2.8,0.1l-1.7,2.1c-0.6,0.8-0.4,2,0.5,2.7c0.9,0.7,2.1,0.7,2.8-0.1l1.7-2.1
	C-240.7,426.8-240.9,425.6-241.8,424.8z M-244.5,428.4c0,0-0.1,0-0.2,0c0,0-0.1-0.1,0-0.2l1.7-2.1c0,0,0.1,0,0.2,0
	c0,0,0.1,0.1,0,0.2L-244.5,428.4z"/>
<path class="st1" d="M-241.2,408.3l1.8,0.3l-1.2-1.4l-3-3.4l-0.8-0.9l-0.5,0.9l-1.5,2.7l-0.5,0.9l1.2,0.2L-241.2,408.3z
	 M-244.2,404.2l3,3.4l-4.5-0.7L-244.2,404.2z"/>
<path class="st1" d="M-72.3,370.4c-1.2,0-2.1,0.8-2.1,1.8v2.1c0,1,0.9,1.8,2.1,1.8c1.2,0,2.1-0.8,2.1-1.8v-2.1
	C-70.2,371.2-71.2,370.4-72.3,370.4z M-72.2,374.3c0,0.1-0.1,0.1-0.1,0.1c-0.1,0-0.1,0-0.1-0.1v-2.1c0-0.1,0.1-0.1,0.1-0.1
	c0.1,0,0.1,0,0.1,0.1V374.3z"/>
<path class="st2" d="M-164.5,422.2l-2.6-5c-0.5-0.9-1.7-1.2-2.7-0.7c-1,0.5-1.5,1.7-1,2.6l2.6,5c0.5,0.9,1.7,1.2,2.7,0.7
	C-164.5,424.3-164,423.1-164.5,422.2z M-167.3,423.7l-2.6-5c-0.2-0.5,0-1.1,0.5-1.4c0.5-0.3,1.2-0.1,1.4,0.3l2.6,5
	c0.2,0.5,0,1.1-0.5,1.4C-166.4,424.3-167.1,424.2-167.3,423.7z"/>
<path class="st2" d="M-167.5,401.2c0.5,1,1.7,1.5,2.6,1l7.3-3.7c0.9-0.5,1.2-1.7,0.7-2.7c-0.5-1-1.7-1.5-2.6-1l-7.3,3.7
	C-167.7,399-168,400.2-167.5,401.2z M-159,395.8c0.5-0.2,1.1,0,1.4,0.6c0.3,0.5,0.1,1.2-0.4,1.4l-7.3,3.7c-0.5,0.2-1.1,0-1.4-0.6
	c-0.3-0.5-0.1-1.2,0.4-1.4L-159,395.8z"/>
<path class="st2" d="M-243.4,417.7c-0.8-0.8-2-1-2.8-0.3l-3.7,3.4c-0.7,0.7-0.7,1.9,0.1,2.8c0.8,0.8,2,1,2.8,0.3l3.7-3.4
	C-242.6,419.8-242.6,418.6-243.4,417.7z M-247.7,423.2c-0.4,0.4-1,0.3-1.5-0.1c-0.4-0.4-0.4-1.1,0-1.5l3.7-3.4
	c0.4-0.4,1-0.3,1.5,0.1s0.4,1.1,0,1.5L-247.7,423.2z"/>
<path class="st2" d="M-246.9,408.2l7.7,1.2c0.3,0.1,0.6-0.1,0.8-0.3c0.1-0.2,0.1-0.6-0.1-0.8l-5.1-5.8c0,0,0,0,0,0
	c-0.1-0.1-0.2-0.2-0.3-0.2c-0.1-0.1-0.2-0.1-0.3-0.1c0,0,0,0,0,0l-7.7-1.2c-0.3-0.1-0.6,0.1-0.8,0.3c-0.1,0.2-0.1,0.6,0.1,0.8
	l5.1,5.8c0,0,0,0,0,0c0.1,0.1,0.2,0.2,0.3,0.2C-247.2,408.1-247.1,408.2-246.9,408.2C-246.9,408.2-246.9,408.2-246.9,408.2z
	 M-247.3,407.7L-247.3,407.7l-5.1-5.8c-0.1-0.1-0.1-0.3-0.1-0.4c0.1-0.1,0.2-0.2,0.4-0.2l7.6,1.2l0,0l0.1,0c0.1,0,0.1,0,0.2,0.1
	c0.1,0,0.1,0.1,0.1,0.1l0,0l5.1,5.8c0.1,0.1,0.1,0.3,0.1,0.4c-0.1,0.1-0.2,0.2-0.4,0.2l-7.6-1.2l0,0l-0.1,0c-0.1,0-0.1,0-0.2-0.1
	C-247.2,407.7-247.2,407.7-247.3,407.7z"/>
<path class="st2" d="M-64.2,396.3c-1.2,0-2.1,0.8-2.1,1.8v3.5c0,1,0.9,1.8,2.1,1.8c1.2,0,2.1-0.8,2.1-1.8v-3.5
	C-62.1,397.1-63.1,396.3-64.2,396.3z M-63.1,401.6c0,0.5-0.5,1-1.1,1c-0.6,0-1.1-0.4-1.1-1v-3.5c0-0.5,0.5-1,1.1-1
	c0.6,0,1.1,0.4,1.1,1V401.6z"/>
<path class="st2" d="M-241.2,408l0.9,0.1l-0.6-0.7l-3-3.4l-0.4-0.5l-0.2,0.5l-1.5,2.7l-0.2,0.5l0.6,0.1L-241.2,408z M-244.2,404.2
	l3,3.4l-4.5-0.7L-244.2,404.2z"/>
<path class="st2" d="M-245.3,403.6l0.2-0.5l-0.6-0.1l-4.5-0.7l-0.9-0.1l0.6,0.7l3,3.4l0.4,0.5l0.2-0.5L-245.3,403.6z M-250.2,402.7
	l4.5,0.7l-1.5,2.7L-250.2,402.7z"/>
<path class="st2" d="M-72.3,370.4c-1.2,0-2.1,0.8-2.1,1.8v2.1c0,1,0.9,1.8,2.1,1.8c1.2,0,2.1-0.8,2.1-1.8v-2.1
	C-70.2,371.2-71.2,370.4-72.3,370.4z M-71.2,374.3c0,0.5-0.5,1-1.1,1c-0.6,0-1.1-0.4-1.1-1v-2.1c0-0.5,0.5-1,1.1-1
	c0.6,0,1.1,0.4,1.1,1V374.3z"/>
<path class="st2" d="M-241.8,424.8c-0.9-0.7-2.1-0.7-2.8,0.1l-1.7,2.1c-0.6,0.8-0.4,2,0.5,2.7c0.9,0.7,2.1,0.7,2.8-0.1l1.7-2.1
	C-240.7,426.8-240.9,425.6-241.8,424.8z M-243.8,429c-0.3,0.4-1,0.4-1.5,0.1c-0.5-0.4-0.6-1-0.2-1.4l1.7-2.1c0.3-0.4,1-0.4,1.5-0.1
	c0.5,0.4,0.6,1,0.2,1.4L-243.8,429z"/>
<path class="st0" d="M-158.2,409.1C-158.2,409.1-158.2,409.1-158.2,409.1l-0.1,0l0,0l-8.5-4.5c-0.2-0.1-0.5-0.1-0.7,0.1
	c-0.2,0.1-0.4,0.4-0.4,0.6l0.1,9.3c0,0.1,0,0.1,0.1,0.2c0,0.1,0.1,0.1,0.1,0.1c0,0,0,0,0,0l0.1,0l0,0l8.5,4.5
	c0.2,0.1,0.5,0.1,0.7-0.1c0.2-0.1,0.4-0.4,0.4-0.6l-0.1-9.3c0-0.1,0-0.1-0.1-0.2C-158.1,409.2-158.2,409.1-158.2,409.1z
	 M-166.6,406.1l6.7,3.5l-6.6,3.7L-166.6,406.1z M-159.3,417.8l-6.7-3.5l6.6-3.7L-159.3,417.8z"/>
<path class="st1" d="M-157.9,408.6l-8.6-4.5c-0.4-0.2-0.9-0.2-1.4,0.1c-0.5,0.3-0.7,0.7-0.7,1.1l0.1,9.3c0,0,0,0,0,0
	c0,0.1,0,0.3,0.1,0.4c0.1,0.1,0.2,0.2,0.3,0.3c0,0,0,0,0,0l8.6,4.5c0.4,0.2,0.9,0.2,1.4-0.1c0.5-0.3,0.7-0.7,0.7-1.1l-0.1-9.3
	c0,0,0,0,0,0c0-0.1,0-0.3-0.1-0.4S-157.7,408.7-157.9,408.6C-157.9,408.6-157.9,408.6-157.9,408.6z M-158.6,409.6l0.1,9.2
	c0,0,0,0,0,0.1c0,0-0.1,0-0.1,0l-8.4-4.4l0-0.1l-0.1-0.1l0-0.1l-0.1-9.2c0,0,0,0,0-0.1c0,0,0.1,0,0.1,0l8.4,4.4l0,0.1L-158.6,409.6
	L-158.6,409.6z"/>
<path class="st1" d="M-165.4,413.4l-1.7,0.9l1.4,0.7l5,2.6l2,1.1l0-2.2l-0.1-5.4l0-1.5l-1.7,0.9L-165.4,413.4z M-159.9,416.8l-5-2.6
	l4.9-2.8L-159.9,416.8z"/>
<path class="st1" d="M-165.2,406.2l-2-1.1l0,2.2l0.1,5.4l0,1.5l1.7-0.9l4.9-2.8l1.7-0.9l-1.4-0.7L-165.2,406.2z M-165.9,412.5
	l-0.1-5.4l5,2.6L-165.9,412.5z"/>
<path class="st2" d="M-157.9,408.6l-8.6-4.5c-0.4-0.2-0.9-0.2-1.4,0.1c-0.5,0.3-0.7,0.7-0.7,1.1l0.1,9.3c0,0,0,0,0,0
	c0,0.1,0,0.3,0.1,0.4c0.1,0.1,0.2,0.2,0.3,0.3c0,0,0,0,0,0l8.6,4.5c0.4,0.2,0.9,0.2,1.4-0.1c0.5-0.3,0.7-0.7,0.7-1.1l-0.1-9.3
	c0,0,0,0,0,0c0-0.1,0-0.3-0.1-0.4S-157.7,408.7-157.9,408.6C-157.9,408.6-157.9,408.6-157.9,408.6z M-158,409.4L-158,409.4l0.1,9.3
	c0,0.2-0.1,0.4-0.4,0.6s-0.5,0.2-0.7,0.1l-8.5-4.5l0,0l-0.1,0c-0.1,0-0.1-0.1-0.2-0.1c0-0.1-0.1-0.1-0.1-0.2l0,0l-0.1-9.3
	c0-0.2,0.1-0.4,0.4-0.6s0.5-0.2,0.7-0.1l8.5,4.5l0,0l0.1,0c0.1,0,0.1,0.1,0.2,0.1C-158.1,409.3-158,409.3-158,409.4z"/>
<path class="st2" d="M-165.6,406.7l-1-0.5l0,1.1l0.1,5.4l0,0.7l0.8-0.5l4.9-2.8l0.8-0.5l-0.7-0.4L-165.6,406.7z M-165.9,412.5
	l-0.1-5.4l5,2.6L-165.9,412.5z"/>
<path class="st2" d="M-165.1,413.8l-0.8,0.5l0.7,0.4l5,2.6l1,0.5l0-1.1l-0.1-5.4l0-0.7l-0.8,0.5L-165.1,413.8z M-159.9,416.8l-5-2.6
	l4.9-2.8L-159.9,416.8z"/>
<path class="st0" d="M-245.8,417.5C-245.8,417.5-245.8,417.5-245.8,417.5L-245.8,417.5l0.1-0.1l6.9-3.7c0.2-0.1,0.3-0.3,0.2-0.4
	c0-0.2-0.1-0.3-0.3-0.4l-7.6-2.2c-0.1,0-0.1,0-0.2,0c-0.1,0-0.1,0-0.1,0c0,0,0,0,0,0l-0.1,0.1l0,0l-6.9,3.7
	c-0.2,0.1-0.3,0.3-0.2,0.4c0,0.2,0.1,0.3,0.3,0.4l7.6,2.2c0.1,0,0.1,0,0.2,0C-245.8,417.5-245.8,417.5-245.8,417.5z M-240.1,413.5
	l-5.4,2.9l-0.5-4.7L-240.1,413.5z M-252.4,414.7l5.4-2.9l0.5,4.7L-252.4,414.7z"/>
<path class="st1" d="M-245.5,417.8l6.9-3.7c0.3-0.2,0.5-0.5,0.4-0.8c0-0.3-0.3-0.6-0.6-0.7l-7.6-2.2c0,0,0,0,0,0c-0.1,0-0.2,0-0.4,0
	c-0.1,0-0.2,0-0.3,0.1c0,0,0,0,0,0l-6.9,3.7c-0.3,0.2-0.5,0.5-0.4,0.8c0,0.3,0.3,0.6,0.6,0.7l7.6,2.2c0,0,0,0,0,0c0.1,0,0.2,0,0.4,0
	C-245.7,417.9-245.6,417.8-245.5,417.8C-245.5,417.8-245.5,417.8-245.5,417.8z M-246,417.1l-7.5-2.2c0,0,0,0,0,0c0,0,0,0,0,0
	l6.8-3.7l0.1,0l0.1-0.1l0,0l7.5,2.2c0,0,0,0,0,0c0,0,0,0,0,0l-6.8,3.7l-0.1,0L-246,417.1L-246,417.1z"/>
<path class="st1" d="M-246.5,412.4l-0.1-1.2l-1.1,0.6l-4.1,2.2l-1.6,0.9l1.8,0.5l4.4,1.3l1.2,0.4l-0.1-1.2L-246.5,412.4z
	 M-251.4,414.6l4.1-2.2l0.4,3.5L-251.4,414.6z"/>
<path class="st1" d="M-240.7,414.2l1.6-0.9l-1.8-0.5l-4.4-1.3l-1.2-0.4l0.1,1.2l0.4,3.5l0.1,1.2l1.1-0.6L-240.7,414.2z
	 M-245.6,412.3l4.4,1.3l-4.1,2.2L-245.6,412.3z"/>
<path class="st2" d="M-245.5,417.8l6.9-3.7c0.3-0.2,0.5-0.5,0.4-0.8c0-0.3-0.3-0.6-0.6-0.7l-7.6-2.2c0,0,0,0,0,0c-0.1,0-0.2,0-0.4,0
	c-0.1,0-0.2,0-0.3,0.1c0,0,0,0,0,0l-6.9,3.7c-0.3,0.2-0.5,0.5-0.4,0.8c0,0.3,0.3,0.6,0.6,0.7l7.6,2.2c0,0,0,0,0,0c0.1,0,0.2,0,0.4,0
	C-245.7,417.9-245.6,417.8-245.5,417.8C-245.5,417.8-245.5,417.8-245.5,417.8z M-246.1,417.5L-246.1,417.5l-7.6-2.2
	c-0.2-0.1-0.3-0.2-0.3-0.4s0.1-0.3,0.2-0.4l6.9-3.7l0,0l0.1,0c0.1,0,0.1,0,0.2-0.1c0.1,0,0.1,0,0.2,0l0,0l7.5,2.2
	c0.2,0.1,0.3,0.2,0.3,0.4c0,0.2-0.1,0.3-0.2,0.4l-6.9,3.7l0,0l-0.1,0c-0.1,0-0.1,0-0.2,0.1C-246,417.5-246,417.5-246.1,417.5z"/>
<path class="st2" d="M-240.9,413.9l0.8-0.4l-0.9-0.3l-4.4-1.3l-0.6-0.2l0.1,0.6l0.4,3.5l0.1,0.6l0.5-0.3L-240.9,413.9z
	 M-245.6,412.3l4.4,1.3l-4.1,2.2L-245.6,412.3z"/>
<path class="st2" d="M-246.9,412.4l-0.1-0.6l-0.6,0.3l-4.1,2.2l-0.8,0.4l0.9,0.3l4.4,1.3l0.6,0.2l-0.1-0.6L-246.9,412.4z
	 M-251.4,414.6l4.1-2.2l0.4,3.5L-251.4,414.6z"/>
<path class="st3" d="M-171.5,397.6l-9.3-3.5l-0.1,0c-0.1,0-0.1,0-0.2,0l-0.1,0c-0.1,0-0.1,0-0.2,0.1l-6.1,3.5
	c-0.2,0.1-0.3,0.4-0.3,0.6v1.6h-7.3v-10.3h1.6c0.2,0,0.4-0.1,0.5-0.3l3.3-5.6c0,0,0-0.1,0.1-0.2c0-0.1,0-0.1,0-0.2c0,0,0-0.1,0-0.1
	l-0.1-0.2l-3.3-6.9c-0.1-0.2-0.3-0.4-0.6-0.4h-5.9v-4.4h10.3c2.2,0,4-1.9,4-4.3c0-2.4-1.8-4.3-4-4.3h-30.4c-2.2,0-4,1.9-4,4.3
	c0,2.4,1.8,4.3,4,4.3h10.3v4.4h-5.9c-0.2,0-0.5,0.1-0.6,0.4l-3.3,6.9l0,0.1l0,0.2c0,0.1,0,0.1,0,0.2c0,0,0,0.1,0.1,0.2l0,0l3.3,5.6
	c0.1,0.2,0.3,0.3,0.5,0.3h1.6v10.3h-7.3v-1.6c0-0.3-0.1-0.5-0.3-0.6l-6.1-3.6c0,0-0.1-0.1-0.2-0.1l-0.1,0c-0.1,0-0.1,0-0.2,0l-0.1,0
	l-9.3,3.5c-0.3,0.1-0.4,0.4-0.4,0.7v21.4c0,0.3,0.2,0.6,0.4,0.7l9.3,3.5l0,0l0.1,0c0.1,0,0.1,0,0.2,0c0.1,0,0.1,0,0.2,0l0.1,0
	l6.1-3.6c0.2-0.1,0.3-0.4,0.3-0.6v-1.6h33.1v1.6c0,0.3,0.1,0.5,0.3,0.6l6.1,3.6l0.1,0c0.1,0,0.1,0,0.2,0c0.1,0,0.1,0,0.2,0l9.4-3.5
	c0.3-0.1,0.4-0.4,0.4-0.7v-21.4C-171.1,397.9-171.3,397.7-171.5,397.6z M-228.3,422.2l-8.1-3.1v-20.4l8.1-3.1V422.2z M-222.2,419.2
	l-4.8,2.8v-26.2l4.8,2.8V419.2z M-219.6,369.9c-1.5,0-2.7-1.3-2.7-2.9c0-1.6,1.2-2.9,2.7-2.9h30.4c1.5,0,2.7,1.3,2.7,2.9
	c0,1.6-1.2,2.9-2.7,2.9H-219.6z M-200.8,371.3v4.4h-7.2v-4.4H-200.8z M-214.8,377.1h20.8l2.6,5.5h-26.1L-214.8,377.1z M-214.8,388.2
	l-2.5-4.2h25.8l-2.5,4.2H-214.8z M-187.8,416.7h-33.1v-15.5h8c0.4,0,0.6-0.3,0.6-0.7v-10.9h15.9v10.9c0,0.4,0.3,0.7,0.6,0.7h8V416.7
	z M-181.7,422l-4.8-2.8v-20.6l4.8-2.8V422z M-172.4,419.1l-8.1,3.1v-26.6l8.1,3.1V419.1z"/>
<path class="st4" d="M-171.4,397.1l-9.4-3.5c0,0,0,0,0,0c0,0,0,0,0,0c0,0,0,0,0,0c-0.1,0-0.2-0.1-0.3-0.1c0,0-0.1,0-0.1,0
	c0,0,0,0-0.1,0c-0.1,0-0.2,0.1-0.3,0.1l-6.1,3.5c-0.4,0.2-0.6,0.6-0.6,1.1v1.1h-6.4v-9.2h1.1c0.4,0,0.7-0.2,0.9-0.6l3.3-5.6
	c0,0,0,0,0,0c0,0,0,0,0,0c0-0.1,0.1-0.1,0.1-0.2c0,0,0,0,0-0.1c0-0.1,0-0.2,0-0.3c0,0,0,0,0-0.1c0-0.1,0-0.2,0-0.2c0,0,0-0.1,0-0.1
	c0,0,0,0,0,0l-0.8,0.3l0,0l0,0l-0.1,0l0,0l0,0c0,0,0,0,0,0l0,0l0,0.1l-0.1,0.1l0,0l-3.2,5.5c0,0.1-0.1,0.1-0.1,0.1h-1.1h-0.9v1v9.2
	v1h0.9h6.4h0.9v-1v-1.1c0-0.1,0-0.1,0.1-0.2l6.1-3.5c0,0,0,0,0.1,0l0.1,0l0,0l0.1,0l9.2,3.5c0.1,0,0.1,0.1,0.1,0.2v21.4
	c0,0.1,0,0.2-0.1,0.2l-9.3,3.5l0,0l-0.1,0l-0.1,0l0,0l0,0l-0.1,0l-6-3.5c-0.1,0-0.1-0.1-0.1-0.2v-1.1v-1h-0.9h-32.2h-0.9v1v1.1
	c0,0.1,0,0.1-0.1,0.2l-6,3.5l-0.1,0l-0.1,0l-0.1,0l-9.3-3.5c-0.1,0-0.1-0.1-0.1-0.2v-21.4c0-0.1,0-0.2,0.1-0.2l9.2-3.5h0l0.1-0.1
	l0,0l0,0l0-0.1l-0.3-0.9c0,0,0,0,0,0c0,0,0,0,0,0c0,0,0,0,0,0l-9.4,3.5c-0.4,0.2-0.7,0.6-0.7,1.1v21.4c0,0.5,0.3,1,0.7,1.1l9.4,3.5
	c0,0,0,0,0,0c0.1,0,0.2,0.1,0.3,0.1c0.1,0,0.2,0,0.3-0.1c0,0,0.1,0,0.1,0c0,0,0.1,0,0.1-0.1l6.1-3.5c0.4-0.2,0.6-0.6,0.6-1.1v-1.1
	h32.2v1.1c0,0.4,0.2,0.8,0.6,1.1l6.1,3.5c0,0,0.1,0,0.1,0.1c0,0,0.1,0,0.1,0c0.1,0,0.2,0.1,0.3,0.1c0.1,0,0.2,0,0.3-0.1c0,0,0,0,0,0
	l9.4-3.5c0.4-0.2,0.7-0.6,0.7-1.1v-21.4C-170.6,397.7-170.9,397.3-171.4,397.1z"/>
<path class="st4" d="M-172.5,419.7l0.6-0.2v-0.7v-19.7v-0.7l-0.6-0.2l-7.1-2.7l-1.2-0.5v1.4v25.1v1.4l1.2-0.5L-172.5,419.7z
	 M-180,396.4l7.1,2.7v19.7l-7.1,2.7V396.4z"/>
<path class="st4" d="M-236.2,398.1l-0.6,0.2v0.7v19.7v0.7l0.6,0.2l7.1,2.7l1.2,0.5v-1.4v-25.1v-1.4l-1.2,0.5L-236.2,398.1z
	 M-228.8,421.5l-7.1-2.7v-19.7l7.1-2.7V421.5z"/>
<polygon class="st4" points="-189.3,382.8 -189.3,382.8 -189.3,382.8 "/>
<path class="st4" d="M-192.1,383.1h1.5l-0.7-1.5l-2.1-4.5l-0.3-0.5h-0.6h-5.9h-8.5h-5.9h-0.6l-0.3,0.5l-2.1,4.5l-0.7,1.5h1.5H-192.1
	z M-214.5,377.6h5.9h8.5h5.9l2.1,4.5h-24.5L-214.5,377.6z"/>
<path class="st4" d="M-227.6,394.5L-227.6,394.5l6.1,3.5c0.1,0,0.1,0.1,0.1,0.2v1.1v1h0.9h6.4h0.9v-1v-9.2v-1h-0.9h-1.1
	c-0.1,0-0.1,0-0.1-0.1l-3.2-5.5l0,0l0-0.1l0,0l0,0l0,0l0,0l0,0l0,0l0-0.1l0,0h0h0l3.3-6.8c0-0.1,0.1-0.1,0.2-0.1h5.4h0.9v-1v-3.4v-1
	h-0.9h-9.8c-1.9,0-3.5-1.7-3.5-3.8c0-2.1,1.6-3.8,3.5-3.8h30.4c1.9,0,3.5,1.7,3.5,3.8c0,2.1-1.6,3.8-3.5,3.8h-9.8h-0.9v1v3.4v1h0.9
	h5.4c0.1,0,0.1,0,0.2,0.1l3.3,6.8l0.9-0.3c0,0,0-0.1,0-0.1l-3.3-6.9c-0.2-0.4-0.6-0.6-1-0.6h-5.4v-3.4h9.8c2.4,0,4.4-2.1,4.4-4.8
	c0-2.6-2-4.8-4.4-4.8h-30.4c-2.4,0-4.4,2.1-4.4,4.8c0,2.6,2,4.8,4.4,4.8h9.8v3.4h-5.4c-0.4,0-0.8,0.2-1,0.6l-3.3,6.9
	c0,0.1,0,0.1-0.1,0.2c0,0,0,0.1,0,0.1c0,0.1,0,0.1,0,0.2c0,0,0,0.1,0,0.1c0,0.1,0,0.2,0,0.3c0,0,0,0,0,0.1c0,0.1,0.1,0.2,0.1,0.2
	c0,0,0,0,0,0c0,0,0,0,0,0l3.3,5.6c0.2,0.3,0.6,0.6,0.9,0.6h1.1v9.2h-6.4v-1.1c0-0.4-0.2-0.8-0.6-1.1l-6.1-3.5
	c-0.1-0.1-0.2-0.1-0.3-0.1c0,0,0,0-0.1,0c0,0-0.1,0-0.1,0c-0.1,0-0.2,0-0.3,0.1L-227.6,394.5C-227.6,394.5-227.6,394.5-227.6,394.5z
	"/>
<path class="st4" d="M-208.5,370.8v1v3.4v1h0.9h6.3h0.9v-1v-3.4v-1h-0.9h-6.3H-208.5z M-201.2,375.2h-6.3v-3.4h6.3V375.2z"/>
<path class="st4" d="M-188.3,417.2h0.9v-1v-14.5v-1h-0.9h-7.5c-0.1,0-0.2-0.1-0.2-0.2v-10.4v-1h-0.9h-15h-0.9v1v10.4
	c0,0.1-0.1,0.2-0.2,0.2h-7.5h-0.9v1v14.5v1h0.9H-188.3z M-220.5,401.7h7.5c0.6,0,1.1-0.5,1.1-1.2v-10.4h15v10.4
	c0,0.7,0.5,1.2,1.1,1.2h7.5v14.5h-32.2V401.7z"/>
<path class="st4" d="M-182.7,422.1l1.4,0.8v-1.7v-24.5V395l-1.4,0.8l-3.9,2.3l-0.5,0.3v0.6v1.6v16.9v1.6v0.6l0.5,0.3L-182.7,422.1z
	 M-186.1,417.4v-16.9v-1.6l3.9-2.3v24.5l-3.9-2.2V417.4z"/>
<path class="st4" d="M-222.2,419.8l0.5-0.3v-0.6v-1.6v-16.9v-1.6v-0.6l-0.5-0.3l-3.9-2.3l-1.4-0.8v1.7v24.5v1.7l1.4-0.8
	L-222.2,419.8z M-226.5,396.7l3.9,2.3v1.6v16.9v1.6l-3.9,2.2V396.7z"/>
<path class="st4" d="M-195.8,388.7h1.6h0.5l0.3-0.5l1.9-3.2l0.9-1.5h-1.7h-24.2h-1.7l0.9,1.5l1.9,3.2l0.3,0.5h0.5h1.6H-195.8z
	 M-216.5,384.4h24.2l-1.9,3.2h-1.6H-213h-1.6L-216.5,384.4z"/>
<path class="st4" d="M-200.1,370.4h11c1.7,0,3.1-1.5,3.1-3.4c0-1.9-1.4-3.4-3.1-3.4h-30.4c-1.7,0-3.1,1.5-3.1,3.4
	c0,1.9,1.4,3.4,3.1,3.4h11H-200.1z M-221.8,367c0-1.3,1-2.4,2.2-2.4h30.4c1.2,0,2.2,1.1,2.2,2.4c0,1.3-1,2.4-2.2,2.4h-11h-8.5h-11
	C-220.8,369.4-221.8,368.3-221.8,367z"/>
<polygon class="st2" points="-187,408.7 -187,408.7 -187,408.7 "/>
<path class="st2" d="M-200.1,369.9h11c1.5,0,2.7-1.3,2.7-2.9c0-1.6-1.2-2.9-2.7-2.9h-30.4c-1.5,0-2.7,1.3-2.7,2.9
	c0,1.6,1.2,2.9,2.7,2.9h11H-200.1z M-221.8,367c0-1.3,1-2.4,2.2-2.4h30.4c1.2,0,2.2,1.1,2.2,2.4c0,1.3-1,2.4-2.2,2.4h-11h-8.5h-11
	C-220.8,369.4-221.8,368.3-221.8,367z"/>
<path class="st2" d="M-172.7,419.3l0.3-0.1v-0.4v-19.7v-0.4l-0.3-0.1l-7.1-2.7l-0.6-0.2v0.7v25.1v0.7l0.6-0.2L-172.7,419.3z
	 M-180,396.4l7.1,2.7v19.7l-7.1,2.7V396.4z"/>
<path class="st2" d="M-226.3,396.2l-0.7-0.4v0.8v24.5v0.8l0.7-0.4l3.9-2.2l0.2-0.1v-0.3v-1.6v-16.9v-1.6v-0.3l-0.2-0.1L-226.3,396.2
	z M-222.7,400.5v16.9v1.6l-3.9,2.2v-24.5l3.9,2.3V400.5z"/>
<path class="st2" d="M-236.1,398.6l-0.3,0.1v0.4v19.7v0.4l0.3,0.1l7.1,2.7l0.6,0.2v-0.7v-25.1v-0.7l-0.6,0.2L-236.1,398.6z
	 M-228.8,421.5l-7.1-2.7v-19.7l7.1-2.7V421.5z"/>
<path class="st2" d="M-186.3,398.5l-0.2,0.1v0.3v1.6v16.9v1.6v0.3l0.2,0.1l3.9,2.2l0.7,0.4v-0.8v-24.5v-0.8l-0.7,0.4L-186.3,398.5z
	 M-182.2,421.2l-3.9-2.2v-1.6v-16.9v-1.6l3.9-2.3V421.2z"/>
<path class="st2" d="M-195.8,401.2c-0.4,0-0.6-0.3-0.6-0.7v-10.4v-0.5h-0.5h-15h-0.5v0.5v10.4c0,0.4-0.3,0.7-0.6,0.7h-7.5h-0.5v0.5
	v14.5v0.5h0.5h32.2h0.5v-0.5v-14.5v-0.5h-0.5H-195.8z M-188.3,416.2h-32.2v-14.5h7.5c0.6,0,1.1-0.5,1.1-1.2v-10.4h15v10.4
	c0,0.7,0.5,1.2,1.1,1.2h7.5V416.2z"/>
<path class="st2" d="M-171.4,397.1l-9.4-3.5c0,0,0,0,0,0c0,0,0,0,0,0c0,0,0,0,0,0c-0.1,0-0.2-0.1-0.3-0.1c0,0-0.1,0-0.1,0
	c0,0,0,0-0.1,0c-0.1,0-0.2,0.1-0.3,0.1l-6.1,3.5c-0.4,0.2-0.6,0.6-0.6,1.1v1.1h-6.4v-9.2h1.1c0.4,0,0.7-0.2,0.9-0.6l3.3-5.6
	c0,0,0,0,0,0c0,0,0,0,0,0c0-0.1,0.1-0.1,0.1-0.2c0,0,0,0,0-0.1c0-0.1,0-0.2,0-0.3c0,0,0,0,0-0.1c0-0.1,0-0.2,0-0.2c0,0,0-0.1,0-0.1
	c0-0.1,0-0.1-0.1-0.2l-3.3-6.9c-0.2-0.4-0.6-0.6-1-0.6h-5.4v-3.4h9.8c2.4,0,4.4-2.1,4.4-4.8c0-2.6-2-4.8-4.4-4.8h-30.4
	c-2.4,0-4.4,2.1-4.4,4.8c0,2.6,2,4.8,4.4,4.8h9.8v3.4h-5.4c-0.4,0-0.8,0.2-1,0.6l-3.3,6.9c0,0.1,0,0.1-0.1,0.2c0,0,0,0.1,0,0.1
	c0,0.1,0,0.1,0,0.2c0,0,0,0.1,0,0.1c0,0.1,0,0.2,0,0.3c0,0,0,0,0,0.1c0,0.1,0.1,0.2,0.1,0.2c0,0,0,0,0,0c0,0,0,0,0,0l3.3,5.6
	c0.2,0.3,0.6,0.6,0.9,0.6h1.1v9.2h-6.4v-1.1c0-0.4-0.2-0.8-0.6-1.1l-6.1-3.5c-0.1-0.1-0.2-0.1-0.3-0.1c0,0,0,0-0.1,0
	c0,0-0.1,0-0.1,0c-0.1,0-0.2,0-0.3,0.1c0,0,0,0,0,0c0,0,0,0,0,0c0,0,0,0,0,0l-9.4,3.5c-0.4,0.2-0.7,0.6-0.7,1.1v21.4
	c0,0.5,0.3,1,0.7,1.1l9.4,3.5c0,0,0,0,0,0c0.1,0,0.2,0.1,0.3,0.1c0.1,0,0.2,0,0.3-0.1c0,0,0.1,0,0.1,0c0,0,0.1,0,0.1-0.1l6.1-3.5
	c0.4-0.2,0.6-0.6,0.6-1.1v-1.1h32.2v1.1c0,0.4,0.2,0.8,0.6,1.1l6.1,3.5c0,0,0.1,0,0.1,0.1c0,0,0,0,0,0l0.1-0.5l-0.1,0l0,0l-6.1-3.5
	c-0.2-0.1-0.3-0.4-0.3-0.6v-1.1v-0.5h-0.5h-32.2h-0.5v0.5v1.1c0,0.3-0.1,0.5-0.3,0.6l-6.1,3.6l-0.1,0l0,0l0,0c-0.1,0-0.1,0-0.2,0
	c-0.1,0-0.1,0-0.2,0l-0.1,0l0,0l-9.3-3.5c-0.3-0.1-0.4-0.4-0.4-0.7v-21.4c0-0.3,0.2-0.6,0.4-0.7l9.3-3.5l0,0l0.1,0
	c0.1,0,0.1,0,0.2,0c0,0,0.1,0,0.1,0c0.1,0,0.1,0,0.2,0.1l6.1,3.5c0.2,0.1,0.3,0.4,0.3,0.6v1.1v0.5h0.5h6.4h0.5v-0.5v-9.2v-0.5h-0.5
	h-1.1c-0.2,0-0.4-0.1-0.5-0.3l-3.3-5.6l0,0l0,0l0,0c0,0,0-0.1-0.1-0.1c0-0.1,0-0.1,0-0.1l0-0.1l0,0c0,0,0-0.1,0-0.1l0-0.1l0-0.1l0,0
	l3.3-6.9c0.1-0.2,0.3-0.4,0.6-0.4h5.4h0.5v-0.5v-3.4v-0.5h-0.5h-9.8c-2.2,0-4-1.9-4-4.3c0-2.4,1.8-4.3,4-4.3h30.4c2.2,0,4,1.9,4,4.3
	c0,2.4-1.8,4.3-4,4.3h-9.8h-0.5v0.5v3.4v0.5h0.5h5.4c0.2,0,0.5,0.1,0.6,0.4l3.3,6.9l0,0.1c0,0,0,0.1,0,0.1c0,0,0,0,0,0c0,0,0,0,0,0
	c0,0.1,0,0.1,0,0.1l0,0.1l0,0c0,0,0,0.1,0,0.1l0,0l0,0l0,0l-3.3,5.6c-0.1,0.2-0.3,0.3-0.5,0.3h-1.1h-0.5v0.5v9.2v0.5h0.5h6.4h0.5
	v-0.5v-1.1c0-0.3,0.1-0.5,0.3-0.6l6.1-3.5c0.1,0,0.1-0.1,0.2-0.1c0,0,0.1,0,0.1,0c0.1,0,0.1,0,0.2,0l0.1,0h0l9.3,3.5
	c0.3,0.1,0.4,0.4,0.4,0.7v21.4c0,0.3-0.2,0.6-0.4,0.7l-9.3,3.5l0,0l0,0c-0.1,0-0.1,0-0.2,0c-0.1,0-0.1,0-0.2,0l-0.2,0.5
	c0,0,0,0,0.1,0c0.1,0,0.2,0.1,0.3,0.1c0.1,0,0.2,0,0.3-0.1c0,0,0,0,0,0l9.4-3.5c0.4-0.2,0.7-0.6,0.7-1.1v-21.4
	C-170.6,397.7-170.9,397.3-171.4,397.1z"/>
<path class="st2" d="M-195.8,388.2h1.6h0.3l0.1-0.2l1.9-3.2l0.5-0.8h-0.8h-24.2h-0.8l0.5,0.8l1.9,3.2l0.1,0.2h0.3h1.6H-195.8z
	 M-216.5,384.4h24.2l-1.9,3.2h-1.6H-213h-1.6L-216.5,384.4z"/>
<path class="st2" d="M-192.1,382.5h0.8l-0.4-0.7l-2.1-4.5l-0.1-0.3h-0.3h-5.9h-8.5h-5.9h-0.3l-0.1,0.3l-2.1,4.5l-0.4,0.7h0.8H-192.1
	z M-214.5,377.6h5.9h8.5h5.9l2.1,4.5h-24.5L-214.5,377.6z"/>
<path class="st2" d="M-208,371.3v0.5v3.4v0.5h0.5h6.3h0.5v-0.5v-3.4v-0.5h-0.5h-6.3H-208z M-201.2,375.2h-6.3v-3.4h6.3V375.2z"/>
<path class="st0" d="M-197.5,403.1C-197.5,403.1-197.5,403.1-197.5,403.1l-0.1-0.1l0-0.1l-6.2-10.9c-0.1-0.3-0.5-0.4-0.8-0.4
	c-0.3,0-0.6,0.1-0.8,0.4l-5.8,10.8c0,0.1-0.1,0.2-0.1,0.3c0,0.1,0,0.2,0,0.2c0,0,0,0,0,0l0.1,0.1l0,0.1l6.2,10.9
	c0.1,0.3,0.5,0.4,0.8,0.4c0.3,0,0.6-0.1,0.8-0.4l5.8-10.8c0-0.1,0.1-0.2,0.1-0.3C-197.5,403.2-197.5,403.1-197.5,403.1z
	 M-204.6,393.9l4.9,8.6l-9.4-0.2L-204.6,393.9z M-204.2,412.3l-4.9-8.6l9.4,0.2L-204.2,412.3z"/>
<path class="st1" d="M-196.9,402.8l-6.3-11.1c-0.3-0.5-0.9-0.8-1.5-0.8c-0.6,0-1.2,0.3-1.5,0.7l-5.8,10.8c0,0,0,0,0,0
	c-0.1,0.2-0.1,0.3-0.1,0.5c0,0.2,0.1,0.4,0.1,0.5c0,0,0,0,0,0l6.3,11.1c0.3,0.5,0.9,0.8,1.5,0.8c0.6,0,1.2-0.3,1.5-0.7l5.8-10.8
	c0,0,0,0,0,0c0.1-0.2,0.1-0.3,0.1-0.5S-196.8,402.9-196.9,402.8C-196.9,402.8-196.9,402.8-196.9,402.8z M-198.3,403.4L-204,414
	c0,0,0,0-0.1,0c0,0-0.1,0-0.1,0l-6.1-10.8l0-0.1l-0.1-0.2l0-0.1l5.7-10.7c0,0,0,0,0.1,0c0,0,0.1,0,0.1,0l6.1,10.9l0,0.1
	L-198.3,403.4L-198.3,403.4z"/>
<path class="st1" d="M-207.9,403.1l-2.4-0.1l1,1.7l3.7,6.5l1.5,2.6l1.4-2.5l3.4-6.3l0.9-1.7l-2.4-0.1L-207.9,403.1z M-204.2,410.8
	l-3.7-6.5l7,0.2L-204.2,410.8z"/>
<path class="st1" d="M-203.2,395l-1.5-2.6l-1.4,2.5l-3.4,6.3l-0.9,1.7l2.4,0.1l7,0.2l2.4,0.1l-1-1.7L-203.2,395z M-207.9,401.7
	l3.4-6.3l3.7,6.5L-207.9,401.7z"/>
<path class="st2" d="M-196.9,402.8l-6.3-11.1c-0.3-0.5-0.9-0.8-1.5-0.8c-0.6,0-1.2,0.3-1.5,0.7l-5.8,10.8c0,0,0,0,0,0
	c-0.1,0.2-0.1,0.3-0.1,0.5c0,0.2,0.1,0.4,0.1,0.5c0,0,0,0,0,0l6.3,11.1c0.3,0.5,0.9,0.8,1.5,0.8c0.6,0,1.2-0.3,1.5-0.7l5.8-10.8
	c0,0,0,0,0,0c0.1-0.2,0.1-0.3,0.1-0.5S-196.8,402.9-196.9,402.8C-196.9,402.8-196.9,402.8-196.9,402.8z M-197.6,403.6L-197.6,403.6
	l-5.8,10.8c-0.1,0.2-0.4,0.4-0.8,0.4s-0.7-0.2-0.8-0.4l-6.2-11l0,0l0-0.1c-0.1-0.1-0.1-0.2-0.1-0.3c0-0.1,0-0.2,0.1-0.3l0-0.1
	l5.7-10.7c0.1-0.2,0.4-0.4,0.8-0.4s0.7,0.2,0.8,0.4l6.2,11l0,0l0,0.1c0.1,0.1,0.1,0.2,0.1,0.3C-197.5,403.4-197.5,403.5-197.6,403.6
	z"/>
<path class="st2" d="M-203.9,395.2l-0.7-1.3l-0.7,1.3l-3.4,6.3l-0.5,0.9l1.2,0l7,0.2l1.2,0l-0.5-0.9L-203.9,395.2z M-207.9,401.7
	l3.4-6.3l3.7,6.5L-207.9,401.7z"/>
<path class="st2" d="M-207.9,403.7l-1.2,0l0.5,0.9l3.7,6.5l0.7,1.3l0.7-1.3l3.4-6.3l0.5-0.9l-1.2,0L-207.9,403.7z M-204.2,410.8
	l-3.7-6.5l7,0.2L-204.2,410.8z"/>
</svg>
