<svg width="24" height="24" viewBox="0 0 24 24" fill="none" xmlns="http://www.w3.org/2000/svg">
<path d="M22.5729 11.9998C22.5729 17.8394 17.8395 22.5728 11.9999 22.5728C6.16027 22.5728 1.42689 17.8394 1.42689 11.9998C1.42595 6.16017 6.16027 1.4268 11.9999 1.4268C17.8395 1.42586 22.5729 6.16017 22.5729 11.9998Z" stroke="#13B497" stroke-width="2" stroke-linecap="round" stroke-linejoin="round"/>
<path d="M19 12C19 15.866 15.8659 19 12 19C8.13409 19 5.00001 15.866 5.00001 12C5.00001 8.13412 8.13409 5.00004 12 5.00004C15.8659 5.00004 19 8.13412 19 12" stroke="#13B497" stroke-width="2" stroke-linecap="round" stroke-linejoin="round"/>
<path d="M11.9707 9.00004V15M9.00001 11.9412H15" stroke="#13B497" stroke-width="2" stroke-linecap="round" stroke-linejoin="round"/>
<path d="M4.63806 4.68941L6.09711 6.14846" stroke="#13B497" stroke-width="2" stroke-linecap="round" stroke-linejoin="round"/>
<path d="M17.8751 17.9265L19.3335 19.3849" stroke="#13B497" stroke-width="2" stroke-linecap="round" stroke-linejoin="round"/>
<path d="M19.3329 4.58657L17.8738 6.04562" stroke="#13B497" stroke-width="2" stroke-linecap="round" stroke-linejoin="round"/>
<path d="M5.92613 17.9934L4.46708 19.4524" stroke="#13B497" stroke-width="2" stroke-linecap="round" stroke-linejoin="round"/>
</svg>
