<svg width="14" height="14" viewBox="0 0 14 14" fill="none" xmlns="http://www.w3.org/2000/svg">
<path d="M7 14C3.13438 14 0 10.8656 0 7C0 3.13437 3.13438 0 7 0C10.8656 0 14 3.13437 14 7C14 10.8656 10.8656 14 7 14ZM7 1.1875C3.79063 1.1875 1.1875 3.79062 1.1875 7C1.1875 10.2094 3.79063 12.8125 7 12.8125C10.2094 12.8125 12.8125 10.2094 12.8125 7C12.8125 3.79062 10.2094 1.1875 7 1.1875Z" fill="#28CCAB"/>
<path d="M6.25 9.75C6.25 9.55109 6.32902 9.36032 6.46967 9.21967C6.61032 9.07902 6.80109 9 7 9C7.19891 9 7.38968 9.07902 7.53033 9.21967C7.67098 9.36032 7.75 9.55109 7.75 9.75C7.75 9.94891 7.67098 10.1397 7.53033 10.2803C7.38968 10.421 7.19891 10.5 7 10.5C6.80109 10.5 6.61032 10.421 6.46967 10.2803C6.32902 10.1397 6.25 9.94891 6.25 9.75ZM7.375 8H6.625C6.55625 8 6.5 7.94375 6.5 7.875V3.625C6.5 3.55625 6.55625 3.5 6.625 3.5H7.375C7.44375 3.5 7.5 3.55625 7.5 3.625V7.875C7.5 7.94375 7.44375 8 7.375 8Z" fill="#28CCAB"/>
</svg>
