<svg width="19" height="24" viewBox="0 0 19 24" fill="none" xmlns="http://www.w3.org/2000/svg">
<path d="M9.27587 24C11.9787 23.9958 14.5426 22.8023 16.287 20.7366C17.7523 19.0238 18.556 16.8432 18.5517 14.5891C18.5517 9.6816 10.9201 1.69913 10.0575 0.80898L9.27587 0L8.49429 0.80898C7.63159 1.69907 0 9.68025 0 14.5891C0.00210685 16.8338 0.805825 19.0037 2.26471 20.7102C4.0038 22.7853 6.56875 23.9892 9.27587 23.9997V24ZM5.17731 17.2585C5.17731 15.8291 7.3883 13.5369 9.27587 12.0813C11.1361 13.537 13.3744 15.8565 13.3744 17.2585C13.3713 17.6893 13.2975 18.118 13.1585 18.5257C12.4043 16.8003 10.3818 15.2898 9.89615 14.9664L9.27571 14.5082L8.65528 14.9664C8.16968 15.3172 6.14723 16.8267 5.39185 18.5257H5.39291C5.25071 18.1086 5.17802 17.6714 5.17697 17.2311L5.17731 17.2585ZM7.44202 20.6829C7.30192 20.4069 7.22819 20.1025 7.22608 19.7928C7.22608 19.2261 8.19729 18.0937 9.24853 17.2311C10.2998 18.0937 11.271 19.2261 11.271 19.7928C11.2699 20.1025 11.1951 20.4069 11.0561 20.6829C10.9961 20.8072 10.9234 20.9241 10.8402 21.0337C9.82157 21.4592 8.67552 21.4592 7.6579 21.0337C7.58206 20.9147 7.51886 20.7883 7.46935 20.6566L7.44202 20.6829ZM6.01261 7.01143C7.25347 5.39347 8.49326 3.99151 9.27603 3.12886C10.0576 3.96524 11.2711 5.36726 12.5119 6.98527C15.02 10.2487 16.3945 12.9453 16.3945 14.5633V14.5622C16.3977 15.8073 16.0817 17.0323 15.4781 18.1214C15.5171 17.8265 15.535 17.5295 15.5318 17.2313C15.5318 15.7482 14.5606 14.0229 12.6192 12.1353C11.7692 11.2979 10.8591 10.5226 9.8962 9.81581L9.27577 9.38497L8.65533 9.81686V9.81581C7.69257 10.5226 6.78246 11.2979 5.93231 12.1353C3.99097 14.0503 3.01971 15.7482 3.01971 17.2313C3.0155 17.5379 3.0334 17.8444 3.07343 18.1488C2.46985 17.0596 2.15384 15.8346 2.15702 14.5896C2.15702 12.9716 3.53167 10.275 6.01235 7.01159L6.01261 7.01143Z" fill="#8A92A6"/>
</svg>
