<svg xmlns="http://www.w3.org/2000/svg" width="30" height="30" viewBox="0 0 34.2 54.3"><defs><style>.cls-1{fill:#edeff2;}.cls-2{fill:#babfca;}.cls-3{fill:#8a92a6;}</style></defs><title>Asset 3</title><g id="Layer_2" data-name="Layer 2"><g id="Layer_1-2" data-name="Layer 1"><path class="cls-1" d="M33.3,52.88H31.14l-2.72-12h1.12a.52.52,0,1,0,0-1H28.18l-4-17.81H25a.52.52,0,1,0,0-1H23.9L21.17,9h2.73a.52.52,0,0,0,.52-.52V4.26a.52.52,0,0,0-.52-.52H17.77V.9a.52.52,0,1,0-1,0V3.74H10.59a.52.52,0,0,0-.52.52V8.53a.52.52,0,0,0,.52.52H13L10.3,21H9.2a.52.52,0,1,0,0,1h.87L6,39.87H4.66a.52.52,0,1,0,0,1H5.78l-2.72,12H.9a.52.52,0,1,0,0,1H33.3a.52.52,0,1,0,0-1ZM26.82,38.56l-9-10,5.4-6ZM7.6,39.87l9.5-10.5,9.5,10.5Zm18.09,1-8.6,4.61L8.5,40.9ZM21.85,21h-9.5l4.75-3.37Zm-8.78-7.5,1-4.47h6l1,4.47-4,2.86Zm9.24,8.54L17.1,27.82l-5.21-5.76Zm-.94-7.44,1.3,5.72L18,17ZM11.11,8V4.77H23.39V8Zm1.72,6.61L16.2,17l-4.68,3.32Zm-1.82,8,5.4,6-9,10ZM6.79,41.16,16,46.1,4.23,52.4ZM5.54,52.88,17.1,46.69l11.56,6.19ZM18.2,46.1l9.21-4.94L30,52.4Z"/><path class="cls-2" d="M26.31,39l-8.65-9.56-.56-.62-.56.62L7.9,39,6.75,40.24H27.45Zm-17.85.51,8.65-9.56,8.65,9.56Z"/><path class="cls-2" d="M10,40.53H7l2.65,1.42,7.09,3.8.36.19.36-.19,7.09-3.8,2.65-1.42H10Zm7.09,4.55L10,41.28H24.19Z"/><path class="cls-2" d="M12.18,22.94l4.36,4.82.56.62.56-.62L22,22.94l1.14-1.26H11Zm9.28-.51L17.1,27.26l-4.36-4.82Z"/><path class="cls-2" d="M17.75,28.09l-.46.51.46.51,7.82,8.65,1.93,2.14-.64-2.81L23.73,23.25l-.32-1.41-1,1.08Zm8.38,9.15L18.31,28.6,23,23.42Z"/><path class="cls-2" d="M33.3,52.5H31.44L28.89,41.28h.64a.9.9,0,1,0,0-1.79H28.48L24.61,22.44H25a.9.9,0,1,0,0-1.79h-.8l-1.61-7.1h0l-.94-4.12h2.26a.9.9,0,0,0,.9-.9V4.26a.9.9,0,0,0-.9-.9H18.14V.9a.9.9,0,1,0-1.79,0V3.36H10.59a.9.9,0,0,0-.9.9V8.53a.9.9,0,0,0,.9.9h2l-.94,4.12h0L10,20.64H9.2a.9.9,0,1,0,0,1.79h.4L5.72,39.49H4.66a.9.9,0,1,0,0,1.79h.65L2.76,52.5H.9a.9.9,0,1,0,0,1.79H33.3a.9.9,0,1,0,0-1.79Zm0,1H.9a.14.14,0,1,1,0-.28H3.36l.13-.59L6,41.45l.21-.92H4.66a.14.14,0,1,1,0-.28H6.32l.13-.59,3.88-17.05.21-.92H9.2a.14.14,0,0,1,0-.28h1.41l.13-.59,1.61-7.1.94-4.12.21-.92H10.59a.14.14,0,0,1-.14-.14V4.26a.14.14,0,0,1,.14-.14h6.52V.9a.14.14,0,1,1,.28,0V4.11h6.52a.14.14,0,0,1,.14.14V8.53a.14.14,0,0,1-.14.14H20.7l.21.92.94,4.12,1.61,7.1.13.59H25a.14.14,0,1,1,0,.28H23.66l.21.92,3.88,17.05.13.59h1.65a.14.14,0,1,1,0,.28H27.95l.21.92,2.55,11.22.13.59H33.3a.14.14,0,1,1,0,.28Z"/><path class="cls-2" d="M17.46,46.45l-.36-.19-.36.19L6.69,51.84,4,53.26H30.16l-2.65-1.42ZM7,52.5,17.1,47.12,27.15,52.5Z"/><path class="cls-2" d="M15.56,46.76l1.24-.67-1.24-.67L7.4,41.07l-.87-.47-.22,1L4,51.51l-.37,1.61,1.46-.78ZM7,41.73,15.2,46.1,4.79,51.68Z"/><path class="cls-2" d="M20.67,21.4H23L21.11,20,17.54,17.5l-.44-.31-.44.31L13.09,20,11.16,21.4h9.5ZM17.1,18.11l3.57,2.53H13.53Z"/><path class="cls-2" d="M27.89,41.56l-.22-1-.87.47-8.15,4.37-1.24.67,1.24.67,10.42,5.58,1.46.78-.37-1.61ZM19,46.1l8.15-4.37,2.26,9.95Z"/><path class="cls-2" d="M16.45,29.1l.46-.51-.46-.51-4.68-5.17-1-1.08-.32,1.41L7.33,37.07l-.64,2.81,1.93-2.14Zm-5.24-5.68,4.68,5.17L8.07,37.24Z"/><path class="cls-2" d="M16,17.63l.87-.62L16,16.4l-2.48-1.76L12.58,14l-.25,1.1-1,4.2-.44,1.93,1.61-1.14Zm-2.92-2.38L15.55,17l-3.44,2.44Z"/><path class="cls-2" d="M18.21,16.4l-.87.62.87.62,3.44,2.44,1.61,1.14-.44-1.93-1-4.2L21.62,14l-.92.65Zm3.87,3.06L18.65,17l2.48-1.76Z"/><path class="cls-2" d="M20.52,8.39h3.24v-4h-13v4h9.79Zm-9-3.23H23V7.63H11.49Z"/><path class="cls-2" d="M16.66,16.53l.44.31.44-.31L21.14,14l.41-.29-.11-.49-.89-3.93-.13-.59H13.79l-.13.59-.89,3.93-.11.49.41.29Zm-2.27-7.1h5.41l.89,3.93-3.6,2.56-3.6-2.56Z"/><path class="cls-3" d="M26.6,39.87,26,39.24l-8.65-9.56-.28-.31-.28.31L8.18,39.24l-.57.63h19Zm-9.5-9.93,8.65,9.56H8.45Z"/><path class="cls-3" d="M12.35,21h9.5l-1-.68L17.32,17.8l-.22-.15-.22.15-3.57,2.53Zm4.75-2.91,3.57,2.53H13.53Z"/><path class="cls-3" d="M8.5,40.9l1.33.71,7.09,3.8.18.1.18-.1,7.09-3.8,1.33-.71H8.5Zm8.6,4.18L10,41.28H24.19Z"/><path class="cls-3" d="M17.8,28.6l.23.25,7.82,8.65,1,1.07-.32-1.41L23.36,23.34l-.16-.71-.49.54L18,28.34ZM23,23.42l3.14,13.82L18.31,28.6Z"/><path class="cls-3" d="M17.28,46.78l-.18-.1-.18.1L6.87,52.17l-1.33.71H28.66l-1.33-.71ZM7,52.5,17.1,47.12,27.15,52.5Z"/><path class="cls-3" d="M16,46.1l-.62-.33L7.23,41.4l-.44-.23-.11.48L4.42,51.6l-.18.81L5,52l10.42-5.58ZM4.79,51.68,7,41.73,15.2,46.1Z"/><path class="cls-3" d="M17.32,16.22l3.6-2.56.21-.15-.06-.25-.89-3.93L20.11,9h-6L14,9.34l-.89,3.93-.06.25.21.15,3.6,2.56.22.15ZM13.5,13.36l.89-3.93h5.41l.89,3.93-3.6,2.56Z"/><path class="cls-3" d="M16.17,28.85l.23-.25-.23-.25-4.68-5.17L11,22.63l-.16.71L7.7,37.16l-.32,1.41,1-1.07Zm-5-5.43,4.68,5.17L8.07,37.24Z"/><path class="cls-3" d="M33.3,52.5H31.44L28.89,41.28h.64a.9.9,0,1,0,0-1.79H28.48L24.61,22.44H25a.9.9,0,1,0,0-1.79h-.8l-1.61-7.1h0l-.94-4.12h2.26a.9.9,0,0,0,.9-.9V4.26a.9.9,0,0,0-.9-.9H18.14V.9a.9.9,0,1,0-1.79,0V3.36H10.59a.9.9,0,0,0-.9.9V8.53a.9.9,0,0,0,.9.9h2l-.94,4.12h0L10,20.64H9.2a.9.9,0,1,0,0,1.79h.4L5.72,39.49H4.66a.9.9,0,1,0,0,1.79h.65L2.76,52.5H.9a.9.9,0,1,0,0,1.79H33.3a.9.9,0,1,0,0-1.79Zm0,1.42H.9a.52.52,0,1,1,0-1H3.06l.07-.29L5.68,41.37l.1-.46H4.66a.52.52,0,1,1,0-1H6l.07-.29L10,22.52l.1-.46H9.2a.52.52,0,1,1,0-1h1.1l.07-.29L12,13.63l.94-4.12L13,9H10.59a.52.52,0,0,1-.52-.52V4.26a.52.52,0,0,1,.52-.52h6.14V.9a.52.52,0,1,1,1,0V3.74h6.14a.52.52,0,0,1,.52.52V8.53a.52.52,0,0,1-.52.52H21.17l.1.46.94,4.12,1.61,7.1.07.29H25a.52.52,0,1,1,0,1h-.87l.1.46,3.88,17.05.07.29h1.35a.52.52,0,0,1,0,1H28.42l.1.46,2.55,11.22.07.29H33.3a.52.52,0,1,1,0,1Z"/><path class="cls-3" d="M27.52,41.65l-.11-.48L27,41.4l-8.15,4.37-.62.33.62.33L29.24,52l.73.39-.18-.81ZM19,46.1l8.15-4.37,2.26,9.95Z"/><path class="cls-3" d="M12.46,22.69l4.36,4.82.28.31.28-.31,4.36-4.82.57-.63H11.89Zm9-.25L17.1,27.26l-4.36-4.82Z"/><path class="cls-3" d="M18.43,16.7,18,17l.43.31,3.44,2.44.81.57-.22-1-1-4.2-.13-.55-.46.33Zm3.66,2.75L18.65,17l2.48-1.76Z"/><path class="cls-3" d="M20.52,8h2.86V4.78H11.11V8h9.41Zm-9-2.86H23V7.63H11.49Z"/><path class="cls-3" d="M15.77,17.32,16.2,17l-.43-.31-2.48-1.76-.46-.33-.13.55-1,4.2-.22,1,.81-.57Zm-2.7-2.07L15.55,17l-3.44,2.44Z"/></g></g></svg>