<?xml version="1.0" encoding="utf-8"?>
<!-- Generator: Adobe Illustrator 19.0.0, SVG Export Plug-In . SVG Version: 6.00 Build 0)  -->
<svg version="1.1" id="Layer_1" xmlns="http://www.w3.org/2000/svg" xmlns:xlink="http://www.w3.org/1999/xlink" x="30px" y="30px"
	 viewBox="-255 347 100 100" style="enable-background:new -255 347 100 100;" xml:space="preserve">
<style type="text/css">
	.st0{fill:#8a92a6;}
	.st1{fill:#8a92a6;}
	.st2{fill:#8a92a6;}
	.st3{fill:#8a92a6;}
	.st4{fill:#8a92a6;}
</style>
<g>
	<path class="st0" d="M-176.5,380.8l-0.5,0l-2.7-8.7c-0.4-1.2-1.1-2.4-2.1-3.3c-0.3-0.2-0.6-0.3-1-0.3c-0.2,0-0.3,0.1-0.4,0.2
		c-0.4,0.3-0.4,0.9-0.1,1.2c0.8,0.7,1.3,1.6,1.6,2.6l2.7,8.7l-61.9,14.9c-4.7,1.1-9.7-1.1-11.1-5.1c-0.7-2-0.5-4.1,0.7-6
		c1.2-1.8,3.1-3.2,5.4-3.7c0.5-0.1,0.8-0.6,0.7-1.1c-0.1-0.5-0.7-0.7-1.2-0.6c-2.8,0.7-5.2,2.3-6.6,4.6c-1.3,2.1-1.7,4.6-1,7.1
		l15,48.1c1.6,5,7.5,8,13.2,6.6l63.3-15.2c5-1.2,7.9-5.7,6.5-10l-10.6-34.1C-167.8,383-172,380.4-176.5,380.8z M-161.3,410.5
		l-12.1,2.9l-1,0.2l0.3-0.9l0-0.2c0.1-0.3,0.2-0.7,0.2-1.1c0-0.1,0-0.3,0.1-0.5c0-0.3,0.1-0.6,0.1-0.9c0-0.2,0-0.3,0-0.5
		c0-0.3,0-0.6-0.1-1c0-0.1,0-0.2,0-0.3c-0.1-0.4-0.2-0.9-0.3-1.3c-0.1-0.4-0.3-0.8-0.5-1.2c0-0.1-0.1-0.2-0.2-0.4
		c-0.1-0.3-0.3-0.5-0.5-0.8c-0.1-0.1-0.2-0.3-0.3-0.4c-0.2-0.3-0.4-0.5-0.7-0.8c-0.1-0.1-0.2-0.2-0.3-0.3c-0.3-0.3-0.5-0.5-0.9-0.9
		l-0.8-0.7l13.1-3.1L-161.3,410.5z M-176.2,412.7l-0.1,0.2c0,0.1-0.2,0.5-0.2,0.5c-0.1,0.1-0.1,0.3-0.2,0.4l-0.1,0.2
		c-0.1,0.2-0.2,0.4-0.3,0.6c-1.4,2.1-3.6,3.6-6.3,4.3c-5.6,1.3-11.4-1.6-12.9-6.5s1.8-10,7.4-11.3c2.7-0.6,5.5-0.3,7.9,0.9
		c0.2,0.1,0.4,0.2,0.7,0.4l0.2,0.1c0.1,0.1,0.2,0.2,0.4,0.2c0,0,0.4,0.3,0.5,0.3l0.1,0.1c1.2,1,2.2,2.2,2.8,3.6
		c0.1,0.3,0.2,0.6,0.3,0.9c0.1,0.3,0.2,0.6,0.2,0.9C-175.5,409.9-175.7,411.3-176.2,412.7z M-165.6,396.6l-14.9,3.6l-0.2-0.1
		c-2.7-1.2-5.8-1.4-8.7-0.7c-6.7,1.6-10.6,7.6-8.8,13.5c1.8,5.8,8.7,9.3,15.4,7.7c2.9-0.7,5.4-2.3,7.1-4.5l0.1-0.2l14.9-3.6l2.8,9.1
		c1.1,3.4-1.2,7-5.1,7.9l-63.3,15.2c-4.7,1.1-9.5-1.3-10.8-5.4l-13.3-42.8l1.3,0.7c2.6,1.3,5.8,1.7,8.7,1l62.9-15.1
		c3.9-0.9,7.9,1.1,9,4.5L-165.6,396.6z"/>
	<path class="st0" d="M-187.7,405.2c-3,0.7-4.7,3.4-3.9,6c0.8,2.6,3.9,4.2,6.9,3.4c3-0.7,4.7-3.4,3.9-6
		C-181.6,406-184.7,404.5-187.7,405.2z M-185.2,413c-1.9,0.5-3.9-0.5-4.4-2.2c-0.5-1.7,0.6-3.4,2.5-3.9c1.9-0.5,3.9,0.5,4.4,2.2
		C-182.2,410.8-183.3,412.5-185.2,413z"/>
	<path class="st1" d="M-177.3,400.6l-2.2,0.5l1.6,1.4c0,0,0.1,0.1,0.1,0.1c0.3,0.2,0.5,0.5,0.8,0.8c0.1,0.1,0.2,0.2,0.3,0.4
		c0.2,0.2,0.4,0.5,0.6,0.7c0.1,0.1,0.2,0.3,0.3,0.4c0.2,0.2,0.3,0.5,0.4,0.7l0.1,0.1c0,0.1,0.1,0.2,0.1,0.3c0.2,0.4,0.4,0.8,0.5,1.2
		c0.1,0.4,0.2,0.8,0.3,1.2c0,0.1,0,0.2,0,0.3l0,0.1c0,0.3,0.1,0.5,0.1,0.8c0,0.2,0,0.3,0,0.5c0,0.3,0,0.6-0.1,0.9
		c0,0.1,0,0.3-0.1,0.4c-0.1,0.3-0.1,0.7-0.2,1c0,0.1,0,0.1,0,0.2l-0.6,1.9l2.1-0.5l11.4-2.7l1.2-0.3l-0.3-1.1l-3.5-11.2l-0.3-1.1
		l-1.2,0.3L-177.3,400.6z M-162,410.1l-11.4,2.7c0-0.1,0-0.1,0-0.2c0.1-0.4,0.2-0.7,0.3-1.1c0-0.2,0-0.3,0.1-0.5
		c0-0.3,0.1-0.6,0.1-1c0-0.2,0-0.3,0-0.5c0-0.3,0-0.6-0.1-0.9c0-0.2,0-0.3-0.1-0.5c-0.1-0.5-0.2-0.9-0.3-1.4
		c-0.1-0.5-0.3-0.9-0.5-1.3c-0.1-0.1-0.1-0.3-0.2-0.4c-0.1-0.3-0.3-0.6-0.5-0.8c-0.1-0.2-0.2-0.3-0.3-0.4c-0.2-0.3-0.4-0.5-0.6-0.8
		c-0.1-0.1-0.2-0.3-0.4-0.4c-0.3-0.3-0.6-0.6-0.8-0.8c-0.1,0-0.1-0.1-0.1-0.1l11.4-2.7L-162,410.1z"/>
	<path class="st1" d="M-187.3,406.3c-2.3,0.5-3.6,2.6-3,4.6c0.6,2,3,3.1,5.2,2.6s3.6-2.6,3-4.6C-182.7,407-185,405.8-187.3,406.3z
		 M-185.4,412.4c-1.6,0.4-3.2-0.4-3.6-1.8c-0.4-1.4,0.5-2.8,2.1-3.2c1.6-0.4,3.2,0.4,3.6,1.8C-182.9,410.6-183.8,412.1-185.4,412.4z
		"/>
	<path class="st1" d="M-175.2,408.4L-175.2,408.4L-175.2,408.4c-0.1-0.4-0.2-0.7-0.3-1c-0.1-0.3-0.2-0.6-0.4-0.9l0,0l0,0
		c-0.6-1.4-1.7-2.7-3-3.7c0,0-0.1-0.1-0.1-0.1c-0.1-0.1-0.2-0.1-0.3-0.2l-0.1-0.1l-0.1-0.1c-0.1-0.1-0.3-0.2-0.4-0.3
		c-0.1,0-0.1-0.1-0.2-0.1l-0.1,0c-0.2-0.1-0.4-0.2-0.7-0.4c-2.6-1.3-5.5-1.6-8.4-0.9c-5.9,1.4-9.4,6.8-7.8,12
		c1.6,5.2,7.8,8.3,13.7,6.9c2.8-0.7,5.2-2.3,6.7-4.5c0.1-0.2,0.3-0.4,0.4-0.6l0-0.1c0-0.1,0.1-0.1,0.1-0.2c0.1-0.1,0.1-0.3,0.2-0.4
		l0-0.1l0-0.1c0-0.1,0.1-0.2,0.1-0.3c0,0,0-0.1,0.1-0.2C-175,411.4-174.9,409.9-175.2,408.4z M-176.8,412.6c0,0,0,0.1,0,0.1
		c0,0.1-0.1,0.2-0.2,0.3c-0.1,0.2-0.1,0.3-0.2,0.5c0,0.1-0.1,0.1-0.1,0.2c-0.1,0.2-0.2,0.4-0.3,0.5c-1.3,1.9-3.3,3.4-5.9,4
		c-5.3,1.3-10.7-1.5-12.1-6.1c-1.4-4.6,1.7-9.4,6.9-10.6c2.6-0.6,5.2-0.3,7.4,0.8c0.2,0.1,0.4,0.2,0.6,0.3c0.1,0,0.2,0.1,0.3,0.1
		c0.2,0.1,0.3,0.2,0.4,0.3c0.1,0.1,0.2,0.2,0.3,0.2c0,0,0.1,0.1,0.1,0.1c1.1,0.9,2.1,2,2.6,3.3c0,0,0,0,0,0c0.1,0.3,0.2,0.6,0.3,0.8
		c0.1,0.3,0.2,0.6,0.2,0.9c0,0,0,0,0,0C-176.2,409.9-176.3,411.3-176.8,412.6z"/>
	<path class="st1" d="M-176.6,380.3l-2.6-8.2c-0.4-1.3-1.2-2.5-2.2-3.6c-0.4-0.4-1.1-0.6-1.6-0.4c-0.2,0.1-0.5,0.2-0.7,0.3
		c-0.7,0.5-0.7,1.4-0.1,2c0.7,0.7,1.2,1.5,1.5,2.4l2.5,8.1l-61.3,14.7c-4.4,1.1-9-1-10.3-4.7c-0.7-1.9-0.4-3.8,0.7-5.5
		c1.1-1.7,2.8-2.9,5-3.4c0.9-0.2,1.4-1,1.1-1.8s-1.1-1.2-2-1c-3,0.7-5.5,2.4-7,4.8c-1.4,2.3-1.8,4.9-1,7.4c0,0,0,0,0,0.1l15,48.1
		c1.7,5.3,7.9,8.5,14,7l63.3-15.2c5.3-1.3,8.4-6.1,7-10.7l-3.1-9.9l-4.3-14l-3.2-10.1C-167.3,382.5-171.8,379.9-176.6,380.3z
		 M-164,397.1l4.3,14l3.1,9.9c1.3,4.1-1.5,8.3-6.1,9.4l-63.3,15.2c-5.4,1.3-11-1.5-12.4-6.2l-14.9-48l0,0l0-0.2
		c-0.7-2.2-0.4-4.6,0.9-6.6c1.3-2.1,3.5-3.6,6.2-4.3c0.2,0,0.4,0.1,0.4,0.2c0.1,0.2-0.1,0.3-0.3,0.4c-2.5,0.6-4.5,2-5.8,4
		c-1.2,2-1.5,4.2-0.8,6.4c1.5,4.2,6.8,6.7,11.9,5.4l61.3-14.7l1.2-0.3l-0.3-1.1l-2.5-8.1c-0.3-1.1-0.9-2-1.8-2.8
		c-0.1-0.1-0.1-0.3,0-0.4c0,0,0.1-0.1,0.1-0.1c0.1,0,0.3,0,0.4,0.1c0.9,0.9,1.6,1.9,1.9,3.1l2.6,8.2l0.3,0.9l1.1-0.1
		c4.2-0.4,8.1,2,9.3,5.6L-164,397.1z"/>
	<path class="st1" d="M-177.7,382.2l-62.9,15.1c-2.7,0.7-5.7,0.3-8.2-0.9l-2.7-1.4l0.8,2.6l12.9,41.5c1.4,4.4,6.6,7,11.6,5.8
		l63.3-15.2c4.2-1,6.7-4.9,5.6-8.6l-2.7-8.6l-0.3-1.1l-1.2,0.3l-14.1,3.4l-0.5,0.1l-0.3,0.4c-1.6,2.1-4,3.6-6.7,4.3
		c-6.3,1.5-12.9-1.8-14.6-7.3c-1.7-5.5,2-11.3,8.3-12.8c2.8-0.7,5.7-0.4,8.3,0.7l0.4,0.2l0.5-0.1l14.1-3.4l1.2-0.3l-0.3-1.1
		l-2.7-8.8C-169,383.4-173.4,381.2-177.7,382.2z M-166.4,396.2l-14.1,3.4c-2.8-1.2-6-1.5-9.2-0.8c-7,1.7-11.1,8-9.2,14.2
		c1.9,6.1,9.2,9.8,16.1,8.1c3.2-0.8,5.8-2.5,7.5-4.8l14.1-3.4l2.7,8.6c1,3.1-1.1,6.4-4.7,7.2l-63.3,15.2c-4.3,1-8.8-1.2-10-5
		l-12.9-41.5c2.7,1.4,6,1.8,9.2,1.1l62.9-15.1c3.6-0.9,7.2,1,8.2,4.1L-166.4,396.2z"/>
	<path class="st1" d="M-187.8,404.6c-3.3,0.8-5.3,3.8-4.4,6.7c0.9,2.9,4.3,4.6,7.7,3.8c3.3-0.8,5.3-3.8,4.4-6.7
		C-181.1,405.6-184.5,403.9-187.8,404.6z M-184.9,414.1c-2.6,0.6-5.4-0.7-6.1-3.1c-0.7-2.3,0.8-4.7,3.5-5.3s5.4,0.7,6.1,3.1
		C-180.7,411.1-182.2,413.5-184.9,414.1z"/>
	<path class="st2" d="M-187.1,406.9c-1.9,0.5-3,2.2-2.5,3.9c0.5,1.7,2.5,2.7,4.4,2.2c1.9-0.5,3-2.2,2.5-3.9
		C-183.2,407.4-185.2,406.4-187.1,406.9z M-185.4,412.4c-1.6,0.4-3.2-0.4-3.6-1.8c-0.4-1.4,0.5-2.8,2.1-3.2c1.6-0.4,3.2,0.4,3.6,1.8
		C-182.9,410.6-183.8,412.1-185.4,412.4z"/>
	<path class="st2" d="M-177.1,401.2l-1,0.3l0.8,0.7c0,0,0.1,0.1,0.1,0.1c0.3,0.3,0.6,0.5,0.8,0.8c0.1,0.1,0.2,0.2,0.3,0.4
		c0.2,0.2,0.4,0.5,0.6,0.8c0.1,0.1,0.2,0.3,0.3,0.4c0.2,0.3,0.3,0.5,0.4,0.8l0.1,0.1c0,0.1,0.1,0.2,0.1,0.3c0.2,0.5,0.4,0.9,0.5,1.2
		s0.2,0.8,0.3,1.3c0,0.1,0,0.2,0,0.3l0,0.1c0,0.3,0.1,0.6,0.1,0.9c0,0.2,0,0.3,0,0.5c0,0.3,0,0.6-0.1,1c0,0.1,0,0.3-0.1,0.4
		c-0.1,0.4-0.1,0.7-0.2,1.1c0,0,0,0.1,0,0.1l0,0l-0.3,0.9l1.1-0.3l11.4-2.7l0.6-0.1l-0.2-0.5l-3.5-11.2l-0.2-0.5l-0.6,0.1
		L-177.1,401.2z M-162,410.1l-11.4,2.7c0-0.1,0-0.1,0-0.2c0.1-0.4,0.2-0.7,0.3-1.1c0-0.2,0-0.3,0.1-0.5c0-0.3,0.1-0.6,0.1-1
		c0-0.2,0-0.3,0-0.5c0-0.3,0-0.6-0.1-0.9c0-0.2,0-0.3-0.1-0.5c-0.1-0.5-0.2-0.9-0.3-1.4c-0.1-0.5-0.3-0.9-0.5-1.3
		c-0.1-0.1-0.1-0.3-0.2-0.4c-0.1-0.3-0.3-0.6-0.5-0.8c-0.1-0.2-0.2-0.3-0.3-0.4c-0.2-0.3-0.4-0.5-0.6-0.8c-0.1-0.1-0.2-0.3-0.4-0.4
		c-0.3-0.3-0.6-0.6-0.8-0.8c-0.1,0-0.1-0.1-0.1-0.1l11.4-2.7L-162,410.1z"/>
	<path class="st2" d="M-176.4,406.6c-0.6-1.4-1.6-2.6-2.9-3.6l-0.1-0.1c-0.1-0.1-0.2-0.1-0.3-0.2l-0.1-0.1l-0.1-0.1
		c-0.1-0.1-0.2-0.2-0.4-0.2c-0.1,0-0.1-0.1-0.2-0.1l-0.1,0c-0.2-0.1-0.4-0.2-0.6-0.3c-2.4-1.2-5.2-1.5-7.9-0.9
		c-5.6,1.3-8.9,6.4-7.4,11.3c1.5,4.9,7.3,7.8,12.9,6.5c2.7-0.6,4.9-2.2,6.3-4.3c0.1-0.2,0.2-0.4,0.3-0.6l0-0.1
		c0-0.1,0.1-0.1,0.1-0.2c0.1-0.1,0.1-0.3,0.2-0.4l0-0.1l0.1-0.1c0-0.1,0.1-0.2,0.1-0.3c0,0,0-0.1,0.1-0.2c0.5-1.4,0.6-2.9,0.4-4.3
		c-0.1-0.3-0.1-0.6-0.2-0.9C-176.1,407.2-176.3,406.9-176.4,406.6z M-176.4,408.5C-176.4,408.5-176.4,408.5-176.4,408.5
		c0.3,1.4,0.1,2.8-0.3,4.1c0,0,0,0.1,0,0.1c0,0.1-0.1,0.2-0.2,0.3c-0.1,0.2-0.1,0.3-0.2,0.5c0,0.1-0.1,0.1-0.1,0.2
		c-0.1,0.2-0.2,0.4-0.3,0.5c-1.3,1.9-3.3,3.4-5.9,4c-5.3,1.3-10.7-1.5-12.1-6.1c-1.4-4.6,1.7-9.4,6.9-10.6c2.6-0.6,5.2-0.3,7.4,0.8
		c0.2,0.1,0.4,0.2,0.6,0.3c0.1,0,0.2,0.1,0.3,0.1c0.2,0.1,0.3,0.2,0.4,0.3c0.1,0.1,0.2,0.2,0.3,0.2c0,0,0.1,0.1,0.1,0.1
		c1.1,0.9,2.1,2,2.6,3.3c0,0,0,0,0,0c0.1,0.3,0.2,0.6,0.3,0.8C-176.6,407.9-176.5,408.2-176.4,408.5z"/>
	<path class="st2" d="M-176.6,380.3l-2.6-8.2c-0.4-1.3-1.2-2.5-2.2-3.6c-0.4-0.4-1.1-0.6-1.6-0.4c-0.2,0.1-0.5,0.2-0.7,0.3
		c-0.7,0.5-0.7,1.4-0.1,2c0.7,0.7,1.2,1.5,1.5,2.4l2.5,8.1l-61.3,14.7c-4.4,1.1-9-1-10.3-4.7c-0.7-1.9-0.4-3.8,0.7-5.5
		c1.1-1.7,2.8-2.9,5-3.4c0.9-0.2,1.4-1,1.1-1.8s-1.1-1.2-2-1c-3,0.7-5.5,2.4-7,4.8c-1.4,2.3-1.8,4.9-1,7.4c0,0,0,0,0,0.1l15,48.1
		c1.7,5.3,7.9,8.5,14,7l63.3-15.2c5.3-1.3,8.4-6.1,7-10.7l-3.1-9.9l-4.3-14l-3.2-10.1C-167.3,382.5-171.8,379.9-176.6,380.3z
		 M-163.4,397l4.3,14l3.1,9.9c1.4,4.4-1.6,8.9-6.5,10l-63.3,15.2c-5.7,1.4-11.7-1.6-13.2-6.6l-15-48.1l0,0l0-0.1
		c-0.7-2.4-0.4-4.9,1-7c1.4-2.3,3.8-3.9,6.6-4.6c0.5-0.1,1.1,0.1,1.2,0.6c0.1,0.5-0.2,0.9-0.7,1.1c-2.3,0.6-4.2,1.9-5.4,3.7
		c-1.2,1.8-1.4,4-0.7,6c1.4,3.9,6.3,6.2,11.1,5.1l61.3-14.7l0.6-0.1l-0.2-0.5l-2.5-8.1c-0.3-1-0.9-1.9-1.6-2.6
		c-0.4-0.4-0.3-0.9,0.1-1.2c0.1-0.1,0.3-0.2,0.4-0.2c0.4-0.1,0.8,0,1,0.3c1,1,1.7,2.1,2.1,3.3l2.6,8.2l0.1,0.5l0.5,0
		c4.6-0.4,8.7,2.1,9.9,6L-163.4,397z"/>
	<path class="st2" d="M-177.5,382.8l-62.9,15.1c-2.9,0.7-6.1,0.3-8.7-1l-1.3-0.7l0.4,1.3l12.9,41.5c1.3,4.1,6.1,6.5,10.8,5.4
		l63.3-15.2c3.9-0.9,6.2-4.5,5.1-7.9l-2.7-8.6l-0.2-0.5l-0.6,0.1l-14.1,3.4l-0.2,0.1l-0.1,0.2c-1.7,2.2-4.2,3.8-7.1,4.5
		c-6.7,1.6-13.5-1.9-15.4-7.7c-1.8-5.8,2.1-11.9,8.8-13.5c2.9-0.7,6-0.4,8.7,0.7l0.2,0.1l0.2-0.1l14.1-3.4l0.6-0.1l-0.2-0.5
		l-2.7-8.8C-169.6,383.9-173.6,381.8-177.5,382.8z M-166.4,396.2l-14.1,3.4c-2.8-1.2-6-1.5-9.2-0.8c-7,1.7-11.1,8-9.2,14.2
		c1.9,6.1,9.2,9.8,16.1,8.1c3.2-0.8,5.8-2.5,7.5-4.8l14.1-3.4l2.7,8.6c1,3.1-1.1,6.4-4.7,7.2l-63.3,15.2c-4.3,1-8.8-1.2-10-5
		l-12.9-41.5c2.7,1.4,6,1.8,9.2,1.1l62.9-15.1c3.6-0.9,7.2,1,8.2,4.1L-166.4,396.2z"/>
	<path class="st2" d="M-187.8,404.6c-3.3,0.8-5.3,3.8-4.4,6.7c0.9,2.9,4.3,4.6,7.7,3.8c3.3-0.8,5.3-3.8,4.4-6.7
		C-181.1,405.6-184.5,403.9-187.8,404.6z M-184.7,414.7c-3,0.7-6.1-0.8-6.9-3.4c-0.8-2.6,0.9-5.3,3.9-6s6.1,0.8,6.9,3.4
		C-180,411.2-181.7,414-184.7,414.7z"/>
</g>
<path class="st0" d="M-192.5,354.7c-0.6,0-1.1,0.4-1.1,1v3.4c0,0.5,0.5,1,1.1,1c0.6,0,1.1-0.4,1.1-1v-3.4
	C-191.4,355.2-191.9,354.7-192.5,354.7z"/>
<path class="st0" d="M-230.6,355c-0.6,0-1.1,0.4-1.1,1v2.5c0,0.5,0.5,1,1.1,1c0.6,0,1.1-0.4,1.1-1V356
	C-229.5,355.4-230,355-230.6,355z"/>
<path class="st0" d="M-223,383c-0.6,0-1.1,0.4-1.1,1v2.7c0,0.5,0.5,1,1.1,1c0.6,0,1.1-0.4,1.1-1V384C-221.9,383.5-222.4,383-223,383
	z"/>
<path class="st0" d="M-249.1,375.8c-0.6,0-1.1,0.4-1.1,1v8.2c0,0.5,0.5,1,1.1,1c0.6,0,1.1-0.4,1.1-1v-8.2
	C-248,376.3-248.5,375.8-249.1,375.8z"/>
<path class="st0" d="M-242.4,356.4c0-0.5-0.5-1-1.1-1c-0.6,0-1.1,0.4-1.1,1v5.6c0,0.5,0.5,1,1.1,1c0.6,0,1.1-0.4,1.1-1V356.4z"/>
<path class="st0" d="M-236.3,368.8c2.2,0,4,1.6,4,3.5c0,0.5,0.5,1,1.1,1c0.6,0,1.1-0.4,1.1-1c0-1.5-0.7-2.9-2-3.9l-0.3-0.3v-1.7
	c0-0.5-0.5-1-1.1-1c-0.5,0-1,0.3-1,0.8l-0.2,0.8l-1.2-0.1c-0.1,0-0.3,0-0.4,0c-0.1,0-0.3,0-0.4,0l-1.2,0.1l-0.2-0.8
	c-0.1-0.5-0.5-0.8-1-0.8c-0.6,0-1.1,0.4-1.1,1v1.7l-0.3,0.3c-1.3,1-2,2.4-2,3.9c0,3,2.8,5.4,6.2,5.4c2.2,0,4,1.6,4,3.5
	c0,1.9-1.8,3.5-4,3.5c-2.2,0-4-1.6-4-3.5c0-0.5-0.5-1-1.1-1c-0.6,0-1.1,0.4-1.1,1c0,1.5,0.7,2.9,2,3.9l0.3,0.3v1.7
	c0,0.5,0.5,1,1.1,1c0.5,0,1-0.3,1-0.8l0.2-0.8l1.2,0.1c0.1,0,0.3,0,0.4,0c0.1,0,0.3,0,0.4,0l1.2-0.1l0.2,0.8c0.1,0.5,0.5,0.8,1,0.8
	c0.6,0,1.1-0.4,1.1-1v-1.7l0.3-0.3c1.3-1,2-2.4,2-3.9c0-3-2.8-5.4-6.2-5.4c-2.2,0-4-1.6-4-3.5C-240.3,370.4-238.5,368.8-236.3,368.8
	z"/>
<path class="st0" d="M-199.1,378.5c-0.6,0-1.1,0.4-1.1,1v5c0,0.5,0.5,1,1.1,1c0.6,0,1.1-0.4,1.1-1v-5
	C-198,378.9-198.5,378.5-199.1,378.5z"/>
<path class="st0" d="M-168.1,381.3c-0.6,0-1.1,0.4-1.1,1v3.5c0,0.5,0.5,1,1.1,1c0.6,0,1.1-0.4,1.1-1v-3.5
	C-167,381.7-167.5,381.3-168.1,381.3z"/>
<path class="st0" d="M-204.1,363.9C-204.1,363.9-204.1,363.9-204.1,363.9l-0.1-0.2l0-0.1l-7.6-15.2c-0.2-0.4-0.6-0.6-1-0.6
	c-0.4,0-0.8,0.2-1,0.6l-7.7,15.3c-0.1,0.1-0.1,0.3-0.1,0.4c0,0.1,0,0.2,0,0.2c0,0,0,0,0,0l0.2,0.2l0,0.1l7.6,15.2
	c0.2,0.4,0.6,0.6,1,0.6c0.4,0,0.8-0.2,1-0.6l7.7-15.3c0.1-0.1,0.1-0.3,0.1-0.4C-204.1,364-204.1,363.9-204.1,363.9z M-212.9,351.2
	l6,12h-12L-212.9,351.2z M-212.9,377.1l-6-12h12L-212.9,377.1z"/>
<path class="st0" d="M-176.2,355.4c-0.6,0-1.1,0.4-1.1,1v2.1c0,0.5,0.5,1,1.1,1c0.6,0,1.1-0.4,1.1-1v-2.1
	C-175.1,355.9-175.6,355.4-176.2,355.4z"/>
<path class="st3" d="M-236.3,369.7c1.7,0,3,1.2,3,2.6c0,1,0.9,1.8,2.1,1.8c1.2,0,2.1-0.8,2.1-1.8c0-1.8-0.9-3.4-2.3-4.6v-1.4
	c0-1-0.9-1.8-2.1-1.8c-1,0-1.9,0.7-2,1.5c-0.3,0-0.5-0.1-0.8-0.1c-0.3,0-0.5,0-0.8,0.1c-0.2-0.9-1-1.5-2-1.5c-1.2,0-2.1,0.8-2.1,1.8
	v1.4c-1.4,1.2-2.3,2.8-2.3,4.6c0,3.5,3.2,6.3,7.2,6.3c1.7,0,3,1.2,3,2.6c0,1.5-1.3,2.6-3,2.6s-3-1.2-3-2.6c0-1-0.9-1.8-2.1-1.8
	c-1.2,0-2.1,0.8-2.1,1.8c0,1.8,0.9,3.4,2.3,4.6v1.4c0,1,0.9,1.8,2.1,1.8c1,0,1.9-0.7,2-1.5c0.3,0,0.5,0.1,0.8,0.1
	c0.3,0,0.5,0,0.8-0.1c0.2,0.9,1,1.5,2,1.5c1.2,0,2.1-0.8,2.1-1.8v-1.4c1.4-1.2,2.3-2.8,2.3-4.6c0-3.5-3.2-6.3-7.2-6.3
	c-1.7,0-3-1.2-3-2.6C-239.3,370.9-238,369.7-236.3,369.7z M-236.3,376.7c2.9,0,5.2,2.1,5.2,4.6c0,1.3-0.6,2.4-1.7,3.3l-0.6,0.5v0.7
	v1.4c0,0.1-0.1,0.1-0.1,0.1c0,0-0.1-0.1-0.1-0.1l-0.3-1.6l-1.9,0.2l-0.3,0c-0.1,0-0.2,0-0.3,0c-0.1,0-0.2,0-0.3,0l-0.3,0l-1.9-0.2
	l-0.3,1.6c0,0,0,0.1-0.1,0.1c-0.1,0-0.1,0-0.1-0.1v-1.4v-0.7l-0.6-0.5c-1.1-0.9-1.7-2.1-1.7-3.3c0-0.1,0.1-0.1,0.1-0.1
	c0.1,0,0.1,0,0.1,0.1c0,2.4,2.2,4.4,5,4.4s5-2,5-4.4c0-2.4-2.2-4.4-5-4.4c-2.9,0-5.2-2.1-5.2-4.6c0-1.3,0.6-2.4,1.7-3.3l0.6-0.5
	v-0.7v-1.4c0-0.1,0.1-0.1,0.1-0.1c0,0,0.1,0.1,0.1,0.1l0.3,1.6l1.9-0.2l0.3,0c0.1,0,0.2,0,0.3,0c0.1,0,0.2,0,0.3,0l0.3,0l1.9,0.2
	l0.3-1.6c0,0,0-0.1,0.1-0.1c0.1,0,0.1,0,0.1,0.1v1.4v0.7l0.6,0.5c1.1,0.9,1.7,2.1,1.7,3.3c0,0.1-0.1,0.1-0.1,0.1
	c-0.1,0-0.1,0-0.1-0.1c0-2.4-2.2-4.4-5-4.4s-5,2-5,4.4C-241.3,374.8-239.1,376.7-236.3,376.7z"/>
<path class="st3" d="M-203.3,363.4l-7.7-15.3c-0.3-0.7-1.1-1.1-1.9-1.1c-0.8,0-1.6,0.4-1.9,1.1l-7.7,15.3c0,0,0,0,0,0
	c-0.1,0.2-0.2,0.5-0.2,0.7c0,0.3,0.1,0.5,0.2,0.7c0,0,0,0,0,0l7.7,15.3c0.3,0.7,1.1,1.1,1.9,1.1c0.8,0,1.6-0.4,1.9-1.1l7.7-15.3
	c0,0,0,0,0,0c0.1-0.2,0.2-0.5,0.2-0.7C-203.1,363.9-203.2,363.6-203.3,363.4C-203.3,363.4-203.3,363.4-203.3,363.4z M-205.1,364.3
	l-7.6,15.2c0,0-0.1,0.1-0.1,0.1s-0.1,0-0.1-0.1l-7.5-15l0-0.1l-0.1-0.2l0-0.1l7.6-15.2c0,0,0.1-0.1,0.1-0.1s0.1,0,0.1,0.1l7.5,15
	l0,0.1l0.1,0.2L-205.1,364.3z"/>
<path class="st3" d="M-217.3,364.2h-3l1.2,2.4l4.5,8.9l1.8,3.6l1.8-3.6l4.5-8.9l1.2-2.4h-3H-217.3z M-212.9,374.9l-4.5-8.9h9
	L-212.9,374.9z"/>
<path class="st3" d="M-241.4,362v-5.6c0-1-0.9-1.8-2.1-1.8c-1.2,0-2.1,0.8-2.1,1.8v5.6c0,1,0.9,1.8,2.1,1.8
	C-242.3,363.8-241.4,363-241.4,362z M-243.6,356.4c0-0.1,0.1-0.1,0.1-0.1c0.1,0,0.1,0,0.1,0.1v5.6c0,0.1-0.1,0.1-0.1,0.1
	c-0.1,0-0.1,0-0.1-0.1V356.4z"/>
<path class="st3" d="M-249.1,375c-1.2,0-2.1,0.8-2.1,1.8v8.2c0,1,0.9,1.8,2.1,1.8c1.2,0,2.1-0.8,2.1-1.8v-8.2
	C-247,375.8-247.9,375-249.1,375z M-249,385c0,0.1-0.1,0.1-0.1,0.1s-0.1,0-0.1-0.1v-8.2c0-0.1,0.1-0.1,0.1-0.1s0.1,0,0.1,0.1V385z"
	/>
<path class="st3" d="M-199.1,377.6c-1.2,0-2.1,0.8-2.1,1.8v5c0,1,0.9,1.8,2.1,1.8c1.2,0,2.1-0.8,2.1-1.8v-5
	C-197.1,378.5-198,377.6-199.1,377.6z M-199,384.5c0,0.1-0.1,0.1-0.1,0.1c-0.1,0-0.1,0-0.1-0.1v-5c0-0.1,0.1-0.1,0.1-0.1
	c0.1,0,0.1,0,0.1,0.1V384.5z"/>
<path class="st3" d="M-168.1,380.4c-1.2,0-2.1,0.8-2.1,1.8v3.5c0,1,0.9,1.8,2.1,1.8c1.2,0,2.1-0.8,2.1-1.8v-3.5
	C-166,381.3-166.9,380.4-168.1,380.4z M-168,385.8c0,0.1-0.1,0.1-0.1,0.1c-0.1,0-0.1,0-0.1-0.1v-3.5c0-0.1,0.1-0.1,0.1-0.1
	c0.1,0,0.1,0,0.1,0.1V385.8z"/>
<path class="st3" d="M-223,382.2c-1.2,0-2.1,0.8-2.1,1.8v2.7c0,1,0.9,1.8,2.1,1.8c1.2,0,2.1-0.8,2.1-1.8V384
	C-221,383-221.9,382.2-223,382.2z M-222.9,386.7c0,0.1-0.1,0.1-0.1,0.1c-0.1,0-0.1,0-0.1-0.1V384c0-0.1,0.1-0.1,0.1-0.1
	c0.1,0,0.1,0,0.1,0.1V386.7z"/>
<path class="st3" d="M-192.5,353.9c-1.2,0-2.1,0.8-2.1,1.8v3.4c0,1,0.9,1.8,2.1,1.8c1.2,0,2.1-0.8,2.1-1.8v-3.4
	C-190.4,354.7-191.4,353.9-192.5,353.9z M-192.4,359.1c0,0.1-0.1,0.1-0.1,0.1c-0.1,0-0.1,0-0.1-0.1v-3.4c0-0.1,0.1-0.1,0.1-0.1
	c0.1,0,0.1,0,0.1,0.1V359.1z"/>
<path class="st3" d="M-211.1,352.7l-1.8-3.6l-1.8,3.6l-4.5,8.9l-1.2,2.4h3h9h3l-1.2-2.4L-211.1,352.7z M-217.3,362.3l4.5-8.9
	l4.5,8.9H-217.3z"/>
<path class="st3" d="M-230.6,354.1c-1.2,0-2.1,0.8-2.1,1.8v2.5c0,1,0.9,1.8,2.1,1.8s2.1-0.8,2.1-1.8V356
	C-228.5,354.9-229.5,354.1-230.6,354.1z M-230.5,358.5c0,0.1-0.1,0.1-0.1,0.1c-0.1,0-0.1,0-0.1-0.1V356c0-0.1,0.1-0.1,0.1-0.1
	c0.1,0,0.1,0,0.1,0.1V358.5z"/>
<path class="st3" d="M-176.2,354.6c-1.2,0-2.1,0.8-2.1,1.8v2.1c0,1,0.9,1.8,2.1,1.8c1.2,0,2.1-0.8,2.1-1.8v-2.1
	C-174.1,355.4-175,354.6-176.2,354.6z M-176.1,358.5c0,0.1-0.1,0.1-0.1,0.1c-0.1,0-0.1,0-0.1-0.1v-2.1c0-0.1,0.1-0.1,0.1-0.1
	c0.1,0,0.1,0,0.1,0.1V358.5z"/>
<path class="st4" d="M-192.5,353.9c-1.2,0-2.1,0.8-2.1,1.8v3.4c0,1,0.9,1.8,2.1,1.8c1.2,0,2.1-0.8,2.1-1.8v-3.4
	C-190.4,354.7-191.4,353.9-192.5,353.9z M-191.4,359.1c0,0.5-0.5,1-1.1,1c-0.6,0-1.1-0.4-1.1-1v-3.4c0-0.5,0.5-1,1.1-1
	c0.6,0,1.1,0.4,1.1,1V359.1z"/>
<path class="st4" d="M-241.4,362v-5.6c0-1-0.9-1.8-2.1-1.8c-1.2,0-2.1,0.8-2.1,1.8v5.6c0,1,0.9,1.8,2.1,1.8
	C-242.3,363.8-241.4,363-241.4,362z M-244.6,362v-5.6c0-0.5,0.5-1,1.1-1c0.6,0,1.1,0.4,1.1,1v5.6c0,0.5-0.5,1-1.1,1
	C-244.1,363-244.6,362.5-244.6,362z"/>
<path class="st4" d="M-236.3,369.7c1.7,0,3,1.2,3,2.6c0,1,0.9,1.8,2.1,1.8c1.2,0,2.1-0.8,2.1-1.8c0-1.8-0.9-3.4-2.3-4.6v-1.4
	c0-1-0.9-1.8-2.1-1.8c-1,0-1.9,0.7-2,1.5c-0.3,0-0.5-0.1-0.8-0.1c-0.3,0-0.5,0-0.8,0.1c-0.2-0.9-1-1.5-2-1.5c-1.2,0-2.1,0.8-2.1,1.8
	v1.4c-1.4,1.2-2.3,2.8-2.3,4.6c0,3.5,3.2,6.3,7.2,6.3c1.7,0,3,1.2,3,2.6c0,1.5-1.3,2.6-3,2.6s-3-1.2-3-2.6c0-1-0.9-1.8-2.1-1.8
	c-1.2,0-2.1,0.8-2.1,1.8c0,1.8,0.9,3.4,2.3,4.6v1.4c0,1,0.9,1.8,2.1,1.8c1,0,1.9-0.7,2-1.5c0.3,0,0.5,0.1,0.8,0.1
	c0.3,0,0.5,0,0.8-0.1c0.2,0.9,1,1.5,2,1.5c1.2,0,2.1-0.8,2.1-1.8v-1.4c1.4-1.2,2.3-2.8,2.3-4.6c0-3.5-3.2-6.3-7.2-6.3
	c-1.7,0-3-1.2-3-2.6C-239.3,370.9-238,369.7-236.3,369.7z M-240.3,372.3c0,1.9,1.8,3.5,4,3.5c3.4,0,6.2,2.4,6.2,5.4
	c0,1.5-0.7,2.9-2,3.9l-0.3,0.3v0.4v1.4c0,0.5-0.5,1-1.1,1c-0.5,0-1-0.3-1-0.8l-0.2-0.8l-0.9,0.1l-0.3,0c-0.1,0-0.3,0-0.4,0
	s-0.3,0-0.4,0l-0.3,0l-0.9-0.1l-0.2,0.8c-0.1,0.5-0.5,0.8-1,0.8c-0.6,0-1.1-0.4-1.1-1v-1.4v-0.4l-0.3-0.3c-1.3-1-2-2.4-2-3.9
	c0-0.5,0.5-1,1.1-1c0.6,0,1.1,0.4,1.1,1c0,1.9,1.8,3.5,4,3.5s4-1.6,4-3.5c0-1.9-1.8-3.5-4-3.5c-3.4,0-6.2-2.4-6.2-5.4
	c0-1.5,0.7-2.9,2-3.9l0.3-0.3v-0.4v-1.4c0-0.5,0.5-1,1.1-1c0.5,0,1,0.3,1,0.8l0.2,0.8l0.9-0.1l0.3,0c0.1,0,0.3,0,0.4,0s0.3,0,0.4,0
	l0.3,0l0.9,0.1l0.2-0.8c0.1-0.5,0.5-0.8,1-0.8c0.6,0,1.1,0.4,1.1,1v1.4v0.4l0.3,0.3c1.3,1,2,2.4,2,3.9c0,0.5-0.5,1-1.1,1
	c-0.6,0-1.1-0.4-1.1-1c0-1.9-1.8-3.5-4-3.5S-240.3,370.4-240.3,372.3z"/>
<path class="st4" d="M-249.1,375c-1.2,0-2.1,0.8-2.1,1.8v8.2c0,1,0.9,1.8,2.1,1.8c1.2,0,2.1-0.8,2.1-1.8v-8.2
	C-247,375.8-247.9,375-249.1,375z M-248,385c0,0.5-0.5,1-1.1,1c-0.6,0-1.1-0.4-1.1-1v-8.2c0-0.5,0.5-1,1.1-1c0.6,0,1.1,0.4,1.1,1
	V385z"/>
<path class="st4" d="M-199.1,377.6c-1.2,0-2.1,0.8-2.1,1.8v5c0,1,0.9,1.8,2.1,1.8c1.2,0,2.1-0.8,2.1-1.8v-5
	C-197.1,378.5-198,377.6-199.1,377.6z M-198,384.5c0,0.5-0.5,1-1.1,1c-0.6,0-1.1-0.4-1.1-1v-5c0-0.5,0.5-1,1.1-1
	c0.6,0,1.1,0.4,1.1,1V384.5z"/>
<path class="st4" d="M-203.3,363.4l-7.7-15.3c-0.3-0.7-1.1-1.1-1.9-1.1c-0.8,0-1.6,0.4-1.9,1.1l-7.7,15.3c0,0,0,0,0,0
	c-0.1,0.2-0.2,0.5-0.2,0.7c0,0.3,0.1,0.5,0.2,0.7c0,0,0,0,0,0l7.7,15.3c0.3,0.7,1.1,1.1,1.9,1.1c0.8,0,1.6-0.4,1.9-1.1l7.7-15.3
	c0,0,0,0,0,0c0.1-0.2,0.2-0.5,0.2-0.7C-203.1,363.9-203.2,363.6-203.3,363.4C-203.3,363.4-203.3,363.4-203.3,363.4z M-204.2,364.5
	L-204.2,364.5l-7.7,15.3c-0.2,0.4-0.6,0.6-1,0.6c-0.4,0-0.8-0.2-1-0.6l-7.6-15.2l0,0l-0.1-0.1c-0.1-0.1-0.1-0.3-0.1-0.4
	c0-0.1,0-0.3,0.1-0.4l0-0.1l7.6-15.2c0.2-0.4,0.6-0.6,1-0.6c0.4,0,0.8,0.2,1,0.6l7.6,15.2l0,0l0.1,0.1c0.1,0.1,0.1,0.3,0.1,0.4
	C-204.1,364.3-204.1,364.4-204.2,364.5z"/>
<path class="st4" d="M-168.1,380.4c-1.2,0-2.1,0.8-2.1,1.8v3.5c0,1,0.9,1.8,2.1,1.8c1.2,0,2.1-0.8,2.1-1.8v-3.5
	C-166,381.3-166.9,380.4-168.1,380.4z M-167,385.8c0,0.5-0.5,1-1.1,1c-0.6,0-1.1-0.4-1.1-1v-3.5c0-0.5,0.5-1,1.1-1
	c0.6,0,1.1,0.4,1.1,1V385.8z"/>
<path class="st4" d="M-212,353l-0.9-1.8l-0.9,1.8l-4.5,8.9l-0.6,1.2h1.5h9h1.5l-0.6-1.2L-212,353z M-217.3,362.3l4.5-8.9l4.5,8.9
	H-217.3z"/>
<path class="st4" d="M-217.3,365.1h-1.5l0.6,1.2l4.5,8.9l0.9,1.8l0.9-1.8l4.5-8.9l0.6-1.2h-1.5H-217.3z M-212.9,374.9l-4.5-8.9h9
	L-212.9,374.9z"/>
<path class="st4" d="M-176.2,354.6c-1.2,0-2.1,0.8-2.1,1.8v2.1c0,1,0.9,1.8,2.1,1.8c1.2,0,2.1-0.8,2.1-1.8v-2.1
	C-174.1,355.4-175,354.6-176.2,354.6z M-175.1,358.5c0,0.5-0.5,1-1.1,1c-0.6,0-1.1-0.4-1.1-1v-2.1c0-0.5,0.5-1,1.1-1
	c0.6,0,1.1,0.4,1.1,1V358.5z"/>
<path class="st4" d="M-230.6,354.1c-1.2,0-2.1,0.8-2.1,1.8v2.5c0,1,0.9,1.8,2.1,1.8s2.1-0.8,2.1-1.8V356
	C-228.5,354.9-229.5,354.1-230.6,354.1z M-229.5,358.5c0,0.5-0.5,1-1.1,1s-1.1-0.4-1.1-1V356c0-0.5,0.5-1,1.1-1s1.1,0.4,1.1,1V358.5
	z"/>
<path class="st4" d="M-223,382.2c-1.2,0-2.1,0.8-2.1,1.8v2.7c0,1,0.9,1.8,2.1,1.8c1.2,0,2.1-0.8,2.1-1.8V384
	C-221,383-221.9,382.2-223,382.2z M-221.9,386.7c0,0.5-0.5,1-1.1,1c-0.6,0-1.1-0.4-1.1-1V384c0-0.5,0.5-1,1.1-1c0.6,0,1.1,0.4,1.1,1
	V386.7z"/>
<path class="st0" d="M-208.8,416.6C-208.8,416.6-208.8,416.6-208.8,416.6l-0.2-0.1l0-0.1l-10.1-10.9c-0.2-0.3-0.7-0.4-1.1-0.3
	c-0.4,0.1-0.8,0.3-0.9,0.6l-4.9,13.5c0,0.1,0,0.2,0,0.3c0,0.1,0.1,0.2,0.1,0.2c0,0,0,0,0,0l0.2,0.1l0,0.1l10.1,10.9
	c0.2,0.3,0.7,0.4,1.1,0.3c0.4-0.1,0.8-0.3,0.9-0.6l4.9-13.5c0-0.1,0-0.2,0-0.3C-208.7,416.7-208.8,416.6-208.8,416.6z M-219.6,407.9
	l7.9,8.6l-11.8,1.9L-219.6,407.9z M-215.1,428.5l-7.9-8.6l11.8-1.9L-215.1,428.5z"/>
<path class="st3" d="M-208.1,416.1l-10.2-11c-0.4-0.5-1.3-0.7-2.1-0.6c-0.8,0.1-1.5,0.6-1.7,1.2l-4.9,13.5c0,0,0,0,0,0
	c-0.1,0.2-0.1,0.4,0,0.6s0.1,0.4,0.3,0.6c0,0,0,0,0,0l10.2,11c0.4,0.5,1.3,0.7,2.1,0.6c0.8-0.1,1.5-0.6,1.7-1.2l4.9-13.5
	c0,0,0,0,0,0c0.1-0.2,0.1-0.4,0-0.6C-207.8,416.4-207.9,416.2-208.1,416.1C-208,416.1-208,416.1-208.1,416.1z M-209.7,417.1
	l-4.9,13.4c0,0,0,0.1-0.1,0.1c0,0-0.1,0-0.1,0l-10-10.8l0-0.1l-0.2-0.2l0-0.1l4.9-13.4c0,0,0-0.1,0.1-0.1c0,0,0.1,0,0.1,0l10,10.8
	l0,0.1L-209.7,417.1L-209.7,417.1z"/>
<path class="st3" d="M-221.7,419l-3,0.5l1.6,1.7l5.9,6.4l2.4,2.6l1.2-3.2l2.9-7.9l0.8-2.1l-3,0.5L-221.7,419z M-215.5,426.8
	l-5.9-6.4l8.8-1.5L-215.5,426.8z"/>
<path class="st3" d="M-217.5,408.7l-2.4-2.6l-1.2,3.2l-2.9,7.9l-0.8,2.1l3-0.5l8.8-1.5l3-0.5l-1.6-1.7L-217.5,408.7z M-222.1,417.5
	l2.9-7.9l5.9,6.4L-222.1,417.5z"/>
<path class="st4" d="M-208.1,416.1l-10.2-11c-0.4-0.5-1.3-0.7-2.1-0.6c-0.8,0.1-1.5,0.6-1.7,1.2l-4.9,13.5c0,0,0,0,0,0
	c-0.1,0.2-0.1,0.4,0,0.6s0.1,0.4,0.3,0.6c0,0,0,0,0,0l10.2,11c0.4,0.5,1.3,0.7,2.1,0.6c0.8-0.1,1.5-0.6,1.7-1.2l4.9-13.5
	c0,0,0,0,0,0c0.1-0.2,0.1-0.4,0-0.6C-207.8,416.4-207.9,416.2-208.1,416.1C-208,416.1-208,416.1-208.1,416.1z M-208.7,417.1
	L-208.7,417.1l-4.9,13.5c-0.1,0.3-0.5,0.6-0.9,0.6c-0.4,0.1-0.9,0-1.1-0.3l-10.1-10.9l0,0l-0.1-0.1c-0.1-0.1-0.1-0.2-0.2-0.3
	c0-0.1,0-0.2,0-0.3l0-0.1l4.9-13.4c0.1-0.3,0.5-0.6,0.9-0.6c0.4-0.1,0.9,0,1.1,0.3l10.1,10.9l0,0l0.1,0.1c0.1,0.1,0.1,0.2,0.2,0.3
	C-208.7,416.9-208.7,417-208.7,417.1z"/>
<path class="st4" d="M-218.4,409.2l-1.2-1.3l-0.6,1.6l-2.9,7.9l-0.4,1.1l1.5-0.2l8.8-1.5l1.5-0.2l-0.8-0.9L-218.4,409.2z
	 M-222.1,417.5l2.9-7.9l5.9,6.4L-222.1,417.5z"/>
<path class="st4" d="M-221.6,419.7l-1.5,0.2l0.8,0.9l5.9,6.4l1.2,1.3l0.6-1.6l2.9-7.9l0.4-1.1l-1.5,0.2L-221.6,419.7z M-215.5,426.8
	l-5.9-6.4l8.8-1.5L-215.5,426.8z"/>
<path class="st0" d="M-195.1,367.2c1.4-0.4,2.9,0.3,3.3,1.4c0.1,0.3,0.5,0.5,0.9,0.4c0.4-0.1,0.6-0.4,0.5-0.7c-0.3-0.9-1-1.5-2-1.9
	l-0.3-0.1l-0.3-1c-0.1-0.3-0.5-0.5-0.9-0.4c-0.3,0.1-0.6,0.4-0.5,0.6l0,0.5l-0.8,0.1c-0.1,0-0.2,0-0.3,0c-0.1,0-0.2,0.1-0.3,0.1
	l-0.8,0.3l-0.2-0.4c-0.1-0.3-0.5-0.4-0.8-0.3c-0.4,0.1-0.6,0.4-0.5,0.7l0.3,1l-0.2,0.2c-0.6,0.8-0.9,1.7-0.6,2.6
	c0.5,1.7,2.8,2.6,5,2.1c1.4-0.4,2.9,0.3,3.3,1.4c0.3,1.1-0.5,2.3-2,2.6c-1.4,0.4-2.9-0.3-3.3-1.4c-0.1-0.3-0.5-0.5-0.9-0.4
	c-0.4,0.1-0.6,0.4-0.5,0.7c0.3,0.9,1,1.5,2,1.9l0.3,0.1l0.3,1c0.1,0.3,0.5,0.5,0.9,0.4c0.3-0.1,0.6-0.4,0.5-0.6l0-0.5l0.8-0.1
	c0.1,0,0.2,0,0.3,0c0.1,0,0.2-0.1,0.3-0.1l0.8-0.3l0.2,0.4c0.1,0.3,0.5,0.4,0.8,0.3c0.4-0.1,0.6-0.4,0.5-0.7l-0.3-1l0.2-0.2
	c0.6-0.8,0.9-1.7,0.6-2.6c-0.5-1.7-2.8-2.6-5.1-2.1c-1.4,0.4-2.9-0.3-3.3-1.4C-197.4,368.7-196.5,367.5-195.1,367.2z"/>
<path class="st3" d="M-194.9,367.7c1.1-0.3,2.2,0.2,2.5,1c0.2,0.6,0.9,0.9,1.7,0.7c0.8-0.2,1.2-0.8,1-1.4c-0.3-1-1.2-1.8-2.3-2.2
	l-0.2-0.8c-0.2-0.6-0.9-0.9-1.7-0.7c-0.7,0.2-1.1,0.7-1,1.2c-0.2,0-0.4,0-0.5,0.1c-0.2,0-0.3,0.1-0.5,0.2c-0.3-0.5-0.9-0.7-1.6-0.6
	c-0.8,0.2-1.2,0.8-1,1.4l0.2,0.8c-0.7,0.9-1,1.9-0.7,3c0.6,2,3.3,3.1,5.9,2.4c1.1-0.3,2.2,0.2,2.5,1c0.3,0.8-0.4,1.7-1.5,2
	s-2.2-0.2-2.5-1c-0.2-0.6-0.9-0.9-1.7-0.7c-0.8,0.2-1.2,0.8-1,1.4c0.3,1,1.2,1.8,2.3,2.2l0.2,0.8c0.2,0.6,0.9,0.9,1.7,0.7
	c0.7-0.2,1.1-0.7,1-1.2c0.2,0,0.4,0,0.5-0.1c0.2,0,0.3-0.1,0.5-0.2c0.3,0.5,0.9,0.7,1.6,0.6c0.8-0.2,1.2-0.8,1-1.4l-0.2-0.8
	c0.7-0.9,1-1.9,0.7-3c-0.6-2-3.3-3.1-5.9-2.4c-1.1,0.3-2.2-0.2-2.5-1C-196.7,368.8-196,368-194.9,367.7z M-193.6,371.7
	c1.9-0.5,3.8,0.3,4.2,1.8c0.2,0.7,0.1,1.5-0.5,2.2l-0.3,0.4l0.1,0.4l0.2,0.8c0,0,0,0.1-0.1,0.1c0,0-0.1,0-0.1,0l-0.5-0.9l-1.2,0.4
	l-0.2,0.1c-0.1,0-0.1,0-0.2,0.1c-0.1,0-0.1,0-0.2,0l-0.2,0l-1.3,0.2l0.1,1c0,0,0,0.1,0,0.1c0,0-0.1,0-0.1,0l-0.2-0.8l-0.1-0.4
	l-0.5-0.2c-0.9-0.3-1.5-0.9-1.7-1.6c0,0,0-0.1,0.1-0.1c0,0,0.1,0,0.1,0c0.4,1.4,2.3,2.1,4.1,1.7c1.8-0.4,2.9-1.9,2.5-3.3
	c-0.4-1.4-2.3-2.1-4.1-1.7c-1.9,0.5-3.8-0.3-4.2-1.8c-0.2-0.7-0.1-1.5,0.5-2.2l0.3-0.4l-0.1-0.4l-0.2-0.8c0,0,0-0.1,0.1-0.1
	c0,0,0.1,0,0.1,0l0.5,0.9l1.2-0.4l0.2-0.1c0.1,0,0.1,0,0.2-0.1c0.1,0,0.1,0,0.2,0l0.2,0l1.3-0.2l-0.1-1c0,0,0-0.1,0-0.1
	c0,0,0.1,0,0.1,0l0.2,0.8l0.1,0.4l0.5,0.2c0.9,0.3,1.5,0.9,1.7,1.6c0,0,0,0.1-0.1,0.1c0,0-0.1,0-0.1,0c-0.4-1.4-2.3-2.1-4.1-1.7
	c-1.8,0.4-2.9,1.9-2.5,3.3C-197.3,371.4-195.4,372.1-193.6,371.7z"/>
<path class="st4" d="M-194.9,367.7c1.1-0.3,2.2,0.2,2.5,1c0.2,0.6,0.9,0.9,1.7,0.7c0.8-0.2,1.2-0.8,1-1.4c-0.3-1-1.2-1.8-2.3-2.2
	l-0.2-0.8c-0.2-0.6-0.9-0.9-1.7-0.7c-0.7,0.2-1.1,0.7-1,1.2c-0.2,0-0.4,0-0.5,0.1c-0.2,0-0.3,0.1-0.5,0.2c-0.3-0.5-0.9-0.7-1.6-0.6
	c-0.8,0.2-1.2,0.8-1,1.4l0.2,0.8c-0.7,0.9-1,1.9-0.7,3c0.6,2,3.3,3.1,5.9,2.4c1.1-0.3,2.2,0.2,2.5,1c0.3,0.8-0.4,1.7-1.5,2
	s-2.2-0.2-2.5-1c-0.2-0.6-0.9-0.9-1.7-0.7c-0.8,0.2-1.2,0.8-1,1.4c0.3,1,1.2,1.8,2.3,2.2l0.2,0.8c0.2,0.6,0.9,0.9,1.7,0.7
	c0.7-0.2,1.1-0.7,1-1.2c0.2,0,0.4,0,0.5-0.1c0.2,0,0.3-0.1,0.5-0.2c0.3,0.5,0.9,0.7,1.6,0.6c0.8-0.2,1.2-0.8,1-1.4l-0.2-0.8
	c0.7-0.9,1-1.9,0.7-3c-0.6-2-3.3-3.1-5.9-2.4c-1.1,0.3-2.2-0.2-2.5-1C-196.7,368.8-196,368-194.9,367.7z M-197,369.8
	c0.3,1.1,1.8,1.7,3.3,1.4c2.2-0.5,4.5,0.4,5,2.1c0.3,0.9,0.1,1.8-0.6,2.6l-0.2,0.2l0.1,0.2l0.2,0.8c0.1,0.3-0.1,0.6-0.5,0.7
	c-0.3,0.1-0.7,0-0.8-0.3l-0.2-0.4l-0.6,0.2l-0.2,0.1c-0.1,0-0.2,0.1-0.3,0.1c-0.1,0-0.2,0-0.3,0l-0.2,0l-0.6,0.1l0,0.5
	c0,0.3-0.2,0.6-0.5,0.6c-0.4,0.1-0.8-0.1-0.9-0.4l-0.2-0.8l-0.1-0.2l-0.3-0.1c-1-0.4-1.7-1.1-2-1.9c-0.1-0.3,0.2-0.6,0.5-0.7
	c0.4-0.1,0.8,0.1,0.9,0.4c0.3,1.1,1.8,1.7,3.3,1.4c1.4-0.4,2.3-1.5,2-2.6c-0.3-1.1-1.8-1.7-3.3-1.4c-2.2,0.5-4.5-0.4-5-2.1
	c-0.3-0.9-0.1-1.8,0.6-2.6l0.2-0.2l-0.1-0.2l-0.2-0.8c-0.1-0.3,0.1-0.6,0.5-0.7c0.3-0.1,0.7,0,0.8,0.3l0.2,0.4l0.6-0.2l0.2-0.1
	c0.1,0,0.2-0.1,0.3-0.1s0.2,0,0.3,0l0.2,0l0.6-0.1l0-0.5c0-0.3,0.2-0.6,0.5-0.6c0.4-0.1,0.8,0.1,0.9,0.4l0.2,0.8l0.1,0.2l0.3,0.1
	c1,0.4,1.7,1.1,2,1.9c0.1,0.3-0.1,0.6-0.5,0.7c-0.4,0.1-0.8-0.1-0.9-0.4c-0.3-1.1-1.8-1.7-3.3-1.4
	C-196.5,367.5-197.4,368.7-197,369.8z"/>
</svg>
